ply
format ascii 1.0
element vertex 150
property float x
property float y
property float z
property uchar red
property uchar green
property uchar blue
element face 120
property list uchar int vertex_index
end_header
64.7737 -92.5473 -464.469 0 0 255
55.7931 -102.644 -410.503 0 0 255
54.7981 -69.2248 -415.174 0 0 255
88.22 -68.8933 -419.921 0 0 255
89.215 -102.313 -415.25 0 0 255
206.64 -40.4027 -475.799 0 0 255
196.405 -48.1978 -421.675 0 0 255
198.885 -14.9779 -427.148 0 0 255
232.185 -18.2063 -431.657 0 0 255
229.706 -51.4261 -426.183 0 0 255
109.857 -37.3388 -492.359 0 0 255
98.1376 -46.002 -438.67 0 0 255
98.5278 -12.672 -444.02 0 0 255
132.119 -13.5854 -447.26 0 0 255
131.728 -46.9153 -441.909 0 0 255
-179.374 -93.2124 -524.574 0 0 255
-193.165 -102.295 -471.449 0 0 255
-193.748 -68.9732 -476.832 0 0 255
-160.035 -68.6625 -478.563 0 0 255
-159.451 -101.984 -473.18 0 0 255
-131.416 -23.2283 -494.898 0 0 255
-142.401 -30.1352 -440.8 0 0 255
-140.46 3.01015 -446.906 0 0 255
-107.034 0.334783 -450.806 0 0 255
-108.975 -32.8106 -444.699 0 0 255
55.6047 -80.6461 -502.158 0 0 255
44.6182 -92.0794 -448.833 0 0 255
43.9916 -58.5439 -452.659 0 0 255
77.5647 -58.3194 -456.19 0 0 255
78.1913 -91.855 -452.364 0 0 255
-54.4512 -60.791 -475.281 0 0 255
-63.2311 -71.069 -421.316 0 0 255
-60.3537 -37.663 -425.244 0 0 255
-27.2582 -41.1787 -430.9 0 0 255
-30.1355 -74.5847 -426.972 0 0 255
-167.4 -48.3565 -512.436 0 0 255
-180.51 -56.0128 -458.916 0 0 255
-179.609 -22.7809 -464.789 0 0 255
-145.962 -24.1192 -467.196 0 0 255
-146.864 -57.3512 -461.322 0 0 255
-82.6893 -208.262 -540.528 0 0 255
-92.1771 -224.285 -488.105 0 0 255
-95.3636 -190.705 -489.493 0 0 255
-61.9446 -187.687 -493.199 0 0 255
-58.7581 -221.267 -491.81 0 0 255
6.77305 -136.107 -511.945 0 0 255
-2.8445 -149.766 -458.88 0 0 255
-4.79611 -116.168 -461.526 0 0 255
28.6782 -114.543 -465.588 0 0 255
30.6298 -148.142 -462.942 0 0 255
-163.962 -141.375 -533.657 0 0 255
-177.46 -152.831 -480.916 0 0 255
-179.413 -119.397 -485.162 0 0 255
-145.738 -117.635 -486.774 0 0 255
-143.786 -151.069 -482.528 0 0 255
-36.7802 -188.383 -526.73 0 0 255
-45.7209 -204.176 -474.141 0 0 255
-48.5599 -170.567 -475.57 0 0 255
-15.1641 -167.923 -479.741 0 0 255
-12.325 -201.532 -478.312 0 0 255
-91.2012 -30.9916 -482.662 0 0 255
-101.338 -38.9613 -428.544 0 0 255
-98.4604 -5.74497 -433.842 0 0 255
-65.2197 -9.36616 -438.491 0 0 255
-68.0973 -42.5825 -433.193 0 0 255
-128.459 -190.616 -543.21 0 0 255
-140.58 -205.191 -490.907 0 0 255
-143.261 -171.622 -493.274 0 0 255
-109.669 -169.096 -495.486 0 0 255
-106.989 -202.665 -493.119 0 0 255
233.392 -112.198 -474.634 0 0 255
223.732 -123.636 -421.054 0 0 255
227.125 -90.1895 -424.138 0 0 255
260.243 -94.038 -429.434 0 0 255
256.85 -127.484 -426.35 0 0 255
169.976 -190.415 -474.411 0 0 255
156.708 -206.72 -422.903 0 0 255
160.241 -173.147 -422.637 0 0 255
193.651 -176.637 -426.002 0 0 255
190.117 -210.21 -426.268 0 0 255
-152.522 -58.2942 -544.841 0 0 255
-168.265 -65.2644 -491.94 0 0 255
-166.297 -32.1048 -497.96 0 0 255
-132.617 -34.2559 -498.8 0 0 255
-134.585 -67.4154 -492.78 0 0 255
216.468 -167.11 -476.961 0 0 255
205.191 -182.192 -424.613 0 0 255
208.752 -148.628 -425.267 0 0 255
242.004 -152.244 -429.837 0 0 255
238.443 -185.809 -429.184 0 0 255
-28.5985 -94.0997 -486.523 0 0 255
-45.0345 -104.15 -434.333 0 0 255
-39.9414 -70.9238 -437.455 0 0 255
-6.61199 -76.1487 -438.689 0 0 255
-11.7051 -109.375 -435.567 0 0 255
162.046 -18.9295 -481.967 0 0 255
150.903 -25.7862 -427.895 0 0 255
152.599 7.35805 -434.08 0 0 255
186.061 4.94459 -437.841 0 0 255
184.365 -28.1997 -431.656 0 0 255
102.07 -173.557 -471.943 0 0 255
87.0544 -188.185 -420.411 0 0 255
91.3137 -154.7 -420.931 0 0 255
124.717 -158.985 -423.276 0 0 255
120.458 -192.47 -422.755 0 0 255
-122.163 -43.3711 -525.361 0 0 255
-138.407 -49.2754 -472.482 0 0 255
-134.253 -16.3189 -478.505 0 0 255
-100.787 -20.6813 -479.296 0 0 255
-104.94 -53.6378 -473.272 0 0 255
-76.802 -58.1292 -502.882 0 0 255
-93.1816 -65.25 -450.195 0 0 255
-88.3428 -32.2237 -455.247 0 0 255
-54.9737 -37.2548 -456.176 0 0 255
-59.8125 -70.2811 -451.124 0 0 255
-170.437 -95.468 -556.198 0 0 255
-185.747 -104.735 -503.523 0 0 255
-185.523 -71.3623 -508.608 0 0 255
-151.778 -71.7228 -509.489 0 0 255
-152.002 -105.096 -504.403 0 0 255
28.8423 -138.002 -475.598 0 0 255
12.3341 -150.834 -424.044 0 0 255
17.4483 -117.491 -425.369 0 0 255
50.7766 -122.662 -426.84 0 0 255
45.6623 -156.005 -425.515 0 0 255
-104.58 -191.829 -540.575 0 0 255
-114.905 -206.876 -488.021 0 0 255
-118.343 -173.36 -490.148 0 0 255
-84.887 -170.128 -493.3 0 0 255
-81.449 -203.644 -491.173 0 0 255
-173.561 -142.189 -562.839 0 0 255
-188.504 -154.477 -510.678 0 0 255
-189.868 -120.94 -514.3 0 0 255
-156.143 -119.65 -515.065 0 0 255
-154.778 -153.187 -511.443 0 0 255
-151.048 -178.598 -558.364 0 0 255
-164.162 -193.029 -506.261 0 0 255
-166.822 -159.469 -508.778 0 0 255
-133.196 -156.922 -510.351 0 0 255
-130.536 -190.482 -507.834 0 0 255
-52.831 -174.128 -518.461 0 0 255
-61.2198 -188.388 -465.345 0 0 255
-64.3148 -154.858 -467.763 0 0 255
-30.9748 -152.107 -472.297 0 0 255
-27.8798 -185.637 -469.879 0 0 255
6.22677 -137.552 -494.148 0 0 255
-1.47991 -150.455 -440.584 0 0 255
-4.01261 -116.937 -443.714 0 0 255
29.2864 -114.903 -448.882 0 0 255
31.8191 -148.421 -445.752 0 0 255
3 0 1 2
3 0 2 3
3 0 3 4
3 0 4 1
3 5 6 7
3 5 7 8
3 5 8 9
3 5 9 6
3 10 11 12
3 10 12 13
3 10 13 14
3 10 14 11
3 15 16 17
3 15 17 18
3 15 18 19
3 15 19 16
3 20 21 22
3 20 22 23
3 20 23 24
3 20 24 21
3 25 26 27
3 25 27 28
3 25 28 29
3 25 29 26
3 30 31 32
3 30 32 33
3 30 33 34
3 30 34 31
3 35 36 37
3 35 37 38
3 35 38 39
3 35 39 36
3 40 41 42
3 40 42 43
3 40 43 44
3 40 44 41
3 45 46 47
3 45 47 48
3 45 48 49
3 45 49 46
3 50 51 52
3 50 52 53
3 50 53 54
3 50 54 51
3 55 56 57
3 55 57 58
3 55 58 59
3 55 59 56
3 60 61 62
3 60 62 63
3 60 63 64
3 60 64 61
3 65 66 67
3 65 67 68
3 65 68 69
3 65 69 66
3 70 71 72
3 70 72 73
3 70 73 74
3 70 74 71
3 75 76 77
3 75 77 78
3 75 78 79
3 75 79 76
3 80 81 82
3 80 82 83
3 80 83 84
3 80 84 81
3 85 86 87
3 85 87 88
3 85 88 89
3 85 89 86
3 90 91 92
3 90 92 93
3 90 93 94
3 90 94 91
3 95 96 97
3 95 97 98
3 95 98 99
3 95 99 96
3 100 101 102
3 100 102 103
3 100 103 104
3 100 104 101
3 105 106 107
3 105 107 108
3 105 108 109
3 105 109 106
3 110 111 112
3 110 112 113
3 110 113 114
3 110 114 111
3 115 116 117
3 115 117 118
3 115 118 119
3 115 119 116
3 120 121 122
3 120 122 123
3 120 123 124
3 120 124 121
3 125 126 127
3 125 127 128
3 125 128 129
3 125 129 126
3 130 131 132
3 130 132 133
3 130 133 134
3 130 134 131
3 135 136 137
3 135 137 138
3 135 138 139
3 135 139 136
3 140 141 142
3 140 142 143
3 140 143 144
3 140 144 141
3 145 146 147
3 145 147 148
3 145 148 149
3 145 149 146
