ply
format ascii 1.0
element vertex 148
property float x
property float y
property float z
property uchar intensity
end_header
-7.0897 -2.77633 295.714 0
-8.92963 -1.32302 489.079 0
-5.25953 -0.891867 404.079 0
-9.2719 -2.83514 296.324 0
-7.72981 -0.821188 469.105 0
-4.9616 -0.622649 363.857 0
-10.2834 -2.84946 296.491 0
-5.71738 -0.381087 366.894 0
-5.07566 -0.493317 427.394 0
-5.85397 -0.267513 372.145 0
-3.92802 -0.197216 291.158 0
-6.32864 -0.00788952 337.364 0
-5.71783 0.0523416 345.426 0
-4.37148 0.0550801 304.313 0
-6.2129 0.248281 369.831 0
-8.4505 -1.59525 296.027 0
-8.22179 -1.49319 295.973 0
-10.0172 -0.0135568 296.945 0
-13.8479 -3.02751 296.249 0
-9.4298 -1.34999 296.196 0
-9.20993 -1.24257 296.145 0
-11.5746 -0.812127 289.166 0
-15.3617 -17.4168 300.825 0
-14.5309 -16.5082 300.244 0
-6.85265 -2.50953 295.601 0
-5.38541 -1.01388 404.048 0
-8.49149 -2.27159 296.112 0
-10.7288 -2.91005 296.681 0
-10.7288 -2.91005 296.681 0
-9.629 -2.47208 296.357 0
-5.03014 0.116914 315.94 0
-6.20915 0.175021 338.264 0
-13.4228 0.769054 314.39 0
-11.8508 0.353607 303.895 0
-14.2054 -2.45577 295.917 0
-10.8706 -0.801342 289.518 0
-12.3344 -1.34288 296.078 0
6.98314 6.5481 401.539 0
-23.2835 -23.024 305.672 0
-23.2835 -23.024 305.672 0
-14.4563 -13.6132 299.484 0
-12.5713 -10.2769 298.079 0
-15.4124 -11.6457 299.155 0
-12.0088 -9.43828 297.774 0
-8.53628 -6.58725 296.285 0
-9.81775 -5.72486 296.672 0
-11.4153 -6.03977 297.094 0
-11.4153 -6.03977 297.094 0
-9.56567 -5.21156 296.569 0
-11.0799 -5.46292 296.95 0
-11.0799 -5.46292 296.95 0
-7.28501 -3.57686 295.758 0
-8.432 -3.63247 296.164 0
-10.8981 -4.29994 296.72 0
-7.21748 -2.71454 295.768 0
-4.81076 -0.686664 327.895 0
-9.09521 -2.62436 296.235 0
-7.49805 -2.14148 295.8 0
-4.96744 -0.420874 352.953 0
-5.31338 -0.343249 361.687 0
-10.6789 -2.68673 296.478 0
-6.42855 0.0490597 355.854 0
-11.9582 -2.38648 296.435 0
-12.8807 -1.41232 296.001 0
-14.4004 -10.4157 298.62 0
-11.3212 -4.39285 296.934 0
-8.95171 -2.42244 296.224 0
-4.96375 -0.122297 347.74 0
-7.88724 -1.704 295.912 0
-10.4943 -2.3215 296.427 0
-10.4943 -2.3215 296.427 0
-10.7273 -2.15349 296.4 0
-9.14087 -1.49975 296.16 0
-9.14087 -1.49975 296.16 0
-10.3641 0.180505 294.665 0
-10.3641 0.180505 294.665 0
-11.9847 0.174405 303.86 0
-14.3166 -2.65397 295.938 0
-9.39695 -0.843544 296.387 0
-12.5352 -1.36347 296.068 0
-12.5352 -1.36347 296.068 0
-12.8291 -14.1386 298.87 0
-12.8291 -14.1386 298.87 0
-6.92889 -3.07246 295.655 0
-6.92889 -3.07246 295.655 0
-8.42516 -3.13003 296.12 0
-8.42516 -3.13003 296.12 0
-8.53518 -2.92567 296.14 0
-6.17398 -0.932981 392.074 0
-10.1085 -3.19173 296.468 0
-8.27563 -2.59054 296.111 0
-10.0401 -2.83809 296.449 0
-4.04272 -0.360356 314.507 0
-6.75604 -0.28737 373.724 0
-6.49843 -0.211218 342.619 0
-9.39225 -2.29453 296.285 0
-8.24458 -1.88471 296.058 0
-12.3659 -2.74368 296.478 0
-8.84401 -1.33183 296.111 0
-10.5979 -0.953137 289.674 0
-12.9301 -1.6697 296.049 0
-12.2218 -1.36816 296.141 0
-13.0247 -1.43149 295.929 0
-13.012 -1.42268 295.853 0
-10.944 -11.279 297.588 0
-14.4137 -13.2217 299.357 0
-9.33469 -8.65445 296.72 0
-11.9652 -9.7116 297.789 0
-8.47149 -6.80962 296.312 0
-10.4099 -7.30507 297.014 0
-7.20496 -3.76712 295.775 0
-8.70803 -3.87935 296.249 0
-6.76241 -2.70412 295.626 0
-6.93845 -2.44938 295.632 0
-6.9154 -2.08128 295.64 0
-5.14296 -0.503145 320.858 0
-5.14296 -0.503145 320.858 0
-9.96185 -2.43998 296.414 0
-9.96185 -2.43998 296.414 0
-9.98355 -2.04781 296.354 0
-10.6388 0.449341 287.027 0
-20.8077 -17.2404 302.02 0
-11.9869 -9.73252 297.798 0
-15.3706 -11.2802 299.022 0
-14.368 -9.23251 298.327 0
-13.018 -8.05708 297.738 0
-11.4879 -5.80822 297.061 0
-10.5653 -4.02172 296.652 0
-4.99361 -0.80221 425.684 0
-8.15749 -2.20357 296.018 0
-9.10046 -1.80524 296.186 0
-9.47185 -1.52753 296.208 0
-11.801 -1.41407 296.22 0
-25.4421 -21.3187 303.819 0
-9.60891 -2.80124 296.324 0
-9.60891 -2.80124 296.324 0
-8.67903 -0.0269291 383.335 0
-11.6031 -2.40778 296.457 0
-10.8529 -1.77007 296.332 0
-10.8529 -1.77007 296.332 0
-10.2433 0.327374 305.174 0
-12.583 -1.86185 296.198 0
-13.6788 -1.61896 295.765 0
-8.75454 -2.05427 296.134 0
-7.63507 -3.07195 295.941 0
-15.0466 -15.3469 300.049 0
-19.6336 -17.688 302.486 0
-9.85871 -4.32931 296.551 0
