ply
format ascii 1.0
element vertex 167
property float x
property float y
property float z
property uchar intensity
end_header
-3.60204 -0.792604 154.2 0
-4.7033 -2.0384 204.684 0
-3.37762 -1.84858 189.446 0
-3.03331 -1.67518 187.253 0
-4.1374 -0.667132 154.577 0
-4.27653 -1.84238 201.47 0
-4.36899 -0.603191 154.735 0
-3.90425 -1.63659 193.951 0
-3.68635 -1.65366 197.554 0
-3.41426 -1.56901 188.419 0
-3.94804 -1.59262 195.124 0
-3.72871 -0.54901 154.277 0
-3.77985 -1.49467 199.158 0
-4.0157 -1.26038 173.541 0
-4.51331 -0.475419 154.81 0
-3.87976 -1.23504 182.463 0
-4.02662 -0.442512 154.471 0
-3.97466 -0.432631 154.432 0
-4.6582 -0.351442 154.855 0
-4.2843 -0.326639 154.637 0
-4.2386 -0.315122 154.604 0
-4.7707 -0.223085 154.927 0
-3.75872 -2.37058 154.259 0
-4.43033 -2.0091 198.918 0
-3.44175 -1.90238 189.619 0
-3.55595 -0.748471 154.159 0
-4.25794 -1.89016 198.032 0
-3.23792 -1.70774 193.731 0
-4.4561 -0.589715 154.981 0
-4.4561 -0.589715 154.981 0
-3.99 -0.593661 154.473 0
-4.24858 -0.566038 154.666 0
-4.20164 -1.45922 199.689 0
-5.27698 -0.377847 155.429 0
-5.1444 -0.37824 155.141 0
-4.78932 -0.390074 154.964 0
-8.44037 -0.874778 175.721 0
-7.13244 -0.810741 164.524 0
-5.30171 -0.225166 155.217 0
-4.18889 1.88913 219.92 0
-3.73512 -2.3485 154.324 0
-4.17117 -2.25134 154.614 0
-4.17117 -2.25134 154.614 0
-3.74896 -2.04824 154.268 0
-3.74927 -2.04925 154.284 0
-4.60121 -1.82925 155.165 0
-4.09704 -1.72354 154.569 0
-4.3978 -1.66819 154.804 0
-4.3978 -1.66819 154.804 0
-4.08716 -1.64652 154.571 0
-3.67103 -1.46097 154.22 0
-4.32008 -1.13941 154.72 0
-4.32008 -1.13941 154.72 0
-4.01412 -1.12522 154.484 0
-4.30799 -1.06079 154.7 0
-4.30799 -1.06079 154.7 0
-3.6031 -0.955854 154.151 0
-3.88093 -0.890563 154.385 0
-4.38 -0.855005 154.707 0
-4.45419 -0.844093 154.911 0
-3.63668 -0.768516 154.167 0
-3.70155 -1.74271 188.176 0
-4.17703 -0.665859 154.53 0
-4.11312 -0.63298 154.533 0
-3.31051 -1.54594 177.602 0
-3.74946 -0.625165 154.302 0
-4.09137 -0.599806 154.547 0
-3.77824 -1.66191 196.456 0
-0.589175 -1.52658 209.437 0
-4.17466 -1.46368 204.772 0
-3.94214 -1.17213 173.545 0
-6.20811 -1.03981 162.337 0
-4.29456 -0.214346 155.001 0
-5.10908 -0.101597 155.078 0
-2.86052 0.393799 204.94 0
-4.16342 -2.1672 154.602 0
-4.38012 -1.58589 154.801 0
-3.60684 -0.950071 154.157 0
-4.37118 -0.770602 154.714 0
-3.85739 -0.767056 154.374 0
-3.95602 -0.732825 154.401 0
-3.68771 -0.672498 154.263 0
-4.47402 -0.543482 154.798 0
-3.62994 -1.51405 191.929 0
-4.20678 -0.542304 154.611 0
-4.00824 -1.27816 178.333 0
-4.46233 -0.477397 154.784 0
-3.87631 -0.500769 154.382 0
-4.53054 -0.424716 154.801 0
-4.20476 -0.379266 154.576 0
-4.20476 -0.379266 154.576 0
-6.41114 -0.913507 161.629 0
-6.41114 -0.913507 161.629 0
-7.21213 -0.905128 164.532 0
-5.30282 -0.258316 155.199 0
-5.03084 -0.117609 155.032 0
-5.03084 -0.117609 155.032 0
-3.72465 -2.22889 154.307 0
-3.72465 -2.22889 154.307 0
-3.54166 -0.869412 154.16 0
-3.54166 -0.869412 154.16 0
-3.91668 -0.785594 154.379 0
-3.91668 -0.785594 154.379 0
-3.54283 -2.08853 196.183 0
-3.82086 -1.82821 186.925 0
-4.30415 -0.687286 154.644 0
-3.91401 -0.677799 154.454 0
-4.31568 -0.617762 154.696 0
-4.11314 -1.46715 182.456 0
-4.08546 -1.3706 174.792 0
-4.14097 -0.358318 154.563 0
-5.09324 -0.15657 155.068 0
-4.9541 -0.142882 155.006 0
-5.14492 -0.0934733 155.077 0
-4.02744 -5.76313 202.756 0
-4.07313 -1.95931 154.575 0
-4.4881 -1.88696 154.892 0
-3.9139 -5.14918 203.343 0
-4.05167 -1.69192 154.534 0
-4.43398 -1.62342 154.834 0
-3.63585 -1.50689 154.247 0
-4.00056 -1.43703 154.495 0
-4.41094 -1.35165 154.785 0
-4.35702 -1.09279 154.736 0
-3.56833 -1.00179 154.174 0
-3.92803 -0.922944 154.415 0
-4.33283 -0.823753 154.679 0
-3.51898 -0.799029 154.183 0
-3.59232 -1.90441 193.258 0
-3.58323 -0.729578 154.173 0
-3.43385 -1.72857 195.579 0
-3.59672 -0.645919 154.197 0
-4.32854 -0.538269 154.732 0
-4.32854 -0.538269 154.732 0
-4.84382 -0.43583 155.017 0
-4.36458 -0.450196 154.723 0
-6.62089 -0.725133 159.21 0
-5.14884 -0.0904776 155.016 0
-3.70296 -2.33016 154.307 0
-4.58951 -1.96946 155.01 0
-4.05321 -1.6928 154.526 0
-4.51035 -1.42461 154.946 0
-3.15134 -1.23007 154.814 0
-3.18746 -1.84227 192.717 0
-3.18746 -1.84227 192.717 0
-3.98035 -1.71624 193.955 0
-3.98035 -1.71624 193.955 0
-4.22323 -0.638336 154.579 0
-4.22323 -0.638336 154.579 0
-3.91204 -0.59895 154.423 0
-0.641494 -1.42004 203.791 0
-4.17278 -0.451796 154.597 0
-4.28257 -0.36489 154.644 0
-4.60287 2.38621 219.788 0
-3.80997 -0.527211 154.331 0
-4.59348 -0.331498 154.826 0
-4.59348 -0.331498 154.826 0
-6.25347 -0.873944 164.858 0
-4.98848 -0.227641 155.041 0
-5.28427 -0.0812267 155.121 0
-4.07049 -0.528631 154.517 0
-4.7073 -0.420166 154.942 0
-4.14258 -0.251673 155.053 0
-4.29146 -2.01561 154.871 0
-3.72175 -0.823739 154.334 0
-4.15115 -0.931211 154.593 0
-4.20644 2.31861 219.318 0
