ply
format ascii 1.0
element vertex 241
property float x
property float y
property float z
property uchar intensity
end_header
-0.594359 -4.02507 150.75 0
-0.551945 -2.54029 150.392 0
-5.42725 -1.78054 200.661 0
-0.86877 -2.47019 150.557 0
-1.12109 -2.4337 150.722 0
-1.12084 -2.43321 150.687 0
-4.76896 -1.68989 197.482 0
-1.36713 -2.37796 150.826 0
-1.3675 -2.37815 150.859 0
-0.171351 -2.37282 150.902 0
-3.97254 -1.68045 191.172 0
-2.93085 -1.89817 184.532 0
-2.4121 -2.23922 169.651 0
-1.12702 -2.26534 150.657 0
-1.52457 -2.25682 150.918 0
-4.58149 -1.37618 195.695 0
-1.76074 -2.23763 151.101 0
-4.11902 -1.40654 195.199 0
-1.01628 -2.20703 150.615 0
-0.96221 -2.19547 150.579 0
-2.33776 -2.18259 151.474 0
-0.981844 -2.14614 150.64 0
-1.67967 -2.14055 150.946 0
-1.29236 -2.10105 150.755 0
-1.80486 -2.01675 151.004 0
-2.04705 -1.95329 151.105 0
-0.585321 -2.51984 150.355 0
-0.50562 -2.49503 150.353 0
-4.71716 -1.97062 194.936 0
-1.15701 -2.43687 150.672 0
-4.48509 -1.87745 194.06 0
-1.35548 -2.42612 150.877 0
-1.09566 -2.39988 150.679 0
-0.590958 -2.406 150.383 0
-1.47379 -2.36015 151.097 0
-1.47379 -2.36015 151.097 0
-0.970913 -2.35533 150.626 0
-1.48041 -2.32271 150.911 0
-3.15253 -1.80731 189.843 0
0.0972773 -2.34678 151.43 0
-0.698574 -2.30227 150.448 0
-4.94248 -1.17029 200.762 0
-2.34452 -2.14638 169.656 0
-3.752 -2.61828 158.317 0
-2.18377 -2.18641 151.196 0
-1.81618 -2.18291 151.047 0
-1.82667 -2.145 151.071 0
0.0300291 -2.11405 150.946 0
-7.00546 -2.04612 171.479 0
-4.85271 -2.35878 160.417 0
-2.35541 -2.04061 151.254 0
-1.12594 -1.06971 206.11 0
-6.31502 2.79371 215.699 0
-1.05762 -3.93456 150.939 0
-0.629243 -3.79922 150.522 0
-1.4684 -3.6933 151.122 0
-1.4684 -3.6933 151.122 0
-0.930996 -3.68311 150.768 0
-0.930996 -3.68311 150.768 0
-1.56997 -3.68107 151.308 0
-1.01671 -3.48485 150.765 0
-4.25411 -4.7905 199.524 0
-1.33736 -3.43908 150.975 0
-1.33736 -3.43908 150.975 0
-1.04385 -3.56985 171.368 0
-0.581777 -3.21017 150.434 0
-0.581856 -3.21032 150.437 0
-1.51468 -3.14485 151.196 0
0.157191 -3.12347 152.535 0
-1.40672 -3.0776 150.951 0
-1.50512 -3.0633 151.089 0
0.836739 -3.27927 185.237 0
0.836739 -3.27927 185.237 0
-0.169447 -2.96217 151.05 0
-1.28538 -2.91036 150.873 0
-1.28538 -2.91036 150.873 0
-1.27653 -2.83202 150.85 0
-1.27653 -2.83202 150.85 0
-0.545683 -2.78084 150.352 0
-0.844465 -2.72584 150.516 0
-0.539442 -2.70514 150.351 0
-0.539387 -2.70505 150.345 0
-0.83771 -2.6481 150.56 0
-1.36102 -2.63083 150.836 0
-1.3612 -2.63107 150.843 0
-1.45872 -2.61249 151.032 0
-2.33121 -2.50171 182.133 0
-0.0388717 -2.59011 151.036 0
-1.3534 -2.55021 150.813 0
-1.3534 -2.55021 150.813 0
-2.54899 -2.38713 191.268 0
-2.44066 -2.29469 186.962 0
-1.01436 -2.37875 150.631 0
-0.716541 -2.3785 150.475 0
-1.07707 -2.36486 150.693 0
-2.00308 -2.31255 173.761 0
-2.19255 -1.85675 189.833 0
-0.294423 -2.31504 150.62 0
-2.76949 -2.0598 174.426 0
0.0733744 -2.10143 151.484 0
-2.16046 -1.9109 151.124 0
-1.55765 -3.59778 151.327 0
0.188004 -3.67607 153.454 0
-4.259 -4.78736 200.059 0
-1.3323 -3.44444 150.938 0
-1.01636 -3.39998 150.756 0
-1.01636 -3.39998 150.756 0
-1.49572 -3.10665 151.198 0
0.158117 -3.07127 152.473 0
-0.543928 -2.69939 150.355 0
-0.832027 -2.64233 150.488 0
-0.484137 -2.61471 150.359 0
-0.484137 -2.61471 150.359 0
-1.44318 -2.57605 150.987 0
-1.35803 -2.54607 150.846 0
-0.820887 -2.5239 150.545 0
-0.923187 -2.4949 150.563 0
-0.64925 -2.42338 150.443 0
-1.2003 -2.31221 150.746 0
-2.57039 -2.30222 170.897 0
-3.41679 -1.71301 188.01 0
-1.47169 -2.25664 150.895 0
-0.856343 -2.25925 150.539 0
-1.90327 -1.65169 192.632 0
0.221598 -2.23832 152.337 0
-0.0146447 -2.17734 151.115 0
-1.20543 -2.15095 150.703 0
-1.20543 -2.15095 150.703 0
-3.90767 -2.53425 157.592 0
-3.90767 -2.53425 157.592 0
-4.92696 -2.45762 160.424 0
-0.0498218 -2.13562 150.993 0
-2.35314 -2.07447 151.238 0
-1.69691 -2.08501 151.103 0
-0.0227687 -2.07519 150.845 0
-2.07815 -1.92377 151.085 0
-2.07815 -1.92377 151.085 0
-0.595668 -3.97585 150.555 0
-0.595668 -3.97585 150.555 0
0.281471 -3.66394 152.696 0
-2.41045 -2.71379 152.591 0
-2.41045 -2.71379 152.591 0
-0.879151 -2.54594 150.546 0
-0.879151 -2.54594 150.546 0
-3.62023 -2.10576 192.28 0
-1.29095 -2.46163 150.777 0
-0.267295 -2.45648 150.657 0
-0.888727 -2.4352 150.616 0
-1.3106 -2.39089 150.825 0
-1.42181 -2.37025 150.939 0
-3.17725 -2.08572 178.534 0
0.0541716 -2.29783 150.974 0
-1.8717 -2.22983 151.098 0
-1.20366 -2.17196 150.777 0
-1.20366 -2.17196 150.777 0
-1.14217 -2.12656 150.694 0
-2.14062 -1.96512 151.117 0
-1.33713 -1.97479 151.112 0
-1.99825 -1.94518 151.065 0
-2.19659 -1.90509 151.12 0
-2.19596 -1.90489 151.058 0
-4.38312 -5.53085 198.96 0
-0.979513 -3.71908 150.812 0
-0.979176 -3.71817 150.784 0
-4.35194 -4.88734 199.526 0
-0.970785 -3.45187 150.732 0
-3.47205 -4.68789 200.062 0
-1.37833 -3.39551 151 0
-0.546192 -3.25274 150.469 0
-0.932304 -3.19605 150.686 0
-0.122449 -2.92211 151.091 0
-1.32622 -2.86553 150.884 0
-0.18962 -3.2177 204.858 0
-0.504104 -2.74842 150.36 0
-0.503799 -2.74781 150.378 0
1.10363 -2.9305 208.38 0
-0.884981 -2.68211 150.588 0
-3.21012 -2.53821 192.323 0
-1.31393 -2.5981 150.816 0
-0.467611 -2.54211 150.381 0
-0.534982 -2.47735 150.364 0
-3.45729 -2.04534 189.354 0
-0.555227 -2.39382 150.382 0
-3.908 -1.85374 190.011 0
-3.908 -1.85374 190.011 0
-1.33094 -2.31096 150.857 0
-1.33094 -2.31096 150.857 0
-1.3714 -2.22581 150.841 0
0.0555694 -2.19133 151.317 0
-0.134087 -2.19182 151.173 0
-0.12823 -2.18227 150.842 0
-2.27395 -1.46801 187.657 0
0.160825 -2.15827 151.429 0
-3.94304 -2.45903 155.157 0
-1.42072 -3.65937 151.066 0
2.42574 -4.47586 199.358 0
-1.33208 -4.05533 201.751 0
-0.931429 -3.19474 150.657 0
-0.0300364 -3.42979 187.682 0
-0.0300364 -3.42979 187.682 0
-1.20841 -2.41034 150.716 0
-1.20841 -2.41034 150.716 0
-3.01678 -1.97988 188.842 0
-3.01678 -1.97988 188.842 0
-0.889145 -2.35772 150.582 0
-0.222798 -2.27485 150.841 0
-1.17081 -2.2204 150.73 0
-1.2889 -2.13878 150.764 0
-6.74693 3.25769 215.514 0
8.97287 2.81417 142.814 0
-1.52572 -3.74321 151.18 0
-1.52863 -3.74832 151.23 0
-1.50888 -3.54446 151.173 0
-1.50888 -3.54446 151.173 0
-1.47481 -3.19755 151.096 0
0.972947 -3.21945 188.126 0
-0.36944 -2.99723 204.285 0
2.58423 -2.27648 211.733 0
-0.784839 -2.28349 150.494 0
-1.73107 -2.20861 151.033 0
-0.324593 -2.16587 150.503 0
-1.38477 -1.57103 205.007 0
-1.61425 -2.11774 150.921 0
-1.61425 -2.11774 150.921 0
-3.99962 -2.35229 160.818 0
-2.03004 -2.03044 151.102 0
-2.33933 -1.89995 151.153 0
-0.785525 3.76486 207.832 0
1.72279 -4.54617 195.464 0
-0.644915 -2.53744 179.284 0
-1.05829 -2.29379 150.661 0
-1.18759 -2.00023 151.177 0
0.059816 -2.96376 151.059 0
-0.296978 -2.79485 150.731 0
-0.678847 -2.57259 150.446 0
-0.679466 -2.57342 150.518 0
-1.21568 -3.77602 151.065 0
-1.1201 -2.69723 150.749 0
-6.3124 3.19614 215.078 0
-6.3175 3.19075 215.084 0
-1.16172 -2.79031 156.646 0
