ply
format ascii 1.0
element vertex 250
property float x
property float y
property float z
property uchar intensity
end_header
-2.4903 -3.6066 153.539 0
-1.58637 -3.3164 155.484 0
-2.32292 -2.13147 153.177 0
-7.09709 -0.8535 203.446 0
-2.63264 -2.03454 153.342 0
-4.6702 -1.44557 188.355 0
-2.88091 -1.97653 153.507 0
-2.88065 -1.97614 153.473 0
-6.43474 -0.82564 200.267 0
-3.11377 -1.94887 153.662 0
-3.88458 -1.22594 192.617 0
-3.12133 -1.90001 153.611 0
-3.12171 -1.9001 153.645 0
-5.51552 -1.00005 192.794 0
-4.83697 -1.09567 192.627 0
-5.64283 -0.897187 193.957 0
-4.62582 -1.21649 187.316 0
-4.14351 -1.63255 172.436 0
-6.22217 -0.532764 198.479 0
-5.76411 -0.603114 197.983 0
-2.87265 -1.80841 153.442 0
-4.65171 -1.16834 181.332 0
-3.5016 -1.72637 153.887 0
-2.75741 -1.75975 153.399 0
-2.70256 -1.75287 153.364 0
-5.51504 -1.92194 161.104 0
-3.91877 -1.63944 153.982 0
-2.71794 -1.70193 153.425 0
-3.0235 -1.63055 153.54 0
-2.97533 -1.62158 153.511 0
-3.7629 -1.41889 153.89 0
-2.52146 -3.70103 153.3 0
-2.50206 -3.67627 153.366 0
-2.27296 -2.09037 153.138 0
-6.4078 -1.11529 197.721 0
-4.74794 -1.4894 188.526 0
-6.16904 -1.04394 196.845 0
-2.35047 -1.99439 153.168 0
-2.85275 -1.94507 153.464 0
-1.92936 -1.9956 153.687 0
-1.65928 -1.99116 154.215 0
-2.7247 -1.91132 153.412 0
-3.22601 -1.87267 153.883 0
-3.22601 -1.87267 153.883 0
-2.9958 -1.86887 153.584 0
-6.56252 -0.286097 203.545 0
-4.06834 -1.54573 172.441 0
-3.26796 -1.76582 153.703 0
-4.07178 -1.62204 154.259 0
-3.5595 -1.62858 153.856 0
-2.74901 -0.496178 208.892 0
-6.58912 -1.56593 163.203 0
-4.07746 -1.47955 154.039 0
-3.52697 -1.50277 153.789 0
-2.95545 -3.55593 153.618 0
-2.95545 -3.55593 153.618 0
-2.50458 -3.37892 153.294 0
-2.5061 -3.37911 153.311 0
-2.79689 -3.23742 153.556 0
-2.79689 -3.23742 153.556 0
-3.33309 -3.20147 153.91 0
-3.33309 -3.20147 153.91 0
-3.4332 -3.18031 154.097 0
-2.86556 -3.03265 153.553 0
-6.18249 -3.95417 202.315 0
-3.18113 -2.95953 153.763 0
-3.18113 -2.95953 153.763 0
-2.85403 -2.95582 153.553 0
-2.89172 -3.07011 174.156 0
-2.40914 -2.79636 153.221 0
-2.40923 -2.79649 153.224 0
-3.33292 -2.65091 153.984 0
-1.66467 -2.76773 155.322 0
-0.987895 -2.90896 188.024 0
-0.987895 -2.90896 188.024 0
-3.21976 -2.59354 153.738 0
-3.31655 -2.57069 153.876 0
-1.97712 -2.58268 153.837 0
-3.08477 -2.4373 153.659 0
-3.08477 -2.4373 153.659 0
-2.76236 -2.44107 153.446 0
-3.06936 -2.36004 153.636 0
-3.06936 -2.36004 153.636 0
-2.33699 -2.37179 153.139 0
-2.63001 -2.29142 153.302 0
-2.32439 -2.29689 153.136 0
-2.32433 -2.29681 153.131 0
-2.6167 -2.21443 153.346 0
-3.13658 -2.15247 153.622 0
-3.13678 -2.15268 153.629 0
-4.08017 -1.8737 184.919 0
-1.81563 -2.223 153.822 0
-3.23231 -2.12552 153.818 0
-4.28393 -1.72123 194.054 0
-3.21377 -2.09062 153.773 0
-3.1222 -2.07283 153.599 0
-3.1222 -2.07283 153.599 0
-4.16988 -1.64765 189.747 0
-2.35447 -2.10837 153.14 0
-4.89889 -1.39609 187.061 0
-2.47325 -1.95619 153.26 0
-2.76997 -1.93098 153.417 0
-3.74052 -1.73116 176.546 0
-5.57139 -0.90392 195.299 0
-2.04723 -1.92826 153.405 0
-3.22952 -1.83521 153.697 0
-4.48263 -1.4132 177.211 0
-3.55225 -1.66729 153.832 0
-1.70685 -1.75465 153.73 0
-3.87232 -1.36704 153.908 0
-1.68023 -3.31895 156.242 0
-3.41389 -3.09831 154.115 0
-6.18689 -3.94946 202.85 0
-3.17655 -2.96538 153.726 0
-2.85807 -2.94813 153.544 0
-2.85807 -2.94813 153.544 0
-3.16127 -2.87788 153.757 0
-3.3108 -2.61444 153.985 0
-2.61058 -2.20931 153.274 0
-3.2252 -2.13017 153.826 0
-2.41 -2.00667 153.228 0
-2.83126 -1.91171 153.478 0
-1.69829 -1.93974 153.759 0
-5.09305 -0.983408 190.794 0
-2.60247 -1.82544 153.324 0
-3.21527 -1.77015 153.681 0
-1.75664 -1.81357 153.9 0
-3.28326 -1.71529 153.69 0
-1.78822 -1.7693 153.778 0
-2.94111 -1.68772 153.488 0
-2.94111 -1.68772 153.488 0
-1.66238 -1.74455 154.268 0
-5.66336 -1.82666 160.378 0
-5.66336 -1.82666 160.378 0
-6.67145 -1.65814 163.21 0
-4.07807 -1.51353 154.023 0
-3.05732 -1.50018 153.896 0
-3.79141 -1.38689 153.869 0
-3.79141 -1.38689 153.869 0
7.61668 2.38383 145.586 0
-2.48753 -3.55787 153.344 0
-2.48753 -3.55787 153.344 0
-1.65937 -2.71593 155.26 0
-4.18858 -2.14277 155.378 0
-4.18858 -2.14277 155.378 0
-2.26165 -2.21142 153.145 0
-2.26165 -2.21142 153.145 0
-2.64938 -2.10917 153.332 0
-2.64938 -2.10917 153.332 0
-5.32722 -1.34828 195.065 0
-2.68895 -2.05456 153.349 0
-4.92957 -1.54094 185.81 0
-2.03211 -2.0714 153.443 0
-3.05251 -1.98991 153.563 0
-2.64955 -1.99786 153.402 0
-3.0661 -1.91767 153.611 0
-5.16628 -1.02097 194.454 0
-3.17513 -1.88747 153.725 0
-4.88951 -1.39566 181.319 0
-4.30607 -1.67925 173.682 0
-2.94959 -1.84874 153.531 0
-3.57794 -1.0399 195.416 0
-3.61151 -1.70925 153.883 0
-2.94109 -1.70864 153.562 0
-2.94109 -1.70864 153.562 0
-2.87602 -1.66878 153.479 0
-3.42512 -1.57968 153.888 0
-3.85713 -1.42275 153.902 0
-3.7136 -1.41501 153.85 0
-3.90783 -1.35821 153.905 0
-3.90721 -1.35819 153.843 0
-6.37372 -4.68222 201.753 0
-2.84825 -3.26908 153.601 0
-2.84784 -3.26826 153.572 0
-6.28814 -4.0424 202.317 0
-2.81704 -3.00373 153.52 0
-2.37726 -2.84171 153.256 0
-2.75713 -2.75217 153.473 0
-1.99772 -2.71823 207.645 0
-1.92689 -2.54664 153.877 0
-2.29282 -2.34297 153.146 0
-2.29246 -2.34235 153.164 0
-2.66666 -2.24427 153.374 0
-4.95504 -1.8137 195.109 0
-2.23905 -2.14043 153.167 0
-2.30072 -2.07025 153.149 0
-2.31384 -1.98528 153.167 0
-5.59359 -1.07783 192.796 0
-5.59359 -1.07783 192.796 0
-3.07961 -1.83624 153.642 0
-3.07961 -1.83624 153.642 0
-1.5259 -1.8916 155.122 0
-3.11275 -1.74801 153.626 0
-1.68777 -1.83299 154.101 0
-1.75622 -1.71169 153.629 0
-5.69321 -1.75403 157.943 0
-2.46834 -3.65945 153.35 0
-3.28275 -3.17181 153.854 0
-2.81801 -3.00497 153.512 0
-5.39436 -3.91673 202.853 0
-3.21827 -2.9126 153.788 0
-2.75616 -2.751 153.444 0
-3.29767 -2.707 153.884 0
-3.18518 -2.64415 153.727 0
-1.92839 -2.5472 153.843 0
-3.12168 -2.38916 153.671 0
-0.683481 -2.53348 211.166 0
-3.08691 -2.12387 153.602 0
-4.71665 -1.28125 191.627 0
-4.71665 -1.28125 191.627 0
-2.64345 -1.9207 153.367 0
-1.97238 -1.89377 153.626 0
-2.91246 -1.75978 153.515 0
-1.87685 -1.8178 153.958 0
-1.87034 -1.8095 153.627 0
-3.93374 -0.836468 190.44 0
-3.02323 -1.66841 153.549 0
-5.21959 1.55004 203.72 0
-3.3944 -3.24624 153.968 0
-3.39771 -3.25097 154.019 0
-3.36086 -3.04963 153.961 0
-3.36086 -3.04963 153.961 0
-1.86332 -2.98049 190.469 0
-1.86332 -2.98049 190.469 0
-0.845995 -2.85454 190.913 0
-2.15853 -2.48463 207.071 0
0.848336 -1.99937 214.518 0
-2.96596 -1.9459 153.502 0
-2.96596 -1.9459 153.502 0
-2.53328 -1.85573 153.28 0
-3.46961 -1.70011 153.818 0
-2.06475 -1.77733 153.288 0
-1.58006 -1.80869 154.213 0
-3.34559 -1.61966 153.706 0
-3.34559 -1.61966 153.706 0
-5.73837 -1.63055 163.604 0
-3.75246 -1.4972 153.886 0
-2.96769 -0.363708 202.825 0
-4.04962 -1.34097 153.937 0
-2.00129 4.29618 210.604 0
-2.80656 -1.84255 153.446 0
-2.09021 -2.4059 153.517 0
-2.40402 -2.05778 182.069 0
-2.45208 -2.15284 153.232 0
-2.45274 -2.15346 153.304 0
-3.08828 -3.30534 153.854 0
-2.90216 -2.23915 153.535 0
-7.5536 4.21155 217.852 0
-7.55913 4.20662 217.858 0
-2.94917 -2.31552 159.432 0
