ply
format ascii 1.0
element vertex 188
property float x
property float y
property float z
property uchar intensity
end_header
-3.39241 -2.27082 154.324 0
-3.32928 -0.694877 154.116 0
-8.47988 -0.239327 204.395 0
-5.99674 -0.58625 189.487 0
-3.61246 -0.638526 154.317 0
-3.90034 -0.59762 154.431 0
-4.09975 -0.582699 154.634 0
-7.79817 -0.141303 201.221 0
-5.40339 -0.428185 187.154 0
-4.10962 -0.533786 154.583 0
-4.11022 -0.534249 154.617 0
-6.81933 -0.185262 193.754 0
-6.89609 -0.0695865 197.362 0
-5.27455 -0.524 173.402 0
-3.86516 -0.426931 154.417 0
-7.58963 0.181858 199.439 0
-4.50071 -0.384135 154.858 0
-3.75246 -0.371585 154.376 0
-3.69783 -0.361342 154.341 0
-3.7164 -0.311972 154.402 0
-4.41576 -0.288202 154.704 0
-4.02618 -0.25863 154.516 0
-3.97838 -0.246732 154.487 0
-4.53759 -0.161221 154.762 0
-3.40998 -2.29591 154.259 0
-3.29677 -0.716623 154.153 0
-7.73789 -0.401798 198.673 0
-3.24886 -0.672431 154.115 0
-7.49736 -0.308145 197.8 0
-3.33172 -0.581164 154.145 0
-5.17729 -0.319806 193.588 0
-2.91475 -0.564911 154.667 0
-6.13543 -0.241878 193.592 0
-4.2175 -0.515111 154.855 0
-4.2175 -0.515111 154.855 0
-3.7116 -0.521265 154.387 0
-3.98579 -0.495532 154.557 0
-5.8814 -0.294151 188.281 0
-3.43663 -0.47483 154.211 0
-7.125 0.141955 198.945 0
-4.264 -0.408795 154.676 0
-4.56365 -0.289329 154.827 0
-3.85343 -2.17814 154.574 0
-3.85343 -2.17814 154.574 0
-3.84728 -2.09981 154.685 0
-3.41071 -1.97331 154.256 0
-3.41232 -1.97376 154.272 0
-4.25191 -1.848 154.868 0
-4.25191 -1.848 154.868 0
-4.35431 -1.83433 155.053 0
-3.79187 -1.65006 154.515 0
-7.38924 -3.27311 203.239 0
-4.1124 -1.59655 154.724 0
-4.1124 -1.59655 154.724 0
-3.78455 -1.57272 154.516 0
-3.95786 -1.90934 175.116 0
-3.34678 -1.38565 154.189 0
-3.34689 -1.38582 154.192 0
-2.61949 -1.33887 156.296 0
-4.17083 -1.23297 154.702 0
-4.26967 -1.21693 154.84 0
-4.04405 -1.06876 154.626 0
-4.04405 -1.06876 154.626 0
-3.72046 -1.05262 154.416 0
-3.2974 -0.956916 154.112 0
-3.2889 -0.881421 154.111 0
-3.28881 -0.881281 154.105 0
-3.58672 -0.817294 154.318 0
-5.28411 -0.894874 185.881 0
-4.1111 -0.786795 154.591 0
-4.11134 -0.787094 154.598 0
-4.20951 -0.767219 154.787 0
-5.55883 -0.851512 195.016 0
-6.14247 -0.485655 188.022 0
-3.83796 -0.562531 154.438 0
-3.45703 -0.550714 154.237 0
-3.75575 -0.543423 154.391 0
-4.8951 -0.644415 177.514 0
-6.89763 -0.119142 196.26 0
-3.03418 -0.501096 154.385 0
-4.22178 -0.47591 154.669 0
-5.65805 -0.374614 178.177 0
-5.20429 -0.433262 173.409 0
-4.55414 -0.327334 154.804 0
-3.84725 -2.09426 154.559 0
-4.33964 -1.7516 155.073 0
-7.39758 -3.27438 203.774 0
-4.10725 -1.60174 154.686 0
-4.097 -1.51387 154.719 0
-2.6166 -1.28619 156.234 0
-3.29325 -0.875582 154.115 0
-4.20222 -0.771559 154.795 0
-4.1926 -0.730881 154.743 0
-5.41931 -0.725739 190.711 0
-4.10567 -0.702254 154.603 0
-3.56611 -0.69353 154.305 0
-3.66763 -0.661659 154.323 0
-3.39089 -0.597307 154.205 0
-3.81843 -0.528193 154.452 0
-6.38463 -0.124169 191.758 0
-3.59365 -0.427905 154.301 0
-4.211 -0.409997 154.653 0
-4.28195 -0.359041 154.663 0
-3.94044 -0.310656 154.464 0
-3.94044 -0.310656 154.464 0
-4.78516 0.573934 209.442 0
-4.43237 -0.233505 154.861 0
-3.38423 -2.15158 154.304 0
-3.38423 -2.15158 154.304 0
-3.23099 -0.792751 154.121 0
-3.23099 -0.792751 154.121 0
-3.62502 -0.71384 154.306 0
-3.62502 -0.71384 154.306 0
-6.6279 -0.546965 196.023 0
-6.15657 -0.618582 186.77 0
-3.01152 -0.643591 154.421 0
-4.03564 -0.619267 154.535 0
-3.63176 -0.603463 154.377 0
-4.0535 -0.548389 154.583 0
-4.1648 -0.525411 154.696 0
-6.09358 -0.423289 182.281 0
-5.44289 -0.592845 174.646 0
-3.94039 -0.47235 154.505 0
-2.87392 -0.38741 154.94 0
-3.93978 -0.332328 154.537 0
-3.93978 -0.332328 154.537 0
-3.87642 -0.288084 154.455 0
-7.53647 -4.00447 202.669 0
-7.48992 -3.36701 203.24 0
-3.31271 -1.42956 154.224 0
-3.25472 -0.925362 154.138 0
-3.63517 -0.850132 154.346 0
-6.23113 -0.991796 196.065 0
-3.21246 -0.720873 154.143 0
-3.27776 -0.653978 154.126 0
-3.29563 -0.570049 154.145 0
-6.89304 -0.267214 193.755 0
-6.89304 -0.267214 193.755 0
-4.07166 -0.468157 154.615 0
-4.07166 -0.468157 154.615 0
-5.23269 0.0896733 191.414 0
-4.10947 -0.381705 154.6 0
-6.73864 2.26013 204.708 0
-3.35956 -2.25202 154.309 0
-4.20287 -1.81502 154.812 0
-0.702039 -3.15617 203.118 0
-3.74562 -1.61939 154.475 0
-6.60806 -3.19843 203.783 0
-4.15222 -1.55199 154.749 0
-4.46145 -2.64426 205.491 0
-3.04831 -1.93821 191.437 0
-3.04831 -1.93821 191.437 0
-4.13346 -1.2815 154.691 0
-2.88467 -1.11726 154.817 0
-3.48457 -1.63688 208.04 0
-4.08361 -1.02283 154.638 0
-5.99824 -0.409897 192.59 0
-5.99824 -0.409897 192.59 0
-3.95122 -0.569947 154.475 0
-3.95122 -0.569947 154.475 0
-3.62965 -0.525721 154.343 0
-4.46181 -0.187257 208.769 0
-2.96286 -0.464933 154.606 0
-3.90807 -0.381323 154.49 0
-4.02391 -0.296523 154.525 0
-4.31107 -1.89667 154.924 0
-4.31447 -1.90211 154.975 0
-4.28829 -1.69845 154.92 0
-4.28829 -1.69845 154.92 0
-4.24341 -1.35207 154.846 0
-3.5226 -0.453888 154.257 0
-4.34953 -0.267142 154.68 0
-4.34953 -0.267142 154.68 0
-4.37929 0.481975 203.81 0
-9.74746 4.70954 219.283 0
-3.7229 5.10421 211.643 0
-1.38098 -3.17242 199.22 0
-3.79734 -0.45745 154.422 0
-4.46973 -0.355435 154.79 0
-3.92126 -0.164559 154.939 0
-3.05173 -0.981532 154.491 0
-3.42493 -0.745592 154.206 0
-3.42605 -0.747016 154.279 0
-4.0014 -1.93772 154.812 0
-2.7023 -1.16379 154.821 0
-3.87169 -0.859608 154.505 0
-9.31207 4.63879 218.849 0
-3.95508 -1.00153 160.401 0
