ply
format ascii 1.0
element vertex 94
property float x
property float y
property float z
property uchar intensity
end_header
978.723 -88.3482 3526.25 0
582.139 110.853 3547.02 0
887.991 -178.207 3411.44 0
665.026 -124.71 3196.52 0
660.514 -115.375 3179.65 0
903.803 -110.003 3420.04 0
889.763 240.19 3201.1 0
193.646 -1182.6 4524.8 0
-58.0579 127.602 1223.6 0
614.398 -236.937 3292.03 0
867.551 -216.462 3445.85 0
1020.71 -173.395 3349.05 0
772.544 -153.237 3240.16 0
-145.585 -33.0385 1024.8 0
92.2649 -52.7129 3600.54 0
218.645 55.1561 3700.64 0
-291.679 135.611 2598.75 0
-331.176 129.095 2028.98 0
-237.301 101.49 1554.92 0
-508.624 164.018 1544.04 0
-11.8409 140.509 1176.54 0
-775.532 -1427.31 4158.06 0
-1140.02 -1290.47 4157.91 0
713.21 -1175.54 4664.9 0
727.894 -1129.09 4692.58 0
-175.402 -144.923 966.073 0
-201.794 -141.712 957.793 0
769.832 -324.691 3469.85 0
817.514 -328.889 3611.22 0
901.381 -202.757 3415.36 0
789.742 -198.253 3434.59 0
704.817 -177.683 3343.41 0
616.676 -145.663 3189.64 0
617.917 -145.703 3194.27 0
923.082 -161.664 3486.4 0
773.936 -88.5967 3132.86 0
-20.8287 -21.8497 1719.83 0
1011.72 28.1272 3417.39 0
605.119 144.018 4543.81 0
437.42 128.046 3022.36 0
911.296 176.323 3399.62 0
915.081 224.698 3331.17 0
-380.56 200.543 1397.53 0
640.167 -1368.44 4502.51 0
794.548 -1150.74 4753.57 0
-267.477 -173.419 919.71 0
-257.708 -153.792 928.633 0
-299.91 -144.686 962.094 0
-203.715 -130.294 957.122 0
787.005 -290.48 3536.67 0
1037.47 -172.204 3469.81 0
-304.051 70.8466 2918.52 0
-274.459 150.53 2663.81 0
-227.363 101.909 1590.35 0
-377.366 208.824 1420.73 0
-99.0415 189.653 1183.92 0
-754.024 -1411.31 4165.16 0
-613.65 -1373.18 4219.72 0
693.512 -1353.08 4501.51 0
683.499 -1371.89 4640.5 0
876.813 -1300.62 4860.04 0
227.709 -1162.11 4481.42 0
840.034 -1163.35 4896.38 0
1053.11 -15.5516 3407.47 0
-194.897 80.1778 1541.86 0
860.245 186.35 3401.28 0
-43.2275 148.186 1182.06 0
-82.7429 343.614 1393.78 0
-962.636 -1407.85 4096.08 0
-452.876 -1361.02 4296.23 0
981.836 -1109.11 4918.45 0
885.953 -139.661 3437.91 0
-51.2404 121.907 1215.41 0
-82.7988 193.945 1204.88 0
-1081.21 -1264.19 4224.41 0
658.584 -201.13 3329.53 0
-72.9203 139.682 1225.75 0
-125.158 318.153 1456.56 0
23.9572 263.498 977.143 0
783.269 -111.407 3295.64 0
927.251 -16.2242 3413.04 0
872.517 97.3524 3404.58 0
840.268 216.166 3240.95 0
829.019 266.945 3138.18 0
-373.001 216.448 1426.47 0
-62.6289 341.824 1360.95 0
-217.861 -137.079 961.764 0
714.836 -192.605 3337.88 0
819.513 -169.461 3409.07 0
907.452 42.9718 3393.64 0
912.098 43.2013 3410.73 0
-893.464 -1365.83 4189.03 0
576.189 -129.532 3214.36 0
-354.946 199.555 1524.74 0
