ply
format ascii 1.0
element vertex 301
property float x
property float y
property float z
property uchar intensity
end_header
-539.802 -1468.17 4341.64 0
400.778 -1081.42 3788.48 0
276.393 -903.324 3306.68 0
399.069 -1018.45 3736.51 0
-867.531 -765.454 3101.93 0
-77.9124 -366.739 2132.02 0
117.688 -277.501 1619.9 0
-107.131 -349.468 2119.27 0
469.831 -187.183 1306.04 0
74.4811 -2.83715 646.609 0
-543.321 -1419.11 4151.33 0
-245.095 -1456.96 4419.53 0
354.349 -1293.01 4075.02 0
349.063 -1214.86 3842.27 0
524.718 -1026.97 3471.99 0
118.116 -1029.67 3527.22 0
721.315 -1008.9 3480.25 0
711.405 -1021.12 3532.54 0
387.993 -1021.14 3732.94 0
399.684 -1010.35 3743.51 0
411.125 -958.239 3679.79 0
-894.835 -799.11 3176.88 0
-230.353 -418.375 1822.88 0
-120.592 -336.043 1685.91 0
-540.61 -424.423 2394.34 0
124.824 -276.984 1621.06 0
-80.5271 -349.095 2125.06 0
-78.1181 -340.167 2105.4 0
41.7648 -144.584 921.39 0
-82.3341 -331.832 2141.25 0
419.834 -157.922 1209.63 0
79.0922 -1.45803 646.856 0
76.1004 0.115434 648.02 0
107.67 5.30852 642.045 0
120.499 8.70699 639.912 0
196.698 26.7424 624.897 0
-171.827 87.523 1003.48 0
11.2933 130.23 678.108 0
-155.495 145.405 727.332 0
38.8358 151.785 658.267 0
-208.828 -380.957 1202.49 0
437.1 -1085.04 3652.1 0
459.543 -1041.97 3545.28 0
165.147 -1032.08 3544.07 0
447.417 -967.675 3553.7 0
437.526 -925.921 3605.72 0
406.73 -919.204 3658.22 0
-660.197 -808.23 3312.98 0
-226.732 -290.614 1303.2 0
-145.951 -409.709 1843.95 0
-122.46 -346.183 1707.38 0
-116.851 -312.209 1620.02 0
-110.626 -364.358 2055.11 0
-71.7159 -391.674 2219.9 0
-86.4687 -358.165 2126.69 0
128.123 -266.727 1623.9 0
155.203 -245.277 1593.73 0
-88.5541 -323.562 2123.41 0
-100.312 -169.01 1598.98 0
-229.27 -148.726 1408.23 0
-76.2918 -168.081 1599.26 0
30.1095 -124.801 1221.74 0
60.2975 -130.379 1347.19 0
-117.809 -4.11823 1281.05 0
74.4033 -0.641987 646.912 0
90.9162 3.13139 643.78 0
-100.149 8.78574 1273.44 0
120.208 7.00016 639.772 0
-19.8718 74.9795 1112.12 0
-196.588 95.8544 1027.71 0
11.2788 114.129 670.65 0
14.4865 116.823 667.224 0
79.2939 250.02 729.587 0
-470.558 -1091.86 3535.86 0
407.604 -1086.54 3648.02 0
439.081 -1053.71 3593.35 0
385.987 -1060.84 3738.41 0
443.876 -1004.93 3576.91 0
384.299 -1047.81 3773.92 0
285.858 -300.778 1082.27 0
297.552 -300.934 1081.31 0
1094.88 -878.639 3170.51 0
289.982 -297.348 1085.05 0
378.581 -1016.99 3747.14 0
269.298 -284.331 1050.49 0
-1407.39 -1085.66 4092.23 0
446.687 -909.105 3612.71 0
-614.123 -807.458 3348.27 0
-288.567 -490.028 2038.29 0
74.6338 -924.329 4097.39 0
-223.413 -361.103 1697.82 0
-296.987 -418.808 1987.2 0
993.4 -598.592 3443.3 0
355.625 -191.936 1112.25 0
333.814 -155.476 927.256 0
-88.0735 -341.575 2127.36 0
421.991 -189.761 1295.33 0
429.886 -158.789 1221.39 0
-464.49 -186.803 1474.61 0
-371.407 -185.741 1526.39 0
-224.051 -179.913 1581.94 0
-221.616 -175.919 1566.54 0
-337.235 -150.473 1367.94 0
-42.115 -178.332 1639.45 0
-253.426 -148.476 1396.79 0
-52.4266 -152.746 1531.2 0
408.639 -100.991 1227.93 0
117.719 -110.346 1548.65 0
-218.337 11.6916 1181.28 0
502.636 37.2242 1390.46 0
170.435 21.3723 629.496 0
170.544 21.4454 629.206 0
-151.747 79.7572 1020.23 0
30.4866 53.3611 662.575 0
31.0156 60.1989 669.476 0
32.5624 100.664 668.708 0
-253.091 117.687 740.569 0
-221.719 148.054 680.953 0
231.018 188.715 634.452 0
-833.999 -1450.73 4073.2 0
164.981 -1124.45 3718.53 0
-187.39 -974.472 3344.52 0
416.738 -1030.04 3679.44 0
277.181 -297.519 1078.34 0
101.344 -960.681 3680.86 0
-1384.08 -1066.76 4086.32 0
-961.613 -871.707 3370.53 0
477.79 -836.399 3289.7 0
78.2962 -975.653 4181.86 0
-265.266 -339.872 1630.64 0
-112.106 -369.722 2129.14 0
-118.433 -355.331 2106.34 0
321.346 -273.597 1633.7 0
-109.408 -337.784 2135.85 0
360.614 -254.115 1680.79 0
400.319 -329.014 2708.85 0
-311.29 -183.786 1548.64 0
-272.328 -168.696 1469.34 0
-96.7076 -186.804 1658.22 0
-69.069 -179.152 1630.83 0
-90.6579 -169.924 1601.84 0
-197.476 -148.869 1437.48 0
-58.6118 -148.844 1488.8 0
-409.683 -130.005 1293.26 0
26.5995 -150.106 1528.99 0
-320.627 -117.307 1183.01 0
-12.8575 -143.416 1474.85 0
17.3867 -149.531 1560.53 0
-189.722 -128.664 1397.73 0
245.833 -49.6125 1063.07 0
-90.4613 -18.5773 1328.43 0
455.595 -20.3127 1310.78 0
-286.142 -17.3524 1237.52 0
-281.058 -1.14243 1146.04 0
45.5361 0.488593 656.027 0
52.6728 4.23207 652.313 0
149.86 20.1015 633.975 0
39.6231 45.573 656.802 0
41.1141 53.1253 662.945 0
33.3406 57.3532 657.136 0
28.0529 77.9038 665.259 0
28.0529 77.9038 665.259 0
-207.999 122.049 882.725 0
24.089 95.013 665.658 0
27.9432 95.9146 664.213 0
26.7411 112.429 672.141 0
-252.321 127.854 734.973 0
-221.66 150.662 679.6 0
-214.983 152.493 668.912 0
-214.15 157.921 676.183 0
-215.972 -1502.35 4318.93 0
-202.876 -1419.58 4309.24 0
-1008.36 -1024.95 3059.29 0
512.936 -1087.73 3444.08 0
-205.952 -373.389 1205.73 0
-238.281 -411.023 1346.27 0
1095.1 -897.047 3136.82 0
275.797 -302.996 1070.02 0
283.07 -294.982 1081.18 0
-1360.23 -1078.66 4089.66 0
-262.765 -357.374 1677.05 0
-299.086 -408.571 1989.17 0
-523.022 -412.308 1984.16 0
-523.424 -412.663 1985.97 0
-86.4101 -367.231 2121.71 0
121.021 -270.816 1624.52 0
462.539 -191.445 1298.88 0
418.344 -355.369 2713.94 0
423.425 -152.506 1206.91 0
416.814 -151.686 1213.27 0
-65.7343 -168.282 1603.94 0
-129.067 -150.409 1450.75 0
-105.949 -150.526 1464.81 0
-347.045 -121.126 1308.75 0
-329.788 -120.364 1301.4 0
-209.362 -120.521 1368.11 0
400.388 -87.6946 1247.14 0
360.045 -67.4575 1501.81 0
74.2544 -25.7745 653.47 0
-383.608 -42.7675 1178.32 0
-270.823 -26.3079 1259.95 0
34.0368 -11.7559 654.917 0
67.9484 -9.34507 647.528 0
-234.16 -7.402 1239.81 0
81.9098 2.6185 646.448 0
109.99 6.58955 641.276 0
226.329 33.2654 820.322 0
36.6432 28.7613 659.925 0
46.3022 30.8358 664.165 0
42.2137 49.4925 662.176 0
-183.26 83.2997 992.96 0
22.1024 84.4754 665.713 0
3.86292 90.3588 672.116 0
-244.192 129.678 727.621 0
30.0187 132.556 672.059 0
-223.034 142.977 704.235 0
-209.95 161.308 684.323 0
-206.665 -394.388 1252.38 0
-1380.55 -1094.3 4085.72 0
-1380.07 -1094 4084.51 0
-232.957 -176.941 1559.63 0
-335.112 -137.556 1311.3 0
-236.645 -128.646 1278.1 0
-336.362 -113.503 1299.52 0
373.004 -106.929 1291.49 0
-346.02 -73.1245 1310.52 0
-230.046 -47.249 1232.19 0
87.3241 -12.2595 641.795 0
83.2681 -4.08528 646.398 0
83.0988 -4.08322 646.023 0
104.526 4.88822 641.686 0
-299.299 14.7823 1146.43 0
416.51 21.4831 1257.16 0
143.935 14.8255 634.823 0
40.2039 16.2798 656.062 0
148.577 17.8023 634.92 0
-146.377 78.3328 1029.53 0
-200.854 117.527 884.302 0
-234.968 113.746 843.252 0
15.7119 121.775 674.558 0
-203.238 157.301 700.798 0
-203.762 160.588 692.24 0
-190.814 160.98 688.918 0
-161.22 218.772 656.42 0
-37.2245 -1313.4 3692.22 0
-68.9749 -1403.46 4315.59 0
528.063 -1019.35 3337.05 0
264.996 -440.091 2103.21 0
234.66 -378.217 1921.57 0
409.206 -151.997 1232.97 0
-195.954 -140.68 1400.44 0
357.773 -117.093 1237.06 0
76.6684 -2.4201 646.575 0
-224.647 -2.76217 1235.98 0
-281.45 0.266579 1199.66 0
69.7057 0.44309 648.869 0
149.388 13.9167 633.473 0
-53.0174 74.4801 1125.06 0
9.7151 55.4001 676.429 0
-237.553 141.905 703.784 0
-6.22414 151.135 664.917 0
-193.918 168.106 669.978 0
213.609 173.061 643.789 0
-905.581 -796.202 3162.57 0
177.889 -229.143 1248.59 0
-377.878 -176.354 1311.96 0
394.615 -99.1714 1258.61 0
429.677 -61.2222 1276.34 0
388.48 -28.0716 1271.57 0
-54.0202 -22.4338 1329.34 0
-172.752 83.0636 998.637 0
-166.543 96.0978 1025.7 0
-245.274 102.878 809.256 0
-199.671 136.67 896.957 0
17.7138 139.845 677.32 0
218.621 187.492 640.764 0
36.7713 -1331.8 4086.06 0
415.862 -1082.9 3800.17 0
408.685 -160.255 1234.98 0
-355.259 -179.645 1580.75 0
19.3465 24.4028 661.323 0
-38.7723 55.1465 1087.98 0
-164.464 83.741 1016.74 0
-1.07016 88.8661 680.744 0
-241.151 109.565 828.893 0
-197.199 147.202 779.485 0
224.016 169.935 640.954 0
-880.879 -861.419 3294.85 0
74.0874 -10.8963 649.27 0
43.7755 20.0762 658.815 0
40.9465 32.61 661.024 0
38.1094 45.8421 663.382 0
31.0304 79.4933 667.681 0
27.2501 102.682 682.926 0
27.2501 102.682 682.926 0
51.8647 130.17 676.688 0
28.7425 141.687 676.617 0
28.7425 141.687 676.617 0
-67.1925 167.872 696.49 0
-437.634 -103.609 1302.45 0
417.456 -97.1853 1234.25 0
