ply
format ascii 1.0
element vertex 302
property float x
property float y
property float z
property uchar intensity
end_header
-119.331 -740.985 3836.51 0
1135.21 -683.779 3572.73 0
-121.719 -683.883 3776.38 0
1082.95 -636.216 3543.01 0
393.341 -352.209 3213.79 0
522.705 -346.451 3290.67 0
-569.17 -210.286 1985.85 0
-424.171 -107.029 1680.01 0
-483.749 -87.0954 1566.17 0
-172.78 -71.2319 1605.43 0
-123.948 134.214 615.944 0
-105.721 -725.18 3767.55 0
464.394 -576.217 3117.98 0
362.849 -578.029 3229.79 0
-109.577 -673.675 3787.03 0
-88.3453 -627.88 3721.01 0
411.985 -482.816 3093.91 0
1109.86 -485.616 3447.43 0
368.273 -441.566 3281.25 0
358.03 -431.521 3271.11 0
361.651 -394.451 3278.72 0
1135.4 -420.381 3504.36 0
1132.52 -400.363 3504.34 0
79.5375 -149.967 1432.5 0
-638.59 -229.697 2173.39 0
-607.156 -208.581 1979.58 0
1058.7 -363.776 3447.73 0
413.682 -295.767 3220.33 0
-576.175 -161.719 1831.77 0
1055.54 -267.56 3251.61 0
-459.977 -92.4557 1597.13 0
-165.719 -71.4055 1607.06 0
-446.567 -64.6417 2102.11 0
-193.642 -45.2016 1610.84 0
-356.511 57.3172 1561.02 0
-176.118 58.972 1521.51 0
-118.612 135.782 616.129 0
-76.4408 139.213 611.432 0
-37.1608 145.829 606.333 0
-2.6045 150.438 603.393 0
16.1487 152.33 600.773 0
24.5894 153.286 599.012 0
24.5864 153.286 599.267 0
44.8349 155.932 596.019 0
84.8366 158.3 591.844 0
170.739 180.571 584.269 0
463.025 -561.415 3117.37 0
39.5237 -181.235 1016.09 0
369.111 -549.487 3260.62 0
-65.8648 -445.685 2969.64 0
1080.93 -439.278 3407.44 0
464.174 -406.651 3251.45 0
419.915 -382.003 3187.19 0
462.787 -390.799 3250.94 0
-508.746 -408.302 3516.78 0
410.564 -362.928 3124.51 0
448.795 -342.755 3173.87 0
1065.29 -368.463 3426.73 0
-671.746 -235.735 2237.47 0
357.237 -330.784 3190.58 0
360.829 -333.954 3222.46 0
1023.13 -347.09 3385.54 0
-609.303 -200.533 1970.35 0
88.6979 -158.717 1616.82 0
-419.822 -98.7414 1658.11 0
-470.873 -93.3168 1604.72 0
61.8193 -80.8143 1528.25 0
-175.457 -63.5781 1605.23 0
-280.604 -56.5704 1602.47 0
206.379 -42.5574 1312.03 0
-410.12 -65.5444 2113.76 0
232.639 -19.3591 1243.54 0
163.829 4.9708 1211.86 0
-273.528 57.9495 1849.57 0
-289.425 54.6936 1612.07 0
-283.858 57.8426 1564.21 0
-347.08 60.7638 1548.94 0
320.556 157.11 1012.86 0
-123.173 137.101 615.799 0
-106.176 138.832 613.603 0
-89.3845 139.072 612.424 0
4.02615 150.492 599.25 0
88.6995 171.194 593.208 0
140.395 173.357 582.023 0
187.593 175.532 581.868 0
205.369 180.93 574.961 0
192.186 181.447 576.667 0
151.554 184.728 586.34 0
-45.7672 -234.344 979.967 0
-128.524 -722.63 3784.28 0
-130.969 -706.939 3818.66 0
1121.37 -629.286 3453.55 0
407.354 -459.13 3148.77 0
395.759 -430.324 3168.63 0
-562.927 -396.145 3451.91 0
-490.438 -399.311 3488.66 0
-471.959 -384.584 3436.63 0
1064.02 -381.631 3451.8 0
355.199 -347.505 3285.01 0
1062.74 -353.011 3442.92 0
442.699 -295.445 2958.06 0
32.4251 -105.629 1574.02 0
-578.251 -109.134 1691.14 0
-495.022 -95.376 1607.69 0
71.6736 -73.8728 1519.17 0
-205.345 -73.6504 1710.88 0
45.613 -62.1704 1563.96 0
47.6095 -101.245 2720.73 0
-423.669 -64.0794 2099.65 0
-414.232 -57.9723 2095.02 0
184.202 -17.1042 1254.75 0
-397.961 52.1825 1540.71 0
160.331 43.8204 1224.32 0
-398.83 59.3558 1553.09 0
-241.757 62.3789 1482.67 0
-263.464 63.781 1466.51 0
-286.709 66.3219 1455.63 0
152.435 59.2932 1241.98 0
-431.073 73.8854 1379.84 0
-53.2487 92.9842 1322.41 0
35.0651 118.774 1601.8 0
-219.396 131.566 1117.9 0
-55.3904 154.779 771.071 0
-24.3677 147.291 603.815 0
-24.2333 147.331 603.53 0
55.2215 162.638 594.185 0
54.9917 162.673 594.802 0
65.3282 175.118 595.607 0
76.341 175.184 595.457 0
74.7963 176.741 594.101 0
133.924 176.078 586.818 0
178.632 175.801 577.551 0
78.425 187.172 595.666 0
157.18 188.96 585.564 0
154.468 -273.956 1045.45 0
161.333 -273.647 1050.75 0
168.367 -274.483 1053.72 0
250.03 -277.622 1090.63 0
257.373 -278.981 1095.6 0
-45.9827 -242.639 980.978 0
-229.173 -225.519 945.764 0
-143.282 -229.535 984.905 0
-150.358 -218.816 1002.17 0
-150.235 -218.607 1001.39 0
-91.3392 -698.969 3723.19 0
-347.178 -625.555 3514.86 0
-103.108 -626.392 3728.7 0
250.527 -391.619 2334.85 0
37.6807 -166.975 1044.1 0
25.2604 -151.613 1083.71 0
-93.6691 -425.861 3148.15 0
451.63 -299.222 3419.75 0
1075.7 -299.569 3379.55 0
-78.3153 -154.042 1985.25 0
-57.2259 -190.631 2892.24 0
-591.896 -113.466 1845.42 0
-413.346 -76.8047 2084.93 0
-207.017 50.5183 1517.82 0
-498.276 59.6609 1537.1 0
-289.274 59.5836 1546 0
-294.582 58.3315 1454.02 0
-312.124 62.2321 1523 0
-324.793 174.815 1195.84 0
-130.593 129.214 616.525 0
-146.416 140.723 616.415 0
-94.8431 142.651 614.113 0
-45.1954 148.579 606.902 0
186.616 150.07 596.918 0
-151.098 160.11 613.231 0
117.97 170.464 583.13 0
118.135 170.75 584.104 0
97.3228 178.825 589.229 0
209.033 180.738 579.823 0
197.081 179.898 574.685 0
-151.139 195.172 625.888 0
-150.548 204.121 623.777 0
178.964 190.993 577.566 0
199.11 193.592 576.124 0
135.455 201.278 589.25 0
-115.373 -259.064 939.927 0
38.4883 -267.929 993.729 0
-30.1075 -225.862 995.247 0
-297.688 -211.939 931.505 0
-31.185 -217.776 1022.6 0
15.8065 -153.619 1070.95 0
31.9844 -166.439 1590.56 0
-549.931 -111.813 1761.13 0
-46.5423 -97.6569 1720.42 0
-44.3071 -136.599 2763.64 0
-10.198 -115.413 2719.23 0
163.652 -8.39297 1213.62 0
155.043 32.6727 1235.34 0
-319.071 54.1816 1575.17 0
97.7018 147.514 1522.51 0
-164.958 131.023 621.64 0
-101.232 130.355 614.559 0
-143.721 136.333 618.29 0
-103.05 137.767 614.361 0
-78.7791 136.721 610.539 0
-115.333 139.49 615.655 0
-86.7147 140.018 612.234 0
-59.0385 139.179 607.731 0
-81.0065 140.484 611.827 0
-56.6777 143.083 608.325 0
-56.7095 143.05 608.114 0
-17.4906 124.01 516.74 0
-146.938 168.239 620.854 0
-158.127 171.279 624.159 0
194.733 161.583 575.794 0
91.4357 169.868 587.629 0
190.551 174.359 580.355 0
198.977 193.438 575.59 0
-305.031 -207.725 908.024 0
1191.34 -666.131 3562.48 0
1170.45 -565.779 3432 0
1014.06 -334.782 3445.53 0
139.661 -35.2686 1262.53 0
135.496 -16.7393 1281.87 0
-399.581 -17.0956 1641.63 0
-341.361 55.6999 1569.43 0
-340.297 55.8412 1560.73 0
-366.129 56.61 1565.68 0
-321.829 64.3704 1496.95 0
-324.85 65.8207 1454.06 0
-312.783 75.7291 1432.08 0
199.429 85.4813 1284.28 0
-191.421 95.2814 1105.06 0
-114.738 132.693 616.14 0
-114.882 132.686 615.755 0
-92.3503 138.951 612.366 0
-144.514 144.673 619.32 0
-51.7193 144.049 607.672 0
-155.758 158.238 621.382 0
187.552 152.618 574.494 0
58.6831 172.356 596.85 0
-178.81 182.223 624.264 0
101.614 182.506 577.669 0
188.195 185.493 578.966 0
-180.04 207.609 621.248 0
128.178 197.359 586.858 0
139.329 200.794 588.281 0
-154.273 -222.042 987.825 0
-54.5979 -409.408 2855.46 0
405.349 -449.059 3143.12 0
409.135 -365.234 3252.36 0
-548.212 -106.446 1657.29 0
-413.692 -65.8912 1726.7 0
148.062 -46.4773 1281.15 0
-413.723 -41.846 1770.92 0
123.395 -14.0365 1275.33 0
-410.306 42.9705 1627.5 0
107.501 34.0126 1230.86 0
-505.367 61.9445 1514.07 0
-370.468 67.5174 1426.95 0
-392.492 69.1055 1411.31 0
18.6846 103.101 1655.23 0
182.62 84.5034 1271.38 0
-55.9099 89.6852 1028.31 0
-168.88 119.25 1090.8 0
-111.346 123.815 612.379 0
-121.106 135.069 615.741 0
-120.998 135.018 615.598 0
-127.833 138.827 617.344 0
-46.3286 142.461 606.774 0
60.931 155.248 595.832 0
148.223 174.017 574.637 0
134.938 184.076 584.34 0
134.945 184.279 584.744 0
57.3138 189.104 598.47 0
282.814 -314.158 1089.94 0
-70.8575 -222.553 1016.6 0
266.717 -248.064 1153.45 0
-410.662 -72.4649 2073.84 0
110.918 -3.79258 1251.21 0
-432.634 81.6383 1371.16 0
-190.048 133.998 1101.89 0
309.899 128.324 1002.87 0
-296.006 179.048 1287.4 0
-148.978 175.047 623.413 0
199.2 163.207 572.932 0
113.844 166.589 582.608 0
182.799 179.267 571.493 0
104.224 195.158 588.495 0
185.618 -33.4738 1296.81 0
-401.184 5.47579 1675.33 0
-13.3243 112.089 1522.39 0
-61.1184 -235.784 985.374 0
-17.4221 -229.754 1031.83 0
98.7311 -231.203 1098.99 0
144.391 -25.3049 1274.38 0
-143.657 117.032 1052.78 0
50.885 158.484 594.561 0
-153.495 174.71 625.305 0
-154.967 188.308 626.587 0
84.5498 177.594 595.523 0
56.8127 179.798 598.899 0
70.8135 183.33 596.217 0
54.7911 198.759 601.428 0
-168.702 -81.0453 1609.57 0
-217.118 -64.8948 1640.77 0
-189.627 129.744 618.246 0
-178.05 167.267 624.211 0
