ply
format ascii 1.0
element vertex 358
property float x
property float y
property float z
property uchar intensity
end_header
-444.779 -1369.67 4239.3 0
-349.469 -1384.23 4383.08 0
492.05 -1046.76 3852.45 0
233.812 -899.262 3538.69 0
635.952 -851.789 3472.26 0
-707.157 -775.727 3255.31 0
-643.415 -786.626 3310.45 0
-569.747 -775.232 3339.65 0
371.139 -762.66 3310.36 0
564.506 -761.7 3510.04 0
1072.49 -714.17 3368.5 0
-385.579 -390.664 1919.82 0
-145.225 -372.818 1900.01 0
1109.81 -602.995 3125.25 0
-206.162 -308.25 1642.57 0
-201.263 -296.61 1600.63 0
841.283 -454.069 2411.03 0
-183.486 -300.776 1637.46 0
532.869 -489.861 2701.94 0
-517.254 -409.467 2407.47 0
-112.882 -301.641 2106.12 0
-80.3253 -300.155 2125.66 0
-74.6174 -282 2103.64 0
75.0235 -192.589 1624.08 0
105.962 -122.236 1111.18 0
7.48115 26.2391 632.237 0
51.6202 44.1885 622.449 0
82.1776 54.5264 621.32 0
81.8554 54.3142 618.82 0
111.247 64.882 610.632 0
119.878 68.463 621.425 0
119.878 68.463 621.425 0
158.782 84.4876 650.033 0
182.948 165.805 595.201 0
172.538 -336.642 986.472 0
-363.181 -1341.94 4191.61 0
-56.233 -1336.92 4452.49 0
-796.995 -815.636 3268.07 0
-267.945 -457.007 2046.66 0
-257.078 -445.45 2008.95 0
269.353 -232.394 1068.92 0
-275.41 -342.363 1732.69 0
-226.268 -332.29 1700.97 0
983.869 -600.885 3032.13 0
979.225 -586.752 3032.35 0
-173.875 -297.31 1628.93 0
139.622 -619.144 3478.51 0
-146.8 -292.279 1681.58 0
345.106 -244.433 1480.9 0
-17.5061 -231.717 1654.4 0
-6.65795 -220.745 1613.05 0
959.963 -439.097 3172.91 0
376.222 -214.717 1622.78 0
-78.9045 -273.075 2139.34 0
96.6609 -205.837 1611.77 0
-86.4621 -266.139 2121.45 0
337.549 -180.36 1475.94 0
-319.555 -138.82 1370.05 0
-231.212 -126.811 1434.05 0
-128.528 -130.589 1593.33 0
-104.775 -126.909 1592.92 0
-98.2244 -107.865 1467.75 0
-71.8964 -110.719 1507.61 0
-3.87703 -109.554 1571.67 0
-13.1571 -83.6808 1211.54 0
20.4734 -81.8016 1336.23 0
304.159 -51.6352 1228.57 0
360.147 -16.5213 1206.66 0
-134.369 21.5919 1261.99 0
1.86176 24.1055 635.215 0
2.73215 26.5145 632.398 0
-28.8165 29.0341 638.754 0
34.9648 36.0765 626.45 0
34.7398 36.0661 625.976 0
42.5409 39.3714 667.29 0
47.1666 39.1194 623.787 0
-210.163 85.7156 1027.34 0
-209.663 93.1798 1017.73 0
-243.391 97.1369 992.927 0
-242.932 95.1481 965.273 0
-222.75 99.9607 1010.2 0
108.857 63.8538 611.321 0
-46.7261 75.6042 647.709 0
-57.9582 109.332 652.132 0
-57.1375 110.521 648.552 0
205.892 104.178 585.165 0
-72.6088 133.999 654.566 0
190.52 129.61 594.415 0
-62.9628 148.869 654.992 0
191.639 149.971 591.306 0
-56.1624 169.13 654.364 0
173.262 201.626 599.622 0
172.098 203.957 602.135 0
-288.012 -1443.5 4241.95 0
-343.398 -1028.11 3565.26 0
-291.996 -935.146 3259.39 0
-51.5446 -886.988 3307.28 0
241.877 -897.084 3580.46 0
580.024 -824.02 3543.36 0
-523.236 -768.077 3373.63 0
496.28 -849.912 3750.92 0
-266.378 -389.553 1835.54 0
-272.934 -358.053 1718.83 0
-282.071 -343.75 1707.46 0
-96.1415 -321.111 2056.25 0
-121.491 -284.387 2110.08 0
-83.8145 -283.845 2125.9 0
-93.8054 -274.315 2126.65 0
923.117 -378.3 3100.22 0
-408.271 -180.157 1536.1 0
313.574 -176.799 1544.02 0
884.873 -328.08 2888.41 0
883.447 -341.536 3151.93 0
306.651 -154.046 1550.14 0
-284.635 -139.855 1411.29 0
-250.559 -156.114 1580.02 0
-246.346 -138.971 1486.99 0
-95.5694 -136.077 1624.59 0
379.407 -99.7772 1259.33 0
-71.6107 -122.399 1600.87 0
432.719 -92.6329 1285.49 0
-47.6083 -99.0876 1466.17 0
427.003 -64.3325 1202.12 0
299.883 -19.6573 1622.34 0
348.128 -11.3269 1201.84 0
-222.154 92.2533 1009.34 0
95.2343 58.8896 611.434 0
-39.9203 84.6783 654.179 0
-277.256 119.535 891.101 0
-37.7436 85.5027 646.063 0
-286.187 123.465 872.268 0
-54.8286 107.693 651.851 0
183.897 109.903 594.194 0
-49.0853 126.118 652.678 0
197.166 121.489 601.838 0
-57.0223 134.128 655.679 0
-66.8072 137.33 658.254 0
195.722 133.575 589.744 0
172.261 188.377 606.257 0
173.771 203.99 598.634 0
101.296 -344.606 983.995 0
286.991 -341.648 973.964 0
-252.256 -1426.88 4216.01 0
-252.256 -1426.88 4216.01 0
93.806 -335.62 1000.46 0
-325.639 -1399.82 4240.48 0
-213.89 -391.457 1212.33 0
-80.3141 -885.189 3362.94 0
295.862 -981.966 3731.27 0
-1215.12 -1099.34 4142.69 0
375.722 -293.383 1109.64 0
212.892 -827.828 3690.69 0
280.131 -235.831 1061.46 0
257.745 -233.548 1070.19 0
248.658 -231.429 1066.41 0
-285.739 -388.868 1993.79 0
957.422 -468.289 3100.48 0
-104.394 -314.487 2129.14 0
-79.3419 -309.307 2120.95 0
-105.234 -282.254 2134.86 0
-491.108 -193.864 1479.57 0
-397.553 -180.521 1528.73 0
-337.545 -170.997 1549.24 0
-408.64 -132.161 1328.02 0
-363.249 -117.604 1182.26 0
-334.704 -120.876 1327.75 0
-335.017 -120.967 1328.85 0
-68.6904 -131.906 1632.44 0
-92.0845 -109.272 1481.52 0
-84.4756 -111.1 1523.82 0
413.686 -197.111 2693.16 0
-14.8142 -98.992 1551.12 0
-322.43 -19.1186 1255.17 0
-327.984 -18.3504 1242.07 0
2.74509 0.213362 629.395 0
-285.86 16.168 1220.22 0
-2.66037 17.1537 633.439 0
-19.2794 29.0376 638.252 0
28.8288 38.2917 628.336 0
-8.01399 38.9988 637.045 0
33.9062 40.2099 626.946 0
38.828 42.0019 626.566 0
-29.6784 42.7635 633.543 0
-225.974 82.7561 1019.44 0
-36.8942 68.7345 641.913 0
-44.4825 79.7228 642.082 0
168.012 91.7869 595.439 0
-51.9065 99.7795 649.755 0
-51.9065 99.7795 649.755 0
185.876 108.696 595.324 0
204.801 117.088 587.342 0
-63.8761 131.805 657.771 0
-66.3035 134.642 659.162 0
206.495 123.443 588.883 0
201.338 173.3 594.734 0
178.454 182.786 596.319 0
178.454 182.786 596.319 0
156.576 205.596 607.764 0
178.242 205.455 597.665 0
225.415 -338.244 975.508 0
-157.132 -2076.52 6308.97 0
-103.274 -1396.04 4240.38 0
-24.4959 -1381.83 4352.48 0
-223.444 -379.816 1250.38 0
-203.925 -365.81 1217.95 0
-20.945 -1300.85 4345.9 0
-22.7379 -1296.53 4350.54 0
177.892 -324.555 1090.28 0
176.446 -1243.47 4334.51 0
247.555 -968.741 3485.57 0
-1261.09 -1111.6 4146.75 0
630.583 -914.355 3446.44 0
-1240.26 -1090.35 4139.66 0
-598.356 -409.4 1920.5 0
-629.02 -389.62 1840.24 0
-576.691 -411.932 1957.99 0
563.018 -673.696 3285.95 0
-511.025 -408.38 1996.78 0
-511.34 -408.72 1998.61 0
-288.955 -378.882 1995.53 0
517.464 -445.672 2631.86 0
-142.868 -265.585 2061.1 0
-127.31 -211.521 1671.11 0
-412.346 -189.543 1510 0
-152.35 -155.028 1660.91 0
114.58 -108.085 1198.73 0
-369.153 -117.948 1300.9 0
-196.624 -123.083 1421.59 0
-118.767 -130.301 1595.95 0
434.744 -221.056 2698.5 0
-94.1556 -125.752 1597.31 0
-94.0382 -125.156 1588.57 0
-263.98 -100.411 1277.72 0
373.754 -66.3852 1193.23 0
52.1019 -60.8262 1466.01 0
353.85 -24.1323 1235.01 0
350.882 -3.65645 1225.69 0
-288.684 3.21326 1233.49 0
-377.838 9.14481 1149.59 0
-35.8811 11.1121 641.823 0
-16.7822 21.1136 636.759 0
31.2532 30.9074 625.799 0
21.9648 31.6938 629.118 0
31.8827 35.288 626.19 0
45.3545 36.1918 622.999 0
37.1027 37.5897 625.582 0
42.4975 39.3289 624.666 0
50.6569 42.2757 622.359 0
63.6824 43.0671 618.478 0
60.375 46.0431 620.261 0
65.1756 47.383 619.033 0
65.1306 47.3496 618.825 0
-37.8414 51.7992 645.596 0
-26.6539 51.4197 641.12 0
-30.6066 64.4704 644.897 0
-47.3997 72.053 647.519 0
-34.7812 76.8615 646.209 0
-67.3812 82.3801 646.469 0
-67.5183 82.8149 650.36 0
-51.6344 114.766 650.294 0
-57.8048 116.327 649.773 0
-54.1158 117.617 648.197 0
-54.4287 122.387 652.122 0
171.537 114.684 596.746 0
-61.5396 135.075 655.532 0
205.145 131.678 590.441 0
177.293 200.13 599.296 0
-344.173 -1420.3 4212.76 0
-207.718 -385.432 1212.67 0
211.305 -309.071 1011.56 0
110.005 -1266.92 4342.28 0
-1233.59 -1117.31 4139.75 0
-1233.18 -1117 4138.53 0
373.61 -1069.19 4135.79 0
-818.42 -796.123 3195.76 0
269.145 -244.737 1028.92 0
-276.262 -116.248 1275.29 0
-188.856 -122.718 1431.86 0
-162.782 -120.092 1445.48 0
425.796 -97.9259 1278.65 0
-84.7887 -96.3646 1459 0
-305.409 -72.6462 1356.22 0
-326.748 -38.2741 1255.42 0
-280.189 -36.1214 1226.91 0
264.29 -42.9053 1741.65 0
21.1437 -0.481486 644.144 0
-335.531 1.98773 1196.94 0
-358.167 14.8363 1141.34 0
315.48 33.6148 1502.26 0
-29.4417 14.6438 641.427 0
395.023 31.2824 1264.61 0
11.9197 24.0939 631.739 0
11.7424 24.0647 631.37 0
25.377 24.8728 628.794 0
26.343 33.3415 627.528 0
-32.9599 39.6915 641.995 0
-25.6801 51.8154 641.287 0
-216.435 91.7469 1018.51 0
-30.0606 64.3209 643.043 0
169.507 101.961 598.226 0
169.41 101.828 597.727 0
-51.4465 114.452 649.067 0
-69.4137 142.219 647.002 0
-48.4067 162.718 655.659 0
183.149 195.32 601.087 0
-114.323 -287.883 1923.7 0
-372.222 -135.316 1311.42 0
-138.809 -179.86 1930.09 0
-231.533 -119.676 1396.76 0
-208.563 -115.825 1409.9 0
366.707 -66.9421 1213.13 0
326.968 -24.4884 1271.31 0
-364.197 5.2274 1140.03 0
-279.863 8.78813 1229.27 0
16.779 16.2963 627.262 0
5.17828 24.9976 632.05 0
-2.01097 27.1161 634.451 0
75.1958 49.1277 616.494 0
-243.912 92.4501 988.237 0
-238.599 106.957 1014.73 0
-279.26 139.385 885.842 0
162.748 96.5245 604.478 0
-46.7287 105.962 650.388 0
205.494 102.437 590.865 0
181.473 199.435 596.236 0
173.252 -322.434 1009.07 0
-410.204 -178.713 1314.37 0
311.708 -38.0425 1217.63 0
377.618 26.903 1253.31 0
-29.8689 57.5331 644.177 0
-81.7188 107.82 665.714 0
-94.3916 168.558 648.259 0
201.252 -1190.92 4107.97 0
-783.201 -853.874 3329.12 0
-404.515 -168.302 1470.18 0
-380.915 -170.903 1582.42 0
-287.928 -137.464 1356.69 0
367.19 -75.1384 1215.39 0
346.747 -15.3506 1237.64 0
-46.652 -272.724 2101.71 0
348.7 -186.183 1449.88 0
131.7 -212.865 2037.24 0
3.65654 16.3711 635.056 0
-33.9851 56.1479 646.466 0
-38.2705 69.0362 648.521 0
164.756 86.7609 596.022 0
-49.0747 101.775 652.048 0
166.265 108.743 600.791 0
193.318 112.876 594.737 0
178.8 115.38 596.982 0
160.311 126.323 603.779 0
-58.2987 163.549 659.26 0
-58.2987 163.549 659.26 0
228.228 -317.904 1018.88 0
315.334 -43.1303 1197.25 0
-56.2855 43.4395 647.319 0
-34.0084 154.762 659.026 0
167.612 149.648 602.867 0
