ply
format ascii 1.0
element vertex 292
property float x
property float y
property float z
property uchar intensity
end_header
296.516 -1027.5 3504.48 0
-292.23 -361.523 1561.47 0
-277.737 -368.432 1599.33 0
-227.877 -380.372 1672.87 0
-204.165 -401.526 2099.15 0
-245.862 -384.755 2121.35 0
779.39 -590.066 3250.7 0
-379.154 -186.521 1329.36 0
15.0575 -27.8259 627.635 0
162.302 -1244.01 3826.15 0
-58.1328 -1064.59 3500.41 0
272.443 -1077.92 3559.7 0
107.042 -932.373 3288.54 0
201.309 -1049.24 3721.56 0
200.638 -1048.67 3719.52 0
-1058.83 -863.861 3100.07 0
-391.243 -518.96 1958.22 0
-339.152 -456.41 1782.55 0
-265.787 -452.369 1860.85 0
-301.273 -374.133 1602.44 0
-255.628 -363.384 1601.63 0
-243.98 -364.578 1646.34 0
14.1176 -303.881 1597.85 0
-212.705 -393.196 2093.42 0
-203.857 -374.848 2072.64 0
-181.89 -200.424 1567.77 0
-156.447 -194.664 1571.73 0
-141.338 -184.169 1485.85 0
14.4021 -28.9717 624.712 0
11.4741 -26.1375 624.476 0
16.0216 -24.6175 624.96 0
57.3891 -13.1431 620.148 0
-252.78 53.8088 941.13 0
-226.784 114.535 693.94 0
-29.5131 127.251 634.799 0
181.653 160.845 621.785 0
226.531 -1113.03 3635.5 0
255.723 -1110.64 3641.06 0
282.168 -1066.4 3535.65 0
274.271 -1061.38 3550.01 0
222.149 -1086.55 3707.61 0
89.1417 -894.465 3152.39 0
211.44 -1037.58 3730.7 0
208.898 -1010.05 3639.97 0
224.448 -984.836 3667.81 0
253.528 -951.369 3595.27 0
219.932 -945.855 3646.16 0
868.325 -829.502 3165.02 0
-313.331 -326.169 1264.12 0
-267.247 -365.502 1591.67 0
307.16 -369.288 1826.09 0
10.3747 -296.695 1598.22 0
-210.132 -366.816 2108.25 0
332.681 -173.088 1203.73 0
-315.41 -196.851 1451.29 0
-325.577 -184.92 1369.32 0
-205.826 -202.094 1566.28 0
-78.5772 -190.945 1554.74 0
12.2557 -28.0767 628.29 0
11.3128 -23.9472 624.781 0
27.8369 -19.6499 622.499 0
44.5805 -16.9471 621.619 0
44.3925 -16.9222 621.13 0
-314.532 -30.3477 1187.91 0
57.1587 -14.8575 619.988 0
-194.798 -22.8579 1241.72 0
-225.885 43.7105 1000.83 0
213.596 28.4693 599.772 0
-255.199 54.8844 968.733 0
191.981 42.0181 604.952 0
-43.7432 62.983 643.316 0
212.275 84.4275 602.758 0
-56.4726 88.7026 645.657 0
-53.1818 91.5101 642.406 0
-45.7051 102.68 647.394 0
204.633 100.797 606.638 0
200.132 137.834 611.483 0
182.913 155.965 620.797 0
193.137 162.671 596.393 0
155.652 173.695 633.621 0
4.21978 226.356 708.376 0
259.684 -1078.99 3582.59 0
207.065 -311.152 1069.41 0
195.717 -1075.63 3760.18 0
190.397 -1044.88 3733.24 0
1008 -911.908 3228.14 0
-1054.79 -884.931 3158.1 0
930.188 -881.726 3193.96 0
-405.886 -530.837 1994.52 0
-382.587 -456.592 1787 0
-377.556 -420.685 1671.49 0
-327.706 -398.366 1658.18 0
-201.631 -426.668 2187.16 0
-214.858 -376.667 2094.06 0
-224.064 -366.358 2094.46 0
-215.699 -358.659 2090.15 0
228.009 -260.77 1554.39 0
-472.266 -226.869 1480.04 0
342.15 -173.699 1215.98 0
-431.267 -189.82 1323.62 0
381.685 -169.727 1220.11 0
-175.926 -211.413 1599.64 0
-149.479 -209.799 1609.61 0
-159.275 -180.131 1458.41 0
-155.115 -184.039 1501.05 0
326.942 -120.578 1235.57 0
318.81 -116.618 1221.63 0
5.51482 -51.4622 630.347 0
-378.891 -64.135 1230.59 0
-187.045 -50.1648 1297.04 0
-12.1889 -23.7496 625.941 0
-145.157 -47.4979 1314.84 0
-321.489 -29.9141 1188.82 0
107.488 1.18832 612.023 0
121.439 4.98405 613.116 0
-34.9985 28.5967 638.374 0
183.725 28.3419 602.782 0
183.506 28.3017 603.403 0
-224.222 47.4937 997.484 0
-235.756 47.6657 986.452 0
-235.786 55.362 987.581 0
-25.1371 37.7508 637.796 0
-281.398 62.3318 991.707 0
-279.192 83.5268 865.675 0
-34.709 75.9122 644.751 0
-33.8361 82.1922 646.32 0
-69.0086 115.158 655.725 0
181.245 167.516 626.225 0
200.521 165.124 612.594 0
187.647 163.518 608.569 0
162.382 170.224 620.837 0
-18.0377 -1158.77 3693.55 0
232.538 -323.294 1062.19 0
209.809 -319.426 1069.33 0
199.597 -1088.44 3724.76 0
232.305 -1056.43 3667.51 0
-84.7671 -996.871 3653.22 0
-132.553 -1014.89 4152.37 0
-372.93 -378.015 1575.85 0
-238.06 -405.552 2094.54 0
294.565 -401.295 2117.13 0
256.736 -281.881 1490.26 0
-236.701 -373.578 2101.48 0
247.359 -257.599 1465.27 0
252.82 -273.271 1671.01 0
-413.436 -223.158 1505.3 0
-424.974 -168.128 1279.99 0
-424.974 -168.128 1279.99 0
-415.844 -167.228 1276.39 0
-171.581 -200.319 1572.98 0
-205.268 -183.166 1432.06 0
-39.0607 -182.648 1519.46 0
-76.1991 -178.943 1502.85 0
309.751 -124.632 1249.11 0
-17.9983 -23.7535 632.43 0
-10.8036 -19.7735 629.093 0
-25.3445 21.1222 633.046 0
-241.106 38.1863 995.853 0
-225.76 39.527 1005.02 0
-31.9998 32.7005 633.098 0
-38.3277 53.0394 641.007 0
-38.3277 53.0394 641.007 0
-286.298 88.8386 846.409 0
-42.8378 70.0157 641.259 0
-38.9456 71.0429 640.013 0
-41.0596 87.4753 647.922 0
-38.4106 107.694 648.068 0
180.715 142.223 618.819 0
191.36 165.649 596.625 0
-405.82 -1467.9 4263.99 0
-204.441 -1429.67 4275.27 0
-46.072 -1133.13 3445.69 0
200.452 -321.898 1056.58 0
932.674 -899.961 3160.27 0
-639.622 -460.16 1928.86 0
-640.104 -460.535 1930.65 0
329.415 -603.176 2624.87 0
91.4167 -251.947 1230.21 0
-212.113 -402.232 2088.43 0
17.0034 -297.118 1602.65 0
190.681 -409.788 2691.05 0
206.321 -399.705 2703.66 0
-373.868 -206.412 1426.49 0
-336.008 -213.943 1520.26 0
261.542 -377.52 2705.43 0
-236.689 -226.723 1630.87 0
329.288 -166.966 1207.24 0
-259.676 -183.002 1390.43 0
-252.717 -183.645 1401.25 0
242.984 -351.712 2699.51 0
-227.64 -183.699 1416.85 0
-421.418 -159.184 1257.64 0
-304.561 -155.925 1330.35 0
322.45 -121.56 1235.15 0
309.191 -103.673 1240.44 0
352.918 -73.9395 1283.88 0
5.10922 -32.8487 625.043 0
-363.399 -63.1548 1219.52 0
-326.374 -43.0289 1201.31 0
55.1794 -17.5928 618.951 0
46.8953 -15.5912 620.973 0
74.3009 -12.1413 616.076 0
-27.9528 4.21181 635.961 0
-18.5891 6.56449 640.691 0
-44.4954 59.4215 641.18 0
173.345 165.565 623.583 0
-284.424 -426.791 1198.45 0
20.9963 -1266 4098.84 0
201.243 -316.419 1064.98 0
-525.538 -416.964 2000.49 0
-327.007 -164.47 1239.05 0
-428.1 -152.521 1255.45 0
268.075 -134.329 1228.12 0
-369.274 -81.8739 1218.67 0
-320.642 -82.6934 1193.79 0
24.8306 -35.1352 620.287 0
185.174 -52.3604 998.052 0
20.2951 -27.112 624.705 0
41.4734 -17.4628 621.1 0
52.4685 -14.2841 620.528 0
-23.8149 -8.13527 632.245 0
76.0948 -7.98851 616.913 0
76.0633 -8.01092 616.701 0
80.8492 -6.27832 616.268 0
-139.401 36.2066 1109.25 0
190.464 21.7537 603.834 0
-23.1513 25.0948 638.556 0
-54.8741 37.1329 635.889 0
185.827 38.2526 606.08 0
185.759 38.1452 605.571 0
-39.1684 75.6851 644.094 0
-52.4823 96.4633 649.808 0
206.793 129.971 613.711 0
205.837 134.376 608.92 0
165.907 173.013 620.572 0
141.878 -464.091 2087.47 0
118.82 -402.338 1904.73 0
-245.955 -261.784 1899.1 0
50.0015 -282.733 2089.93 0
320.71 -167.604 1226.53 0
-292.177 -175.81 1363.25 0
-338.212 -164.6 1312.83 0
280.219 -123.953 1283.29 0
13.6462 -25.6528 624.554 0
6.49094 -23.0173 626.501 0
-371.797 -36.6403 1158.84 0
-316.829 -38.079 1197.98 0
86.3895 -7.01153 615.193 0
85.3859 -3.15971 616.609 0
-142.319 44.9573 1096.11 0
-56.4951 29.9269 651.167 0
-129.732 127.707 670.681 0
222.52 -332.328 1024.93 0
226.995 -1109.85 3787.88 0
-473.685 -212.115 1421.68 0
336.133 -76.4433 1271.16 0
-150.594 -52.8956 1299.78 0
-255.74 50.4212 963.832 0
-251.311 63.5147 991.211 0
-68.5214 63.0223 655.036 0
-51.1861 114.574 652.723 0
-74.8087 125.175 639.163 0
149.726 168.588 626.51 0
303.209 -115.376 1251.56 0
-125.627 26.2476 1059.74 0
-248.4 51.2702 982.336 0
-62.9727 73.1717 645.668 0
155.648 151.206 626.918 0
145.02 153.994 629.233 0
-158.083 -1371.7 4053.48 0
274.873 -292.906 1456.29 0
11.198 -34.2173 627.088 0
-20.5065 -4.24303 635.186 0
-45.1538 -0.686499 636.47 0
-23.8323 8.18676 637.288 0
-27.1954 21.3135 639.541 0
182.963 45.1928 608.671 0
210.648 47.2275 604.802 0
196.254 50.8724 606.069 0
-35.527 54.709 643.582 0
178.253 63.1008 611.92 0
-40.7913 77.6983 658.688 0
-40.7913 77.6983 658.688 0
-40.1987 116.76 652.584 0
-40.1987 116.76 652.584 0
-137.782 139.869 667.667 0
160.035 133.562 623.833 0
168.845 157.142 624.014 0
161.372 169.329 624.001 0
11.9125 -321.177 2024.49 0
327.175 -112.57 1228.39 0
28.4772 -43.1026 634.802 0
