ply
format ascii 1.0
element vertex 361
property float x
property float y
property float z
property uchar intensity
end_header
520.809 -809.996 3566.85 0
443.478 -811.361 3791.96 0
442.699 -810.799 3789.96 0
455.686 -800.657 3799.63 0
516.678 -736.25 3561.59 0
138.222 -271.144 2103.41 0
-85.3887 -173.276 1738.17 0
-608.901 -159.934 1886.3 0
156.234 -133.903 1656.72 0
163.428 -133.973 1657.61 0
-63.6447 -161.714 2203.58 0
102.944 101.161 677.213 0
99.3158 103.145 674.284 0
104.035 104.12 674.308 0
195.775 -279.176 1033.58 0
498.892 -839.09 3615.72 0
51.6272 -1140.38 5009.63 0
72.2004 -826.437 3672.8 0
165.322 -803.883 3594.41 0
-836.592 -499.231 3269.88 0
-251.693 -276.301 2056.1 0
-633.613 -176.397 1903.1 0
-25.2857 -158.927 2151.09 0
135.565 -108.509 1665.08 0
46.4301 -10.4934 1586.83 0
-31.4007 132.207 1353.42 0
98.1284 103.208 677.354 0
68.2303 106.981 676.004 0
150.796 112.654 663.971 0
-103.229 228.45 1052.31 0
59.5626 168.943 690.984 0
502.537 -826.018 3606.92 0
-342.084 -744.664 3347.12 0
493.682 -806.035 3631.5 0
438.296 -835.321 3832.2 0
499.544 -770.233 3606.55 0
252.601 -716.717 3383.7 0
469.13 -752.432 3733.3 0
495.345 -725.658 3656.98 0
-673.241 -520.212 3369.36 0
-598.529 -523.46 3397.94 0
-125.455 -531.708 3529.81 0
25.8853 -535.955 3580.54 0
-669.593 -489.597 3275.39 0
-536.844 -260.062 2311.65 0
-139.877 -162.43 1685.91 0
-117.212 -160.016 1686.1 0
-61.4279 -178.223 2177.59 0
-40.2987 -165.569 2179.65 0
153.41 -126.307 1657.04 0
-27.367 -148.781 2186.65 0
-567.703 -119.81 1949.76 0
-577.552 -51.3597 1782.27 0
18.794 -13.2717 1663.38 0
89.5192 -13.5165 1630.52 0
73.9734 -12.3542 1615.92 0
38.5905 -10.8019 1679.38 0
-1.96317 -5.91158 1639.55 0
-281.559 -0.927015 1629.05 0
-236.187 29.1534 1867.41 0
-186.174 16.232 1451.82 0
168.025 29.5124 1578.14 0
-429.549 51.7584 1368.47 0
-421.557 55.8642 1347.72 0
73.0062 79.2567 1217.37 0
3.55014 128.453 1375.55 0
-237.996 144.973 1277.53 0
99.4409 105.349 674.492 0
132.884 108.127 668.202 0
196.377 118.094 652.463 0
-91.7094 219.285 1059.88 0
-91.6202 219.064 1058.46 0
61.0246 163.627 689.267 0
68.1936 167.649 683.785 0
71.802 171.485 687.405 0
67.4399 210.773 693.214 0
67.3493 211.047 693.894 0
59.9455 238.762 695.424 0
437.465 -849.907 3797.26 0
434.242 -805.242 3804.29 0
160.584 -727.405 3745.33 0
441.447 -632.508 3413.63 0
300.75 -194.116 1115.09 0
155.786 -719.611 4247 0
305.261 -190.953 1117.57 0
284.462 -177.593 1083.21 0
-901.859 -557.588 3468.79 0
-829.89 -518.309 3328.35 0
-551.227 -525.313 3431.53 0
-726.648 -507.146 3331.89 0
-162.359 -529.114 3507.08 0
147.109 -544.362 3642.8 0
-74.353 -521.74 3519.02 0
41.0208 -525.721 3551 0
53.7474 -509.026 3497.85 0
-639.362 -459.364 3185.04 0
-565.093 -462.832 3217.58 0
142.727 -501.744 3513.57 0
-257.486 -289.462 2088.49 0
1071.48 -453.949 3456.88 0
1070.84 -455.779 3460.78 0
226.985 -164.944 1602.73 0
-222.037 -180.657 1768.24 0
-246.922 -150.783 1685.31 0
-66.9728 -159.41 1971.5 0
-605.256 -141.643 1891.53 0
-34.4661 -158.542 2173.42 0
-34.8853 -160.172 2187.09 0
48.4288 -121.506 1665.32 0
-573.129 -137.769 1921.47 0
-42.3253 -147.184 2174.07 0
-33.5325 -140.735 2168.69 0
426.02 -42.6664 1269.96 0
-556.841 -58.0441 1804.03 0
-560.14 -45.0386 1741.18 0
-342.771 -9.29427 1557.93 0
91.3722 -8.324 1619.61 0
31.823 -3.91009 1613.84 0
17.0613 -2.48943 1522.89 0
445.99 -0.143416 1247.33 0
-336.656 -0.527747 1583.84 0
101.687 0.849103 1602.38 0
72.4811 1.83497 1546.08 0
24.6495 5.19778 1530.26 0
0.728768 6.89246 1513.92 0
-43.7835 8.17777 1518.68 0
-102.13 11.1914 1480.95 0
-458.542 14.7046 1503.91 0
-150.645 15.2503 1462.7 0
-418.979 17.0248 1444.7 0
-210.642 18.147 1441.23 0
-232.888 102.859 1298.01 0
-432.468 120.776 1320.71 0
-237.103 136.979 1312.15 0
31.8363 157.291 1357.48 0
-266.3 150.665 1253.94 0
-248.699 159.856 1171.54 0
76.3235 108.445 677.609 0
69.1049 114.272 680.986 0
36.9744 138.668 821.551 0
70.9797 127.813 675.552 0
-104.205 220.768 1051.56 0
81.4387 184.113 688.019 0
59.5899 196.749 692.921 0
-161.864 262.167 914.366 0
68.9341 213.648 693.408 0
69.1813 216.958 694.387 0
55.6385 222.276 698.491 0
62.8007 223.139 696.322 0
66.271 223.152 693.487 0
26.3803 223.048 690.892 0
53.885 228.286 698.899 0
64.199 -286.611 957.736 0
306.757 -307.337 1020.5 0
404.604 -275.899 1154.85 0
-246.064 -731.313 3318.58 0
468.464 -824.403 3735.94 0
-1336.2 -701.314 4214.47 0
-1288.74 -698.629 4209.94 0
-1311.58 -684.811 4206.91 0
378.827 -190.901 1596.61 0
-187.56 -183.709 1750.18 0
-54.9546 -170.649 1749.64 0
-229.986 -161.645 1683.63 0
-46.9959 -158.628 1739.14 0
448.555 -84.7652 1301.27 0
-564.627 -65.9642 1822.08 0
69.0249 -15.1715 1522.72 0
-265.419 -5.61324 1596.43 0
-176.946 -8.10542 1626.45 0
-174.773 -4.98167 1610.81 0
-326.296 -3.15604 1576.42 0
-402.107 3.01112 1487.69 0
-250.206 6.37625 1521.07 0
-301 7.66013 1467.67 0
-141.506 14.1512 1436.36 0
-189.936 21.7012 1624.18 0
-306.2 24.8676 1404.11 0
-418.173 39.6711 1350.5 0
-187.152 49.7133 1281.41 0
-381.042 67.9682 1375.25 0
-70.5412 135.234 1378.93 0
-222.654 135.63 1299.79 0
-228.057 137.303 1286.71 0
90.9707 78.9854 681.899 0
-170.159 165.56 1217.71 0
128.202 103.803 667.658 0
143.053 106.093 664.69 0
150.368 107.253 663.565 0
135.275 109.165 667.297 0
78.4423 112.346 680.429 0
127.338 111.562 670.085 0
132.685 112.396 668.635 0
137.863 113.153 668.197 0
159.738 116.724 664.539 0
91.4721 119.812 678.993 0
-330.291 195.804 1062.59 0
88.2791 122.747 678.383 0
30.4675 214.38 1150.74 0
-340.926 205.264 1070.85 0
-340.926 205.264 1070.85 0
-93.6227 216.219 1065.25 0
-93.835 215.139 1061.34 0
69.2188 154.829 683.53 0
64.0014 167.123 683.559 0
60.839 188.378 690.94 0
60.839 188.378 690.94 0
58.3954 205.773 690.716 0
62.2545 206.269 689.099 0
-189.428 258.393 761.881 0
-15.615 -295.808 912.781 0
34.8337 -269.321 1001.68 0
124.37 -272.653 1031.65 0
-35.0274 -256.807 994.985 0
211.163 -894.471 3787.99 0
211.274 -826.104 3600.89 0
216.096 -708.628 3379.16 0
298.436 -188.147 1113.84 0
153.322 -671.691 4160.5 0
524.641 -428.154 2667.38 0
-1315.22 -596.574 4229.22 0
-70.3546 -166.731 1733.15 0
-578.022 -73.3628 1834.52 0
6.53312 -20.2608 1677.42 0
3.80909 -10.1482 1625.77 0
-67.4678 2.3903 1347.6 0
-469.257 5.20693 1535.14 0
-102.289 4.30483 1528.47 0
-415.937 14.327 1458.94 0
-365.925 26.6847 1391.76 0
-254.524 39.5455 1374.12 0
-254.839 39.5367 1375.22 0
-281.674 41.0411 1366.02 0
-368.603 46.0894 1342.52 0
-287.917 48.95 1347.42 0
-304.877 50.0211 1355.4 0
103.157 82.9933 1238.88 0
-281.681 98.6226 1330.71 0
-182.781 109.148 1262.55 0
-184.96 110.036 1271.58 0
-108.91 132.662 1329.73 0
-362.825 119.666 1160.15 0
-385.234 134.641 1141.81 0
-185.297 150.37 1277.55 0
-180.04 162.288 1264.05 0
221.489 108.032 743.949 0
-272.176 172.879 1194.07 0
65.6175 100.345 683.902 0
121.258 99.1226 670.787 0
119.292 106.495 671.017 0
123.898 107.203 669.374 0
129.704 107.972 667.973 0
140.902 109.767 666.321 0
162.349 109.064 659.95 0
149.466 110.973 663.918 0
159.725 112.672 661.703 0
25.4316 180.021 1068.31 0
164.686 112.998 660.425 0
164.633 112.972 660.218 0
10.3423 222.738 1124.73 0
-109.77 212.39 1061.85 0
64.9125 138.49 687.5 0
75.0331 149.146 684.695 0
72.3468 158.722 688.63 0
72.9641 162.428 687.678 0
-155.083 257.098 915.892 0
-190.965 254.662 876.271 0
38.1074 203.197 698.08 0
58.5657 224.974 696.184 0
-1310.48 -712.557 4207.41 0
-1310.02 -712.349 4206.18 0
-847.591 -495.976 3255.84 0
-227.215 -177.372 1730.66 0
-211.112 -178.824 1745.7 0
-479.145 -196.352 2048.84 0
-479.505 -196.595 2050.68 0
-565.571 -180.904 1973.09 0
-592.34 -156.567 1892.69 0
-42.5187 -9.14825 1641.2 0
-17.484 -9.63285 1642.35 0
87.0823 1.32181 1569.51 0
-228.4 2.68725 1515.23 0
37.3243 3.29227 1549.65 0
12.6107 6.24052 1540.75 0
-189.095 8.73687 1485.52 0
153.279 14.1345 1525.01 0
-294.327 32.7192 1358.25 0
-293.938 56.2822 1345.47 0
78.3714 92.4163 1233.33 0
-230.741 117.744 1300.38 0
-383.874 151.605 1170.1 0
111.095 92.4329 669.447 0
107.946 101.117 673.822 0
107.763 101.118 673.453 0
94.9348 106.926 676.562 0
103.152 185.294 929.908 0
-98.6234 219.258 1060.72 0
67.1615 193.398 691.441 0
-203.487 243.357 843.174 0
-235.153 252.407 804.48 0
530.941 -653.156 3336.07 0
307.501 -288.826 2141.31 0
293.684 -242.393 2054.19 0
-637.665 -152.495 1903.29 0
-606.334 -118.293 1869.76 0
428.36 -62.9447 1305.14 0
-186.42 -5.2797 1604.36 0
-84.9212 7.4432 1490.83 0
-152.612 20.9706 1442.51 0
82.9057 47.2504 1166.56 0
-370.581 89.9835 1356.86 0
-299.616 97.7759 1354.99 0
112.141 75.3774 686.58 0
-175.572 153.988 1273.19 0
-336.058 152.531 1188.94 0
-259.691 166.148 1184.5 0
101.528 103.365 674.155 0
174.829 112.649 657.8 0
-2.31447 211.101 1153 0
67.2224 125.594 684.073 0
73.8636 142.477 685.941 0
-117.303 238.565 1056.81 0
41.0623 168.065 703.736 0
-268.923 242.684 843.365 0
62.5053 203.177 697.356 0
-151.751 276.568 927.634 0
235.372 -268.793 1034.46 0
409.2 -507.152 2876.38 0
-651.947 -174.021 1910.48 0
-79.8111 -25.6114 1706.75 0
-30.3077 -26.2806 1683.96 0
433.379 4.17328 1278.37 0
-129.221 20.3112 1455.45 0
-3.80605 123.161 1361.3 0
-381.365 173.996 1177.03 0
8.74646 189.07 1116.33 0
1.57116 221.904 1125.72 0
-125.666 225.027 1030.59 0
256.727 -270.109 1092.99 0
467.684 -871.956 3858.85 0
-677.105 -213.502 2023.01 0
-635.812 -176.077 1949.69 0
441.159 -58.838 1257 0
-498.704 -2.81663 1619.06 0
75.7736 116.312 1171.86 0
26.2945 180.077 1137.71 0
140.819 113.273 665.372 0
156.643 115.119 662.83 0
47.3698 135.741 689.695 0
-172.382 259.564 906.929 0
-172.382 259.564 906.929 0
-198.04 250.456 862.338 0
-233.573 246.494 817.241 0
-823.535 -557.613 3389.94 0
147.053 50.1011 1521.87 0
-393.776 75.2117 1351.51 0
69.5735 141.985 688.275 0
67.9907 155.502 690.14 0
64.0352 189.796 693.184 0
160.899 -143.747 1660.09 0
-261.512 255.238 832.326 0
