ply
format ascii 1.0
element vertex 303
property float x
property float y
property float z
property uchar intensity
end_header
-555.609 -1348.19 4278.03 0
-293.651 -1002.32 3505.7 0
-369.009 -1355.89 4802.15 0
-234.595 -991.078 3496.44 0
1155.47 -905.112 3316.72 0
31.0225 -984.045 3707.68 0
38.7561 -947.192 3627.24 0
1111.17 -874.781 3329.2 0
476.436 -804.035 3147.34 0
56.3118 -922.297 3654.17 0
884.541 -773.314 3110.28 0
481.517 -776.676 3179.43 0
-1067.56 -726.318 3129.83 0
16.697 -583.282 2781.63 0
441.407 -691.41 3303.5 0
383.473 -714.647 3447.67 0
460.055 -661.016 3197.07 0
439.976 -647.979 3265.85 0
-476.938 -316.782 1590.25 0
1186.34 -606.905 3301.08 0
47.0622 -248.823 1483.52 0
-257.729 -253.062 1550.72 0
1159.19 -536.077 3346.51 0
-392.42 -327.505 2081 0
-428.365 -320.974 2064.37 0
-389.451 -318.9 2061.28 0
-431.174 -311.954 2086.92 0
-132.19 -361.094 2410.69 0
-67.7181 -554.217 4045.2 0
150.384 -160.252 1216.92 0
-196.097 -3.77611 601.79 0
-167.316 2.44962 597.49 0
-167.517 2.47536 597.006 0
-116.506 14.4924 589.034 0
-64.365 26.3296 581.532 0
-56.1455 28.1771 579.461 0
-56.136 28.1626 579.716 0
-915.38 -1360.6 4111.8 0
-1002.13 -1378.03 4155.06 0
-562.546 -1371.27 4277.42 0
-239.439 -1379.1 4398.12 0
1257.63 -1008.64 3485.69 0
26.0255 -1010.06 3748.95 0
1012.57 -890.514 3328.25 0
880.104 -761.257 3095.21 0
439.58 -777.374 3256.08 0
463.884 -758.438 3180.18 0
-1072.31 -757.636 3209.08 0
433.794 -752.47 3249.35 0
370.284 -677.077 3497.17 0
437.304 -631.695 3305.47 0
1201.57 -614.024 3298.37 0
36.0093 -257.807 1522.58 0
-403.472 -258.206 1589.1 0
-398.546 -336.452 2082.63 0
-399.886 -319.83 2083.04 0
181.215 -183.411 1291.58 0
-154.706 3.90198 595.46 0
-76.3243 23.4253 580.437 0
-36.4033 32.894 575.742 0
56.3298 60.0615 558.6 0
66.5817 72.204 563.064 0
28.3889 68.477 423.286 0
-2.33402 112.062 575.786 0
146.112 113.714 553.099 0
0.610736 117.569 574.928 0
31.1924 119.576 571.05 0
136.78 129.261 558.04 0
135.446 130.254 558.128 0
58.1295 179.169 576.196 0
58.1295 179.169 576.196 0
56.3856 180.477 576.938 0
-856.643 -1471.83 4163.53 0
-587.11 -1328.47 4217.18 0
-438.024 -977.685 3443.19 0
-228.365 -990.554 3538.58 0
-156.209 -893.555 3308.29 0
1122.63 -900.175 3302.8 0
21.3858 -979.529 3721.62 0
477.153 -821.867 3167.07 0
1135.18 -832.338 3347.37 0
453.632 -722.637 3236.16 0
344.191 -718.077 3477.46 0
448.672 -660.149 3210.86 0
411.088 -652.93 3369.36 0
-121.447 -302.845 1567.06 0
-49.0774 -250.823 1493.09 0
20.4882 -258.898 1556.44 0
1166.33 -553.531 3349.32 0
-431.572 -310.118 2032.05 0
-68.1924 -209.407 1411.45 0
-394.276 -309.984 2096.9 0
-399.982 -301.87 2078.82 0
146.657 -148.765 1185.04 0
-521.691 -163.79 1532.65 0
185.395 -128.811 1211.72 0
-213.013 -115.768 1170.55 0
110.89 -107.485 1218.92 0
119.503 -100.375 1191.05 0
157.442 -58.3658 1251.51 0
-80.1316 2.44256 608.77 0
174.256 10.4853 918.74 0
-104.042 17.2969 586.048 0
-103.926 17.364 585.76 0
258.014 38.5767 979.558 0
-26.7861 40.6471 573.839 0
-26.9878 40.6279 574.467 0
12.842 48.1021 565.593 0
93.9104 66.3721 552.61 0
124.605 71.4489 550.848 0
119.898 74.1561 549.151 0
71.7456 76.9883 562.284 0
64.7281 93.609 566.302 0
151.106 103.529 550.368 0
-0.511625 111.841 576.558 0
-2.61687 114.699 577.739 0
140.283 115.446 554.772 0
141.879 121.417 557.382 0
17.7475 132.275 577.818 0
145.315 133.164 558.451 0
-4.91421 149.349 580.092 0
-6.61083 151.069 579.555 0
-32.194 176.635 596.818 0
56.8384 170.249 572.652 0
-40.7802 183.674 589.944 0
-817.802 -1459.69 4139.62 0
-817.802 -1459.69 4139.62 0
-938.067 -1366.6 4105.98 0
-610.312 -1355.87 4238.21 0
-578.655 -1366.9 4282.66 0
-578.37 -1364.4 4276.86 0
1037.02 -1047.79 3482.21 0
-193.338 -1083.86 3690.01 0
1095.15 -899.028 3381.94 0
925.921 -850.423 3245.59 0
1150.39 -871.863 3377.87 0
41.8668 -922.628 3662.56 0
449.972 -775.794 3217.25 0
434.969 -712.621 3295.09 0
-417.543 -297.273 1574.84 0
-398.535 -345.587 2077.79 0
-430.025 -333.384 2061.57 0
6.24732 -441.359 2850.92 0
-408.573 -309.083 2083.51 0
177.594 -186.432 1271.63 0
179.696 -156.476 1188.68 0
127.132 -151.402 1177.27 0
-353.842 -136.787 1442.61 0
66.8857 -106.646 1207.6 0
111.075 -86.6699 1209.89 0
-207.71 -29.989 607.959 0
173.716 -8.91169 1230.79 0
-173.195 5.42445 599.131 0
-167.849 6.67896 598.018 0
-162.723 7.81483 597.904 0
-8.63282 56.5383 573.701 0
34.536 55.2379 561.499 0
13.3384 61.0125 567.977 0
-20.3739 62.8637 575.77 0
-5.91642 67.1716 575.694 0
111.737 72.3536 549.179 0
123.796 74.0605 553.83 0
115.688 73.8436 552.504 0
92.8312 81.5049 553.472 0
153.337 82.026 547.527 0
49.1764 86.9682 567.605 0
112.41 85.9466 550.766 0
112.554 86.0853 551.301 0
138.726 92.0894 548.525 0
2.60838 95.6197 573.142 0
54.5187 94.6086 561.024 0
145.237 94.0395 547.991 0
145.237 94.0395 547.991 0
19.2124 99.3209 570.812 0
19.2124 99.3209 570.812 0
45.7877 103.741 570.666 0
35.9553 103.582 568.142 0
35.9553 103.582 568.142 0
50.58 111.712 565.068 0
48.5012 128.393 566.897 0
153.52 128.138 558.902 0
-1.94485 151.949 578.825 0
121.468 155.416 559.421 0
31.3842 172.817 580.175 0
-667.439 -1448.99 4171.53 0
-1204.85 -1388.54 4027.98 0
-593.051 -1446.8 4287.44 0
8.31417 -312.198 1004.71 0
-187.591 -1010.16 3505.03 0
1098.78 -875.762 3343.96 0
125.148 -186.158 1242.88 0
1111.99 -511.397 3347.9 0
-27.4363 -252.376 1746.39 0
7.99194 -228.834 1617.93 0
-388.595 -155.714 1555.23 0
-456.237 -135.933 1377.61 0
-423.501 -137.738 1403.1 0
-82.1262 -69.6842 1281.31 0
629.063 -112.673 2124.49 0
-201.479 -27.9123 608.639 0
-171.633 -2.17836 596.562 0
-193.204 0.247231 601.384 0
-156.844 1.24856 594.529 0
-164.959 3.68116 596.753 0
-137.577 5.72183 591.007 0
121.194 48.7279 536.017 0
111.157 53.8655 549.35 0
106.034 65.9288 554.806 0
159.49 72.9956 545.82 0
15.4297 75.3867 571.381 0
10.1232 78.6192 572.388 0
53.027 86.9071 566.443 0
59.1033 101.527 565.082 0
15.8978 116.411 573.3 0
139.533 133.81 557.375 0
147.156 136.671 556.538 0
45.5655 140.701 571.31 0
69.8374 166.968 569.955 0
69.8374 166.968 569.955 0
-29.975 178.537 592.457 0
-33.1108 192.264 594.256 0
-907.806 -1441.06 4132.23 0
-227.45 -1061.02 3442.64 0
1113.19 -840.214 3335.1 0
90.6301 -164.077 1240.26 0
-428.248 -176.716 1618.04 0
-448.998 -136.732 1388.24 0
84.2541 -106.729 1228.09 0
-187.943 -14.7831 597.055 0
-178.386 -7.43068 599.158 0
-191.957 -6.47801 601.457 0
-192.119 -6.47854 601.079 0
-170.458 2.07601 597.07 0
-159.345 4.71002 596.124 0
-135.602 9.77207 591.507 0
-130.753 11.2641 590.905 0
226.792 28.558 910.395 0
-31.8231 45.9089 582.717 0
-24.116 50.4981 576.897 0
58.1697 105.783 567.153 0
54.8614 122.97 570.31 0
42.9134 137.668 573.552 0
1.42593 141.211 582.267 0
18.2982 145.792 582.182 0
36.0787 148.672 576.014 0
34.105 153.814 577.576 0
99.5204 176.075 566.372 0
59.1265 180.987 576.591 0
-36.9396 185.302 587.683 0
-37.1348 186.285 589.528 0
-411.316 -236.142 1628.26 0
103.234 -165.952 1246.11 0
119.109 -151.305 1196.81 0
-198.53 -4.7021 601.471 0
-198.425 -4.73575 601.321 0
-125.289 10.2464 589.684 0
50.02 70.0756 561.757 0
50.0281 70.2564 562.171 0
97.4375 70.5312 546.583 0
66.9481 89.3608 564.97 0
60.8576 95.7986 565.034 0
46.695 98.993 567.456 0
46.6821 99.133 568.844 0
39.849 133.04 573.209 0
40.7217 144.464 574.688 0
12.5133 148.36 579.928 0
47.6684 157.746 575.457 0
28.5495 181.453 582.302 0
248.948 -376.677 1099.19 0
1007.39 -783.61 3204.01 0
155.363 -178.587 1257.88 0
76.095 -153.823 1217.33 0
1076.62 -390.276 3101.37 0
249.602 9.46735 968.423 0
-20.3416 33.7595 574.815 0
30.5822 50.7705 559.959 0
18.6495 77.9457 567.868 0
140.456 117.74 554.006 0
90.917 161.596 567.613 0
-53.3259 182.746 596.008 0
-53.2874 182.512 595.673 0
74.1669 -270.415 1430.02 0
-360.454 -313.347 2060.84 0
140.186 -60.2669 1239.32 0
115.309 56.0555 546.393 0
-44.7863 147.224 593.666 0
84.4368 155.264 568.272 0
-58.6408 168.444 599.128 0
-48.2311 165.107 596.559 0
1043.48 -860.463 3305.7 0
-549.015 -503.264 2016.95 0
112.51 -173.226 1237.76 0
-30.6945 36.0841 574.169 0
-26.5671 57.6105 579.444 0
-30.3169 75.7765 582.504 0
-41.7374 182.882 593.152 0
1.05711 58.2413 574.742 0
-13.1023 62.5977 576.358 0
151.781 91.5561 550.55 0
-20.0011 97.9523 582.403 0
133.076 108.866 555.205 0
-13.1341 133.791 581.143 0
-34.8581 170.35 593.169 0
