ply
format ascii 1.0
element vertex 241
property float x
property float y
property float z
property uchar intensity
end_header
66.2108 -155.22 2882.88 0
-76.1064 52.4266 1651.26 0
-62.0388 209.298 650.498 0
785.619 -1584.21 4673.11 0
403.846 -1471.53 4405.73 0
541.214 -296.378 3138.2 0
551.301 -284.107 3208.51 0
534.325 -265.274 3230.56 0
-487.504 -187.615 3537.08 0
-483.413 -104.095 2577.37 0
-1052.87 -100.882 3036.2 0
549.673 -103.505 3255.25 0
-469.652 -61.2956 2048.42 0
-480.704 -20.1039 1892.44 0
-888.058 18.2541 2611.44 0
-397.292 36.4017 1657.67 0
-85.7768 60.3178 1649.35 0
-341.303 87.7239 2153.67 0
290.733 65.5204 1363.64 0
-164.652 174.802 1608.99 0
-266.264 181.938 1604.81 0
37.1058 192.35 1350.26 0
153.495 275.822 1570.66 0
-140.8 250.308 1143.07 0
-56.6762 210.784 650.445 0
-61.225 212.162 650.19 0
-59.4814 212.838 651.279 0
-27.5315 213.404 645.701 0
-14.6242 213.282 644.312 0
24.5742 218.991 637.708 0
312.723 -1486.82 4315.71 0
108.987 -89.1686 1060.4 0
1220.16 -248.914 3428.83 0
51.1646 -178.78 2994.67 0
542.561 -175.147 3162.95 0
-306.414 -196.461 3621.48 0
-973.658 -170.011 3355.95 0
1200.34 -171.198 3466.04 0
-1101.78 -146.955 3260.84 0
-835.916 -142.033 3278.25 0
1223.31 -100.656 3442.46 0
177.138 -38.5355 1657.55 0
182.471 -11.7053 1684.14 0
-352.151 41.5689 1694.98 0
311.507 80.2482 1273.73 0
-192.173 179.907 1631.54 0
-235.082 183.487 1610.9 0
-289.12 187.84 1591.57 0
60.801 252.414 1549.05 0
-205.944 295.531 1338.17 0
-227.593 303.898 1331.38 0
-91.6065 222.494 653.693 0
262.41 -1417.4 4538.2 0
-1072.72 -1260.64 4195.02 0
538.649 -270 3191.96 0
528.115 -240.081 3210.73 0
1234.56 -257.867 3427.22 0
96.4512 -59.102 1108.52 0
1205.51 -188.923 3470.81 0
-248.6 -193.161 3656.16 0
-420.679 -176.333 3520.92 0
97.2823 -56.0881 1126.89 0
-330.064 -167.037 3502.35 0
-242.227 -161.168 3523.98 0
70.4459 -6.48675 2936.85 0
158.104 24.7438 1551.78 0
157.715 23.2288 1540.23 0
-364.621 30.8926 1677.14 0
146.789 59.2377 1686.01 0
133.309 51.3352 1311.82 0
-309.106 93.5049 2145.3 0
287.039 60.8192 1344.03 0
215.748 74.4291 1305.52 0
-182.476 178.952 1638.09 0
-140.71 176.645 1598.16 0
-261.808 180.974 1614.89 0
239.603 143.622 1253.66 0
-308.773 184.296 1598.08 0
-408.652 185.484 1585.11 0
-257.162 184.64 1592.29 0
-427.399 238.545 2043.44 0
154.75 194.719 1661.86 0
-524.591 190.04 1546.52 0
-338.396 183.638 1499.06 0
232.495 160.058 1270.78 0
-319.228 187.418 1426.42 0
-127.203 231.468 1189.98 0
-126.648 242.925 1168.52 0
-248.074 297.406 1320.85 0
-373.002 323.982 1210.21 0
-68.7375 204.443 651.524 0
-84.3795 216.196 651.333 0
-1009.17 -1426.9 4055.58 0
-739.755 -1461.95 4181.31 0
861.671 -1507.52 4755.45 0
299.127 -1401.45 4495.08 0
980.235 -1526.38 4914.35 0
105.944 -176.811 1042.32 0
230.4 -181.817 1095.8 0
320.223 -185.34 1133.13 0
21.5103 -150.762 1030.92 0
21.7204 -139.166 1030.81 0
-162.405 -132.314 1000.48 0
-75.4097 -135.867 1037.15 0
-292.583 -114.339 951.511 0
-81.5568 -123.845 1052.18 0
543.138 -290.731 3210.44 0
-283.879 -277.749 4181.39 0
87.9329 -48.2952 1108.03 0
89.2088 -52.3058 1122.22 0
-197.847 -60.9275 1539.28 0
-210.029 -73.5926 2146.43 0
282.654 -35.6844 1088.13 0
-495.261 29.0064 1904.19 0
253.617 83.3158 1254.9 0
-199.499 182.358 1587.67 0
-128.871 184.061 1581.07 0
-223.011 184.274 1565.27 0
-154.361 182.193 1529.96 0
-153.936 181.305 1522.87 0
-176.111 182.288 1507.32 0
-200.366 184.795 1503.33 0
-331.448 190.124 1502.21 0
-346.16 190.99 1425.38 0
-427.409 192.758 1413.39 0
-383.843 176.982 1255.05 0
26.8207 198.473 1290.67 0
-83.0176 206.352 1125.95 0
-160.905 268.34 1446.32 0
-425.77 303.264 1245.56 0
-102.896 207.069 657.583 0
-32.1242 209.197 645.646 0
-17.0267 210.789 643.611 0
-32.8801 217.151 647.378 0
-27.4166 217.703 646.265 0
-22.1965 218.265 646.152 0
1057.17 -1508.61 4187.78 0
-11.8999 -1493.04 4486.05 0
-137.773 -1465.93 4426.27 0
-289.965 -1448.68 4423.12 0
100.225 -301.633 1022.89 0
-49.3624 -167.99 992.842 0
37.9692 -124.171 1070.82 0
523.818 -136.757 3116.27 0
-503.783 -67.2719 1998.57 0
-485.721 -0.187109 1754.98 0
-519.881 32.8264 1832.62 0
156.838 100.293 2749.13 0
241.798 90.9058 1245.42 0
367.347 98.4725 1205.16 0
234.492 133.109 1265.37 0
-399.125 196.529 1574.87 0
-305.381 190.192 1451.08 0
-111.7 170.791 1173.6 0
-378.6 199.833 1241.54 0
-384.321 272.633 1213.6 0
-387.104 274.323 1222.34 0
-252.33 315.002 1268.46 0
-386.417 315.003 1225.04 0
-323.227 333.994 1152.52 0
-39.4374 205 648.615 0
-81.6945 211.856 653.337 0
-41.1479 212.422 648.112 0
-36.4141 212.854 646.764 0
-53.3577 214.41 649.692 0
-30.4991 213.331 645.738 0
-24.8548 214.296 645.384 0
2.65219 212.781 640.091 0
-19.1556 214.647 644.782 0
-82.3284 220.249 653.983 0
5.08918 216.668 640.422 0
5.05044 216.626 640.214 0
10.039 217.52 639.573 0
-715.577 -1450.53 4188.67 0
354.747 -1494.26 4309.1 0
916.191 -1674.92 4853.29 0
-569.912 -1441.51 4241.92 0
-149.379 -267.581 902.101 0
344.422 -167.837 1152.42 0
38.0737 -133.583 1043.87 0
-458.259 -429.044 4432.98 0
-359.932 101.213 2080.63 0
203.397 88.915 1308.52 0
379.513 118.944 1224.03 0
186.859 135.022 1262.27 0
-228.454 178.865 1617.96 0
-275.742 181.616 1609.79 0
-250.887 180.476 1612.82 0
-250.091 180.18 1604.1 0
-226.29 193.381 1473.86 0
281.173 187.469 1310.31 0
187.848 262.601 1548.21 0
-379.787 325.61 1211.06 0
-52.851 207.635 650.489 0
-53.007 207.612 650.11 0
-65.8076 214.037 651.789 0
-920.813 -1405.49 4124.23 0
1055.45 -1509.01 4918.05 0
-1.93856 -128.572 1066.26 0
106.951 -76.0017 1084.36 0
119.01 -54.5049 1116.79 0
215.653 86.3297 1314.82 0
233.604 93.9184 1264.65 0
190.334 98.1902 1284.32 0
-416.42 186.773 1562.22 0
-233.486 185.315 1539.45 0
-306.697 187.091 1455.86 0
41.8493 182.931 1297.46 0
263.957 186.151 1297.99 0
-389.256 195.692 1246.46 0
-377.694 236.857 1251.33 0
-428.206 257.292 1351.61 0
-365.232 293.774 1218.72 0
-363.542 292.298 1213.16 0
-376.282 317.957 1221.14 0
-49.7127 198.531 647.064 0
-59.1917 210.095 650.168 0
-59.0889 210.035 650.024 0
169.978 -136.061 1143.8 0
-318.179 171.71 1673.51 0
224.975 150.846 1283.23 0
-347.872 198.34 1416.39 0
-370.242 198.639 1401.74 0
-95.7401 185.881 1172.81 0
-212.451 289.311 1323.88 0
-1009.25 -1248.85 4261.39 0
-480.827 5.52964 1807.78 0
-387.925 172.612 1232.31 0
289.338 255.351 1311.69 0
-843.928 -1381.42 4217.5 0
6.62414 -143.453 1035.44 0
51.829 -135.918 1080.19 0
-118.202 62.9417 1650.69 0
224.18 77.2659 1307.49 0
-79.5415 161.658 1907.89 0
275.522 208.492 1046.93 0
-78.3057 -146.113 1038.72 0
-79.1558 42.9699 1654.33 0
248.628 147.074 1259.88 0
298.104 256.772 1332.68 0
238.228 260.855 1260.01 0
