ply
format ascii 1.0
element vertex 339
property float x
property float y
property float z
property uchar intensity
end_header
-937.444 -1401.17 4130.16 0
-191.405 -1344.24 4414.68 0
244.209 -939.716 3485.74 0
2.98107 -833.976 3298.9 0
-1005.89 -799.275 3194.64 0
-996.467 -766.085 3101.95 0
-906.757 -770.886 3115.31 0
-468.654 -469.267 1944.82 0
-1017.74 -709.306 2915.87 0
-1410.55 -968.828 4044.56 0
-442.084 -419.908 1808.2 0
645.477 -691.001 3087.32 0
241.792 -565.502 2714.39 0
-362.68 -320.224 1546.64 0
-332.088 -328.874 1603.15 0
-296.955 -335.488 2081.19 0
-51.9335 -253.073 1591.23 0
-317.43 -328.144 2072 0
-291.416 -326.129 2079.79 0
-133.217 -246.443 1556.82 0
-331.056 -327.12 2107.98 0
-48.1729 -337.775 2423.65 0
-417.073 -157.212 1352.12 0
261.332 -106.683 1202.58 0
-38.17 -4.41261 612.407 0
-41.7056 -2.90006 609.107 0
-37.2109 -1.2549 609.67 0
8.64651 14.2014 604.727 0
39.6927 22.766 606.89 0
39.6187 22.5953 604.368 0
70.2483 31.5205 599.394 0
77.9088 34.4992 611.066 0
77.9088 34.4992 611.066 0
-1114.6 -1173.31 3474.93 0
-423.479 -933.638 3250.65 0
117.283 -1002.14 3653.79 0
110.298 -973.838 3724.99 0
-68.4912 -860.308 3311.09 0
82.1855 -962.159 3776.52 0
-483.991 -480.517 1981.04 0
649.311 -705.376 3087.37 0
-456.616 -363.578 1643.91 0
-452.526 -362.805 1669.71 0
-399.883 -355.304 1643.35 0
197.724 -306.907 1481.22 0
-316.704 -319.778 1632.81 0
-315.114 -344.561 2008.16 0
620.195 -543.752 3227.36 0
616.166 -528.351 3227.46 0
-327.354 -334.914 2058.4 0
-62.8423 -246.923 1589.61 0
-295.424 -308.659 2095.35 0
173.722 -220.414 1506.38 0
-300.691 -301.137 2076.88 0
276.174 -126.118 1213.07 0
-280.31 -158.624 1549.32 0
-256.471 -156.32 1551.4 0
-214.103 -141.288 1470.16 0
251.319 -69.5029 1216.51 0
-43.2192 -3.08705 612.025 0
-41.9279 -0.707002 609.348 0
-25.4561 3.93634 607.388 0
-8.76479 7.02964 606.879 0
-8.93995 7.03651 606.384 0
3.79917 9.38627 605.526 0
67.746 30.6259 599.819 0
71.9074 32.1322 599.145 0
92.7358 38.1588 595.637 0
-89.8464 51.0185 620.24 0
-300.672 82.2354 963.104 0
-99.5494 85.2981 623.991 0
-98.2978 86.4694 620.532 0
156.888 111.993 589.68 0
-102.579 125.03 626.913 0
148.751 128.266 592.9 0
-94.6148 144.87 627.288 0
181.853 138.18 589.917 0
140.702 164.546 596.839 0
143.228 165.298 596.594 0
125.329 183.24 604.939 0
130.211 190.575 592.637 0
136.05 189.535 580.639 0
204.052 199.63 595.793 0
204.052 199.63 595.793 0
202.179 200.813 596.422 0
-507.009 -1361.15 4276.35 0
-553.514 -1349.62 4234.39 0
174.438 -282.503 1060.62 0
87.3387 -975.823 3741.58 0
163.159 -278.517 1066.99 0
76.863 -932.284 3748.6 0
-456.837 -411.364 1772.23 0
-449.524 -378.486 1655.94 0
-257.969 -849.759 4072.21 0
-290.481 -302.058 1572.68 0
-287.639 -366.122 2176.08 0
-87.7238 -140.447 884.117 0
-304.529 -323.951 2075.65 0
-299.523 -319.006 2081.31 0
-301.197 -321.024 2094.84 0
594.543 -480.275 3152.19 0
161.197 -229.858 1544.89 0
-308.982 -308.922 2081.18 0
-21.3285 -220.267 1565.49 0
154.977 -206.799 1550.61 0
264.298 -155.921 1286.97 0
-280.306 -139.178 1399.98 0
-224.102 -153.806 1562.77 0
-228.288 -141.088 1484.98 0
225.622 -83.4016 1275.52 0
225.622 -83.4016 1275.52 0
282.677 -24.3193 1278.44 0
-40.9818 -4.71519 612.994 0
77.426 13.514 622.924 0
53.9256 26.4564 598.46 0
-290.746 67.1326 981.231 0
-290.859 71.1969 976.934 0
-288.837 74.6418 971.837 0
-82.7852 56.1719 615.633 0
-80.1966 60.3959 619.671 0
146.637 72.4147 591.162 0
190.397 74.1833 581.363 0
-96.5052 83.4833 624.008 0
159.679 83.1449 600.298 0
-90.8721 98.482 625.307 0
-91.076 98.7226 625.975 0
-89.8453 101.537 625.694 0
-97.5839 109.965 627.985 0
138.274 151.317 603.138 0
139.419 166.918 599.254 0
141.443 166.885 595.944 0
177.66 191.366 598.377 0
123.235 194.89 609.998 0
104.466 196.981 604.037 0
-747.091 -1469.21 4125.87 0
-747.091 -1469.21 4125.87 0
-523.661 -1357.93 4280.65 0
-523.236 -1355.46 4274.84 0
261.139 -345.916 1117.48 0
-127.604 -1052.35 3706.56 0
139.392 -288.084 1050 0
-143.674 -906.045 3474.03 0
151.435 -279.01 1067.04 0
142.921 -276.335 1062.39 0
120.211 -943.824 3681.83 0
826.94 -765.466 3224.88 0
201.078 -756.032 3295.6 0
-492.353 -410.989 1927.66 0
623.495 -572.095 3154.62 0
-322.027 -348.436 2081.98 0
-296.01 -344.638 2076.47 0
-335.336 -317.227 2061.71 0
143.937 -231.802 1577.86 0
176.669 -205.565 1461.98 0
60.4619 -358.02 2768.92 0
-485.611 -186.487 1483.44 0
159.904 -291.455 2704.92 0
-251.115 -166.29 1583.7 0
-270.87 -158.925 1552.92 0
-246.313 -155.818 1556.87 0
-245.261 -155.151 1548.2 0
-231.376 -138.442 1442.16 0
-355.951 -127.712 1340.88 0
-319.138 -124.241 1347.33 0
-149.597 -133.986 1488.74 0
240.174 -63.5794 1210.56 0
-75.7623 -18.011 610.309 0
-389.752 0.338417 1164.28 0
-65.8707 1.11005 604.338 0
-64.2479 3.03097 612.952 0
-52.373 12.335 613.055 0
283.193 26.3389 996.969 0
-73.3126 17.3767 607.407 0
300.771 37.0192 993.479 0
-79.8732 43.6447 615.38 0
-300.426 74.5144 962.19 0
-79.2828 51.3979 621.424 0
-86.8048 55.0512 614.934 0
-93.8347 75.4333 622.104 0
-93.8347 75.4333 622.104 0
134.369 77.8788 592.504 0
168.508 78.441 586.596 0
164.591 79.705 585.989 0
170.391 84.6731 588.397 0
-93.8629 110.552 625.558 0
209.105 118.573 583.99 0
167.486 134.69 594.432 0
145.134 145.468 593.805 0
145.134 145.468 593.805 0
194.613 160.305 590.703 0
123.517 169.4 603.286 0
146.066 168.099 595.46 0
142.928 192.609 596.957 0
134.195 192.474 580.741 0
-905.314 -2142.11 6207.63 0
-599.913 -1447.24 4165.84 0
-532.445 -1438.63 4285.62 0
-149.477 -1034.14 3457.42 0
148.424 -273.407 1065.6 0
830.782 -784.54 3191.78 0
-633.421 -421.762 1990.78 0
-495.162 -400.85 1929.21 0
236.223 -519.866 2643.77 0
-350.448 -296.78 2011.08 0
-33.5409 -187.462 1379.37 0
75.0991 -343.42 2745.51 0
90.2605 -325.852 2689.57 0
-312.32 -182.254 1613.72 0
-329.788 -145.648 1371.63 0
-298.476 -144.833 1398.9 0
-276.547 -143.332 1414.68 0
263.397 -119.947 1203.81 0
-380.549 -117.824 1221.97 0
247.945 -81.8135 1227.03 0
240.881 -56.2964 1234.69 0
115.226 -53.3922 1533.14 0
-47.9198 -9.74961 609.691 0
-394.658 -12.5506 1176.99 0
355.803 -1.50633 1164.1 0
355.803 -1.50633 1164.1 0
-12.6756 2.08974 605.773 0
-22.1976 3.38156 608.134 0
1.91541 6.57546 604.512 0
287.178 15.4583 1300.61 0
-6.46656 8.42458 606.257 0
9.06113 8.80714 604.227 0
-14.9274 9.57867 608.158 0
-9.63335 11.2127 607.324 0
-4.60521 12.7206 607.477 0
20.9712 12.4207 601.997 0
22.6409 16.6379 602.766 0
22.6157 16.609 602.554 0
-82.1515 26.7599 618.693 0
-77.7585 51.597 619.991 0
129.709 55.2361 590.501 0
-109.847 58.9876 616.991 0
-110.36 59.3945 620.853 0
-119.135 86.6284 626.78 0
-98.7581 92.2928 621.764 0
-94.8593 93.3824 620.595 0
169.355 92.9579 589.932 0
-95.3052 98.1264 624.538 0
-124.713 105.585 605.928 0
-115.589 123.704 632.611 0
144.653 162.822 596.906 0
115.46 192.672 607.203 0
111.238 206.146 608.657 0
-837.661 -1457.3 4113.31 0
-343.403 -395.088 1185.9 0
-1028.87 -1235.05 4150.35 0
-97.0662 -1147.57 4115.56 0
-408.864 -174.949 1500.19 0
-393.391 -132.903 1218.06 0
-323.113 -145.825 1382.65 0
-26.3829 -28.8267 622.515 0
-32.8731 -3.64845 609.598 0
-17.5925 4.78783 607.026 0
-11.8432 6.42298 606.292 0
304.991 12.2606 996.208 0
7.59104 12.3484 604.51 0
-77.6172 14.4233 615.432 0
-295.722 73.5957 971.896 0
131.481 65.2818 593.578 0
131.429 65.1589 593.07 0
178.304 76.3493 581.889 0
195.819 101.967 585.255 0
-102.001 111.173 627.389 0
188.944 107.711 590.381 0
-108.536 118.837 618.205 0
-87.4091 138.009 629.275 0
-187.788 148.582 647.252 0
150.012 157.666 599.215 0
184.324 167.597 594.781 0
181.898 172.593 596.168 0
195.236 177.492 594.747 0
98.9246 195.474 597.253 0
107.929 199.849 603.789 0
204.891 201.52 596.22 0
107.096 -351.191 1002.84 0
172.743 -272.579 1058.03 0
-309.185 -319.451 1877.02 0
-328.052 -210.255 1882.48 0
-361.699 -140.005 1343.41 0
-340.027 -137.607 1358.89 0
254.314 -120.275 1222.87 0
-387.768 -52.2495 1170.73 0
-28.0266 -11.6731 605.527 0
-385.147 -7.45694 1173.78 0
-39.5487 -2.35957 609.23 0
-46.8159 0.149088 610.912 0
250.114 53.8112 1243.12 0
-316.483 90.095 966.091 0
123.816 60.1882 599.023 0
168.005 63.7436 589.953 0
-88.4086 81.3 623.357 0
-109.267 118.714 629.317 0
149.081 161.915 594.28 0
405.444 -336.321 1135.33 0
200.867 -88.2872 1222.14 0
266.311 -27.5833 1265.35 0
223.836 3.05202 1256.61 0
279.781 19.7817 1017.88 0
32.9522 17.8235 601.294 0
-73.7638 32.0361 618.185 0
136.573 48.8484 591.914 0
-124.632 85.0391 635.042 0
-131.981 146.563 617.289 0
87.2781 180.558 612.416 0
174.091 199.788 600.238 0
-272.24 -1258.88 4068.41 0
-430.995 -513.435 2009.43 0
254.097 -128.505 1225.04 0
-313.036 77.6907 957.641 0
-119.076 95.0658 625.548 0
98.0298 177.973 610.463 0
91.703 195.185 609.415 0
91.7769 194.952 609.086 0
205.261 -240.407 1454.72 0
-41.8578 -10.9105 611.935 0
-74.4851 18.4749 618.352 0
-78.1658 30.8705 620.019 0
-81.9047 43.9658 621.816 0
126.131 50.4016 590.672 0
128.38 72.2162 595.898 0
-91.1463 77.2412 624.705 0
156.104 74.8329 592.712 0
141.597 78.1519 593.494 0
123.154 90.0831 598.522 0
-97.3736 100.493 639.022 0
-97.3736 100.493 639.022 0
-73.9082 129.204 633.98 0
-97.557 139.378 631.854 0
-97.557 139.378 631.854 0
102.923 160.367 607.986 0
111.153 184.154 607.747 0
103.392 196.147 607.197 0
206.282 -93.392 1202.16 0
-101.118 19.4648 618.393 0
131.817 112.954 598.712 0
