ply
format ascii 1.0
element vertex 158
property float x
property float y
property float z
property uchar intensity
end_header
-834.784 -1428.82 4330.21 0
690.999 -712.094 3124.4 0
-912.35 -999.713 3159 0
173.781 -950.77 3452.03 0
160.803 -962.654 3503.72 0
-333.88 -893.994 3258.82 0
1065 -767.318 3482.35 0
-472.232 -518.382 2353.15 0
118.084 -752.877 3573.35 0
-88.4739 -235.207 1361.76 0
1008.34 -569.896 3366.47 0
-556.893 -339.926 2013.45 0
938.679 -457.761 3372.36 0
-1114.95 -1408.7 4041.42 0
753.772 -1081.06 3529.48 0
-348.566 -896.663 3272.95 0
815.448 -820.686 3348.81 0
686.551 -700.364 3109.08 0
-696.411 -748.608 3362.08 0
-675.547 -729.079 3305.23 0
110.742 -769.454 3574.55 0
1042.31 -710.098 3365.83 0
-592.61 -364.681 2035.64 0
-595.706 -344.417 2014.69 0
-568.284 -341.465 2034.69 0
-563.971 -331.264 2048.76 0
972.339 -526.84 3328.62 0
1017.55 -484.931 3427.44 0
-33.7372 -168.732 1211.7 0
946.751 -474.731 3375.6 0
945.838 -460.355 3351.18 0
-183.332 22.142 548.665 0
-198.583 28.7414 646.946 0
-115.339 78.7166 541.226 0
-149.12 166.798 558.749 0
-245.617 -898.439 3427.37 0
895.715 -823.936 3406.43 0
884.014 -728.6 3288.98 0
-321.041 -264.221 1546.11 0
-573.718 -349.397 2040.15 0
-569.295 -323.554 2030.39 0
38.1144 -173.769 1251.23 0
-11.7675 -128.831 1153.28 0
-106.779 48.7587 536.996 0
-85.3997 57.2265 533.911 0
-161.174 174.288 565.412 0
-72.1523 183.612 549.777 0
-817.202 -1384.72 4182.27 0
-794.765 -1355.97 4162.24 0
-123.438 -297.914 992.03 0
561.846 -808.071 3166.54 0
893.08 -841.141 3357.01 0
926.988 -823.509 3328.7 0
959.364 -826.363 3344.21 0
730.545 -786.228 3261.9 0
642.411 -731.324 3114.73 0
643.662 -732.049 3119.31 0
1063.52 -802.589 3386.49 0
949.291 -793.385 3404.88 0
933.141 -754.94 3373.5 0
-276.532 -468.251 2881.37 0
-577.636 -331.28 2034.7 0
-246.652 -352.766 2640.81 0
-9.83523 -142.125 1154.4 0
-350.821 -127.789 1131.22 0
-21.2777 -91.6476 1167.54 0
-14.4704 46.982 545.977 0
-73.0725 89.8192 540.558 0
28.4576 112.71 528.465 0
-151.092 152.99 557.011 0
-128.618 151.505 549.007 0
-96.7552 174.413 551.85 0
-1162.71 -2187.54 6152.43 0
-796.704 -1474.31 4232.7 0
-787.094 -1393.68 4228.24 0
-789.028 -1389.31 4232.78 0
794.254 -950.689 3365.43 0
842.204 -975.848 3504.52 0
811.944 -926.715 3436.44 0
565.237 -826.946 3133.28 0
899.719 -800.557 3368.55 0
-1.4869 -715.581 3289.36 0
-0.242486 -597.612 2742.62 0
1039.82 -596.517 3363.79 0
-31.4377 -78.4613 1185.89 0
11.0232 -47.2451 1229.55 0
-107.202 61.6793 539.338 0
-111.11 62.9892 538.77 0
32.0382 91.3477 525.513 0
-130.076 146.234 550.425 0
22.0431 145.517 533.956 0
-4.86971 162.629 535.516 0
-158.871 176.317 561.153 0
-162.937 189.825 562.735 0
-69.4348 184.292 549.559 0
-583.29 -1286.64 3616.53 0
-1291.92 -1264.5 4102.63 0
912.292 -764.196 3360.23 0
1117.63 -740.603 3473.14 0
1080.71 -638.72 3347.48 0
123.643 -147.442 1112.73 0
-168.792 -75.8217 1600.27 0
442.598 -70.4535 2124.36 0
27.6442 15.9378 944.908 0
-144.315 48.8651 546.506 0
-69.1741 89.9963 539.582 0
-124.755 141.004 552.658 0
-82.7564 140.04 545.955 0
-108.216 146.628 553.358 0
-85.4187 146.688 546.953 0
-90.3729 150.601 548.035 0
-92.7356 155.613 549.476 0
-57.5659 170.956 543.511 0
-57.5659 170.956 543.511 0
-166.005 182.626 556.02 0
-36.0627 -158.012 1222.08 0
91.1487 43.2202 891.733 0
-55.3779 93.3109 538.765 0
-76.2871 101.665 540.232 0
-76.3754 101.807 541.618 0
-85.5069 135.229 545.488 0
-114.034 148.826 550.818 0
-79.3569 160.379 547.989 0
-100.221 182.859 553.797 0
-28.3692 181.891 541.309 0
684.031 -806.933 3244.94 0
809.601 -714.537 3223.95 0
-48.4636 -156.938 1215.63 0
859.078 -317.837 3122.86 0
-187.141 164.467 566.493 0
-36.1047 166.905 542.206 0
129.374 -359.503 1083.31 0
845.471 -788.806 3327.62 0
954.864 -638.892 3353.38 0
901.34 -524.728 3361.68 0
870.009 -383.103 3217.14 0
-5.47442 -50.2409 1216.56 0
-4.20164 63.0537 522.685 0
16.6636 126.2 531.197 0
-171.746 144.143 561.803 0
-176.432 161.782 564.441 0
-42.2025 160.182 542.585 0
-182.513 178.836 563.231 0
-182.582 179.067 563.563 0
740.391 -800.292 3254.22 0
935.661 -577.305 3342.84 0
-25.9617 -164.709 1214.22 0
-149.846 34.0639 543.535 0
-147.324 55.8154 548.899 0
-152.34 73.7176 551.689 0
-170.901 179.921 561.263 0
602.156 -718.533 3141.68 0
-119.598 58.1596 545.521 0
-134.063 61.6271 546.437 0
-143.431 96.4934 551.975 0
29.7491 100.768 528.412 0
-138.754 132.688 550.873 0
-163.264 167.843 561.67 0
