ply
format ascii 1.0
element vertex 230
property float x
property float y
property float z
property uchar intensity
end_header
-398.324 -86.1727 2061.11 0
29.929 192.77 675.687 0
72.3303 196.43 668.283 0
150.264 202.28 652.5 0
347.854 -279.795 2797.4 0
-1040.92 -207.571 3260.03 0
-1009.35 -185.618 3182.45 0
-266.524 -0.293754 1689.95 0
31.5527 12.5563 1671.69 0
-210.393 40.1526 2183.93 0
396.706 26.2617 1374.39 0
11.8423 39.3486 1677.67 0
395.501 39.6037 1385.6 0
-173.894 152.117 1622.82 0
-23.618 214.274 1196.27 0
27.5905 188.757 675.946 0
58.9522 195.058 670.1 0
71.8073 194.773 668.309 0
442.379 -1527.24 4514.81 0
212.358 -330.496 3036.37 0
377.611 -277.966 2876.37 0
205.763 -88.9063 1140.34 0
-342.299 -103.813 2065.02 0
218.037 -53.7932 1299.8 0
-743.885 -31.3893 2656.78 0
29.0945 20.2819 1671.45 0
-178.679 26.5369 2165.08 0
392.34 22.0597 1354.81 0
404.361 39.2227 1288.09 0
-74.1425 138.308 1673.13 0
343.464 107.583 1267.8 0
-145.991 144.317 1645.13 0
-90.256 146.06 1572.12 0
-320.1 161.917 1588.75 0
-143.104 274.488 1327.34 0
-164.613 280.391 1304.54 0
42.2672 195.368 672.318 0
123.518 201.04 657.282 0
-177.622 333.743 1055.24 0
958.188 -1633.1 4625.98 0
1046.53 -1631.23 4711.35 0
324.311 -214.04 1103.16 0
12.2415 -151.101 1074.23 0
194.202 -87.0575 1141.13 0
-76.1131 -275.888 3676.26 0
-251.97 -253.431 3546.83 0
-384.953 -93.9121 2066.19 0
-368.327 -36.5685 1788.06 0
-215.636 -13.543 1762.56 0
-178.381 45.6362 2174.69 0
356.56 47.0595 1267.27 0
-25.5461 138.546 1624.57 0
-119.365 146.518 1640.37 0
-45.5309 145.913 1629.47 0
-410.572 158.872 1585.16 0
-440.426 160.579 1563.51 0
-235.944 159.869 1458.59 0
1.34672 219.097 1255.7 0
5.1965 254.385 1322.71 0
-334.095 280.121 1295.49 0
-360.263 291.602 1235.4 0
-267.273 298.065 1247.35 0
103.227 213.702 825.867 0
-177.26 337.465 1050.66 0
-187.059 341.665 1036.3 0
-900.009 -1342.74 4216.72 0
-40.2112 -177.775 979.602 0
114.046 -178.394 1045.49 0
17.6082 -162.188 1055.05 0
-201.722 -135.472 976.672 0
222.355 -391.407 3465.32 0
-99.912 -414.404 4289.52 0
-177.451 -257.913 3579.12 0
-73.2919 -241.023 3544.68 0
-59.1102 -105.061 1719.17 0
-88.1889 -96.753 1562.25 0
318.176 -81.506 2188.21 0
-247.446 -59.3058 1904.45 0
-317.694 -15.3888 1753.28 0
-399.567 -4.80341 1867.43 0
-175.741 2.38748 1746.74 0
-201.061 28.4155 1807.38 0
320.125 37.6044 1318.84 0
405.836 73.115 1290.15 0
-84.5322 145.377 1616.03 0
-293.59 151.705 1620.02 0
-290.651 153.77 1604.33 0
-108.686 148.151 1594.42 0
-41.1914 145.835 1556.97 0
-40.9983 145.101 1549.84 0
337.143 123.733 1285.49 0
-63.6214 146.766 1535.01 0
-380.58 156.5 1586.19 0
-456.439 154.107 1544.73 0
-87.4153 149.751 1525.53 0
-87.945 149.727 1531.84 0
-450.928 164.133 1570.32 0
-218.899 157.05 1534.89 0
-212.232 158.633 1476.94 0
-429.55 170.28 1541.17 0
-279.045 150.272 1289.24 0
-252.796 179.13 1432.08 0
-412.192 177.138 1390.86 0
132.804 164.778 1312.59 0
35.1667 173.015 1124.51 0
-170.585 274.653 1369.25 0
-66.4805 290.566 1350.89 0
-338.993 294.949 1153.41 0
-219.139 308.626 1188.37 0
-362.673 310.396 1174.13 0
-16.103 189.591 684.17 0
-1.94626 218.012 674.138 0
202.767 213.666 642.353 0
478.003 -1510.87 4470.93 0
190.096 -330.212 1031.7 0
41.777 -193.692 1009.25 0
114.434 -166.803 1045.62 0
-70.4034 -156.502 1021.18 0
-265.548 -526.041 4453.81 0
-96.6031 -371.753 4200.34 0
346.071 -238.575 2723.92 0
186.05 -83.0499 1136.79 0
147.711 -77.9392 2080.31 0
320.14 3.87369 2771.7 0
35.7785 19.1501 1675.67 0
-176.567 30.5102 2153.73 0
344.576 55.0381 1258.33 0
-14.1213 146.166 1607.28 0
-76.1544 148.411 1551.82 0
-100.323 151.965 1541.72 0
-284.209 162.833 1609.74 0
363.589 147.377 1289.07 0
-433.099 194.927 1359.77 0
-390.523 196.86 1333.68 0
-272.072 210.117 1286.66 0
-381.201 245.083 1314.37 0
-281.776 248.363 1258.81 0
-280.367 288.957 1262.39 0
-324.925 296.595 1223.81 0
-326.98 313.083 1270.26 0
55.9863 195.029 670.228 0
61.6315 195.917 669.72 0
67.3144 196.195 668.95 0
4.54917 202.538 680.226 0
91.443 197.95 663.886 0
91.3972 197.913 663.679 0
96.3772 198.745 662.903 0
124.261 175.367 570.612 0
-7.94838 229.666 685.171 0
-217.824 346.746 1008.42 0
206.672 223.336 644.535 0
206.561 223.193 644.042 0
-533.575 -11.8109 2118.03 0
-497.834 33.2746 2102.34 0
332.12 19.1708 1327.71 0
322.905 30.161 1309.34 0
308.1 52.2031 1322.54 0
-168.299 135.102 1698.18 0
-135.148 143.701 1642.72 0
-134.625 143.59 1633.97 0
-160.063 145.283 1640.48 0
-28.369 144.505 1565.82 0
41.0755 152.315 1531.52 0
-114.622 159.364 1503.37 0
-435.651 169.497 1524.86 0
147.788 148.863 1318.56 0
369.831 148.73 1312.28 0
387.434 149.512 1324.09 0
-509.161 179.044 1517.26 0
6.50605 156.689 1198.33 0
-398.146 181.633 1345.16 0
302.637 220.656 1566.36 0
-396.095 204.333 1331.04 0
-13.4992 206.987 1226.6 0
-18.3247 216.184 1232.84 0
-356.298 289.949 1150.92 0
15.3733 167.474 658.701 0
-341.968 310.414 1166.47 0
-91.7165 311.742 1107.81 0
33.7037 189.564 675.543 0
20.8953 196.129 677.384 0
101.385 201.054 662.763 0
-6.14138 216.492 682.608 0
92.0425 -156.656 1082.01 0
217.537 -297.478 2920.77 0
-1038.77 -245.892 3432.13 0
-1051.19 -204.662 3245.37 0
370.946 31.3955 1340.67 0
320.501 49.2925 1328.39 0
290.88 99.5843 1277.84 0
-302.034 153.625 1597.42 0
-195.631 154.691 1487.74 0
-306.663 182.501 1386.21 0
-290.715 210.583 1282.22 0
-18.7763 220.84 1201.5 0
-259.722 267.56 1254.94 0
-258.228 266.185 1249.3 0
-270.312 291.846 1258.23 0
-350.165 302.522 1165.5 0
36.592 180.493 671.822 0
27.3956 192.126 675.472 0
101.652 196.969 661.718 0
-834.362 -1333.39 4281.33 0
128.468 -163.351 1062.33 0
-499.788 70.4059 2090.34 0
-200.678 134.583 1705.25 0
329.864 114.356 1297.97 0
-283.89 146.477 1266.56 0
-237.815 167.445 1449.83 0
-260.616 168.41 1435.89 0
-78.4449 308.713 1107.54 0
-84.3632 342.355 1114.67 0
-199.113 346.983 1032.27 0
-207.44 345.642 1014.22 0
155.781 -119.6 2170.51 0
-361.727 -32.1175 1840.8 0
335.377 49.8715 1280.68 0
-2.0783 220.019 685.015 0
198.343 209.659 643.109 0
-3.20713 233.122 686.479 0
99.4215 -170.966 1050.62 0
147.406 -162.112 1121.68 0
-1035.5 -259.114 3383.75 0
-3.22954 23.3622 1673.85 0
328.656 40.2692 1320.6 0
-2.10394 179.714 1269.46 0
-17.3171 236.404 1170.02 0
-163.042 -177.992 932.677 0
35.5913 2.72869 1675.83 0
344.128 224.65 1276.78 0
