ply
format ascii 1.0
element vertex 208
property float x
property float y
property float z
property uchar intensity
end_header
493.766 -1462.19 4417.97 0
-1113.6 -122.818 3243.98 0
-329.836 54.5544 1681.42 0
-18.2324 75.1811 1668.74 0
-4.01911 77.1918 1672.22 0
352.814 90.0345 1388.67 0
-198.031 198.707 1626.74 0
222.176 288.159 1586.71 0
-78.3357 265.822 1163.28 0
-185.859 320.781 1316.23 0
27.5555 227.803 664.375 0
40.44 227.544 662.805 0
83.4678 227.504 659.233 0
40.9555 229.202 662.75 0
166.669 -76.2605 1077.11 0
-859.152 -140.545 3268.99 0
270.234 -18.7836 1899.46 0
-366.168 39.5483 1745.57 0
-291.312 54.9953 1684.12 0
350.253 71.7941 1358.23 0
-35.6775 94.2921 1674.25 0
363.307 87.5313 1291.35 0
-122.047 192.681 1666.07 0
-89.9736 188.478 1613.94 0
-136.504 198.101 1564.66 0
-221.008 204.852 1613.81 0
12.1456 198.763 1556.44 0
-366.667 213.137 1577.1 0
-310.43 209.396 1550.49 0
-173.698 315.028 1334.87 0
-161.91 320.295 1352.79 0
-169.503 316.435 1286.17 0
-207.011 326.064 1292.95 0
-308.783 341.933 1233.67 0
10.8344 228.076 666.307 0
401.234 -1476.5 4329.24 0
-923.469 -1402.58 4087.66 0
869.156 -1507.28 4674.48 0
354.78 -1406.58 4552.41 0
280.477 -170.565 1105.85 0
385.402 -175.988 1151.58 0
-24.2584 -109.522 1075.29 0
-155.584 -176.881 3677.63 0
148.15 -39.2006 1139.21 0
-395.567 -42.0488 2058.75 0
-435.917 -39.9986 2068.49 0
-459.805 -34.9836 2086.45 0
-438.281 -32.3447 2058.99 0
-382.71 -0.637769 1876.25 0
197.907 32.2571 1484.25 0
-264.29 42.127 1756.5 0
315.825 94.6564 1269.57 0
-113.821 194.831 1658.84 0
-72.6461 192.09 1618.33 0
-166.753 199.926 1632.38 0
-92.7452 199.461 1622.73 0
-240.604 201.515 1620.6 0
-502.211 203.647 1531 0
-271.617 201.185 1522 0
-497.178 214.268 1556.45 0
-37.4073 301.346 1314.51 0
-182.604 314.022 1342.55 0
-401.527 334.725 1220.32 0
-251.295 356.783 1230.52 0
1143.54 -1506.13 4190.89 0
-652.702 -1440.49 4209.6 0
78.9827 -1479.32 4504.11 0
956.042 -1503.06 4761.24 0
893.347 -1465.96 4703.59 0
1076.61 -1523.2 4918.47 0
294.72 -171.075 1113.51 0
103.604 -145.591 1056.08 0
78.1425 -136.922 1048.87 0
-18.518 -121.006 1056.46 0
-105.976 -116.528 1021.01 0
-236.631 -97.172 973.867 0
680.706 -240.824 3230.04 0
-188.988 -301.848 4293.35 0
669.667 -145.685 3219.96 0
-150.727 -144.936 3545.37 0
-298.252 -0.633433 1898.82 0
-417.274 18.886 1779.96 0
-449.991 52.2461 1858.07 0
240.179 112.418 2765.01 0
278.577 86.1621 1320.72 0
302.432 155.108 1268.53 0
-131.513 198.425 1608.66 0
-87.1917 197.793 1550.33 0
-86.8758 196.902 1543.23 0
-427.069 207.353 1573.66 0
-109.255 198.12 1527.99 0
-457.05 209.546 1572.07 0
-132.901 200.77 1518.05 0
-133.536 200.884 1524.35 0
295.738 171.615 1285.75 0
-264.557 207.597 1525.06 0
-253.429 204.775 1449.11 0
-475.344 219.875 1527.53 0
-280.335 208.631 1448.44 0
-259.728 223.993 1425.89 0
-455.503 223.479 1377.42 0
-19.7111 268.006 1500 0
-3.73182 215.745 1118.7 0
-39.965 264.558 1248.26 0
339.547 223.562 1039.76 0
-376.314 324.719 1281.09 0
-109.719 337.774 1340.68 0
-378.903 336.358 1138.65 0
-16.1442 201.618 678.309 0
-403.001 352.139 1158.62 0
-47.6978 222.261 677.312 0
38.0018 225.077 662.138 0
-47.4224 -1450.87 4446.1 0
155.14 -288.614 1039.73 0
78.4734 -125.329 1048.75 0
124.685 -215.143 3222.39 0
-184.39 -261.174 4203.31 0
-347.01 -49.7045 1307.99 0
154.281 -37.1336 1141.91 0
254.419 84.7425 2773.77 0
-224.212 57.9076 1741 0
-250.669 85.1464 1800.61 0
-285.869 118.901 2103.82 0
303.954 102.372 1260.26 0
297.374 144.647 1280.31 0
-60.97 199.383 1601.07 0
-155.314 200.593 1586.59 0
-122.076 200.074 1544.55 0
-146.088 203.277 1533.97 0
-331.138 214.706 1598.66 0
-239.21 207.399 1473.57 0
-320.546 195.049 1278.65 0
322.007 195.468 1289.24 0
-314.73 234.191 1390.24 0
-315.252 217.845 1265.07 0
-432.975 242.037 1320.18 0
-328.714 233.258 1260.48 0
358.611 230.274 1034.59 0
-323.237 292.423 1246 0
-322.083 333.094 1248.69 0
-366.025 339.642 1209.22 0
-382.17 352.094 1151.31 0
443.081 -1484.38 4322.04 0
1010.16 -1671.05 4858.31 0
-199.453 -1432.02 4445.08 0
1001.87 -1531.18 4901.71 0
177.847 -41.7134 1133.36 0
-588.143 50.1202 2106.5 0
266.422 100.777 1323.9 0
253.12 110.194 1299.88 0
-187.748 190.104 1662.41 0
178.084 204.765 1795.96 0
-182.56 197.081 1634.53 0
-181.89 196.778 1625.8 0
-160.076 195.233 1639.35 0
-74.5132 196.727 1559.43 0
-4.54199 204.13 1526.12 0
-159.778 209.748 1495.23 0
-481.167 218.698 1511.14 0
345.252 198.505 1324.6 0
-349.938 229.282 1374.41 0
-440.716 227.029 1331.87 0
256.069 274.579 1563.77 0
-438.538 249.421 1317.28 0
358.189 205.498 1039.51 0
-332.386 255.127 1270.09 0
-54.2632 251.727 1219.19 0
-368.936 357.148 1255.25 0
-130.981 353.41 1096.81 0
5.2397 213.164 666.049 0
2.24601 222.3 669.518 0
-319.843 -1444.85 4339.13 0
-833.936 -1382.11 4155.06 0
402.527 -157.425 1165.83 0
398.142 -142.611 1207.37 0
55.4268 -114.491 1084.53 0
278.737 98.0616 1330.02 0
249.726 147.063 1277.87 0
-207.442 198.485 1631.85 0
-348.71 205.134 1586.25 0
-171.074 201.232 1518.19 0
-240.491 204.311 1478.37 0
327.853 197.37 1312.52 0
-313.818 254.856 1274.85 0
-59.1854 264.991 1193.7 0
-301.214 311.643 1242.07 0
-299.618 310.15 1236.48 0
-311.973 335.941 1244.64 0
-57.8205 221.548 766.306 0
-390.312 344.14 1150.38 0
-117.692 350.444 1096.82 0
-4.07224 224.827 669.285 0
92.209 -121.434 1065.6 0
-249.084 189.017 1696.15 0
288.296 162.48 1298.31 0
-282.094 216 1439.48 0
-304.663 216.537 1425.14 0
2.9848 -136.945 1019.67 0
-411.58 24.5424 1832.69 0
-324.993 190.725 1255.98 0
354.152 266.295 1325.85 0
-21.4998 -131.221 1058.06 0
63.3991 -129.457 1053.59 0
109.304 -122.407 1097.71 0
-50.6065 78.1471 1670.54 0
287.065 88.9094 1322.57 0
-197.015 -140.459 931.481 0
363.226 267.621 1346.72 0
