ply
format ascii 1.0
element vertex 212
property float x
property float y
property float z
property uchar intensity
end_header
864.924 -1200.14 3488.63 0
286.018 -1056.1 3429.62 0
-153.332 -959.787 3237.46 0
1071 -945.384 3303.98 0
927.407 -936.85 3312.52 0
1025.7 -916.232 3290.09 0
230.05 -876.505 3557.98 0
1156.94 -831.406 3326.12 0
237.71 -860.059 3556.97 0
273.32 -753.3 3470.96 0
-108.433 -290.297 1393.65 0
-474.704 -326.032 1554.51 0
-507.478 -399.777 2027.72 0
-474.596 -388.1 2061.24 0
-137.875 -259.912 1385.61 0
1144.13 -626.701 3392.08 0
37.0542 -216.56 1214.46 0
1138.57 -607.314 3393.6 0
-161.887 -433.494 2577.92 0
58.3424 -175.735 1156.43 0
-496.468 -218.055 1507.72 0
-472.848 -221.62 1519.79 0
-431.893 -197.159 1397.61 0
-174.79 -102.123 976.495 0
-174.662 -101.978 976.086 0
-150.685 -13.7081 565.074 0
-132.987 -13.4037 593.573 0
-138.487 -11.4525 560.938 0
-148.17 -12.8789 564.591 0
-101.964 0.813378 607.879 0
-59.3612 65.1251 554.348 0
-66.8599 81.535 558.334 0
-64.1257 87.1744 557.655 0
-33.5743 90.5036 554.52 0
81.8575 89.6965 539.092 0
82.3527 99.4899 542.187 0
71.7872 104.744 544.13 0
70.4119 105.679 544.208 0
-73.6033 117.907 563.64 0
-71.0646 118.587 563.331 0
-88.0902 136.808 572.822 0
-89.3092 141.694 573.835 0
-9.22899 151.02 561.483 0
-9.22899 151.02 561.483 0
-11.0412 152.24 562.212 0
-239.536 -986.956 3265.74 0
1038.3 -941.492 3289.42 0
750.289 -838.362 3085.26 0
1047.07 -874.157 3335.62 0
996.338 -844.794 3253.08 0
-486.84 -365.328 1539.15 0
249.376 -794.9 3449.83 0
239.89 -799.926 3521.73 0
-484.837 -402.479 2041.42 0
-510.415 -388.38 1995.56 0
-479.489 -397.871 2047.05 0
-488.619 -387.498 2047.55 0
1066.69 -594.418 3343.91 0
82.5173 -197.33 1168.85 0
130.69 -192.632 1184.9 0
1065.11 -506.59 3277.77 0
25.8463 -153.645 1231.22 0
25.8463 -153.645 1231.22 0
49.9984 -138.715 1171.81 0
-164.669 -17.4015 564.065 0
95.3973 -26.865 950.535 0
-146.502 -12.3116 564.304 0
106.145 -19.9987 903.123 0
-88.3076 9.24298 554.386 0
-88.5221 9.20234 555.009 0
-79.9394 22.8533 556.544 0
3.89955 44.7879 546.392 0
62.1607 46.649 535.496 0
57.3842 49.1979 533.746 0
-31.0142 42.4634 405.73 0
1.09683 66.0267 550.018 0
-65.0474 81.3723 559.143 0
87.4515 79.8069 536.593 0
87.3248 79.7824 536.271 0
77.2178 97.1286 543.432 0
80.1434 108.98 544.816 0
-72.8183 120.249 562.791 0
-99.8052 144.384 579.975 0
-35.772 143.504 564.72 0
-10.074 142.132 557.732 0
-461.543 -1458.13 4224.69 0
954.895 -1096.21 3463.8 0
747.31 -945.491 3170.91 0
1009.06 -943.134 3367.91 0
841.028 -898.578 3228.73 0
1156.92 -905.062 3225.37 0
1063.21 -913.667 3365.65 0
-458.268 -376.361 1613.64 0
1156.8 -717.781 3326.8 0
-476.965 -423.436 2041.32 0
-102.788 -308.249 1720.46 0
14.5929 -171.745 1152.67 0
-426.886 -199.631 1411.68 0
40.6009 -125.764 1190.73 0
-154.664 -118.154 1258.03 0
-54.8678 -107.855 1513.89 0
99.517 -45.9839 1214.63 0
-70.8241 25.858 554.985 0
-82.858 31.6561 556.911 0
-5.21765 45.8239 543.21 0
-5.21765 45.8239 543.21 0
49.3063 47.0651 533.551 0
53.1178 48.6439 536.995 0
61.1791 49.162 538.511 0
8.87835 49.7934 545.827 0
29.9498 55.348 537.594 0
90.4994 58.4524 533.048 0
-18.3356 75.2861 554.151 0
-67.2939 84.1166 560.333 0
-13.7526 83.5622 548.827 0
75.9264 91.1538 540.665 0
-108.52 151.212 573.05 0
903.894 -1066.75 3326.66 0
923.928 -1044.85 3397.71 0
275.057 -1029.35 3478.93 0
1012.57 -918.942 3330.5 0
-508.564 -412.182 2024.64 0
-65.5315 -280.58 1593.35 0
66.9197 -189.702 1151.12 0
-2.66913 -147.467 1187.03 0
41.0718 -146.756 1199.33 0
84.8353 -96.4848 1233.97 0
117.702 -43.6247 991.92 0
60.0135 24.1262 520.135 0
49.4829 28.5693 533.336 0
43.7491 40.2966 538.915 0
-52.9669 48.7056 554.548 0
97.0546 49.7176 531.301 0
-14.1938 58.7336 550.831 0
75.4689 67.8906 533.914 0
-28.0952 74.7816 551.4 0
-28.0952 74.7816 551.4 0
-20.0907 112.185 555.536 0
-69.7095 116.06 563.519 0
81.8806 112.599 543.017 0
55.3871 130.22 545.688 0
-97.5705 146.466 575.706 0
-101.307 160.013 577.71 0
1010.7 -554.507 3342.09 0
51.5707 -189.729 1176.53 0
-191.331 -24.6937 568.469 0
-93.7512 14.1072 563.251 0
-86.1126 19.1276 557.702 0
-5.97354 77.9039 550.965 0
-10.0542 94.8711 554.391 0
-64.445 110.67 565.487 0
-22.6647 109 557.654 0
74.3654 109.413 543.621 0
-47.7774 115.933 565.881 0
-29.9985 119.663 560.181 0
-32.2159 124.687 561.801 0
3.10523 139.439 555.268 0
3.10523 139.439 555.268 0
-104.7 153.042 570.912 0
-104.976 153.977 572.77 0
-8.31653 152.868 561.938 0
32.4607 149.819 552.55 0
-1168.63 -1355 4111.27 0
35.2275 -206.046 1225.15 0
-503.441 -246.245 1584.51 0
-185.803 -25.4625 567.353 0
-186.77 -21.6084 568.788 0
180.354 -19.0029 954.489 0
158.065 0.365857 896.35 0
-81.6086 2.60392 555.37 0
3.51842 61.9013 548.651 0
-2.83141 68.0835 548.706 0
-17.1633 70.648 550.867 0
-17.2126 70.7581 552.257 0
-25.528 104.26 557.148 0
-25.1584 115.676 558.877 0
-53.6118 118.311 563.547 0
-18.782 129.21 560.073 0
1207.91 -1026.51 3467.64 0
920.577 -827.646 3190.38 0
22.6889 -204.562 1219.06 0
8.25441 -194.426 1196.01 0
975.833 -429.746 3097.32 0
24.4343 134.979 553.301 0
-39.0054 151.97 566.955 0
957.541 -905.099 3291.3 0
1070.73 -758.133 3317.65 0
1019.88 -643.12 3330.03 0
987.819 -497.461 3189.72 0
53.6051 30.988 530.519 0
76.0218 93.4686 539.95 0
-111.106 114.558 575.943 0
-125.937 135.077 581.514 0
-115.345 132.222 579.116 0
18.2069 128.376 553.683 0
-121.092 149.421 578.467 0
-121.147 149.646 578.806 0
850.37 -912.655 3220.46 0
1128.88 -790.198 3293.32 0
1052.57 -695.928 3309.06 0
1057.65 -698.729 3325.8 0
44.9763 -212.76 1216.87 0
-92.0315 4.519 554.534 0
-88.9096 26.0793 560.336 0
-109.514 150.313 576.218 0
-75.5964 31.6734 557.661 0
-6.61229 64.4228 553.868 0
-84.0739 66.583 564.258 0
88.4871 67.8456 536.226 0
68.9881 84.2787 540.8 0
-78.6594 102.69 563.88 0
-102.128 138.074 576.14 0
