ply
format ascii 1.0
element vertex 335
property float x
property float y
property float z
property uchar intensity
end_header
619.515 -661.222 3589.57 0
-179.208 -282.398 2302.57 0
-9.70251 -146.852 1819.08 0
205.084 -101.84 1682.58 0
212.297 -101.773 1683.31 0
125.252 113.347 700.319 0
121.524 115.213 697.439 0
126.226 116.266 697.334 0
607.952 -750.32 3636.91 0
270.21 -734.027 3631.87 0
552.096 -732.563 3820.99 0
459.193 -658.205 3573.97 0
600.207 -649.145 3685.22 0
349.666 -171.16 1137.36 0
-743.956 -452.358 3325.12 0
-719.028 -425.419 3246.7 0
-538.315 -430.664 3306.75 0
-191.051 -243.243 2094.01 0
-519.216 -324.417 2989.3 0
-57.1087 -203.463 1983.4 0
-89.7466 -134.704 1719.22 0
35.4527 -120.317 2181.44 0
202.14 -94.2864 1682.83 0
-346.163 -95.0355 1806.06 0
369.173 -2.45171 1918.92 0
6.00938 155.215 1378.77 0
70.5891 143.733 906.978 0
120.407 115.316 700.534 0
172.583 125.373 685.748 0
-74.3646 244.419 1077.65 0
81.0512 180.653 713.814 0
232.73 -258.445 1061.56 0
324.031 -705.389 3505.93 0
547.697 -771.604 3829.14 0
573.212 -637.012 3738.83 0
539.14 -561.619 3441.48 0
-735.584 -470.189 3383.77 0
-578.023 -468.702 3421.14 0
-502.628 -470.157 3448.02 0
-58.4504 -263.788 1985.4 0
-26.5702 -468.01 3568.94 0
187.969 -478.149 3646.59 0
125.949 -468.766 3616.19 0
24.0924 -457.406 3556.77 0
435.947 -191.4 1544.46 0
199.706 -230.707 2132.09 0
1140.92 -352.991 3277.24 0
-64.5025 -196.666 1918.89 0
-67.1273 -131.911 1718.83 0
-578.04 -152.66 1948.1 0
410.746 -121.738 1629.61 0
-196.96 -124.848 1720.9 0
0.264312 -139.695 2209.14 0
21.2169 -126.655 2210.47 0
34.0187 -109.522 2216.85 0
65.8003 16.6022 1690.17 0
131.657 21.3117 1939.27 0
85.915 19.7085 1705.65 0
44.3774 23.1555 1666.7 0
216.031 37.4101 1576.67 0
-389.5 56.0058 1403.32 0
-390.259 68.4797 1404.64 0
-341.892 85.6195 1409.97 0
108.141 101.385 1241.34 0
18.9533 160.107 1395.99 0
6.00303 159.785 1330.09 0
121.616 117.423 697.602 0
90.4254 118.565 699.811 0
92.8085 139.428 698.901 0
-62.5189 235.595 1085.12 0
82.5636 175.329 712.165 0
89.5349 179.364 706.441 0
93.1599 183.328 709.903 0
-136.727 274.488 940.503 0
80.6497 208.488 715.224 0
88.2644 222.643 715.067 0
88.1848 222.928 715.744 0
83.4881 234.988 718.048 0
257.408 -254.372 1043.88 0
599.327 -730.016 3661.32 0
64.1353 -711.464 3594.16 0
549.084 -756.335 3863.77 0
543.877 -726.871 3835.39 0
322.804 -178.01 1124.08 0
335.597 -172.059 1120.6 0
338.091 -170.098 1138.96 0
320.793 -154.465 1107.17 0
-454.54 -470.576 3480.53 0
-64.0267 -466.468 3547.03 0
248.7 -473.958 3675.75 0
140.223 -458.855 3586.12 0
39.5947 -442.73 3496.83 0
151.436 -442.981 3532.38 0
240.617 -433.922 3545.87 0
133.45 -263.523 2179.92 0
-195.871 -255.869 2126.77 0
1166.87 -371.834 3466.61 0
1166.35 -373.598 3470.56 0
-135.567 -155.526 1784.98 0
-169.666 -152.697 1803.78 0
-30.8421 -119.349 1698.25 0
-550.553 -117.671 1935.22 0
26.7839 -119.653 2203.97 0
26.7076 -121.026 2217.68 0
97.3107 -91.0678 1693.47 0
18.7495 -108.417 2204.59 0
27.305 -101.928 2198.89 0
-505.596 -34.9859 1845.05 0
-291.553 21.9108 1618.73 0
-281.324 19.3117 1611.12 0
137.256 21.9066 1644.63 0
60.6487 24.6388 1549.58 0
147.013 30.915 1626.99 0
116.506 30.3289 1571.39 0
-415.489 33.5729 1541.39 0
43.9565 33.5735 1540.82 0
-0.449798 34.2121 1546.59 0
-377.346 35.4048 1481.24 0
-108.678 38.4288 1493 0
-66.8523 53.8388 1470.36 0
98.1386 121.267 1501.56 0
-196.172 121.465 1328.65 0
-395.452 136.504 1355.66 0
-200.641 155.777 1342.24 0
-186.459 154.429 1329.57 0
-202.467 163.084 1307.5 0
-231.399 167.85 1284.48 0
-215.86 175.738 1201.52 0
98.5274 120.194 701.198 0
176.872 128.911 687.114 0
181.466 129.601 686.03 0
-64.2554 232.602 1090.59 0
102.592 196.124 710.052 0
89.7135 225.546 715.173 0
74.5759 237.333 721.736 0
74.5478 240.035 720.735 0
343.845 -285.009 1046.43 0
70.9521 -251.878 1033.25 0
257.286 -251.1 1045.4 0
155.999 -242.852 1079.34 0
322.034 -820.085 3826 0
-879.746 -676.126 3229.15 0
279.86 -731.937 3673.31 0
576.836 -746.778 3766.64 0
314.384 -642.117 3413.73 0
267.648 -654.737 3781.38 0
345.918 -184.627 1097.9 0
-1218.16 -644.417 4284.78 0
-1170.87 -641.033 4279.09 0
269.003 -591.143 4195.48 0
-1198.63 -539.078 4297.04 0
275.091 -132.739 1627.56 0
405.726 -128.482 1625.03 0
-179.884 -135.458 1719.03 0
4.25754 -128.335 1770.18 0
454.802 -106.262 1757.78 0
-219.969 18.2515 1629.75 0
-130.798 17.8073 1657.73 0
-129.039 20.664 1641.99 0
-359.252 22.506 1524.09 0
77.5233 25.22 1640.17 0
51.8639 27.2543 1620.27 0
-206.701 29.0339 1553.84 0
-258.727 28.4436 1501.62 0
-100.13 36.973 1466.48 0
-169.194 39.915 1472.89 0
-265.682 44.3316 1437.89 0
-104.339 55.0686 1468.92 0
-92.8236 54.5048 1453.29 0
-379.096 56.2378 1386.64 0
-329.517 133.448 1193.57 0
-192.19 155.759 1316.59 0
-136.386 183.634 1245.73 0
-95.0363 195.802 1229.33 0
150.234 116.222 690.128 0
164.972 118.701 686.771 0
157.205 121.692 689.501 0
100.644 124.183 703.894 0
184.1 121.899 681.527 0
149.294 124.011 692.428 0
154.591 124.905 690.837 0
159.745 125.74 690.264 0
110.252 134.705 701.423 0
-311.142 217.657 1102.17 0
-311.142 217.657 1102.17 0
61.7844 234.472 1173.19 0
40.9261 241.991 1147.5 0
90.7721 166.56 706.405 0
81.9952 200.102 713.373 0
81.9952 200.102 713.373 0
79.2512 217.446 712.877 0
83.063 217.975 711.161 0
18.9272 -280.91 946.062 0
18.8512 -280.736 945.798 0
25.5637 -281.146 947.635 0
0.752203 -240.657 1027.94 0
274.574 -245.471 1057.18 0
316.671 -755.353 3637.69 0
-708.789 -355.652 2230.68 0
-1194 -627.657 4276.33 0
335.648 -164.192 1137.66 0
601.631 -370.365 2689.76 0
-767.688 -437.405 3258.54 0
-419.938 -167.232 2090.55 0
-420.252 -167.445 2092.4 0
-537.361 -132.353 1936.36 0
-525.805 -50.0621 1876.31 0
53.9869 9.68322 1704.63 0
-425.319 24.5037 1573.03 0
-27.9664 24.7295 1376.25 0
-146.475 31.7206 1516.83 0
56.4624 33.6369 1567.37 0
-325.697 44.9191 1426.9 0
-329.839 63.322 1377.38 0
-249.122 67.6145 1380.34 0
-265.91 68.5581 1388.69 0
-255.311 74.8067 1378.39 0
-139.399 97.2908 1369.6 0
138.712 106.036 1262.07 0
110.83 120.764 1225.9 0
-352.595 147.693 1175.47 0
-149.881 169.354 1306.18 0
120.137 92.8155 705.785 0
68.8867 181.418 1380.87 0
-145.14 181.094 1292.34 0
-197.279 190.082 1318.04 0
-239.031 188.803 1224.35 0
143.445 111.488 693.506 0
130.175 113.32 696.813 0
129.983 113.311 696.449 0
101.589 115.887 702.657 0
141.36 118.831 693.643 0
145.914 119.582 691.88 0
151.672 120.421 690.329 0
162.796 122.369 688.383 0
171.282 123.67 685.758 0
181.456 125.496 683.272 0
186.38 125.88 681.872 0
186.323 125.848 681.667 0
55.4369 198.449 1091.55 0
-80.4094 228.44 1087.64 0
86.8373 150.231 710.783 0
96.7077 160.998 707.541 0
94.482 174.298 710.32 0
-129.827 269.564 941.965 0
-166.565 265.768 903.247 0
79.2204 236.75 717.975 0
-167.727 267.314 788.802 0
627.161 -582.274 3362.26 0
-1192.42 -655.366 4277.33 0
-1192 -655.175 4276.09 0
-728.017 -497.085 3494.94 0
207.721 -275.93 2306.78 0
370.09 -244.844 2166.36 0
-159.296 -151.119 1780.96 0
-552.529 -94.7665 1913.05 0
467.793 -33.1812 1323.47 0
0.189044 6.36155 1726.97 0
3.93151 19.279 1669.35 0
28.9907 19.232 1669.93 0
81.4212 31.2715 1575.74 0
131.65 30.5106 1594.48 0
-42.1995 32.2577 1519.73 0
-89.632 31.8852 1306.76 0
196.576 43.5573 1548.2 0
-303.76 43.8035 1440.61 0
117.411 68.5723 1190.94 0
-342.624 95.6137 1412.72 0
113.648 114.938 1256.92 0
-148.994 128.923 1300.97 0
-194.224 136.426 1330.69 0
135.1 87.9046 709.955 0
-350.872 165.22 1203.4 0
133.369 104.606 692.531 0
117.133 118.964 699.746 0
26.3238 210.294 1141.03 0
-69.4102 235.47 1086.12 0
-212.35 261.395 832.563 0
-755.329 -449.557 3311.28 0
353.481 -200.338 2078.72 0
-582.492 -128.83 1947.94 0
-140.825 20.0482 1635.82 0
-111.206 43.7248 1472.76 0
-87.5157 43.7035 1485.16 0
-332.234 107.446 1390.93 0
-140.322 173.048 1301.53 0
-302.658 167.302 1221.1 0
-226.656 182.096 1214.61 0
123.729 115.468 697.254 0
196.465 125.648 679.018 0
29.1237 230.695 1176.27 0
95.6809 154.335 708.94 0
-88.5006 254.385 1082.29 0
62.8673 179.715 727.01 0
-245.045 251.865 872.403 0
-179.652 253.619 870.671 0
83.5566 215.048 719.467 0
-126.557 289.309 953.255 0
272.154 -247.392 1061.31 0
492.397 -447.216 2902.86 0
-599.925 -151.722 1967.06 0
64.5731 -116.458 2178.45 0
-526.827 -63.2564 1936.16 0
-31.5553 3.46879 1736.06 0
17.4144 3.18071 1712.14 0
-452.684 17.6153 1657.76 0
-261.474 116.377 1387.26 0
33.9281 146.781 1386.17 0
-348.586 187.78 1209.84 0
57.8972 199.86 1160.91 0
39.7107 208.146 1139.78 0
32.1953 241.032 1148.7 0
-97.2342 240.206 1056.53 0
-146.847 272.585 939.55 0
180.379 -265.52 1021.81 0
294.871 -247.223 1119.34 0
579.698 -791.956 3890.42 0
-618.12 -188.158 2069.68 0
-579.17 -151.477 1994.72 0
109.228 137.595 1195.09 0
162.633 125.854 687.369 0
93.2732 141 709.841 0
69.3992 147.234 713.439 0
-147.368 271.569 933.363 0
-147.368 271.569 933.363 0
-173.887 261.177 889.565 0
189.668 79.3484 1544.53 0
-355.291 92.1909 1386.4 0
137.802 97.1883 707.119 0
91.4547 153.817 711.383 0
89.6854 167.34 713.028 0
85.2175 201.616 715.514 0
-210.377 255.756 845.393 0
209.993 -111.537 1686.04 0
-238.105 264.325 860.958 0
