ply
format ascii 1.0
element vertex 313
property float x
property float y
property float z
property uchar intensity
end_header
-732.25 -1199.91 4258.23 0
1195.92 -765.087 3433.02 0
-69.5688 -484.478 2774.7 0
-461.844 -466.8 2729.27 0
384.322 -491.517 3153.88 0
-208.087 -178.542 1560.98 0
0.794947 -171.74 1549.9 0
1032.47 -846.712 3358.65 0
989.093 -814.297 3368.94 0
-187.517 -759.763 3270.9 0
1013.67 -750.235 3360.53 0
370.607 -691.434 3193.18 0
-71.3928 -599.09 2909 0
408.695 -616.291 3028.93 0
416.529 -609.657 3100.28 0
329.515 -602.541 3314.34 0
364.399 -584.572 3217.98 0
353.576 -574.686 3208.3 0
-634.525 -344.082 1923.18 0
1108.55 -596.695 3377.96 0
-264.099 -360.345 2037.29 0
46.5674 -237.472 1383.65 0
331.446 -559.696 3276.05 0
355.352 -537.798 3217.32 0
1131.16 -532.465 3437.23 0
1051.22 -477.755 3383.29 0
1054.67 -466.619 3378.88 0
-201.014 -178.414 1562.56 0
-435.601 -214.299 2035.25 0
-477.939 -205.144 2059.14 0
-218.756 -45.5568 1482.19 0
-177.634 66.9873 579.925 0
-172.384 68.8199 580.14 0
-130.482 74.5972 575.332 0
-91.6344 83.4202 570.261 0
-55.9327 90.8332 566.526 0
-30.408 94.3141 563.128 0
114.031 129.65 548.339 0
167.451 186.609 547.606 0
-1114.1 -1127.95 3865.53 0
503.787 -833.214 3390.6 0
325.752 -689.092 3268.11 0
321.328 -664.071 3260.81 0
38.9037 -261.146 1448.87 0
-657.095 -605.166 3394.68 0
-511.292 -605.614 3459.77 0
37.409 -252.626 1452 0
378.19 -533.317 3112.87 0
401.37 -497.899 3064.15 0
381.939 -498.601 3225.39 0
350.987 -475.309 3163.45 0
1127.26 -512.636 3438 0
1057.48 -495.455 3386.63 0
57.9215 -203.325 1464.71 0
-504.653 -215.915 1561.17 0
1014.35 -460.549 3322 0
-446.9 -214.428 2056.6 0
19.1626 -152.244 1524 0
-441.403 -204.614 2070.53 0
268.219 97.5031 974.812 0
-177.009 69.9142 579.889 0
-143.393 73.7512 576.393 0
-50.7975 90.4672 563.123 0
-38.7735 92.8682 564.645 0
-10.348 98.1229 559.865 0
32.653 115.722 557.39 0
84.0805 120.974 545.993 0
131.102 125.583 545.645 0
52.9302 132.569 555.818 0
94.6752 132.731 550.683 0
135.344 131.922 540.651 0
27.1346 175.732 560.118 0
30.3491 181.093 559.298 0
177.558 180.415 546.029 0
61.1163 181.712 556.596 0
166.159 187.659 547.627 0
47.9902 195.087 562.648 0
-77.6339 -309.086 925.244 0
-77.801 -310.757 928.928 0
-78.1532 -307.535 930.518 0
-1085.53 -1199.38 4078.18 0
-200.718 -724.645 3133.47 0
364.746 -736.585 3181.29 0
1014.23 -772.648 3387.44 0
353.776 -672.44 3192.97 0
342.95 -635.34 3247.99 0
403.287 -594.999 3084.7 0
341.876 -613.615 3217.23 0
384.911 -562.289 3143.48 0
382.775 -559.661 3126.11 0
-691.697 -603.383 3368.51 0
-382.076 -317.946 1788.4 0
298.392 -561.739 3378.41 0
-276.457 -345.785 2071.2 0
346.55 -491.523 3225.46 0
0.55352 -212.62 1521.78 0
401.794 -434.395 3162.49 0
-443.909 -199.244 1547.83 0
36.4639 -181.8 1467.11 0
-239.656 -186.682 1666.44 0
9.22101 -156.653 1518.61 0
-476.136 -204.169 2004.27 0
-446.045 -196.55 2052.13 0
-213.868 -199.446 2161.93 0
121.067 -70.0392 1168.69 0
52.7581 -56.7228 1199.2 0
-439.801 -64.5017 1502.41 0
-548.194 -88.8141 2148.03 0
-331.598 -51.7182 1507.35 0
-452.505 -39.0028 1362.27 0
-78.9532 85.6346 567.728 0
-78.8232 85.6921 567.444 0
-0.333647 105.421 558.231 0
-0.560059 105.421 558.851 0
20.1242 118.981 559.865 0
18.4911 120.507 558.579 0
122.105 125.556 541.395 0
153.038 129.27 540.768 0
148.523 132.151 538.848 0
100.07 137.274 550.038 0
174.736 150.898 538.401 0
174.736 150.898 538.401 0
93.6388 154.245 553.54 0
85.7991 159.051 550.307 0
181.043 160.187 541.194 0
180.92 160.162 540.871 0
28.9144 175.445 560.964 0
80.3568 172.922 551.493 0
170.468 172.604 544.676 0
172.222 178.542 547.262 0
-51.7826 -326.437 937.08 0
220.687 -342.951 1036.09 0
-1372.49 -1216.11 3983.47 0
185.762 -305.536 1116.62 0
1000.44 -840.581 3343.38 0
969.998 -836.983 3421.36 0
1026.49 -812.302 3419.07 0
-9.34138 -227.781 1010.03 0
337.694 -688.583 3229.71 0
351.269 -686.206 3326.16 0
322.482 -623.586 3305.98 0
390.387 -567.612 3105.72 0
341.718 -573.107 3221.63 0
-105.492 -169.969 1185.93 0
-106.518 -270.896 1936.74 0
-468.426 -209.114 2063.67 0
-455.119 -203.309 2056.57 0
166.784 -119.122 1266.68 0
-448.04 -154.624 1666.62 0
-97.5044 -103.258 1193.17 0
173.4 -90.6136 1183.45 0
121.589 -83.4518 1169.92 0
-217.26 -43.3997 1125.36 0
115.68 -31.9284 1182.66 0
107.14 -17.5727 1200.96 0
-95.589 62.3504 583.056 0
-149.015 76.9769 578.252 0
-143.58 77.9809 577.332 0
-138.408 78.8919 577.403 0
61.8422 116.889 547.119 0
62.0004 117.145 548.102 0
77.5157 123.172 550.928 0
6.96774 127.367 560.094 0
21.5924 131.044 560.526 0
188.125 129.225 537.092 0
152.23 131.962 543.678 0
140.297 130.704 538.581 0
144.177 132.075 542.037 0
50.5301 133.713 555.618 0
182.313 138.539 538.427 0
121.658 140.733 541.997 0
77.772 148.305 554.326 0
83.6946 155.601 547.85 0
31.4494 159.052 557.904 0
48.2774 161.993 556.176 0
48.2774 161.993 556.176 0
75.0068 165.256 557.011 0
65.2816 165.483 554.106 0
65.2816 165.483 554.106 0
26.8925 178.41 562.02 0
184.079 184.776 549.141 0
78.9427 189.704 553 0
124.711 -342.482 991.649 0
-77.583 -319.084 929.618 0
-261.681 -310.088 896.172 0
138.682 -342.609 999.806 0
-175.392 -311.173 934.622 0
-62.477 -302.071 944.433 0
-182.873 -301.503 952.334 0
-182.767 -301.258 951.559 0
-756.256 -1217.52 4262.22 0
-757.676 -1212.94 4266.73 0
976.116 -814.505 3383.21 0
337.9 -523.13 3209.54 0
-58.3669 -161.669 1406.63 0
-83.2023 -294.388 2738.68 0
-51.1001 -266.01 2658.79 0
108.504 -124.854 1236.02 0
77.8772 -62.4951 1164.01 0
-360.849 -59.7645 1536.46 0
-340.602 -48.1147 1463.1 0
-364.74 -46.7354 1458.71 0
-184.009 61.6331 580.351 0
-197.47 67.9928 582.468 0
-147.69 69.2736 575.855 0
-169.303 72.7072 579.791 0
-132.697 72.0242 574.356 0
-140.777 74.841 576.224 0
-113.131 75.6026 571.53 0
131.55 99.5449 559.703 0
138.9 112.264 538.993 0
40.8422 123.935 553.659 0
134.104 124.623 544.071 0
38.2346 141.732 557.689 0
77.1953 140.708 553.647 0
141.503 144.279 539.999 0
141.632 144.42 540.538 0
168.13 149.24 538.706 0
88.4181 162.379 551.987 0
45.6221 179.248 558.288 0
-63.7526 -295.108 972.085 0
-621.609 -1206.8 4270.42 0
236.811 -504.458 2274.94 0
1200.08 -777.055 3485.46 0
-605.139 -928.131 4281.09 0
1005.13 -451.037 3382.47 0
99.3929 -113.386 1217.89 0
-408.043 -59.4017 1527.35 0
-383.232 -59.1773 1530.91 0
-436.225 -42.3634 1373.73 0
-368.169 -43.7971 1415.93 0
-356.8 -32.4433 1394.27 0
-235.981 -13.4072 1079.44 0
241.248 46.1244 1173.01 0
159.859 69.9012 1180.57 0
-179.08 45.0517 587.116 0
-154.761 64.3605 578.258 0
-152.238 72.5285 577.175 0
-146.349 73.4807 576.348 0
-198.681 76.2358 583.825 0
-135.104 75.6158 575.802 0
-126.387 77.0953 574.249 0
-111 79.571 572.049 0
-106.071 80.8419 571.617 0
132.178 102.997 537.389 0
-5.47403 111.037 566.828 0
2.64605 115.195 561.25 0
44.8478 128.273 542.225 0
131.169 135.666 543.129 0
81.6582 148.059 553.316 0
64.6108 150.624 557.041 0
87.5929 166.704 553.959 0
84.9223 184.066 556.737 0
-230.134 -927.931 3795.72 0
1173.05 -672.977 3359.08 0
401.066 -505.183 3191.83 0
-437.074 -137.595 1600.58 0
94.4357 -95.8525 1237.97 0
112.83 -82.6954 1189.13 0
-450.975 -77.663 1588.85 0
258.974 68.6112 963.772 0
239.282 87.7424 904.626 0
-164.544 57.3961 575.887 0
-168.356 65.9363 580.008 0
-168.503 65.9368 579.624 0
-174.841 67.9951 579.739 0
-174.732 67.9545 579.593 0
-181.739 71.3367 581.526 0
-100.614 79.5693 570.626 0
91.806 122.32 538.593 0
78.0989 131.301 548.756 0
78.0989 131.488 549.168 0
95.7201 149.884 552.356 0
89.92 156.58 552.089 0
75.7678 160.585 555.291 0
-186.73 -304.373 937.895 0
-103.174 -301.69 966.133 0
-964.769 -1197.13 3891.56 0
-590.09 -1279.84 4345.54 0
236.33 -315.006 1099.91 0
1159.52 -933.339 3527.36 0
1.53998 -243.916 991.543 0
400.724 -584.835 3079.45 0
-459.746 -213.98 1852.48 0
984.658 -332.45 3133.05 0
-448.912 -167.987 1728.9 0
145.466 -110.543 1251.95 0
68.9865 -83.0217 1207.97 0
74.8099 -31.1745 1199.17 0
136.223 8.01206 1231.13 0
5.76 98.2775 559.557 0
57.9168 112.829 546.472 0
126.041 129.461 535.452 0
46.8913 140.618 553.518 0
170.771 174.876 543.885 0
1047.95 -659.746 3365.98 0
-447.329 -342.288 1974.15 0
989.458 -397.648 3227.88 0
-447.996 -190.283 1683.78 0
143.254 114.225 536.171 0
103.699 -103.654 1230.09 0
-439.567 -116.447 1635.14 0
-4.4483 101.037 558.472 0
0.41277 122.446 563.597 0
-2.65181 140.804 566.248 0
67.2777 -304.746 1047.13 0
1103.51 -697.452 3343.79 0
28.199 121.806 559.976 0
14.1925 126.796 560.972 0
181.061 148.175 541.25 0
85.7648 153.436 557.303 0
8.62314 162.508 566.236 0
162.968 166.35 544.919 0
