ply
format ascii 1.0
element vertex 285
property float x
property float y
property float z
property uchar intensity
end_header
487.679 -644.895 3607.47 0
503.602 -598.341 3546.23 0
484.468 -527.311 3537.77 0
-192.667 -179.197 1705.56 0
-183.233 -111.163 1626.18 0
-53.4972 88.7916 614.36 0
479.186 -670.729 3692.51 0
-884.107 -586.569 3227.76 0
-862.1 -556.77 3149.51 0
488.421 -616.129 3586.85 0
-685.815 -526.45 3215.04 0
424.006 -606.075 3768.69 0
-324.453 -301.996 2013.57 0
-708.516 -384.451 2615.46 0
459.99 -517.439 3632.48 0
-216.681 -231.277 1790.4 0
1032.66 -388.535 3149.39 0
833.571 -313.787 3035.3 0
43.336 -89.457 1607.39 0
28.2694 -86.7623 1597.08 0
338.048 29.722 1222.09 0
-49.5828 87.7203 617.394 0
-283.109 185.049 985.356 0
25.5974 118.676 602.514 0
25.2993 118.318 600.028 0
-104.735 -296.775 921.382 0
114.176 -250.354 990.436 0
-447.105 -1071.57 4243.3 0
-86.3686 -998.898 4390.99 0
201.314 -659.887 3587.13 0
450.022 -676.036 3689.31 0
-874.497 -601.44 3287.04 0
-823.753 -590.678 3305.4 0
494.781 -635.04 3581.82 0
-717.612 -566.758 3307.85 0
475.278 -597.408 3610.49 0
-660.773 -498.639 3180.32 0
-625.154 -497.154 3175.61 0
423.686 -574.903 3685.53 0
-335.622 -311.409 2051.78 0
438.707 -545.888 3709.72 0
993.543 -485.665 3398.31 0
337.014 -389.08 2985.93 0
-87.3743 -279.307 2210.03 0
-347.068 -217.973 1706.5 0
907.579 -392.385 3055.17 0
-340.647 -215.102 1731.67 0
-37.2602 -431.903 3545.02 0
902.876 -378.285 3054.53 0
40.2365 -210.465 2058.54 0
271.167 -122.827 1454.47 0
290.377 -121.313 1449.53 0
654.928 -189.154 2440.06 0
795.487 -231.715 3117 0
-181.758 -152.153 2103.58 0
268.172 -102.151 1452.32 0
-152.949 -133.111 2122.56 0
-195.107 -101.413 1731.56 0
-148.208 -121.561 2135.4 0
31.965 -84.0512 1606.43 0
10.1599 -70.2167 1617.76 0
286.42 87.6547 1188.24 0
-54.7179 88.7342 617.416 0
-53.8314 90.9807 614.473 0
-103.631 140.642 626.478 0
-115.354 174.858 630.046 0
147.412 181.321 565.947 0
139.103 196.298 567.454 0
-1257.88 -1236.33 3891 0
-186.775 -288.293 929.51 0
137.426 -238.756 974.856 0
-519.667 -737.902 3037.62 0
-90.1411 -1022.67 4392.37 0
-140.978 -1016.8 4354.46 0
-122.492 -988.302 4330.42 0
-422.806 -794.309 3600.08 0
-368.952 -718.904 3289.83 0
-1324.69 -827.48 4169 0
-51.1239 -682.282 3526.93 0
426.821 -645.088 3777.64 0
424.112 -629.224 3811.92 0
414.374 -601.798 3782.71 0
131.468 -584.541 3718.76 0
467.184 -499.109 3637.74 0
-91.937 -242.163 1855.66 0
828.844 -289.951 3090.09 0
812.974 -263.81 3110.66 0
805.689 -255.901 3131.19 0
-175.344 -157.74 2127.4 0
801.795 -189.201 3226.7 0
240.18 -79.8791 1555.58 0
-472.345 -65.1256 1524.85 0
804.983 -127.026 3158.9 0
269.468 -58.4998 1491.53 0
221.447 -33.3497 1254.96 0
242.303 -34.9272 1543.81 0
260.295 -30.6135 1627.45 0
-187.082 -15.6631 1003.12 0
-267.454 -20.8018 2215.69 0
-208.469 -2.53765 1432.05 0
-123.105 -1.03593 1607.05 0
-11.8368 52.1013 1452.15 0
234.311 103.37 1608.07 0
298.416 82.8026 1193.46 0
-270.064 178.775 993.386 0
2.97793 114.125 604.409 0
-94.202 119.767 623.08 0
-107.112 188.219 628.422 0
-107.267 188.496 629.089 0
-106.244 191.346 628.501 0
169.799 176.328 559.049 0
135.407 183.836 570.983 0
-132.553 212.505 636.386 0
-120.236 214.128 629.373 0
-468.973 -1080.96 4239.01 0
35.3231 -249.344 1005.54 0
-1344.62 -1039.02 4162.53 0
361.781 -231.137 1026.39 0
-1345.5 -848.379 4177.11 0
-1299.55 -836.156 4172.76 0
214.692 -735.694 3768.91 0
-158.447 -662.074 3392.23 0
161.758 -659.905 3612.97 0
476.565 -644.755 3631.23 0
452.822 -616.279 3715.46 0
424.762 -547.467 3718.79 0
198.178 -142.208 1068.83 0
-338.641 -217.343 1886.59 0
839.443 -309.418 3107.42 0
879.954 -256.191 3115.51 0
-190.475 -134.74 2106.45 0
-174.457 -131.105 2131.22 0
-162.985 -123.6 2122.66 0
-155.628 -115.704 2117.07 0
81.2364 -71.0333 2205.78 0
-315.147 -37.8572 1568.73 0
-347.724 -31.5158 1399.05 0
102.732 -23.2479 1226.74 0
-133.874 -9.82051 1621.31 0
-111.542 8.76958 1557.23 0
-30.6597 10.2936 1166.69 0
365.507 35.1207 1192.3 0
-390.001 79.8223 1222.71 0
117.853 98.6561 1509.63 0
-340.922 113.268 1197.92 0
-338.131 116.553 1152.91 0
-11.1638 100.298 604.916 0
-27.7469 102.625 609.973 0
-4.22747 102.893 603.788 0
-88.5543 107.124 620.421 0
-1.43505 112.591 605.371 0
-93.7178 133.495 621.177 0
-94.6746 150.47 624.344 0
-108.93 164.87 627.078 0
-108.93 164.87 627.078 0
-114.242 199.479 630.964 0
184.173 185.115 560.153 0
-122.51 -278.527 948.515 0
-115.688 -277.655 949.489 0
-44.855 -275.211 957.153 0
-698.215 -1217.86 4231.2 0
-733.061 -1143.91 4175.52 0
228.761 -255.542 979.272 0
-275.595 -295.394 1218.09 0
-106.487 -1020.06 4398.04 0
-108.341 -1015.49 4402.41 0
203.529 -676.511 3579.03 0
-1346.74 -741.05 4187.44 0
-306.096 -209.151 1798.59 0
777.492 -162.438 3020.76 0
-461.557 -65.8639 1517.61 0
291.502 -74.1971 2689.08 0
-335.537 -26.1108 1398.3 0
-325.993 0.252992 1263.61 0
-155.96 3.96083 1469.13 0
-148.736 4.61149 1511.53 0
312.352 32.3112 1183.06 0
-57.9254 33.3814 1121.07 0
288.921 96.7011 1211.64 0
-350.712 101.038 1213.25 0
-347.818 113.218 1199.29 0
-86.0385 79.5013 623.882 0
-59.1947 81.6706 616.004 0
-75.9064 93.735 619.972 0
-25.2686 95.1181 607.889 0
-24.6609 99.5169 608.032 0
-14.0491 103.512 606.374 0
-5.88086 106.359 603.974 0
7.17672 106.986 600.171 0
-94.6294 116.796 625.823 0
8.60397 111.288 600.284 0
-124.477 147.897 628.521 0
112.756 155.614 576.613 0
-114.896 181.363 626.087 0
-111.198 182.578 624.474 0
148.272 179.742 566.089 0
144.245 180.741 565.783 0
-125.929 -275.942 926.79 0
24.3501 -985.791 4393.64 0
-1317.91 -854.358 4170.71 0
-1317.49 -854.111 4169.47 0
-938.935 -648.915 3428.61 0
-188.732 -110.403 1794.3 0
-192.522 -87.3432 1663.98 0
-217.699 -31.6501 1650.3 0
360.014 -34.988 2695.24 0
-183.616 -10.5561 1584.33 0
-203.105 -5.39688 1446.57 0
-159.037 -5.82117 1585.66 0
-148.509 15.5818 1445.96 0
-315.945 12.9863 1214.3 0
-339.546 60.6399 1200.07 0
-341.995 61.4289 1209.03 0
-397.213 97.4884 1176.42 0
-31.1475 89.2391 611.174 0
-30.2046 97.6251 609.43 0
-276.837 177.358 994.185 0
320.187 175.382 960.029 0
112.941 165.105 577.509 0
112.85 164.943 577.017 0
157.697 177.857 560.602 0
148.527 194.488 568.344 0
289.043 -799.076 4178.47 0
209.096 -158.322 1025.02 0
101.219 -119.78 1594.1 0
-187.404 -135.264 1750.55 0
-324.669 -37.9546 1546.48 0
101.762 -18.6956 2090.58 0
-294.572 -11.9623 1383.85 0
-226.275 -9.24822 1433.13 0
293.222 20.1422 1253.82 0
263.639 26.3048 1225.56 0
-388.807 60.7078 1237.2 0
-65.9709 59.9945 1097.89 0
-325.649 85.5959 1204.72 0
-324.075 84.6853 1199 0
-341.875 106.401 1208.8 0
-39.6955 80.5486 610.062 0
-11.3711 82.2924 631.905 0
-44.6282 88.5689 614.038 0
-51.3759 89.4576 614.235 0
-58.5957 91.6776 616.445 0
407.017 180.444 1168.47 0
-85.254 101.187 626.13 0
-89.6649 104.523 622.971 0
-299.028 192.222 989.333 0
-110.44 179.945 632.858 0
108.008 181.175 579.071 0
-126.269 207.645 632.835 0
-343.596 -1061.45 4046.84 0
-41.6626 -1066.79 4411.85 0
74.0829 -1046.97 4469.51 0
114.623 -234.863 1012.18 0
218.114 -135.285 1057.37 0
-181.563 -148.948 1920.66 0
-271.742 -7.25327 1396.96 0
315.274 128.926 1237.68 0
-304.035 176.186 963.673 0
117.453 -923.005 4156.17 0
-196.019 -64.6089 1697.43 0
-445.458 -53.088 1570.81 0
-350.52 -32.2936 1344.37 0
305.619 24.8201 1205.62 0
284.724 85.6962 1224.2 0
142.216 120.448 1506.26 0
-14.8366 106.884 605.273 0
-295.624 179.445 981.439 0
-861.113 -636.028 3350.32 0
-278.278 -339.203 2077.03 0
63.0851 -66.3624 2031.9 0
-206.553 -40.8505 1920.59 0
-74.5714 23.275 1444.09 0
-355.271 45.5531 1308.17 0
0.304752 111.847 602.752 0
-90.7992 121.205 626.475 0
-95.1566 134.171 627.744 0
108.273 149.781 576.143 0
-106.128 167.008 629.277 0
109.648 172.008 579.648 0
103.67 190.119 582.154 0
160.581 -217.182 953.841 0
42.835 -99.4319 1610.28 0
-113.054 108.464 627.859 0
136.739 175.91 573.611 0
122.19 178.473 575.577 0
