ply
format ascii 1.0
element vertex 320
property float x
property float y
property float z
property uchar intensity
end_header
-472.57 -895.5 5008.63 0
17.6148 -622.89 3809.73 0
1202.21 -562.997 3533.34 0
476.62 -383.521 3291.49 0
-1064.63 -351.77 3300.01 0
629.774 -285.95 3294.41 0
-370.188 -84.4645 1693.77 0
-116.045 -49.4775 1629.49 0
-123.156 -49.4374 1628.09 0
-108.419 140.831 634.014 0
-256.184 -626.736 3590.9 0
7.08522 -625.335 3808.02 0
6.45498 -624.867 3805.95 0
1123.14 -564.372 3427.94 0
567.966 -504.655 3126.62 0
37.1748 -569.302 3748.63 0
478.482 -491.747 3272.6 0
514.989 -427.236 3103.54 0
1223.71 -413.629 3434.5 0
465.905 -373.802 3281.53 0
469.189 -336.56 3288.41 0
1250.03 -347.074 3489.52 0
-568.144 -205.372 2213.19 0
124.729 -127.25 1448.46 0
-517.691 -142.184 1868.69 0
-381.078 -38.6618 2133.11 0
-144.238 -23.637 1633.74 0
-234.486 71.3625 1627.63 0
-237.484 77.2448 1588.36 0
-131.187 79.2802 1542.22 0
-103.708 141.797 634.33 0
-108.298 143.042 634.126 0
-106.573 143.736 635.234 0
-56.2844 149.746 626.981 0
-10.8244 154.763 620.57 0
11.4599 157.628 617.12 0
110.064 189.349 599.644 0
98.7759 203.21 605.209 0
-258.669 -224.353 933.371 0
-39.8987 -224.185 1016.95 0
-1.08605 -647.349 3848.87 0
569.584 -519.422 3127.44 0
489.519 -338.695 3183.37 0
1192.81 -368.406 3394.72 0
-1002.55 -354.571 3327.16 0
-392.875 -359.516 3554.44 0
-1015.48 -316.411 3192.05 0
-599.147 -210.835 2278.38 0
1246.84 -327.105 3489.27 0
497.318 -297.961 3293.65 0
-545.787 -179.169 2008.87 0
109.402 -130.143 1491.39 0
116.09 -129.706 1522.9 0
460.983 -274.448 3199.44 0
465.637 -277.031 3231.24 0
1170.7 -292.584 3434.47 0
538.447 -241.721 2963.76 0
-637.042 -118.019 1948.41 0
122.991 -74.4232 1509.16 0
-410.107 -75.1138 1629.34 0
-125.957 -41.8291 1627.85 0
-111.88 -39.3557 1631.58 0
-344.269 -38.8213 2143.61 0
211.693 4.36674 1233.94 0
221.607 4.18179 1265.32 0
199.538 25.2277 1222.75 0
-241.477 74.8131 1636.42 0
-226.34 74.1691 1610.58 0
186.337 59.8408 1262.82 0
-301.198 78.959 1575.08 0
-390.721 87.9868 1408.57 0
14.4414 157.83 1533.67 0
-61.7665 145.783 628.229 0
-138.974 152.318 638 0
4.36609 156.625 619.183 0
-325.93 275.481 999.004 0
-325.742 275.193 997.615 0
98.4897 166.963 603.174 0
-336.831 284.297 990.203 0
109.092 174.654 598.363 0
153.467 182.688 591.333 0
200.596 185.569 589.63 0
122.997 195.926 601.215 0
164.579 194.296 595.106 0
170.111 198.599 594.081 0
105.068 205.335 601.353 0
1236.67 -750.191 3607 0
0.508323 -663.574 3814.69 0
470.756 -537.245 3263.41 0
-2.97607 -618.621 3819.35 0
511.737 -402.708 3158.14 0
496.002 -366.152 3215.4 0
493.52 -364.414 3197.96 0
-375.613 -350.723 3525.61 0
1188.91 -346.969 3384.17 0
-359.03 -336.592 3472.78 0
-437.901 -310.961 3354.77 0
-291.987 -194.903 2091.01 0
552.138 -285.319 3180 0
1176.42 -310.287 3438.65 0
462.21 -289.618 3294.14 0
-405.306 -136.525 1851.67 0
517.794 -238.094 3226.79 0
-523.623 -117.98 1731.95 0
-15.3819 -124.455 2005.98 0
-525.024 -108.696 1714.49 0
-530.27 -93.5733 1701.8 0
-525.057 -91.9944 1727.35 0
-358.28 -37.7962 2129.92 0
-349.092 -31.6262 2124.89 0
174.227 -7.31663 1284.29 0
-452.659 75.3847 1568.11 0
-352.761 76.8426 1580.91 0
203.653 60.4878 1248.86 0
195.834 64.2231 1234.68 0
-198.073 81.0497 1505.45 0
-220.303 81.8548 1489.97 0
-243.919 83.8636 1479.81 0
-15.2571 111.803 1338.76 0
81.4858 143.585 1614.72 0
-253.97 199.558 1324.63 0
-296.175 200.7 1307.43 0
347.47 176.358 1016.38 0
-365.245 244.283 1195.96 0
131.136 179.477 593.205 0
131.328 179.781 594.169 0
88.2405 185.287 605.452 0
-139.248 209.911 649.851 0
91.7542 195.796 606.73 0
71.5864 -253.136 1013.2 0
-13.6308 -229.335 1002.76 0
293.746 -259.19 1108.17 0
-13.5766 -221.056 1001.61 0
-13.4449 -219.599 997.831 0
-198.092 -215.564 973.161 0
-110.948 -217.633 1009.59 0
2.42726 -212.085 1016.24 0
-117.637 -206.734 1026.9 0
-117.543 -206.536 1026.11 0
35.3585 -640.381 3752.06 0
-228.088 -574.317 3550.88 0
22.6422 -567.908 3756.76 0
70.8102 -151.376 1061.93 0
516.9 -423.88 3175.93 0
59.4182 -135.544 1101.66 0
566.968 -380.209 3187.14 0
500.332 -373.751 3177.88 0
1207.48 -376.856 3392.81 0
-271.18 -233.522 2695.41 0
1174.42 -281.841 3429.36 0
-532.446 -133.507 1832.75 0
1184.52 -229.277 3364.75 0
-533.719 -93.9512 1882.05 0
-348.234 -50.6093 2115.08 0
245.987 -19.9739 1322.25 0
117.77 -30.1359 2728.05 0
199.625 11.894 1224.72 0
-273.361 65.33 1632.62 0
-352.175 69.4772 1568.63 0
-162.053 70.3023 1539.66 0
-243.503 78.5994 1570.31 0
-130.301 99.8054 1472.35 0
-370.501 104.91 1386.8 0
236.167 107.464 1292.67 0
-115.567 135.058 635.217 0
-131.563 146.324 635.427 0
-64.093 143.242 627.451 0
-72.021 146.447 629.346 0
-80.1255 148.988 631.442 0
-74.684 149.743 630.341 0
-69.4838 150.469 630.24 0
-47.3846 153.823 627.996 0
-116.493 157.717 637.356 0
-136.645 165.582 632.081 0
-328.565 268.89 1008.9 0
-328.239 272.677 1004.37 0
-328.177 271.413 1000.51 0
-337.792 276.591 989.758 0
68.9001 170.894 606.392 0
207.756 171.63 583.557 0
-138.831 192.95 638.628 0
110.565 187.627 599.827 0
106.862 189.44 599.269 0
77.0044 192.632 606.847 0
98.5393 194.327 603.914 0
-136.445 209.766 641.888 0
120.634 197.143 601.007 0
155.613 196.12 591.849 0
155.613 196.12 591.849 0
191.595 200.825 585.357 0
108.681 205.703 602.91 0
-242.19 -246.148 882.22 0
-235.739 -246.457 884.424 0
189.232 -256.551 1061.27 0
-74.6571 -233.987 981.824 0
203.393 -256.731 1069.09 0
2.09442 -203.56 1043.47 0
328.071 -351.181 2348.67 0
-494.487 -93.0771 1796.44 0
35.1102 -145.553 2912.3 0
7.07084 -72.0346 1739.38 0
43.0898 -93.4902 2782.49 0
75.4354 -72.5393 2736.68 0
-119.355 -42.7041 1632.26 0
329.518 -15.0064 1180.17 0
690.929 80.5288 2175.81 0
-282.078 82.7627 1479.47 0
188.264 79.8686 1252.33 0
-378.096 78.6989 1222.42 0
307.15 112.374 1174.86 0
307.15 112.374 1174.86 0
141.114 171.935 1533 0
-86.3046 136.607 632.292 0
-128.741 142.007 637.286 0
-79.13 141.121 629.452 0
-88.2429 143.986 632.033 0
-100.504 145.546 633.691 0
-77.6322 145.298 629.676 0
-129.631 150.35 638.205 0
-66.3365 146.992 628.749 0
-44.4923 145.949 623.973 0
-57.6156 148.068 626.912 0
-42.1749 149.897 624.427 0
-42.2128 149.861 624.218 0
-132.372 173.899 639.434 0
-143.495 176.825 643.045 0
70.1989 171.457 607.79 0
104.771 178.557 598.562 0
-148.75 198.68 643.275 0
203.522 184.416 588.043 0
-135.353 200.73 642.671 0
-166.053 212.768 640.25 0
-166.34 213.464 644.094 0
113.731 202.007 602.234 0
147.467 203.051 598.023 0
208.868 -260.859 1088.15 0
309.923 -240.422 1123.24 0
-477.06 -632.473 4394.56 0
39.972 -364.85 2879.01 0
133.034 -57.4809 2736.09 0
-349.506 1.87961 1670.66 0
161.444 6.67828 1287.78 0
-319.638 74.7998 1592.49 0
-294.752 74.3251 1595.45 0
-293.968 74.3368 1586.73 0
-253.493 80.0703 1526.15 0
-277.672 82.0752 1522.25 0
155.446 67.3649 1252.07 0
-458.946 90.3973 1396.83 0
-270.873 92.4824 1456.95 0
243.457 164.119 1225.84 0
-69.8057 125.787 654.197 0
-99.7884 138.767 634.267 0
-99.9445 138.752 633.887 0
-112.932 144.723 635.79 0
-141.013 163.777 640.406 0
-131.35 174.098 639.653 0
64.1771 177.159 614.777 0
-164.333 187.457 643.636 0
72.293 180.706 608.786 0
200.95 195.489 586.549 0
319.539 -294.069 1102.27 0
329.694 -285.281 1102.32 0
319.216 -279.101 1107.05 0
-121.956 -210.257 1012.74 0
509.397 -392.764 3152.39 0
515.35 -307.077 3260.08 0
-496.155 -89.4211 1692.53 0
-360.144 -45.6935 1756.91 0
186.786 -25.286 1293.33 0
-359.142 -20.9154 1800.72 0
177.623 -14.5179 1274.81 0
173.787 4.26749 1293.97 0
148.049 16.3287 1263.91 0
191.386 14.0279 1244.05 0
-361.609 61.533 1655.9 0
-460.513 77.176 1545.29 0
-328.556 83.3195 1453.81 0
-351.089 84.3145 1438.86 0
218.973 106.018 1280.34 0
-160.291 108.387 1125.94 0
-27.2191 103.547 1044.98 0
-138.591 132.451 1110.57 0
-159.623 147.061 1122.09 0
336.95 147.252 1007.2 0
-96.3802 129.88 630.544 0
-106.202 141.041 634.034 0
-31.8719 149.405 622.556 0
74.7734 163.619 607.974 0
-134.435 180.718 641.946 0
107.987 173.391 604.096 0
161.045 183.342 583.691 0
70.7155 197.457 610.178 0
-37.6698 -209.033 1038.82 0
304.442 -227.172 1165.18 0
1102.92 -159.046 3178.08 0
181.057 70.0302 1264.49 0
-392.677 95.5692 1399.82 0
-415.079 95.6561 1385.22 0
-183.621 159.193 1150.94 0
-260.315 193.609 1310.15 0
224.614 -11.4592 1307.57 0
30.705 134.847 1537.01 0
-66.3323 150.449 627.632 0
64.643 166.682 606.974 0
68.1381 207.121 613.058 0
-28.7238 -222.637 1007.52 0
16.3286 -215.174 1052.45 0
134.568 -213.753 1115.87 0
182.572 -4.28743 1286.34 0
-196.99 84.6226 1459.96 0
-138.884 180.345 643.987 0
-140.525 193.938 645.094 0
70.3731 188.152 610.773 0
98.0198 186.309 606.546 0
84.2248 191.85 607.587 0
-118.796 -59.1179 1632.25 0
-166.441 -43.1779 1664.72 0
-174.518 134.728 638.82 0
-163.342 172.516 643.801 0
