ply
format ascii 1.0
element vertex 370
property float x
property float y
property float z
property uchar intensity
end_header
-301.687 -1518.94 4363.55 0
542.468 -1181.74 3836.95 0
284.955 -1020.18 3529.58 0
611.553 -1044.3 3644.31 0
619.355 -994.804 3551.84 0
-756.01 -889.018 3211.53 0
423.299 -879.467 3304.39 0
-591.503 -884.377 3311.21 0
559.066 -985.33 3726.75 0
-517.436 -875.239 3340.19 0
574.338 -920.564 3673 0
595.159 -885.957 3598.19 0
-584.638 -638.145 2616.31 0
-595.213 -450.326 1846.63 0
1032.72 -706.837 3027.23 0
-156.566 -365.045 1655.02 0
-111.945 -351.346 1650.44 0
-584.321 -333.167 1747.9 0
-558.422 -326.613 1706.92 0
-17.8195 -381.342 2142.24 0
-27.3265 -373.642 2137.2 0
-22.3425 -364.043 2135.39 0
-58.5883 -367.121 2167.7 0
-21.4244 -354.953 2115.69 0
159.181 -273.19 1625.32 0
147.93 -267.465 1625.03 0
-25.2993 -347.011 2151.66 0
430.905 -572.97 4075.97 0
-268.567 -185.509 1388.45 0
-26.8487 -176.801 1611.84 0
-119.207 -25.5301 1293.51 0
55.1891 -9.26475 653.36 0
50.8946 -6.92707 656.412 0
52.0712 -6.63014 653.352 0
56.5331 -4.81189 653.457 0
96.5269 9.29327 645.233 0
100.938 12.5881 643.88 0
131.677 22.3796 642.832 0
131.334 22.2477 640.33 0
165.167 34.3236 631.057 0
182.53 40.1145 626.202 0
-188.498 118.834 741.476 0
210.279 186.235 634.931 0
208.784 191.033 635.998 0
-315.892 -1470.74 4173.52 0
-175.835 -409.513 1217.25 0
582.226 -1048.65 3641.16 0
335.611 -974.441 3407.43 0
626.373 -999.433 3536.91 0
-745.89 -909.23 3269.12 0
620.542 -980.895 3543.67 0
608.201 -964.022 3569.07 0
391.936 -844.098 3170 0
607.399 -926.639 3545.82 0
558.271 -947.005 3646.63 0
-207.592 -512.069 2017.55 0
565.52 -882.168 3651.64 0
524.959 -793.085 3358.93 0
1037.09 -721.042 3026.56 0
-232.694 -401.022 1719.39 0
-594.971 -431.939 1852.72 0
249.406 -918.682 4100.99 0
-77.877 -331.586 1631.8 0
-53.0058 -382.245 2066.4 0
-6.49158 -405.432 2229.85 0
-431.699 -201.018 1327.2 0
-455.122 -197.812 1338.28 0
-457.971 -185.755 1340.38 0
405.719 -357.199 2707.99 0
-194.584 -190.502 1504.8 0
-212.141 -180.036 1423.89 0
-75.9101 -187.49 1610.48 0
-52.0946 -184.246 1610 0
-19.4936 -166.154 1524.97 0
-46.0323 -161.626 1485.4 0
48.9683 -168.165 1588.53 0
438.722 -126.685 1216.46 0
412.21 -71.1993 1223.76 0
-46.1895 -31.6463 1354.28 0
-69.6301 -27.5636 1349.96 0
51.7914 -4.4523 653.661 0
67.7565 0.893159 650.019 0
84.1586 4.67512 647.762 0
83.9303 4.68297 647.29 0
96.3977 7.5661 645.1 0
158.46 31.497 632.918 0
-158 51.1236 1047.56 0
162.461 33.1833 631.827 0
-156.867 54.9756 1044.07 0
-190.497 60.0555 1017.91 0
-190.264 58.8793 990.211 0
-169.69 61.9779 1035.11 0
3.37863 45.0814 670.777 0
12.5361 54.8541 669.358 0
-7.181 78.8685 676.276 0
-6.36219 80.147 672.726 0
1.06883 92.3731 676.915 0
0.93018 92.5941 677.606 0
-21.344 103.723 679.544 0
-18.5203 106.709 676.024 0
-11.4148 118.389 680.339 0
225.388 168.322 624.818 0
183.041 202.268 649.867 0
218.022 193.364 609.746 0
-6.93908 -1432.83 4283.89 0
-1209.55 -1222.36 4142.06 0
293.342 -1019.39 3571.34 0
561.075 -1025.03 3732.22 0
341.65 -912.46 3339.22 0
291.31 -291.401 1065.89 0
559.251 -1012.17 3767.79 0
549.745 -982.078 3741.24 0
327.063 -284.566 1072.75 0
-218.421 -524.533 2054.98 0
-217.005 -450.889 1845.94 0
-223.753 -415.825 1730.26 0
-235.276 -454.534 2004.28 0
-176.728 -390.425 1712.83 0
-564.071 -423.648 1883.05 0
-561.999 -406.325 1912.17 0
-562.72 -336.953 1769.5 0
-51.6382 -387.617 2140.43 0
-30.5038 -357.283 2137.94 0
-30.6079 -359.592 2151.52 0
-40.3067 -347.594 2139.05 0
388.332 -242.498 1488.25 0
-32.845 -339.407 2134.03 0
-440.388 -240.547 1497.56 0
-346.265 -230.426 1546.4 0
364.623 -167.009 1109.66 0
1086.59 -477.304 3226.67 0
333.602 -133.1 925.492 0
-320.644 -192.258 1387.01 0
-198.491 -210.315 1597.31 0
-196.937 -206.128 1581.84 0
-319.36 -170.615 1342.92 0
-319.36 -170.615 1342.92 0
-179.581 -177.064 1452.13 0
-93.0156 -165.597 1462.46 0
-18.7975 -180.598 1617.84 0
-31.9676 -166.779 1541.25 0
4.72935 -153.756 1483.71 0
84.8545 -157.64 1550.11 0
28.4999 -5.77879 656.737 0
144.747 26.7882 632.984 0
-157.259 46.997 1051.73 0
-169.246 54.2897 1034.01 0
9.68721 50.5949 665.538 0
-224.62 86.0946 917.045 0
-233.603 90.7486 898.402 0
-4.08503 77.1798 675.924 0
-5.75069 103.526 680.547 0
224.181 154.903 631.066 0
224.286 170.599 627.408 0
208.836 172.362 633.196 0
225.935 170.704 623.897 0
208.3 197.704 640.43 0
188.924 199.123 636.59 0
216.077 196.222 610.11 0
221.776 -358.128 1013.87 0
-197.724 -442.069 1361.84 0
-132.968 -1011.32 3254.17 0
346.728 -1109.71 3719.18 0
-809.361 -967.436 3407.07 0
608.656 -1013.02 3585.58 0
299.617 -960.36 3492.89 0
317.299 -907.415 3319.29 0
586.843 -991.489 3672.36 0
304.784 -282.123 1081.7 0
260.654 -969.286 4185.24 0
-229.735 -373.85 1634.39 0
-26.5489 -382.667 2132.21 0
-51.8279 -355.557 2147.11 0
-89.6384 -336.004 2074.14 0
-444.591 -194.718 1321.96 0
-285.95 -222.642 1566.75 0
358.443 -217.821 1563.42 0
-397.035 -178.991 1314.66 0
-42.8501 -194.521 1641.32 0
-66.1277 -187.464 1613.03 0
-15.8442 -191.089 1649.09 0
-41.4255 -183.42 1614.35 0
-41.3561 -182.567 1605.63 0
-175.065 -156.264 1412.19 0
-39.827 -163.555 1499.08 0
472.387 -296.763 2703.85 0
38.0945 -156.796 1568.38 0
-269.949 -62.4213 1277.18 0
-275.577 -61.1608 1264.15 0
51.2848 -30.6485 649.883 0
311.082 -65.9019 1553.58 0
-232.953 -26.8065 1243.03 0
46.2294 -13.737 654.465 0
27.3916 -3.53444 651.324 0
29.8719 -1.69115 659.748 0
-184.824 0.270145 1182.63 0
78.0787 6.94828 649.757 0
41.3159 8.08819 658.754 0
19.7036 12.361 655.523 0
205.097 44.2227 822.275 0
13.0389 38.2033 664.708 0
5.66185 49.3223 665.257 0
218.026 58.7735 617.433 0
-1.32796 69.2784 673.573 0
-1.32796 69.2784 673.573 0
-6.91086 85.9255 674.123 0
-3.20886 87.1929 672.56 0
-12.633 101.271 682.619 0
-14.9966 104.111 684.111 0
-4.43583 123.875 680.393 0
213.496 193.966 622.327 0
226.52 196.447 625.279 0
28.1 -1440.67 4326.44 0
27.7905 -1438.1 4320.67 0
-173.603 -401.697 1220.42 0
297.016 -1088.3 3474.34 0
334.2 -1033.91 3535.39 0
-1163.39 -1210.84 4138.02 0
294.605 -285.321 1069.77 0
-548.716 -467.013 1932.71 0
-526.849 -471.061 1969.95 0
-460.866 -469.894 2008.34 0
-461.175 -470.283 2010.17 0
-238.29 -444.545 2006.34 0
568.838 -542.74 2623.42 0
-254.106 -204.093 1484.91 0
423.508 -358.208 2699.93 0
-208.338 -208.25 1575.29 0
439.422 -347.006 2711.17 0
-335.093 -164.084 1328.2 0
-318.228 -161.669 1320.31 0
-145.014 -173.618 1439.54 0
-413.241 -161.288 1348.26 0
-87.5093 -169.836 1476.58 0
424.777 -120.89 1208.77 0
431.233 -121.077 1202.21 0
-338.652 -116.205 1330.01 0
-228.231 -79.3685 1248.13 0
403.319 -58.733 1243.24 0
54.2755 -29.472 660.181 0
-235.933 -40.0937 1255.93 0
369.217 -42.1078 1499.07 0
32.2081 -9.61288 658.004 0
-294.809 -12.6498 1173.43 0
80.3453 -0.401805 646.985 0
71.0962 0.459983 650.395 0
81.0604 3.95272 647.501 0
94.5251 4.69765 644.239 0
86.319 6.17304 646.923 0
91.7394 7.83701 646.019 0
112.949 11.3588 639.789 0
114.528 15.6276 640.46 0
114.481 15.6011 640.252 0
11.7954 21.187 667.897 0
-62.6844 50.3085 1148.58 0
497.472 75.6869 1383.47 0
15.4062 42.3626 670.004 0
-17.152 52.2777 669.889 0
-17.2545 52.5994 673.792 0
-26.3805 79.3497 681.205 0
-0.767859 84.2348 674.553 0
-3.40455 91.849 676.626 0
-10.2501 104.562 680.46 0
200.358 195.216 638.45 0
182.736 197.503 630.419 0
195.799 208.48 640.636 0
162.985 -1317.33 3698.93 0
223.356 -372.171 1099.69 0
-170.822 -422.598 1267.03 0
159.643 -1409.12 4322.85 0
-1182.21 -1228.37 4134.7 0
-1181.8 -1228.03 4133.48 0
425.547 -1210.33 4120.36 0
456.838 -1062.76 3824.78 0
-624.84 -449.059 1863.72 0
-344.431 -418.665 2070.24 0
-62.453 -354.751 1935.95 0
-321.555 -179.28 1330.35 0
-99.7331 -213.471 1677.47 0
-225.498 -160.954 1294.09 0
-137.17 -173.704 1449.76 0
-325.49 -155.478 1318.65 0
-230.636 -161.119 1368.54 0
-415.678 -151.765 1351.63 0
-32.4404 -150.124 1476.89 0
-274.628 -81.4913 1276.9 0
69.7664 -32.1256 664.469 0
65.6066 -14.7756 648.123 0
-305.806 -24.441 1164.67 0
448.379 -25.7983 1282.84 0
60.9267 -7.02435 652.864 0
60.7463 -7.0392 652.495 0
47.0746 -3.82296 655.765 0
75.494 2.0717 648.821 0
16.4217 9.1019 663.905 0
123.425 21.0497 639.378 0
409.131 51.506 1252.92 0
-163.475 53.4041 1043.13 0
-260.869 79.8219 859.782 0
-226.009 86.9394 899.747 0
219.732 68.8311 620.508 0
219.63 68.7146 620.006 0
-237.976 126.026 716.471 0
-226.343 130.869 704.213 0
3.40572 131.938 681.307 0
-203.501 191.2 670.893 0
192.225 202.134 636.027 0
-767.43 -887.183 3197.58 0
329.496 -421.285 2102.58 0
287.647 -362.899 1922.08 0
-180.019 -168.822 1415.07 0
-156.892 -165.794 1428.15 0
417.855 -121.904 1228.7 0
-284.978 -37.0865 1217.29 0
-227.037 -34.5627 1251.81 0
54.2059 -6.00391 653.25 0
124.562 17.2584 637.9 0
-67.2302 58.7253 1135.69 0
-17.048 45.1259 685.279 0
-271.138 67.9594 826.109 0
212.914 63.3389 626.647 0
3.97039 75.3408 674.351 0
-226.283 106.127 912.389 0
-652.373 -521.705 1980.24 0
-634.941 -473.14 1869.81 0
-355.439 -382.03 2062.29 0
-360.333 -222.026 1332.29 0
363.447 -92.1234 1234.45 0
399.044 -70.6965 1254.86 0
-52.4646 -37.5295 1339.75 0
430.817 -29.513 1271.54 0
386.483 -0.502049 1268.12 0
-191.139 55.5204 1013.09 0
-185.373 69.1333 1039.96 0
-243.246 87.2737 897.025 0
-30.8734 77.4005 689.981 0
-42.5092 138.857 674.421 0
173.409 181.875 646.444 0
176.953 196.493 642.945 0
176.906 196.718 643.285 0
594.862 -1044.01 3792.97 0
-618.673 -474.023 1909.01 0
-353.391 -216.348 1488.29 0
-329.084 -222.719 1600.23 0
418.198 -130.171 1230.71 0
19.6947 13.2295 666.55 0
-4.94725 15.1809 669.829 0
-267.067 75.0416 845.617 0
-103.788 149.676 707.915 0
189.248 162.417 639.918 0
183.975 179.764 643.279 0
250.726 -1327.92 4090.23 0
-732.411 -949.513 3328.91 0
399.193 -247.754 1461.95 0
-427.102 -155.404 1324.78 0
52.5411 -14.6857 656.011 0
15.7394 25.4349 668.866 0
11.7134 38.3347 671.333 0
1.55666 71.1516 675.904 0
-3.96502 93.8898 691.295 0
-3.96502 93.8898 691.295 0
-228.525 116.674 794.914 0
17.6729 123.616 684.332 0
-6.44415 132.847 685.003 0
-6.44415 132.847 685.003 0
196.471 186.522 639.282 0
188.236 198.194 639.83 0
185.714 -287.764 2049.84 0
366.837 -96.6718 1213.9 0
70.9375 -22.3503 662.324 0
