ply
format ascii 1.0
element vertex 354
property float x
property float y
property float z
property uchar intensity
end_header
-962.338 -1049.02 3966.19 0
-566.249 -1107.76 4346.8 0
1119.3 -733.111 3387.05 0
493.983 -619.502 3230.25 0
41.4554 -537.964 2959.66 0
535.909 -539.873 3133.67 0
-1063.64 -547.549 3272.42 0
-990.744 -547.489 3305.51 0
-555.283 -321.284 1997.17 0
-572.891 -321.756 2025.43 0
-558.294 -313.266 1988.16 0
476.528 -502.524 3242.91 0
-1440.39 -648.044 4145.81 0
37.5756 -426.932 2822.43 0
456.684 -485.911 3310.98 0
-428.542 -255.31 1773.16 0
478.315 -465.398 3250.89 0
1218.89 -477.194 3345.75 0
1203.91 -469.44 3348.08 0
-431.891 -192.171 1610.49 0
1179.1 -395.859 3390.37 0
-146.325 -154.22 1606.81 0
-139.202 -153.998 1608.14 0
-149.449 -146.735 1606.84 0
-220.939 -139.443 1577.44 0
-356.616 -179.102 2089.66 0
-397.975 -182.613 2139.77 0
-169.223 -129.764 1617.62 0
-398.157 -169.632 2114.78 0
191.304 -75.0523 1242.02 0
-160.878 -23.4468 1525 0
-152.035 68.4341 619.076 0
-150.328 69.1671 620.186 0
-55.323 84.7138 604.795 0
-33.225 88.6312 601.185 0
-31.6851 89.8846 600.872 0
-22.429 90.315 598.621 0
137.201 129.46 575.64 0
51.9241 138.242 589.695 0
190.086 186.771 571.517 0
-282.948 -313.863 908.644 0
-228.375 -526.326 1681.91 0
-596.833 -1089.53 4285.02 0
-147.88 -708.545 3360.8 0
-38.8547 -714.999 3510.87 0
451.788 -615.51 3306.65 0
476.997 -600.644 3230.14 0
446.901 -590.724 3298.85 0
26.0766 -458.449 2932.67 0
-562.149 -534.68 3440.9 0
-311.791 -316.286 2053.07 0
107.154 -222.364 1461.18 0
-475.378 -523.734 3458.01 0
-378.617 -533.168 3525.71 0
531.717 -448.461 3157.14 0
454.451 -467.89 3349.87 0
504.845 -425.805 3256.98 0
-550.251 -217.917 1683.69 0
466.373 -401.055 3163.95 0
471.528 -404.388 3195.6 0
-442.378 -193.761 1618.53 0
1185.03 -399.901 3369.04 0
-412.993 -187.802 1654.24 0
521.928 -363.141 3191.76 0
1182.29 -384.818 3385.55 0
-393.554 -199.398 2114.24 0
-174.075 -159.802 1713.51 0
-397.673 -192.137 2090.36 0
-361.246 -168.531 2124.85 0
-398.769 -21.789 1413.34 0
-41.8159 71.0187 657.736 0
-34.644 76.8425 695.73 0
-105.739 73.3379 612.746 0
-183.026 76.2691 623.574 0
-40.2436 87.2645 603.297 0
107.259 120.503 574.589 0
76.3805 132.124 585.21 0
117.915 132.458 578.589 0
158.209 131.684 567.142 0
123.246 137.022 577.634 0
58.072 140.75 585.835 0
198.885 170.714 567.279 0
53.5344 180.555 588.22 0
84.1805 181.329 584.409 0
200.182 180.612 569.744 0
188.787 187.812 571.557 0
-219.702 215.362 643.42 0
-187.67 219.355 634.678 0
-37.7066 -298.874 975.721 0
-739.342 -753.009 3244.54 0
1102.26 -754.544 3440.69 0
488.08 -664.993 3219.76 0
528.28 -547.186 3135.27 0
522.002 -525.73 3118.19 0
465.475 -541.288 3253.26 0
505.446 -491.614 3176.71 0
502.676 -489.462 3159.36 0
-455.25 -508.399 3399.63 0
69.9257 -251.429 1796.04 0
-544.21 -233.175 1695.85 0
469.423 -418.99 3258.12 0
-544.791 -216.884 1709.22 0
61.0742 -187.783 1561.12 0
-424.94 -198.233 1635.91 0
1185.62 -413.418 3393.95 0
-382.284 -177.001 1602.61 0
-367.15 -178.75 2111.38 0
69.1591 -131.857 1556.18 0
-398.304 -170.094 2059.88 0
-375.458 -167.697 2111.36 0
32.2568 -207.42 2707.12 0
-366.603 -160.991 2106.42 0
-466.187 -51.5134 2203.05 0
-272.705 -29.7725 1554.32 0
-187.459 103.332 626.808 0
63.3554 110.373 581.866 0
43.8522 118.406 590.775 0
85.1091 116.286 576.612 0
85.2999 116.569 577.582 0
-184.015 128.968 627.488 0
42.1621 119.886 589.509 0
100.855 122.782 579.695 0
171.313 131.963 564.866 0
-196.359 158.48 633.526 0
116.802 154.032 580.918 0
197.338 150.884 562.996 0
197.338 150.884 562.996 0
106.651 155.164 575.552 0
54.7677 158.494 587.365 0
108.813 158.693 577.842 0
-187.645 179.064 635.23 0
52.2065 174.943 590.083 0
193.114 172.716 568.849 0
194.909 178.733 571.214 0
-210.514 200.775 641.692 0
101.802 189.355 579.974 0
198.751 190.388 571.806 0
-10.9644 -317.401 981.832 0
-37.0727 -310.439 975.103 0
-134.706 -303.119 983.376 0
264.965 -329.282 1071.48 0
272.584 -330.267 1076.11 0
-900.817 -1176.35 4231.6 0
-591.249 -1120.74 4356.54 0
-589.56 -1123.2 4346.2 0
232.601 -290.011 1152.2 0
-953.862 -735.028 3154.54 0
1129.95 -759.977 3361.8 0
1158.43 -729.516 3435.75 0
1144.73 -690.804 3403.55 0
462.36 -615.929 3267.84 0
479.318 -610.903 3363.65 0
449.316 -549.051 3342.88 0
509.627 -497.892 3138.93 0
465.136 -500.68 3256.6 0
-353.13 -185.598 1677.2 0
-388.456 -173.41 2119.08 0
217.395 -99.8394 1297.91 0
-382.581 -129.287 1720.27 0
-130.671 -159.272 2207.93 0
228.957 -78.8709 1232.2 0
-301.195 -46.1691 1616.52 0
-481.547 -41.862 1554.35 0
-300.84 -37.2618 1584.65 0
153.677 -20.9029 1241.61 0
154.622 -0.505512 1231.72 0
-158.945 60.1168 620.004 0
-175.4 70.6775 620.737 0
-124.176 75.6573 616.261 0
-118.785 76.6767 615.122 0
-113.622 77.6273 614.985 0
-181.336 89.7923 618.037 0
23.4627 104.658 590.225 0
-184.599 116.833 625.439 0
-182.888 133.63 629.183 0
64.2958 123.347 583.708 0
45.2426 130.493 591.067 0
73.9654 133.245 585.065 0
163.095 130.449 564.93 0
175.19 131.928 569.564 0
108.84 133.994 575.49 0
108.84 133.994 575.49 0
-194.676 150.136 631.765 0
-194.676 150.136 631.765 0
144.507 140.426 568.743 0
164.238 144.065 565.948 0
164.385 144.221 566.478 0
101.022 147.998 582.423 0
190.761 149.186 563.579 0
-189.077 172.8 634.057 0
-187.707 175.733 634.294 0
71.499 161.512 584.963 0
71.499 161.512 584.963 0
203.662 160.289 565.319 0
203.528 160.255 565.002 0
98.2132 164.993 584.761 0
88.3898 165.071 582.198 0
88.3898 165.071 582.198 0
-207.591 183.918 632.633 0
-194.361 185.02 636.671 0
50.1987 177.92 591.133 0
206.773 185.102 572.507 0
49.2008 -330.875 983.865 0
-98.103 -317.067 954.721 0
167.476 -330.696 1030.49 0
-222.307 -303.688 948.004 0
-141.635 -293.04 1001.08 0
-141.559 -292.815 1000.3 0
-1215.65 -1135.93 4095.51 0
1106.84 -733.037 3401.78 0
460.478 -451.07 3243.35 0
496.325 -389.481 3051.26 0
-30.7643 -235.856 1981.01 0
31.8711 -281.94 2885.65 0
-12.1427 -146.909 1520.77 0
21.0979 -237.966 2781.95 0
36.0167 -225.715 2757.41 0
50.1174 -211.475 2700.26 0
168.511 -67.0737 1201.92 0
-36.456 -81.6814 1703.03 0
124.445 -46.6034 1197.03 0
-283.298 -27.4068 1510.33 0
-307.587 -26.3219 1506.77 0
-302.05 -13.6802 1441.74 0
-192.605 -2.08372 1122.42 0
201.811 27.8915 1272.34 0
271.048 39.363 1153.95 0
271.048 39.363 1153.95 0
-193.102 59.844 626.609 0
-172.375 66.4308 622.432 0
-122.873 67.9032 614.02 0
-132.066 70.2973 616.789 0
-144.361 71.2803 618.631 0
-107.965 70.7238 611.917 0
-121.551 72.1317 614.355 0
-173.606 74.6976 623.615 0
-115.998 73.5293 613.998 0
-110.349 74.3344 613.354 0
-88.5418 74.3703 608.304 0
-101.705 75.8366 611.453 0
-86.3884 78.3985 608.853 0
-86.4273 78.3667 608.643 0
-188.52 100.398 629.415 0
155.36 99.7949 587.158 0
-179.267 111.689 628.864 0
155.17 102.66 564.753 0
171.762 105.975 552.816 0
-194.694 121.991 630.369 0
-181.404 124.629 629.678 0
161.867 112.016 565.874 0
58.8755 114.079 582.233 0
157.151 124.469 570.794 0
67.8583 127.411 572.029 0
66.878 137.77 586.517 0
-218.345 164.165 637.268 0
104.872 147.754 581.282 0
-197.757 167.418 631.102 0
-193.556 172.912 633.513 0
111.462 162.083 579.339 0
68.7769 178.797 586.716 0
192.999 191.189 570.676 0
200.72 193.745 569.757 0
-455.193 -1113.51 4355.22 0
1122.51 -698.418 3391.51 0
1132.79 -369.512 3390.5 0
45.2389 -121.688 1644.86 0
-489.755 -39.7247 1531.68 0
-348.328 -37.4881 1577.22 0
-323.409 -36.9867 1579.89 0
-382.067 -24.7251 1424.31 0
-312.551 -24.541 1464.08 0
-129.813 63.0035 616.801 0
-143.351 64.5247 618.992 0
-143.511 64.5139 618.614 0
-127.398 71.1584 615.416 0
-185.52 87.5528 626.351 0
-176.313 98.296 625.806 0
-209.781 110.107 630.562 0
26.466 114.53 592.88 0
154.094 135.461 569.668 0
100.485 140.381 581.964 0
93.8884 143.687 580.289 0
87.9467 150.291 585.543 0
-191.766 164.508 630.798 0
-191.964 164.885 632.006 0
113.015 156.3 579.54 0
110.671 166.453 581.226 0
107.956 183.862 583.642 0
-181.157 211.803 636.545 0
309.53 -354.61 1069.07 0
298.859 -349.029 1074.1 0
187.61 -334.965 1057.01 0
-300.642 -289.931 913.802 0
-292.051 -293.986 936.885 0
-1196.6 -1216.24 4150.01 0
-811.608 -1116.39 3988.69 0
-21.9485 -285.247 1016.41 0
-83.0838 -844.408 3859.77 0
522.826 -433.131 3222.95 0
-374.1 -113.93 1653.45 0
143.885 -77.871 1271.19 0
160.43 -65.8745 1221.4 0
-388.905 -54.4331 1640.66 0
122.363 -14.3878 1231.44 0
-424.578 -14.0941 1386.1 0
297.25 80.4948 987.108 0
-139.616 55.9068 614.962 0
275.32 97.9099 928.219 0
-149.858 66.5277 618.9 0
-149.753 66.4841 618.752 0
-156.715 69.8645 620.843 0
-76.098 78.404 606.852 0
-179.647 104.706 628.333 0
24.197 131.148 594.799 0
101.293 130.855 577.292 0
118.876 149.657 579.775 0
98.9517 160.284 583.138 0
-204.945 195.032 638.268 0
299.757 -363.819 1068.86 0
-145.977 -296.319 986.87 0
-61.4997 -292.274 1012.04 0
-420.43 -1184.3 4431.06 0
282.622 -299.546 1133.95 0
43.5641 -233.079 1032.19 0
519.171 -515.727 3112.77 0
-387.212 -183.794 1907.91 0
-327.441 -174.587 2089.13 0
1102.52 -257.715 3138.94 0
-381.138 -141.005 1782.86 0
195.499 -91.8101 1283.73 0
147.991 -11.0031 1243.65 0
184.541 26.0818 1260.16 0
70.1974 140.065 582.915 0
193.37 174.969 567.989 0
-534.625 -1182.76 4367.25 0
-369.434 -308.745 2032.37 0
-77.9922 -177.99 1418.66 0
-381.634 -164.479 1738.33 0
-110.506 77.8206 612.342 0
19.3957 100.252 590.727 0
166.102 113.933 562.847 0
-190.953 214.348 639.559 0
-190.953 214.348 639.559 0
152.929 -85.8096 1263.2 0
-375.544 -91.8942 1687.51 0
-208.155 95.2233 630.26 0
24.257 121.824 595.114 0
-191.679 151.709 634.173 0
185.679 166.416 569.522 0
111.73 -291.931 1086.97 0
51.9021 121.293 590.524 0
37.8986 126.204 591.888 0
109.073 153.264 584.979 0
32.2226 162.001 596.411 0
