ply
format ascii 1.0
element vertex 96
property float x
property float y
property float z
property uchar intensity
end_header
-449.012 -257.546 2033.41 0
952.769 -425.913 3553.18 0
948.555 -578.592 3600.5 0
396.643 -450.547 3192.59 0
806.08 -470.784 3398.34 0
804.276 -469.204 3424.22 0
3.71142 -419.869 3619.54 0
1001.42 -391.111 3490.11 0
-392.366 -99.8914 1549.28 0
-153.158 -70.2009 1371.22 0
-164.993 -71.9605 1474.48 0
824.975 -127.368 3417.46 0
634.327 -1624.83 4578 0
953.572 -567.911 3598.86 0
851.555 -496.667 3417.24 0
583.135 -392.725 3166.77 0
-3.42569 -436.427 3621.78 0
-180.951 -159.763 1538.83 0
-403.265 -93.9146 1547.06 0
788.377 -118.736 3354.23 0
-164.25 -39.5758 1461.28 0
835.149 -53.1609 3396.26 0
-72.6185 21.7039 1157.37 0
-291.579 124.95 1457.23 0
-155.659 166.457 528.603 0
644.866 -740.232 3615.79 0
687.718 -621.7 3443.56 0
785.178 -511.512 3429.48 0
707.503 -492.957 3417.87 0
-67.7804 -198.524 1703 0
316.09 -200.74 3460.37 0
315.234 -202.488 3464.26 0
854.018 -178.444 3368.81 0
833.199 -143.922 3422.14 0
-154.237 151.787 527.465 0
-111.388 166.699 522.49 0
-163.191 181.461 529.861 0
907.043 -1486.55 4107.37 0
-205.518 -268.124 939.207 0
-231.75 -264.469 930.609 0
70.845 -244.82 1051.16 0
732.424 -635.758 3585.27 0
535.485 -522.265 3269.16 0
819.552 -495.48 3400.78 0
624.387 -466.363 3326.58 0
954.246 -468.181 3460.2 0
539.305 -423.882 3173.62 0
540.447 -424.247 3178.27 0
823.587 -423.703 3440.51 0
776.283 -404.458 3353.08 0
-285.969 -103.855 1175.5 0
-70.529 8.56183 1159.52 0
-78.7594 19.4875 1203.7 0
-83.014 59.6832 1168.6 0
-132.906 160.344 524.287 0
-55.7154 164.324 517.497 0
-286.951 -274.726 899.46 0
-144.475 -274.445 945.477 0
-16.7027 -256.874 1007.73 0
463.03 -519.091 3197.3 0
790.947 -470.086 3438.13 0
839.463 -459.465 3475.03 0
776.059 -106.588 3413.67 0
-63.3033 7.63343 1153.89 0
-422.123 44.4623 1389.72 0
-154.901 164.837 528.831 0
-158.811 166.039 528.071 0
-154.167 179.548 531.203 0
110.703 -264.929 1047.4 0
803.218 -434.244 3427.45 0
970.132 -307.386 3409.57 0
-98.2624 -2.70256 1227.53 0
-79.9553 9.46431 1178.4 0
-419.479 51.0774 1413.52 0
355.758 158.823 2132.33 0
-260.457 -248.041 965.204 0
-120.313 53.2606 1203.57 0
102.076 -275.213 1046.97 0
99.159 -260.46 1051.54 0
982.367 -556.194 3594.59 0
578.62 -489.001 3310.07 0
703.377 -396.42 3285.38 0
-88.4921 -19.1782 1209.6 0
749.858 -7.52622 3156.38 0
-110.507 -2.3049 1220.71 0
-168.84 158.9 1462.51 0
844.187 -309.125 3412.37 0
788.868 -195.526 3410.86 0
759.277 -65.4733 3255.48 0
54.4153 162.824 947.182 0
634.624 -480.797 3320.21 0
737.609 -462.254 3395.12 0
824.398 -248.798 3396.82 0
828.68 -249.768 3413.97 0
-415.288 58.2943 1419.88 0
-87.8695 -9.79973 1220.44 0
