ply
format ascii 1.0
element vertex 323
property float x
property float y
property float z
property uchar intensity
end_header
1250.89 -296.617 3562.35 0
-580.077 -91.7294 2704.74 0
-70.0025 -52.0302 1819.76 0
149.06 -19.7727 1686.5 0
156.254 -19.9636 1687.37 0
8.17739 84.8026 1341.13 0
245.287 130.366 1383.27 0
97.2878 167.07 696.58 0
93.6947 168.988 693.566 0
140.363 174.6 684.275 0
145.338 176.776 682.644 0
455.928 -540.506 3790.62 0
739.193 -432.006 3696.25 0
-571.099 -313.005 3399.25 0
-845.472 -280.745 3318.75 0
-178.366 -209.197 2636.2 0
-186.761 -134.698 1895.76 0
-188.043 -135.544 1905.8 0
-163.397 -39.1557 1717.58 0
-37.7681 109.173 1659.63 0
34.8128 109.286 1655.05 0
19.789 111.712 1593.89 0
51.7477 193.139 1192.12 0
92.5212 169.232 696.632 0
98.4355 169.853 693.528 0
93.8711 171.196 693.662 0
110.545 172.779 689.639 0
62.7123 173.623 695.178 0
127.344 172.882 687.147 0
127.116 172.891 686.674 0
182.598 173.838 678.098 0
227.497 200.483 761.431 0
177.021 179.608 678.401 0
205.371 182.343 670.33 0
207.921 182.762 669.578 0
239.1 186.144 661.207 0
-104.42 317.729 1065.39 0
55.5278 236.441 707.053 0
723.394 -1576.34 4491.9 0
482.447 -518.204 3712.98 0
729.536 -447.048 3699.51 0
596.324 -394.067 3423.33 0
491.449 -332.767 2783.11 0
17.1628 -321.773 3628.44 0
-607.52 -304.019 3447.2 0
-678.275 -274.708 3323.3 0
356.085 -102.855 1466.3 0
-147.509 -39.9498 1717.92 0
-124.793 -38.0536 1717.92 0
-640.569 -31.5998 1936.92 0
-254.26 -25.877 1717.04 0
146.413 -12.1064 1686.45 0
-32.728 -3.82301 2217.02 0
-573.194 25.7168 1980.5 0
444.261 27.3172 1256.9 0
312.239 80.601 1923.04 0
-555.966 83.0564 1768.58 0
-582.135 85.8953 1809.81 0
69.4483 101.447 1639.88 0
14.4513 104.185 1687.48 0
63.9138 102.851 1655.86 0
41.8397 102.484 1610.81 0
34.3626 106.996 1703.28 0
-80.6819 111.347 1656.21 0
67.0368 112.092 1649.17 0
-285.674 121.731 1653.42 0
-154.852 120.074 1590.82 0
-425.448 167.57 1369.99 0
124.301 145.944 1141.43 0
67.8444 185.093 1216.18 0
1.31976 231.62 1392.94 0
-33.6234 235.066 1370.76 0
-51.0437 256.851 1321.96 0
-268.431 253.939 1271.14 0
-175.176 262.518 1278.99 0
139.881 172.932 684.308 0
32.7697 213.278 839.039 0
-93.0838 308.692 1073.38 0
56.8607 231.013 705.601 0
67.808 238.517 703.317 0
293.038 -228.309 1059.37 0
442.075 -538.792 3799.8 0
148.088 -507.784 3802.25 0
429.735 -436.148 3465.42 0
298.064 -126.501 1107.74 0
311.195 -118.187 1139.64 0
-1345.83 -423.628 4273.7 0
290.005 -110.381 1148.17 0
138.408 -329.848 3690.7 0
-838.977 -297.018 3378.09 0
45.3068 -299.673 3544.42 0
134.492 -293.671 3559.5 0
898.386 -300.302 3748.25 0
1367.76 -347.197 4551.8 0
-229.737 -52.1233 1801.29 0
-62.5449 -46.9238 1781.74 0
-87.6384 -27.574 1697.72 0
-47.6956 -2.51353 2204.42 0
-611.469 1.86608 1923.54 0
-38.7786 3.45222 2198.7 0
454.662 26.3846 1268.34 0
-6.22603 110.819 1663.37 0
27.4948 110.748 1637.49 0
12.4086 107.949 1546.63 0
-347.343 111.227 1582.98 0
-165.466 150.511 2110.79 0
-340.925 121.137 1608.4 0
-48.1918 119.795 1542.07 0
-406.66 121.364 1512.39 0
-131.139 123.103 1487.14 0
-190.624 127.776 1475.28 0
-462.746 135.157 1528.15 0
-181.568 114.092 1319.8 0
-215.084 129.723 1464.68 0
-411.033 143.179 1379.48 0
-433.449 164.695 1390.94 0
206.074 136.427 1088.89 0
-471.584 182.022 1430.13 0
108.361 150.278 1169.28 0
95.3341 189.946 1274.49 0
-235.949 207.642 1317.45 0
101.359 224.675 1341.63 0
-239.325 242.516 1329.88 0
-224.959 240.215 1317.56 0
-69.661 246.768 1331.35 0
30.188 258.854 1373.37 0
-240.171 248.783 1294.9 0
70.8433 174.978 696.685 0
190.882 180.543 671.047 0
190.986 180.577 670.749 0
-332.128 290.896 1077.94 0
9.27704 313.032 1137.69 0
65.937 194.337 693.674 0
-95.0455 305.944 1078.9 0
-105.575 310.045 1065.04 0
64.828 221.752 700.29 0
207.927 -191.104 1055.48 0
21.986 -185.01 1039.43 0
106.393 -177.845 1087 0
145.462 -474.746 4302.91 0
-1298.34 -422.271 4268.91 0
281.574 -106.529 1144.24 0
-41.579 -272.494 3432.54 0
1065.72 -212.932 3057.16 0
-246.673 -139.973 2098.06 0
-237.584 -37.1983 1715.86 0
-54.3543 -35.632 1770.63 0
395.515 -18.6134 1736.76 0
-39.0588 -15.5562 2188.91 0
441.018 4.71963 1328.21 0
420.814 15.5653 1321.38 0
-569.39 73.0096 1850.26 0
-545.859 76.1074 1808.42 0
-564.746 89.7449 1768.41 0
2.33529 113.148 1617.01 0
97.4032 113.311 1625.61 0
-269.775 115.044 1621.03 0
-299.83 116.705 1621.37 0
68.0047 112.149 1569.42 0
20.2004 115.819 1553.59 0
434.283 102.393 1288.23 0
-254.59 122.887 1545.12 0
-321.029 128.073 1578.4 0
-473.553 127.486 1559.85 0
-106.603 122.262 1504.4 0
-88.5187 121.878 1509.65 0
-310.61 136.781 1427.54 0
-137.823 140.698 1446.25 0
-422.426 151.463 1373.57 0
-292.003 157.563 1369.66 0
-434.974 231.282 1339.79 0
-44.6122 220.17 1291.11 0
-230.375 241.355 1304.42 0
-250.951 258.578 1188.32 0
52.9189 165.488 704.025 0
59.9795 167.453 703.407 0
122.562 168.645 686.833 0
137.45 170.44 683.712 0
144.785 171.372 682.511 0
129.755 173.817 686.184 0
121.885 176.534 688.871 0
73.0622 178.965 699.3 0
127.244 177.17 687.365 0
132.437 177.785 686.875 0
86.254 186.047 697.454 0
-342.511 301.001 1085.74 0
-342.511 301.001 1085.74 0
-111.29 302.324 1075.74 0
-95.298 304.675 1075.06 0
70.9224 202.568 700.665 0
68.0648 225.823 705.18 0
55.4071 227.699 705.647 0
68.7631 229.46 704.041 0
59.8942 234.149 699.717 0
756.616 -1558.71 4446.65 0
111.54 -188.905 1069.27 0
225.188 -185.782 1067.44 0
143.754 -431.178 4214.12 0
-1319.94 -435.668 4265.9 0
514.631 -271.431 2709.62 0
-1320.86 -408.099 4265.25 0
287.824 -104.43 1146.63 0
-242.943 -154.444 2062.09 0
-77.9164 -43.4827 1765.12 0
224.956 0.561705 2148.81 0
448.302 32.0247 1253.56 0
442.105 34.1582 1260.03 0
-582.902 66.5555 1863.1 0
436.047 75.6456 1281.82 0
32.9049 114.595 1573.01 0
8.23031 117.664 1564.04 0
-327.837 127.3 1562.36 0
148.979 121.506 1547.53 0
-420.341 131.541 1483.14 0
460.299 126.629 1290.87 0
-370.325 139.357 1415.28 0
356.2 168.802 1657.38 0
-294.656 151.237 1393.01 0
-294.656 151.237 1393.01 0
-342.711 154.475 1376.9 0
-372.753 156.326 1365.13 0
-308.903 159.425 1377.62 0
-191.511 152.688 1303.42 0
410.16 195.773 1571.37 0
-384.947 190.197 1399.19 0
99.3145 177.077 1258.45 0
-284.696 206.179 1350.46 0
72.7601 191.723 1221.26 0
-185.853 210.986 1281.58 0
-187.974 212.375 1290.56 0
-187.362 252.955 1294.5 0
-388.146 235.067 1160.28 0
-234.129 275.879 1304.71 0
-274.034 273.253 1210.24 0
-253.699 273.841 1201.66 0
115.524 164.289 690.213 0
73.7027 170.603 698.34 0
23.1583 267.203 1083.44 0
113.73 171.708 690.078 0
124.161 172.789 686.934 0
156.79 172.723 678.776 0
135.389 174.239 685.163 0
143.97 175.126 682.679 0
159.218 176.621 679.045 0
159.164 176.585 678.84 0
60.1639 205.736 705.087 0
-834.684 -320.645 3490.18 0
298.657 -153.666 2177.83 0
285.563 -111.351 2088.53 0
-234.988 -50.6077 1763.61 0
-218.863 -51.6755 1778.65 0
-572.371 -34.164 2006.86 0
-598.893 -13.2752 1925.41 0
-644.071 -7.63118 1935.92 0
-46.8383 108.607 1665.29 0
-21.8169 107.603 1666.4 0
-21.6852 107.588 1657.63 0
81.3498 111.704 1584.82 0
-72.6816 105.989 1371.56 0
-232.898 118.407 1539.41 0
-89.4457 118.617 1514.41 0
-401.818 135.151 1558.16 0
345.534 154.156 1712.52 0
-348.725 137.824 1429.48 0
-298.742 142.048 1381.31 0
-297.863 164.925 1367.36 0
79.4848 177.762 1245.95 0
74.7295 186.78 1252.5 0
48.3528 161.78 793.403 0
-386.284 253.392 1187.68 0
-268.228 253.188 1186.56 0
83.7312 144.378 676.942 0
105.206 157.777 689.239 0
102.274 166.74 693.181 0
89.4106 172.978 695.663 0
-6.4375 281.738 1131.9 0
-99.9931 308.867 1074.24 0
-856.449 -277.944 3304.6 0
-551.326 -39.045 2044.47 0
-37.5528 -11.425 2177.51 0
421.345 27.1674 1331.04 0
435.377 36.4906 1279.92 0
393.699 39.7429 1302.94 0
-190.758 113.949 1628.71 0
-157 131.266 1465.65 0
-373.667 200.918 1377.26 0
-302.55 206.965 1374.81 0
-166.574 232.132 1285.91 0
-177.575 256.124 1289.93 0
-261.744 265.764 1200.98 0
95.9109 169.15 693.42 0
169.34 175.906 676.412 0
62.1638 192.635 702.306 0
69.1979 209.432 703.305 0
-118.24 328.38 1069.42 0
398.239 -337.166 2922.65 0
-658.814 -28.4333 1944.23 0
-34.8538 93.3625 1708.83 0
-84.238 96.3168 1731.69 0
427.795 92.725 1300.91 0
-502.842 124.362 1644.15 0
-133.579 130.716 1478.55 0
-383.235 276.038 1193.47 0
6.87597 279.032 1131 0
-127.016 313.742 1043.94 0
244.164 -186.348 1130.04 0
-559.699 -314.487 3304.08 0
-684.424 -61.6322 2058.67 0
-642.576 -28.8939 1983.44 0
434.043 28.559 1282.71 0
135.384 177.694 684.039 0
151.235 179.044 681.364 0
0.493034 312.452 1138.74 0
66.2467 196.236 704.567 0
-833.281 -333.322 3441.56 0
114.165 -9.82616 1690.32 0
143.568 157.405 1542.61 0
93.4341 150.363 1287.97 0
-397.216 186.436 1372.72 0
64.9069 209.157 705.673 0
63.642 222.784 706.862 0
-74.0038 -207.873 954.936 0
153.511 -29.5396 1690.35 0
