ply
format ascii 1.0
element vertex 162
property float x
property float y
property float z
property uchar intensity
end_header
-959.065 -232.419 3320.66 0
-483.274 -80.4639 2008.92 0
-409.861 -130.485 3500.39 0
582.361 -102.688 3227.28 0
-352.026 -61.0104 2101.45 0
-483.548 -46.0959 1810.03 0
-884.195 -59.0997 2589.61 0
591.624 -13.3245 3143.43 0
481.15 -10.6926 3485.55 0
534.952 -3.98221 3338.1 0
561.941 4.743 3237.99 0
549.32 11.5781 3227.86 0
528.696 32.8525 3294.39 0
524.762 54.6246 3331.17 0
99.3678 43.5291 1475.37 0
-364.269 280.316 1248.19 0
-197.365 194.787 584.039 0
-201.152 195.735 580.81 0
674.803 -1196.49 4288.88 0
-857.31 -226.756 3298.52 0
-771.088 -170.58 3258.8 0
-545.052 -85.9206 2024.36 0
-521.191 -86.5426 2005.69 0
-562.702 -97.9871 2269.43 0
-628.214 -41.0215 1935.67 0
533.106 -73.0203 3293.95 0
-424.023 14.1097 1603.39 0
562.805 41.969 3126.28 0
546.166 49.2645 3231.74 0
567.145 92.4806 3232.63 0
523.88 101.36 3138.84 0
530.046 102.287 3170.47 0
-171.574 111.388 1590.66 0
-280.065 190.46 1568.17 0
-270.543 191.088 1564.27 0
-253.09 189.929 1544.42 0
164.947 177.927 1170.33 0
-79.3237 242.215 1280.23 0
133.031 223.71 1169.68 0
-330.192 285.47 1271.38 0
-377.938 282.394 1229.83 0
35.3185 351.746 1485.02 0
-640.948 -1421.7 4097.19 0
689.901 -1381.33 4338.32 0
1123.75 -138.923 3377.96 0
238.727 -44.2891 1135.94 0
1207.3 -130.877 3430.21 0
551.271 -99.2207 3265.32 0
1092.92 -95.6527 3184.83 0
541.484 -95.9067 3304.19 0
562.958 -86.402 3225.72 0
-524.378 -39.2152 1714.46 0
549.645 -43.7097 3275.93 0
28.7171 -11.2424 1040.96 0
543.871 -26.9223 3242.7 0
595.149 -19.0589 3104.89 0
575.205 18.8293 3159.93 0
571.835 18.6488 3142.56 0
501.503 40.8421 3398.18 0
531.152 94.5792 3234.24 0
58.7162 183.151 2678.86 0
-18.0551 127.366 1602.81 0
-30.2834 126.493 1568.1 0
63.3415 131.116 1524.85 0
-346.272 179.764 1532.27 0
-302.975 183.415 1574.71 0
126.277 153.882 1225.59 0
-294.203 186.639 1434.18 0
199.308 159.141 1212.77 0
-187.349 147.175 1102.43 0
-232.411 217.169 1072.7 0
123.429 239.209 1186.46 0
-400.417 281.849 1207.21 0
-364.899 -1394.36 4209.76 0
1148.32 -1108.78 4616.26 0
1234.76 -1081.7 4699.26 0
1361.46 -1067.66 4852.27 0
59.4553 -127.79 979.32 0
177.464 -106.603 1021.6 0
569.209 -81.3477 3359.4 0
1085.93 -31.7628 3077.3 0
530.641 -26.7628 3333.13 0
579.482 9.0049 3122.93 0
538.047 13.3925 3241.66 0
-415.824 11.8966 1629.06 0
526.397 60.1494 3223.32 0
71.9346 129.571 2864.29 0
-381.687 94.8405 1704.02 0
-494.829 149.239 1533.13 0
-441.833 159.126 1370.21 0
-289.64 189.085 1524.68 0
-184.862 157.647 1276.48 0
-425.734 177.446 1346.25 0
-270.26 189.637 1443.28 0
-181.04 229.999 1442.79 0
98.9914 219.574 1208.15 0
19.9642 313.268 1547.84 0
167.059 278.005 1222.17 0
82.5084 -1276.89 4426.52 0
234.967 -1262.46 4422.29 0
1163.82 -1061.84 4642.65 0
-88.8827 -137.144 953.889 0
-126.494 -125.12 982.104 0
-28.9539 -120.184 971.351 0
-31.1512 -108.812 970.742 0
-345.64 38.5401 1666.29 0
-512.705 175.779 1526.93 0
-315.902 181.318 1556.59 0
-401.407 175.298 1374.41 0
145.718 172.202 1163.55 0
-185.574 221.49 1419.9 0
130.718 212.994 1182.08 0
265.117 203.186 1116.39 0
-178.714 195.308 578.316 0
-177.432 -275.991 856.794 0
-200.481 -1336.51 4260.34 0
1068.81 -1304.27 4460.14 0
1121.64 -1287.84 4455.55 0
1326.92 -1229.12 4800.96 0
1289.76 -1092.37 4838.84 0
11.6064 105.954 1552.41 0
-405.264 155.829 1543.36 0
-376.865 146.374 1257.58 0
-338.384 178.039 1552.59 0
-323.055 188.486 1412.1 0
70.6525 344.684 1461.35 0
108.324 370.555 1395.77 0
-159.785 189.396 600.13 0
-35.3257 -1320.54 4326.05 0
1431.55 -1035.1 4851.23 0
-54.9249 -101.457 1006.93 0
585.306 83.8874 3198.99 0
-376.663 103.668 1635.69 0
-399.706 158.854 1617.09 0
-363.046 173.915 1550.84 0
124.128 165.977 1234.37 0
137.923 174.467 1183.04 0
10.3754 300.523 1603.64 0
-212.394 221.94 1057.55 0
149.97 272.558 1210.84 0
164.559 297.677 930.793 0
-192.289 195.238 580.789 0
289.225 -49.0146 1117.14 0
590.874 -10.1904 3098.53 0
-401.129 164.964 1398.68 0
132.66 148.268 1217 0
95.6015 170.814 1204.79 0
-206.995 192.257 1105.1 0
-100.059 207.558 988.877 0
-235.267 233.563 1068.96 0
248.942 310.857 929.847 0
-176.467 237.752 1448.19 0
118.525 229.311 1199.67 0
-260.001 243.679 1097.96 0
126.275 368.94 1361.7 0
-44.8189 -115.849 976.342 0
-380.456 128.962 1667.21 0
-188.83 90.9211 1624.1 0
134.017 158.481 1226.98 0
-151.663 221.929 1545.15 0
-31.1797 289.359 1473.64 0
-189.698 220.478 1017.93 0
