ply
format ascii 1.0
element vertex 266
property float x
property float y
property float z
property uchar intensity
end_header
-145.889 -27.3965 1753.73 0
-123.737 -29.8042 1803.43 0
104.969 1.49388 1675.12 0
64.5959 184.13 682.58 0
61.0611 186.037 679.491 0
393.016 -487.913 3708.66 0
-927.14 -251.198 3288.74 0
-319.301 -108.907 2074.1 0
-358.33 -79.7847 1823.18 0
77.639 27.9867 1680.76 0
-7.89705 123.685 1595.9 0
-88.393 130.654 1643.2 0
-29.6215 132.855 1578.53 0
118.497 136.463 1563.95 0
199.77 150.39 1372.06 0
59.831 186.296 682.533 0
65.8025 186.899 679.537 0
30.0581 190.703 680.506 0
175.725 199.615 657.57 0
-143.806 336.597 1046.9 0
-10.0766 -302.229 3647.74 0
-70.4482 -291.504 3614.59 0
-691.638 -274.081 3421.69 0
-765.823 -270.614 3391.79 0
-760.051 -245.27 3296.37 0
-189.136 -17.5071 1691.57 0
-176.613 -16.242 1700.52 0
95.1533 9.35453 1673.98 0
16.5906 133.446 1634.68 0
-336.13 143.376 1632.33 0
214.301 121.254 1348.34 0
-78.7701 255.249 1353.89 0
-66.3064 260.245 1371.43 0
-76.7213 258.048 1305.12 0
31.0401 198.232 685.099 0
-132.628 327.586 1055.13 0
618.533 -1542.73 4496.64 0
387.846 -216.025 1099.17 0
344.986 -406.926 3459.79 0
407.439 -316.697 2803.78 0
49.6116 -299.393 3679.13 0
-921.763 -267.211 3348.26 0
-54.636 -283.262 3584.79 0
-818.339 -258.341 3352.83 0
-40.728 -269.803 3531.02 0
48.1661 -263.802 3547.73 0
247.126 -82.8792 1138.31 0
-711.26 -236.392 3287.26 0
235.979 -80.3055 1122.23 0
-727.771 -220.747 3205.01 0
828.72 -198.024 2972.02 0
-72.4739 -127.553 1980.48 0
-325.888 -120.137 2107.06 0
-305.627 -116.363 2078.78 0
-248.451 -34.7138 1764.67 0
303.771 -24.5976 1479.24 0
-283.101 -29.8568 1781.98 0
-131.467 11.4892 1815.95 0
-108.544 21.4189 2188.2 0
376.319 35.1778 1313.96 0
411.157 45.733 1261.51 0
-599.19 98.6484 1782.66 0
34.4635 122.023 1640.37 0
-36.7049 125.751 1672.04 0
19.1654 122.758 1625.48 0
36.603 126.567 1629.22 0
-56.9247 132.294 1647.52 0
-390.535 142.623 1586.29 0
-204.168 141.338 1572.18 0
-96.6199 140.758 1525.42 0
-454.473 142.47 1489.07 0
-178.528 143.883 1468.94 0
-202.448 147.315 1467.44 0
-237.779 148.549 1455.96 0
-510.831 156.377 1503.73 0
-456.355 163.693 1356 0
186.037 158.032 1313.35 0
51.9165 209.598 1260.24 0
56.7214 244.623 1327.33 0
-87.3154 253.872 1361.92 0
-283.669 262.674 1309.16 0
-114.059 266.802 1313.77 0
-283.86 268.784 1274.14 0
-311.668 273.855 1249.84 0
-218.568 282.398 1259.39 0
173.044 185.078 713.327 0
89.3405 193.54 675.287 0
117.28 197.147 670.908 0
121.936 197.616 669.985 0
31.0956 211.994 684.977 0
-144.961 328.911 1046.56 0
1139.38 -1637.25 4593.64 0
253.229 -209.77 1050.71 0
168.236 -172.517 1045.07 0
66.1453 -159.039 1074.64 0
57.0635 -476.835 3791.64 0
-1445.29 -389.414 4234.85 0
-1420.16 -373.942 4226.79 0
-1421.94 -284.557 4244.22 0
-301.241 -130.997 2042.94 0
5.71961 -173.07 2749.27 0
62.8081 -130.165 2197.9 0
-296.415 -15.4902 1683.63 0
333.68 -4.68948 1566.77 0
415.385 -5.96172 2766.1 0
-99.5173 27.3521 2182.62 0
165.097 24.0345 2137.67 0
-623.499 95.7564 1824.07 0
-2.81286 127.456 1671.53 0
400.608 101.768 1276.43 0
-22.7286 132.08 1622.28 0
-396.487 132.603 1560.8 0
47.3908 134.536 1611.69 0
-47.5007 134.407 1601.31 0
19.0412 133.145 1554.97 0
-380.137 139.347 1579.19 0
-28.4572 136.78 1538.22 0
-52.0884 138.152 1521.44 0
-522.231 148.857 1535.25 0
-370.079 149.409 1556.63 0
-154.319 143.101 1486.66 0
-192.956 144.561 1441.35 0
-225.845 134.161 1300.73 0
-470.365 154.515 1445.11 0
-356.848 157.433 1405.96 0
83.0339 206.611 1510.88 0
-88.2888 240.004 1274.13 0
-118.191 260.598 1378.57 0
-274.248 261.392 1283.89 0
-279.305 275.569 1181.46 0
-214.671 284.448 1214.38 0
-292.648 278.11 1167.35 0
-172.258 294.366 1199.23 0
90.048 185.641 673.298 0
-340.689 311.511 1110.7 0
104.993 187.411 670.446 0
112.35 188.332 669.377 0
97.2565 190.805 672.759 0
102.909 191.219 671.842 0
124.423 189.657 665.86 0
40.3341 196.055 684.795 0
94.7271 194.166 673.878 0
99.9283 194.774 673.482 0
-134.85 321.112 1065.21 0
-67.1574 -196.44 937.415 0
-67.216 -196.272 937.142 0
-17.3688 -166.352 1025.54 0
71.6117 -170.182 1057.06 0
185.276 -167.155 1057.32 0
45.137 -398.38 4203.01 0
444.061 -245.666 2704.97 0
-947.668 -237.74 3220.79 0
364.066 49.4765 1318.06 0
405.077 51.3117 1246.59 0
398.762 53.4789 1252.94 0
-49.338 119.834 1686.25 0
392.336 95.0683 1274.42 0
-319.637 136.532 1600.27 0
-40.618 138.681 1548.45 0
390.476 121.845 1280.67 0
-376.588 148.57 1540.48 0
-136.335 142.727 1492.24 0
-243.913 163.509 1627.69 0
-467.599 152.527 1459.53 0
-135.661 151.318 1473.48 0
-159.188 160.225 1445.97 0
-416.323 160 1392.58 0
-196.509 162.886 1443 0
-378.969 174.894 1375.52 0
-387.987 174.924 1354.64 0
-417.804 176.745 1342.32 0
-337.151 177.941 1348.34 0
-235.449 172.691 1284 0
-342.96 185.297 1345.9 0
-225.973 202.837 1340.95 0
-418.905 221.392 1354.23 0
-329.447 226.464 1329.07 0
-229.335 230.886 1262.01 0
-231.622 232.317 1270.94 0
-231.049 272.914 1274.71 0
-277.978 295.919 1283.95 0
-316.121 292.901 1188.76 0
82.9453 181.306 676.565 0
27.1674 184.572 688.71 0
40.9852 187.689 683.885 0
81.1599 188.726 676.364 0
85.8053 189.232 674.759 0
91.6484 189.785 673.41 0
111.535 192.087 669.513 0
126.799 193.517 665.951 0
39.2265 219.844 686.175 0
27.3533 222.863 690.222 0
652.605 -1525.33 4451.94 0
-1419.75 -401.637 4228.82 0
-1419.27 -401.508 4227.58 0
226.719 -88.1941 2079.02 0
-544.97 -24.1949 2060.75 0
-130.626 -21.4957 1748.6 0
-609.145 -15.4405 2019.08 0
-629.482 -10.7118 1981.06 0
-97.5675 130.121 1648.7 0
-72.5718 129.102 1650.27 0
-72.2772 129.048 1641.51 0
32.0974 132.759 1570.61 0
-16.1171 135.634 1557.89 0
-241.375 142.978 1489.97 0
-450.471 156.459 1534.87 0
293.898 175.578 1703 0
441.164 148.578 1318.09 0
-251.629 165.249 1398.57 0
-344.118 162.483 1359.93 0
361.172 216.512 1562.9 0
36.5901 197.298 1231.47 0
30.3377 211.154 1206.6 0
-225.304 283.948 1260.67 0
-309.893 272.726 1165.29 0
72.6408 174.798 675.429 0
-47.1077 300.828 1115.38 0
69.6446 183.781 679.276 0
69.4671 183.767 678.905 0
56.7422 190.04 681.49 0
32.89 205.523 690.777 0
-139.552 327.771 1055.87 0
146.584 -163.074 1082.09 0
323.672 -310.355 2916.09 0
-919.576 -290.338 3460.51 0
238.114 -130.118 2168.74 0
427.827 30.03 1334.41 0
376.68 46.8225 1323.57 0
349.572 59.2933 1294.91 0
-104.044 119.459 1706.53 0
-240.778 135.41 1609.42 0
-284.17 139.862 1517.88 0
423.278 147.451 1306.74 0
-347.749 227.373 1353.07 0
-210.123 252.037 1266.61 0
-221.176 276.055 1270.31 0
13.8646 179.312 778.499 0
-303.668 285.361 1179.77 0
63.2798 186.197 679.385 0
137.018 192.82 663.716 0
36.422 226.544 688.591 0
-937.85 -248.452 3274.37 0
-423.518 45.1407 2106.87 0
-136.206 118.157 1714.44 0
383.745 112.239 1293.28 0
-180.802 151.459 1460.27 0
-203.979 151.97 1446.94 0
-51.5251 245.989 1362.68 0
-33.7821 298.108 1114.74 0
-157.236 333.971 1042.88 0
-166.002 332.531 1025.05 0
91.7648 -184.724 1018.95 0
390.276 47.9877 1275.48 0
118.827 195.994 668.316 0
-40.2793 331.567 1122.21 0
9.71794 220.657 692.284 0
153.46 -177.05 1050.44 0
62.8417 11.677 1677.25 0
384.831 38.0294 1315.52 0
49.7322 170.076 1273.86 0
30.6104 226.908 1175.18 0
32.047 226.42 691.425 0
102.164 -8.0665 1678.09 0
-442.378 206.908 1349.31 0
394.917 222.939 1272.35 0
