ply
format ascii 1.0
element vertex 327
property float x
property float y
property float z
property uchar intensity
end_header
-1028.86 -1217.84 4298.41 0
-309.617 -795.686 3528.42 0
-3.42684 -826.039 3688.85 0
30.0523 -679.197 3541 0
-561.433 -369.395 1945.97 0
-533.68 -318.141 1798.98 0
-446.008 -229.559 1536.07 0
408.811 -349.453 3212.11 0
-415.99 -216.661 2062.42 0
-430.64 -214.105 2097.91 0
-149.627 -158.745 1574.97 0
-95.7223 47.7711 596.346 0
-120.699 -1011.69 4113.99 0
-104.94 -948.431 3877.23 0
17.2976 -798.554 3606.47 0
99.9707 -774.562 3515.22 0
-206.949 -700.217 3328.51 0
-1070.36 -629.994 3220.97 0
-5.55888 -670.29 3632.22 0
514.444 -544.646 3119.04 0
83.7861 -466.527 2738.45 0
452.162 -475.329 3093.57 0
-433.547 -233.618 1575.04 0
1232.26 -520.813 3534.63 0
-411.683 -227.996 1578.2 0
434.812 -450.865 3186.55 0
-387.509 -231.519 2079.23 0
-390.197 -214.503 2070.87 0
-136.175 -162.677 1586.97 0
-386.139 -206.687 2051.02 0
-169.169 -141.622 1593.79 0
1070.6 -178.702 3448.08 0
203.659 -53.1352 1213.75 0
-91.2333 49.4085 596.974 0
-70.3236 102.802 985.489 0
21.1855 82.2623 587.321 0
24.0671 84.4462 600.292 0
24.0671 84.4462 600.292 0
31.9155 85.0388 585.555 0
114.929 128.418 576.54 0
-264.577 -794.52 3550.13 0
67.7657 -779.825 3494.6 0
-240.5 -759.654 3412.21 0
28.1688 -788.499 3582.26 0
19.405 -782.679 3595.78 0
-581.014 -371.486 1972.81 0
-564.554 -361.8 1936.63 0
518.165 -559.032 3119.78 0
114.268 -459.546 2803.76 0
-539.688 -266.581 1658.07 0
-457.128 -239.553 1577.24 0
-422.693 -231.007 1567.79 0
-384.037 -230.721 1630.05 0
482.344 -376.313 3251.65 0
127.543 -181.821 1633.26 0
1161.19 -391.884 3468.84 0
-267.192 -174.146 1612.38 0
-395.845 -223.761 2072.49 0
-250.308 -165.159 1572.6 0
110.842 -149.862 1481.8 0
-146.985 -156.527 1584.79 0
-394.519 -196.397 2085.6 0
419.546 -290.465 3219 0
-93.2682 -226.876 2838.35 0
-99.7267 -194.812 2644.98 0
1068.01 -187.227 3399.22 0
260.054 -46.9319 1236.04 0
-258.252 -58.2267 1496.79 0
-195.053 -40.7097 1170.74 0
-97.3208 47.7112 599.223 0
-95.9348 49.9735 596.492 0
-127.821 54.582 598.517 0
-62.6563 57.3905 594.683 0
-50.041 59.6098 593.603 0
16.5856 80.9278 587.144 0
116.211 113.769 575.024 0
159.266 128.349 570.93 0
101.405 140.358 581.541 0
107.419 143.855 577.516 0
-953.231 -1285.12 4168.18 0
243.989 -309.087 1045.6 0
-1036.16 -1188.71 4098.59 0
-307.01 -792.676 3570.83 0
3.29824 -798.331 3628.65 0
93.7475 -210.547 1070.65 0
91.4102 -203.74 1089.7 0
-536.41 -282.822 1645.03 0
-543.038 -268.363 1632.22 0
-377.011 -512.46 3449.67 0
449.123 -473.266 3165.96 0
441.999 -452.703 3148.13 0
-402.534 -225.949 1623.45 0
-403.671 -245.914 2002.09 0
69.5285 -175.835 1555.73 0
463.267 -331.16 3173.93 0
-398.29 -207.272 2071.88 0
-407.664 -197.14 2071.06 0
-399.194 -189.588 2066.7 0
57.5216 -147.968 1619.49 0
1088.47 -303.399 3417.47 0
96.4153 -121.876 1462.63 0
81.321 -113.729 1556.16 0
213.103 -54.0484 1217.46 0
250.039 -52.4962 1238.82 0
-358.063 -55.0856 1384.74 0
162.34 -40.8507 1235.39 0
151.654 -7.61967 1272.94 0
151.654 -7.61967 1272.94 0
186.548 0.878999 1228.8 0
179.148 3.73127 1214.2 0
14.2037 80.1899 588.917 0
-143.752 102.403 603.908 0
-137.295 111.252 611.016 0
-134.019 111.687 603.246 0
93.6271 121.087 580.898 0
137.664 122.178 572.315 0
-150.27 135.035 606.18 0
106.482 132.091 589.973 0
-153.737 137.197 607.166 0
102.558 131.567 580.127 0
-144.562 150.037 607.042 0
-144.783 150.306 607.694 0
-151.261 161.662 609.063 0
-147.467 162.127 606.724 0
-156.108 176.703 607.245 0
-152.55 -325.014 924.799 0
-68.4446 -315.097 966.674 0
55.8612 -316.468 974.699 0
-77.4526 -305.16 981.777 0
-913.381 -1271.51 4146.86 0
-913.381 -1271.51 4146.86 0
-1293.43 -1232.8 4000.59 0
230.462 -310.813 1036.89 0
-987.476 -1239.33 4160.67 0
323.854 -298.987 1085.1 0
-262.367 -811.031 3541.81 0
82.0233 -210.961 1070.38 0
-345.808 -718.356 3674.56 0
-587.303 -304.107 1916.47 0
262.558 -156.14 1044.23 0
-387.694 -239.603 1651.84 0
-374.454 -210.828 1563.45 0
491.436 -422.994 3180.86 0
-421.027 -236.505 2073.06 0
-433.508 -206.051 2051.18 0
-420.559 -204.115 2077.86 0
60.1567 -143.225 1578.47 0
451.105 -287.743 3419.54 0
185.949 -78.8241 1270.9 0
235.692 -74.0698 1303.78 0
-483.105 -87.0792 1505.78 0
239.35 -67.0968 1256.36 0
-334.39 -74.9835 1570.18 0
-308.57 -72.1872 1581.45 0
-306.69 -63.5248 1549.57 0
-226.562 -60.6212 1436.52 0
-242.453 -45.1534 1507.31 0
-119.465 49.7916 596.349 0
-118.32 53.9971 599.293 0
-68.8337 60.0286 595.679 0
-63.5055 61.5936 594.936 0
-106.383 63.2209 599.37 0
-127.112 68.1667 592.917 0
-41.5962 68.3974 594.735 0
-37.0122 69.6684 594.383 0
-133.699 94.7756 599.64 0
-126.41 125.568 604.716 0
-147.607 126.898 604.679 0
-147.607 126.898 604.679 0
152.289 129.988 575.503 0
95.4708 131.967 582.523 0
117.544 133.071 578.338 0
159.376 141.937 571.742 0
159.376 141.937 571.742 0
-143.524 153.099 607.337 0
-158.464 159.822 610.274 0
194.603 151.987 567.611 0
-160.868 162.842 611.262 0
149.65 155.105 577.851 0
156.627 166.517 573.709 0
114.847 183.308 582.282 0
146.354 196.299 574.839 0
116.76 -323.609 981.475 0
42.2568 -293.181 980.591 0
-1136.7 -1859.2 6248.36 0
-767.255 -1248.9 4190.19 0
-703.206 -1235.92 4311.45 0
-5.41545 -296.33 1081.75 0
-695.777 -1150.97 4307.77 0
-693.056 -1153.31 4297.63 0
-1002.9 -813.791 3076.09 0
94.0816 -837.478 3490.38 0
-278.903 -875.837 3729.44 0
73.6679 -208.421 1065.38 0
-217.827 -340.21 2204.13 0
-376.73 -146.877 1613.8 0
-11.5228 -180.982 2703.74 0
43.1581 -157.659 2707 0
-394.865 -84.5448 1525.2 0
-353.192 -68.7335 1538.57 0
-49.0016 -79.3938 1688.24 0
-328.736 -65.6288 1543.11 0
-327.429 -65.3174 1534.45 0
191.202 -47.2589 1203.88 0
-310.366 -52.9715 1428.27 0
-308.534 -53.9149 1471.24 0
-162.603 -13.7824 1431.04 0
-97.2013 23.6372 594.133 0
-129.709 40.3469 601.417 0
-102.003 40.9908 597.022 0
-116.158 45.8943 598.332 0
-14.3961 51.6012 603.22 0
-66.5711 52.4355 593.662 0
-76.1472 53.8826 595.692 0
-65.7211 56.7806 594.032 0
-51.9161 56.7727 592.649 0
-60.3306 58.7445 594.073 0
-44.7483 58.945 592.483 0
-54.7624 60.1268 593.846 0
235.821 100.887 988.626 0
-58.4725 63.074 595.175 0
-46.1989 62.5041 592.581 0
-32.7517 62.3891 590.458 0
-31.0728 66.623 591.106 0
-31.0921 66.5857 590.895 0
-136.201 78.0526 603.558 0
-128.145 90.2383 603.536 0
-131.658 102.893 603.989 0
77.7088 104.723 581.917 0
208.137 112.838 587.409 0
81.3682 126.68 581.663 0
115.666 126.784 576.734 0
111.778 128.048 575.963 0
-152.39 143.762 603.522 0
-148.45 144.778 602.424 0
116.527 141.417 579.51 0
-148.974 149.68 606.16 0
-163.959 159.163 604.055 0
-177.775 156.574 586.418 0
-169.287 175.691 612.61 0
158.79 170.174 575.35 0
92.6049 194.196 580.574 0
92.6049 194.196 580.574 0
-1003.46 -1259.52 4131.21 0
248.834 -312.774 1064.92 0
39.006 -285.376 1007.85 0
-561.49 -1129.67 4316.63 0
117.245 -775.107 3381.13 0
-590.078 -293.895 1917.53 0
1202.77 -434.626 3456.04 0
-446.997 -187.557 1999.36 0
-489.726 -85.9714 1482.52 0
-400.401 -62.1465 1366.46 0
-376.237 -60.6615 1383.37 0
-354.761 -58.6694 1399.71 0
-299.356 -41.2431 1406.63 0
52.3313 55.7885 1546.12 0
-95.5978 25.3214 604.667 0
-335.608 84.5796 1205.36 0
-86.9137 46.9861 597.124 0
-87.0422 46.9559 596.735 0
-73.1634 46.8623 595.985 0
-131.668 65.566 600.925 0
-123.601 77.2026 600.913 0
-158.373 85.5098 602.948 0
-127.37 89.9977 601.776 0
-163.589 110.364 599.763 0
78.3538 114.155 583.155 0
78.3159 114.012 582.651 0
125.577 124.442 572.401 0
-146.126 141.488 603.716 0
-146.454 141.851 604.9 0
153.581 155.253 577.008 0
160.91 164.585 575.756 0
157.411 174.452 577.105 0
229.408 -79.1512 1296.2 0
-396.555 -89.3338 1599.02 0
181.571 -46.7624 1222.67 0
128.413 -14.4857 1219.1 0
209.05 51.1629 1275.16 0
99.1702 65.7761 1499.93 0
-82.013 38.7732 593.519 0
-93.5658 48.3022 596.51 0
-100.859 50.9232 597.879 0
-127.902 61.8695 604.492 0
83.3672 97.6356 582.298 0
70.497 109.334 588.574 0
-142.174 132.775 605.854 0
74.2455 130.462 584.644 0
-148.919 141.88 610.742 0
167.388 158.588 576.534 0
-162.911 170.533 609.703 0
362.115 -329.744 1085.65 0
0.840755 -296.502 1000.61 0
370.843 -319.57 1086.45 0
166.854 -277.631 1088.41 0
333.513 -267.122 1148.27 0
-402.059 -215.86 1867.57 0
193.043 47.4812 1261.74 0
320.162 111.299 997.182 0
-20.7147 67.6819 589.888 0
-127.762 83.2499 603.084 0
-178.69 137.214 616.32 0
-287.882 -294.053 1920.07 0
-420.244 -106.414 1868.11 0
181.229 -54.8976 1225.16 0
161.88 6.68285 1243.08 0
214.006 84.7794 1013.07 0
-435.483 -1066.72 4094.9 0
124.939 -157.165 1457.61 0
-96.0171 39.8819 599.486 0
-39.5875 67.6125 592.328 0
-132.224 82.1874 604.833 0
-135.913 95.3681 605.996 0
72.9768 99.205 580.691 0
75.2408 121.197 585.105 0
-144.981 128.792 607.282 0
103.064 123.505 582.625 0
70.0768 139.188 586.859 0
-151.121 191.205 611.753 0
-151.121 191.205 611.753 0
54.2185 -294.973 1017.57 0
-529.111 -403.578 2004.03 0
-155.206 70.8739 602.996 0
88.5661 126.946 582.851 0
78.9052 161.992 586.387 0
156.896 161.196 580.927 0
