ply
format ascii 1.0
element vertex 186
property float x
property float y
property float z
property uchar intensity
end_header
-386.978 -127.675 1870.22 0
-264.992 -52.2967 1682.81 0
-966.903 -379.768 3237.41 0
-902.308 -304.04 3016.46 0
-768.401 -320.766 3222.86 0
-275.271 -159.451 1905.71 0
-338.644 -150.999 1811.55 0
-756.73 -235.495 2898.79 0
-398.62 -160.794 2013.66 0
737.694 -212.322 3188.35 0
752.597 -120.661 3042.34 0
-582.02 -61.4953 1706.39 0
699.99 -29.8141 3225.3 0
223.926 35.8756 1481.46 0
-113.684 154.073 600.717 0
-117.576 154.99 597.604 0
-905.17 -710.176 3707.58 0
-19.4201 -475 3671.59 0
-805.508 -335.723 3242.27 0
-731.688 -342.693 3367.64 0
-780.126 -308.562 3149.49 0
242.437 -335.286 3533.02 0
826.302 -198.233 3066.84 0
-121.838 -210.086 3551.73 0
821.633 -184.178 3065.42 0
-291.101 -99.5639 1834.09 0
214.221 -25.7821 1473.71 0
704.047 -67.3057 3220.49 0
795.018 -6.89075 3187.12 0
719.827 13.9258 3226.67 0
-259.395 17.5672 2119.07 0
-39.0473 34.6764 1597.98 0
172.986 43.6575 1552.55 0
-60.3062 49.1251 1604.24 0
-238.179 114.005 1551.73 0
-166.952 173.74 1106.24 0
-118.817 155.096 600.651 0
-336.448 265.277 969.883 0
-336.285 264.947 968.5 0
909.608 -1480.14 4295.07 0
-859.002 -359.186 3300.1 0
741.376 -227.193 3210.09 0
-419.023 -93.08 1702.44 0
709.89 -178.813 3255.35 0
720.229 -164.808 3215.78 0
-412.762 -88.8941 1727.46 0
-36.0971 -85.3099 2127.7 0
-342.156 -64.7101 1635.21 0
758.002 -112.497 3114.17 0
-309.676 -55.2359 1620.95 0
747.56 -93.954 3095.76 0
693.081 -66.1044 3234.6 0
798.574 -58.9908 3119.7 0
728.008 -57.8504 3152.13 0
724.208 -57.7375 3134.84 0
683.843 15.0095 3229.2 0
764.136 30.3067 3108.98 0
729.153 56.7111 2892.35 0
195.362 102.993 2687.79 0
172.267 76.6822 1533.13 0
185.612 71.2301 1444.49 0
186.348 93.8976 1483.39 0
227.008 107.775 1233 0
-164.725 127.909 1461.15 0
-141.94 132.58 1475.06 0
-76.651 170.682 1459.39 0
230.488 178.982 1178.56 0
-91.7671 168.525 592.666 0
-152.632 173.681 602.453 0
-158.27 186.457 604.402 0
161.517 -170.084 982.091 0
72.7636 -164.708 976.476 0
70.2497 -153.389 976.181 0
-342.706 -480.61 3309.29 0
85.6857 -143.763 987.94 0
-1435.12 -590.188 4196.15 0
-1389.12 -578.296 4191.47 0
76.2325 -434.538 3632.97 0
-1436.2 -482.461 4200.79 0
-410.043 -106.011 1715.45 0
130.589 -52.1191 1065.33 0
731.611 -66.7328 3114.82 0
202.238 -15.8528 1782.66 0
-230.079 30.402 2108.3 0
-385.802 79.4431 1555.55 0
-372.622 77.6269 1218.87 0
-194.813 114.861 1452.28 0
-206.784 120.742 1522.31 0
-182.025 125.027 1542.97 0
-102.544 131.487 1507.15 0
47.8744 211.855 1492.23 0
-141.231 155.765 600.361 0
-128.744 170.068 600.673 0
-75.1561 165.904 587.85 0
-56.7701 172.298 582.882 0
-157.743 200.064 601.779 0
-168.341 203.946 606.822 0
1289.28 -1395.53 4409.25 0
-154.08 -234.86 873.172 0
294.275 -143.465 1028.74 0
-1414.22 -569.786 4187.08 0
-1023.19 -431.31 3440.9 0
142.656 -67.7581 1025.72 0
-230.409 -30.084 1682.44 0
192.507 77.8793 2765.37 0
204.167 90.1277 2739.12 0
213.349 101.276 2680.31 0
228.774 114.3 2690.19 0
-207.257 115.845 1575.33 0
301.929 112.278 1266.43 0
244.383 127.986 1170.94 0
-305.479 217.64 1295.58 0
-150.199 146.275 607.385 0
-89.2914 160.914 590.998 0
-94.232 163.508 592.371 0
-88.6751 165.313 590.913 0
-132.453 172.218 599.778 0
-78.044 169.196 589.117 0
-68.2068 168.423 586.633 0
-69.8538 171.897 586.624 0
-55.3343 176.598 582.776 0
1341.53 -1377.57 4403.74 0
1345.03 -1398.68 4542.71 0
-192.861 -192.586 928.381 0
-1407.51 -596.548 4190.26 0
-1407.08 -596.368 4189.01 0
-98.8023 -441.684 4408.02 0
-405.039 82.2008 1384.61 0
-333.842 76.2822 1205.75 0
-254.318 107.292 1570.58 0
-229.738 112.046 1571.81 0
-225.87 115.648 1454.95 0
-194.666 121.699 1499.6 0
-218.24 126.015 1431.26 0
-95.2046 155.228 594.55 0
-140.011 160.264 602.797 0
-122.682 157.991 599.499 0
-36.3968 -167.353 993.057 0
-387.094 -82.6975 1690.61 0
737.356 6.57676 3192.4 0
-263.916 34.8389 1654.11 0
-395.176 78.1868 1533.27 0
-392.146 83.4237 1216.28 0
-295.974 100.683 1419.24 0
211.844 119.084 1236.69 0
224.759 119.61 1242.11 0
-408.524 121.903 1216.04 0
237.025 129.607 1190.67 0
-132.831 143.357 1092.95 0
-393.63 183.5 1185.47 0
-117.485 170.31 1074.95 0
-6.57427 160.512 1003.22 0
-140.365 181.052 1087.18 0
247.154 227.348 1220.39 0
172.288 291.725 1474.35 0
-108.705 154.734 597.355 0
-115.452 155.644 597.459 0
-153.765 171.221 605.129 0
-150.737 189.204 605.376 0
47.2087 -147.487 1013.1 0
392.511 -88.1661 1115.97 0
742.891 -85.0661 3089.71 0
-259.474 -8.44838 1743.12 0
28.7854 -1.37856 1409.31 0
-225.217 15.2703 2087.83 0
-261.038 18.6933 1785.49 0
-288.881 89.7768 1637.34 0
-363.949 95.4917 1369.71 0
-341.196 100.845 1382.7 0
195.378 124.323 1213.36 0
-237.321 217.865 1279.32 0
-164.62 189.848 1117.01 0
-63.6484 177.302 585.156 0
56.9197 -160.918 981.953 0
220.928 -112.475 1078.05 0
-267.585 59.3158 1686.28 0
234.655 112.551 1234.31 0
-144.275 133.464 1429.48 0
72.3064 233.394 1487.88 0
-154.887 188.066 607.739 0
-159.224 201.089 608.292 0
-28.2363 19.5009 1602.71 0
-76.1627 27.4607 1637.61 0
-180.606 135.955 607.311 0
202.185 292.833 1183.32 0
-177.178 175.456 609.645 0
