ply
format ascii 1.0
element vertex 373
property float x
property float y
property float z
property uchar intensity
end_header
4.54321 -1266.33 4392.95 0
529.181 -1173.46 4129.43 0
864.65 -921.469 3564.05 0
271.778 -916.845 3588.02 0
626.504 -899.082 3556.05 0
562.923 -907.375 3782.98 0
200.132 -206.039 1667.18 0
-17.2662 -260.581 2215.07 0
20.1181 -254.136 2162.2 0
224.004 74.3939 664.763 0
233.447 -335.049 1039.66 0
-366.092 -1277.75 4252.51 0
-420.339 -1205.89 4045.07 0
-354.2 -1322.73 4443.49 0
-688.624 -1049.53 3672.93 0
605.483 -946.791 3614.81 0
227.496 -1271.38 4902.7 0
213.457 -927.663 3601.49 0
607.19 -930.616 3604.51 0
872.217 -910.615 3511.08 0
609.856 -917.143 3595.96 0
569.844 -949.169 3767.14 0
552.469 -910.456 3781.99 0
551.629 -909.903 3780.01 0
617.509 -825.667 3552.53 0
573.436 -848.699 3724.38 0
596.82 -818.594 3648.39 0
-752.137 -671.318 3282.6 0
-727.866 -639.916 3205.65 0
-547.634 -639.041 3267.34 0
-199.425 -383.951 2067.28 0
-530.963 -518.637 2954.84 0
-66.6151 -333.147 1959.87 0
-306.667 -318.049 1984.93 0
-589.07 -305.902 1921.2 0
-565.711 -287.492 1904.49 0
73.9338 -209.311 1711.97 0
112.101 49.2373 690.362 0
109.205 50.9022 691.635 0
195.281 82.4206 1072.74 0
76.6765 56.9334 697.69 0
152.986 56.617 681.08 0
158.063 61.037 679.661 0
219.34 73.4016 665.246 0
37.9433 137.95 1158.05 0
-211.706 178.832 805.543 0
126.541 -583.128 1733.59 0
-71.1294 -326.182 986.012 0
-727.777 -1060.14 3709.52 0
565.615 -977.546 3695.75 0
675.112 -924.448 3512.88 0
613.341 -936.397 3589.6 0
-14.1022 -864.166 3363.02 0
549.402 -935.583 3821.73 0
603.232 -861.679 3596.9 0
568.811 -810.053 3702.17 0
533.692 -723.838 3407.89 0
576.621 -566.398 2734.53 0
-582.763 -680.387 3358.48 0
-641.084 -673.387 3343.09 0
-586.06 -650.904 3286.32 0
65.6646 -388.612 2117.37 0
57.2369 -414.173 2260.96 0
429.034 -278.884 1527.08 0
426.78 -262.321 1536.23 0
264.825 -231.571 1610.85 0
12.4503 -271.477 2184.27 0
189.629 -199.034 1666.91 0
11.1066 -256.799 2198.28 0
17.8604 -244.933 2198.01 0
-517.166 -172.37 1761.07 0
-526.498 -166.488 1761.46 0
48.0353 -95.2137 1677.45 0
349.998 -109.398 1908.4 0
74.3967 -88.9498 1600.66 0
96.9798 -89.8926 1645.45 0
118.177 -90.1084 1643.74 0
59.7574 -83.932 1627.98 0
-76.675 -74.7051 1497.1 0
-407.528 -53.1778 1389.51 0
-446.481 -42.1584 1430.15 0
-215.582 12.2161 1317.88 0
72.724 35.5864 695.885 0
53.4043 65.0936 900.371 0
149.372 57.2254 724.675 0
44.9245 76.0758 839.151 0
74.5998 109.413 703.603 0
72.3286 110.062 701.717 0
66.527 112.432 713.901 0
-212.423 177.796 797.508 0
59.6244 180.209 715.075 0
52.4374 178.899 706.647 0
37.9502 194.134 725.296 0
69.1213 199.353 714.364 0
-1199.77 -1303.47 3916.46 0
-31.0491 -1246.86 4334.31 0
-417.358 -859.865 3072.25 0
595.038 -946.625 3638.87 0
280.959 -916.054 3629.61 0
625.053 -889.733 3585.29 0
543.022 -905.227 3794.56 0
264.106 -844.18 3740.69 0
333.749 -245.119 1121.82 0
338.078 -241.722 1124.31 0
478.932 -632.621 3015.02 0
315.991 -228.998 1090.53 0
-743.418 -691.199 3340.53 0
-463.525 -682.228 3440.17 0
-185.001 -390.471 2071.01 0
237.356 -660.199 3642.54 0
215.581 -626.096 3530.87 0
-179.946 -280.261 1781.35 0
-207.841 -250.262 1699.43 0
1150.81 -507.396 3451.49 0
-41.9937 -235.858 1678.79 0
-13.274 -282.401 2188.24 0
11.2343 -254.844 2184.64 0
2.6615 -244.042 2185.64 0
10.9423 -236.915 2180.31 0
-308.53 -104.002 1602.5 0
-275.054 -90.9447 1486.13 0
-223.568 -90.0779 1538.87 0
-30.9054 -61.5694 1076.05 0
-282.221 -72.72 1423.04 0
-185.935 -73.9904 1458.85 0
-125.593 -73.4278 1479.52 0
-17.7525 -74.725 1534.04 0
-3.15987 58.2272 1389.06 0
-15.5131 60.0795 1323.08 0
-236.776 70.8258 1192.94 0
84.2131 51.6667 694.093 0
105.785 52.1121 691.915 0
37.9414 143.938 1170.04 0
-86.8214 135.453 1090.38 0
-87.147 139.537 1086.11 0
-87.3412 138.532 1082.18 0
65.5115 105.459 707.192 0
75.728 114.045 705.38 0
61.972 138.328 711.618 0
-160.265 184.231 937.146 0
58.871 140.683 713.202 0
68.8952 152.826 712.136 0
-189.579 182.019 784.957 0
63.5029 164.79 715.582 0
54.4564 166.548 719.27 0
66.9264 165.093 712.706 0
54.3064 169.286 718.383 0
-183.354 208.728 734.336 0
-177.176 210.177 723.295 0
345.841 -355.596 1024.61 0
71.79 -335.044 1009.93 0
161.749 -333.17 1038.73 0
155.902 -323.917 1057.26 0
241.152 -312.391 1057.25 0
-19.3079 -1280.36 4404.03 0
-18.3332 -1282.41 4393.51 0
-1251.38 -1113.9 4202.09 0
549.051 -949.419 3786.48 0
577.494 -920.599 3725.38 0
292.707 -860.073 3549.57 0
-1224.73 -926.385 4228.27 0
265.577 -847.756 4242.43 0
258.831 -798.209 4157.09 0
-196.539 -400.669 2108.92 0
-190.257 -259.953 1697.29 0
12.0695 -280.647 2179.51 0
-9.56805 -250.393 2194.08 0
-541.237 -197.968 1854.33 0
253.686 -231.9 2264.1 0
-298.123 -105.783 1594.9 0
-236.95 -104.692 1614.11 0
-148.106 -102.051 1643 0
-146.352 -98.4489 1627.41 0
36.4462 -103.297 1691.48 0
96.3813 -90.7282 1536.19 0
32.3728 -92.2503 1640.1 0
-75.7446 -82.6311 1544.44 0
-116.758 -73.347 1453.06 0
-142.562 -66.0078 1308.03 0
38.9406 -73.4541 1555.37 0
-395.633 -64.0968 1371.14 0
-346.698 -54.2755 1362.71 0
-283.195 -46.468 1374.91 0
-263.549 4.07811 1351.06 0
298.18 6.40447 1098.89 0
-415.58 16.5356 1343.38 0
-324.494 29.8413 1244.68 0
-221.819 45.6676 1332.85 0
-207.481 45.5387 1320.28 0
-213.157 47.1426 1307.31 0
-167.179 75.707 1284.65 0
100.838 41.6182 691.758 0
-313.4 76.7611 1165.56 0
-158.158 80.6373 1238.28 0
87.4667 47.4529 695.402 0
136.145 50.648 683.415 0
150.774 53.97 680.322 0
157.982 55.6298 679.137 0
142.849 56.468 683.092 0
134.81 58.2786 686.03 0
140.071 59.4924 684.535 0
145.183 60.5962 684.052 0
-321.997 103.748 1085.83 0
71.004 80.6759 704.804 0
16.9656 151.532 1144.47 0
74.1831 97.3451 701.157 0
77.4812 105.079 705.432 0
68.177 109.267 701.53 0
63.7368 130.103 709.432 0
63.7368 130.103 709.432 0
60.1627 147.301 709.635 0
63.9591 148.085 707.983 0
56.4419 163.414 717.817 0
50.0405 163.446 712.494 0
-203.923 189.301 783.87 0
-175.87 215.741 730.391 0
-5.71819 -326.819 1003.55 0
-660.888 -1304.53 4189.47 0
274.652 -319.912 1036.28 0
184.877 -1254.97 4383.77 0
326.028 -1008.48 3778.91 0
-153.559 -339.357 1276.27 0
319.163 -936.149 3593.43 0
867.107 -882.039 3560.32 0
313.332 -813.759 3374.4 0
331.035 -239.287 1120.73 0
-1210.42 -820.847 4245.15 0
-185.834 -276.496 1743.92 0
-169.469 -277.222 1758.72 0
-431.678 -318.912 2064.58 0
-431.997 -319.218 2066.42 0
-519.941 -307.487 1990.25 0
-549.319 -283.19 1910.75 0
-441.869 -105.883 1555.54 0
9.08704 -103.7 1684.21 0
-13.7095 -94.6228 1656.1 0
11.3169 -93.4939 1656.94 0
-47.932 -89.2056 1643.75 0
-342.098 -74.5422 1411.46 0
-320.25 -75.1861 1425.34 0
-59.2574 -63.8692 1484.11 0
-306.782 -55.0961 1394.65 0
-266.311 -46.2515 1366.7 0
106.538 -38.9486 1192.66 0
-348.185 23.5161 1182.01 0
-93.3905 49.3595 1348.78 0
-171.466 63.1773 1297.94 0
67.2907 40.1282 700.854 0
129.563 45.4559 686.52 0
116.192 46.5079 689.76 0
116.004 46.5056 689.394 0
127.125 52.6775 686.942 0
131.653 53.7204 685.261 0
86.1112 55.6346 696.976 0
137.377 54.8987 683.808 0
148.41 57.4581 682.063 0
169.77 58.3002 675.42 0
156.845 59.2748 679.585 0
-289.407 103.903 1140.33 0
166.94 61.6896 677.286 0
171.851 62.3675 675.956 0
171.798 62.3418 675.749 0
-333.114 112.308 1094.43 0
-333.114 112.308 1094.43 0
9.23365 129.89 1185.65 0
81.9356 78.7969 700.081 0
-130.93 147.339 1046.89 0
64.3539 102.035 707.006 0
-153.149 179.585 938.474 0
-189.326 175.679 899.242 0
40.1867 143.242 717.181 0
66.0709 144.907 710.014 0
59.1558 166.348 715.537 0
47.3629 179.887 722.359 0
-183.67 201.612 759.179 0
75.9515 191.932 715.466 0
-163.768 215.412 754.449 0
-171.2 219.21 738.236 0
1.17817 -326.982 1004.36 0
-635.703 -1386.1 4239.42 0
276.155 -313.202 1063.98 0
623.285 -736.876 3328.81 0
-1198.43 -935.763 4220.65 0
-1198.01 -935.499 4219.41 0
-735.515 -722.391 3450.56 0
-566.084 -245.418 1888.88 0
-158.041 -99.3661 1621.1 0
-59.1268 -77.5361 1506.68 0
92.5673 -77.5557 1609.09 0
113.956 -74.1225 1583.12 0
-271.504 -63.1012 1377.24 0
-174.634 -57.1212 1339.05 0
435.255 -48.7751 1322.05 0
-168.583 23.0924 1291.04 0
122.226 20.8234 701.876 0
-371.133 53.7834 1192.94 0
119.84 38.1469 685.15 0
-240.662 84.7831 1207.38 0
102.868 51.3913 692.788 0
-92.3957 142.342 1081.71 0
109.381 124.536 947.741 0
-164.645 218.523 745.855 0
-151.871 218.552 741.894 0
236.585 -321.215 1062.29 0
360.497 -361.742 2145.46 0
-594.666 -282.326 1921.99 0
-315.001 -100.909 1380.88 0
-48.9628 -114.929 1721.71 0
-128.201 -67.4056 1459.49 0
-104.644 -66.8181 1472.14 0
101.852 -10.0235 1171.4 0
396.793 0.0918471 1605.82 0
-281.062 1.52602 1375.53 0
-214.376 27.1535 1320.56 0
-323.229 57.4203 1211.22 0
-162.057 67.5188 1293.54 0
-247.978 76.0986 1206.17 0
109.646 48.3238 690.222 0
181.959 62.7401 673.202 0
35.836 109.731 1156.28 0
74.1025 68.037 701.057 0
5.47595 138.474 1172.61 0
-266.776 159.354 867.011 0
-201.531 164.31 866.049 0
-150.933 198.968 950.616 0
-198.213 200.856 759.464 0
-20.2393 210.329 745.794 0
-155.757 225.333 722.971 0
158.221 -1341.51 4463.33 0
-611.136 -306.817 1939.95 0
322.53 -303.161 1964.17 0
-542.134 -213.722 1913.56 0
-469.595 -117.66 1639.6 0
0.167226 -111.857 1698.32 0
12.5248 46.0623 1378.85 0
-369.995 76.1329 1200.35 0
17.4527 118.026 1135.33 0
8.28138 150.106 1145.54 0
-120.161 146.991 1052.05 0
-112.344 160.467 1078.47 0
-170.273 181.887 936.007 0
55.3289 192.507 720.571 0
31.0521 204.058 709.103 0
-266.629 -1269.61 4053.88 0
581.471 -970.795 3847.18 0
6.45531 -382.027 2101.29 0
-628.431 -348.402 2040.76 0
-590.656 -306.751 1967.82 0
49.0427 -248.763 2159.68 0
210.191 -122.992 1933.27 0
148.087 60.9713 681.195 0
77.8861 71.8113 703.544 0
53.7089 76.7372 707.147 0
-196.3 171.327 885.303 0
-170.691 181.111 929.778 0
-170.691 181.111 929.778 0
-232.105 166.042 840.558 0
-733.687 -731.349 3401.13 0
-464.741 -678.577 3263.34 0
-279.177 -98.8722 1648.24 0
-373.591 -27.0672 1372.66 0
124.5 30.3378 699.46 0
107.022 39.968 693.232 0
75.4375 84.4503 705.603 0
73.0031 97.7906 707.795 0
66.8638 131.677 711.668 0
-154.056 206.89 832.956 0
89.1929 182.058 718.487 0
66.346 194.086 719.287 0
66.346 194.086 719.287 0
-27.908 222.838 743.237 0
419.591 -65.1816 1248.2 0
-260.348 172.605 856.173 0
