ply
format ascii 1.0
element vertex 112
property float x
property float y
property float z
property uchar intensity
end_header
311.757 63.018 3495.58 0
-355.432 266.583 1071.99 0
-66.3671 392.368 1475.49 0
-199.542 -411.983 1645.13 0
540.759 -1071.4 4415.27 0
393.936 -1034.11 4547.69 0
-608.522 -15.9254 1978.31 0
-481.625 2.59138 2088.69 0
1067.68 4.28132 3388.77 0
1179.88 30.2117 3399.82 0
295.081 107.496 3537.76 0
-385.768 238.678 1566.41 0
-189.64 246.067 969.658 0
461.602 -1293.32 4382.89 0
940.754 -1093.95 4678.77 0
1097.61 -88.5127 3401.36 0
1036.02 -75.7813 3464.4 0
929.763 -43.1747 3215.04 0
272.39 61.8524 3525.43 0
-532.315 33.0199 1802.77 0
263.522 70.6349 3597.04 0
-496.358 70.4238 1669.06 0
-525.476 72.7969 1596.39 0
1106.6 203.934 3334.13 0
1081.97 263.199 3372.31 0
1080.09 273.155 3345.84 0
-155.98 233.505 2605.09 0
1083.03 350.936 3337.49 0
-139.91 170.624 1561.31 0
-456.857 227.894 1537.9 0
-378.287 240.882 1548.97 0
71.7368 198.144 1174.05 0
37.3223 255.172 1165.96 0
-325.181 255.312 1058.32 0
-862.227 -1306.91 4103.21 0
137.104 -1161.39 4508.66 0
1002.92 -999.086 4753.47 0
1125.4 -984.77 4909.86 0
-232.948 -79.8553 996.239 0
1064.71 -88.5529 3386.72 0
953.866 -82.953 3409.87 0
865.752 -64.4446 3321.32 0
1202.82 -57.2226 3435.32 0
1089.16 -45.6473 3455.78 0
1019.35 -2.14001 3332.8 0
927.501 18.5048 3106.03 0
-398.36 16.5091 2055.7 0
-529.779 66.6938 1613.18 0
1122.36 197.623 3332.74 0
1099.41 223.33 3321.56 0
1075.6 289.901 3360.23 0
-502.312 213.062 1510.76 0
-285.088 199.122 1264.63 0
-396.263 238.476 1508.89 0
-398.239 234.168 1418.36 0
110.061 202.236 1192.42 0
-145.343 -1172.4 4450.78 0
886.904 -1222.67 4650.63 0
7.4836 -1161.74 4450.77 0
426.477 -1014.98 4502.55 0
934.173 -978.77 4694.38 0
-225.148 -91.3196 978.146 0
-129.14 -77.5618 969.281 0
-460.075 92.4464 1651.91 0
-495.807 150.407 1687.36 0
1077.09 336.369 3290.38 0
-128.683 171.959 1596.34 0
48.908 203.252 1161.29 0
43.3421 218.581 1204.57 0
-288.412 266.076 1406.58 0
104.814 235.8 1191.4 0
-778.154 -1265.05 4167.69 0
-424.744 -1228.81 4277.55 0
838.575 -1222.77 4514.27 0
891.911 -1207.71 4510.91 0
495.092 -1109.52 4321.86 0
1088.4 -1146.43 4860.95 0
1053.54 -1008.03 4894.82 0
1024.69 300.23 3363.47 0
-470.754 225.651 1533.17 0
-426.38 236.227 1395.39 0
-314.29 212.895 1094.25 0
-261.234 -1215.38 4347.79 0
1196.28 -953.94 4910.22 0
-509.693 212.925 1598.59 0
-446.059 229.218 1535.56 0
-2.41107 203.97 1201.05 0
178.909 253.956 1134.12 0
-304.618 259.269 1043.67 0
-352.834 283.024 1082.18 0
-30.5418 383.944 1453.02 0
9.65613 407.464 1388.06 0
1050.37 -24.7868 3408.08 0
-488.574 157.62 1619.04 0
12.4929 198.972 1225.45 0
-301.345 230.509 1091.98 0
-190.714 240.695 978.684 0
54.2529 304.484 1206.57 0
942.679 0.0994004 3268.92 0
1091.25 97.7124 3378.35 0
1036.71 211.295 3368.76 0
984.207 373.772 3099.56 0
-279.736 282.727 1434.78 0
28.55 404.675 1354.58 0
-143.135 -84.1447 974.62 0
875.501 -79.5637 3315.84 0
982.803 -55.0214 3382.51 0
1150.27 63.3485 3360 0
998.994 325.761 3203.21 0
-705.46 -1220.86 4256.87 0
-492.66 183.679 1649.89 0
-258.174 268.43 1532.75 0
