ply
format ascii 1.0
element vertex 268
property float x
property float y
property float z
property uchar intensity
end_header
1254.51 -350.669 3521.03 0
639.074 -268.629 3318.44 0
-78.4628 -10.9549 1644.26 0
-52.5353 176.295 648.514 0
78.992 189.646 630.651 0
95.3312 191.468 628.546 0
95.3335 191.472 628.802 0
521.715 -406.368 3126.55 0
1226.54 -416.42 3465.85 0
1252.01 -330.602 3520.69 0
-510.795 -305.505 3517.63 0
-340.761 -213.035 2828.66 0
-439.666 -120.681 1822.44 0
-441.82 -121.485 1832.32 0
-476.626 -134.921 2033.68 0
1172.42 -200.958 3267.13 0
-485.866 -89.0537 1878.89 0
-348.868 10.3873 2144.68 0
291.465 9.26746 1361.05 0
289.647 22.5098 1372.29 0
313.249 26.5879 1271.84 0
-194.715 94.8619 1286.4 0
-194.945 119.785 1601.41 0
-82.5187 88.8707 1164.36 0
-204.602 122.254 1539.18 0
38.4552 137.435 1348.78 0
-137.022 202.246 1141.56 0
-47.7979 177.099 648.884 0
-52.3387 178.501 648.622 0
-50.6044 179.137 649.749 0
-18.4089 179.733 645.017 0
-18.595 179.745 644.527 0
-5.67418 179.613 643.271 0
45.6351 186.803 636.195 0
115.558 193.659 625.095 0
155.503 195.164 620.068 0
424.89 -247.747 2520.56 0
533.508 -304.041 3217.75 0
49.9723 -255.794 2870.56 0
111.644 -98.8273 1137.42 0
-388.499 -306.039 3566.5 0
-994.925 -280.597 3332 0
-856.263 -250.855 3256.62 0
529.623 -217.107 3249.39 0
1201.23 -222.49 3443.7 0
179.516 -77.0547 1677.94 0
-489.826 -39.0196 1737.37 0
-383.967 -26.9011 1648.52 0
-373.215 -26.3935 1640.69 0
-354.995 -22.026 1684.72 0
-316.248 -2.73873 2127.07 0
-312.213 8.98158 2155.61 0
287.964 5.16759 1341.27 0
-105.792 15.8577 1648.12 0
302.554 22.9683 1275.23 0
-199.585 117.623 1649.42 0
54.2092 108.175 1326.01 0
-435.101 135.484 1546.34 0
-204.078 241.886 1337.22 0
-231.543 248.613 1263.58 0
-272.506 312.909 1020.47 0
-269.775 319.823 1012.27 0
-280.013 328.543 1001.64 0
159.642 208.002 621.112 0
211.128 208.943 608.844 0
223.959 -1567.53 4489.43 0
-131.476 -564.532 1655.39 0
99.4634 -106.927 1100.29 0
100.11 -104.466 1118.75 0
-273.195 -315.538 3639 0
-370.604 -297.926 3537.86 0
-443.761 -294.009 3502.53 0
562.858 -265.618 3203.11 0
-352.921 -284.52 3485.2 0
-265.299 -279.643 3507.91 0
-277.745 -138.491 1936.51 0
116.989 -110.144 1625.55 0
571.598 -217.657 3448.02 0
-539.051 -128.254 2045.65 0
-516.875 -124.666 2018.82 0
118.261 -49.6667 1607.87 0
-367.313 -32.1165 1666.44 0
-316.563 16.289 2136.82 0
265.107 29.9997 1283.99 0
218.343 50.2903 1275.87 0
244.283 51.6825 1241.12 0
177.553 71.5194 1271.59 0
-184.228 116.324 1633.76 0
-142.048 115.045 1594.22 0
-236.525 121.875 1606.16 0
-310.071 123.355 1592.59 0
-258.401 123.669 1587.36 0
-495.358 129.43 1541.22 0
-338.64 125.767 1493.29 0
-378.2 132.885 1521.03 0
-318.685 131.636 1421.01 0
-322.65 134.225 1439.1 0
-345.592 135.343 1419.78 0
-486.945 177.317 1811.64 0
-123.169 194.051 1166.92 0
-269.272 257.804 1269.7 0
-53.8862 180.702 649.606 0
-75.4894 182.59 649.64 0
46.377 186.525 634.452 0
46.5062 186.557 634.163 0
-271.996 316.67 1015.93 0
-271.932 315.395 1012.08 0
-281.235 320.873 1001.2 0
126.032 200.125 622.926 0
125.816 200.176 623.547 0
188.679 206.512 610.459 0
188.869 206.813 611.424 0
136.405 212.428 623.91 0
204.81 211.878 613.718 0
145.869 213.837 622.183 0
109.235 -222.646 1030.71 0
240.172 -230.653 1088.16 0
25.0227 -195.937 1019.2 0
-158.49 -175.867 987.387 0
-71.9038 -180.854 1024.85 0
-78.4149 -169.683 1042.05 0
-314.374 -415.611 4161.08 0
-176.788 -129.626 1685.59 0
1194.59 -231.011 3395.22 0
138.72 -78.7611 1604.36 0
-489.347 -65.0271 1742.04 0
-490.22 -55.7468 1724.54 0
42.4959 -37.4658 1755.66 0
-500.37 -40.2589 1891.95 0
142.942 3.2356 2745.47 0
217.137 20.1999 1302.43 0
241.792 90.8147 1252.91 0
-200.701 121.299 1583.28 0
-130 122.92 1577.48 0
-409.802 125.323 1578.61 0
-154.95 122.678 1526.08 0
-154.453 122 1518.96 0
-176.458 123.533 1503.22 0
-200.66 126.253 1499.05 0
234.562 106.76 1270.44 0
-426.701 137.788 1407 0
-381.508 126.569 1248.72 0
125.8 175.112 1631.39 0
-86.738 194.775 1479.54 0
-59.8929 170.776 649.645 0
-18.4707 184.024 645.22 0
-73.452 186.555 652.432 0
25.646 188.278 637.935 0
-79.8614 202.004 646.19 0
-75.3896 210.187 653.574 0
261.19 -1550.45 4447.2 0
-45.5021 -211.743 979.875 0
41.5092 -179.217 1032.83 0
-227.01 -161.205 974.267 0
-510.246 -139.274 1983.32 0
-524.212 -34.2094 1820.26 0
-295.658 -23.6659 1709.06 0
157.153 -24.5997 2753.75 0
-310.472 48.5662 1682.54 0
243.885 38.3591 1243.13 0
-213.462 128.28 1508.43 0
-331.702 132.128 1496.71 0
-305.092 133.619 1445.88 0
-376.039 149.792 1235.96 0
-389.49 165.251 1231.49 0
-376.446 276.426 1209.24 0
-62.4423 152.887 656.589 0
-94.1042 173.354 655.419 0
-30.5617 171.304 647.064 0
-23.2021 175.559 644.298 0
-72.8416 178.183 651.542 0
-8.07808 177.152 642.471 0
-32.2398 178.745 646.765 0
-44.4585 180.732 648.274 0
-21.5632 179.682 644.531 0
-15.912 180.635 644.265 0
11.6442 179.17 639.219 0
-10.2054 180.981 643.734 0
-1.43145 181.749 641.998 0
9.03389 182.957 640.566 0
14.0916 183.036 639.692 0
14.0549 183.001 639.483 0
19.0532 183.893 638.921 0
-287.953 313.254 1011.39 0
-86.4468 213.507 657.047 0
162.236 206.521 615.505 0
-35.8778 -198.53 997.555 0
346.558 -217.897 1143.53 0
-318.759 -31.2225 1701.55 0
-366.669 26.1217 2071.89 0
204.806 34.6384 1305.74 0
188.929 82.1689 1260.7 0
-229.989 117.019 1613.15 0
-252.359 118.87 1607.83 0
-251.472 118.831 1599.11 0
-142.493 121.42 1535.45 0
-189.696 124.913 1519.5 0
-226.237 135.816 1469.57 0
282.915 132.789 1311.29 0
-375.103 186.504 1246.86 0
303.203 173.255 1022.77 0
-381.199 223.415 1210.15 0
-384.068 224.854 1218.9 0
-383.263 265.432 1222.83 0
-14.7066 159.977 669.187 0
18.9574 197.681 802.132 0
-43.9848 173.935 648.874 0
-44.1369 173.923 648.492 0
-56.9313 180.346 650.228 0
-84.3877 200.373 654.467 0
131.631 192.656 624.595 0
-276.483 319.646 1010.85 0
121.431 206.573 631.241 0
-310.87 325.831 972.105 0
129.735 209.82 625.338 0
129.645 209.681 624.84 0
1.27904 -174.718 1054.93 0
172.331 -185.192 1134.02 0
110.159 -123.14 1075.75 0
228.959 1.83082 1311.66 0
220.393 12.8599 1293 0
216.985 31.8183 1312.08 0
192.035 44.6826 1281.68 0
-320.326 108.563 1667.51 0
104.131 123.985 1778.32 0
-277.177 120.198 1604.57 0
-417.32 127.324 1555.69 0
-306.47 130.382 1450.55 0
265.827 131.906 1298.75 0
-386.762 145.548 1240.64 0
187.332 201.159 1550.32 0
-426.607 204.137 1347.17 0
-362.089 244.318 1216.1 0
-360.346 243.002 1210.51 0
-373.077 268.462 1219.12 0
-61.3514 151.776 631.125 0
-40.8431 164.925 645.212 0
-50.3128 176.428 648.559 0
-50.2087 176.372 648.415 0
24.3926 182.183 637.944 0
-293.987 339.383 1004.45 0
38.5642 -180.866 1036.73 0
341.047 -204.353 1185.37 0
226.876 97.2103 1282.53 0
-385.363 122.895 1225.83 0
-347.181 142.965 1411 0
-369.392 143.788 1396.13 0
-92.5151 136.783 1169.83 0
-210.455 236.121 1322.68 0
-300.724 324.796 978.327 0
184.469 202.71 610.093 0
-484.995 -60.9066 1795.03 0
267.073 14.3778 1326.31 0
280.146 161.679 1048.6 0
-10.0682 184.433 642.609 0
121.625 196.065 623.468 0
10.1158 -188.707 1023.77 0
54.5042 -169.193 1000.48 0
-120.512 -0.262002 1643.57 0
225.557 22.9439 1304.57 0
-84.237 90.5886 1903.99 0
-425.378 137.207 1352.26 0
-408.388 213.563 1316.57 0
-106.439 209.889 657.577 0
-81.8029 217.004 658.576 0
-74.8533 -191.13 1026.08 0
-81.5788 -20.4867 1647.01 0
240.774 207.811 1262.75 0
