ply
format ascii 1.0
element vertex 387
property float x
property float y
property float z
property uchar intensity
end_header
530.5 -1209.33 3851.43 0
649.67 -1018.53 3458.94 0
606.458 -1076.36 3658.25 0
280.987 -1030.75 3546.89 0
615.617 -1043.82 3575.61 0
684.661 -1015.13 3474.88 0
616.539 -1027.3 3565.76 0
873.426 -1003.56 3527.66 0
579.121 -1052.13 3727.53 0
425.936 -898.966 3320.46 0
-752.359 -831.318 3239.67 0
599.975 -917.193 3612.48 0
-586.898 -837.609 3337.66 0
-512.102 -833.379 3365.89 0
-585.002 -800.742 3237.86 0
-685.93 -730.561 3029.52 0
-490.408 -512.794 2293.53 0
-599.565 -421.66 1889.72 0
-135.782 -344.81 1677.69 0
-112.634 -339.108 1672.42 0
-90.4097 -334.046 1672.67 0
17.1544 -395.944 2250.91 0
-2.49778 -362.695 2158.51 0
3.08397 -353.439 2156.67 0
170.017 -268.792 1635.25 0
174.119 -267.269 1644.7 0
-559.577 -285.233 1774.98 0
1.41106 -336.279 2172.98 0
383.006 -248.04 1612.38 0
182.962 -168.854 1146.8 0
235.767 -312.637 2241.33 0
69.042 -123.642 1250.37 0
88.5942 -1.81622 674.323 0
85.6551 1.01638 674.35 0
90.2271 2.53919 674.411 0
87.2384 4.01507 675.704 0
118.354 10.2122 668.444 0
118.122 10.2358 667.974 0
197.62 12.7371 706.17 0
130.971 14.0173 665.794 0
135.574 17.0195 664.4 0
196.21 32.9677 650.816 0
200.953 34.5373 650.944 0
-148.331 82.7443 1041.45 0
-148.456 81.6052 1013.74 0
-240.74 111.817 790.305 0
19.694 131.957 708.926 0
45.7005 154.414 688.041 0
85.9891 253.703 757.984 0
-341.448 -1442.27 4196.44 0
-31.3049 -1471.35 4451.91 0
351.327 -1432.64 4439.72 0
547.89 -1287.83 4083.47 0
576.88 -1078.77 3655.39 0
328.729 -1031.71 3561.77 0
623.087 -1032.35 3550.75 0
333.281 -988.196 3424.28 0
880.769 -990.917 3475.06 0
609.001 -958.493 3559.94 0
335.808 -290.947 1098.34 0
577.697 -950.501 3687.46 0
571.191 -911.573 3666.23 0
-540.863 -785.67 3236.38 0
533.569 -819.506 3374.05 0
-192.623 -488.839 2040.56 0
-522.971 -759.425 3194.13 0
602.831 -654.098 2790.36 0
-72.025 -415.414 1878.29 0
392.017 -305.627 1417.3 0
351.214 -270.55 1260.08 0
-93.7253 -343.102 1688.31 0
404.765 -292.092 1483.28 0
-26.8369 -340.287 1735.49 0
-540.417 -359.988 1938.93 0
414.239 -257.808 1505.49 0
-10.3629 -350.845 2154.17 0
188.065 -263.367 1647.61 0
-5.80019 -328.167 2155.45 0
374.636 -376.183 2681.83 0
-206.1 -156.633 1436.93 0
-181.494 -156.151 1447.36 0
-44.1561 -172.821 1632.53 0
-428.007 -145.654 1366.36 0
-20.1857 -171.139 1631.81 0
-420.718 -139.644 1345.82 0
53.6908 -161.665 1580.42 0
12.6637 -155.061 1546.47 0
-467.762 -137.785 1406.95 0
-239.296 -68.3752 1298.04 0
205.723 -54.1393 1065.28 0
205.815 -53.9961 1064.86 0
-30.0851 -13.1777 1372.14 0
-187.241 -1.99781 1265.35 0
86.7848 -0.913645 678.081 0
85.5213 3.20729 674.664 0
130.728 12.3025 665.661 0
194.095 32.1513 652.871 0
-115.676 67.4823 1074.91 0
-116.188 71.656 1070.75 0
-114.841 75.432 1067.25 0
-127.27 83.2729 1058.44 0
40.6233 55.7659 692.33 0
-172.314 90.2358 1066.72 0
47.2252 60.865 687.034 0
41.2241 62.6006 699.229 0
32.3494 90.1605 697.976 0
-241.346 110.96 782.24 0
22.8508 118.682 697.871 0
23.697 128.405 693.608 0
-213.443 142.439 721.487 0
8.30003 142.355 712.533 0
229.948 200.922 669.761 0
-29.5753 -1424.82 4303.68 0
-304.585 -1111.43 3579.68 0
-250.092 -1013.42 3275.93 0
605.015 -1044.84 3599.59 0
558.24 -1053.98 3746.69 0
342.663 -926.619 3356.09 0
585.536 -1022.09 3686.61 0
557.621 -1041.09 3782.29 0
549.833 -1010.4 3755.88 0
346.144 -295.038 1090.59 0
268.456 -962.683 3701.35 0
-742.997 -852.251 3297.13 0
309.559 -280.346 1084.54 0
-691.15 -847.683 3314.99 0
321.435 -282.888 1100.1 0
608.887 -900.114 3619.14 0
-203.864 -500.637 2078.08 0
562.979 -656.28 2729.94 0
257.938 -928.174 4118.76 0
-205.376 -391.229 1753.56 0
-156.971 -368.923 1735.68 0
-216.624 -429.596 2027.64 0
-575.592 -383.287 1879.79 0
-543.912 -377.086 1909.81 0
-27.6363 -375.058 2161.98 0
391.672 -254.414 1574.06 0
-538.052 -290.461 1796.35 0
-13.7295 -335.859 2160.52 0
213.184 -241.005 1616.42 0
408.445 -421.038 2869.73 0
-460.644 -204.5 1530.65 0
465.483 -176.423 1307.43 0
459.512 -174.173 1290.74 0
-412.448 -201.76 1523.29 0
-317.374 -197.895 1571.17 0
-327.912 -196.867 1578.74 0
-256.476 -194.103 1590.91 0
506.889 -319.632 2720.11 0
-168.093 -187.568 1620.59 0
-166.426 -183.464 1605.11 0
-425.972 -157.868 1364.21 0
15.9348 -180.405 1670.52 0
-288.683 -139.603 1367.49 0
-288.683 -139.603 1367.49 0
-61.2949 -149.592 1484.72 0
-253.026 -137.473 1372.13 0
0.341196 -154.9 1562.88 0
-287.2 -130.709 1344.89 0
17.7746 -146.853 1535.27 0
37.2251 -144.197 1504.98 0
104.573 -128.564 1374.45 0
169.653 -107.213 1573.42 0
434.963 -81.6221 1236.53 0
-247.39 -35.7088 1313.83 0
-249.491 -26.2262 1279.63 0
-194.086 -1.56458 1266.89 0
62.2253 3.3991 677.976 0
57.0362 3.40824 684.971 0
63.8918 7.383 680.978 0
-133.21 22.4266 1260.93 0
180.105 28.348 653.072 0
-127.34 75.574 1057.33 0
50.3847 64.9222 690.829 0
-181.701 111.137 940.965 0
-190.549 116.402 922.421 0
35.3248 88.2739 697.59 0
41.4698 103.096 698.545 0
41.3529 103.325 699.238 0
-241.128 121.16 776.654 0
35.4305 114.664 702.26 0
-213.522 145.051 720.142 0
-207.355 147.116 709.194 0
235.478 197.423 656.421 0
-4.97696 -1515.57 4350.03 0
235.685 -361.462 1032.72 0
-156.95 -413.336 1245.32 0
-471.123 -1008.23 3201.36 0
-144.77 -388.809 1251.54 0
338.699 -1124.46 3735.75 0
-1217.24 -1136 4174.41 0
-1170.48 -1127.52 4169.91 0
324.164 -291.162 1099.78 0
315.233 -288.167 1096.23 0
-776.608 -814.228 3173.79 0
266.71 -979.556 4202.82 0
-2.36198 -371.742 2153.51 0
-35.3523 -360.819 2139.51 0
-544.709 -300.1 1814 0
409.518 -252.617 1514.54 0
-25.6639 -343.067 2168.7 0
378.386 -256.784 1608.8 0
397.872 -228.397 1490.46 0
425.692 -259.087 1723.71 0
422.209 -243.587 1694.86 0
-361.691 -164.128 1388.27 0
-339.934 -163.993 1402.31 0
-415.428 -155.439 1347.8 0
-96.1899 -161.75 1523.16 0
-137.015 -152.201 1431.73 0
-68.7436 -169.499 1622.49 0
-367.023 -142.838 1340.03 0
-148.524 -155.363 1475.26 0
-336.891 -141.59 1351.64 0
-283.063 -127.086 1226.23 0
-279.923 -138.708 1363.07 0
-7.71801 -151.093 1520.79 0
-286.991 -79.9051 1330.6 0
438.712 -74.9734 1260.55 0
-439.412 -75.255 1322.01 0
349.354 -76.6618 1571.81 0
-192.755 -54.3318 1271.88 0
83.2664 -22.893 670.862 0
-232.98 -34.7488 1301.38 0
-238.646 -33.1 1288.41 0
79.3731 -5.69585 675.514 0
-339.347 -5.02158 1146.67 0
65.6878 -0.67124 679.201 0
112.456 12.8739 670.504 0
-316.65 24.0075 1122.36 0
54.6207 22.0768 676.873 0
159.69 26.3432 658.688 0
47.4318 31.3781 689.337 0
57.1889 33.7452 693.182 0
49.7517 48.2825 686.156 0
43.1226 59.8585 686.793 0
33.0581 97.1887 695.828 0
36.819 98.2144 694.228 0
-233.373 123.256 768.979 0
26.2791 115.845 705.919 0
-206.392 152.55 716.444 0
-633.986 -1482.82 4130.3 0
-863.546 -1060.34 3126.06 0
5.30658 -1435 4345.86 0
5.10758 -1432.4 4340.1 0
206.648 -1394.07 4332.75 0
-1233.78 -1323.89 4143.09 0
-164.916 -402.151 1283.87 0
673.639 -1076.17 3447.26 0
313.677 -293.666 1087.95 0
-1194.8 -1116.36 4167.6 0
-508.987 -426.985 1996.27 0
-442.683 -430.198 2033.99 0
-442.998 -430.57 2035.82 0
-560.999 -396.62 1880.2 0
-218.958 -419.435 2029.74 0
-38.3539 -341.189 1957.65 0
-557.041 -309.616 1826.1 0
525.926 -345.419 2724.35 0
-178.007 -184.825 1598.68 0
-11.3151 -182.051 1663.02 0
-34.3675 -173.438 1634.98 0
-9.44182 -171.018 1636.05 0
-79.6083 -154.783 1485.69 0
-55.9344 -154.206 1498.78 0
-304.105 -132.032 1352.95 0
79.0862 -149.771 1557.41 0
-304.511 -84.0257 1354.85 0
-371.386 -60.441 1161.43 0
408.364 -56.6169 1516.74 0
45.8898 -9.18907 684.293 0
-197.796 -14.652 1279.8 0
94.4606 0.0456126 673.77 0
94.2758 0.0432388 673.403 0
114.21 5.3965 667.701 0
105.072 6.8543 671.206 0
115.213 9.69409 668.214 0
128.664 9.56403 664.816 0
120.599 11.5673 667.585 0
126.107 12.8754 666.628 0
134.451 15.1983 664.268 0
147.437 15.0158 660.185 0
149.298 19.1712 660.844 0
149.247 19.1483 660.636 0
153.972 20.8816 659.761 0
52.4392 52.2688 691.432 0
31.4064 86.5937 695.927 0
13.2733 91.8856 703.102 0
39.0816 95.0996 696.193 0
-213.631 137.268 744.786 0
46.4304 142.416 702.959 0
-194.453 152.216 740.583 0
-201.965 156.049 724.415 0
229.135 196.222 650.312 0
288.012 -1099.41 3491.46 0
-1190.44 -1143.78 4166.76 0
-1190.02 -1143.46 4165.54 0
-197.249 -366.383 1716.57 0
-606.403 -398.441 1891.08 0
-579.584 -359.212 1859.19 0
194.053 -158.27 1234.58 0
-221.331 -177.609 1510.13 0
-68.9448 -197.311 1699.74 0
-291.568 -148.084 1354.94 0
-106.011 -154.775 1472.46 0
-194.891 -136.005 1317.72 0
-374.046 -100.222 1356.49 0
413.809 -95.1642 1305.93 0
-238.898 -53.472 1301.12 0
98.5759 -7.98617 668.973 0
-274.258 -3.32742 1187.79 0
-267.419 5.69428 1189.28 0
80.8772 4.13952 676.817 0
51.2181 19.0238 685.285 0
-121.547 74.2971 1066.38 0
-195.434 155.505 732.067 0
-182.653 156.312 728.213 0
-156.259 215.082 694.729 0
141.591 -1319.6 3717.15 0
-150.287 -407.865 1245.73 0
138.586 -1412.1 4340.97 0
332.753 -304.162 1054.44 0
-763.776 -828.715 3225.83 0
-19.8877 -191.038 1676.84 0
-148.799 -147.042 1438.22 0
-125.392 -145.555 1451.07 0
-395.972 -31.7239 1172.97 0
292.935 -24.2716 1030.46 0
425.968 -15.8121 1285.67 0
-188.6 -9.70635 1275.6 0
-246.929 -8.37898 1241.67 0
87.825 1.50207 674.227 0
159.391 20.1479 658.184 0
-24.2266 73.1554 1157.95 0
-142.401 91.4284 1063.46 0
-230.224 96.2422 850.489 0
-228.115 135.742 744.932 0
-50.8005 154.916 732.972 0
-186.763 163.381 709.444 0
-712.803 -655.836 2155.22 0
-637.44 -469.343 2007.79 0
-621.68 -424.234 1908.25 0
350.081 -433.475 2120.19 0
310.308 -372.157 1940.19 0
-557.508 -326.969 1884.89 0
179.926 -203.2 1433.85 0
-333.033 -188.209 1357.23 0
-488.28 -219.956 1614.15 0
396.657 -105.673 1252.13 0
433.783 -86.6531 1272.2 0
-13.7115 -24.2249 1361.75 0
-396.065 -9.55095 1180.97 0
-149.317 78.2695 1036.63 0
-200.412 113.566 921.139 0
8.75191 90.2181 711.921 0
-182.1 131.244 936.349 0
25.772 141.77 707.909 0
0.998004 152.331 696.55 0
218.97 181.207 666.413 0
223.426 195.57 662.895 0
223.398 195.796 663.236 0
-731.573 -893.436 3356.73 0
-464.857 -822.945 3222.58 0
-601.421 -423.835 1936.28 0
80.2733 -424.433 1987.73 0
-299.182 -191.423 1624.84 0
54.7804 22.9241 687.901 0
30.353 26.4747 691.434 0
-10.9351 54.367 1120.24 0
-225.501 103.008 869.963 0
-200.746 112.935 914.888 0
-200.746 112.935 914.888 0
-59.101 167.069 730.682 0
229.343 178.417 663.139 0
232.415 -1336.61 4107.51 0
424.466 -263.715 1479.08 0
-395.381 -117.356 1350.47 0
85.6248 -7.05742 676.995 0
51.6545 35.3576 690.271 0
48.5048 48.4883 692.793 0
40.5602 81.8901 697.505 0
36.6918 104.913 712.978 0
36.6918 104.913 712.978 0
36.6989 143.96 706.756 0
36.6989 143.96 706.756 0
399.534 -110.396 1231.55 0
