ply
format ascii 1.0
element vertex 363
property float x
property float y
property float z
property uchar intensity
end_header
181.731 -954.48 3553.74 0
-286.662 -348.55 1781.17 0
-107.184 -347.583 1924.54 0
-603.745 -289.67 1858.81 0
161.625 -224.226 1638.03 0
-52.0887 -280.375 2144.26 0
-61.7616 -278.619 2181.46 0
-111.163 -1305.19 4349.16 0
421.148 -1222.2 4098.02 0
412.853 -1146.47 3864.57 0
513.979 -992.525 3587.46 0
100.384 -1320.31 4863.55 0
122.893 -964.05 3565.83 0
537.391 -944.77 3529.65 0
474.964 -995.507 3738.95 0
469.851 -945.579 3761.93 0
530.189 -871.133 3526.67 0
481.835 -894.748 3697.28 0
853.304 -593.88 2432.23 0
451.961 -765.994 3381.27 0
-829.237 -682.039 3228.65 0
-666.04 -699.289 3329.09 0
-660.023 -664.336 3228.77 0
-531.321 -400.15 2281.53 0
-78.823 -280.956 1732.93 0
-627.887 -307.682 1874.82 0
-23.332 -298.813 2156.4 0
168.807 -224.021 1638.99 0
158.48 -216.769 1638.56 0
-25.3429 -281.146 2149.3 0
-23.087 -272.555 2129.48 0
102.965 40.5905 663.295 0
108.188 42.4979 663.089 0
103.544 43.5267 663.264 0
105.304 44.2184 664.315 0
149.428 49.0008 654.77 0
187.563 58.5074 646.519 0
199.318 61.04 644.745 0
216.487 64.3683 640.548 0
221.182 65.2551 640.176 0
222.699 66.531 639.842 0
-97.5262 133.71 1055.3 0
-214.955 178.581 772.507 0
47.3022 177.468 694.571 0
68.2061 193.349 687.65 0
75.2203 197.529 673.714 0
-90.1856 -331.288 950.932 0
212.852 -347.829 1011.08 0
-478.796 -1306.55 4200.6 0
-175.161 -1354.93 4460.92 0
551.393 -971.843 3470.91 0
471.64 -1023.1 3667.2 0
501.277 -1022.9 3670.45 0
586.328 -970.862 3487.3 0
522.628 -982.08 3562.53 0
783.694 -961.656 3489.91 0
774.717 -972.831 3542.59 0
516.289 -976.298 3577.36 0
453.653 -981.961 3793.21 0
267.124 -857.07 3346.77 0
514.107 -907.218 3570.36 0
313.659 -800.347 3192.38 0
507.575 -864.484 3622.12 0
-559.065 -632.619 3180.31 0
-594.448 -628.596 3185.29 0
20.2821 -407.635 2084.31 0
77.1963 -461.366 2459.18 0
-156.845 -269.918 1668.3 0
-133.262 -266.084 1663.27 0
-123.215 -264.062 1654.78 0
-110.722 -262.727 1663.77 0
-95.7179 -264.284 1707.45 0
-74.1441 -248.241 1645.04 0
-50.5599 -306.943 2081.5 0
-31.6393 -289.919 2151.21 0
54.1054 -214.98 1639.81 0
-32.4748 -273.267 2151.72 0
-32.9469 -275.346 2165.33 0
-25.9139 -263.641 2165.32 0
208.646 -256.789 2236.64 0
19.1487 -109.749 1647.06 0
42.6797 -104.856 1640.77 0
-428.889 -54.2763 1349.75 0
167.192 -58.0442 1564.75 0
-420.893 -49.181 1329.22 0
-468.456 -42.7285 1389.63 0
213.877 -16.3165 1056.41 0
213.985 -16.1877 1055.99 0
54.6837 5.27152 1465.18 0
0.494932 40.2868 1363.68 0
-32.9768 50.3468 1292.96 0
136.895 47.9057 657.408 0
72.801 50.956 669.723 0
233.972 63.2627 669.746 0
25.8859 128.497 1129.93 0
71.8199 103.412 676.113 0
63.5958 106.522 686.264 0
-215.519 177.639 764.449 0
51.2229 173.368 679.37 0
36.6897 188.762 697.851 0
-184.498 205.888 703.62 0
-177.908 209.882 691.344 0
-1305.28 -1309.46 3846.3 0
-118.79 -1328.06 4348.83 0
-408.674 -989.767 3579.37 0
503.016 -992.341 3611.29 0
509.543 -944.009 3594.12 0
535.517 -935.667 3558.95 0
253.682 -858.536 3362.24 0
448.58 -951.207 3766.22 0
172.411 -883.104 3706.92 0
313.399 -261.067 1096.29 0
317.75 -257.798 1098.91 0
407.969 -669.796 2988.24 0
-822.256 -702.667 3286.55 0
-544.481 -701.231 3392.33 0
152.118 -697.623 3610.05 0
133.598 -661.961 3498.29 0
-215.31 -290.354 1744.14 0
-240.695 -258.933 1661.94 0
-600.925 -271.418 1864.65 0
-569.26 -267.151 1895.02 0
365.559 -229.424 1646.16 0
-64.0023 -285.861 2131.71 0
-40.8132 -262.275 2152.64 0
-32.2535 -255.295 2147.56 0
460.334 -153.996 1304.14 0
454.772 -151.575 1287.33 0
-539.237 -183.892 1756.92 0
-555.31 -183.119 1780.32 0
-176.296 -111.642 1608.3 0
-174.118 -107.934 1592.79 0
-299.482 -96.0644 1448.83 0
47.3261 -103.38 1570.93 0
-101.066 -84.6032 1464.26 0
-427.766 -66.6434 1347.82 0
-237.411 64.6976 1171.97 0
80.2897 45.5476 666.238 0
101.908 45.5058 664.534 0
-97.3896 129.579 1059.53 0
-97.6577 132.746 1051.36 0
-95.8489 137.314 1051.77 0
62.5653 99.639 679.465 0
-158.123 175.907 923.992 0
59.6973 132.539 684.141 0
56.618 134.951 685.681 0
61.7577 158.919 688.401 0
-214.449 187.698 758.708 0
-184.359 208.475 702.234 0
-176.628 215.347 698.522 0
51.9295 -343.738 977.857 0
141.255 -344.255 1008.62 0
135.221 -335.043 1027.11 0
-451.026 -1370.47 4248.45 0
220.696 -325.527 1029.06 0
-135.572 -1318.76 4359.57 0
-134.415 -1320.73 4349.06 0
484.191 -966.73 3697.66 0
335.138 -266.759 1087.48 0
-1280.93 -930.039 4157.29 0
162.8 -891.467 4208.52 0
159.083 -840.968 4123.55 0
-241.883 -413.436 2070.05 0
-1311.88 -829.851 4179.48 0
-57.6922 -300.272 2154.51 0
-32.1294 -299.032 2146.35 0
363.405 -222.473 1605.43 0
-53.3697 -268.417 2160.75 0
7.06952 -117.69 1660.75 0
-264.524 -111.917 1577.47 0
70.6711 -105.065 1506.94 0
-101.359 -92.997 1511.53 0
-209.415 -80.9547 1423.66 0
-152.419 -83.438 1462.79 0
-253.562 -59.2968 1356.81 0
-253.886 -59.3539 1357.9 0
442.01 -51.5941 1255.3 0
-434.299 16.0412 1304.15 0
-340.786 28.1336 1207.58 0
96.7234 35.1331 664.164 0
-326.869 75.5266 1129.2 0
147.172 46.414 653.938 0
131.191 51.0429 659.341 0
136.511 52.1467 657.972 0
141.656 53.1343 657.611 0
179.467 60.6768 647.997 0
74.1495 64.7294 664.736 0
71.1755 91.3805 673.539 0
65.4424 103.437 673.9 0
73.0166 107.999 677.961 0
61.3173 124.295 681.911 0
61.3173 124.295 681.911 0
58.1417 141.57 682.209 0
61.9906 142.28 680.647 0
66.9437 146.864 684.954 0
54.6193 157.688 690.468 0
25.4238 157.47 682.597 0
-192.313 181.441 752.439 0
-25.2072 -333.631 969.878 0
-18.3359 -333.964 970.836 0
254.463 -333.635 1008.74 0
-772.684 -1325.79 4130.91 0
229.632 -1049.17 3744.84 0
228.523 -974.945 3559.99 0
778.174 -933.435 3539.31 0
230.351 -850.382 3342.11 0
298.799 -268.569 1080.53 0
302.908 -262.962 1084.35 0
-1328.27 -934.858 4161.25 0
-1304.3 -917.104 4154.46 0
-851.242 -664.248 3162.17 0
533.102 -534.709 2642.7 0
-204.271 -287.349 1721.78 0
-474.022 -325.751 2021.45 0
-474.389 -326.067 2023.28 0
-576.096 -200.276 1810.09 0
-20.1257 -117.38 1652.89 0
-42.0827 -107.503 1624.39 0
-17.0612 -106.971 1625.78 0
-75.8905 -101.165 1611.35 0
-187.886 -90.8539 1467.85 0
-140.131 -81.885 1419.38 0
-342.955 -78.6713 1387.24 0
-364.472 -77.3818 1372.89 0
-416.852 -65.2977 1331.52 0
-367.528 -56.5515 1324.25 0
-304.143 -50.3568 1337.91 0
-287.082 -50.46 1330.07 0
-293.391 -43.329 1328.29 0
-282.806 -0.0634779 1315 0
-363.239 22.9617 1144.36 0
-225.124 40.3556 1285.86 0
-51.8429 63.3947 1299.52 0
62.9587 34.3471 672.515 0
-183.358 69.9031 1251.42 0
125.637 38.3431 659.589 0
112.227 39.6788 662.548 0
112.047 39.6844 662.178 0
83.4147 41.2462 667.576 0
-275.231 78.8323 1180.86 0
132.405 43.4081 656.68 0
123.36 45.6158 660.031 0
111.174 46.4375 662.553 0
133.727 47.6247 657.141 0
82.2162 49.4422 669.201 0
139.248 49.0715 656.56 0
144.852 49.9401 655.662 0
-242.372 91.6787 1181.32 0
166.366 50.3421 649.493 0
153.38 51.5811 653.386 0
168.53 54.354 650.115 0
168.481 54.3315 649.906 0
173.335 55.6851 649.072 0
-301.703 102.334 1104.76 0
-3.60192 120.854 1156.81 0
78.5149 72.666 672.446 0
67.5293 74.757 676.949 0
5.5335 142.697 1116.03 0
-140.245 142.911 1015.22 0
74.0902 95.2374 678.79 0
61.3325 96.2448 679.219 0
-194.714 174.015 866.633 0
57.4502 160.578 688.277 0
-206.456 189.069 751.113 0
45.8296 174.326 694.977 0
-185.385 201.133 726.991 0
-172.052 218.63 706.501 0
542.938 -780.387 3304.03 0
302.239 -252.057 1079.02 0
-1302.04 -944.781 4154.1 0
-1301.58 -944.515 4152.88 0
-47.3007 -123.466 1681.12 0
-185.683 -108.516 1586.21 0
-227.164 -99.4911 1496.95 0
-83.8028 -87.9371 1474.19 0
65.5681 -92.4973 1579.87 0
87.595 -89.3227 1554.41 0
-3.02693 -77.2125 1487.94 0
-195.1 -63.2222 1304.31 0
-292.897 -67.2819 1340.32 0
-168.394 -35.034 1258.63 0
371.521 -22.0044 1583.97 0
-300.905 -2.43433 1339.06 0
-186.129 17.278 1257.25 0
-232.451 22.136 1285.81 0
-188.226 57.3526 1264.48 0
-385.709 53.6558 1155.09 0
115.779 31.2783 657.936 0
-234.643 64.2308 1228.01 0
98.9573 44.8456 665.336 0
-254.898 81.4378 1172.66 0
127.946 46.5678 658.458 0
-102.61 136.679 1050.82 0
37.9158 137.911 689.279 0
-238.123 172.189 794.356 0
-165.683 217.717 714.253 0
-152.829 217.484 710.57 0
0.202097 -1310.64 4351.52 0
-632.949 -283.99 1875.72 0
-128.29 -75.824 1438.78 0
86.0178 -21.0592 1143.18 0
412.852 -13.6479 1532.51 0
117.393 13.7458 674.535 0
-338.145 55.9909 1174.44 0
-178.625 61.5128 1260.33 0
-262.386 72.9398 1171.21 0
105.717 41.6439 662.886 0
178.702 54.5147 647.584 0
-6.87173 129.647 1143.78 0
42.3044 102.773 693.86 0
-122.054 155.298 1047.33 0
-206.45 163.251 833.071 0
-156.923 195.906 919.058 0
-199.944 200.717 726.953 0
-156.139 224.533 691.637 0
251.964 -335.825 1012.69 0
215.815 -334.288 1033.91 0
314.974 -387.979 2119.06 0
-646.371 -306.315 1882.09 0
-578.658 -216.564 1869.12 0
-79.2297 -127.594 1689.01 0
-29.5405 -125.457 1666.72 0
-497.91 -119.646 1597.78 0
-6.5029 35.1458 1349.19 0
-384.212 75.9012 1162.74 0
23.1603 100.354 1127.83 0
-3.20298 141.466 1116.89 0
-129.603 142.26 1020.61 0
-271.798 159.823 832.568 0
-176.332 179.425 903.863 0
38.7136 146.32 688.109 0
54.1251 186.772 693.488 0
30.3815 198.999 681.613 0
-78.2338 -1380.85 4364.45 0
484.326 -1018.16 3819.01 0
-38.3907 -399.506 2067.01 0
-670.841 -350.375 1993.06 0
-630.515 -308.936 1921.38 0
6.00329 -267.841 2127.64 0
436.05 -62.6693 1267.06 0
144.63 53.468 654.822 0
50.0998 71.2044 678.877 0
-120.788 142.761 1038.47 0
-201.48 169.96 852.503 0
-176.631 178.717 897.619 0
-176.631 178.717 897.619 0
102.58 -1246.4 4118.29 0
-814.795 -743.608 3346.95 0
174.966 -143.759 1906.05 0
-307.341 -105.428 1610.73 0
-393.991 -28.8132 1333.89 0
102.833 33.324 665.756 0
74.2287 65.7451 675.75 0
72.031 78.4182 677.882 0
69.861 91.7908 680.154 0
64.4303 125.774 684.231 0
-236.409 165.944 806.941 0
87.7737 175.549 692.035 0
65.2015 188.103 692.459 0
65.2015 188.103 692.459 0
-28.8586 218.837 714.645 0
400.624 -84.4059 1226.3 0
-264.826 173.022 822.005 0
