ply
format ascii 1.0
element vertex 354
property float x
property float y
property float z
property uchar intensity
end_header
5.87727 6.42019 -25.0536 0
3.17128 6.17284 -25.0437 0
-8.00276 5.23131 -25.0031 0
-3.71157 4.65354 -25.023 0
-0.340364 4.41051 -25.1272 0
-4.13841 4.17458 -25.0249 0
7.88273 4.05913 -25.0552 0
7.25783 4.01578 -25.0473 0
6.75483 3.90954 -25.1532 0
6.87051 3.87637 -25.1559 0
6.79947 3.85389 -25.1579 0
-3.56924 3.7607 -25.0645 0
8.42529 3.7947 -25.1218 0
-0.363518 3.70195 -25.1058 0
-3.34729 3.5626 -25.0556 0
5.87605 3.49939 -25.2217 0
-3.56372 3.47125 -25.0648 0
-8.78912 3.47802 -25.0167 0
-8.71099 3.37943 -25.03 0
6.55609 2.90642 -25.216 0
-8.43191 2.82987 -24.9674 0
2.22278 2.34245 -25.3483 0
2.10995 2.33266 -25.3574 0
2.26582 2.2207 -25.3093 0
3.41755 2.15892 -25.3104 0
4.14552 2.07949 -25.2044 0
4.52465 2.07628 -25.2079 0
2.54652 1.95766 -25.3062 0
4.58321 1.94787 -25.192 0
-3.75586 1.47153 -25.4031 0
2.57748 0.371564 -25.3823 0
6.02439 -2.74861 -26.1314 0
5.95818 -2.74767 -26.116 0
2.2549 -3.44917 -26.1733 0
1.36147 -3.6321 -26.1632 0
1.30244 -3.67792 -26.1583 0
0.926138 -3.71079 -26.1539 0
-5.85631 -5.52695 -26.1644 0
-2.16139 -5.77277 -26.1311 0
-8.17268 -8.02163 -26.2601 0
7.61568 8.44133 -25.8176 0
3.31083 7.63665 -25.5973 0
3.36313 6.1341 -25.0582 0
1.0514 5.11933 -25.0251 0
0.261681 4.943 -25.0399 0
-3.31209 4.50882 -25.0402 0
-3.58269 4.50936 -25.0258 0
-3.28724 4.33607 -25.0411 0
-0.22962 3.80804 -25.0786 0
3.95053 3.77583 -24.9925 0
3.68682 3.74195 -24.9986 0
-1.78919 3.71421 -25.3591 0
3.33925 3.67396 -25.0291 0
2.6073 3.6665 -25.0278 0
-4.08689 3.43849 -25.0406 0
-3.32649 3.36906 -25.0906 0
-3.75456 3.17618 -25.0427 0
7.93321 3.12173 -25.259 0
-3.58598 3.07506 -25.065 0
-3.58598 3.07506 -25.065 0
6.64516 2.91247 -25.2169 0
-8.52417 2.88473 -24.9754 0
6.04179 2.77888 -25.181 0
-3.96971 2.75774 -25.1085 0
-8.44793 2.72056 -24.9659 0
4.53179 2.28749 -25.1928 0
2.47716 2.27375 -25.3084 0
4.61213 2.22978 -25.1819 0
4.13239 1.92879 -25.1612 0
6.87302 0.385682 -25.3441 0
1.55932 -2.64939 -25.9583 0
1.22459 -2.7186 -25.973 0
4.24467 -2.94201 -26.1607 0
7.20873 -2.99718 -26.0634 0
1.64179 -3.56758 -26.1613 0
-4.59061 -5.15491 -26.1625 0
-3.21105 -5.54841 -26.1326 0
-5.01281 -5.64113 -26.1294 0
-6.85444 -5.70293 -26.1678 0
-5.23984 -5.82685 -26.1342 0
-2.43524 -5.90349 -26.1356 0
-8.6117 -7.3948 -26.2045 0
-2.24434 -7.54939 -26.1363 0
-3.53519 -7.62009 -26.1076 0
-8.63128 -7.78763 -26.1903 0
-8.11196 -8.06156 -26.2556 0
8.38522 -8.20436 -26.1908 0
7.2563 -8.47914 -26.2031 0
0.948081 7.43523 -25.563 0
5.52227 5.62793 -25.0341 0
-7.75804 5.30711 -25.0051 0
-3.6788 5.0105 -25.0436 0
-4.08387 4.25149 -25.0403 0
-4.06119 4.1012 -25.0214 0
-3.46924 4.03631 -25.0404 0
-3.85896 3.74954 -25.0313 0
-3.85896 3.74954 -25.0313 0
3.24888 3.63021 -25.0348 0
-0.947259 3.41113 -25.3266 0
7.79863 3.33775 -25.2814 0
-3.4977 3.1196 -25.0764 0
7.65759 3.06528 -25.2341 0
-0.955704 2.92993 -25.3535 0
6.30333 2.93934 -25.1942 0
-8.46362 2.9565 -24.9735 0
5.79709 2.69029 -25.2196 0
4.23091 2.05874 -25.2005 0
-1.07848 2.04975 -25.2697 0
4.69977 2.01569 -25.1901 0
4.32696 1.93222 -25.1868 0
-0.283433 1.8649 -25.1325 0
4.23502 1.85654 -25.1893 0
5.14985 0.57332 -25.3113 0
4.24476 0.499298 -25.3641 0
7.35364 -4.05535 -26.1008 0
-2.67037 -4.66074 -26.1625 0
-1.82836 -4.93737 -26.1278 0
-3.62361 -4.96455 -26.1527 0
-3.62361 -4.96455 -26.1527 0
7.20101 -5.05233 -26.0985 0
-1.76252 -5.00807 -26.1209 0
-4.27761 -5.21222 -26.137 0
-7.45053 -5.73715 -26.1571 0
7.60141 -6.14813 -26.163 0
-4.94059 -6.49921 -26.1527 0
-8.61449 -6.58867 -26.2839 0
-8.61449 -6.58867 -26.2839 0
-4.55878 -6.62532 -26.1492 0
-2.29274 -6.63311 -26.1481 0
-4.62696 -6.74851 -26.1627 0
7.24734 -6.92317 -26.1506 0
-2.17311 -7.28832 -26.1295 0
-8.33517 -7.45236 -26.1523 0
-8.37631 -7.67896 -26.1783 0
8.07862 -7.74398 -26.2058 0
-4.31702 -8.01951 -26.156 0
-8.5417 -8.18671 -26.2499 0
0.318284 7.93013 -25.5705 0
0.926174 7.75911 -25.5714 0
3.34073 7.52142 -25.575 0
-6.0266 7.49256 -25.5004 0
-6.17552 7.48167 -25.5147 0
5.15651 6.75133 -25.0245 0
3.2918 6.22272 -25.0299 0
3.2918 6.22272 -25.0299 0
-4.91331 6.12423 -25.436 0
7.3385 5.65242 -25.0278 0
-8.14183 5.46489 -25.0115 0
-8.17224 5.14288 -24.9976 0
-8.15432 4.91516 -25.0259 0
-3.42993 4.57119 -25.0394 0
-3.45998 4.40401 -25.0354 0
-3.26076 3.98398 -25.033 0
-3.93747 3.8433 -25.0225 0
-3.46528 3.73186 -25.0476 0
5.05697 2.6933 -25.2269 0
4.45443 1.98765 -25.1976 0
-4.12124 1.88369 -25.3916 0
5.4104 1.79906 -25.2532 0
1.43761 1.75376 -25.181 0
-4.53227 1.56178 -25.4092 0
4.54159 0.696704 -25.2937 0
7.53936 0.663359 -25.3016 0
4.63373 0.585596 -25.2957 0
-3.00718 0.40898 -25.4181 0
-3.07306 0.00256678 -25.4359 0
6.30403 -2.3807 -26.1018 0
6.94948 -2.81826 -26.079 0
4.95156 -3.02191 -26.1261 0
4.74982 -3.06545 -26.1292 0
4.54155 -3.1073 -26.1185 0
7.20625 -3.55977 -26.1337 0
-1.00584 -4.38464 -26.1451 0
7.27075 -4.58074 -26.1387 0
7.13131 -5.20305 -26.0599 0
-2.70026 -5.19761 -26.1321 0
-1.87806 -5.42213 -26.1268 0
-3.10692 -5.59662 -26.1436 0
-7.09172 -5.67223 -26.1676 0
-7.55865 -5.69198 -26.156 0
-4.64807 -5.72353 -26.134 0
-4.64807 -5.72353 -26.134 0
7.54995 -5.85178 -26.1908 0
7.54995 -5.85178 -26.1908 0
-6.24597 -6.06593 -26.1432 0
-7.13081 -6.2522 -26.1756 0
-7.13081 -6.2522 -26.1756 0
-4.26047 -6.25188 -26.146 0
-8.31999 -6.50175 -26.2025 0
7.31573 -6.66075 -26.0626 0
7.25628 -6.80275 -26.1158 0
-3.0022 -6.78654 -26.1132 0
-3.0022 -6.78654 -26.1132 0
-8.84392 -6.96491 -26.1738 0
-8.84392 -6.96491 -26.1738 0
-4.1258 -6.93662 -26.1405 0
-3.73015 -6.96759 -26.1495 0
-3.73015 -6.96759 -26.1495 0
7.96365 -7.16097 -26.2416 0
7.48447 -7.14224 -26.2023 0
-2.08147 -7.38659 -26.1206 0
-8.88469 -7.95026 -26.3221 0
-1.2217 8.20464 -25.5765 0
2.50768 8.10977 -25.6252 0
-3.94115 7.80902 -25.4916 0
5.72611 7.82243 -25.6529 0
3.45709 7.14753 -25.6317 0
3.45709 7.14753 -25.6317 0
7.19074 6.68457 -25.1195 0
-7.88096 5.21786 -24.9948 0
-3.46584 3.36152 -25.0831 0
-3.97279 3.13322 -25.0447 0
0.410224 2.86631 -25.205 0
-0.258686 2.39955 -25.1232 0
0.197843 2.34012 -25.141 0
-0.187868 2.07932 -25.1234 0
-0.321439 1.98993 -25.1225 0
-0.456757 1.9024 -25.1374 0
-3.42459 1.36458 -25.4692 0
0.523043 1.17762 -25.2697 0
-2.53896 0.960422 -25.4824 0
4.55869 0.453791 -25.3094 0
4.99687 0.424751 -25.3247 0
5.07731 0.272633 -25.3657 0
4.20856 -0.010856 -25.4912 0
-3.84069 -0.536406 -25.3865 0
-5.76652 -0.798098 -25.4606 0
-5.76652 -0.798098 -25.4606 0
7.56058 -2.34662 -26.0364 0
6.79771 -2.62314 -26.0718 0
4.92686 -2.71834 -26.1411 0
5.2655 -2.802 -26.1124 0
5.73689 -2.82786 -26.1056 0
4.34932 -2.84148 -26.1346 0
4.86921 -2.88519 -26.1359 0
6.84026 -2.93213 -26.0367 0
4.64995 -2.94626 -26.1325 0
4.42577 -2.98258 -26.1332 0
3.59053 -3.00572 -26.1335 0
4.09337 -3.05036 -26.132 0
3.48821 -3.16883 -26.1337 0
3.48821 -3.16883 -26.1337 0
7.35084 -3.91229 -26.1161 0
-6.4817 -4.21973 -26.1365 0
6.99726 -4.36406 -26.0833 0
-6.75417 -4.47293 -26.2153 0
-7.63684 -4.71136 -26.2154 0
7.57768 -4.75379 -26.1225 0
7.07047 -4.85858 -26.0909 0
-7.02546 -4.85488 -26.1499 0
-2.49201 -4.81831 -26.1701 0
-6.76249 -5.35784 -26.1683 0
-2.90551 -5.48994 -26.1673 0
-2.79625 -5.76988 -26.1352 0
8.42371 -6.3295 -26.2353 0
-4.422 -6.24501 -26.1643 0
7.68909 -6.5189 -26.1892 0
7.50307 -6.70741 -26.1375 0
-4.74805 -6.87443 -26.1441 0
-2.87852 -7.48889 -26.1304 0
-8.31345 -8.23461 -26.2591 0
-8.66694 -8.35888 -26.3661 0
2.54678 6.15339 -25.0919 0
-8.01893 4.98325 -24.9877 0
-8.0971 2.63479 -24.9467 0
-0.673357 1.80741 -25.166 0
7.73777 0.635742 -25.2965 0
5.3555 0.586723 -25.2842 0
4.97587 0.581997 -25.2968 0
6.53259 0.423077 -25.3358 0
5.18759 0.410702 -25.3439 0
5.16948 -2.50763 -26.109 0
5.70877 -2.55241 -26.1112 0
5.70877 -2.55241 -26.1112 0
5.09065 -2.84176 -26.1192 0
7.26332 -3.40556 -26.099 0
6.91809 -3.85646 -26.0828 0
8.16727 -4.27252 -26.1926 0
-1.09169 -4.7516 -26.1223 0
-6.64006 -5.83534 -26.15 0
-4.25327 -5.91925 -26.1301 0
-3.9791 -6.0848 -26.1326 0
-3.69296 -6.30908 -26.1187 0
7.46374 -6.40235 -26.1523 0
7.46374 -6.40235 -26.1523 0
-4.79013 -6.62877 -26.1394 0
-4.68113 -7.04102 -26.1237 0
-4.54507 -7.74184 -26.1289 0
6.98004 -8.23511 -26.1878 0
-7.05482 8.08614 -25.5502 0
-6.78287 7.92067 -25.5398 0
-4.32612 7.71062 -25.4812 0
8.04498 7.77487 -25.7989 0
7.57045 7.68935 -25.6642 0
7.00679 7.11993 -25.3268 0
4.95305 6.86511 -25.2495 0
0.51255 6.86167 -25.5206 0
0.524676 5.2995 -25.02 0
-3.936 3.26224 -25.0651 0
5.49972 1.6794 -25.2568 0
-2.77056 1.50055 -25.4656 0
-3.20314 1.31981 -25.4356 0
5.75375 0.818924 -25.2414 0
-2.41879 0.28704 -25.4373 0
7.45663 0.255235 -25.3749 0
-7.34344 -1.98795 -25.5309 0
5.59436 -2.2444 -26.1068 0
-7.24285 -2.57911 -25.6159 0
5.9499 -2.64323 -26.1136 0
5.9499 -2.64323 -26.1136 0
6.20296 -2.76745 -26.1054 0
3.08831 -3.17713 -26.176 0
7.02024 -4.0961 -26.0917 0
-1.0001 -5.42223 -26.1292 0
-4.32066 -5.5628 -26.1311 0
-5.03709 -6.34106 -26.1415 0
-4.16651 -6.74991 -26.1187 0
7.88385 -7.48188 -26.1669 0
-6.84118 8.30881 -25.634 0
3.61708 7.32173 -25.4895 0
1.5248 7.04854 -25.5333 0
2.30348 6.49465 -25.1529 0
-6.06881 6.44139 -25.4063 0
-1.02762 5.5231 -25.5119 0
-4.04208 4.01803 -25.0199 0
4.91854 2.32179 -25.249 0
3.86445 1.99089 -25.2139 0
-8.49815 1.99422 -25.0877 0
5.23382 1.88077 -25.2611 0
-3.71009 1.73977 -25.38 0
-2.88505 0.230618 -25.4224 0
-3.55985 -0.505724 -25.4054 0
-2.97149 -5.9022 -26.1439 0
-8.34996 -7.55134 -26.1525 0
2.97553 6.5833 -25.2522 0
4.39968 3.68349 -25.0336 0
1.34397 3.06349 -25.4888 0
5.34779 2.26072 -25.2294 0
4.43862 -3.1245 -26.1051 0
-0.820877 -4.19281 -26.1399 0
-7.25951 -4.9773 -26.1643 0
7.321 -8.25202 -26.1756 0
7.321 -8.25202 -26.1756 0
-2.9529 1.64519 -25.4232 0
5.4058 1.27668 -25.2584 0
8.10446 -3.71788 -26.0823 0
-1.00648 -5.03777 -26.1184 0
7.42572 -5.88337 -26.1792 0
-7.99277 -7.16962 -26.1756 0
-2.51487 6.55651 -25.5136 0
-2.16879 -5.04914 -26.1372 0
-1.57705 -5.24913 -26.1328 0
-4.58519 -6.43481 -26.1446 0
-1.32643 -6.6751 -26.099 0
