ply
format ascii 1.0
element vertex 112
property float x
property float y
property float z
property uchar intensity
end_header
-2.16982 -0.429903 -25.5511 0
8.15336 -6.15096 -26.3451 0
1.06264 -6.47921 -25.3562 0
2.96366 6.15461 -25.939 0
-2.96959 5.87297 -25.0143 0
-2.10304 5.51148 -25.4397 0
7.47705 0.195907 -25.2559 0
5.63315 -0.026504 -25.5377 0
-7.64984 -0.0470678 -24.9875 0
-8.47967 -0.228416 -25.802 0
-2.06062 -0.764013 -25.5476 0
5.99396 -3.70857 -25.3627 0
4.77344 -6.19682 -25.6022 0
-2.5598 7.17349 -25.2421 0
-4.85447 5.66575 -24.9384 0
-7.80814 0.63407 -25.1354 0
-7.25335 0.528547 -24.9399 0
-6.9688 0.336329 -24.9627 0
-1.90267 -0.436345 -25.5408 0
7.17856 -0.452541 -25.2487 0
-1.7925 -0.47423 -25.5377 0
7.23027 -1.01511 -25.2374 0
8.00098 -1.12997 -25.262 0
-8.10435 -1.49017 -25.6061 0
-7.75206 -1.88437 -25.0194 0
-7.82367 -1.96501 -25.0088 0
1.44291 -2.18275 -25.4335 0
-7.91749 -2.60054 -25.2664 0
2.19295 -2.66636 -25.4852 0
7.23967 -3.61363 -25.482 0
5.94846 -3.78814 -25.3739 0
-1.48967 -4.12566 -25.5648 0
-0.78032 -5.3455 -25.5018 0
7.49129 -5.90228 -25.578 0
5.12416 7.77453 -25.541 0
-0.736717 6.23823 -24.9481 0
-5.11734 5.093 -24.964 0
-5.54906 4.85906 -24.9661 0
5.69846 1.95598 -25.3826 0
-7.628 0.642914 -25.0678 0
-6.77373 0.591575 -24.9204 0
-6.32903 0.481017 -24.9762 0
-8.54795 0.395861 -25.7347 0
-7.64986 0.305738 -25.0453 0
-7.40435 0.0238499 -24.9729 0
-7.22688 -0.129556 -24.9469 0
4.72037 -0.193624 -25.3268 0
7.98008 -1.00999 -25.2637 0
-8.23288 -1.44505 -25.5871 0
-8.04815 -1.63487 -25.2886 0
-7.76299 -2.0883 -25.0677 0
8.1031 -3.43048 -25.4838 0
5.49007 -3.83166 -25.3881 0
6.37621 -3.84589 -25.2821 0
6.83526 -4.02574 -25.3899 0
-2.25279 -4.1382 -25.4293 0
0.801285 6.46207 -25.6182 0
-4.61552 6.38048 -24.9178 0
-0.0385153 6.37014 -25.5108 0
-2.29897 5.45547 -25.3973 0
-4.83033 5.05529 -24.9926 0
5.60552 2.26586 -25.4063 0
3.25886 1.96099 -25.6533 0
6.77217 -1.37655 -25.3113 0
7.18397 -2.13908 -25.4771 0
-7.95696 -2.48561 -25.2418 0
1.9684 -2.6258 -25.4969 0
-1.03039 -4.28329 -25.4752 0
-0.880931 -4.42691 -25.4796 0
5.02178 -4.61126 -25.451 0
-2.14644 -4.83011 -25.5303 0
4.54198 7.43717 -25.5162 0
2.41386 7.01737 -25.5595 0
-4.49468 6.54921 -24.9369 0
-4.78066 6.49258 -24.9484 0
-2.78184 6.23646 -25.0581 0
-5.42018 5.71883 -24.9226 0
-5.20608 4.99484 -24.9667 0
-7.38627 -2.16057 -25.1418 0
7.47337 -3.58359 -25.542 0
7.40329 -4.16424 -25.6736 0
7.02345 -4.74135 -25.7559 0
1.4735 6.8415 -25.5913 0
-5.90489 4.72094 -25.0597 0
7.79768 -3.28573 -25.4615 0
7.05216 -3.62351 -25.3918 0
0.0498423 -4.14292 -25.4306 0
-3.82205 -5.42064 -25.0665 0
7.11884 -5.99784 -25.4502 0
8.02357 -6.3609 -25.7943 0
0.511688 -6.44045 -25.5016 0
-0.168306 -7.15841 -25.5839 0
-7.40406 0.189801 -24.971 0
7.34922 -2.37837 -25.4499 0
-0.206624 -3.97974 -25.4384 0
6.72887 -5.11634 -25.5594 0
4.75504 -5.99778 -25.5378 0
-1.09943 -6.16427 -25.5531 0
-7.01862 -0.00110519 -24.9553 0
-7.84205 -0.708687 -25.2799 0
-7.45795 -1.51813 -25.0143 0
-7.73142 -2.97488 -25.5482 0
4.7491 -4.80709 -25.4049 0
-0.508888 -7.31672 -25.607 0
3.5643 2.14637 -25.6299 0
-6.40536 0.582803 -24.9643 0
-7.03503 0.401244 -24.9547 0
-8.34162 -0.449656 -25.5029 0
-7.58436 -2.47576 -25.2316 0
4.03449 6.93356 -25.4527 0
7.28314 -2.71106 -25.4841 0
4.10146 -4.24396 -25.2818 0
