ply
format ascii 1.0
element vertex 230
property float x
property float y
property float z
property uchar intensity
end_header
4.69585 1.02426 -25.1096 0
-1.06455 -6.99377 -25.7351 0
-2.65296 -7.2023 -25.88 0
-5.64696 -7.59752 -26.0066 0
-2.99196 2.42926 -25.1018 0
7.73554 1.5502 -25.034 0
7.69102 1.41899 -25.1098 0
3.86777 -0.01342 -25.2165 0
-0.453016 -0.18305 -25.1527 0
2.38521 -0.442041 -25.9142 0
-7.01509 -0.466284 -25.2306 0
-0.188232 -0.557444 -25.1304 0
-6.94091 -0.687886 -25.2997 0
2.61401 -2.28634 -25.4165 0
0.497993 -4.35163 -25.3953 0
-0.999921 -6.82694 -25.6995 0
-2.15227 -7.13416 -25.9185 0
-2.62251 -7.14511 -25.8849 0
-2.38281 8.22567 -25.2293 0
-1.7082 2.6568 -25.1547 0
-3.19895 2.37272 -25.0818 0
-4.39024 1.89533 -25.2587 0
4.02141 1.22358 -25.1458 0
-4.09489 1.00773 -25.3777 0
6.79168 0.286443 -25.203 0
-0.417051 -0.244649 -25.1766 0
2.03018 -0.338485 -25.8774 0
-7.00646 -0.402169 -25.194 0
-7.64517 -0.742246 -25.4044 0
1.08093 -2.01936 -25.397 0
-6.58662 -2.07662 -25.2985 0
2.16388 -2.1386 -25.3685 0
1.40313 -2.26543 -25.3636 0
4.91013 -2.48318 -25.3893 0
2.6299 -5.04626 -25.4477 0
3.04165 -5.23464 -25.4502 0
-1.52799 -7.1142 -25.8564 0
-4.60374 -7.4884 -25.8771 0
4.06387 -7.76147 -25.5681 0
-5.01626 8.56028 -24.9957 0
-5.39212 8.38893 -25.0957 0
-7.15839 4.7277 -25.4196 0
-0.26911 3.42074 -25.14 0
-4.15773 1.86321 -25.5195 0
0.496629 1.82398 -25.1157 0
1.72831 1.73924 -25.1052 0
4.51564 1.08347 -25.1354 0
5.04457 0.451369 -25.1983 0
2.94529 0.202443 -25.2747 0
2.00608 -0.502968 -25.9144 0
-6.87284 -0.903696 -25.3274 0
0.363164 -2.07032 -25.374 0
1.75526 -2.17662 -25.3581 0
0.685146 -2.17461 -25.384 0
6.31357 -2.43814 -25.3766 0
6.84013 -2.49086 -25.3419 0
3.94786 -2.67053 -25.3872 0
-0.0227559 -4.24608 -25.3675 0
-0.100791 -4.68842 -25.3518 0
6.28174 -5.26039 -25.4504 0
7.10279 -5.7559 -25.5285 0
5.20597 -5.81434 -25.4642 0
-3.06183 -6.34922 -25.9027 0
4.10389 -7.83657 -25.5987 0
4.40706 -8.04389 -25.6319 0
5.22919 7.80086 -26.3539 0
1.00834 4.4393 -25.5971 0
-2.66194 4.17319 -25.4386 0
-0.412546 3.74525 -25.4261 0
5.01568 3.36661 -25.1942 0
-1.55879 2.74268 -25.1413 0
0.55132 2.33462 -25.0329 0
1.20604 1.75553 -25.0946 0
0.503619 1.65442 -25.1152 0
0.831688 1.52475 -25.1019 0
1.37011 1.50601 -25.2105 0
-3.51584 0.910249 -25.2342 0
3.15067 0.754447 -25.2414 0
4.42662 0.216179 -25.2383 0
5.20945 0.0466515 -25.2376 0
2.47144 -0.0375113 -25.2558 0
2.69864 -0.348162 -25.9107 0
-5.91041 -0.695284 -25.3269 0
-7.67643 -1.44037 -25.344 0
1.28008 -2.1972 -25.3691 0
4.4139 -2.25155 -25.3367 0
4.4139 -2.25155 -25.3367 0
1.66882 -2.26861 -25.3729 0
0.646135 -2.28578 -25.3916 0
0.646135 -2.28578 -25.3916 0
-6.37888 -2.34267 -25.2762 0
1.01414 -2.33118 -25.3639 0
5.83122 -2.39674 -25.3768 0
7.19059 -2.42275 -25.3717 0
1.40205 -2.38627 -25.3517 0
1.40205 -2.38627 -25.3517 0
6.99742 -2.53582 -25.3411 0
3.47936 -2.49459 -25.4215 0
3.4819 -2.60786 -25.4105 0
6.78205 -2.69245 -25.3632 0
5.26542 -2.83422 -25.4159 0
4.29078 -3.05497 -25.3342 0
7.19857 -3.10683 -25.3362 0
-2.46881 -3.06236 -25.3919 0
-0.757312 -3.7606 -25.3467 0
3.03095 -4.8964 -25.4509 0
1.20127 -5.24391 -25.4256 0
7.17984 -6.22514 -25.511 0
4.52641 -6.31544 -25.4915 0
7.51335 -6.43972 -25.5089 0
0.550132 -6.76316 -25.4872 0
0.0903296 -7.88018 -25.7364 0
-7.73994 -8.13936 -25.9133 0
-2.60377 8.22909 -25.437 0
-4.50627 7.82136 -25.7394 0
-1.00605 4.68778 -25.5573 0
-2.67686 3.89465 -25.4116 0
1.67579 3.7363 -25.3813 0
1.44812 2.85437 -25.0085 0
0.547717 2.14418 -25.0418 0
-3.08021 2.12585 -25.1195 0
-3.98987 1.7595 -25.3595 0
-1.76484 0.899675 -25.327 0
-2.81396 -0.037811 -25.2373 0
-0.520259 -0.272561 -25.188 0
1.99045 -0.38539 -25.9071 0
-6.65961 -1.06327 -25.319 0
0.212411 -2.22206 -25.3919 0
1.19391 -2.3264 -25.3601 0
1.58617 -2.40071 -25.3628 0
4.30179 -2.48242 -25.3575 0
-6.85501 -2.77241 -25.2663 0
7.73459 -3.506 -25.3919 0
7.17792 -3.58282 -25.3581 0
5.15579 -3.99094 -25.4622 0
7.13021 -4.55716 -25.4543 0
5.44518 -4.8267 -25.4695 0
5.42096 -5.57706 -25.4671 0
6.49314 -5.91502 -25.5073 0
6.25152 -6.01043 -25.5008 0
-2.03669 -7.12789 -25.8977 0
-2.25557 -7.166 -25.911 0
-2.48165 -7.18847 -25.8883 0
-0.158352 -7.25815 -25.5075 0
-3.36751 -7.30719 -25.8697 0
-3.36751 -7.30719 -25.8697 0
-3.55823 -7.3368 -25.8704 0
-5.33545 -7.51117 -25.9078 0
0.259113 -8.20034 -25.7141 0
5.26794 -8.38771 -25.6059 0
-7.85028 -8.49308 -25.9468 0
-7.85028 -8.49308 -25.9468 0
6.10569 0.140876 -25.2214 0
5.7621 -0.383141 -25.173 0
-6.08266 -0.372087 -25.3493 0
-5.99805 -0.552798 -25.3391 0
-5.65666 -0.954142 -25.3069 0
2.43897 -1.93461 -25.3991 0
2.0096 -2.14709 -25.3548 0
2.0096 -2.14709 -25.3548 0
2.38054 -2.17316 -25.374 0
0.442025 -2.24789 -25.4102 0
-0.656581 -2.43001 -25.3148 0
1.86227 -2.60403 -25.3722 0
6.95372 -2.70419 -25.3418 0
-2.72966 -2.72307 -25.3714 0
-6.85393 -2.76445 -25.2663 0
-7.12426 -2.74127 -25.2691 0
8.16801 -2.8723 -25.4277 0
-0.124067 -3.19664 -25.3301 0
7.23311 -3.27621 -25.3661 0
-4.71297 -3.43732 -25.5091 0
7.3076 -3.73419 -25.3827 0
0.282025 -4.10072 -25.3698 0
0.368823 -4.26739 -25.3706 0
7.54391 -6.14193 -25.4903 0
-0.572316 -6.19906 -25.5824 0
7.12623 -6.48179 -25.5154 0
2.02575 -6.85829 -25.5015 0
-1.23368 -6.86861 -25.8527 0
-0.762299 -7.08822 -25.6911 0
-3.74336 -7.42412 -25.8518 0
0.211781 -7.75108 -25.7341 0
-2.0839 3.52061 -25.0946 0
-1.78715 2.50638 -25.1514 0
7.34601 1.75374 -25.0269 0
7.86684 1.55024 -25.0208 0
-6.72191 -0.556581 -25.2817 0
-5.87241 -0.897507 -25.3053 0
-5.55978 -1.90794 -25.3084 0
4.61817 -2.33952 -25.3276 0
3.21985 -2.52817 -25.4431 0
5.39465 -3.20737 -25.3945 0
5.52909 -4.00457 -25.4451 0
0.379569 -4.48434 -25.4074 0
5.03496 -5.19227 -25.4028 0
5.03496 -5.19227 -25.4028 0
5.22961 -5.66393 -25.4457 0
7.31836 -6.32917 -25.5137 0
-1.36107 -6.57701 -26.0227 0
-0.99305 -6.95599 -25.7098 0
-3.75807 -7.26158 -25.8516 0
4.74123 7.66167 -26.2142 0
-2.94009 3.7399 -25.315 0
5.82141 -0.817699 -25.1797 0
2.89614 -1.93543 -25.3957 0
-6.18845 -2.14066 -25.2851 0
5.46503 -2.82169 -25.4657 0
3.97995 -2.8229 -25.3804 0
4.42634 -2.87413 -25.3529 0
1.74569 -6.79534 -25.5017 0
1.8475 -7.48056 -25.4941 0
4.68152 -8.19454 -25.66 0
5.01058 -8.31039 -25.6162 0
-1.80959 1.37109 -25.1181 0
4.78417 0.42205 -25.206 0
-6.36398 -0.925998 -25.2988 0
0.0647975 -7.85482 -25.7383 0
-7.55796 -7.97191 -25.9287 0
0.123588 -8.2858 -25.7071 0
-2.31279 3.96236 -25.4995 0
-3.19048 3.53595 -25.0483 0
7.44581 1.86764 -25.0543 0
0.0400214 -0.337734 -25.1803 0
-6.05385 -0.75739 -25.3227 0
0.0441423 -3.44335 -25.3633 0
0.31997 -4.95868 -25.3867 0
4.27162 4.66338 -25.6288 0
-0.531771 -0.0349068 -25.1624 0
-6.56888 -4.29404 -25.5035 0
