ply
format ascii 1.0
element vertex 361
property float x
property float y
property float z
property uchar intensity
end_header
-3.53654 5.50392 -25.0137 0
-2.83302 5.18754 -25.0302 0
-2.83302 5.18754 -25.0302 0
-2.90731 5.1186 -25.035 0
-3.50926 5.00697 -25.0053 0
-1.6069 3.1382 -25.1023 0
1.19683 2.42827 -25.216 0
7.84774 2.06298 -25.2264 0
-2.29452 1.97272 -25.2974 0
-2.40486 1.97109 -25.3322 0
0.699155 1.78713 -25.2343 0
-3.72225 -3.69309 -25.9531 0
-3.61667 -3.74953 -25.9704 0
-3.78949 -3.79472 -25.9397 0
-4.61641 6.58738 -25.4562 0
-3.34702 5.63349 -25.0202 0
-0.251664 5.52766 -25.0827 0
-0.476838 5.45363 -25.0041 0
-1.12805 5.43323 -25.0183 0
6.19992 3.69898 -25.0138 0
2.97712 3.26951 -25.1917 0
8.11522 2.26052 -25.2092 0
0.29197 1.80914 -25.2193 0
-1.97616 1.58839 -25.2605 0
-0.709948 0.167057 -25.337 0
0.556227 -2.38241 -25.4333 0
-3.5617 -3.73989 -25.9657 0
-2.47485 -3.88593 -25.9603 0
-5.56503 -4.16385 -25.9334 0
2.38773 -5.29345 -25.525 0
-2.12115 -5.96183 -25.9253 0
-3.38081 5.54755 -25.0075 0
2.48353 5.39456 -25.0381 0
-3.30696 5.37569 -24.996 0
-2.7681 5.2932 -25.0107 0
-3.35589 5.18364 -25.0426 0
-1.79329 5.14808 -24.98 0
-3.04842 4.88219 -25.0047 0
-3.28782 4.8116 -25.0242 0
4.8481 3.74503 -25.0176 0
4.27129 3.73487 -25.0287 0
0.858619 3.65729 -25.0008 0
-0.180507 3.63306 -25.0117 0
4.95828 3.62233 -25.0368 0
5.63966 2.72846 -25.146 0
2.02469 2.34235 -25.2335 0
1.6998 2.32066 -25.2086 0
0.687737 1.99412 -25.2016 0
0.45024 1.8458 -25.2397 0
-2.24892 1.8446 -25.2506 0
0.301344 1.65515 -25.1873 0
7.06192 1.49054 -25.2081 0
7.85397 0.701318 -25.2981 0
-0.274108 0.194422 -25.3359 0
-1.34366 0.200854 -25.3012 0
-1.11398 0.184947 -25.3301 0
-0.552735 0.156152 -25.3063 0
0.0402625 0.0884913 -25.3418 0
4.20544 0.0123829 -25.2521 0
3.13336 -0.275491 -25.3812 0
3.13336 -0.275491 -25.3812 0
-2.60291 -0.455926 -25.3129 0
7.64306 -0.921749 -25.3874 0
7.61593 -1.01527 -25.3917 0
-1.46074 -1.5976 -25.4295 0
-0.0571197 -2.27645 -25.4055 0
4.53939 -2.77572 -25.4203 0
-3.63244 -3.81749 -25.965 0
-4.89071 -3.94683 -25.9382 0
-7.38404 -4.42949 -25.881 0
2.11273 -5.05157 -25.5439 0
2.11273 -5.05157 -25.5439 0
-2.16141 -5.83253 -25.9394 0
-2.4451 -6.01026 -25.9313 0
-2.55905 -6.12135 -25.9242 0
-2.38432 -7.4395 -25.9071 0
-2.38432 -7.4395 -25.9071 0
-2.11645 -8.40497 -25.8886 0
-2.79395 5.43014 -25.0299 0
-2.77054 5.13146 -25.0341 0
-1.06006 4.75068 -24.9911 0
-3.14433 4.49897 -25.0521 0
-6.562 4.24095 -25.4319 0
-0.873472 4.11302 -25.0045 0
-6.65815 4.164 -25.4337 0
-6.35113 3.96488 -25.3166 0
6.28643 3.87484 -25.0113 0
6.04443 3.77051 -25.0148 0
3.87742 3.72017 -25.0337 0
5.28473 3.68704 -25.034 0
1.1252 3.66223 -25.0194 0
-0.97608 3.62633 -25.007 0
0.510185 3.60024 -25.0438 0
-0.281245 3.58902 -25.0184 0
-0.372639 3.53343 -25.031 0
4.87587 3.4933 -25.0514 0
4.26889 3.48453 -25.0776 0
-0.987267 3.46422 -25.0318 0
2.98873 3.35489 -25.1571 0
-7.5225 3.17963 -25.0192 0
-7.5225 3.17963 -25.0192 0
-3.42763 2.50947 -25.2595 0
3.05203 2.48402 -25.2281 0
3.61736 2.19391 -25.3479 0
0.772514 1.94554 -25.2207 0
7.77945 1.81736 -25.205 0
0.389707 1.78056 -25.224 0
0.389707 1.78056 -25.224 0
-0.720211 1.7731 -25.3074 0
7.26011 1.74599 -25.206 0
0.470811 1.64867 -25.2165 0
0.378761 1.57952 -25.1929 0
-8.14976 0.833001 -25.3338 0
7.49805 0.784454 -25.2581 0
7.84351 0.624185 -25.3129 0
5.37767 0.133693 -25.2973 0
-1.37961 0.123045 -25.2936 0
-0.479465 0.060938 -25.3248 0
-0.276938 0.0403619 -25.3761 0
-8.69615 0.0335068 -25.2965 0
5.1681 0.0157084 -25.278 0
-1.54034 0.00852964 -25.3433 0
-1.13916 -0.0284423 -25.3401 0
-0.39101 -0.0790652 -25.369 0
-0.0166373 -0.111215 -25.3552 0
0.705379 -0.137177 -25.385 0
1.68313 -0.187491 -25.354 0
7.42232 -0.230183 -25.3223 0
2.51168 -0.254202 -25.3674 0
7.06586 -0.287349 -25.3818 0
3.57096 -0.301696 -25.4346 0
4.36132 -1.93668 -25.4148 0
7.97978 -2.23819 -25.437 0
4.40587 -2.55238 -25.429 0
-0.534747 -2.81675 -25.4353 0
5.17739 -2.92407 -25.456 0
5.16896 -3.33233 -25.4468 0
-2.76733 -3.92718 -25.9625 0
-2.49662 -4.1036 -25.9367 0
-1.09894 -4.12722 -25.7418 0
-2.59759 -4.64738 -25.9643 0
2.41791 -5.12502 -25.5339 0
-2.90086 -6.55485 -25.8977 0
-2.11028 -6.96 -25.8868 0
4.32329 -7.00575 -25.6977 0
-2.43449 -7.55268 -25.9298 0
-2.44528 -7.6592 -25.9296 0
-1.95524 -7.80438 -25.936 0
-2.2018 -7.84776 -25.9159 0
-2.33603 -7.88421 -25.9044 0
-0.937279 -7.90882 -25.8966 0
-1.88885 -7.99983 -25.9172 0
-1.66144 7.28247 -25.617 0
-7.32111 7.34106 -25.4807 0
-8.54225 5.82469 -25.4266 0
1.78715 5.3466 -25.0202 0
-3.04093 5.34891 -24.9918 0
7.69825 4.02392 -25.0373 0
7.41776 4.025 -25.1099 0
7.56253 3.98786 -25.0892 0
-5.78591 2.86591 -25.2674 0
2.61468 2.552 -25.2649 0
0.750501 2.37673 -25.2226 0
3.33263 2.34105 -25.3827 0
0.655878 2.22749 -25.2119 0
-8.38953 1.57873 -25.294 0
7.54177 0.878183 -25.2418 0
-1.14215 0.290507 -25.3335 0
4.04951 0.0823855 -25.2813 0
2.64137 0.0522902 -25.328 0
2.64137 0.0522902 -25.328 0
5.05188 0.0328687 -25.2805 0
6.58182 -0.0314397 -25.3319 0
4.00358 -0.108438 -25.3537 0
4.98031 -0.121596 -25.3437 0
2.39864 -0.252555 -25.3842 0
2.82092 -0.274528 -25.3983 0
5.3231 -0.435823 -25.3852 0
7.54523 -0.714994 -25.3691 0
3.55574 -0.979802 -25.4044 0
6.74445 -1.20801 -25.3485 0
1.25558 -2.37887 -25.3932 0
4.17612 -2.54868 -25.4264 0
4.32225 -2.59876 -25.434 0
-3.2803 -2.84244 -25.9968 0
3.37503 -3.32495 -25.4378 0
-4.71723 -3.8144 -25.9345 0
-5.28243 -3.91923 -25.9545 0
-5.56742 -3.96786 -25.9378 0
-4.97241 -4.01243 -25.937 0
-2.83314 -4.04768 -25.9208 0
-4.65571 -4.0808 -25.9166 0
-4.85041 -4.11748 -25.9248 0
-5.05186 -4.14893 -25.9126 0
-5.88235 -4.30348 -25.9348 0
-3.30842 -4.32171 -25.9444 0
7.56506 -4.48386 -25.5052 0
-3.19469 -4.43794 -25.9248 0
-0.602473 -4.53671 -25.5749 0
7.75496 -4.67179 -25.5353 0
7.75496 -4.67179 -25.5353 0
2.17478 -4.95303 -25.5439 0
2.17478 -4.95303 -25.5439 0
-2.48648 -5.55697 -25.9313 0
-2.29516 -5.99418 -25.9407 0
-2.15758 -6.68905 -25.9576 0
-2.15758 -6.68905 -25.9576 0
-2.06821 -7.30187 -25.9199 0
-2.21159 -7.33754 -25.9388 0
6.07526 -8.29034 -25.8152 0
0.416396 7.91706 -25.637 0
-0.843029 6.56989 -25.5485 0
-2.93349 6.45045 -25.4777 0
0.858145 6.29956 -25.6234 0
-1.37877 5.75626 -25.037 0
-1.4315 5.57775 -24.9828 0
-1.57207 5.09473 -24.9271 0
-6.48352 4.11626 -25.3885 0
-0.906552 3.91557 -25.0306 0
-4.77233 3.89319 -25.0864 0
7.5431 3.42913 -25.0963 0
0.984797 2.33638 -25.2211 0
7.66759 0.967229 -25.2763 0
-0.132639 0.301814 -25.3106 0
-0.0737418 0.150391 -25.3295 0
1.22546 -0.0456033 -25.3958 0
7.43263 -0.0858429 -25.2593 0
1.6195 -0.0672533 -25.3548 0
6.95148 -0.232592 -25.3694 0
6.39939 -0.467121 -25.3513 0
4.5503 -0.698959 -25.4321 0
4.5503 -0.698959 -25.4321 0
5.03009 -0.732015 -25.5189 0
6.68535 -0.836354 -25.397 0
5.21239 -0.884525 -25.4503 0
5.52676 -0.90235 -25.4877 0
-2.02845 -1.63649 -25.3988 0
5.16405 -1.81449 -25.4449 0
3.54 -2.10883 -25.4354 0
3.54 -2.10883 -25.4354 0
1.99662 -2.43533 -25.403 0
7.55301 -2.49328 -25.4426 0
8.22719 -2.8725 -25.4925 0
3.53216 -2.86598 -25.4113 0
3.50258 -3.13785 -25.4144 0
-7.28776 -3.50235 -25.7587 0
5.5583 -3.52635 -25.4861 0
-2.35376 -3.60509 -25.9662 0
-4.43523 -3.62717 -25.9435 0
-4.36234 -3.89395 -25.9373 0
-4.5473 -3.93341 -25.9423 0
-4.76537 -3.96279 -25.9366 0
-5.17829 -4.0403 -25.9375 0
-6.04081 -4.05588 -25.967 0
-5.51912 -4.1 -25.9478 0
-5.92164 -4.17312 -25.9437 0
-0.583156 -4.12005 -25.5636 0
-6.11266 -4.19433 -25.9423 0
-6.11266 -4.19433 -25.9423 0
-0.216463 -4.82916 -25.4996 0
2.51644 -4.87012 -25.5283 0
-2.30829 -4.95023 -25.9464 0
-2.68444 -5.34133 -25.9144 0
-2.59077 -5.65026 -25.9211 0
-2.61344 -5.79506 -25.9233 0
4.13396 -6.85804 -25.6552 0
5.32177 -7.09877 -25.7222 0
-1.34006 -7.13733 -25.9015 0
-2.04967 -7.91591 -25.9271 0
7.54444 4.09981 -25.0336 0
7.54444 4.09981 -25.0336 0
6.32916 3.71883 -25.0142 0
3.20315 2.49155 -25.2903 0
2.93137 2.49095 -25.2066 0
5.67381 2.33063 -25.2203 0
5.67381 2.33063 -25.2203 0
6.95252 2.22879 -25.1857 0
7.59532 2.01162 -25.1952 0
0.628864 0.125573 -25.3497 0
0.26367 0.136105 -25.3531 0
-1.34485 -0.026065 -25.3105 0
3.63712 -0.0617969 -25.3781 0
-0.589245 -0.0528268 -25.3477 0
-0.204723 -0.110915 -25.3636 0
3.10461 -0.141479 -25.387 0
-2.4521 -0.220076 -25.457 0
5.27383 -0.58919 -25.4246 0
5.3244 -1.01632 -25.447 0
-1.58458 -1.85216 -25.4125 0
4.34304 -2.23856 -25.4627 0
8.00361 -3.15917 -25.4903 0
-4.07308 -3.3779 -25.9949 0
-3.93496 -3.68864 -25.9296 0
-3.93496 -3.68864 -25.9296 0
-3.44007 -3.88026 -25.9527 0
-2.75066 -4.8875 -25.9287 0
2.27179 -5.04322 -25.5482 0
-2.37161 -6.873 -25.9248 0
5.86579 -7.0425 -25.6941 0
7.14173 -7.67739 -25.8874 0
-3.87018 4.73123 -25.0141 0
-3.4902 3.28077 -25.1195 0
-3.46644 2.8806 -25.1313 0
8.13743 1.94432 -25.2018 0
7.90194 1.5274 -25.216 0
-7.98914 1.16038 -25.3372 0
2.84296 0.067898 -25.3593 0
1.3899 -0.119735 -25.3773 0
2.59458 -0.329987 -25.3711 0
-1.72502 -0.975444 -25.413 0
6.65515 -1.6069 -25.3434 0
5.40154 -1.76187 -25.408 0
-3.99194 -2.70372 -25.903 0
3.36848 -2.95416 -25.4287 0
6.86816 -3.13195 -25.5139 0
5.34802 -3.4211 -25.4472 0
-3.69477 -3.76675 -25.9606 0
-6.51538 -4.21145 -25.9512 0
0.0547728 -4.47138 -25.4895 0
-2.39447 -4.53996 -25.965 0
-2.64973 -5.08834 -25.9387 0
2.71463 -5.52116 -25.5417 0
-1.42604 -5.86072 -25.8909 0
7.79042 -7.04452 -25.8442 0
-2.19311 -7.13783 -25.8852 0
4.01016 -7.26758 -25.628 0
-5.54518 6.32965 -25.5003 0
-3.48324 4.24319 -25.0446 0
8.28984 2.20913 -25.176 0
1.15825 0.375503 -25.3014 0
0.441918 0.378613 -25.3207 0
-8.27677 -0.0833263 -25.3124 0
2.1695 -0.33501 -25.3894 0
0.0834992 -2.20677 -25.4626 0
7.89376 -3.59671 -25.4481 0
-0.183495 -4.13431 -25.4988 0
-0.0397361 -4.81863 -25.5262 0
2.97686 -5.32662 -25.5478 0
-5.71902 6.02056 -25.4892 0
-2.94607 5.48362 -25.0638 0
8.12903 2.56214 -25.1562 0
7.91917 2.19366 -25.2584 0
-8.56035 1.13272 -25.317 0
7.503 0.0636286 -25.2655 0
-1.58017 -2.42791 -25.5427 0
-0.528031 -3.86025 -25.5448 0
-5.19134 -4.17604 -25.9105 0
-5.8078 -4.27025 -25.9382 0
-1.68965 -4.83297 -25.9352 0
4.64578 -6.99179 -25.6877 0
4.64578 -6.99179 -25.6877 0
5.58289 -7.08659 -25.7289 0
6.97322 -7.44665 -25.8399 0
5.88723 3.98889 -25.0211 0
-2.36021 -0.801443 -25.46 0
7.08279 -1.35426 -25.3996 0
-2.47989 -5.05761 -25.9626 0
-2.41331 -5.52342 -25.9379 0
-2.26166 -6.71543 -25.9457 0
-2.35786 2.10086 -25.3017 0
7.69311 -7.49747 -25.9028 0
