ply
format ascii 1.0
element vertex 208
property float x
property float y
property float z
property uchar intensity
end_header
-2.72876 8.10578 -25.4231 0
8.42637 0.936904 -26.1544 0
4.84418 -0.799234 -26.1931 0
0.267994 -1.10956 -26.1251 0
0.06105 -1.15464 -26.1233 0
-6.24504 -1.62165 -26.1063 0
3.00547 -3.00907 -26.165 0
-3.50902 -4.46713 -26.2262 0
1.68562 -5.56359 -26.1854 0
3.43914 -5.97772 -26.0483 0
-1.00979 -8.42769 -26.1698 0
-1.48486 -8.44332 -26.1908 0
-3.11155 -8.48085 -26.1204 0
-1.52156 -8.50029 -26.1912 0
-3.77903 1.72816 -25.4536 0
6.40494 1.0645 -25.9663 0
-3.40487 0.254208 -25.5384 0
5.17076 -0.537153 -26.2069 0
4.26524 -0.82655 -26.2147 0
-6.28029 -1.30043 -25.7671 0
0.534452 -1.3913 -26.1722 0
-6.89932 -1.66385 -26.0307 0
1.80595 -2.85409 -26.1701 0
1.33516 -2.87471 -26.2347 0
2.14148 -3.11354 -26.1313 0
3.36712 -3.13309 -26.1742 0
-0.200653 -3.1524 -26.2427 0
5.63629 -3.27462 -25.0341 0
4.91099 -3.30723 -25.8598 0
3.19091 -5.79724 -26.0611 0
2.91186 -5.80681 -26.0353 0
3.24822 -6.02362 -26.0374 0
3.89231 -6.18863 -26.089 0
6.17522 -6.80438 -26.2011 0
-0.399609 -8.40571 -26.1507 0
-2.25941 8.3372 -25.5691 0
5.47402 8.31205 -25.0476 0
-4.53757 7.81358 -25.4619 0
-1.90127 7.50845 -25.3819 0
-6.15666 3.74227 -25.0673 0
-8.11749 3.68696 -24.9491 0
0.547265 2.47831 -25.1917 0
1.02674 1.16987 -25.2701 0
-3.14374 0.852142 -25.4526 0
4.72604 0.501032 -25.8784 0
5.1417 0.472646 -25.9411 0
5.43112 0.394693 -25.9803 0
5.20421 0.364624 -25.967 0
5.04984 0.0193749 -26.1316 0
-3.26214 -0.538023 -25.6057 0
3.68508 -0.581154 -26.2541 0
-6.13281 -1.84853 -26.1712 0
1.69846 -2.90563 -26.1676 0
1.12044 -2.92646 -26.222 0
2.48485 -3.00224 -25.8149 0
1.42009 -3.02401 -26.1939 0
3.65231 -3.06234 -26.2038 0
7.93302 -3.23357 -25.0115 0
4.3837 -3.24285 -25.8705 0
7.7443 -3.36634 -24.9998 0
0.692586 -5.6433 -26.1462 0
3.31288 -5.74643 -26.078 0
8.07307 -6.73756 -26.2165 0
5.06167 -7.17598 -26.1971 0
-6.66798 8.80626 -25.5473 0
3.76219 8.28782 -24.991 0
-0.439205 8.01247 -25.6116 0
-4.88318 7.6919 -25.4394 0
-4.62434 7.58261 -25.4456 0
-5.32942 7.54311 -25.4656 0
-6.4296 3.7108 -24.9756 0
-2.41543 3.32867 -25.4398 0
-1.81978 3.19107 -25.446 0
0.423722 2.77424 -25.119 0
2.51779 2.76384 -25.1924 0
5.91757 2.42364 -25.349 0
-5.15037 1.8165 -25.4477 0
1.07537 1.72601 -25.433 0
-5.10206 1.12305 -25.5057 0
1.03485 0.997532 -25.3292 0
3.87648 0.0124373 -26.0185 0
5.76498 -0.257778 -26.2143 0
5.96967 -0.725653 -26.1429 0
-2.1315 -1.00417 -25.7945 0
-5.19339 -1.62061 -26.2038 0
-5.8547 -2.99306 -26.2023 0
2.01805 -3.04625 -26.1443 0
1.38457 -3.14793 -26.1917 0
1.38457 -3.14793 -26.1917 0
6.564 -3.18369 -24.9815 0
1.76878 -3.19051 -26.1644 0
7.06159 -3.23705 -24.9796 0
2.15566 -3.24859 -26.1289 0
2.15566 -3.24859 -26.1289 0
-5.65729 -3.28931 -26.2109 0
4.25024 -3.34416 -25.8854 0
4.29166 -3.46311 -25.8814 0
7.55249 -3.49205 -25.0961 0
4.75505 -3.5269 -25.8591 0
4.50548 -3.85771 -25.9508 0
8.04068 -3.96787 -25.6644 0
0.331053 -4.40213 -26.1747 0
0.0980768 -4.70112 -26.1971 0
0.799869 -5.1975 -26.1565 0
-7.99227 -5.25494 -25.8387 0
7.24717 -6.24908 -26.2062 0
2.013 -6.19478 -26.1032 0
8.1697 -7.23817 -26.1102 0
0.586723 -7.31698 -26.1301 0
8.51166 -7.46067 -26.1295 0
1.71675 -8.0665 -26.2004 0
-1.42113 -8.34853 -26.1831 0
0.256439 7.96048 -25.5917 0
-3.61497 6.72204 -25.002 0
-1.83163 2.92248 -25.4974 0
-0.943355 1.62547 -25.4234 0
1.06195 1.51793 -25.4038 0
6.53187 0.951275 -26.0359 0
-3.27895 0.800173 -25.4711 0
-2.24802 -0.742265 -25.719 0
3.16603 -0.825901 -26.2559 0
3.40865 -1.15557 -26.2235 0
3.27044 -1.38137 -26.1701 0
-5.9323 -2.00482 -26.1876 0
-5.71465 -2.78425 -26.1917 0
0.931118 -3.08131 -26.224 0
2.40235 -3.10984 -25.8173 0
1.93563 -3.17013 -26.1569 0
2.33683 -3.24701 -25.9583 0
5.07533 -3.30991 -25.8421 0
3.98022 -3.45941 -25.8924 0
6.0642 -3.66753 -25.0262 0
-6.14237 -3.72756 -26.1516 0
5.52147 -4.10231 -25.4183 0
6.07216 -4.18798 -25.4983 0
8.07883 -4.47354 -25.648 0
6.39534 -4.49767 -25.8645 0
-8.4614 -5.42257 -25.6377 0
6.36209 -5.76996 -26.1215 0
6.34811 -6.56622 -26.1966 0
7.4361 -6.89013 -26.2112 0
8.14686 -7.50267 -26.1213 0
-2.48933 8.37296 -25.4959 0
-5.06364 8.37871 -25.4824 0
1.09998 7.84026 -25.3612 0
-4.98573 7.61133 -25.475 0
-3.79917 0.924607 -25.4989 0
6.86152 -0.58497 -26.1251 0
-4.94666 -1.87918 -26.2778 0
-4.81751 -2.05814 -26.3235 0
2.78868 -2.74769 -26.1831 0
-2.46612 -2.8269 -26.2858 0
2.7414 -2.9743 -25.8363 0
2.7414 -2.9743 -25.8363 0
2.39051 -2.93908 -25.8148 0
1.17641 -3.09712 -26.2076 0
0.0522635 -3.29725 -26.2162 0
2.65907 -3.46492 -25.8723 0
7.72988 -3.51947 -25.2437 0
-6.41636 -3.70128 -26.1646 0
6.26452 -4.08509 -25.7308 0
8.13705 -4.14527 -25.6423 0
-4.0296 -4.33273 -26.2251 0
8.226 -4.63143 -25.8202 0
-8.43368 -4.84306 -25.9027 0
6.38175 -4.89981 -25.6907 0
1.11009 -5.04171 -26.1706 0
7.25428 -7.01671 -26.2089 0
2.94469 -7.90486 -26.2043 0
-0.204862 -7.88227 -26.1804 0
-0.0948352 -8.15516 -26.1879 0
1.79269 8.11651 -25.5027 0
4.86436 8.06346 -25.0552 0
-8.34089 3.23472 -25.0401 0
-8.01529 2.87633 -25.1328 0
-1.27803 2.58449 -25.492 0
-5.1602 -1.81924 -26.193 0
-4.805 -2.80975 -26.22 0
3.12688 -3.00735 -26.1676 0
5.37524 -3.15271 -25.4525 0
2.75818 -3.23552 -25.815 0
4.00215 -3.38558 -25.8964 0
-6.12647 -3.70581 -26.1611 0
5.97557 -4.82046 -25.6476 0
1.21093 -5.47948 -26.1703 0
5.94739 -6.14764 -26.1216 0
5.94739 -6.14764 -26.1216 0
6.15659 -6.64565 -26.2011 0
1.85524 -7.13477 -26.1488 0
8.31986 -7.34563 -26.1059 0
2.68317 -7.8509 -26.2074 0
0.151707 -8.26066 -26.2612 0
-2.10674 2.79257 -25.5144 0
3.6072 -2.73082 -25.4069 0
-5.46071 -3.07342 -26.2029 0
4.79592 -3.69804 -25.9518 0
5.20581 -3.72043 -25.3517 0
-0.0917422 3.24569 -25.1389 0
5.52214 -0.342001 -26.2123 0
6.28822 -3.64828 -25.0136 0
-6.56478 -4.94812 -26.1967 0
0.491857 3.00157 -25.1009 0
-1.46921 2.99131 -25.4684 0
-2.4262 2.68756 -25.462 0
0.728319 -1.15785 -26.2025 0
-5.35397 -1.63733 -26.182 0
5.13036 3.65414 -25.2461 0
-6.63403 -4.90577 -26.1976 0
