ply
format ascii 1.0
element vertex 94
property float x
property float y
property float z
property uchar intensity
end_header
-6.73271 0.59895 -25.0603 0
-3.9923 -0.760321 -25.2065 0
-6.30932 1.26685 -25.0189 0
-5.03134 0.95393 -24.9874 0
-5.03394 0.888471 -24.9682 0
-6.40706 0.765567 -24.961 0
-6.73419 -1.81478 -25.0165 0
-1.04074 6.3548 -25.5975 0
1.16066 -2.58921 -25.476 0
-4.52201 1.73973 -24.9837 0
-6.09186 1.52384 -25.0338 0
-7.4456 1.27346 -25.598 0
-5.79322 1.1442 -25.0104 0
3.42069 0.819083 -25.1053 0
-0.627678 0.354213 -25.5233 0
-1.45051 -0.345146 -25.5173 0
2.74888 -1.27047 -25.4896 0
3.97297 -1.54917 -25.2435 0
3.67162 -1.58494 -25.2571 0
8.04085 -2.59671 -25.6183 0
0.246376 -2.91925 -25.5441 0
4.5567 8.3984 -25.7967 0
6.70693 7.56752 -25.7033 0
-3.70617 6.10651 -25.0073 0
-3.75943 5.83154 -25.0064 0
4.40227 3.63901 -25.3183 0
5.15923 3.60173 -25.2458 0
-5.37726 2.26843 -24.9852 0
-5.4862 2.20626 -24.9844 0
-6.39142 1.44764 -25.0159 0
-5.5806 1.39632 -25.0088 0
-5.1172 1.29193 -25.0412 0
-4.70688 1.11223 -25.0172 0
-4.70688 1.11223 -25.0172 0
-6.42294 1.11167 -25.0022 0
-5.9915 0.688974 -24.9914 0
0.233129 0.320817 -25.4629 0
-7.18219 -0.255485 -25.1587 0
-3.24095 -0.77441 -25.2272 0
-3.51529 -1.02569 -25.1081 0
-6.50682 -1.25174 -25.1624 0
-6.60224 -1.6222 -25.0524 0
6.67356 -3.48425 -25.9987 0
-3.49128 7.4288 -25.837 0
-4.05203 5.88783 -25.0663 0
7.15287 4.60019 -25.0787 0
6.74788 4.02875 -25.2665 0
7.57239 3.65601 -25.0052 0
5.18515 3.34708 -25.1759 0
-5.39258 1.99289 -24.993 0
-7.26767 1.20646 -25.2729 0
2.55051 -0.585359 -25.5481 0
2.48056 -1.38931 -25.4669 0
3.47126 -1.50459 -25.2957 0
6.51415 -3.59358 -25.9367 0
2.0547 -3.89645 -25.499 0
4.42178 8.29932 -25.8041 0
3.56141 7.95833 -25.8167 0
-3.80748 7.33195 -25.8219 0
-3.59538 7.24511 -25.8149 0
-4.41077 6.54804 -25.7558 0
-1.24944 6.34258 -25.6061 0
-4.16315 5.75996 -25.05 0
-7.50809 0.117458 -25.1076 0
3.08396 -1.27153 -25.4046 0
-6.13147 -1.33038 -25.0725 0
0.898172 -3.08303 -25.4706 0
1.44695 -6.02471 -25.7475 0
5.73261 8.37319 -25.6186 0
2.56292 7.74463 -25.7684 0
-4.85178 5.47783 -25.205 0
-6.2219 0.991731 -25.017 0
1.04098 -2.43295 -25.4792 0
1.67688 -3.93888 -25.5486 0
6.23428 7.31283 -25.694 0
-4.79855 1.46193 -25.0296 0
1.48964 -2.82832 -25.4611 0
2.11153 -5.32576 -25.8627 0
-0.608062 -6.61016 -25.868 0
-5.75622 0.817522 -25.0085 0
-6.59172 0.110639 -25.0792 0
-6.24704 -0.702237 -25.5292 0
-6.27747 -1.59301 -25.0579 0
-6.42362 -2.07659 -25.0199 0
6.41766 -3.73037 -25.8352 0
1.1253 -6.14338 -25.7491 0
5.48182 3.50601 -25.1434 0
-5.20253 1.3993 -25.0283 0
-5.82565 1.21105 -25.0142 0
-6.5021 -0.307553 -25.2369 0
-6.5021 -0.307553 -25.2369 0
5.21066 7.9509 -25.6135 0
-4.35869 0.970528 -25.0189 0
5.71965 -3.21658 -25.9778 0
