ply
format ascii 1.0
element vertex 373
property float x
property float y
property float z
property uchar intensity
end_header
-0.0198007 6.98244 -25.0187 0
-3.09309 6.88031 -25.0435 0
-5.88167 6.27353 -25.0832 0
-1.85804 6.19495 -24.9719 0
-4.27908 6.1369 -24.9957 0
-3.61149 5.81486 -25.0069 0
-2.92584 3.01525 -25.2683 0
0.18847 2.86786 -25.202 0
-0.226927 2.86096 -25.1858 0
-8.24864 -2.73661 -25.8829 0
-5.46955 7.85644 -25.4866 0
2.08711 7.26109 -25.0506 0
2.52325 7.23535 -25.1503 0
1.92572 7.16265 -25.0616 0
4.55502 6.90971 -25.0227 0
-4.06451 6.33423 -24.9905 0
-1.09004 6.27287 -24.9898 0
-1.44141 6.24008 -24.9643 0
-4.08518 6.25788 -24.9914 0
-6.02584 6.27887 -25.0559 0
-4.10758 6.18143 -24.9963 0
-3.67453 6.10759 -24.9881 0
-3.53832 5.83296 -24.9904 0
-3.53832 5.83296 -24.9904 0
-4.21328 5.61869 -25.0124 0
-3.72913 5.52008 -24.9862 0
-3.97265 5.43913 -25.0128 0
5.55915 4.96173 -25.036 0
5.5015 4.83409 -25.0476 0
4.0627 4.74041 -25.0286 0
2.34193 4.51955 -25.2209 0
4.35751 4.25851 -25.082 0
0.840048 4.14042 -25.239 0
3.73677 3.91878 -25.1228 0
7.4229 3.85742 -25.1871 0
7.21825 3.67378 -25.2215 0
-1.05194 2.98097 -25.2705 0
-3.9887 -1.74768 -25.9452 0
-3.87979 -1.80472 -25.9519 0
-4.47337 -1.81308 -25.9286 0
-2.69106 -2.00926 -25.8983 0
-5.52787 -2.04266 -25.9233 0
-5.7085 -2.20347 -25.9055 0
-8.07187 -2.7007 -25.8822 0
-0.770465 -2.89415 -25.5469 0
6.42608 -5.44181 -25.838 0
-1.77903 8.20601 -25.5698 0
1.75674 8.07481 -25.4949 0
4.75805 6.93619 -25.024 0
-3.70802 6.40745 -24.9547 0
-4.65677 6.36017 -24.9814 0
-4.14123 6.32083 -24.9944 0
0.103101 6.22398 -24.9624 0
-3.48159 5.92988 -24.9543 0
-4.05983 5.80039 -25.0022 0
-3.70792 5.31325 -25.0098 0
-3.79137 5.17055 -25.0236 0
-5.14512 5.02017 -25.125 0
4.20899 4.91054 -25.0016 0
4.65083 4.88381 -25.0564 0
4.32757 4.8005 -25.0292 0
-0.783431 4.45812 -24.9889 0
-0.618304 4.43153 -25.0122 0
-6.82865 4.44144 -25.2906 0
-6.76015 4.14657 -25.3211 0
-4.0671 3.49147 -25.2078 0
-0.139084 3.02649 -25.2125 0
-2.7673 2.91367 -25.2358 0
-0.123831 2.84381 -25.205 0
-0.202968 2.70811 -25.1602 0
7.13214 2.38028 -25.2502 0
7.24894 2.29965 -25.2773 0
-0.694593 1.39592 -25.3507 0
-4.45282 1.40241 -25.1123 0
-1.13155 1.35546 -25.3102 0
-1.41683 1.34724 -25.2899 0
-1.73456 1.33765 -25.2883 0
-0.907969 1.27135 -25.292 0
1.25604 1.21414 -25.3454 0
7.13441 0.927411 -25.3823 0
7.59931 0.716314 -25.3864 0
4.01476 -0.206033 -25.422 0
-2.56761 -1.25831 -25.9966 0
-1.4314 -1.77306 -25.7574 0
-5.05462 -1.95099 -25.925 0
-1.31467 -2.22445 -25.7599 0
-2.60509 -3.81626 -25.9172 0
-2.53545 -3.84722 -25.9244 0
-2.2768 -3.8521 -25.909 0
6.52163 -5.4515 -25.8254 0
-2.05443 -6.13383 -25.855 0
-1.80791 -6.18728 -25.8771 0
-1.28355 -6.54556 -25.8442 0
-2.35803 -6.84026 -25.8516 0
7.4213 8.06684 -25.0552 0
0.186892 6.94258 -25.0276 0
3.29581 6.7822 -25.0363 0
-3.96104 6.30304 -24.9866 0
-1.88283 6.11508 -24.9786 0
-4.22915 6.01043 -24.9954 0
-3.46923 5.78211 -24.993 0
-1.7231 5.46944 -24.9829 0
-7.24087 5.31668 -25.4263 0
-7.34554 5.22737 -25.4322 0
-3.85268 5.09406 -25.0318 0
-7.08243 5.15223 -25.3512 0
5.39514 5.0123 -25.0172 0
3.28327 4.79457 -25.0373 0
2.18064 4.54501 -25.1951 0
-1.57632 4.39985 -24.9979 0
-1.48901 4.3037 -25.0065 0
2.45859 3.82946 -25.205 0
2.98737 3.58662 -25.2973 0
-8.03897 3.59071 -25.0813 0
0.614741 3.41581 -25.2007 0
0.141703 3.14651 -25.203 0
-0.125548 2.84427 -25.205 0
-0.0302814 2.71751 -25.2088 0
-0.119405 2.64026 -25.1819 0
4.67445 1.59122 -25.2647 0
4.5248 1.49617 -25.3623 0
3.54287 1.42663 -25.3231 0
0.702092 1.3775 -25.3343 0
4.82846 1.25472 -25.3842 0
3.10766 1.23643 -25.4224 0
2.06935 1.21081 -25.3674 0
0.273492 1.19003 -25.3983 0
0.0605869 -1.02434 -25.3963 0
0.252188 -1.10387 -25.4669 0
4.83012 -1.45519 -25.4571 0
-2.97761 -1.82418 -25.9247 0
-3.74949 -1.84711 -25.9316 0
-0.814349 -3.00887 -25.5875 0
1.94581 -3.02848 -25.5475 0
1.96162 -3.12686 -25.5534 0
1.96162 -3.12686 -25.5534 0
-2.26839 -3.6658 -25.9329 0
-2.65112 -3.94836 -25.9133 0
-2.15204 -4.77221 -25.8742 0
4.17792 -4.81373 -25.6541 0
-2.01637 -4.83923 -25.8694 0
-2.37816 -5.26175 -25.8987 0
5.90589 -5.67733 -25.7871 0
-2.17644 -5.64997 -25.887 0
-1.85757 -5.67913 -25.9062 0
-2.30518 -5.68066 -25.8812 0
-1.8264 -5.76941 -25.8987 0
6.11023 -6.96098 -25.9251 0
5.99603 -7.12099 -25.9452 0
-8.24284 8.47297 -25.6485 0
-1.73238 8.0973 -25.5478 0
-3.79262 7.82774 -25.4903 0
-3.59656 7.46968 -25.5354 0
-5.55164 7.18233 -25.4392 0
0.109678 7.02867 -25.015 0
0.109678 7.02867 -25.015 0
7.21658 6.41944 -25.0735 0
-3.50938 6.07533 -24.94 0
-3.75473 5.9847 -24.9702 0
-1.97684 5.87147 -24.9693 0
7.0152 5.31044 -25.0595 0
-1.51073 4.85376 -24.9993 0
-1.49006 4.64215 -24.984 0
2.26729 4.57955 -25.2119 0
2.71592 3.73042 -25.3475 0
-0.137027 3.13324 -25.188 0
0.111624 2.78201 -25.2145 0
7.08467 2.59249 -25.2461 0
-2.74174 2.49232 -25.1316 0
4.54584 1.60785 -25.2587 0
3.57744 1.5738 -25.2859 0
2.19564 1.51348 -25.3018 0
2.19564 1.51348 -25.3018 0
-0.515848 1.48728 -25.3329 0
-1.54484 1.43901 -25.2918 0
-0.475246 1.37118 -25.3339 0
1.20754 1.30369 -25.3245 0
1.96201 1.23295 -25.3732 0
2.65732 1.22635 -25.358 0
-0.569478 1.16404 -25.336 0
7.02548 1.13704 -25.3809 0
6.21178 0.965883 -25.4301 0
5.00887 0.821391 -25.4693 0
4.74521 -0.0590056 -25.4251 0
-6.64533 -0.154295 -25.4061 0
7.53449 -0.271911 -25.4476 0
6.35549 -0.584187 -25.4156 0
4.08319 -0.838749 -25.4251 0
3.83467 -0.842839 -25.4325 0
3.98765 -0.887288 -25.4193 0
3.17953 -1.43614 -25.4272 0
-3.57665 -1.47481 -25.9133 0
6.54792 -1.60642 -25.4903 0
3.1216 -1.58507 -25.4464 0
-3.0949 -1.67444 -25.9163 0
-4.87809 -1.81774 -25.9148 0
-5.43232 -1.94668 -25.9299 0
-5.68412 -2.00377 -25.9003 0
-5.13091 -2.03133 -25.9205 0
-4.83617 -2.0882 -25.9052 0
-5.0328 -2.13365 -25.909 0
-5.22255 -2.17901 -25.9199 0
7.22987 -2.33017 -25.4309 0
-2.46802 -2.80485 -25.9263 0
-0.36395 -3.23921 -25.5335 0
-2.59981 -3.41238 -25.9159 0
-2.68508 -3.65526 -25.908 0
-2.38705 -3.82737 -25.9376 0
-2.20317 -4.49882 -25.9166 0
-2.20317 -4.49882 -25.9166 0
-2.08028 -5.09311 -25.893 0
-2.22217 -5.13344 -25.8803 0
-1.93642 -5.58367 -25.9044 0
-1.72466 -5.63185 -25.9064 0
6.4028 -5.90933 -25.8507 0
5.89269 -7.23916 -25.9351 0
0.138924 7.94747 -25.577 0
3.82456 7.53792 -25.0346 0
-6.45678 7.52298 -25.5083 0
-1.01101 6.89252 -24.9268 0
-2.10961 6.46991 -24.9324 0
2.9262 6.4014 -25.177 0
-2.15959 6.30497 -24.936 0
-5.91293 6.01298 -25.1636 0
-2.24244 5.84897 -24.9619 0
-7.1994 5.17964 -25.3943 0
6.90947 4.68737 -25.0782 0
2.59102 3.86296 -25.2642 0
2.341 3.83795 -25.1965 0
5.08591 3.75516 -25.1932 0
5.08591 3.75516 -25.1932 0
6.36388 3.75283 -25.2004 0
6.97778 3.6006 -25.2119 0
6.90644 1.64346 -25.2483 0
-0.136406 1.53338 -25.2903 0
0.20145 1.39004 -25.301 0
-0.171043 1.3783 -25.3295 0
0.710317 1.3209 -25.3391 0
5.90736 1.28807 -25.3807 0
5.47708 1.28596 -25.3746 0
0.975421 1.05236 -25.3779 0
5.37069 0.966119 -25.4499 0
4.74323 0.830648 -25.4688 0
-2.18014 0.793439 -25.4416 0
7.18158 -0.480669 -25.4614 0
1.6909 -0.891634 -25.4112 0
3.22731 -1.18718 -25.4334 0
-2.34968 -1.39234 -25.8946 0
-4.63018 -1.62304 -25.9162 0
-4.12363 -1.66466 -25.941 0
-4.12363 -1.66466 -25.941 0
-4.54825 -1.88301 -25.9337 0
-4.70269 -1.92052 -25.9268 0
-3.03385 -1.95368 -25.8999 0
-4.93074 -1.97429 -25.9129 0
-5.33892 -2.06568 -25.9329 0
-6.15146 -2.1159 -25.9086 0
-5.65699 -2.13746 -25.9127 0
6.18583 -2.21727 -25.4883 0
-6.01894 -2.22729 -25.9123 0
-6.23783 -2.262 -25.9171 0
-6.23783 -2.262 -25.9171 0
7.42724 -2.5027 -25.5026 0
7.42724 -2.5027 -25.5026 0
-0.171145 -2.67286 -25.5141 0
-2.89317 -2.77478 -25.9278 0
3.05528 -3.43693 -25.543 0
-2.21974 -3.52296 -25.9145 0
3.9903 -4.68408 -25.634 0
5.14757 -4.77579 -25.69 0
-1.38002 -4.88376 -25.894 0
-2.27801 -5.0035 -25.8715 0
-2.03952 -5.70396 -25.889 0
-1.60525 -6.10003 -25.8564 0
5.92295 -6.49918 -25.8706 0
-2.60244 -6.54912 -25.8597 0
5.31492 -6.99221 -25.8911 0
5.66837 -7.26552 -25.9191 0
-0.0565377 7.96458 -25.4955 0
3.64268 7.94976 -25.2611 0
-6.35504 7.13436 -25.4735 0
-4.5368 5.36492 -25.0494 0
6.89001 5.381 -25.1051 0
6.89001 5.381 -25.1051 0
5.16426 5.07461 -25.0113 0
7.26279 3.16459 -25.2261 0
2.37917 1.48681 -25.3574 0
0.953477 1.24368 -25.3703 0
-1.38494 1.158 -25.3013 0
-1.76141 1.13406 -25.3021 0
4.78031 1.10858 -25.4192 0
3.166 1.0939 -25.4568 0
-8.01704 0.889097 -25.2943 0
3.19093 -0.428229 -25.4303 0
-4.26712 -0.734001 -25.8518 0
7.5788 -1.09501 -25.4625 0
-4.28824 -1.35645 -25.9719 0
4.87216 -1.71597 -25.5023 0
-3.64988 -1.8121 -25.9452 0
2.08377 -3.22627 -25.5431 0
-2.81503 -3.22706 -25.9171 0
5.40976 -7.17098 -25.8835 0
5.01702 -7.21046 -25.9003 0
-5.42807 7.33778 -25.4784 0
-4.08822 4.09631 -25.1155 0
7.52225 3.56983 -25.1994 0
5.5534 1.81859 -25.3912 0
0.679382 1.63159 -25.2502 0
2.142 1.14626 -25.379 0
1.73498 1.11043 -25.4003 0
-2.11761 0.201206 -25.4238 0
-6.01526 0.0280379 -25.3884 0
4.9694 -0.0303259 -25.3954 0
4.00862 -0.494304 -25.4361 0
6.51861 -1.15138 -25.4663 0
3.05963 -1.26448 -25.4183 0
5.01632 -1.53332 -25.4678 0
-3.9029 -1.71994 -25.9422 0
-6.62512 -2.28765 -25.9451 0
-0.751775 -2.32247 -25.583 0
-2.59229 -2.43691 -25.966 0
-0.115107 -2.88623 -25.5194 0
7.51695 -4.49222 -25.711 0
5.68579 -4.63509 -25.6877 0
3.85761 -5.11639 -25.6319 0
6.3867 -6.47474 -25.8953 0
0.66389 -6.91392 -25.7656 0
5.27591 -7.63409 -25.8965 0
-0.860815 7.29737 -25.1499 0
7.65174 3.84345 -25.1984 0
-3.92531 3.74586 -25.1606 0
6.87328 2.71256 -25.175 0
6.95892 1.73576 -25.2842 0
0.014856 1.61027 -25.3231 0
-0.233118 -0.81677 -25.4201 0
7.51253 -1.54433 -25.4208 0
-0.382571 -2.54031 -25.5037 0
-0.195233 -3.20152 -25.5344 0
2.77985 -3.41537 -25.5721 0
2.57991 -3.65163 -25.5258 0
4.44587 -4.74834 -25.6659 0
-1.88959 -6.54761 -25.8605 0
-1.07246 -7.05901 -25.9245 0
1.59941 7.61345 -25.2483 0
-3.65584 6.09994 -24.9857 0
-0.0934338 4.41592 -25.0331 0
7.45317 4.14602 -25.1585 0
7.28836 3.78607 -25.2192 0
-0.548226 2.80634 -25.1483 0
-2.64257 1.55444 -25.4107 0
-5.33485 -2.20775 -25.9144 0
-2.72123 -2.50552 -25.9528 0
-1.86614 -2.66472 -25.9334 0
5.423 -4.73012 -25.7 0
4.4874 -4.7639 -25.6729 0
4.4874 -4.7639 -25.6729 0
6.76377 -4.85526 -25.7267 0
5.218 5.21542 -25.0109 0
3.45719 5.0597 -25.0052 0
4.15232 1.41832 -25.3229 0
6.64494 0.475823 -25.4481 0
-4.38122 -1.06271 -26.0198 0
-3.77552 -1.43959 -25.9394 0
-2.63024 -2.9384 -25.9314 0
-2.53195 -3.39306 -25.925 0
-2.30551 -4.54122 -25.9211 0
4.5394 -6.01587 -25.7273 0
-3.04362 -6.20821 -25.8601 0
-2.24876 -6.60317 -25.8578 0
-2.24876 -6.60317 -25.8578 0
0.921389 -7.3373 -25.7453 0
-8.19278 1.2796 -25.3736 0
7.43314 -4.92704 -25.7326 0
