ply
format ascii 1.0
element vertex 96
property float x
property float y
property float z
property uchar intensity
end_header
5.38782 3.09481 -25.4976 0
-6.51847 2.91571 -25.2223 0
-6.37511 3.87772 -24.9596 0
-3.03255 3.4421 -25.4737 0
-5.76784 3.36841 -25.2435 0
-5.71061 3.33513 -25.2534 0
-0.0187465 2.83271 -25.5026 0
-6.99113 2.73912 -25.3976 0
6.21098 1.57238 -25.7628 0
2.71911 1.24592 -25.4511 0
2.73351 1.1909 -25.484 0
-5.84238 0.888829 -25.0559 0
-3.39415 8.65082 -25.5117 0
-6.42221 3.81201 -24.9795 0
-6.05785 3.52363 -25.1552 0
-4.48953 3.02349 -25.4558 0
0.0307533 2.93512 -25.5055 0
2.86839 2.53785 -25.4552 0
6.38249 1.52908 -25.7907 0
-5.70422 0.858065 -25.0807 0
2.76256 0.617407 -25.8388 0
-5.9697 0.372003 -25.084 0
1.52582 -0.400927 -26.3621 0
4.92191 -2.06118 -26.1586 0
7.24337 -7.7344 -26.2979 0
-4.34672 4.98619 -25.4962 0
-4.83992 4.35898 -24.9742 0
-5.59401 3.6109 -25.0663 0
-5.04035 3.51882 -25.3598 0
0.972598 2.84221 -25.3695 0
-2.23489 1.42205 -25.5436 0
-2.23489 1.42205 -25.5436 0
-6.15896 1.31794 -25.07 0
-5.89643 1.01728 -25.0613 0
7.18165 -7.06664 -26.1399 0
5.24694 -7.85899 -26.3571 0
7.57117 -8.42599 -26.2877 0
-5.37175 8.80312 -25.513 0
5.2931 6.93251 -25.2014 0
6.06012 6.93239 -25.2044 0
-1.63441 5.65316 -25.0086 0
-4.9533 4.29927 -24.9411 0
-4.001 3.89903 -25.4963 0
-5.8426 3.52316 -25.1149 0
-4.56603 3.41455 -25.4543 0
-6.69467 3.29163 -25.1445 0
-4.143 3.25699 -25.4569 0
-4.143 3.25699 -25.4569 0
-5.83033 2.98907 -25.323 0
-5.62797 2.93749 -25.3246 0
5.95073 2.16357 -25.6846 0
1.49524 -0.179811 -26.2471 0
1.66685 -0.42047 -26.3625 0
1.75523 -1.2143 -26.3339 0
6.23176 -7.51347 -26.1844 0
2.64484 -7.79049 -26.2457 0
7.72995 7.42916 -25.2564 0
3.70021 7.05419 -25.1853 0
0.402526 6.20071 -25.277 0
-3.52709 3.97043 -25.4913 0
-5.5919 3.32839 -25.2252 0
-5.8798 3.22172 -25.275 0
-5.56472 0.754635 -25.5326 0
1.37154 -0.181981 -26.2058 0
7.45467 -0.788853 -26.2036 0
7.19477 -7.65845 -26.2516 0
7.39689 -7.73495 -26.2894 0
7.12925 -8.32747 -26.4006 0
-2.56084 6.11373 -25.2458 0
-5.70441 3.09391 -25.3126 0
-6.8953 2.18959 -25.0726 0
1.97525 0.062004 -26.0405 0
1.67522 -0.197566 -26.3012 0
7.31216 -0.901139 -26.2114 0
-4.11689 -1.83113 -26.3068 0
6.52536 6.25172 -25.2114 0
2.45164 -1.06455 -26.3609 0
-2.37482 6.37202 -25.0834 0
-2.28253 6.00077 -25.0577 0
-6.61933 3.76712 -24.9813 0
-4.26115 3.60379 -25.4564 0
-5.21192 2.93337 -25.2949 0
1.79118 0.370541 -25.6936 0
-5.81886 0.05522 -25.0916 0
2.2413 0.0243784 -26.2492 0
2.84913 -2.6571 -26.3056 0
-6.03642 2.19143 -25.0716 0
-5.61476 1.3977 -25.0968 0
-5.66372 0.483008 -25.0806 0
-1.40657 -4.2991 -26.3481 0
-4.65354 3.53437 -25.4558 0
-5.28709 3.31421 -25.2956 0
-5.89187 1.77075 -25.086 0
-5.89187 1.77075 -25.086 0
7.19905 -1.02739 -26.2237 0
1.74402 0.231617 -25.7073 0
