ply
format ascii 1.0
element vertex 387
property float x
property float y
property float z
property uchar intensity
end_header
-3.35358 7.65066 -25.4818 0
-4.58041 7.18768 -25.4698 0
-4.03867 7.16099 -25.4349 0
-1.92028 7.04355 -24.994 0
-4.19199 7.11054 -25.4332 0
-4.78877 7.10204 -25.3372 0
-4.21563 7.01229 -25.4286 0
-6.0332 6.94054 -25.4751 0
-3.77072 6.85447 -25.1615 0
-3.09872 6.57216 -25.0025 0
5.63926 6.22149 -25.0894 0
-4.03226 6.15865 -25.0913 0
4.26176 6.08383 -25.1159 0
3.67764 6.00349 -25.0808 0
4.38481 6.00062 -25.1351 0
5.50584 5.86346 -25.2925 0
5.19608 5.43178 -25.2104 0
7.69587 5.41756 -25.2217 0
1.97546 4.99673 -25.2167 0
1.62585 4.92698 -25.1911 0
1.27906 4.84219 -25.1634 0
-0.170377 4.25627 -25.0564 0
0.0223313 4.09217 -25.0919 0
-0.0308673 3.98199 -25.1532 0
-2.51813 3.95497 -25.3376 0
-2.58584 3.95532 -25.3631 0
7.66583 3.90681 -25.3165 0
-0.0180003 3.76986 -25.2879 0
-5.77884 3.7349 -25.2912 0
-3.89063 3.62045 -25.3831 0
-2.55952 3.38788 -25.3552 0
-1.35032 2.36864 -25.0989 0
-3.22013 0.0771031 -25.4004 0
-3.09671 -0.0395908 -25.4233 0
-3.26752 -0.0886287 -25.3456 0
-3.15258 -0.142521 -25.3812 0
-4.32683 -0.372008 -25.4901 0
-4.32683 -0.372008 -25.4901 0
-6.85259 -0.399591 -25.3384 0
-4.7834 -0.509697 -25.4801 0
-4.98217 -0.633684 -25.4683 0
-7.34898 -1.23104 -25.4344 0
-7.51427 -1.28773 -25.4325 0
3.49366 -1.9491 -25.8716 0
3.599 -1.96938 -25.857 0
7.4372 -3.45187 -25.6822 0
-0.675088 -4.57973 -26.2635 0
-1.67297 -5.5391 -26.2644 0
-2.80492 -8.20286 -26.0309 0
1.96674 8.34063 -24.9812 0
0.165682 8.02675 -25.113 0
-1.93432 7.87218 -25.5726 0
-3.25991 7.68528 -25.491 0
-3.84174 7.17965 -25.3654 0
-2.2543 7.01561 -25.0017 0
-4.27545 7.07982 -25.4341 0
-2.36471 6.98539 -24.9676 0
-6.17286 6.95584 -25.4717 0
-4.15965 6.54543 -25.2682 0
-7.45 6.45441 -25.4698 0
-3.81668 6.28063 -25.3875 0
-3.79766 6.06067 -25.4139 0
4.05979 5.88996 -25.0988 0
-3.85726 5.90297 -25.3148 0
2.32044 5.78323 -25.163 0
3.97608 5.7726 -25.0834 0
-5.264 5.71685 -25.3984 0
0.943043 5.37592 -25.1647 0
-6.74091 5.25483 -25.4797 0
-6.74091 5.25483 -25.4797 0
1.34272 4.94002 -25.1637 0
-6.6237 4.86602 -25.3959 0
0.398806 4.76813 -25.138 0
6.78422 4.50721 -25.2339 0
-6.6686 4.11314 -25.1843 0
0.118683 3.95983 -25.2245 0
-2.77646 3.89237 -25.4265 0
0.0537111 3.70757 -25.2855 0
-3.40723 3.42246 -25.4473 0
3.51071 2.66432 -25.3243 0
3.05736 2.6322 -25.3169 0
0.656819 2.57604 -25.1309 0
7.63438 2.60384 -25.4405 0
0.302083 2.55483 -25.1127 0
7.61866 2.53126 -25.4852 0
-0.849141 2.47358 -25.0989 0
-0.185235 2.44292 -25.1095 0
8.10356 2.39143 -25.525 0
4.50384 1.28255 -25.3856 0
-4.69552 1.2437 -25.4107 0
-4.69552 1.2437 -25.4107 0
0.506126 0.271925 -26.1141 0
3.63137 0.0455985 -25.4355 0
-3.14363 0.0224625 -25.4241 0
-3.07696 -0.117052 -25.4146 0
-4.78988 -0.446925 -25.4792 0
-7.25169 -1.19701 -25.4223 0
2.63956 -1.55766 -25.8177 0
2.6465 -1.64467 -25.7096 0
2.63279 -1.72984 -25.631 0
2.94651 -1.93684 -25.7131 0
-1.44961 -1.97274 -26.074 0
3.96007 -2.0873 -25.8068 0
-1.69838 -2.18061 -26.0865 0
-1.44888 -2.20797 -26.078 0
-1.13649 -3.17108 -25.9194 0
7.54256 -3.46396 -25.6848 0
-0.796549 -4.19341 -26.2628 0
-0.842724 -4.57895 -26.2636 0
7.23965 -4.83458 -25.802 0
-0.282236 -4.91495 -26.0073 0
-8.39368 -7.372 -26.2483 0
0.167292 8.02724 -25.113 0
1.99047 7.51841 -25.0352 0
1.85289 7.50001 -25.0302 0
-4.0963 7.06851 -25.4293 0
-3.61211 6.8244 -25.063 0
-2.45844 6.6956 -24.9562 0
-3.8664 6.74714 -25.3997 0
-3.57621 6.6693 -25.0128 0
-3.54376 6.51816 -24.9717 0
-7.74159 6.59866 -25.5974 0
-1.76796 6.2797 -24.9969 0
5.46156 6.26341 -25.0987 0
-6.95436 6.29915 -25.4909 0
5.05352 6.19657 -25.0808 0
-7.1207 6.2676 -25.5106 0
-4.07984 6.03472 -25.0595 0
2.38253 5.82366 -25.1599 0
-4.97236 5.84364 -25.1723 0
-1.49655 5.47583 -24.9938 0
2.82839 5.43034 -25.1438 0
2.19206 5.16543 -25.188 0
2.60443 5.14772 -25.1654 0
7.41928 4.94968 -25.2172 0
6.90299 4.79169 -25.1965 0
0.308583 4.2166 -25.1054 0
-6.05135 3.94189 -25.3028 0
7.26202 3.93139 -25.2554 0
0.151685 3.78219 -25.2719 0
-3.14903 3.63002 -25.4886 0
-3.46998 3.58305 -25.4496 0
7.30143 3.29009 -25.4425 0
-8.62989 3.27368 -25.0741 0
-8.62989 3.27368 -25.0741 0
6.5794 3.22246 -25.2853 0
4.92794 3.07755 -25.4415 0
5.0545 3.03293 -25.4322 0
3.92838 2.97518 -25.2667 0
-4.52516 2.87791 -25.2817 0
2.52281 2.78518 -25.2594 0
2.52281 2.78518 -25.2594 0
7.61311 2.79005 -25.3899 0
-0.230809 2.61744 -25.1133 0
5.14234 2.48585 -25.4376 0
5.14234 2.48585 -25.4376 0
1.00515 2.45099 -25.2206 0
4.57117 2.44869 -25.3409 0
-0.00454089 2.41459 -25.1034 0
5.23408 2.39706 -25.4257 0
-0.232309 2.35364 -25.1199 0
-0.607317 2.35082 -25.1724 0
-1.85956 2.29168 -25.4655 0
-2.61391 1.65691 -25.1798 0
-8.51867 1.58724 -25.3463 0
4.62134 0.665698 -25.4338 0
4.79132 0.494523 -25.452 0
3.73526 0.0451792 -25.4423 0
-2.25444 -0.113124 -25.7589 0
-2.04337 -0.122979 -25.8151 0
-2.28706 -0.307441 -25.9083 0
2.58206 -0.421517 -25.45 0
-6.7115 -1.06382 -25.4212 0
2.94699 -1.75307 -25.7042 0
-1.77701 -2.34064 -26.0837 0
4.71553 -2.87601 -25.5842 0
5.04962 -3.08366 -25.5846 0
-1.2183 -3.09841 -25.903 0
-1.46022 -3.65265 -26.1398 0
-1.46022 -3.65265 -26.1398 0
7.58275 -3.79965 -25.636 0
-1.2413 -4.02205 -26.2623 0
7.24708 -4.93564 -25.8089 0
7.14597 -5.08322 -25.8118 0
-8.81828 -7.39207 -26.2655 0
0.0102046 8.50242 -25.5338 0
-5.57062 8.54268 -25.6567 0
3.06562 8.0282 -25.024 0
3.57547 7.63072 -25.0643 0
2.80657 7.51001 -25.0378 0
-2.20493 7.32291 -25.3487 0
7.05927 6.58635 -25.0453 0
6.81314 6.55904 -25.0749 0
-7.19317 6.45377 -25.5627 0
-7.02439 6.41391 -25.4918 0
5.92266 6.21746 -25.0245 0
-1.56185 5.62974 -24.9609 0
0.0284048 4.2009 -25.0688 0
0.435608 4.12933 -25.1832 0
7.28087 4.02325 -25.2254 0
-6.55655 4.01769 -25.1802 0
0.289453 3.8523 -25.2517 0
-5.71809 3.86103 -25.3016 0
-6.47433 3.72753 -25.1792 0
-5.97486 3.65289 -25.2981 0
-6.03325 3.45392 -25.3011 0
6.33822 2.87745 -25.273 0
5.89666 2.84346 -25.2837 0
7.50866 2.81468 -25.3993 0
1.53767 2.5895 -25.2847 0
2.32633 2.58178 -25.2964 0
1.02701 2.56762 -25.1707 0
6.68273 2.59459 -25.381 0
2.4518 2.56773 -25.3019 0
6.06471 2.54929 -25.3504 0
5.62385 2.52138 -25.343 0
5.00826 2.48333 -25.4496 0
0.131558 2.42261 -25.1054 0
5.25903 1.46338 -25.4542 0
-8.47749 1.43154 -25.3461 0
8.09681 1.38742 -25.4213 0
-5.39155 1.13914 -25.3524 0
3.67235 1.00656 -25.3648 0
-3.05603 0.816011 -25.3489 0
4.36943 0.648484 -25.4313 0
4.51742 0.629713 -25.4385 0
-2.88838 0.204893 -25.5771 0
7.26999 0.0879378 -25.4377 0
-2.37491 0.0467527 -25.6758 0
-4.09587 -0.47017 -25.4836 0
6.8967 -0.523222 -25.5178 0
-1.97291 -0.816778 -25.9396 0
-5.91455 -0.989432 -25.4542 0
-1.69487 -1.1044 -26.058 0
-2.03558 -1.20136 -26.0439 0
-1.78097 -1.73083 -26.1024 0
-1.54466 -2.1476 -26.0838 0
-1.15977 -3.43183 -26.0037 0
-1.31402 -3.48763 -26.1189 0
7.41165 -3.90989 -25.6636 0
-0.922359 -4.04973 -26.2625 0
7.03981 -5.21359 -25.8083 0
3.72282 8.71636 -25.1478 0
6.6996 8.22317 -25.0906 0
-0.0285852 8.04243 -25.184 0
-0.0285852 8.04243 -25.184 0
-1.15258 7.79318 -25.0048 0
7.22398 7.75105 -25.0927 0
3.09828 7.56227 -25.0253 0
-4.76258 7.60769 -25.4784 0
-7.02542 6.57713 -25.4949 0
6.9407 6.45387 -25.065 0
6.18402 5.19396 -25.1897 0
5.28642 5.13563 -25.1927 0
5.28642 5.13563 -25.1927 0
7.23688 5.11162 -25.2169 0
2.62712 5.02541 -25.1781 0
0.447398 4.26913 -25.1231 0
7.39891 4.11393 -25.1973 0
-4.69844 3.0854 -25.3107 0
2.67828 2.81171 -25.2672 0
0.17611 2.69485 -25.1229 0
0.519596 2.58615 -25.1206 0
0.137833 2.5505 -25.1134 0
1.2969 2.52236 -25.2621 0
0.897115 2.48593 -25.1764 0
5.4784 2.3768 -25.4112 0
-1.24171 2.33461 -25.1602 0
5.41363 1.52841 -25.4286 0
7.81077 1.25469 -25.4661 0
-6.54604 0.849931 -25.404 0
-1.6451 0.333985 -25.6605 0
3.76351 0.27569 -25.4526 0
-3.4097 -0.00424672 -25.274 0
-3.4097 -0.00424672 -25.274 0
-4.16514 -0.190479 -25.4693 0
-3.82029 -0.247151 -25.4822 0
-4.2026 -0.354894 -25.4869 0
-4.72887 -0.347086 -25.4865 0
-4.41127 -0.423387 -25.4918 0
-4.62585 -0.47246 -25.505 0
-4.94489 -0.559916 -25.4637 0
-5.4467 -0.550236 -25.4676 0
-5.51372 -0.705055 -25.474 0
-5.51372 -0.705055 -25.474 0
-5.70177 -0.770024 -25.4586 0
-1.85955 -1.86152 -26.1151 0
-1.09822 -3.04437 -25.7832 0
-0.470824 -3.22096 -26.1229 0
-1.37955 -3.3666 -26.1337 0
7.01394 -4.50827 -25.7924 0
-1.63183 -4.97116 -26.2649 0
6.41759 -5.03231 -25.7838 0
6.82174 -5.27103 -25.8052 0
-8.66248 -7.43413 -26.2685 0
-1.98049 7.71287 -25.5659 0
6.92935 6.6471 -25.0728 0
6.92935 6.6471 -25.0728 0
2.77208 5.17607 -25.1616 0
7.7709 5.11868 -25.2229 0
7.57586 4.69062 -25.2452 0
-3.83088 3.0855 -25.3666 0
3.58078 2.87174 -25.2874 0
0.968335 2.81953 -25.1724 0
5.22424 2.63941 -25.3703 0
1.77012 2.56583 -25.3212 0
3.59666 2.52072 -25.3115 0
6.72309 1.7987 -25.4004 0
-7.70184 1.7838 -25.3224 0
4.4608 1.01948 -25.3975 0
-3.57727 0.280948 -25.2641 0
5.601 0.0707619 -25.4423 0
5.48398 -0.114925 -25.4611 0
-2.91642 -0.160343 -25.4633 0
-1.82773 -0.664006 -25.9528 0
2.78927 -1.70278 -25.7086 0
6.52693 -5.19267 -25.7869 0
6.13903 -5.24496 -25.7825 0
5.51079 -7.58361 -25.9366 0
-0.917845 8.70846 -25.547 0
2.93567 7.90973 -25.0354 0
-0.776944 7.90626 -25.1165 0
-7.69558 7.03764 -25.6367 0
5.74029 6.22289 -25.0692 0
0.281438 2.73981 -25.1154 0
2.51548 2.50816 -25.3047 0
2.12818 2.44004 -25.2782 0
8.21629 0.656227 -25.4867 0
-6.88817 0.572669 -25.3651 0
-8.06387 0.262712 -25.3735 0
3.61027 0.183223 -25.449 0
4.8517 0.161428 -25.4569 0
-3.17746 -0.0489809 -25.3812 0
-5.9094 -0.732622 -25.4426 0
0.512826 -1.55401 -26.0958 0
3.27887 -2.09962 -25.7105 0
6.64098 -2.77401 -25.5973 0
7.48946 -4.45909 -25.7869 0
1.7006 -5.17332 -26.0015 0
6.45146 -5.63616 -25.8104 0
8.06596 7.37511 -25.1598 0
7.71541 5.6704 -25.2126 0
7.91258 5.39742 -25.2266 0
-4.03256 4.96978 -25.0075 0
-3.87814 4.65539 -25.1972 0
7.19083 4.21212 -25.1914 0
-3.06383 3.46067 -25.4885 0
5.95222 3.36848 -25.2265 0
7.39293 3.34395 -25.446 0
-7.67902 2.09011 -25.2493 0
-8.30043 1.64415 -25.3391 0
0.236429 0.438027 -26.086 0
8.19551 0.203255 -25.5269 0
3.52525 -1.86003 -25.8841 0
5.30784 -3.00748 -25.5823 0
-0.305223 -3.08023 -26.1085 0
4.70175 -3.43282 -25.4674 0
-0.890569 -4.93825 -26.264 0
-0.0343446 -5.37055 -25.9865 0
-8.06676 -6.67473 -26.1588 0
-8.28373 -7.26142 -26.2455 0
-8.28373 -7.26142 -26.2455 0
5.25926 6.42185 -25.0691 0
3.53638 6.17212 -25.0967 0
7.53695 5.31848 -25.2035 0
-0.984624 5.16163 -25.0855 0
4.48874 2.87314 -25.3819 0
-1.96011 -0.813791 -25.9405 0
-1.07539 -0.938198 -26.1137 0
0.196593 -1.21179 -26.1285 0
6.36872 -2.89582 -25.5988 0
5.34526 -3.01025 -25.5823 0
5.34526 -3.01025 -25.5823 0
1.98536 -5.66781 -25.9961 0
-8.4984 -6.5992 -26.2336 0
-1.37401 7.90964 -25.2356 0
-6.97366 4.35572 -25.2008 0
7.14691 2.1205 -25.4935 0
-3.11156 0.270482 -25.5241 0
-1.83913 -1.2724 -26.0662 0
-1.72781 -1.73213 -26.1015 0
-1.43178 -2.88028 -25.9144 0
-1.26951 -3.62226 -26.0885 0
-1.26951 -3.62226 -26.0885 0
-1.27913 -5.01049 -26.2642 0
-1.27913 -5.01049 -26.2642 0
-7.87862 2.14639 -25.2127 0
