ply
format ascii 1.0
element vertex 285
property float x
property float y
property float z
property uchar intensity
end_header
-3.30105 4.36161 -25.5095 0
-3.46269 4.11314 -25.5089 0
-3.35293 3.67614 -25.4903 0
2.75744 2.53287 -25.0038 0
2.75714 1.61179 -25.0608 0
2.15834 -3.57633 -25.4177 0
-3.17022 4.45891 -25.5348 0
6.66413 4.4274 -25.3559 0
6.65233 4.29656 -25.2342 0
-3.32614 4.19063 -25.504 0
5.17121 3.96155 -25.0163 0
-2.75411 3.9293 -25.5371 0
3.92022 3.65052 -25.0273 0
6.58593 3.60456 -25.1296 0
-3.08961 3.47902 -25.4856 0
2.93472 3.13908 -25.0155 0
-8.00215 3.00925 -25.5354 0
-6.69988 2.51097 -25.5182 0
-0.656187 1.36263 -25.4423 0
-0.429846 1.32604 -25.378 0
-6.73598 -0.582003 -25.3724 0
1.96356 -3.45079 -25.4565 0
7.0035 -4.5764 -25.5165 0
-1.02182 -4.80641 -25.2849 0
-1.02182 -4.80641 -25.2849 0
2.78275 7.91939 -26.0283 0
-2.82945 6.20293 -25.8874 0
2.58384 6.14526 -25.6311 0
0.442267 5.55811 -25.5608 0
-1.38554 4.49628 -25.5162 0
-2.97903 4.48746 -25.571 0
6.46474 4.44923 -25.2421 0
6.04183 4.33468 -25.034 0
-3.37252 4.3289 -25.5111 0
5.25686 4.15741 -25.0237 0
-3.21965 4.03608 -25.4987 0
5.04056 3.80013 -25.015 0
4.77214 3.79457 -25.0181 0
-2.80476 3.79999 -25.5155 0
3.96587 3.69142 -25.0165 0
-2.87852 3.58507 -25.477 0
-7.1511 3.46985 -25.5115 0
-2.76541 3.25177 -25.4789 0
0.959464 3.07667 -25.0454 0
4.94258 3.0892 -25.0677 0
-7.24648 3.12695 -25.4942 0
4.75119 3.00174 -25.0102 0
0.244137 2.95935 -25.0024 0
-7.21087 3.02017 -25.4982 0
-0.470688 2.48314 -25.0466 0
-4.55087 2.06805 -25.5579 0
-4.88394 2.03738 -25.4229 0
-6.52219 1.88093 -25.1366 0
-6.18351 1.79902 -24.9792 0
2.08126 1.73842 -25.0198 0
-4.50821 1.71636 -25.5276 0
1.75098 1.52918 -25.0464 0
2.70146 1.4121 -25.0557 0
1.68116 1.38239 -25.0573 0
-0.488495 1.28867 -25.5066 0
-0.15204 1.05691 -25.4041 0
-5.872 -1.81372 -25.3711 0
2.16336 -3.49956 -25.432 0
2.09988 -3.58851 -25.4369 0
4.06326 -5.5239 -26.1387 0
4.50198 -6.82773 -26.1509 0
-6.3637 -7.93517 -25.9963 0
-5.98856 -8.47919 -25.9084 0
7.8837 7.76753 -25.78 0
4.92126 7.58229 -25.8151 0
-3.43593 5.96053 -25.8144 0
4.19632 5.94504 -25.7127 0
0.481315 5.72987 -25.5646 0
0.795704 5.66239 -25.5531 0
0.698622 5.54549 -25.5835 0
2.89522 5.37502 -25.6518 0
2.74793 5.33865 -25.6564 0
7.6931 4.8536 -25.0618 0
0.381023 4.73114 -25.6348 0
-2.76573 4.17048 -25.5511 0
-2.71417 4.02728 -25.5516 0
-2.67267 3.88993 -25.5463 0
-0.859413 3.86348 -25.5305 0
-3.13175 3.34789 -25.4854 0
1.21011 3.13976 -25.0142 0
-6.51979 2.28054 -25.1784 0
-6.35432 2.06011 -25.2169 0
-6.25353 1.98948 -25.2009 0
1.99902 1.82258 -25.0194 0
-6.02083 1.43128 -25.0318 0
-3.77394 1.25922 -25.5417 0
7.54705 1.02752 -25.3096 0
-6.18798 0.968656 -25.0218 0
-4.39653 0.914242 -25.3368 0
-4.30764 0.646028 -25.3301 0
-3.81937 0.53515 -25.351 0
-3.89714 0.459277 -25.3575 0
4.53192 0.423396 -25.2462 0
2.97682 0.176217 -25.2605 0
3.54194 0.0428345 -25.2025 0
1.86575 0.0320022 -25.265 0
0.182072 -0.918142 -25.3777 0
-3.54344 -1.56951 -25.3898 0
-6.08903 -1.69166 -25.3617 0
6.625 -4.39079 -25.5345 0
-0.108326 -4.60306 -25.4437 0
3.69146 -4.69484 -25.6962 0
4.18517 -7.34103 -26.1558 0
4.18517 -7.34103 -26.1558 0
4.15465 -7.46294 -26.152 0
-7.41953 -7.71765 -25.7608 0
-5.79197 -7.85617 -25.8775 0
5.10576 -8.19212 -26.0578 0
4.68913 -8.34567 -26.0538 0
2.70991 6.19839 -25.6062 0
-0.858503 6.06616 -25.7269 0
7.89004 6.10066 -25.7387 0
-8.62432 5.52527 -26.0504 0
7.81288 4.92268 -25.0832 0
7.56655 4.85292 -25.038 0
-1.35931 4.80485 -25.5193 0
1.12208 4.77048 -25.5852 0
-1.0823 4.46249 -25.5396 0
-3.20927 4.32738 -25.5105 0
-2.97337 4.0555 -25.5092 0
-2.78908 3.59434 -25.4887 0
-4.53394 3.24853 -25.5247 0
4.31966 2.88725 -25.0064 0
-6.57512 2.42303 -25.3205 0
-6.87104 2.0108 -25.3125 0
2.18954 1.5609 -25.0625 0
1.99163 1.49831 -25.0532 0
1.8636 1.41141 -25.0725 0
1.78379 1.32231 -25.0669 0
-0.90004 0.793952 -25.4734 0
4.88279 0.600976 -25.2485 0
6.06094 0.55295 -25.2685 0
-2.03776 0.423585 -25.1963 0
2.01893 0.158543 -25.2602 0
1.75547 -0.126773 -25.2607 0
0.640129 -0.225742 -25.303 0
-7.46187 -0.714774 -25.4737 0
7.76584 -1.5828 -25.4646 0
-1.90866 -1.62541 -25.0906 0
6.93198 -2.32644 -25.3879 0
7.0122 -2.47697 -25.363 0
0.446286 -4.07027 -25.6298 0
1.12844 -4.12531 -26.0241 0
0.161152 -4.17081 -25.4948 0
3.48513 -4.22579 -25.6876 0
0.072716 -4.53645 -25.5497 0
3.70262 -5.28273 -26.0947 0
3.71438 -5.90785 -26.1431 0
4.27541 -6.46409 -26.1548 0
4.27541 -6.46409 -26.1548 0
4.44651 -7.76758 -26.1347 0
-8.05665 -8.07685 -26.0129 0
3.15742 7.18556 -25.8173 0
2.98405 7.16149 -25.8043 0
1.14817 7.04412 -25.8531 0
4.07628 7.03774 -25.7345 0
4.29115 6.67221 -25.7412 0
-5.72854 6.39266 -25.9898 0
5.52675 5.92564 -25.6587 0
0.599845 5.64339 -25.5713 0
0.599845 5.64339 -25.5713 0
-1.39046 4.63186 -25.5159 0
7.78913 4.28417 -25.0094 0
4.15914 2.88999 -25.0097 0
-6.23385 1.29431 -24.9993 0
7.40502 1.04141 -25.3708 0
-2.65033 0.674142 -25.4635 0
5.83064 0.44918 -25.2684 0
6.29782 0.0265478 -25.2351 0
2.58524 -0.0690137 -25.2544 0
2.39703 -0.0817151 -25.2586 0
-6.423 -0.664981 -25.2907 0
1.23125 -0.705233 -25.2201 0
-5.79377 -1.91423 -25.3497 0
7.04854 -2.02762 -25.4774 0
7.05513 -2.31385 -25.389 0
3.35577 -3.10723 -25.3228 0
2.32371 -3.2423 -25.428 0
2.98026 -3.68305 -25.4288 0
1.00848 -3.83924 -25.6241 0
0.985798 -4.02135 -25.9041 0
0.583513 -4.18005 -25.7793 0
0.234506 -4.30773 -25.4961 0
-0.306242 -4.36476 -25.4058 0
3.7065 -4.57165 -25.6886 0
-0.351704 -4.52198 -25.3721 0
4.86148 -5.79244 -26.2187 0
-4.78765 -6.58166 -25.4612 0
4.50366 -7.11985 -26.1476 0
4.38965 -7.17307 -26.1567 0
-6.43454 -7.77791 -26.0131 0
-6.24589 -7.82515 -25.9528 0
3.33335 7.27201 -25.853 0
-0.120011 5.44911 -25.62 0
7.66607 4.97161 -25.1403 0
7.66607 4.97161 -25.1403 0
6.61388 4.62258 -25.4032 0
2.56944 1.43052 -25.0542 0
2.80796 1.29577 -25.0617 0
3.19256 0.447839 -25.2327 0
-3.27048 0.310644 -25.3395 0
2.81211 0.167372 -25.2485 0
3.41204 0.0963568 -25.2292 0
2.43823 0.0894978 -25.2649 0
2.50181 -0.246919 -25.2305 0
6.33125 -0.254 -25.2482 0
6.89649 -1.21972 -25.412 0
6.89649 -1.21972 -25.412 0
8.20205 -2.0081 -25.4632 0
1.22012 -3.57548 -25.575 0
1.19991 -3.93193 -25.6805 0
6.79694 -4.35437 -25.5667 0
-8.16526 -4.49179 -25.4059 0
-4.7922 -6.97127 -25.7683 0
-4.7922 -6.97127 -25.7683 0
-6.89583 -7.78283 -25.8981 0
-6.41018 -8.40259 -26.0907 0
-1.69789 4.65966 -25.5079 0
-4.99701 3.74829 -25.5357 0
-1.56198 1.85738 -25.1043 0
2.61738 1.82825 -25.0485 0
5.11025 0.59455 -25.2503 0
-1.18599 0.217798 -25.3028 0
5.16917 0.207501 -25.295 0
3.82845 0.160875 -25.2295 0
-5.66247 -0.385739 -25.0111 0
-5.20346 -0.518274 -25.1443 0
7.65138 -1.21401 -25.4243 0
1.46096 -1.30724 -25.4036 0
6.58898 -1.71955 -25.4108 0
6.58898 -1.71955 -25.4108 0
6.89078 -2.14059 -25.4902 0
1.56234 -3.19617 -25.4925 0
0.43182 -3.21433 -25.4732 0
1.77103 -3.51819 -25.5337 0
2.0411 -3.56271 -25.4895 0
2.32848 -3.63656 -25.4147 0
-8.45673 -3.73906 -25.0707 0
3.3161 -3.94793 -25.5368 0
3.52587 -4.12254 -25.5862 0
7.36368 -4.73759 -25.4768 0
4.28814 -6.99625 -26.1667 0
-4.56283 -7.66605 -25.9363 0
4.89526 -8.04984 -26.0491 0
2.07738 6.40431 -25.6157 0
0.261787 5.8999 -25.5744 0
-0.391601 5.7117 -25.6203 0
-2.7751 5.68889 -25.8087 0
-5.07959 3.10885 -25.5419 0
2.30142 1.88465 -25.0333 0
4.73156 0.120785 -25.257 0
-6.20371 -2.53453 -25.3759 0
7.70014 -4.46589 -25.4712 0
-0.680287 5.36911 -25.5951 0
2.81953 0.891771 -25.2206 0
6.96211 0.77691 -25.2315 0
6.37496 0.621753 -25.2368 0
-6.16226 -0.510997 -25.0378 0
-5.67119 -1.70497 -25.339 0
-2.28534 -1.95694 -25.117 0
0.616505 -4.32121 -25.8212 0
7.35192 -4.46138 -25.5119 0
6.23842 4.60065 -25.0727 0
3.23946 3.96671 -25.0781 0
-0.751577 0.786109 -25.56 0
2.61546 0.476534 -25.2558 0
1.25057 -0.449492 -25.2652 0
6.61447 -0.848973 -25.2631 0
0.00355628 -4.52314 -25.5254 0
3.54825 -4.74189 -25.7257 0
3.72594 -5.25707 -26.0961 0
-4.53508 -6.31831 -25.4579 0
4.14313 -6.52823 -26.1772 0
-4.62655 -7.26831 -25.8544 0
-4.35913 -7.99375 -25.9021 0
-4.11827 5.56767 -25.7085 0
-0.618327 1.47062 -25.3686 0
4.38193 -4.19846 -25.4332 0
-5.84786 -7.48909 -25.9367 0
-5.19209 -7.60016 -25.8641 0
