ply
format ascii 1.0
element vertex 158
property float x
property float y
property float z
property uchar intensity
end_header
4.67843 8.0043 -25.1693 0
-5.35386 5.51607 -24.9706 0
7.00215 7.67559 -25.1107 0
-1.21762 6.67344 -25.0363 0
-1.11115 6.6568 -25.0372 0
2.49053 6.65309 -25.0761 0
-7.4216 5.40587 -25.0561 0
4.88578 5.30278 -25.1474 0
-0.801545 5.11384 -24.9859 0
1.59232 4.21463 -25.3686 0
-7.25748 4.1019 -25.0022 0
6.71635 4.09399 -25.1941 0
-6.74265 3.27907 -25.0126 0
6.69226 8.45609 -25.1637 0
-5.1798 7.42481 -25.0007 0
2.6039 6.63652 -25.0549 0
-5.89407 5.92945 -24.9995 0
-5.354 5.4564 -24.9759 0
5.02482 5.39766 -25.0852 0
4.962 5.34972 -25.119 0
-0.757729 5.22897 -25.016 0
-7.48466 5.10427 -24.9495 0
7.07221 4.34428 -25.2068 0
7.18224 4.1493 -25.221 0
6.79022 4.06412 -25.196 0
6.68658 3.93142 -25.1836 0
-7.07841 3.82486 -24.997 0
-7.22164 3.47242 -25.0089 0
0.667886 3.4157 -25.4518 0
-6.80199 3.39857 -24.9934 0
-6.8322 3.32167 -25.009 0
8.21879 -0.993857 -26.236 0
7.51158 -0.99088 -26.3182 0
5.25087 -3.59286 -26.294 0
6.5631 -7.33899 -26.2576 0
1.74049 6.34731 -25.0469 0
-6.37374 5.86068 -24.9888 0
-6.5356 5.3457 -24.9804 0
5.04719 4.18793 -25.332 0
6.82838 4.17263 -25.2328 0
6.78339 3.86168 -25.2133 0
-0.74179 3.39382 -25.4314 0
0.253753 2.73504 -25.4791 0
4.89338 -2.24254 -26.3487 0
3.94308 -2.64578 -26.3661 0
7.00368 -7.56677 -26.2299 0
3.23511 -8.23232 -26.2614 0
4.74847 8.04372 -25.2629 0
4.63278 7.90641 -25.1164 0
3.03776 7.33245 -25.5879 0
-4.30174 6.1679 -25.0084 0
-6.45086 6.07487 -25.0073 0
-6.75543 5.99291 -24.9974 0
-6.92235 5.99821 -25.0625 0
-5.41728 5.84044 -25.0186 0
-4.99617 5.68441 -24.9853 0
-4.99617 5.68441 -24.9853 0
-7.61616 5.73168 -25.049 0
-6.75834 5.65307 -24.9829 0
-6.69576 5.40755 -24.9779 0
2.32849 3.94381 -25.087 0
6.88982 3.9486 -25.204 0
2.27716 3.25059 -25.1988 0
0.205482 3.01474 -25.5166 0
7.55151 2.76316 -25.4114 0
0.459445 1.91595 -25.4939 0
0.648961 -2.12449 -26.3591 0
3.34009 -4.10201 -26.3008 0
-1.33255 -5.2529 -26.3235 0
6.66454 -6.78985 -26.2145 0
5.76666 -6.78421 -26.3091 0
4.32073 -7.7742 -26.3288 0
4.57672 8.60342 -25.0166 0
4.5599 8.44263 -25.0299 0
4.50707 7.98751 -25.0292 0
4.50707 7.98751 -25.0292 0
-5.72568 6.85531 -25.0732 0
-5.82935 6.75645 -25.134 0
-5.72897 6.54125 -25.0301 0
-4.37848 6.39102 -25.0434 0
-6.4568 5.75761 -24.9887 0
0.0154443 5.27846 -25.0967 0
0.0154443 5.27846 -25.0967 0
-7.50574 4.32179 -24.9831 0
0.684684 1.68297 -25.4882 0
-0.226606 0.944772 -25.4818 0
4.88124 -2.81962 -26.3422 0
5.07785 -2.87818 -26.3027 0
-1.50232 -4.28578 -26.3102 0
5.8112 -6.53226 -26.3159 0
-1.01512 -6.71259 -26.2651 0
0.223454 -7.48839 -26.3145 0
6.95016 -7.68955 -26.2375 0
7.11402 -8.27111 -26.2994 0
3.10059 -8.25364 -26.2917 0
3.92504 8.64573 -25.3902 0
7.63689 7.47068 -25.1195 0
-6.58904 5.50123 -24.9561 0
-7.79503 5.16391 -25.0794 0
-7.82256 4.63062 -25.0562 0
-2.71261 3.23359 -25.5216 0
2.60069 1.11302 -25.2894 0
-5.04998 0.788549 -25.0658 0
-0.715252 -0.420886 -25.5848 0
6.47989 -2.19434 -26.2505 0
3.16446 -4.11177 -26.3305 0
5.54649 -6.2741 -26.2837 0
3.73484 -6.32491 -26.2862 0
4.80817 -6.51144 -26.2586 0
3.84363 -6.59766 -26.2606 0
4.07593 -6.74598 -26.2917 0
4.1576 -6.97503 -26.2833 0
2.60423 -7.73692 -26.3068 0
2.60423 -7.73692 -26.3068 0
7.3419 -8.06405 -26.305 0
0.71213 3.16805 -25.483 0
-2.49949 -1.16789 -25.6912 0
2.53606 -4.28087 -26.2975 0
3.48082 -4.64212 -26.295 0
3.48082 -4.64212 -26.295 0
3.86029 -6.11277 -26.285 0
5.0943 -6.65115 -26.3021 0
3.56183 -7.22584 -26.2392 0
4.45556 -8.12418 -26.341 0
1.29232 -8.25995 -26.2584 0
-5.10449 6.01799 -24.9713 0
-6.06967 5.36773 -24.9617 0
0.968805 3.15007 -25.476 0
-6.7296 2.48329 -25.0561 0
8.11461 -7.12329 -26.2774 0
1.63859 -7.5875 -26.3151 0
-2.90621 8.07357 -25.4776 0
-6.1485 5.73867 -25.0113 0
-6.91288 4.61848 -24.9936 0
-6.48926 3.78669 -25.0037 0
-6.55353 2.88036 -25.0033 0
0.119724 1.01992 -25.4797 0
0.21041 -2.98927 -26.3713 0
-0.769528 -5.8677 -26.3186 0
7.52382 -6.33088 -26.2788 0
7.69096 -7.06819 -26.2935 0
1.91575 -7.27311 -26.3041 0
7.97851 -7.79576 -26.3513 0
7.97851 -7.79576 -26.3513 0
-5.5194 5.95739 -24.99 0
-6.7689 4.18995 -24.9908 0
0.513811 3.36016 -25.5061 0
6.79983 -1.5447 -26.2421 0
6.60614 -2.50809 -26.2507 0
6.79776 -3.29586 -26.2505 0
7.49068 -7.89229 -26.3223 0
-4.62765 5.54329 -24.9902 0
5.42399 -2.64387 -26.2731 0
6.03213 -2.76389 -26.2791 0
6.40027 -4.29902 -26.3008 0
-1.39699 -4.67693 -26.2992 0
6.1952 -5.93817 -26.2345 0
7.15169 -7.3434 -26.301 0
