ply
format ascii 1.0
element vertex 335
property float x
property float y
property float z
property uchar intensity
end_header
-4.18067 4.45336 -24.9845 0
1.89398 2.98055 -25.1299 0
0.131983 1.96512 -25.2397 0
-2.96525 1.483 -25.2612 0
-3.06877 1.47184 -25.2727 0
-4.38894 -3.9673 -25.8829 0
-4.27394 -4.04111 -25.9142 0
-4.44176 -4.09284 -25.899 0
-4.0498 5.00149 -24.9963 0
-1.80999 4.90703 -25.0028 0
-3.50473 4.65486 -25.0162 0
-3.12797 4.47445 -25.001 0
-3.95489 4.27106 -25.0293 0
-7.468 3.65937 -25.4278 0
5.42647 3.29854 -25.0081 0
5.35871 3.17512 -25.0129 0
3.94972 3.1592 -25.0312 0
2.22662 2.80935 -25.2293 0
4.22104 2.63478 -25.0731 0
0.715164 2.47912 -25.2483 0
1.30717 1.90925 -25.2013 0
-0.393744 1.3472 -25.1844 0
-2.92167 1.33799 -25.2564 0
4.6607 1.28463 -25.1978 0
-4.62787 0.0246643 -25.0796 0
-0.107524 -2.74514 -25.3945 0
-1.91099 -3.87963 -25.7207 0
-4.21681 -4.04424 -25.9197 0
-6.16333 -4.46848 -25.8755 0
1.68316 -5.53701 -25.5385 0
-2.78176 -6.20573 -25.888 0
-5.31369 5.83875 -25.4614 0
-2.27885 4.89905 -24.9877 0
-3.45907 4.8864 -24.9767 0
-3.69887 4.11944 -25.028 0
-3.77636 3.99854 -25.0326 0
5.25524 3.36887 -25.0041 0
4.09636 3.32826 -25.0135 0
3.53069 3.30956 -25.0229 0
0.711835 3.19402 -25.0222 0
0.181982 3.18222 -25.017 0
-1.24524 3.17995 -24.9974 0
-0.851164 3.15036 -25.0154 0
-0.163321 3.12007 -25.037 0
-6.86868 3.08427 -25.2778 0
-2.26436 2.61922 -25.0793 0
-8.35672 2.58784 -24.9695 0
0.818241 2.50166 -25.2353 0
0.968623 1.87306 -25.2027 0
7.21021 1.89944 -25.1947 0
-6.13221 1.82203 -25.2727 0
2.7684 1.7657 -25.2904 0
-0.00937007 1.5456 -25.1897 0
-0.231657 1.3914 -25.2183 0
-0.381472 1.20806 -25.1574 0
-0.95066 -0.242974 -25.3266 0
-1.65392 -0.263422 -25.3066 0
-1.23002 -0.280212 -25.3478 0
-0.628494 -0.339697 -25.3243 0
-3.336 -0.576447 -25.315 0
6.74668 -0.974081 -25.3508 0
6.75517 -1.20094 -25.3384 0
5.90052 -1.47244 -25.3355 0
-2.16127 -1.99802 -25.3762 0
-0.288036 -2.82628 -25.398 0
-0.0955737 -2.92983 -25.4127 0
-4.27579 -4.13396 -25.9098 0
-3.16888 -4.15317 -25.9092 0
-3.28904 -4.89597 -25.8955 0
1.40658 -5.30168 -25.5252 0
-2.82491 -6.04982 -25.8927 0
-3.1047 -6.22344 -25.8798 0
-3.21674 -6.32434 -25.8717 0
3.54193 -7.12121 -25.6609 0
-2.76292 -7.13203 -25.8418 0
-3.01967 -7.63219 -25.8924 0
-3.01967 -7.63219 -25.8924 0
-2.83561 -8.01283 -25.8876 0
-6.01884 5.95412 -25.5481 0
-3.96501 4.83104 -24.99 0
-0.434696 4.7894 -25.0172 0
-3.44934 4.743 -25.0019 0
-3.4379 4.59623 -25.0176 0
-7.01121 3.86201 -25.414 0
-7.29757 3.73073 -25.4412 0
-7.23933 3.63732 -25.4441 0
-7.01327 3.41018 -25.3104 0
3.16876 3.26963 -25.0109 0
0.443254 3.18722 -25.0126 0
-1.63559 3.1314 -25.0356 0
-0.945594 3.10033 -25.0224 0
-0.272094 3.0772 -25.033 0
-1.03832 3.04127 -25.0238 0
-1.6442 2.96345 -25.0267 0
-1.49201 2.91888 -25.0286 0
2.23751 2.91882 -25.1918 0
-8.1507 2.6036 -25.0547 0
-8.1507 2.6036 -25.0547 0
1.85372 2.11414 -25.2613 0
2.3115 2.05728 -25.2455 0
0.428695 1.71124 -25.2095 0
6.929 1.47404 -25.1905 0
-0.294207 1.33047 -25.206 0
-0.294207 1.33047 -25.206 0
-1.39221 1.31496 -25.2989 0
-0.208716 1.19698 -25.1781 0
-0.294822 1.1293 -25.1753 0
6.68772 0.451013 -25.2371 0
4.37631 -0.311618 -25.2732 0
4.28416 -0.312685 -25.2851 0
-2.0301 -0.326875 -25.3278 0
-0.938359 -0.392419 -25.3318 0
-2.19704 -0.437831 -25.3262 0
-1.8047 -0.467654 -25.3373 0
6.56498 -0.528165 -25.3004 0
-0.692007 -0.531238 -25.3568 0
0.00910176 -0.537996 -25.3476 0
6.20505 -0.577758 -25.3456 0
1.77651 -0.628533 -25.3984 0
1.10683 -0.893539 -25.4301 0
-1.59333 -1.97246 -25.3103 0
3.5944 -2.2317 -25.3822 0
7.09898 -2.43933 -25.3691 0
3.63609 -2.82727 -25.4376 0
3.42886 -2.83724 -25.4022 0
3.7737 -3.03147 -25.434 0
4.39525 -3.1851 -25.4466 0
4.38217 -3.56921 -25.4434 0
-3.44175 -4.23849 -25.8768 0
-6.30092 -4.59541 -25.8722 0
-6.49235 -4.62795 -25.8861 0
1.45085 -5.20079 -25.5011 0
-3.53809 -6.76892 -25.8588 0
-3.085 -7.72073 -25.895 0
-2.53024 -8.05455 -25.8996 0
-2.55791 -8.16915 -25.9185 0
-8.00176 6.63463 -25.4889 0
-1.67233 5.94717 -25.5176 0
-6.00254 5.85258 -25.5345 0
-3.52519 5.48313 -25.4667 0
-2.04802 5.2207 -25.0656 0
6.60345 5.07433 -25.0486 0
-1.84683 4.82127 -24.9592 0
-3.71345 4.80454 -24.981 0
-2.2625 4.56937 -24.9654 0
-1.72835 4.23875 -25.0218 0
-7.67309 4.09708 -25.4337 0
6.88476 3.63757 -25.0151 0
6.64935 3.62446 -25.0327 0
-1.5422 3.41111 -25.031 0
6.76103 3.05297 -25.0452 0
-4.12247 1.98207 -25.2652 0
-6.05967 1.98518 -25.2403 0
2.49729 1.91071 -25.3129 0
-0.0771193 1.76648 -25.2099 0
-6.29806 1.47335 -25.2464 0
3.29676 -0.281542 -25.2683 0
1.91698 -0.3024 -25.3365 0
1.91698 -0.3024 -25.3365 0
5.75033 -0.355729 -25.3285 0
-1.15535 -0.368573 -25.3508 0
-0.785816 -0.407044 -25.3246 0
3.24926 -0.450487 -25.3444 0
4.19137 -0.467593 -25.3517 0
1.66509 -0.613832 -25.3829 0
2.79724 -0.66532 -25.4231 0
4.5048 -0.746548 -25.3728 0
1.74518 -0.90867 -25.4073 0
1.55767 -0.913776 -25.3817 0
6.66059 -0.988288 -25.3581 0
6.70037 -2.7273 -25.4116 0
3.55287 -2.88179 -25.4182 0
2.67408 -3.59761 -25.4689 0
1.88664 -3.89294 -25.4814 0
-5.33674 -4.12911 -25.8867 0
-5.88524 -4.2363 -25.8874 0
-5.58813 -4.31998 -25.889 0
-3.51386 -4.31935 -25.8543 0
-6.6168 -4.38349 -25.8946 0
-5.28296 -4.3859 -25.8892 0
-5.48308 -4.42747 -25.8886 0
-5.67282 -4.45654 -25.8749 0
-3.85083 -4.70775 -25.8883 0
6.88199 -4.81209 -25.5136 0
6.88199 -4.81209 -25.5136 0
-1.28338 -4.88185 -25.5374 0
-0.886978 -5.1463 -25.4762 0
-3.15107 -5.78166 -25.8865 0
-2.81281 -6.87244 -25.8914 0
-2.81281 -6.87244 -25.8914 0
-2.72609 -7.46996 -25.8899 0
-2.85619 -7.50366 -25.8857 0
-0.487429 7.24678 -25.581 0
-0.487429 7.24678 -25.581 0
-0.658189 7.24639 -25.5586 0
-0.00830003 5.71558 -25.5351 0
-6.3315 5.66914 -25.47 0
-2.12273 5.04896 -24.9814 0
7.70348 3.87398 -25.1496 0
6.75913 3.51544 -25.0167 0
-7.14233 3.50814 -25.3805 0
-5.4362 3.34064 -25.093 0
5.71884 3.25319 -25.0054 0
4.87167 1.94399 -25.1829 0
4.87167 1.94399 -25.1829 0
6.75208 1.66613 -25.2067 0
6.81084 0.64361 -25.23 0
-0.783658 -0.115786 -25.316 0
6.58263 -0.359106 -25.2677 0
0.490142 -0.443735 -25.3278 0
2.35897 -0.513343 -25.4121 0
-0.882636 -0.520605 -25.3339 0
5.56778 -0.764712 -25.3454 0
5.83183 -1.11827 -25.4677 0
4.39359 -1.19219 -25.4823 0
4.6775 -1.20275 -25.4937 0
4.49099 -1.32201 -25.4683 0
2.4775 -1.73613 -25.403 0
-2.70749 -2.05705 -25.3742 0
-2.23718 -2.44441 -25.4061 0
7.30669 -3.06177 -25.4378 0
2.79694 -3.16147 -25.4338 0
-4.1735 -3.22589 -25.9662 0
-1.2201 -3.21203 -25.3737 0
2.76223 -3.43066 -25.4345 0
3.72371 -3.48846 -25.4354 0
4.78611 -3.75927 -25.4732 0
-5.07124 -3.93941 -25.8835 0
-4.583 -4.00555 -25.8975 0
-4.583 -4.00555 -25.8975 0
-3.54375 -4.05871 -25.8903 0
-4.98174 -4.19565 -25.8861 0
-5.1733 -4.23781 -25.8925 0
-5.38857 -4.27745 -25.8858 0
-5.78779 -4.35277 -25.8883 0
-6.1153 -4.4174 -25.8867 0
-6.5087 -4.49882 -25.8785 0
-6.69335 -4.52059 -25.8983 0
-6.69335 -4.52059 -25.8983 0
-1.28348 -4.4545 -25.5362 0
1.79155 -5.11327 -25.5081 0
-2.98462 -5.19561 -25.899 0
-3.35661 -5.57734 -25.8751 0
-3.28828 -6.01535 -25.8683 0
3.36589 -6.98425 -25.6204 0
4.50184 -7.18685 -25.7231 0
-2.70632 -8.06789 -25.8943 0
5.20728 -8.313 -25.8008 0
-4.5146 4.16795 -25.0071 0
6.7577 3.71067 -25.0181 0
6.7577 3.71067 -25.0181 0
5.05011 3.44233 -25.0154 0
-2.23838 2.96402 -25.1185 0
-4.13513 2.7344 -25.092 0
2.19415 2.0636 -25.2553 0
7.01676 1.20381 -25.2194 0
-8.60009 0.599864 -25.3281 0
-0.0139438 -0.0897328 -25.3183 0
-0.0608388 -0.288228 -25.357 0
-0.416659 -0.285643 -25.2904 0
-1.26342 -0.48464 -25.341 0
-2.01225 -0.464272 -25.3619 0
0.671303 -0.524537 -25.3581 0
1.67287 -0.591591 -25.3875 0
-3.09622 -0.686812 -25.4422 0
5.13441 -0.738112 -25.3772 0
-2.41576 -1.42258 -25.3955 0
5.88988 -1.66595 -25.3335 0
-2.27394 -2.26855 -25.4137 0
2.7968 -2.3986 -25.4292 0
3.58456 -2.52703 -25.4916 0
-4.66099 -3.03015 -25.8314 0
7.10844 -3.34581 -25.4886 0
-4.72357 -3.70134 -25.9181 0
-4.10198 -4.16304 -25.8987 0
-0.586709 -4.53907 -25.4518 0
1.54996 -5.3021 -25.505 0
6.24115 -7.68001 -25.8023 0
5.52112 3.29058 -25.0089 0
-4.1228 2.3521 -25.1714 0
7.26731 1.60303 -25.1877 0
2.11935 -0.306169 -25.3572 0
1.8522 -0.705051 -25.3962 0
1.43683 -0.712946 -25.3874 0
5.81409 -1.87981 -25.3492 0
2.63707 -3.24471 -25.4225 0
6.03996 -3.34039 -25.4889 0
4.55521 -3.65818 -25.4903 0
-4.35302 -4.06029 -25.8996 0
-7.08372 -4.545 -25.895 0
-0.600694 -4.7911 -25.4593 0
-3.3133 -5.33245 -25.872 0
2.0166 -5.75489 -25.5274 0
-2.10824 -6.05129 -25.8397 0
6.8717 -7.05293 -25.7766 0
5.01623 -7.08514 -25.6731 0
-2.8495 -7.3111 -25.865 0
3.24361 -7.40509 -25.5709 0
-6.25233 5.67805 -25.4689 0
-4.12774 3.69288 -25.021 0
7.40431 1.87011 -25.1952 0
-0.664743 1.27556 -25.1788 0
6.60082 0.796684 -25.1952 0
0.448219 -0.0379483 -25.2664 0
-0.223648 -0.0460119 -25.3178 0
6.62394 -0.262059 -25.2822 0
4.6063 -2.05171 -25.4286 0
-0.588374 -2.58284 -25.3785 0
7.00543 -3.78232 -25.4381 0
-1.22395 -4.20223 -25.5075 0
-0.848109 -4.4565 -25.4682 0
-0.684507 -5.12244 -25.4744 0
2.24846 -5.54866 -25.55 0
3.83253 -7.0977 -25.6628 0
-4.30635 6.34126 -25.5667 0
-6.42201 5.38806 -25.4661 0
-3.6145 4.94746 -25.0095 0
7.24737 2.21322 -25.1503 0
7.07098 1.84554 -25.2477 0
-2.22172 -2.79397 -25.5075 0
-5.7924 -4.48609 -25.8588 0
-3.2188 -4.87085 -25.8963 0
-2.38374 -5.05854 -25.8806 0
3.86451 -7.10913 -25.6756 0
3.86451 -7.10913 -25.6756 0
4.74262 -7.15559 -25.6894 0
-3.00036 -1.25917 -25.4489 0
6.23583 -1.61825 -25.3511 0
-4.76964 -3.37191 -25.8844 0
-3.15541 -5.2787 -25.8862 0
-3.0871 -5.74495 -25.8903 0
-2.91514 -6.90448 -25.8838 0
6.06803 -7.38603 -25.7607 0
-3.02609 1.58125 -25.2658 0
6.75701 -7.5079 -25.7978 0
