ply
format ascii 1.0
element vertex 339
property float x
property float y
property float z
property uchar intensity
end_header
5.47743 8.25367 -25.0546 0
1.05693 7.46145 -26.0002 0
-1.72423 6.60965 -25.9968 0
-0.0606535 6.1931 -25.9334 0
7.74117 6.14702 -26.2436 0
7.89569 6.07179 -26.2371 0
7.20523 6.0467 -26.2067 0
5.93309 5.93234 -26.1 0
8.5685 5.94954 -26.1987 0
8.5685 5.94954 -26.1987 0
6.01617 5.70818 -25.9596 0
-5.1175 5.47693 -25.828 0
-2.18179 5.09221 -25.5511 0
5.71366 5.04945 -25.6609 0
5.12269 5.03638 -25.6836 0
3.48118 3.93577 -25.5701 0
0.799113 3.88238 -25.5221 0
3.74312 3.8649 -25.5552 0
3.42236 3.82627 -25.5423 0
2.01865 3.81613 -25.6139 0
3.83628 3.78537 -25.545 0
0.484183 3.39766 -25.3171 0
7.49143 2.81482 -25.2282 0
-5.30359 2.15635 -25.4879 0
1.54176 0.165387 -25.2632 0
1.66792 0.112892 -25.2552 0
1.48451 0.0477642 -25.2656 0
-0.347838 -0.572465 -25.2392 0
-1.5991 -0.905989 -25.2096 0
-1.5991 -0.905989 -25.2096 0
-2.8556 -1.27734 -25.3178 0
-3.11988 -1.35151 -25.1882 0
-3.11988 -1.35151 -25.1882 0
7.7952 8.25917 -25.5995 0
3.18554 7.05511 -26.174 0
-0.790262 6.72963 -26.0181 0
-0.733844 6.41463 -25.9977 0
0.512594 6.37685 -25.9597 0
-0.532324 6.26266 -25.9887 0
5.99356 5.96713 -26.1098 0
-5.15258 5.58983 -25.8294 0
6.78065 5.39366 -25.6813 0
6.63879 5.33218 -25.6665 0
5.93742 5.28598 -25.6578 0
-3.27444 5.1161 -25.579 0
4.77378 4.82164 -25.6855 0
3.82845 4.19154 -25.6211 0
-4.69671 4.10903 -25.4624 0
-4.66284 3.98248 -25.4602 0
3.86883 3.95783 -25.5756 0
0.963478 3.78677 -25.4668 0
3.44462 3.59893 -25.5951 0
-2.81436 3.57308 -25.4735 0
3.54559 3.54531 -25.544 0
-5.55238 2.53334 -25.4582 0
4.38977 2.49002 -25.1547 0
4.02229 2.43754 -25.0695 0
3.50716 2.32954 -25.0378 0
-5.03049 1.37709 -25.3183 0
1.72638 0.13813 -25.2468 0
1.67269 0.0309531 -25.2505 0
1.0112 -0.168901 -25.2254 0
0.352444 -0.277508 -25.2035 0
0.352444 -0.277508 -25.2035 0
-0.132378 -0.36725 -25.2189 0
-2.7538 -1.23732 -25.4218 0
-2.93449 -1.3113 -25.2324 0
-3.79122 -1.55519 -25.1739 0
3.52492 -1.99723 -25.2978 0
7.59805 -2.08086 -25.3143 0
3.89272 -3.33144 -25.3889 0
3.85942 -3.39423 -25.374 0
-6.50079 -4.63554 -25.634 0
3.9955 -4.87679 -25.4026 0
-6.13359 -5.29495 -25.6968 0
3.69872 -5.61966 -25.43 0
-7.53028 -5.71956 -25.655 0
-5.77145 -6.7449 -25.8645 0
-5.8784 -6.7772 -25.8615 0
-5.07719 -7.42327 -25.9542 0
-5.37103 -7.86863 -25.922 0
-5.73632 -7.98853 -25.9116 0
-8.39289 -8.21496 -26.0098 0
-8.39289 -8.21496 -26.0098 0
-8.30414 -8.2399 -25.9958 0
2.87557 7.87941 -25.8474 0
3.17722 7.8782 -26.0214 0
-4.02566 6.52332 -25.881 0
-0.574302 6.40549 -26.0707 0
-3.7524 6.3987 -25.9078 0
-0.510549 6.09741 -25.9355 0
6.3207 5.68343 -25.9144 0
6.61161 5.59168 -25.7582 0
1.54921 5.10858 -25.6406 0
4.5312 4.69208 -25.6788 0
3.24379 4.11381 -25.6053 0
2.42472 3.88047 -25.5883 0
3.58042 3.81125 -25.5451 0
3.51454 3.74196 -25.5524 0
3.51454 3.74196 -25.5524 0
-4.59774 3.71876 -25.4673 0
-2.54644 3.62924 -25.4291 0
3.61801 3.62515 -25.5285 0
0.329146 3.43591 -25.3668 0
-2.41385 3.19382 -25.037 0
-5.011 2.95561 -25.4223 0
4.85826 2.41485 -25.0952 0
3.53144 2.41005 -25.0357 0
3.74239 2.31176 -25.0388 0
-4.30709 1.58213 -25.337 0
-4.30709 1.58213 -25.337 0
-5.34524 0.470326 -25.3201 0
1.60925 0.195113 -25.2632 0
-3.02496 -0.553269 -25.3662 0
-2.22136 -1.08853 -25.3604 0
7.1965 -1.68169 -25.3215 0
7.23652 -1.77807 -25.3181 0
7.227 -1.87641 -25.3001 0
3.28133 -2.22618 -25.3677 0
3.17509 -2.39952 -25.3271 0
-6.03011 -2.97395 -25.2023 0
-7.97058 -3.10373 -25.3192 0
3.79421 -3.24901 -25.3895 0
-6.48888 -3.36525 -25.2646 0
3.55409 -3.85549 -25.336 0
3.55409 -3.85549 -25.336 0
3.54455 -3.96391 -25.3727 0
3.79479 -4.25843 -25.4157 0
-5.61313 -6.13657 -25.7725 0
-5.70294 -6.82072 -25.8881 0
-5.80938 -6.85345 -25.8826 0
-7.2676 -7.82841 -25.928 0
-4.94749 -7.82531 -25.94 0
-4.233 -7.97933 -25.9242 0
4.38889 8.62082 -24.9997 0
4.38889 8.62082 -24.9997 0
2.99153 7.82955 -25.9777 0
2.99153 7.82955 -25.9777 0
-5.69656 7.55012 -25.5888 0
0.872194 6.96405 -26.0626 0
-3.23319 6.71779 -25.9742 0
0.99007 6.39201 -25.9713 0
-3.48094 6.40965 -25.9413 0
-3.2895 6.37974 -25.9096 0
-0.808313 6.29326 -25.9817 0
-6.28655 5.80408 -25.8245 0
-1.49327 5.65472 -25.9305 0
6.22219 5.2507 -25.6675 0
-4.81715 4.41355 -25.4576 0
3.78162 4.08664 -25.6176 0
3.48239 4.06762 -25.6101 0
3.97328 3.75688 -25.5419 0
-2.22988 3.59399 -25.4778 0
-2.9438 3.4183 -25.2427 0
-0.532223 3.14533 -25.2313 0
7.98346 3.06273 -25.4665 0
-1.43393 2.62712 -25.0842 0
3.83157 2.55194 -25.0355 0
4.27522 2.50315 -25.1123 0
3.87961 2.44725 -25.0467 0
3.87961 2.44725 -25.0467 0
3.89461 2.32539 -25.0519 0
6.38666 2.30941 -25.0277 0
5.78951 2.24179 -25.0342 0
2.44513 2.18873 -25.0369 0
-4.82811 1.30254 -25.2783 0
3.0084 0.713135 -25.2234 0
8.10758 -0.00347821 -25.2002 0
2.64198 -0.0335972 -25.236 0
2.56999 -0.158137 -25.2247 0
2.08708 -0.488708 -25.2429 0
-6.91692 -0.645792 -25.3537 0
3.00581 -0.691889 -25.3792 0
-7.38669 -0.911921 -25.3145 0
3.1697 -1.72244 -25.3026 0
7.60044 -1.89097 -25.3301 0
3.08167 -2.01876 -25.3438 0
3.44494 -2.17913 -25.3587 0
3.68328 -2.9462 -25.4273 0
3.68328 -2.9462 -25.4273 0
-5.49739 -3.21021 -25.2611 0
-7.00374 -3.26352 -25.3048 0
-6.85515 -3.31299 -25.3088 0
-7.05841 -3.49251 -25.3758 0
3.66302 -4.30742 -25.4268 0
-8.75189 -4.96146 -25.7703 0
-6.89425 -5.54152 -25.7467 0
-5.97823 -5.98738 -25.7772 0
-5.97823 -5.98738 -25.7772 0
-8.06389 -6.63719 -25.9202 0
-5.0129 -6.87513 -25.9325 0
-6.00382 -6.91492 -25.8862 0
-5.86132 -7.90889 -25.9129 0
-5.66061 -8.11297 -25.9141 0
3.48756 8.40979 -24.9846 0
3.48756 8.40979 -24.9846 0
3.00649 8.13901 -25.0439 0
1.03348 7.33514 -25.9968 0
-3.44573 6.28147 -25.9971 0
-6.36918 6.02324 -25.9203 0
7.79787 5.18064 -25.6803 0
6.24854 5.14651 -25.6667 0
-2.19519 4.79982 -25.572 0
4.23521 3.5972 -25.4688 0
0.620454 3.26084 -25.1466 0
-0.666183 3.04473 -25.2421 0
-0.817653 2.94823 -25.2356 0
4.67435 2.72227 -25.4877 0
5.81198 2.56711 -25.0285 0
5.17135 2.49886 -25.0438 0
4.74359 2.44828 -25.1206 0
-5.33572 2.42871 -25.4688 0
7.53428 2.30564 -25.028 0
-4.91788 1.60619 -25.2979 0
-4.73773 1.12133 -25.29 0
-1.85219 0.879518 -25.2528 0
1.9 0.391246 -25.2715 0
8.13608 0.256 -25.1654 0
-7.39981 0.0672372 -25.3005 0
-7.39981 0.0672372 -25.3005 0
0.500299 -0.0856498 -25.2648 0
0.889521 -0.132484 -25.2789 0
-0.0881873 -0.265825 -25.2511 0
-5.37614 -0.294935 -25.3193 0
0.262735 -0.338718 -25.1937 0
-0.382349 -0.355409 -25.2178 0
0.609507 -0.378351 -25.1551 0
0.404475 -0.443358 -25.1947 0
0.204547 -0.502797 -25.2119 0
-0.859485 -0.504497 -25.2736 0
-0.918094 -0.668985 -25.2694 0
-0.918094 -0.668985 -25.2694 0
3.23429 -1.03726 -25.2443 0
3.08028 -2.02023 -25.3438 0
-5.36151 -2.28436 -25.296 0
4.34522 -2.34888 -25.4412 0
4.34522 -2.34888 -25.4412 0
4.62334 -3.36589 -25.3989 0
3.88087 -3.60845 -25.3464 0
3.71672 -3.66296 -25.3126 0
-6.99831 -3.83337 -25.3965 0
3.72002 -3.82523 -25.3349 0
5.02919 -4.22827 -25.4166 0
4.45889 -4.7478 -25.3927 0
-5.92577 -6.678 -25.8446 0
-4.66094 -7.7881 -25.936 0
-4.50752 -8.32882 -26.3461 0
4.93749 8.57736 -25.0327 0
7.0592 8.12352 -25.5628 0
6.10365 7.4072 -26.3885 0
0.572866 6.84563 -25.983 0
6.60995 2.85295 -25.4308 0
7.85882 2.63081 -25.1275 0
5.67055 2.55293 -25.0289 0
1.00084 1.13861 -25.0637 0
1.31175 0.137767 -25.2529 0
0.719318 -0.190466 -25.304 0
0.480156 -0.256023 -25.1989 0
-7.45013 -0.300143 -25.2876 0
-0.318915 -0.49898 -25.2284 0
3.08483 -0.55236 -25.3547 0
7.39857 -1.83764 -25.3269 0
-5.39054 -2.6734 -25.2956 0
-5.39054 -2.6734 -25.2956 0
-7.44131 -3.20984 -25.3139 0
-8.12963 -4.2318 -25.41 0
3.9723 -4.31706 -25.4167 0
-7.83858 -4.50639 -25.4193 0
4.27303 -4.66121 -25.4062 0
3.39237 -5.32981 -25.4803 0
7.02755 -5.55763 -25.5178 0
-6.12946 -6.42795 -25.8364 0
-7.57854 -6.89276 -25.8418 0
-7.46737 -7.09347 -25.9162 0
-8.03979 -7.27663 -25.9388 0
-4.05571 -8.01002 -25.919 0
-4.38365 -8.12248 -26.0317 0
-8.42314 -8.2855 -26.0142 0
-2.57877 8.42792 -25.1227 0
-4.01553 6.31259 -25.8879 0
4.03493 4.12957 -25.6028 0
4.29724 2.72805 -25.4517 0
6.52494 2.51485 -25.0195 0
6.10086 2.46103 -25.0278 0
-5.07202 2.4072 -25.4413 0
8.05659 1.10076 -25.094 0
1.12497 0.470663 -25.2606 0
7.96592 0.152667 -25.2024 0
1.58348 0.0981191 -25.267 0
1.86732 -0.0090879 -25.218 0
-4.90226 -1.03595 -25.3437 0
7.94872 -2.25827 -25.269 0
-5.03134 -2.43013 -25.286 0
-6.96904 -2.61111 -25.2859 0
3.44939 -3.17187 -25.3363 0
4.22398 -4.59244 -25.4243 0
-6.13798 -6.66564 -25.8384 0
-8.74518 7.24555 -25.929 0
-3.98803 1.77104 -25.2564 0
-5.08304 0.535714 -25.3043 0
-4.33843 -0.0511968 -25.277 0
-6.63346 -0.473548 -25.1621 0
-1.33799 -0.719585 -25.2238 0
2.92688 -1.27289 -25.2345 0
-5.64427 -2.04434 -25.2441 0
4.78299 -3.30445 -25.398 0
5.22029 -5.77718 -25.4862 0
-3.49732 -7.23698 -25.9194 0
-7.10343 -8.15038 -25.9475 0
1.65023 7.60057 -26.019 0
5.26021 6.1978 -26.0802 0
-5.0478 2.55913 -25.4329 0
7.93521 -1.97331 -25.3627 0
4.64042 -3.73471 -25.3851 0
-3.93785 -7.13873 -25.9325 0
-3.68867 -7.84532 -25.9268 0
-3.68867 -7.84532 -25.9268 0
-3.43753 3.99769 -25.468 0
1.6565 0.463928 -25.2646 0
2.93053 -0.724112 -25.3783 0
3.06877 -1.22132 -25.2333 0
3.20646 -1.72853 -25.3053 0
-5.15359 -2.087 -25.3168 0
-5.23509 -2.93169 -25.2002 0
3.546 -3.01069 -25.3954 0
-6.39624 -3.07291 -25.1917 0
-5.79994 -3.18199 -25.2536 0
-5.01837 -3.65243 -25.4499 0
3.70845 -3.82035 -25.3332 0
3.70845 -3.82035 -25.3332 0
2.87933 -4.9957 -25.44 0
3.76515 -5.37798 -25.4375 0
3.76515 -5.37798 -25.4375 0
-4.14816 -6.45089 -25.8732 0
-4.48123 -7.42197 -25.9153 0
-4.17481 -7.91242 -25.9214 0
-4.18296 1.91018 -25.2745 0
4.00462 -0.76702 -25.5362 0
-5.36647 -4.59459 -25.4725 0
