ply
format ascii 1.0
element vertex 363
property float x
property float y
property float z
property uchar intensity
end_header
-1.25066 6.51347 -24.9827 0
3.93426 4.76624 -25.0716 0
1.3469 4.39447 -25.2234 0
7.87922 3.77052 -25.2423 0
-2.41986 3.31277 -25.2778 0
0.588268 3.18096 -25.1866 0
0.693773 3.11256 -25.2062 0
0.618711 7.2867 -25.0531 0
-2.49776 7.22326 -25.0326 0
-2.58572 7.18982 -25.0299 0
-3.46621 6.70087 -24.9884 0
-0.508187 6.57695 -24.9895 0
-0.834638 6.54714 -24.9574 0
-3.6911 6.48607 -24.9981 0
-3.08609 6.44959 -25.0065 0
-3.03076 6.09497 -25.0302 0
-3.64251 5.99387 -24.9905 0
-3.16133 5.87857 -24.9778 0
-8.52708 5.96889 -25.0487 0
-3.23811 5.51749 -25.0179 0
6.22983 5.12326 -25.0312 0
4.84778 5.08894 -24.9889 0
4.96183 4.98909 -25.0247 0
5.69915 4.32076 -25.1668 0
1.1153 3.94898 -25.2201 0
8.14524 3.99629 -25.205 0
0.260251 3.38244 -25.2017 0
-2.51531 3.3348 -25.2667 0
-2.35336 3.235 -25.249 0
0.293167 3.18773 -25.198 0
0.2664 3.11605 -25.185 0
-3.81453 -1.50467 -25.9856 0
-4.0073 -1.56651 -25.9887 0
-3.79015 -1.57799 -25.9916 0
-3.89696 -1.63831 -25.9971 0
-5.60636 -1.83422 -25.9716 0
-7.11058 -2.21937 -25.9305 0
-7.5748 -2.31821 -25.9212 0
-8.28091 -2.46617 -25.9253 0
-8.4659 -2.49993 -25.9265 0
-8.52564 -2.54968 -25.9268 0
2.2013 -3.12396 -25.5626 0
6.81502 -5.65462 -25.8627 0
-1.66828 -6.26585 -25.9396 0
-2.45041 -6.89527 -25.8783 0
-2.76896 -7.17562 -25.9534 0
2.318 8.51229 -25.7015 0
-5.09916 8.31086 -25.5131 0
2.7623 7.5283 -25.064 0
0.939282 7.32123 -25.0217 0
-3.84293 6.77933 -24.9895 0
-3.11453 6.7629 -24.9817 0
-3.31591 6.7534 -24.9906 0
-4.07338 6.74156 -24.9813 0
-3.55067 6.67911 -25.0049 0
-5.42688 6.67737 -25.0006 0
-5.30362 6.65458 -25.0058 0
-3.49751 6.61411 -24.9943 0
-2.8968 6.27492 -24.989 0
-1.92928 6.21008 -24.9646 0
-3.48692 6.16236 -25.0079 0
-2.38476 6.0807 -25.0185 0
-3.40094 5.77976 -25.0077 0
4.26242 4.8276 -25.0658 0
4.52395 4.78383 -25.0768 0
-0.21691 4.73484 -25.0138 0
-0.768016 4.56781 -25.0396 0
2.26688 3.93232 -25.2368 0
1.94721 3.90117 -25.2016 0
1.84018 3.88708 -25.2134 0
1.61033 3.8416 -25.2224 0
1.36106 3.76937 -25.2014 0
1.10298 3.66986 -25.2242 0
0.591859 3.58459 -25.2139 0
0.357519 3.27131 -25.2045 0
-0.803911 3.19598 -25.2693 0
0.370046 3.09383 -25.1983 0
0.370046 3.09383 -25.1983 0
0.295544 2.95918 -25.1625 0
-2.21309 2.81873 -25.167 0
-0.276223 1.63259 -25.357 0
-0.573242 1.60154 -25.3325 0
7.73663 0.97491 -25.4088 0
-2.59665 0.905205 -25.3658 0
7.69474 0.884787 -25.4169 0
8.2093 0.744094 -25.4406 0
-4.94632 0.37438 -25.4939 0
-4.94632 0.37438 -25.4939 0
-0.912891 -0.0904077 -25.3734 0
-0.0532697 -0.705696 -25.4024 0
0.614665 -0.952013 -25.5381 0
-5.11431 -1.79488 -25.9576 0
-2.67482 -1.88435 -25.9564 0
-8.55728 -2.3129 -25.9203 0
-0.563126 -2.78063 -25.5526 0
-2.60609 -3.75128 -25.965 0
-2.27595 -3.81502 -25.9536 0
6.89809 -5.69041 -25.8717 0
-1.85302 -6.26111 -25.9179 0
-1.29218 -6.63406 -25.8813 0
6.43358 -7.17669 -26.0237 0
6.36569 -7.36586 -26.0028 0
8.22789 8.25701 -25.1023 0
0.660416 7.3998 -25.0356 0
2.77142 6.69636 -25.0512 0
-3.37356 6.65894 -24.9761 0
-3.42984 6.36657 -24.9997 0
-3.64719 6.37315 -25.0103 0
-1.83083 6.20434 -24.9516 0
-2.89052 6.12088 -25.0078 0
-1.14131 5.77213 -24.9714 0
-6.95523 5.80217 -25.4524 0
-7.04258 5.71043 -25.4369 0
-3.31197 5.42001 -25.038 0
6.07872 5.17874 -25.0176 0
3.92134 4.98789 -25.0146 0
-1.01121 4.69504 -25.0216 0
-0.927563 4.59764 -25.0299 0
3.01306 4.0562 -25.2471 0
3.51161 3.79008 -25.2959 0
7.82151 3.53667 -25.212 0
7.29322 3.42311 -25.2259 0
-5.40639 3.40268 -25.2327 0
0.733696 3.27983 -25.1904 0
0.471678 2.96401 -25.2101 0
0.350016 2.88406 -25.1684 0
-8.58059 2.85877 -25.3214 0
-8.58059 2.85877 -25.3214 0
7.42582 2.53542 -25.2271 0
7.58222 2.49904 -25.2414 0
2.66135 1.63823 -25.3269 0
2.66135 1.63823 -25.3269 0
5.043 1.61512 -25.3621 0
-0.739508 1.60741 -25.3259 0
1.68699 1.40941 -25.4073 0
7.73686 1.21533 -25.43 0
5.00371 -1.36021 -25.4501 0
-2.95582 -1.68187 -25.9764 0
-3.77057 -1.68239 -25.9977 0
2.24827 -2.98651 -25.5511 0
2.26442 -3.08093 -25.55 0
2.22792 -3.1927 -25.5713 0
-2.26225 -3.60291 -25.9684 0
4.18186 -4.63461 -25.6491 0
-2.14001 -4.75701 -25.9335 0
-2.03232 -4.82381 -25.9174 0
-2.20448 -5.67118 -25.9394 0
6.92497 -6.05742 -25.8736 0
6.43738 -7.27406 -26.0066 0
6.20159 -7.55348 -26.0184 0
-1.29449 8.58004 -25.5981 0
-3.41371 8.32316 -25.5351 0
-3.20773 7.95862 -25.549 0
2.57442 7.81963 -24.9999 0
-5.22224 7.71197 -25.4661 0
0.758394 7.32225 -25.0248 0
0.758394 7.32225 -25.0248 0
-3.17078 6.33526 -24.9978 0
-7.51925 5.99031 -25.5196 0
7.48513 5.44021 -25.1236 0
-0.943786 5.13717 -25.0166 0
-0.920991 4.9455 -25.0124 0
2.8457 4.80632 -25.1947 0
7.62018 4.79902 -25.1104 0
0.642684 3.39805 -25.1891 0
0.364561 3.39648 -25.2038 0
-5.50036 3.35283 -25.2747 0
0.595981 3.02135 -25.2008 0
-0.101545 1.72982 -25.3356 0
4.06897 1.72356 -25.3028 0
-1.13123 1.70526 -25.3131 0
1.63749 1.4998 -25.4497 0
3.57682 1.37319 -25.4221 0
2.53982 1.37674 -25.3952 0
4.55897 1.06868 -25.5241 0
4.55897 1.06868 -25.5241 0
-8.58049 0.986273 -25.3558 0
8.11418 -0.30759 -25.4895 0
6.92151 -0.582022 -25.435 0
-3.57315 -1.30042 -25.9875 0
7.06162 -1.62972 -25.4724 0
-5.50304 -1.73561 -25.959 0
-4.90891 -1.90842 -25.947 0
-5.10475 -1.9486 -25.9489 0
-5.31619 -1.99139 -25.9602 0
-6.79197 -2.29809 -25.9379 0
-2.73268 -2.40413 -26.0158 0
-2.59008 -3.33313 -25.9705 0
-2.3873 -3.77266 -25.978 0
-2.66458 -3.89221 -25.9596 0
-2.21122 -4.47699 -25.9597 0
-2.21122 -4.47699 -25.9597 0
-2.09951 -5.09674 -25.9335 0
-2.23465 -5.13135 -25.9387 0
-2.41456 -5.24081 -25.9428 0
-1.92285 -5.59997 -25.9472 0
-0.911922 -5.66015 -25.9448 0
6.26181 -5.89377 -25.8735 0
0.634981 8.39816 -25.6086 0
0.461302 8.41004 -25.6737 0
-6.14542 8.06503 -25.4938 0
4.5338 7.76266 -25.006 0
-1.51282 6.79012 -24.9515 0
-1.56019 6.62678 -24.9586 0
-5.3311 6.39795 -25.1184 0
-1.65676 6.16628 -24.9487 0
-6.73492 6.06438 -25.4377 0
-6.80697 5.91023 -25.4785 0
7.75447 5.42093 -25.0796 0
7.61289 5.35294 -25.0872 0
6.53622 5.09219 -25.0242 0
-4.89534 4.91237 -25.1131 0
2.90006 4.06358 -25.2457 0
5.70342 3.91503 -25.1835 0
5.70342 3.91503 -25.1835 0
7.74187 2.70204 -25.2762 0
0.271805 1.76063 -25.3363 0
0.627277 1.61335 -25.3503 0
0.249364 1.60759 -25.3637 0
1.14913 1.53027 -25.399 0
3.06486 1.51918 -25.4423 0
2.41708 1.42367 -25.3799 0
6.02672 1.38117 -25.3643 0
6.47335 1.37527 -25.386 0
7.60483 1.18483 -25.4144 0
6.76624 1.04155 -25.4737 0
5.53694 0.920546 -25.5101 0
5.24677 0.924851 -25.4907 0
5.3641 0.834352 -25.49 0
5.22171 -0.0221454 -25.4573 0
7.745 -0.48826 -25.4896 0
4.266 -0.756894 -25.4568 0
0.975603 -1.19222 -25.4337 0
-2.29783 -1.24046 -25.9797 0
3.58226 -1.36696 -25.4342 0
-4.67413 -1.42354 -25.956 0
-4.14974 -1.47529 -25.995 0
-4.14974 -1.47529 -25.995 0
-3.0701 -1.50965 -25.9576 0
5.72984 -1.61032 -25.4884 0
-4.933 -1.6189 -25.9713 0
-4.59413 -1.69611 -25.9577 0
-4.12136 -1.72272 -25.976 0
-4.99418 -1.78235 -25.9498 0
-3.00864 -1.81758 -25.9338 0
-5.20802 -1.83721 -25.9707 0
-5.42768 -1.86764 -25.9724 0
5.01297 -1.8995 -25.4922 0
-6.26532 -1.89808 -25.9623 0
-5.76636 -1.93909 -25.9677 0
-6.36119 -2.05271 -25.9576 0
-6.36119 -2.05271 -25.9576 0
-6.55439 -2.10866 -25.9774 0
6.66138 -2.26292 -25.5512 0
0.0728884 -2.556 -25.53 0
-2.86603 -2.66235 -25.9775 0
-2.45574 -2.71043 -26.0059 0
-0.104225 -3.10705 -25.5417 0
3.37677 -3.4382 -25.5701 0
-2.67088 -3.44806 -25.9562 0
-2.21102 -3.46418 -25.955 0
5.49066 -4.91028 -25.713 0
-2.04816 -5.7292 -25.9343 0
6.72154 -6.16087 -25.8921 0
-1.61755 -6.13833 -25.9284 0
6.24002 -6.77486 -25.9361 0
5.97149 -7.58406 -25.9955 0
-3.97237 5.72571 -25.0112 0
-6.82117 5.68122 -25.4193 0
7.61036 5.50435 -25.0969 0
7.61036 5.50435 -25.0969 0
0.680839 1.79425 -25.3254 0
2.85062 1.66469 -25.3712 0
3.71681 1.624 -25.3769 0
1.38791 1.4532 -25.393 0
-0.988868 1.40957 -25.3336 0
-1.37291 1.41036 -25.3111 0
0.0951633 1.28029 -25.37 0
3.61933 1.24086 -25.4274 0
5.30467 1.21013 -25.4479 0
3.26568 0.679168 -25.4672 0
-5.71988 0.337498 -25.4289 0
5.41475 0.0543339 -25.418 0
3.61752 -0.326783 -25.4605 0
4.4164 -0.417611 -25.4798 0
3.64729 -1.10283 -25.4084 0
8.13546 -1.12984 -25.5051 0
-4.32407 -1.16791 -26.0267 0
4.65597 -1.28224 -25.4718 0
-3.66099 -1.64305 -26.0017 0
5.30289 -1.69798 -25.4985 0
-4.76482 -1.73469 -25.9733 0
2.38709 -3.18661 -25.567 0
-1.3166 -4.88352 -25.9253 0
7.35892 -5.28922 -25.8067 0
5.68085 -7.46815 -25.949 0
5.26884 -7.50291 -25.9732 0
0.037667 7.29738 -25.0809 0
8.20121 3.67739 -25.2109 0
2.1754 1.29181 -25.3678 0
-1.84396 0.441943 -25.4198 0
-6.56177 0.21088 -25.4051 0
-4.27956 -0.506586 -25.8988 0
7.02473 -1.16406 -25.5136 0
3.4605 -1.18418 -25.4393 0
5.47632 -1.51411 -25.5012 0
-3.91684 -1.54308 -25.9889 0
-6.76251 -2.05677 -25.9583 0
0.147487 -2.76558 -25.5183 0
-1.50097 -3.58038 -25.9289 0
2.81298 -3.61234 -25.5721 0
6.05585 -4.79096 -25.7067 0
4.18563 -5.2059 -25.6412 0
6.7371 -6.76019 -25.9358 0
5.52488 -7.94413 -25.9489 0
-6.07744 8.06043 -25.4932 0
-5.06871 7.85706 -25.5056 0
-3.6384 4.46695 -25.125 0
8.34571 3.95763 -25.1871 0
7.52237 2.8069 -25.2083 0
1.15915 1.87065 -25.3063 0
0.419929 1.84102 -25.3441 0
7.58394 1.81774 -25.3462 0
0.122138 -0.63409 -25.4342 0
8.04881 -1.59635 -25.4774 0
-0.552945 -2.17839 -25.5861 0
0.0738353 -3.09511 -25.5477 0
3.09878 -3.40854 -25.6101 0
7.99229 -4.65252 -25.7642 0
4.7717 -4.8552 -25.6795 0
-1.38095 -5.21593 -25.9157 0
-1.91016 -6.60071 -25.9232 0
-1.09208 -7.16501 -25.9858 0
0.421237 7.74772 -25.2676 0
-3.0685 6.45322 -25.0076 0
0.464746 4.69688 -25.0357 0
8.15706 4.27002 -25.1727 0
7.96357 3.90913 -25.246 0
-0.0717743 3.0723 -25.1707 0
-8.38177 1.19258 -25.3181 0
-5.45932 -2.0245 -25.9677 0
-1.80957 -2.58294 -26.0067 0
2.87929 -3.36836 -25.6235 0
5.772 -4.87483 -25.7451 0
4.80838 -4.86662 -25.6901 0
4.80838 -4.86662 -25.6901 0
-0.60338 7.32055 -24.9704 0
5.879 5.38073 -25.0075 0
-2.2514 1.83541 -25.4278 0
4.68199 1.549 -25.359 0
7.19574 0.528327 -25.4239 0
-3.78082 -1.26015 -26.0141 0
-2.70191 -2.39731 -26.0181 0
-2.61103 -2.84693 -26.0042 0
-2.52443 -3.31533 -25.9763 0
-2.31124 -4.51398 -25.9574 0
7.16936 -5.02302 -25.7749 0
-3.11612 -6.21102 -25.8984 0
-2.30759 -6.65132 -25.8978 0
-2.30759 -6.65132 -25.8978 0
0.991151 -7.48833 -25.7729 0
-7.93543 1.66221 -25.3582 0
7.87499 -5.14681 -25.7987 0
