ply
format ascii 1.0
element vertex 303
property float x
property float y
property float z
property uchar intensity
end_header
3.1077 7.69592 -25.1002 0
2.03272 6.93552 -25.081 0
1.84679 6.91015 -25.0802 0
1.62477 6.87274 -25.0574 0
-8.48278 6.63648 -25.2907 0
-0.199649 6.4397 -25.0027 0
-0.259671 6.33722 -25.0427 0
-8.1099 6.38171 -25.2782 0
-3.66799 6.1874 -25.0043 0
-0.37059 6.12544 -25.0937 0
-6.92447 6.04845 -25.3932 0
-3.67992 5.91679 -25.034 0
8.28803 5.63974 -25.2796 0
-0.213218 5.17945 -25.1395 0
-3.24338 5.07642 -25.1321 0
-2.70485 5.03578 -25.1647 0
-3.49139 5.01708 -25.1361 0
-3.27207 4.82086 -25.1785 0
7.27063 4.84832 -25.2094 0
-8.71644 4.47727 -25.0028 0
-0.772463 4.01022 -25.2236 0
4.03349 3.96041 -25.2426 0
-8.40357 3.88429 -25.0136 0
4.59052 3.83525 -25.3127 0
5.04686 3.793 -25.3053 0
4.60387 3.7687 -25.3136 0
5.02304 3.63758 -25.2639 0
1.33369 3.58377 -25.2576 0
0.407601 3.32914 -25.207 0
-3.03137 3.22985 -25.3857 0
7.94929 0.165113 -25.4934 0
6.84205 -0.10549 -25.4991 0
6.84205 -0.10549 -25.4991 0
4.82739 -0.603623 -25.6003 0
2.71919 -1.11207 -25.9387 0
2.37971 -1.19544 -25.9068 0
2.37971 -1.19544 -25.9068 0
5.37865 8.04241 -25.0681 0
5.84702 8.03985 -25.0946 0
3.19362 7.77536 -25.1622 0
1.31428 7.60252 -24.9987 0
-8.77509 7.04061 -25.3716 0
-0.156318 6.52513 -24.9809 0
-7.42185 6.51962 -25.5183 0
-6.92178 5.9861 -25.3787 0
-3.27588 5.79407 -25.0762 0
-3.53383 5.78668 -25.0664 0
8.12128 5.73567 -25.2912 0
-3.23921 5.62332 -25.0786 0
-2.56705 4.71431 -25.2181 0
-3.21756 4.64659 -25.2075 0
-8.78962 4.51065 -25.0193 0
-0.559747 4.04904 -25.1966 0
6.18448 3.9605 -25.4001 0
4.6608 3.9184 -25.3423 0
4.67589 3.73861 -25.3243 0
-3.43251 3.47713 -25.3571 0
6.34092 -0.160727 -25.5535 0
3.21578 -0.993561 -25.5881 0
1.54949 -1.40821 -25.628 0
-2.46471 -2.62567 -25.5932 0
-2.91012 -3.15379 -26.1792 0
-1.64714 -3.96649 -25.9468 0
0.103123 -4.76886 -25.9481 0
-6.47251 -5.03394 -25.9512 0
-0.0174992 -5.01684 -25.9603 0
-1.33935 -5.13858 -25.9588 0
-6.00349 -5.67122 -25.8786 0
-5.95437 -5.7241 -25.8571 0
-2.4799 -7.6048 -25.7339 0
-2.4799 -7.6048 -25.7339 0
-2.40057 -7.6374 -25.7163 0
4.98434 8.56725 -25.0469 0
3.37217 7.67297 -25.2344 0
3.08122 6.89586 -25.1149 0
1.55827 6.79722 -25.0972 0
1.14614 6.56033 -25.1643 0
-8.26146 6.62682 -25.3247 0
-0.143275 6.38618 -25.0584 0
-3.64946 6.29038 -25.0042 0
-8.21724 6.03861 -25.1239 0
-3.39461 5.41927 -25.1016 0
-2.40253 5.02127 -25.171 0
-3.39457 4.98753 -25.1465 0
-2.96354 4.70842 -25.1764 0
1.88844 4.6896 -25.2406 0
0.799336 4.09147 -25.2238 0
-0.327625 4.06157 -25.1738 0
-8.43626 3.99542 -25.0187 0
5.1626 3.7126 -25.2899 0
1.17156 3.63236 -25.2621 0
4.57368 3.5983 -25.3086 0
4.68693 3.5344 -25.3062 0
-3.00056 3.05653 -25.3715 0
8.28417 2.6246 -25.3911 0
-3.74907 2.55301 -25.1114 0
4.43676 2.39325 -25.4254 0
-2.20292 2.16811 -25.3095 0
-2.45131 2.05053 -25.4958 0
-3.04497 1.1324 -25.9469 0
3.20986 -0.0836386 -25.5102 0
-4.66123 -0.280777 -25.976 0
4.32152 -0.733857 -25.5768 0
4.32152 -0.733857 -25.5768 0
-6.40136 -1.00871 -25.9883 0
1.15642 -1.73949 -25.8524 0
1.15642 -1.73949 -25.8524 0
-0.566275 -2.07558 -26.0088 0
-4.18649 -2.95433 -26.179 0
-5.52002 -3.16226 -25.4109 0
-5.3248 -3.28999 -25.4066 0
-2.99401 -3.20479 -22.3252 0
-2.80617 -4.06172 -25.9011 0
-6.72851 -4.60883 -25.9606 0
0.0229367 -4.75805 -25.9454 0
0.100092 -4.88747 -25.9476 0
-6.19995 -5.09747 -25.9027 0
-6.24415 -5.33268 -25.9174 0
-0.747415 -5.62528 -25.9505 0
-6.38247 -5.84593 -26.0219 0
0.203388 -6.31011 -25.8184 0
0.283345 -6.37803 -25.7395 0
1.31669 -7.25163 -25.7614 0
-2.42613 -7.26822 -25.78 0
1.69181 -7.63038 -25.9101 0
4.78791 8.55107 -25.0679 0
4.78791 8.55107 -25.0679 0
5.53587 8.07771 -25.0802 0
3.49118 7.77477 -25.1433 0
3.28374 7.75481 -25.2548 0
3.28374 7.75481 -25.2548 0
-7.25816 7.3315 -25.5243 0
1.35885 7.14439 -24.9864 0
-7.87519 6.46525 -25.3548 0
-6.95662 6.38375 -25.4841 0
-8.26284 6.26901 -25.2451 0
-0.278066 6.11523 -25.0946 0
-3.38811 5.84295 -25.0659 0
-3.20691 5.25062 -25.1043 0
6.41475 4.58844 -25.2926 0
4.67497 4.03494 -25.3486 0
5.08129 3.93884 -25.3409 0
-0.0540749 3.74898 -25.0902 0
4.78252 3.61501 -25.3028 0
-3.45107 3.59415 -25.4094 0
-3.67597 3.20161 -25.0724 0
-2.63567 3.14025 -25.4043 0
6.03209 2.3199 -25.4328 0
-1.3581 2.15318 -25.5119 0
-2.24493 1.74726 -25.5344 0
8.28219 1.18218 -25.5004 0
-3.46165 0.170305 -25.9856 0
7.04221 -0.229082 -25.5233 0
6.86077 -0.279029 -25.764 0
6.6554 -0.323029 -25.6517 0
0.376123 -2.41831 -25.9979 0
-1.51834 -2.41578 -25.9966 0
-0.559637 -2.64085 -26.0028 0
0.867608 -2.71097 -25.9988 0
0.253012 -2.87466 -25.9869 0
-4.95666 -3.21003 -25.4086 0
-5.43283 -3.23776 -25.4069 0
-5.09176 -3.24203 -25.4078 0
-3.92854 -3.45095 -22.3252 0
-6.85548 -3.66562 -25.737 0
-2.12776 -3.75397 -25.9091 0
-4.77923 -3.65453 -22.3252 0
-4.77923 -3.65453 -22.3252 0
-6.2013 -4.11062 -25.8874 0
-0.11158 -4.09891 -25.9667 0
-2.3794 -4.1409 -25.903 0
-6.48631 -4.21428 -25.8852 0
-6.48631 -4.21428 -25.8852 0
-0.827379 -4.27099 -25.9557 0
-0.827379 -4.27099 -25.9557 0
-1.96762 -4.4595 -25.9121 0
-1.55421 -4.47395 -25.9259 0
-1.55421 -4.47395 -25.9259 0
-2.19317 -4.84793 -25.9166 0
-2.09755 -5.56034 -25.9576 0
-6.71944 -5.64156 -26.0179 0
0.0802831 -6.42889 -25.7239 0
-5.3154 -6.80277 -25.9414 0
-1.31073 -7.27431 -25.6654 0
3.87853 8.41694 -25.0511 0
7.24572 8.38702 -25.1414 0
3.36058 8.20167 -25.292 0
-0.229747 7.53012 -24.9959 0
1.29483 6.99023 -24.9819 0
-7.99111 6.35708 -25.2794 0
-2.4367 3.64693 -25.124 0
-8.06884 3.693 -25.0231 0
0.383387 3.50682 -25.1488 0
-0.0907776 3.38858 -25.0982 0
6.09742 2.45671 -25.4291 0
8.06693 2.39657 -25.433 0
7.36233 2.3879 -25.417 0
1.56547 1.3278 -25.4414 0
-7.13786 1.26662 -25.2834 0
8.07523 1.10194 -25.522 0
7.03003 0.0932295 -25.4957 0
7.82822 -0.0175619 -25.502 0
6.44578 -0.0466406 -25.5001 0
6.74561 -0.152626 -25.5005 0
5.69199 -0.23191 -25.527 0
-5.53528 -2.22824 -25.2151 0
-4.92952 -2.41973 -25.1947 0
-4.65746 -2.88853 -25.4104 0
-7.14405 -3.24314 -25.7153 0
-0.644105 -3.22338 -25.993 0
-0.434432 -3.37507 -25.98 0
-2.29632 -3.74933 -25.8918 0
-2.56818 -4.40656 -25.8993 0
-0.68225 -4.98321 -25.9708 0
-6.13407 -5.88202 -25.9492 0
-6.48685 -6.02199 -26.0264 0
-1.961 -6.04791 -25.9476 0
-3.00827 -7.18054 -25.9251 0
-3.00827 -7.18054 -25.9251 0
1.24395 -7.39069 -25.8123 0
1.36824 -7.9353 -25.9694 0
5.32656 8.457 -25.1007 0
1.61016 7.47812 -25.0202 0
-8.10849 6.09977 -25.1908 0
-1.80637 3.188 -25.1612 0
6.42828 2.65136 -25.3959 0
7.87745 2.40196 -25.4296 0
-1.65436 2.13804 -25.5143 0
7.69863 0.588057 -25.488 0
7.26078 0.304089 -25.4854 0
7.80334 0.266507 -25.4919 0
7.80334 0.266507 -25.4919 0
6.96774 -0.0849947 -25.4967 0
6.50712 -0.196886 -25.5088 0
5.60905 -0.40944 -25.6046 0
5.40684 -0.467038 -25.5326 0
-6.15825 -0.813807 -25.9648 0
1.34059 -1.9175 -25.9416 0
1.03219 -2.15602 -25.9811 0
-2.52036 -4.57449 -25.8944 0
-2.36101 -5.2862 -25.9244 0
-1.83343 -5.8861 -25.9619 0
-0.0610476 -5.95708 -25.9277 0
-0.775136 -6.15016 -25.9435 0
-1.55404 -6.34215 -25.955 0
-1.44824 -6.52275 -25.9274 0
-4.30159 -7.62412 -25.9565 0
-2.50706 -7.66873 -25.7352 0
1.53781 -7.73352 -25.923 0
1.53781 -7.73352 -25.923 0
6.15523 3.50255 -25.4145 0
-2.01434 3.24638 -25.0783 0
-2.4259 3.07247 -25.4147 0
8.04322 0.186956 -25.5076 0
8.04322 0.186956 -25.5076 0
5.18451 -0.405328 -25.4724 0
-2.17358 -3.08794 -25.9812 0
-2.17358 -3.08794 -25.9812 0
-4.34992 -3.11391 -25.4074 0
-2.90921 -3.87005 -25.9027 0
-2.64761 -4.15995 -25.9025 0
-2.016 -4.27702 -25.9055 0
-2.016 -4.27702 -25.9055 0
-1.70504 -5.68862 -25.9573 0
-1.73635 -6.17617 -25.9565 0
-0.531351 -6.27099 -25.9024 0
-2.02741 -6.71644 -25.9313 0
-1.19472 -7.62317 -25.7824 0
-5.50444 8.34325 -25.4189 0
-7.64226 5.94798 -25.3126 0
-2.98823 3.46254 -25.132 0
-1.53522 3.09569 -25.2458 0
-8.41357 3.06484 -25.2743 0
-6.31446 -0.233881 -25.6992 0
0.864311 -1.45588 -25.9073 0
-1.32186 -2.26782 -25.9977 0
-0.791884 -3.38133 -25.9774 0
-6.22343 -5.20889 -25.9057 0
-3.92658 -6.97062 -25.9545 0
2.1841 -7.5126 -25.866 0
2.1841 -7.5126 -25.866 0
-1.25613 4.57905 -25.1938 0
4.25805 3.66414 -25.2318 0
-2.75286 1.19894 -25.9903 0
-5.18266 -2.51848 -25.4073 0
1.84795 -6.07877 -25.739 0
-3.64242 -6.69458 -25.9544 0
2.42008 -6.84326 -25.9009 0
1.97854 -6.78 -25.7317 0
-7.68792 6.3425 -25.4642 0
6.62795 6.01616 -25.2231 0
-2.20822 3.43493 -25.1354 0
1.31414 -1.5504 -25.6755 0
1.12503 -2.44031 -25.9448 0
1.28027 -3.20467 -26.027 0
1.73635 -7.54913 -25.8778 0
-0.0363292 -2.51562 -26.0382 0
0.550555 -2.65818 -25.9735 0
-6.75969 -4.08168 -25.9734 0
0.84032 -4.12334 -25.9806 0
-5.88545 -4.80108 -25.9037 0
0.559781 -5.62935 -25.9579 0
1.43864 -7.0278 -25.6982 0
