ply
format ascii 1.0
element vertex 186
property float x
property float y
property float z
property uchar intensity
end_header
4.93553 1.63441 -25.0391 0
3.83653 0.739755 -25.0651 0
7.25368 2.85215 -25.1507 0
7.25165 2.44699 -25.0365 0
5.78837 2.42119 -25.1213 0
3.51328 2.04124 -25.2196 0
4.58409 1.98666 -25.012 0
6.33096 1.9696 -25.0301 0
4.79748 1.94919 -25.0154 0
-5.63684 1.62766 -25.4569 0
-6.02869 0.958421 -25.4242 0
8.28 0.862593 -25.1226 0
-5.28163 0.223189 -25.2804 0
-3.69188 -0.576236 -25.0656 0
4.64759 -6.28772 -26.1247 0
4.87798 -6.40989 -26.0235 0
5.96468 4.6567 -25.655 0
0.120623 3.16362 -25.6127 0
6.03322 2.51597 -25.1582 0
5.28654 2.48134 -25.2472 0
6.01174 2.3707 -25.0478 0
-1.66314 2.31696 -25.5705 0
-6.56652 1.57261 -25.4126 0
0.831987 1.44652 -25.3541 0
-6.52911 1.46164 -25.4221 0
3.85685 1.32555 -25.0445 0
-3.55393 0.5145 -25.0799 0
-5.32808 0.51549 -25.3421 0
-6.09875 0.113076 -25.4941 0
-5.47238 -0.0932763 -25.4949 0
2.97629 -0.210028 -25.1006 0
0.596018 -0.501756 -25.4592 0
-2.71601 -0.688335 -25.328 0
0.945808 -0.761329 -25.4708 0
3.75352 -1.78996 -25.2701 0
3.67574 -3.83246 -25.4763 0
4.8348 -6.31414 -26.0904 0
8.53125 -6.72438 -26.3089 0
8.53125 -6.72438 -26.3089 0
-5.17428 8.39217 -25.5681 0
6.32594 2.64704 -25.2137 0
-5.62783 1.72543 -25.4683 0
5.97466 1.33549 -25.0855 0
-5.33637 1.33048 -25.4397 0
-5.46024 1.24786 -25.4249 0
5.75802 1.19992 -25.129 0
0.398061 0.996586 -25.1965 0
5.03339 0.96123 -25.1053 0
-5.93003 0.879605 -25.4288 0
4.59235 0.827723 -25.0938 0
-5.88773 0.7486 -25.4197 0
-5.22164 0.493509 -25.2927 0
-6.23734 0.477912 -25.5 0
-5.62607 0.442416 -25.4814 0
-5.62607 0.442416 -25.4814 0
-5.16076 -0.113294 -25.2904 0
-5.99353 -0.227475 -25.5141 0
-6.14094 -0.477677 -25.4991 0
-1.76983 -0.936732 -25.3869 0
-2.73949 -1.21773 -25.3217 0
-3.15628 -1.24504 -25.2793 0
-3.06663 -1.51104 -25.1784 0
-4.48534 -2.13451 -25.3818 0
2.74958 -2.13497 -25.4392 0
2.35362 -2.19378 -25.5124 0
1.28134 -2.86201 -25.4413 0
-4.76079 -3.69883 -25.4453 0
3.82108 -6.93836 -25.8813 0
6.23268 -7.08378 -26.2837 0
6.41784 -7.57746 -26.2237 0
-4.03781 4.25357 -25.9366 0
-1.83045 4.11249 -25.9369 0
-1.76394 3.88448 -25.9257 0
2.53317 3.55373 -25.6655 0
-2.1155 3.54811 -25.9033 0
8.30349 3.41806 -25.2316 0
8.04852 3.34901 -25.225 0
-0.505418 2.91827 -25.5933 0
8.28349 2.78469 -24.9868 0
5.79331 1.50821 -25.0457 0
-2.98452 1.2021 -25.4742 0
-5.72989 0.519118 -25.4778 0
-2.82427 0.236928 -25.2153 0
2.66596 -0.357743 -25.2263 0
6.05817 -1.27345 -25.2492 0
7.44426 -1.44987 -25.2607 0
3.26354 -1.93177 -25.2866 0
3.26354 -1.93177 -25.2866 0
2.87996 -1.97613 -25.33 0
1.72176 -2.06518 -25.4547 0
-0.781012 -3.46108 -25.3859 0
5.72859 -6.31404 -25.677 0
5.24922 -6.89545 -25.9677 0
3.10669 -6.9265 -25.8187 0
2.35144 -7.2675 -25.9211 0
6.41951 -8.16338 -26.2173 0
6.82026 -8.30082 -26.2343 0
-7.07004 7.65643 -24.9962 0
4.33978 6.60826 -26.1216 0
-6.98759 3.39128 -25.8027 0
8.20672 3.30536 -25.2433 0
7.22535 3.04451 -25.2222 0
-3.42221 1.61493 -25.4994 0
3.2767 0.419753 -25.0813 0
-1.70333 -0.680571 -25.3755 0
-1.8202 -0.805067 -25.4019 0
-1.94609 -0.921287 -25.4101 0
-2.06527 -1.04228 -25.4049 0
3.19011 -1.79658 -25.288 0
-5.86123 -2.1555 -25.4922 0
-5.09104 -2.66483 -25.4749 0
5.7416 -4.08988 -25.3746 0
6.03501 -5.88687 -25.6009 0
3.6887 -6.68786 -25.928 0
3.90487 -6.75674 -25.9402 0
3.67509 -6.84593 -25.8764 0
5.41285 -7.03964 -25.9769 0
3.25504 -7.02527 -25.7607 0
2.82216 -7.04861 -25.8329 0
2.91815 -7.1782 -25.8635 0
2.34461 -7.42755 -25.9481 0
-7.3883 7.57241 -24.9908 0
-7.17624 7.44874 -24.9993 0
5.04376 5.11122 -25.7375 0
8.14962 3.45551 -25.1361 0
8.14962 3.45551 -25.1361 0
0.540604 2.43689 -25.5662 0
7.1155 -1.43891 -25.271 0
6.65999 -1.51974 -25.2063 0
3.93841 -1.66763 -25.276 0
3.55983 -1.73689 -25.2739 0
3.77106 -1.93734 -25.2638 0
3.1676 -1.9834 -25.2957 0
3.71628 -2.14855 -25.3047 0
3.91106 -6.40969 -25.9828 0
5.66319 -6.45104 -25.5516 0
5.03374 -6.4884 -25.8702 0
0.886682 4.12999 -25.8284 0
5.53687 1.17489 -25.1163 0
-5.64483 -0.0620552 -25.5286 0
3.89858 -0.516117 -25.3275 0
6.27303 -1.24256 -25.2437 0
7.87915 -1.7297 -25.2659 0
5.07703 -1.70918 -25.301 0
-4.16959 -2.31791 -25.3574 0
-4.40491 -2.34562 -25.3796 0
8.25324 -2.49714 -25.3611 0
-4.86597 -2.66395 -25.5015 0
2.97409 -3.17646 -25.4505 0
8.09411 -3.80024 -25.4083 0
2.67291 -3.86454 -25.3956 0
0.164949 -3.89427 -25.2321 0
3.13736 -4.04159 -25.3541 0
-4.96376 -4.54178 -25.455 0
-2.84883 -4.82247 -25.4447 0
4.44712 -6.34983 -26.0708 0
4.74808 -6.39898 -26.0981 0
6.26232 -6.99235 -26.3707 0
6.12389 -7.71456 -26.2078 0
-1.13354 3.56023 -25.6757 0
-8.5786 1.93409 -25.5383 0
-5.86377 0.684129 -25.4254 0
3.621 0.118229 -25.0802 0
-0.606167 0.0643763 -25.6006 0
2.68607 -0.204591 -25.1175 0
3.55066 -0.235494 -25.2456 0
4.32112 -1.32796 -25.2783 0
6.45326 -1.70461 -25.2031 0
6.0072 -1.77433 -25.2494 0
-3.89696 -2.50545 -25.2187 0
4.52204 -4.15603 -25.4662 0
3.59973 -4.17302 -25.5083 0
2.69443 -7.40516 -25.9636 0
-1.42553 4.03293 -25.9326 0
-4.98969 2.54897 -25.4873 0
3.86098 -0.850619 -25.2868 0
-4.63621 -2.21821 -25.4062 0
2.46958 -2.27505 -25.5149 0
-1.18457 -3.83357 -25.4253 0
6.27573 -7.60515 -26.2207 0
6.44467 -8.13026 -26.2198 0
0.509189 -0.284941 -25.464 0
1.12766 -0.444012 -25.4787 0
7.25181 -5.44052 -25.464 0
-4.19119 -5.98439 -25.5004 0
7.16174 -7.06792 -26.3323 0
