ply
format ascii 1.0
element vertex 266
property float x
property float y
property float z
property uchar intensity
end_header
2.05161 0.401366 -26.1822 0
1.69876 0.385002 -26.1682 0
-1.54196 -0.0224565 -25.8661 0
-2.33378 -6.6148 -26.008 0
-2.18997 -6.74213 -26.0118 0
-2.57862 3.21046 -25.334 0
6.86622 1.85942 -25.357 0
3.78001 1.32231 -26.0624 0
4.78792 1.0659 -25.3887 0
-1.12414 -0.417717 -26.1365 0
0.1408 -1.90485 -26.1261 0
1.31797 -1.94313 -25.658 0
0.478404 -2.06947 -25.8414 0
-1.86714 -2.15903 -26.079 0
-3.61824 -2.64635 -25.9337 0
-2.15298 -6.70198 -26.0136 0
-2.38197 -6.74688 -26.0098 0
-1.09285 -6.87974 -26.0823 0
-6.559 -7.44708 -26.0728 0
3.3607 -7.8654 -25.8269 0
0.0604644 2.02254 -25.4481 0
0.473382 1.97234 -25.5395 0
4.92747 1.95436 -25.4142 0
5.50655 1.94923 -25.4184 0
5.61885 1.81148 -25.4021 0
2.80786 0.256796 -26.1761 0
2.58287 0.231876 -26.1623 0
-1.39713 -0.101534 -26.0158 0
-0.249718 -2.00634 -26.084 0
5.06462 -2.16873 -25.9087 0
-3.90645 -2.22577 -26.079 0
1.45122 -4.65224 -26.0321 0
1.16411 -4.657 -26.0374 0
1.46089 -4.84443 -26.0341 0
-1.16934 -7.08014 -26.0915 0
3.07731 -7.59012 -25.7982 0
-3.34435 8.35831 -25.4803 0
-8.56597 4.76892 -25.4915 0
-2.42535 2.85452 -25.3349 0
-3.54167 2.75064 -25.305 0
-0.337362 1.97876 -25.2784 0
6.70493 1.9422 -25.3628 0
0.376438 1.92669 -25.5336 0
5.94273 1.87636 -25.4045 0
0.287399 1.86679 -25.5358 0
-0.328209 1.81176 -25.4706 0
-5.28637 1.77443 -25.4166 0
5.26242 1.75595 -25.3923 0
-5.12212 1.74213 -25.3937 0
5.52907 1.68338 -25.3925 0
-6.80843 1.64885 -25.4158 0
0.894554 1.56703 -25.6637 0
3.79793 1.38219 -26.0241 0
3.61616 1.33595 -26.1493 0
3.46321 0.474288 -26.0862 0
-4.96916 0.456193 -25.3685 0
3.85255 0.391263 -26.2294 0
1.74074 -0.1368 -26.1724 0
1.22585 -0.240649 -26.1721 0
-6.97379 -0.64144 -25.4479 0
-7.95175 -0.885585 -25.5346 0
8.21318 -1.34145 -25.5936 0
-0.516432 -1.83304 -26.0978 0
0.534852 -1.84422 -25.7305 0
-0.30831 -1.85302 -26.1297 0
-0.546829 -1.91831 -26.1003 0
0.838547 -1.96766 -25.6507 0
6.0402 -2.21848 -25.8927 0
3.20586 -2.21599 -26.1492 0
1.56657 -2.27712 -26.1343 0
7.43533 -2.3369 -25.5684 0
2.99025 -2.41499 -26.1163 0
3.39006 -2.45864 -26.1114 0
4.02586 -2.51066 -26.0946 0
8.28328 -2.53613 -25.5967 0
8.18386 -2.93955 -25.3827 0
-3.46195 -2.93968 -25.7442 0
-0.997494 -4.09559 -26.2141 0
-1.04823 -4.53984 -26.2147 0
1.58746 -4.59491 -26.0167 0
5.31364 -4.92296 -26.1917 0
2.13372 -4.98851 -26.0349 0
5.49251 -5.19984 -26.1615 0
6.11547 -5.36935 -25.9358 0
4.28784 -5.51818 -26.0637 0
-5.94272 -6.38302 -26.0665 0
-3.24112 -7.03176 -26.0237 0
-4.28939 -7.21782 -26.1002 0
-4.46658 -7.24526 -26.0867 0
-1.1129 -7.6058 -26.0942 0
3.38772 -7.69096 -25.8608 0
-6.06019 8.73682 -25.7782 0
-5.84363 4.84447 -25.0115 0
-3.91985 4.01947 -25.2738 0
-1.50594 3.61177 -25.3391 0
-0.381365 3.13239 -25.1512 0
8.31491 2.24008 -25.5167 0
8.18901 2.18876 -25.5014 0
8.15756 1.62311 -25.4227 0
3.63558 1.56653 -26.0718 0
-0.0408163 1.49582 -25.5426 0
-0.696912 1.43801 -25.5092 0
4.29486 0.226514 -25.4909 0
-5.19447 0.0747234 -25.4383 0
-3.65922 0.0656944 -25.5261 0
1.11807 -0.30739 -26.1726 0
-1.94627 -0.306785 -25.9887 0
8.33141 -1.27201 -25.5957 0
0.0558099 -1.87837 -26.15 0
-7.66756 -1.94836 -25.6621 0
0.348134 -2.0132 -26.0865 0
6.22378 -2.07897 -25.6247 0
-0.721578 -2.05491 -26.0627 0
0.725921 -2.05976 -25.6538 0
-0.300238 -2.11058 -25.9905 0
5.90291 -2.16552 -25.9345 0
0.459226 -2.18938 -25.8988 0
0.840273 -2.22589 -25.656 0
8.30006 -2.35655 -25.5926 0
5.85807 -2.35267 -25.9349 0
2.55337 -2.36629 -26.1051 0
3.28178 -2.47563 -26.1173 0
4.28091 -2.53822 -26.1013 0
7.91879 -2.62465 -25.5783 0
6.23674 -2.74921 -25.9505 0
-1.34821 -3.36031 -25.9971 0
1.70878 -4.60619 -26.0152 0
2.12563 -4.66255 -26.0246 0
5.262 -5.01623 -26.104 0
5.86533 -5.70935 -26.0825 0
4.35691 -5.77502 -26.1018 0
6.15322 -5.82641 -25.9708 0
3.50981 -6.00723 -26.0787 0
-3.28904 -6.76453 -26.0168 0
7.52749 -6.86585 -26.0219 0
-3.84811 -6.86277 -26.0601 0
-4.13014 -6.91115 -26.0959 0
-3.54694 -6.95799 -26.0372 0
-3.74641 -6.98077 -26.0359 0
-4.59395 -6.99483 -26.0805 0
-1.45469 -7.02418 -26.0743 0
-3.43226 -7.06103 -26.0382 0
-3.63534 -7.09214 -26.0429 0
3.08524 -7.36065 -25.7808 0
1.7399 5.09757 -25.1119 0
1.7399 5.09757 -25.1119 0
0.413248 3.9507 -25.2769 0
-1.65076 3.92265 -25.3482 0
-4.26114 3.85837 -25.2508 0
-0.271677 2.30049 -25.2005 0
-3.99884 2.21096 -25.3646 0
7.16051 1.79411 -25.3906 0
-6.7591 -0.918145 -25.6686 0
-7.92322 -0.999036 -25.4986 0
-7.75676 -1.04244 -25.4864 0
0.717377 -1.72662 -25.6695 0
-7.51583 -1.81599 -25.5912 0
4.87446 -2.10131 -25.8767 0
0.647316 -2.19157 -25.6572 0
-7.46033 -2.30619 -26.0598 0
5.99076 -2.37104 -25.9289 0
2.25615 -2.35213 -26.1018 0
3.71479 -2.5003 -26.1251 0
7.80535 -2.55563 -25.5874 0
2.26032 -2.54169 -26.098 0
2.72105 -2.7258 -26.1263 0
7.27912 -2.80649 -25.5937 0
3.33032 -2.79232 -26.1264 0
6.77886 -3.15357 -26.0863 0
7.03042 -3.17285 -26.1173 0
7.6083 -3.22061 -25.7934 0
6.16842 -3.23544 -25.9308 0
4.5164 -3.31576 -26.1051 0
6.26376 -3.39725 -25.9021 0
4.18647 -3.69257 -26.0693 0
7.59877 -4.04525 -25.5556 0
6.13237 -4.14517 -25.9518 0
4.4665 -4.49185 -26.1044 0
4.4665 -4.49185 -26.1044 0
4.44993 -5.25379 -26.0917 0
5.3885 -5.68599 -26.1666 0
6.53522 -6.04714 -25.9847 0
-3.00874 -6.5748 -25.9839 0
-0.967041 -6.5862 -26.0359 0
-1.46308 -6.74252 -26.0083 0
-2.93456 -6.84719 -26.009 0
-3.13344 -6.88338 -26.0147 0
-3.34887 -6.91314 -26.029 0
-4.0951 -7.04438 -26.0823 0
-4.67159 -7.12938 -26.0743 0
-1.40641 -7.86188 -26.1051 0
-0.964434 -7.94154 -26.0993 0
-3.59437 8.39137 -25.4714 0
8.17697 2.31551 -25.5174 0
8.17697 2.31551 -25.5174 0
-2.66918 1.03001 -25.5241 0
6.4016 0.296863 -25.4697 0
1.84557 0.302487 -26.1765 0
7.36279 0.183151 -25.4944 0
7.73461 0.139147 -25.5024 0
1.45568 -1.96206 -26.1225 0
1.08962 -1.93447 -25.6568 0
1.08962 -1.93447 -25.6568 0
-0.497749 -2.08098 -26.0695 0
0.257193 -2.14375 -26.0963 0
3.97936 -2.35849 -26.0939 0
7.18241 -2.49455 -25.5855 0
-4.23111 -2.54203 -26.0594 0
-8.22573 -2.76792 -26.0715 0
4.39493 -2.89367 -26.0835 0
6.23024 -2.91945 -25.9275 0
-5.67013 -3.40209 -26.0879 0
-0.711412 -3.93281 -26.2143 0
-0.604345 -4.29565 -26.2151 0
4.41502 -5.56143 -26.0792 0
6.49142 -5.7197 -25.9322 0
-2.62841 -6.36976 -25.9633 0
1.03351 -6.61676 -26.098 0
-2.51998 -6.63978 -26.0029 0
-2.51998 -6.63978 -26.0029 0
-2.03662 -6.84389 -26.0018 0
-1.16933 -7.31242 -26.0929 0
3.23508 -7.58715 -25.785 0
-3.31315 3.66477 -25.3578 0
-2.68177 2.58992 -25.3568 0
6.48113 2.05161 -25.4444 0
-2.65804 1.45714 -25.3962 0
-7.81988 -0.535635 -25.4591 0
-6.93129 -0.861514 -25.5113 0
-6.56654 -1.14254 -25.6538 0
1.50722 -1.70571 -26.1134 0
3.69584 -2.08401 -26.1018 0
4.62272 -2.27078 -26.0659 0
-7.94033 -2.77547 -26.1039 0
6.36089 -4.11139 -25.9429 0
4.09042 -4.90129 -26.0895 0
4.27966 -5.34143 -26.0863 0
-0.4449 -5.64161 -25.9991 0
6.31312 -5.93381 -25.9761 0
-2.28404 -6.72422 -26.0121 0
-5.06835 -7.14576 -26.1003 0
-1.30018 -8.06476 -26.1054 0
6.93963 1.83261 -25.3567 0
4.85304 -0.525966 -25.5694 0
1.9817 -1.69904 -26.1194 0
-7.28119 -2.12335 -25.9727 0
3.05816 -2.55855 -26.1218 0
3.47892 -2.59266 -26.1283 0
0.965563 -4.43837 -26.0358 0
0.757644 -6.57487 -26.0983 0
3.67137 -7.82768 -25.8273 0
3.97587 -7.9324 -25.8506 0
-2.21014 4.41257 -25.1962 0
-7.46682 -0.91334 -25.4684 0
-4.35789 -7.18679 -26.0976 0
0.919866 -7.26546 -26.0863 0
-0.357116 -7.82796 -26.0976 0
-3.55618 4.09828 -25.3476 0
-0.92549 -0.181416 -26.0939 0
-7.11248 -0.737434 -25.4541 0
-0.963313 -3.27439 -25.9872 0
-0.662912 -4.75387 -26.2162 0
-1.14107 -8.02631 -26.1069 0
-1.49422 0.111272 -25.8919 0
8.03127 -3.76923 -25.6264 0
-7.62105 -4.28058 -26.0958 0
