ply
format ascii 1.0
element vertex 301
property float x
property float y
property float z
property uchar intensity
end_header
3.04211 8.28765 -25.6798 0
-2.58344 6.96523 -25.4925 0
-2.02319 6.66204 -25.4554 0
-2.6052 6.64043 -25.4886 0
6.7851 5.9798 -25.0496 0
0.879786 4.16913 -25.2238 0
-1.78148 4.15963 -25.338 0
1.23283 4.01089 -25.1809 0
-8.70962 3.48282 -25.1208 0
-2.8144 0.0941701 -25.4522 0
3.20159 8.38114 -25.7048 0
1.36371 8.07185 -25.5933 0
-2.12517 7.73767 -25.503 0
-2.21112 7.71508 -25.5001 0
-3.68446 7.21598 -25.5209 0
-0.801347 7.12139 -25.5028 0
-5.05618 7.07557 -25.5125 0
-4.91265 7.03976 -25.5183 0
-2.52637 6.66396 -25.4871 0
-2.60516 6.58089 -25.4865 0
-2.73274 6.3675 -25.6078 0
6.82021 6.09138 -25.0633 0
3.04394 5.55522 -25.0236 0
1.73917 4.84892 -25.0094 0
5.48534 4.30985 -25.1853 0
-1.87063 4.15314 -25.3457 0
0.913635 3.98877 -25.2701 0
0.896997 3.93525 -25.3663 0
-1.10857 3.83006 -25.1264 0
0.94606 3.78142 -25.4472 0
-8.4203 3.15651 -25.0797 0
-2.98137 0.0671213 -25.4529 0
-2.86498 -0.000214268 -25.4214 0
-4.10029 -0.197639 -25.4154 0
-4.58978 -0.330833 -25.4313 0
-7.58127 -1.0264 -25.0261 0
4.18966 -2.14622 -26.1667 0
-0.419475 -4.72995 -26.0925 0
5.24617 -4.89266 -26.1565 0
-1.43867 -5.65573 -25.893 0
4.23517 7.71373 -25.5277 0
-2.91967 7.23483 -25.5126 0
-3.15894 7.16758 -25.5101 0
-1.13206 7.094 -25.5036 0
-3.07347 6.63673 -25.5254 0
-2.96471 6.26264 -25.5641 0
-2.74701 6.12795 -25.6192 0
4.83613 5.90932 -25.0301 0
4.1932 5.43382 -25.0322 0
1.93666 5.38913 -25.012 0
1.73978 4.92207 -25.0025 0
1.72827 4.66539 -25.1035 0
1.30912 4.30899 -25.1682 0
0.786736 4.30562 -25.3391 0
0.992997 4.09835 -25.1845 0
-1.9297 4.00091 -25.3521 0
-2.3747 3.7471 -25.365 0
1.01687 3.72123 -25.4354 0
1.52718 2.57377 -25.331 0
3.96572 2.57545 -25.3038 0
1.16476 2.56597 -25.4792 0
-0.590807 2.42155 -25.337 0
-1.08889 2.34642 -25.3756 0
2.2861 0.0795348 -25.5164 0
-2.77967 0.0400045 -25.4401 0
-3.42641 -0.11975 -25.4373 0
1.93204 -0.166503 -25.5662 0
-4.58789 -0.265885 -25.4289 0
0.435429 -1.6686 -26.0083 0
4.72508 -2.31167 -26.141 0
-0.408067 -4.16484 -26.103 0
-0.53532 -4.30981 -26.0947 0
-2.66317 -8.40249 -26.0863 0
3.26223 7.54097 -25.3623 0
-2.72367 7.25796 -25.5044 0
-2.97713 7.14882 -25.5135 0
-2.51898 6.91286 -25.4873 0
-3.01244 6.8591 -25.5135 0
-2.48888 6.76757 -25.4848 0
-6.43263 6.76895 -25.4529 0
-6.70653 6.7836 -25.4966 0
-8.41684 6.76072 -25.5055 0
-6.49767 6.67846 -25.4616 0
-2.45971 6.61489 -25.4667 0
-6.25603 6.59237 -25.4788 0
8.33278 6.44167 -25.0988 0
-3.01706 6.14918 -25.5498 0
4.43347 5.84656 -25.0099 0
3.44013 5.79564 -25.0316 0
-0.421458 5.48021 -25.0197 0
3.19524 5.16121 -25.0106 0
3.62865 5.12542 -25.0013 0
-7.00342 4.28477 -25.4703 0
-7.78623 4.20911 -25.4231 0
-8.73526 4.10064 -25.1942 0
1.00356 3.90442 -25.3006 0
-7.91709 3.56754 -25.3168 0
-8.55086 3.17273 -25.1292 0
7.66281 3.0824 -25.279 0
5.90592 2.95816 -25.2431 0
3.45022 2.75227 -25.3388 0
3.45022 2.75227 -25.3388 0
5.99143 2.6705 -25.2476 0
0.624035 2.64652 -25.5151 0
4.41523 2.58563 -25.1758 0
0.844841 2.441 -25.5302 0
-8.05559 1.99004 -24.9805 0
-1.88056 1.748 -25.3713 0
4.55916 -0.24585 -26.2191 0
-8.74467 -0.62651 -25.0058 0
-6.57617 -0.837774 -25.1453 0
-6.57617 -0.837774 -25.1453 0
3.66891 -1.93108 -26.2016 0
-1.14684 -1.96848 -25.8286 0
-1.16031 -2.21375 -25.8527 0
-1.21513 -3.71953 -26.111 0
8.37612 -3.90274 -26.088 0
7.96942 -5.31858 -25.9788 0
-8.94625 -7.3133 -26.1801 0
5.00746 8.72755 -25.7466 0
-1.08641 7.36138 -25.5466 0
1.35878 7.11732 -25.6487 0
-2.76655 6.82391 -25.498 0
-6.25069 6.72978 -25.4718 0
-0.669784 6.29749 -25.0889 0
8.21032 6.35717 -25.0771 0
6.9302 6.27523 -25.0812 0
-3.50227 6.21131 -25.5225 0
-0.473638 5.63145 -25.0004 0
3.96478 5.05242 -25.0021 0
1.28024 4.21866 -25.1703 0
1.38903 4.11043 -25.1654 0
-4.75976 4.06048 -25.0159 0
1.24259 3.84625 -25.2516 0
-5.2266 3.67802 -25.3221 0
-3.58941 2.94738 -25.0592 0
4.89577 2.89058 -25.2445 0
4.45322 2.75521 -25.2269 0
1.43094 2.73537 -25.3356 0
1.00878 2.67957 -25.5125 0
1.39174 2.59711 -25.377 0
3.35841 2.51185 -25.3251 0
0.959712 2.45066 -25.5189 0
7.79694 2.46264 -26.2273 0
-0.422142 2.38896 -25.2403 0
6.57629 2.39081 -25.1943 0
0.212135 2.35641 -25.3742 0
-0.294137 2.3239 -25.2128 0
3.29753 2.24202 -25.2929 0
-5.63092 1.1442 -25.461 0
1.69594 0.368843 -25.5381 0
-8.47143 0.379794 -25.4922 0
5.70814 0.332119 -25.4584 0
5.97747 0.0235098 -25.5193 0
-1.71586 -0.0158468 -25.4345 0
-1.93801 -0.197613 -25.4399 0
-5.75259 -0.780748 -25.4549 0
-1.45483 -1.69042 -25.5141 0
-1.50578 -1.95667 -25.6181 0
-1.24816 -2.14605 -25.853 0
-1.04376 -2.87529 -26.0285 0
-1.04376 -2.87529 -26.0285 0
5.82485 -3.39942 -26.1167 0
-0.894386 -3.51674 -26.1541 0
-1.01629 -3.55208 -26.165 0
-0.991166 -4.11793 -26.0985 0
8.38693 -4.25801 -25.8984 0
8.00339 -5.42839 -26.0032 0
7.89458 -5.57986 -26.0301 0
7.76699 -5.71081 -25.9422 0
1.2232 8.49148 -25.655 0
1.14904 8.08086 -25.5657 0
7.99832 8.13023 -25.1842 0
-3.62987 7.7107 -25.5366 0
4.15611 7.51622 -25.3622 0
4.29665 7.38403 -25.172 0
-8.4948 6.96853 -25.5343 0
-6.27954 6.89486 -25.4421 0
-6.39378 6.64966 -25.4626 0
8.03813 6.38839 -25.0679 0
3.79403 5.16262 -25.0023 0
3.64736 5.01154 -25.0004 0
6.41013 5.04187 -25.1659 0
6.41013 5.04187 -25.1659 0
0.990291 4.21266 -25.1932 0
-1.81538 4.06203 -25.3484 0
-8.63651 3.544 -25.1472 0
-3.74753 3.18036 -25.0465 0
-8.49184 3.05455 -25.0476 0
-8.31551 3.03177 -24.9876 0
0.996131 2.57077 -25.5239 0
2.16753 2.51834 -25.3043 0
1.76119 2.49112 -25.2572 0
6.44943 2.24168 -25.1888 0
6.14562 2.23451 -25.2396 0
3.67533 2.13879 -25.151 0
-7.75968 1.71809 -25.0255 0
-5.84835 1.10248 -25.4728 0
-2.82687 0.959416 -25.43 0
7.93573 0.887426 -25.5473 0
5.2239 0.518693 -25.3825 0
-1.2893 0.439648 -25.4379 0
-2.54466 0.360464 -25.4728 0
4.65458 0.142247 -26.1126 0
-3.08373 -0.107708 -25.4193 0
-4.1852 -0.250157 -25.4176 0
-6.71916 -0.943838 -25.0597 0
-1.3724 -1.05186 -25.5422 0
-1.69582 -1.13163 -25.5241 0
-1.52615 -1.82779 -25.5152 0
4.53978 -2.06513 -26.1405 0
-0.827207 -3.1291 -26.1845 0
-0.127717 -3.31803 -26.1418 0
8.22041 -4.36676 -25.9117 0
-1.10588 -4.83329 -26.1488 0
7.77823 -4.98074 -26.0264 0
7.52815 -5.78237 -26.0185 0
4.00272 7.63419 -25.5131 0
8.18955 6.49928 -25.0975 0
8.18955 6.49928 -25.0975 0
3.62471 2.76633 -25.3382 0
6.17403 2.52492 -25.2373 0
4.48621 2.44098 -25.1669 0
6.2663 2.1116 -25.2277 0
-7.00131 2.05403 -25.3704 0
6.37897 1.36191 -25.2871 0
4.56164 0.927908 -25.3541 0
-3.32292 0.456017 -25.4521 0
-3.13901 0.160035 -25.3973 0
-3.13901 0.160035 -25.3973 0
-3.94954 -0.179512 -25.4251 0
6.36233 -0.31465 -25.4503 0
-8.0396 -0.398751 -25.0355 0
-5.5202 -0.56563 -25.4504 0
-1.49089 -0.585433 -25.5037 0
-5.7021 -0.707423 -25.4543 0
3.50922 -1.86817 -26.255 0
5.59506 -3.24635 -26.145 0
6.87036 -3.31676 -26.0439 0
-0.578342 -4.44791 -26.0947 0
7.13252 -5.50221 -26.0968 0
7.22901 -5.6979 -26.1403 0
6.79005 -5.74256 -26.0654 0
6.03203 -8.18865 -26.189 0
0.273106 8.71476 -25.6615 0
0.408625 7.97429 -25.5782 0
-3.86301 7.44644 -25.5238 0
-3.06846 5.09911 -25.3422 0
-2.97535 4.7954 -25.3667 0
-8.04784 2.9664 -24.9658 0
3.40722 2.44812 -25.3246 0
-7.01215 2.30457 -25.3987 0
-2.8923 0.0950005 -25.4448 0
4.47414 0.0511555 -26.0664 0
5.73723 -0.00896844 -25.6325 0
-2.62859 -0.0156531 -25.4424 0
-5.75736 -0.502855 -25.4771 0
1.15861 -1.62687 -26.0131 0
-0.364159 -2.01851 -25.9531 0
8.27119 -4.94117 -25.9738 0
0.238763 -5.60908 -26.299 0
7.1014 -6.16494 -26.1641 0
-8.1476 -6.63982 -26.1792 0
6.93787 6.08588 -25.047 0
-3.44212 4.43827 -25.2338 0
7.0056 3.25614 -25.2602 0
-7.57217 1.91174 -25.0081 0
-8.12159 1.16964 -25.1661 0
-7.43877 0.546747 -25.3927 0
0.982028 0.410048 -25.4202 0
4.23642 -2.05342 -26.1518 0
4.01345 -2.30773 -26.1737 0
7.47325 -3.10985 -25.8318 0
5.43911 -3.76052 -26.1639 0
-0.636274 -5.08448 -26.1524 0
-8.38005 -7.19911 -26.1844 0
-0.196192 7.96071 -25.5477 0
-2.6709 6.95587 -25.4955 0
-8.0145 3.14963 -25.0388 0
5.45926 2.78159 -25.2564 0
-0.703291 -0.894223 -25.5762 0
0.837432 -1.25568 -25.8833 0
3.99364 -2.03022 -26.1878 0
0.041864 -3.17472 -26.1606 0
7.16496 -3.25663 -26.0251 0
6.20692 -4.66084 -26.1527 0
-8.57304 -6.49994 -26.1962 0
6.514 6.34402 -25.0652 0
-2.80015 0.430066 -25.4938 0
-1.61977 -0.741835 -25.4879 0
-1.5158 -1.21335 -25.5604 0
-1.40424 -1.69529 -25.5228 0
-1.1432 -2.92337 -26.04 0
-0.979689 -3.6973 -26.1177 0
-0.979689 -3.6973 -26.1177 0
-1.86968 -4.73882 -26.071 0
-1.04822 -5.14564 -26.1391 0
-1.04822 -5.14564 -26.1391 0
2.28968 -5.71428 -22.3252 0
8.23718 1.92475 -25.2982 0
-8.216 1.86525 -25.0133 0
