ply
format ascii 1.0
element vertex 323
property float x
property float y
property float z
property uchar intensity
end_header
-8.55558 2.02684 -25.4804 0
5.22055 0.824129 -25.1525 0
0.931825 0.694889 -25.1249 0
-2.1534 0.28974 -25.33 0
-2.2474 0.277794 -25.1649 0
-0.147265 -1.53845 -25.2921 0
-4.31833 -2.3034 -25.3429 0
-3.41349 -5.89775 -25.7961 0
-3.31025 -5.95662 -25.8023 0
-4.99243 -6.24797 -25.8343 0
-5.20553 -6.33868 -25.782 0
-2.93985 3.4863 -25.4955 0
-4.87767 2.85225 -25.41 0
4.07696 2.22843 -25.0265 0
6.17511 2.05083 -25.0348 0
1.64717 1.93738 -25.0177 0
2.39515 1.72073 -25.0468 0
2.39515 1.72073 -25.0468 0
2.31177 0.561496 -25.1871 0
0.556438 -1.61056 -25.3043 0
-0.512457 -1.6164 -25.3602 0
-0.307229 -1.70689 -25.2821 0
-1.07131 -3.98406 -25.5015 0
-3.2544 -5.94219 -25.8032 0
-3.47879 -5.99801 -25.8036 0
-3.31314 -6.03507 -25.7957 0
-3.92681 -6.1331 -25.7855 0
-2.214 -6.13014 -25.8538 0
-4.53621 -6.14544 -25.7481 0
-4.53621 -6.14544 -25.7481 0
-6.56793 -6.25811 -25.6974 0
-7.3148 -6.44945 -25.9059 0
-6.3792 -6.46774 -25.6679 0
-7.48672 -6.64904 -25.8326 0
-7.59156 -6.67438 -25.8141 0
-8.84274 -6.87761 -25.8258 0
2.3765 -7.253 -25.4916 0
-1.92565 -8.2004 -25.9823 0
-3.91331 8.54496 -25.2455 0
-3.17947 3.41029 -25.588 0
-4.80625 2.94417 -25.4189 0
-4.29176 2.92378 -25.4717 0
-4.29176 2.92378 -25.4717 0
-0.11005 2.15006 -25.1261 0
4.27536 2.13995 -25.0198 0
4.95125 2.00108 -25.0165 0
-5.87559 1.71859 -25.0573 0
2.09696 0.556682 -25.1734 0
1.77847 0.537194 -25.1722 0
8.03314 0.397702 -25.1691 0
3.66031 0.383529 -25.2446 0
-2.11895 0.171985 -25.5136 0
0.352589 0.0442964 -25.2727 0
7.02435 -0.31084 -25.1776 0
-8.61395 -0.528861 -25.4798 0
-3.95919 -1.02172 -25.3504 0
7.73456 -1.1289 -25.1735 0
7.85682 -1.14251 -25.1756 0
-1.03604 -1.50881 -25.4216 0
-0.215337 -1.51104 -25.3046 0
-0.947002 -1.51632 -25.4237 0
-0.674291 -1.53707 -25.4189 0
-0.50323 -1.55382 -25.3781 0
1.18781 -1.63683 -25.2988 0
-0.993771 -1.666 -25.4283 0
4.20438 -1.78829 -25.2821 0
2.37184 -1.84082 -25.2981 0
7.5724 -2.97148 -25.4126 0
-2.72101 -3.16328 -25.3322 0
-1.36655 -3.72087 -25.5368 0
-0.0159116 -4.0571 -25.4068 0
0.612199 -4.20036 -25.4153 0
0.936105 -4.73964 -25.404 0
5.1614 -4.88321 -25.4231 0
3.38441 -4.99725 -25.3996 0
-4.98689 -6.18572 -25.8255 0
-0.957678 -6.2421 -25.955 0
2.11299 -7.00788 -25.514 0
-1.97219 -8.02317 -25.9676 0
-2.3582 -8.32324 -25.9518 0
-6.761 5.27078 -25.7675 0
-2.84126 3.45716 -25.4879 0
-0.966561 3.31444 -25.3085 0
-3.00583 3.07706 -25.2577 0
-6.5277 2.77189 -25.0014 0
-6.61205 2.50735 -24.9725 0
7.65168 2.42694 -25.3303 0
-6.13393 2.32718 -25.0331 0
-0.91032 2.173 -25.1689 0
6.02413 2.12989 -25.0414 0
-0.313079 2.05996 -25.1564 0
-0.921716 2.00369 -25.1752 0
-5.81793 1.92878 -25.032 0
-7.28725 1.85643 -25.0591 0
3.09228 0.699353 -25.2859 0
0.863409 0.64124 -25.1377 0
1.23977 0.402387 -25.4047 0
0.526865 0.0305858 -25.2846 0
7.72448 -0.0275362 -25.1914 0
0.427226 -0.0339693 -25.2819 0
-8.72744 -0.507887 -25.4959 0
0.0877785 -1.62816 -25.312 0
-0.410839 -1.65367 -25.2988 0
-0.208958 -1.68141 -25.29 0
5.31654 -1.72 -25.2665 0
1.91718 -1.6968 -25.3003 0
5.15356 -1.81992 -25.2548 0
0.768405 -1.88794 -25.2973 0
6.53997 -1.96534 -25.3619 0
2.14629 -2.01877 -25.2668 0
3.13938 -2.1069 -25.2651 0
7.35602 -2.16549 -25.272 0
3.36713 -2.13699 -25.2635 0
3.59165 -2.14489 -25.2904 0
7.26454 -2.52014 -25.2521 0
7.59189 -2.87444 -25.4201 0
-4.62626 -3.03881 -25.2245 0
8.04262 -3.08859 -25.378 0
-2.26018 -3.14085 -25.3701 0
-1.82972 -3.64586 -25.5491 0
4.3497 -3.78103 -25.3401 0
-1.84481 -4.09377 -25.58 0
4.37372 -4.44644 -25.426 0
4.16994 -4.4537 -25.4225 0
1.27574 -4.51858 -25.4082 0
-0.554738 -4.59759 -25.5995 0
4.50506 -4.68109 -25.4489 0
-2.49918 -6.13001 -25.8297 0
-6.95569 -6.58153 -25.8263 0
-6.95569 -6.58153 -25.8263 0
7.51986 -6.57867 -25.4855 0
-0.2202 -6.77219 -25.9682 0
-2.36009 -6.8672 -25.9583 0
2.15497 -6.91828 -25.5181 0
2.41675 -7.09626 -25.4907 0
-2.27119 -7.7605 -25.9651 0
-4.80355 4.39476 -25.4392 0
-0.518927 4.34816 -25.5211 0
-2.39209 3.99933 -25.4987 0
-0.812566 2.6767 -25.0729 0
7.38936 2.40657 -25.2236 0
-5.95093 2.25038 -25.0472 0
0.297316 1.92659 -25.0645 0
-8.49178 1.68979 -25.5294 0
2.83573 1.57208 -25.0688 0
3.39078 0.532653 -25.2661 0
0.792509 0.516565 -25.1536 0
-5.53741 0.265371 -25.2018 0
0.436076 0.175987 -25.2639 0
-8.08682 -0.080739 -25.4489 0
-7.74337 -0.29525 -25.3169 0
7.48477 -0.965771 -25.1602 0
7.35644 -1.02893 -25.1645 0
7.75202 -1.22587 -25.1737 0
-0.0372106 -1.70603 -25.3177 0
-1.46129 -1.70424 -25.4488 0
4.0563 -1.72259 -25.2732 0
4.49408 -1.75552 -25.2894 0
-1.06005 -1.74679 -25.4352 0
-0.314889 -1.81555 -25.2827 0
-8.20384 -1.92598 -25.4173 0
4.00402 -1.93809 -25.2778 0
4.95267 -1.9747 -25.3399 0
7.37809 -2.00398 -25.2842 0
1.71637 -1.97841 -25.2944 0
1.42787 -1.97302 -25.2996 0
5.3247 -2.34075 -25.3422 0
2.32389 -2.37255 -25.3677 0
7.47291 -2.67235 -25.2899 0
5.21864 -2.79103 -25.4074 0
7.90286 -4.16757 -25.3824 0
0.8386 -4.14726 -25.3915 0
4.30314 -4.51367 -25.4358 0
5.15026 -5.29801 -25.4432 0
-1.83055 -5.77217 -25.8752 0
-2.11684 -5.81569 -25.8527 0
-4.37361 -6.00154 -25.742 0
-4.9328 -6.10066 -25.8163 0
-5.19449 -6.1449 -25.8754 0
-4.62534 -6.19469 -25.745 0
-4.31893 -6.26789 -25.7727 0
-2.56308 -6.27382 -25.8304 0
-4.526 -6.30437 -25.7638 0
-4.70526 -6.33248 -25.7702 0
-3.02889 -6.54378 -25.8653 0
7.68229 -6.7527 -25.4845 0
7.68229 -6.7527 -25.4845 0
2.52637 -6.86136 -25.502 0
2.17916 -6.91546 -25.5193 0
-2.47983 -7.08357 -25.9637 0
-2.38138 -7.85162 -25.9662 0
-1.94332 -7.91303 -25.9613 0
-2.38084 -7.98631 -25.9688 0
-2.0958 -8.19724 -25.982 0
-4.13478 8.54148 -25.3976 0
-2.54399 4.32006 -25.505 0
-5.13478 4.2332 -25.4265 0
-0.836785 2.47622 -25.1199 0
7.53342 2.48743 -25.4473 0
-4.62482 2.45135 -25.4858 0
7.49952 2.29462 -25.0251 0
-6.11475 2.21149 -25.0377 0
2.84749 1.81415 -25.0394 0
1.07453 0.595708 -25.157 0
-2.52173 0.0104699 -25.1313 0
-8.71538 -0.618283 -25.4863 0
-8.54045 -0.655884 -25.4287 0
7.59326 -0.861876 -25.1661 0
-8.28664 -1.41573 -25.3859 0
-0.496416 -1.78178 -25.269 0
-0.129134 -1.83509 -25.3451 0
5.10779 -1.98149 -25.2924 0
-2.36255 -1.95399 -25.2489 0
6.89115 -2.15563 -25.2755 0
-8.70426 -2.39801 -25.6745 0
6.35363 -2.40412 -25.2642 0
-5.22908 -2.44766 -25.3071 0
5.14858 -2.64362 -25.3824 0
5.14858 -2.64362 -25.3824 0
6.06429 -2.73277 -25.3806 0
6.63753 -2.78577 -25.3493 0
5.50645 -2.82558 -25.3769 0
3.57126 -2.84474 -25.3828 0
-6.36906 -3.04657 -25.3035 0
6.70706 -3.30525 -25.4264 0
-1.87711 -3.40949 -25.5281 0
5.15996 -3.67277 -25.3827 0
-1.45313 -3.83031 -25.549 0
3.52999 -4.02284 -25.378 0
3.52999 -4.02284 -25.378 0
3.52574 -4.76383 -25.384 0
8.14248 -4.93431 -25.4701 0
4.37392 -5.14828 -25.4584 0
5.50933 -5.50286 -25.4382 0
5.16187 -5.55491 -25.4259 0
-4.09017 -5.81852 -25.6688 0
-2.58116 -5.98385 -25.8353 0
-0.487673 -6.03387 -26.0176 0
-4.03227 -6.08786 -25.7754 0
-4.4253 -6.15177 -25.7668 0
-5.6613 -6.22543 -25.8653 0
-4.83493 -6.22175 -25.8105 0
-5.16271 -6.27507 -25.8115 0
-5.74459 -6.36824 -25.9084 0
-5.74459 -6.36824 -25.9084 0
-2.09302 -7.16253 -25.9473 0
5.78993 2.2232 -25.0658 0
-3.32475 1.72361 -25.464 0
-3.33166 1.29721 -25.2972 0
3.2482 0.698939 -25.3076 0
2.96824 0.698934 -25.2718 0
6.92114 0.415498 -25.1807 0
7.55408 0.175838 -25.1796 0
8.07841 0.0906207 -25.1821 0
0.684871 -1.60643 -25.3006 0
0.324469 -1.5897 -25.3044 0
0.324469 -1.5897 -25.3044 0
-1.25354 -1.72312 -25.4446 0
1.26501 -1.80024 -25.3003 0
3.67146 -1.8696 -25.2762 0
1.44473 -1.9132 -25.3035 0
6.26551 -2.10509 -25.2806 0
-4.9132 -2.1872 -25.3568 0
5.9203 -2.3529 -25.2376 0
5.271 -2.49804 -25.3881 0
5.31512 -2.93188 -25.3959 0
-1.56493 -3.49575 -25.5748 0
-1.45492 -3.64307 -25.5676 0
-1.44705 -4.98931 -25.443 0
7.93655 -5.19979 -25.4885 0
5.51228 -5.19529 -25.438 0
-3.0212 -5.2416 -25.6112 0
-3.72861 -5.5875 -25.6219 0
-3.61747 -5.88937 -25.7667 0
-3.14517 -6.08959 -25.8049 0
0.129946 -6.11462 -25.9851 0
2.26845 -6.99964 -25.5114 0
6.28002 2.03986 -25.018 0
6.58969 0.455149 -25.1703 0
0.421528 0.135984 -25.2662 0
-7.69694 -0.495336 -25.3044 0
-8.28299 -0.685 -25.3672 0
-7.32485 -0.756411 -25.3111 0
2.85396 -1.70694 -25.304 0
2.62619 -2.17017 -25.3247 0
6.60489 -3.55297 -25.4413 0
5.38348 -3.66223 -25.4062 0
3.16359 -4.40851 -25.3911 0
3.3567 -4.84288 -25.3851 0
5.30342 -5.39083 -25.3802 0
-3.38499 -5.96957 -25.8025 0
-6.12558 -6.36461 -25.8137 0
-2.16559 -6.75812 -25.9473 0
-2.40542 -7.29644 -25.9467 0
2.6803 -7.48952 -25.5844 0
-3.31643 2.79969 -25.1547 0
8.20876 0.349474 -25.1007 0
0.490503 -1.33199 -25.3056 0
1.20772 -1.35546 -25.2602 0
-8.01162 -1.73547 -25.3947 0
7.4439 -1.83955 -25.3422 0
2.20078 -2.16527 -25.3081 0
7.81655 -5.63203 -25.5041 0
-0.133983 -6.05574 -25.9987 0
2.96917 -7.31642 -25.4689 0
-5.26963 4.01674 -25.4603 0
4.09611 2.30324 -25.0238 0
8.0741 0.727302 -25.0897 0
7.88195 0.353494 -25.1483 0
-8.2384 -0.54595 -25.3707 0
-4.83969 -6.34388 -25.7792 0
-5.42447 -6.42289 -25.7967 0
0.0236805 -6.7337 -25.9422 0
-2.29258 -6.82946 -25.9574 0
5.86305 2.36667 -25.195 0
-1.64578 0.144768 -25.3736 0
-2.23491 -2.47117 -25.296 0
-1.7767 -2.86707 -25.2763 0
7.03933 -3.29942 -25.4576 0
-2.25926 -7.27057 -25.9648 0
-2.21056 -7.71911 -25.9645 0
1.90611 5.35454 -25.9728 0
-2.21936 0.441177 -25.1627 0
