ply
format ascii 1.0
element vertex 241
property float x
property float y
property float z
property uchar intensity
end_header
-0.554695 1.31319 -25.1813 0
1.12171 -0.768643 -25.2819 0
2.33775 -7.88411 -25.9458 0
-4.08947 8.24156 -25.3191 0
-2.21645 8.07584 -24.9617 0
-4.20721 2.29853 -25.4234 0
-4.19734 2.16784 -25.423 0
-4.0398 2.00445 -25.5022 0
3.34303 1.29085 -25.0646 0
4.55364 0.964702 -25.068 0
8.40099 0.807542 -25.0182 0
-4.12257 0.785227 -25.4398 0
5.56439 0.726231 -25.1042 0
6.16899 0.249204 -25.1527 0
8.24636 -0.169781 -25.0712 0
5.82722 -0.536366 -25.2536 0
1.2613 -0.936508 -25.2826 0
3.84445 -0.989015 -25.2155 0
-5.17994 -1.19009 -25.187 0
2.5207 -2.64976 -25.3103 0
4.02668 -2.75736 -25.2412 0
-0.698224 -3.44536 -25.4599 0
-2.37607 -4.27864 -25.2926 0
3.0028 -5.3319 -25.4028 0
2.15148 -7.9265 -26.0325 0
2.31895 -7.99764 -25.9939 0
2.24548 -8.00888 -26.0177 0
1.04725 -8.10523 -25.9809 0
0.555862 -8.11641 -25.9746 0
-0.950801 -8.42372 -25.9653 0
-1.75079 8.34711 -24.9761 0
-2.50004 2.04406 -25.2434 0
-8.6796 1.7695 -25.5669 0
-0.411239 1.44683 -25.1817 0
-4.18513 1.35252 -25.4672 0
2.06012 1.32035 -25.0183 0
7.0405 1.23408 -25.0041 0
-8.43907 1.20612 -25.473 0
8.19085 1.08699 -24.993 0
6.19031 1.05543 -25.1056 0
-8.64966 0.718498 -25.5225 0
-2.66884 0.630761 -25.3576 0
-2.61891 0.163108 -25.2865 0
5.0594 -0.60275 -25.2485 0
-5.96094 -1.5385 -25.3205 0
2.86347 -2.68534 -25.2883 0
3.5489 -2.76734 -25.244 0
4.42167 -2.87158 -25.2614 0
-0.954383 -3.97394 -25.4467 0
3.749 -5.38033 -25.3904 0
4.16248 -5.56162 -25.3975 0
3.37669 -8.29538 -25.487 0
-1.40091 7.56606 -24.955 0
6.20104 7.28741 -25.0601 0
-4.11735 2.07119 -25.4725 0
-4.01594 1.82746 -25.4998 0
-8.77358 1.83026 -25.5637 0
-2.15604 1.30417 -25.3826 0
-8.4703 1.32766 -25.5123 0
1.65741 1.28794 -25.0396 0
2.89941 1.2189 -25.0564 0
-2.10487 1.20987 -25.4577 0
2.28407 1.16473 -25.0599 0
1.67134 1.11029 -25.082 0
-0.586992 0.0443734 -25.3379 0
-2.491 -0.358277 -25.1542 0
-2.491 -0.358277 -25.1542 0
5.2915 -0.446185 -25.2731 0
-2.1284 -0.863301 -25.0952 0
-2.44065 -0.935662 -25.1073 0
3.49988 -1.05326 -25.227 0
-5.19379 -1.1156 -25.1769 0
-4.02248 -1.42206 -25.3161 0
2.71246 -2.66285 -25.2948 0
2.15236 -2.6893 -25.3145 0
3.94614 -2.7238 -25.2413 0
-4.65492 -2.7975 -25.3568 0
4.69864 -2.80638 -25.2683 0
6.27057 -2.83947 -25.3289 0
3.91719 -2.82096 -25.2226 0
5.08866 -2.84278 -25.2741 0
-2.27155 -2.85141 -25.2842 0
8.25095 -2.98877 -25.3695 0
5.48586 -2.9806 -25.2551 0
-4.49007 -3.10251 -25.3607 0
5.44451 -3.19594 -25.292 0
2.61662 -4.70789 -25.3581 0
2.63914 -5.06359 -25.3811 0
4.57565 -5.49094 -25.436 0
7.50334 -6.51995 -25.4486 0
2.57046 -7.66999 -25.5718 0
3.15448 -8.08789 -25.4954 0
6.0297 8.52639 -25.0422 0
4.28596 8.46641 -25.0161 0
-4.39388 7.69263 -25.1855 0
-1.59725 7.53128 -24.9511 0
-4.82789 7.52204 -24.9658 0
-2.49275 4.15574 -25.8428 0
-5.14547 4.06202 -25.7812 0
-6.90001 3.997 -25.6568 0
-0.510607 3.58971 -25.5897 0
-0.520502 3.33122 -25.6277 0
3.9677 3.22901 -25.6696 0
1.77668 3.20186 -25.6213 0
7.50647 2.93403 -25.6215 0
1.89594 2.87711 -25.5733 0
-4.13139 2.21251 -25.4557 0
1.65566 1.63226 -25.0878 0
-1.87254 1.14799 -25.4983 0
-1.99222 1.1307 -25.4893 0
3.12611 0.960057 -25.1023 0
2.38232 0.846634 -25.0992 0
-6.32685 0.781438 -25.0593 0
6.32572 -0.401109 -25.2477 0
-4.96038 -1.59958 -25.3545 0
3.06889 -2.80233 -25.2426 0
1.97995 -2.83472 -25.2902 0
3.49492 -2.87375 -25.2401 0
2.45884 -2.90075 -25.2984 0
2.45884 -2.90075 -25.2984 0
2.84856 -2.94423 -25.2966 0
3.24503 -2.99294 -25.2979 0
5.36915 -3.0807 -25.2548 0
5.91152 -3.2677 -25.3324 0
7.36224 -3.31191 -25.2753 0
7.44501 -3.43366 -25.3056 0
-0.511558 -3.83331 -25.3462 0
1.7973 -4.45066 -25.322 0
2.71371 -4.51516 -25.3625 0
8.3298 -5.92512 -25.5078 0
3.82563 -7.71102 -25.8144 0
1.24656 -7.93712 -25.9974 0
0.665989 -8.02893 -26.0171 0
1.22973 -8.23517 -26.0047 0
1.03133 -8.2632 -25.9892 0
0.82893 -8.28339 -25.9077 0
-6.11666 8.73256 -25.0202 0
0.0639704 8.07135 -24.96 0
0.762882 8.01812 -24.961 0
1.5802 7.93259 -24.9658 0
-2.38487 7.13459 -24.9592 0
1.21018 4.1532 -25.9105 0
-0.898721 2.85894 -25.4808 0
-4.10378 1.0698 -25.5039 0
6.1266 0.82697 -25.1253 0
6.73294 0.00255631 -25.1271 0
6.88978 -0.435848 -25.1614 0
-1.40327 -0.901964 -25.4706 0
-4.72707 -1.77683 -25.3507 0
-7.41618 -1.98258 -25.3581 0
-4.51579 -2.55682 -25.3565 0
6.16847 -3.03009 -25.3515 0
5.12084 -3.1824 -25.3075 0
2.31775 -3.56933 -25.4001 0
7.42758 -3.93223 -25.3707 0
7.70161 -5.47022 -25.454 0
7.70161 -5.47022 -25.454 0
4.85287 -6.0547 -25.4552 0
7.68639 -6.26406 -25.4799 0
6.8399 -7.05753 -25.5254 0
1.5019 -7.75983 -26.0616 0
3.04651 -7.89104 -25.5011 0
1.55306 -8.04007 -26.0059 0
1.37539 -8.06831 -25.9892 0
2.0113 -8.09138 -25.985 0
1.16236 -8.10004 -25.9942 0
0.945155 -8.13864 -25.9636 0
-0.0874729 -8.1434 -25.9767 0
0.720947 -8.16456 -25.973 0
3.06472 -8.18833 -25.5111 0
-0.192986 -8.29657 -25.978 0
-0.192986 -8.29657 -25.978 0
-0.387062 -8.34096 -26.0012 0
4.14089 8.39433 -25.0167 0
-2.0004 8.3629 -24.9643 0
-4.56955 8.35784 -24.994 0
3.25122 8.22707 -24.971 0
4.01376 7.16887 -25.055 0
-7.27475 3.54686 -25.4246 0
-0.861566 3.10475 -25.5091 0
2.52626 2.37538 -25.5498 0
4.21768 -1.17754 -25.2372 0
-3.78611 -1.66953 -25.353 0
-7.54618 -2.36626 -25.3665 0
-3.64683 -2.6432 -25.4156 0
3.42551 -2.69838 -25.251 0
4.16308 -2.74742 -25.2581 0
3.78635 -2.72942 -25.2462 0
3.78635 -2.72942 -25.2462 0
3.75003 -3.21746 -25.327 0
-5.23555 -3.46651 -25.294 0
-2.94879 -4.12769 -25.3179 0
7.65215 -6.57612 -25.4772 0
2.00371 -7.83225 -26.039 0
2.00371 -7.83225 -26.039 0
2.46546 -8.03672 -25.858 0
5.40698 8.24608 -25.0238 0
-5.20644 7.43519 -25.0952 0
0.023504 2.95245 -25.5802 0
-2.45373 1.69127 -25.3878 0
-2.59584 1.18968 -25.4874 0
-3.99578 -1.60438 -25.3677 0
-4.50239 -1.80256 -25.3586 0
-3.62687 -1.85028 -25.3505 0
6.50163 -2.90849 -25.3134 0
3.64156 -2.91138 -25.2484 0
5.13545 -3.10565 -25.2865 0
-0.787906 -3.44637 -25.4483 0
-4.95903 -3.49389 -25.2802 0
7.59675 -3.80826 -25.3395 0
7.34612 -4.59042 -25.3911 0
7.78293 -4.63184 -25.4363 0
7.29523 -5.86609 -25.4594 0
7.29523 -5.86609 -25.4594 0
7.49846 -6.34437 -25.465 0
1.86121 -7.50377 -26.0123 0
2.23029 -7.92724 -26.0405 0
2.23029 -7.92724 -26.0405 0
-3.60488 2.89157 -25.477 0
4.68663 -2.49385 -25.2593 0
-4.26781 -2.85667 -25.3617 0
5.96876 -3.41988 -25.3715 0
6.41663 -3.4639 -25.3877 0
1.9607 -3.84731 -25.3254 0
3.91899 -5.3223 -25.3895 0
5.74313 7.09648 -25.0357 0
6.47092 -0.0822072 -25.2288 0
7.64789 -3.40081 -25.264 0
-5.36998 -4.73731 -25.3591 0
4.84267 7.95331 -24.994 0
-0.15523 3.38315 -25.5981 0
-1.17137 3.07375 -25.4911 0
1.733 -0.936073 -25.2721 0
-4.18606 -1.42497 -25.2912 0
1.00482 -2.06136 -25.2393 0
-6.40152 -4.84239 -25.4037 0
1.84316 3.44065 -25.5964 0
1.16154 -0.625556 -25.2795 0
-4.8049 -2.84165 -25.3818 0
-5.44454 -4.689 -25.3537 0
-4.61323 -5.0858 -25.3433 0
