ply
format ascii 1.0
element vertex 327
property float x
property float y
property float z
property uchar intensity
end_header
5.80288 6.8721 -25.1176 0
2.13959 5.48477 -25.208 0
0.0220694 5.44568 -25.1793 0
-0.207958 4.66426 -25.2437 0
7.0184 4.61177 -25.1949 0
7.20418 4.30336 -25.2562 0
7.11613 3.63807 -25.293 0
-3.1007 2.66394 -25.4321 0
4.91924 2.56104 -25.4223 0
5.0042 2.4865 -25.4119 0
2.31538 2.46061 -25.4153 0
3.93539 -1.96888 -25.8887 0
0.710185 5.97452 -25.1337 0
0.658551 5.95049 -25.1398 0
-0.117026 5.38333 -25.1855 0
-0.692615 5.3595 -25.2088 0
1.50552 5.11524 -25.2616 0
8.06411 4.74219 -25.1983 0
0.0375172 4.48737 -25.2281 0
-4.01658 4.25956 -25.3278 0
-0.741009 4.14052 -25.1371 0
-3.55811 3.7565 -25.3418 0
6.63048 3.59503 -25.3453 0
-8.50004 3.59453 -25.4839 0
6.33757 3.50107 -25.4247 0
-3.33208 3.44747 -25.4491 0
4.55024 2.72804 -25.4587 0
4.59367 2.52589 -25.4273 0
2.09121 2.50513 -25.4629 0
4.59207 2.45311 -25.4157 0
2.59038 2.16728 -25.3689 0
-7.60223 1.28165 -25.4413 0
-4.09439 1.0751 -25.802 0
3.74903 -2.03421 -25.8848 0
1.75766 -2.58097 -26.0604 0
-0.884183 -3.43801 -25.9696 0
-1.03165 -3.4915 -25.9803 0
-1.03165 -3.4915 -25.9803 0
-1.33867 -3.57525 -25.9937 0
-4.88975 -5.54058 -25.9423 0
1.81438 5.44008 -25.1844 0
-0.471474 5.42694 -25.2345 0
1.7121 5.41148 -25.1788 0
-0.189326 5.34804 -25.1901 0
-0.130423 5.29242 -25.1743 0
7.1498 4.58471 -25.197 0
7.07969 4.54967 -25.197 0
-4.0436 4.36314 -25.3094 0
-0.991497 3.98542 -25.2446 0
7.90205 3.91453 -25.2323 0
7.03245 3.6926 -25.292 0
6.5532 3.58201 -25.3444 0
5.7346 3.44404 -25.3613 0
-3.62145 2.819 -25.3675 0
-1.89473 2.71403 -25.2554 0
-8.1199 2.70895 -25.4189 0
4.04139 2.63274 -25.3656 0
4.65973 2.62985 -25.4465 0
3.88049 2.55938 -25.3938 0
-1.82671 2.46891 -25.4358 0
2.26981 2.35965 -25.4249 0
4.61167 2.29085 -25.4044 0
-3.17453 2.20103 -25.478 0
0.788605 1.95386 -26.2036 0
0.915046 1.81242 -26.1399 0
-7.60931 1.36426 -25.4287 0
-5.14132 0.959246 -25.5829 0
4.22371 0.936091 -25.4653 0
4.06447 0.851892 -25.4669 0
4.0005 -1.96567 -25.8846 0
3.9462 -2.07449 -25.8755 0
5.21962 -2.22625 -25.4893 0
2.5757 -2.34192 -25.9928 0
2.05756 -2.46642 -26.0104 0
-0.695303 -3.38055 -25.965 0
-4.95331 -4.85454 -25.8949 0
-6.82142 -5.50079 -26.0372 0
-4.27737 -5.93293 -26.0034 0
-4.5651 -6.10298 -26.0166 0
5.54609 7.47829 -25.1043 0
-5.67034 7.21508 -25.327 0
6.12839 7.02291 -25.048 0
2.09178 5.39904 -25.2226 0
-0.0201996 5.3481 -25.1807 0
-2.13193 4.79492 -25.4308 0
-2.06882 4.54991 -25.397 0
7.93115 4.17451 -25.3065 0
8.07756 4.00875 -25.3139 0
2.65894 3.61185 -25.246 0
-3.44702 3.61414 -25.3846 0
-3.42078 3.49298 -25.4125 0
6.04148 3.38689 -25.3976 0
4.91318 2.99374 -25.3926 0
-1.0877 2.78622 -25.4986 0
-3.55721 2.54224 -25.3928 0
4.68507 2.43381 -25.4121 0
4.804 2.31621 -25.3994 0
4.70802 2.23408 -25.3974 0
-0.834192 2.18148 -26.0254 0
-7.75317 2.16843 -25.409 0
-1.61972 1.99913 -25.9244 0
-1.29616 1.723 -26.0723 0
-4.26723 1.13004 -25.6726 0
-4.91809 1.04141 -25.5668 0
6.3065 0.971002 -25.4748 0
-3.23794 0.816776 -26.0118 0
-2.92546 0.125777 -26.0929 0
-2.92546 0.125777 -26.0929 0
-3.74562 0.00832874 -26.0946 0
-3.6121 -0.0984997 -26.0823 0
-0.59206 -3.34871 -25.9737 0
5.81586 -4.14377 -25.8067 0
5.49898 -4.449 -25.8089 0
5.44183 -4.53834 -25.8201 0
-3.95889 -5.13195 -25.9475 0
-5.89426 -5.23899 -26.0083 0
6.0656 -5.44905 -25.7777 0
-4.42454 -5.48765 -25.9518 0
6.18504 -5.51963 -25.7788 0
-4.34011 -5.56788 -25.9542 0
5.84797 -6.06508 -25.9823 0
5.84797 -6.06508 -25.9823 0
6.09513 -6.50628 -26.0184 0
5.95954 -6.55012 -26.0261 0
6.29623 -7.11697 -26.0478 0
3.9926 8.51599 -25.0597 0
1.71117 7.89876 -25.0287 0
-1.36648 7.87554 -24.9526 0
1.91448 7.53442 -25.0329 0
5.33603 7.43039 -25.0677 0
5.33603 7.43039 -25.0677 0
7.83849 7.47157 -25.0849 0
-5.41979 7.31293 -25.5032 0
5.76913 7.23884 -25.3127 0
-7.2306 6.67615 -24.9809 0
1.80702 5.55797 -25.1727 0
-1.8714 4.81382 -25.4577 0
2.30125 4.75216 -25.1818 0
7.44557 3.82639 -25.3033 0
-6.12111 3.64291 -25.3591 0
5.6811 3.53789 -25.3204 0
5.84239 3.28647 -25.3966 0
-3.77056 3.23746 -25.3889 0
4.9539 2.78265 -25.4531 0
5.15618 2.44525 -25.4066 0
4.9333 2.39511 -25.4045 0
-0.945859 2.27279 -25.96 0
-3.22727 2.04217 -25.4861 0
-3.6043 1.51217 -25.6013 0
-4.4753 1.40684 -25.4907 0
7.81664 1.41434 -25.4717 0
-4.65814 1.29167 -25.503 0
5.2263 1.17129 -25.4328 0
4.73631 1.11487 -25.4649 0
4.86036 1.01241 -25.459 0
3.86402 1.01031 -25.4623 0
3.92655 0.742694 -25.4698 0
4.87915 -2.04226 -25.4821 0
4.83595 -2.22125 -25.7236 0
2.84016 -2.47672 -25.9861 0
2.62951 -2.54301 -26.0269 0
4.3577 -2.60858 -25.8415 0
5.29539 -2.79611 -25.6706 0
1.71558 -2.82829 -26.0772 0
1.52955 -2.88288 -26.0951 0
5.46442 -3.86971 -25.8122 0
5.124 -5.08464 -25.8466 0
5.97968 -5.12969 -25.7905 0
5.97968 -5.12969 -25.7905 0
-6.49986 -5.55018 -26.0144 0
-4.0172 -5.54796 -25.9531 0
-4.98715 -5.64622 -25.9444 0
-6.83624 -6.08689 -26.0414 0
-6.83624 -6.08689 -26.0414 0
5.79718 -6.18214 -25.9878 0
6.35779 -6.41972 -25.9756 0
-8.41433 -6.56847 -26.0914 0
6.44634 -6.53373 -26.0051 0
-6.34862 -6.60578 -26.0229 0
-6.6947 -7.11859 -26.0359 0
-4.83128 -7.70734 -25.9061 0
-6.24309 -8.37282 -26.0525 0
-2.9008 8.02559 -25.4534 0
-1.05635 7.24636 -24.9923 0
4.43742 7.2277 -25.0927 0
4.43742 7.2277 -25.0927 0
3.96381 6.95681 -25.1703 0
0.135385 6.69818 -25.0342 0
3.91767 6.51313 -25.1947 0
3.91767 6.51313 -25.1947 0
7.91491 6.42527 -25.2441 0
-0.652994 5.82345 -25.1367 0
1.81534 5.70493 -25.1717 0
-1.69704 4.7557 -25.4073 0
2.40579 3.74787 -25.1451 0
5.68414 2.2155 -25.392 0
0.109399 1.64852 -26.1719 0
-0.378599 1.43182 -26.1476 0
6.3123 1.34982 -25.4795 0
5.61162 1.09854 -25.4631 0
0.716046 1.05307 -26.1396 0
5.21002 1.04189 -25.4622 0
5.21002 1.04189 -25.4622 0
-3.8941 0.963663 -25.8388 0
5.30206 0.902412 -25.4871 0
5.11532 0.890644 -25.4855 0
2.77739 0.22465 -25.6085 0
4.00848 -0.963395 -25.6555 0
5.25994 -1.61968 -25.5881 0
4.17975 -1.68772 -25.964 0
4.72977 -1.8816 -25.5126 0
0.586791 -2.10828 -26.086 0
2.75809 -2.17325 -26.0283 0
3.13955 -2.21609 -25.8038 0
2.70843 -2.35405 -25.9828 0
2.15419 -2.35844 -25.9991 0
2.49902 -2.43278 -26.0516 0
1.86629 -2.44373 -26.0491 0
2.28057 -2.48293 -26.0201 0
-5.77686 -2.48463 -25.582 0
2.42014 -2.60735 -26.1132 0
1.92213 -2.59364 -26.0489 0
1.36307 -2.60643 -26.0892 0
1.28833 -2.76795 -26.0767 0
1.28833 -2.76795 -26.0767 0
5.54947 -3.16724 -26.0647 0
5.20628 -3.66327 -25.8937 0
5.33619 -4.17144 -25.814 0
-3.24087 -4.37877 -25.0995 0
-8.69208 -4.7077 -26.0568 0
-3.43 -5.33303 -25.9534 0
-4.92324 -5.38931 -25.9263 0
-4.76179 -5.45148 -25.9394 0
6.18688 -5.82752 -25.8484 0
6.02843 -5.88589 -25.8984 0
-4.93067 -5.98204 -25.941 0
6.01085 -6.05999 -25.9721 0
6.6564 -6.4482 -25.9694 0
7.42852 -6.54378 -25.9875 0
6.77206 -7.06544 -25.9308 0
-6.76682 -7.25242 -26.0209 0
-3.90526 -8.18849 -25.9361 0
-3.90526 -8.18849 -25.9361 0
5.89856 7.40868 -25.223 0
-5.70502 7.17411 -25.2832 0
-0.907841 6.80813 -25.0267 0
3.13331 6.33774 -25.1764 0
-0.842474 5.57047 -25.1757 0
7.48514 3.70116 -25.3116 0
-8.47153 3.06709 -25.4522 0
5.49091 2.27818 -25.3896 0
8.01958 1.421 -25.4705 0
7.14424 1.10486 -25.4511 0
6.6209 1.07426 -25.4465 0
6.18065 1.02433 -25.4786 0
5.19522 0.735265 -25.5357 0
-0.830976 -0.854172 -25.8438 0
3.87005 -1.01891 -25.6396 0
6.7922 -1.70932 -25.6126 0
3.58283 -1.93455 -25.8934 0
3.58283 -1.93455 -25.8934 0
2.99996 -1.92681 -25.7946 0
5.34782 -2.64462 -25.3924 0
5.05944 -3.16287 -26.1141 0
6.42641 -3.47406 -25.7943 0
5.18706 -3.67001 -25.8905 0
6.67095 -4.49854 -25.8016 0
-3.29525 -4.79759 -25.9574 0
-3.29525 -4.79759 -25.9574 0
-5.37613 -5.32331 -25.9752 0
5.92244 -5.73942 -25.858 0
5.92244 -5.73942 -25.858 0
-6.50833 -6.60935 -26.0098 0
-6.85469 -7.0096 -26.0598 0
-6.68762 -7.40563 -26.0256 0
-4.31798 1.49524 -25.4912 0
6.0293 1.37525 -25.46 0
-3.64557 0.930035 -25.8867 0
-2.59704 0.261277 -26.0951 0
-4.05728 -0.993216 -26.0115 0
-1.61126 -1.05865 -25.1423 0
3.37491 -1.58368 -25.9093 0
3.85116 -1.98589 -25.8893 0
4.13993 -2.09185 -25.8419 0
5.16352 -2.48447 -25.4265 0
-3.46676 -4.08291 -25.0876 0
-2.91826 -4.54561 -25.6657 0
5.73158 -5.35387 -25.8017 0
-3.11528 -5.47402 -25.9858 0
5.96794 -5.68923 -25.8138 0
-7.12346 -6.74969 -26.0758 0
6.55611 -6.86113 -26.0968 0
-8.09705 7.39409 -25.3439 0
-0.0271502 7.16995 -25.0183 0
-8.30016 7.08783 -25.3207 0
-3.75694 6.13834 -25.084 0
-7.03847 5.63099 -25.0572 0
5.25064 2.82306 -25.4455 0
-3.71828 -0.921064 -26.0153 0
-7.87173 -2.71843 -26.0654 0
0.86332 -2.8353 -26.044 0
5.20381 -3.39908 -26.07 0
7.06826 -5.48623 -25.5929 0
3.64973 3.73172 -25.3032 0
5.47443 1.38429 -25.4534 0
-3.6207 1.09556 -25.8938 0
-3.19943 -0.13861 -26.0743 0
-5.17309 -2.04749 -25.6984 0
2.55259 6.31412 -25.1727 0
-2.09101 2.64356 -25.3075 0
3.93208 -1.63136 -25.9562 0
1.63967 -2.81755 -26.0936 0
5.37218 -3.33878 -26.0707 0
5.49032 -3.85826 -25.8119 0
-3.02805 -4.16474 -25.073 0
-3.15413 -5.07974 -25.9679 0
5.82528 -5.17082 -25.7884 0
-4.33765 -5.18612 -25.9407 0
-2.93033 -5.81728 -26.0123 0
6.07507 -7.67043 -26.0664 0
6.07507 -7.67043 -26.0664 0
-1.3005 7.0327 -25.0027 0
6.42322 4.90255 -25.1896 0
6.27742 -2.85646 -25.5632 0
-3.72485 -5.34348 -25.9585 0
-3.30022 -6.78019 -26.0112 0
-6.62856 -6.81179 -26.0978 0
