ply
format ascii 1.0
element vertex 268
property float x
property float y
property float z
property uchar intensity
end_header
-8.67464 2.41375 -25.4524 0
-4.74207 1.96617 -25.4975 0
1.1635 0.164408 -25.4013 0
1.97823 -6.65453 -25.7548 0
-3.08267 -7.38388 -26.2027 0
-3.72944 -7.49427 -26.2272 0
-3.72944 -7.49427 -26.2272 0
-4.07796 3.19937 -25.4826 0
-8.58762 2.91695 -25.1379 0
-8.66466 2.26451 -25.6137 0
3.53013 2.1102 -25.1659 0
2.95156 1.8366 -25.5334 0
5.86829 1.61391 -25.299 0
5.86829 1.61391 -25.299 0
5.70478 1.61607 -25.3014 0
-8.71612 1.49179 -25.2432 0
6.30626 1.14913 -25.3026 0
3.97211 -0.120972 -25.6157 0
-5.22433 -0.167186 -25.5004 0
-5.15077 -0.400625 -25.4769 0
-5.97572 -0.497693 -25.1156 0
3.7086 -1.8028 -25.7238 0
2.98278 -1.83083 -25.6053 0
1.73579 -1.89185 -25.8107 0
3.25341 -1.94761 -25.6861 0
-0.683108 -2.50142 -25.6691 0
2.95621 -4.38818 -26.1971 0
1.80263 -6.66415 -25.7347 0
1.96661 -6.75578 -25.745 0
1.90395 -6.74489 -25.7357 0
0.703384 -6.85176 -26.1486 0
0.703384 -6.85176 -26.1486 0
0.214949 -6.86851 -26.1861 0
-1.76644 -7.22073 -26.1926 0
-4.54443 -7.62193 -26.2458 0
-6.14904 -7.73153 -26.2138 0
-4.05872 2.38306 -25.4833 0
-4.0498 2.29634 -25.4783 0
-0.425901 2.14604 -25.4214 0
-2.38292 2.12111 -25.4522 0
2.65695 2.0893 -25.3377 0
7.26015 2.04767 -25.2415 0
6.3981 1.8733 -25.3209 0
-3.98301 1.62541 -25.4845 0
-8.50902 1.59239 -25.677 0
-2.62059 1.18262 -25.4765 0
6.88323 0.530816 -25.4037 0
5.66217 0.385001 -25.4786 0
5.54443 0.39184 -25.4913 0
5.14468 0.319323 -25.5072 0
3.64578 -0.00136953 -25.6657 0
3.5467 -0.0986853 -25.6791 0
-5.22545 -0.102379 -25.5027 0
1.56111 -0.231331 -25.369 0
-5.79294 -0.441957 -25.4497 0
2.9319 -1.75966 -25.6311 0
-0.996787 -1.99155 -25.7666 0
6.92759 -2.15576 -26.2257 0
3.78103 -4.44784 -26.1811 0
4.49964 -4.83587 -26.3579 0
6.54695 -7.55816 -26.0915 0
6.54925 -7.74821 -26.1221 0
6.86212 -8.05652 -26.2069 0
-6.31284 -8.2141 -26.1692 0
-8.53658 -8.44988 -26.3621 0
-1.20247 8.54193 -25.5673 0
1.93584 8.32098 -25.6322 0
-2.19434 2.37224 -25.3041 0
-2.18064 2.27823 -25.4416 0
1.83759 2.11963 -25.3857 0
2.55502 2.05511 -25.3677 0
3.09139 2.05004 -25.4678 0
-4.28489 2.02143 -25.4819 0
2.47283 1.98832 -25.3559 0
1.84642 1.94247 -25.3808 0
3.50101 1.74779 -25.4657 0
-1.77976 1.60323 -25.4953 0
-4.0712 1.55195 -25.4868 0
6.41404 1.53001 -25.2728 0
6.21486 1.49682 -25.2738 0
-1.79387 0.757075 -25.4933 0
5.37352 0.472169 -25.4904 0
3.63569 -0.181585 -25.7144 0
-5.01792 -0.590898 -25.4951 0
-4.18185 -0.965867 -25.5267 0
-4.79364 -1.02963 -25.5132 0
-3.40812 -1.37965 -25.5321 0
2.74936 -1.74017 -25.6751 0
2.18674 -1.76433 -25.7678 0
3.605 -1.85696 -25.7344 0
4.78106 -1.90733 -26.0688 0
3.98641 -1.90938 -25.9363 0
7.93417 -2.0577 -26.2481 0
5.57812 -2.07573 -26.0677 0
6.11769 -2.14344 -26.1728 0
5.51152 -2.28501 -26.0547 0
5.51152 -2.28501 -26.0547 0
5.97552 -2.34258 -26.0953 0
6.61655 -2.41586 -26.2301 0
2.58145 -4.11482 -26.2255 0
5.24504 -4.99939 -26.2349 0
2.02284 -6.81039 -25.745 0
2.83711 -6.88248 -25.8277 0
-1.79513 -7.232 -26.1908 0
-1.79513 -7.232 -26.1908 0
6.58829 -7.64779 -26.1143 0
6.58829 -7.64779 -26.1143 0
6.8999 -7.86448 -26.1163 0
-4.96507 -7.89632 -26.2228 0
-4.96507 -7.89632 -26.2228 0
-7.59462 -8.31174 -26.2617 0
-7.59462 -8.31174 -26.2617 0
-5.36531 -8.37658 -26.2251 0
-8.20872 -8.4852 -26.3364 0
-5.75255 -8.43355 -26.2284 0
-2.57653 5.24333 -25.0366 0
-5.38901 5.17552 -25.5106 0
-0.601228 4.70069 -25.381 0
3.89186 4.31953 -25.0118 0
1.70572 4.29768 -25.3681 0
1.83318 3.97674 -25.438 0
1.83781 2.43537 -25.2771 0
2.55855 1.87321 -25.3857 0
-8.60608 1.66344 -25.7899 0
-2.10999 1.20196 -25.4614 0
6.83167 0.919617 -25.3371 0
6.92955 0.818865 -25.3641 0
-0.603046 0.542327 -25.433 0
6.44838 0.517745 -25.4091 0
-1.26146 -0.0233745 -25.4073 0
-4.07182 -0.383652 -25.5227 0
-4.70121 -1.74797 -25.5287 0
3.11028 -1.88388 -25.6438 0
2.01778 -1.90629 -25.8123 0
6.38935 -1.94299 -26.1964 0
2.49142 -1.96466 -25.7336 0
2.49142 -1.96466 -25.7336 0
2.87358 -2.0057 -25.6347 0
3.27954 -2.06621 -25.7831 0
-4.52032 -2.0588 -25.5354 0
7.47674 -2.41109 -26.2655 0
7.54662 -2.52874 -26.2514 0
-1.88631 -2.61032 -25.5384 0
1.4487 -3.236 -26.081 0
2.25176 -6.44269 -25.7984 0
0.690748 -7.01789 -26.1384 0
2.75335 -7.01171 -25.8308 0
-0.994648 -7.25672 -26.1745 0
3.06408 -7.63806 -25.9985 0
2.84665 -7.88257 -26.0225 0
-1.43871 8.52448 -25.5825 0
1.10813 5.27145 -25.3329 0
-0.980401 4.24645 -25.3779 0
5.64868 4.01734 -25.0368 0
6.25708 1.7068 -25.2925 0
7.01182 0.463038 -25.401 0
4.26446 0.341254 -25.4997 0
-1.39181 0.203373 -25.4301 0
4.52115 -0.669358 -25.6328 0
-4.78998 -0.754571 -25.4908 0
3.47878 -2.08436 -25.8634 0
5.43524 -2.16539 -26.0662 0
5.19108 -2.27337 -26.0772 0
7.4944 -3.0183 -26.2301 0
7.78749 -3.31419 -26.1937 0
7.62925 -5.62011 -26.1571 0
2.35678 -5.74273 -26.3062 0
3.50321 -6.49146 -25.8377 0
1.17074 -6.50685 -26.0827 0
0.894771 -6.69246 -26.1422 0
2.73524 -6.68992 -25.8269 0
0.313249 -6.77648 -26.1783 0
1.22199 -6.78864 -26.0499 0
1.69051 -6.85287 -26.1167 0
0.823673 -6.85207 -26.1453 0
0.606526 -6.89387 -26.1418 0
-0.442396 -6.88739 -26.1946 0
0.38247 -6.91798 -26.1669 0
0.0579182 -6.96084 -26.1712 0
-0.314315 -7.02008 -26.1984 0
-0.542612 -7.03734 -26.1541 0
-0.542612 -7.03734 -26.1541 0
-0.738536 -7.07376 -26.1478 0
7.02429 -7.59965 -26.1179 0
3.21234 -7.96629 -25.9238 0
-6.46942 -8.24414 -26.2103 0
0.867943 4.79598 -25.1319 0
-7.33965 4.63585 -24.9678 0
4.57403 0.450013 -25.5134 0
4.32227 -0.30825 -25.6192 0
-3.8301 -0.641558 -25.5031 0
-3.69567 -1.63236 -25.51 0
3.48118 -1.78282 -25.6992 0
3.85473 -1.82208 -25.7816 0
3.85473 -1.82208 -25.7816 0
2.28162 -1.94184 -25.7798 0
3.07534 -2.0269 -25.6807 0
3.78587 -2.28256 -25.9307 0
-5.28602 -2.47032 -25.6152 0
7.39213 -3.67653 -26.1434 0
-7.26231 -4.16525 -26.124 0
7.74912 -4.52466 -26.1616 0
7.74912 -4.52466 -26.1616 0
7.72081 -5.33348 -26.1525 0
0.533592 -5.89838 -26.1537 0
-0.573273 -6.0357 -26.2369 0
1.66807 -6.57146 -26.0228 0
1.66807 -6.57146 -26.0228 0
2.13549 -6.78581 -25.7598 0
3.15553 -7.50112 -25.956 0
-5.15539 -7.57264 -26.2332 0
6.72866 -7.76077 -26.1165 0
-4.73866 -8.0597 -26.2314 0
7.86897 -8.23946 -26.274 0
-5.09558 -8.24326 -26.1744 0
-5.09558 -8.24326 -26.1744 0
-0.0593392 4.04962 -25.362 0
-3.66738 3.92789 -25.0895 0
-2.52157 2.78515 -25.3488 0
-4.28442 -0.0167499 -25.4714 0
-4.17233 -0.240285 -25.5083 0
-4.04304 -0.590876 -25.5158 0
-3.66221 -0.850108 -25.5164 0
4.71762 -1.62052 -25.9872 0
-1.43123 -1.70741 -25.6069 0
4.23922 -1.84589 -25.9953 0
6.61788 -2.01828 -26.1949 0
5.19601 -2.22012 -26.0679 0
-5.01263 -2.48172 -25.6166 0
7.66493 -2.90776 -26.2312 0
-2.95467 -3.16518 -25.723 0
7.82371 -3.71504 -26.2098 0
7.31279 -4.95452 -26.1537 0
7.31279 -4.95452 -26.1537 0
7.51576 -5.41852 -26.1593 0
2.39619 -5.91908 -26.2755 0
1.54985 -6.29351 -26.0577 0
1.89595 -6.64749 -25.7496 0
1.89595 -6.64749 -25.7496 0
-0.937957 -7.0129 -26.171 0
7.14926 -8.28756 -26.2399 0
-0.888212 4.26529 -25.3652 0
-6.96956 4.16181 -24.9613 0
-4.31815 -1.83959 -25.5315 0
7.74021 -2.52179 -26.229 0
6.04124 -2.49751 -26.0755 0
6.49458 -2.55078 -26.1639 0
1.9346 -2.91499 -26.0004 0
3.94408 -4.39166 -26.1836 0
7.57882 -8.16059 -26.2717 0
-7.43832 -8.16079 -26.2829 0
6.57728 0.829332 -25.3659 0
-4.88438 -0.290729 -25.4742 0
-6.55964 -3.82251 -26.1722 0
0.388555 -7.03996 -26.1769 0
-4.78782 -7.72778 -26.2431 0
-0.24087 4.48625 -25.3431 0
-1.22367 4.09812 -25.412 0
1.7932 0.00454617 -25.4414 0
-4.22312 -0.427263 -25.5082 0
1.0927 -1.16077 -25.5723 0
7.75121 -2.47406 -26.2329 0
7.57925 -3.96222 -26.0926 0
3.89551 -7.80769 -25.6047 0
3.04864 -8.10412 -26.0768 0
1.77042 4.52605 -25.1917 0
1.20709 0.306899 -25.4321 0
-4.66891 -4.01314 -25.6964 0
