ply
format ascii 1.0
element vertex 313
property float x
property float y
property float z
property uchar intensity
end_header
4.19679 6.87085 -25.6491 0
-8.4312 5.38115 -25.0626 0
0.574326 4.30372 -25.151 0
4.10303 4.15538 -24.9951 0
-2.95789 3.77402 -25.0687 0
3.23582 2.78453 -25.0473 0
-0.00273345 2.74586 -25.3059 0
-7.4702 6.13406 -25.3838 0
-7.14945 5.89017 -25.4431 0
1.37932 5.64578 -25.5463 0
-7.34449 5.44197 -25.423 0
-2.82754 5.28195 -25.4148 0
0.602189 5.01359 -25.3725 0
-3.28749 4.91803 -25.3677 0
-3.26367 4.77832 -25.1879 0
-2.41934 4.4302 -25.2612 0
-2.75022 4.40725 -25.0638 0
-2.67931 4.35161 -25.128 0
7.99072 4.3752 -25.027 0
-7.94636 4.28441 -24.9952 0
3.13771 4.20942 -24.9917 0
-0.856269 4.2244 -25.5339 0
-2.4631 4.15588 -25.2255 0
-2.68713 4.0641 -25.0822 0
-7.98945 3.78696 -25.0472 0
-7.54031 3.4251 -25.0078 0
-7.54551 3.28566 -25.0154 0
3.12956 2.77633 -25.061 0
5.19503 2.556 -25.0647 0
5.63828 2.41676 -25.0595 0
3.5898 0.754289 -25.2977 0
7.44472 -2.79752 -25.3494 0
7.26001 -2.82949 -25.3647 0
5.51358 -3.16388 -25.4026 0
3.92452 -3.57471 -25.6954 0
2.41327 -3.94164 -25.8819 0
1.31722 -4.10228 -25.7517 0
-5.07252 -5.7772 -25.6797 0
-7.51411 -8.37476 -26.2403 0
7.06282 7.13588 -25.7312 0
-3.62073 5.97942 -25.4747 0
-2.42689 5.14676 -25.4194 0
-2.39996 4.96205 -25.3932 0
-0.65498 4.39726 -25.5573 0
4.6928 4.32589 -25.0153 0
3.57937 4.24924 -24.9879 0
-0.63095 4.25119 -25.5486 0
-2.95496 4.16059 -25.0902 0
-3.19251 3.95231 -25.0587 0
-2.88676 3.76438 -25.0467 0
-2.70068 3.64053 -25.0648 0
-7.93721 3.61736 -25.0033 0
-7.5741 3.53712 -25.0088 0
-0.964307 3.3915 -25.5374 0
7.84957 3.36086 -25.0313 0
-7.39729 3.35462 -25.0152 0
5.27714 2.53709 -25.0707 0
-0.30382 2.44783 -25.3286 0
5.17564 2.40284 -25.0559 0
-6.70384 -2.48944 -25.4713 0
7.45798 -2.88697 -25.3636 0
6.06245 -3.11722 -25.441 0
2.20762 -3.93221 -25.7408 0
1.67836 -4.0268 -25.7885 0
0.453727 -4.29362 -25.7608 0
-1.43228 -5.09484 -25.8473 0
-3.76156 -5.41022 -25.6251 0
-5.87084 -5.62519 -25.6921 0
-2.34117 -5.87035 -26.1216 0
-4.20966 -5.90433 -25.8541 0
-6.11579 -5.97178 -25.6312 0
-1.18735 -7.69771 -26.1662 0
-1.32957 -7.9352 -26.0036 0
-7.98723 -8.11659 -26.218 0
-2.69763 -8.01984 -26.1546 0
-7.46055 -8.42581 -26.2586 0
-2.09756 -8.50063 -26.0484 0
2.05089 8.16862 -25.7611 0
2.05089 8.16862 -25.7611 0
2.06138 8.04997 -25.836 0
6.51003 7.15181 -25.7897 0
1.56467 5.6569 -25.5338 0
-2.79768 5.65031 -25.4994 0
-7.28876 5.56316 -25.4487 0
-2.69961 5.13394 -25.4136 0
-2.58048 4.76805 -25.3679 0
-3.16351 4.66994 -25.0638 0
-2.58595 4.64247 -25.2861 0
-2.97563 4.34785 -25.0574 0
-2.97563 4.34785 -25.0574 0
4.98671 4.339 -25.037 0
5.17744 4.32093 -25.0267 0
-2.15095 4.04722 -25.2395 0
3.24718 4.01879 -24.9929 0
-2.61147 3.70302 -25.1303 0
-0.00426486 3.35502 -25.5366 0
-3.08602 3.32498 -25.0409 0
6.96501 3.13259 -25.0199 0
-0.604344 3.02771 -25.5042 0
3.48917 2.71014 -25.0612 0
-0.151996 2.52019 -25.3377 0
5.75935 2.48867 -25.0666 0
5.26714 2.32691 -25.0609 0
2.46262 2.28156 -25.1987 0
-2.51914 1.46046 -25.2215 0
-1.09059 1.169 -25.382 0
7.07525 1.02326 -25.2295 0
6.25293 0.950663 -25.2366 0
5.33735 0.85958 -25.2432 0
8.07027 0.688415 -25.2735 0
3.42052 -3.69984 -25.9887 0
3.42052 -3.69984 -25.9887 0
0.019752 -4.62847 -25.8364 0
0.019752 -4.62847 -25.8364 0
-0.883557 -5.2173 -25.8883 0
-0.813096 -5.28193 -25.9033 0
-5.50956 -5.67199 -25.7163 0
-6.95412 -5.87266 -26.1854 0
-6.76592 -6.02107 -26.1115 0
-4.47406 -6.13208 -26.1507 0
-7.97186 -6.87964 -26.1629 0
-7.97186 -6.87964 -26.1629 0
-4.1568 -6.85035 -26.1389 0
-3.83139 -7.09906 -26.1403 0
-8.21925 -7.27386 -26.2206 0
-8.21925 -7.27386 -26.2206 0
-1.26629 -7.68319 -26.1165 0
-3.57982 -7.6992 -26.122 0
-7.68418 -7.78376 -26.2034 0
-7.73157 -8.01624 -26.2224 0
1.36605 8.55897 -26.0927 0
-5.22775 8.11649 -26.0219 0
8.41398 7.41571 -25.6907 0
-4.06066 6.67412 -25.4768 0
-7.2902 6.12505 -25.4455 0
-6.90518 5.96077 -25.4652 0
-7.31251 5.7807 -25.4406 0
0.223564 5.49791 -25.4735 0
-2.54689 5.19891 -25.406 0
-2.57053 5.02639 -25.3854 0
-2.37447 4.59457 -25.3164 0
-3.05153 4.43533 -25.0683 0
-2.57558 4.33241 -25.2452 0
2.15579 3.40328 -25.2318 0
1.34846 3.39668 -25.2448 0
5.50676 2.46083 -25.0505 0
5.37431 2.39915 -25.0545 0
-3.21256 2.28064 -25.0539 0
6.53012 2.25237 -25.2453 0
1.99615 2.11716 -25.5015 0
-3.56777 1.88178 -25.2351 0
-2.53486 1.73895 -25.2949 0
4.69823 0.957489 -25.277 0
-2.3807 0.673311 -25.3979 0
-2.18055 0.357206 -25.4449 0
4.03118 -2.52655 -25.4539 0
6.26144 -3.24938 -25.4556 0
6.03618 -3.29591 -25.4375 0
5.82992 -3.33751 -25.4492 0
-2.77374 -5.23285 -25.8184 0
-2.77374 -5.23285 -25.8184 0
-3.43109 -5.46736 -25.6842 0
-0.305603 -5.61401 -26.1223 0
-0.95004 -5.7546 -26.1495 0
-8.59044 -5.90317 -26.07 0
-6.87535 -5.95885 -26.1595 0
-6.35554 -5.92193 -25.632 0
-6.528 -5.98039 -26.0838 0
-2.23871 -5.92272 -26.1349 0
-8.30853 -6.31439 -26.1199 0
-5.5102 -6.3799 -26.1637 0
-3.44921 -6.56834 -26.1446 0
-3.75066 -6.97672 -26.133 0
-1.38415 -7.00408 -26.099 0
-2.13078 -7.14892 -26.0408 0
-2.13078 -7.14892 -26.0408 0
-3.30752 -7.28069 -26.0738 0
-2.89377 -7.33859 -26.1326 0
-2.89377 -7.33859 -26.1326 0
-1.17898 -7.80494 -26.1666 0
-8.24419 -8.26491 -26.2571 0
-3.5002 -8.41928 -26.1115 0
-3.08531 8.46754 -25.9935 0
2.04374 8.40545 -25.838 0
7.14763 8.47907 -25.967 0
-3.40134 8.40402 -25.9972 0
4.5937 8.15244 -25.8868 0
1.62769 7.78274 -25.7381 0
4.69354 7.74362 -25.7778 0
4.69354 7.74362 -25.7778 0
4.33932 6.93154 -25.6652 0
4.33932 6.93154 -25.6652 0
-7.02732 5.86169 -25.4562 0
-2.5544 3.96596 -25.1853 0
1.01264 2.7941 -25.2181 0
0.74443 2.61477 -25.1989 0
0.471172 2.43009 -25.211 0
-2.12019 2.41557 -25.3606 0
-1.62955 1.29524 -25.3678 0
5.71212 0.958819 -25.2494 0
5.65857 0.797159 -25.2087 0
6.10465 0.781373 -25.2459 0
7.71635 -2.57932 -25.3307 0
8.24296 -2.82728 -25.3623 0
6.26419 -2.92062 -25.4278 0
7.09575 -3.05298 -25.4071 0
5.63985 -3.04671 -25.4185 0
5.95129 -3.16304 -25.4364 0
4.83167 -3.21557 -25.438 0
-5.70325 -4.39432 -25.5763 0
-6.31728 -5.11296 -25.9637 0
-1.80179 -5.49329 -25.9518 0
-6.01679 -5.58896 -25.6772 0
-1.68841 -6.24589 -26.1366 0
-3.42289 -6.24788 -26.0936 0
-6.43639 -6.56339 -26.1801 0
-6.43639 -6.56339 -26.1801 0
-7.6542 -6.79957 -26.1163 0
-3.91561 -7.22052 -26.134 0
-2.0041 -7.87763 -26.0298 0
1.61915 7.40841 -25.6458 0
3.53935 6.84474 -25.6275 0
-2.51251 5.37121 -25.4664 0
-8.35149 5.40608 -25.0602 0
3.44231 5.31275 -25.6138 0
-7.20169 3.23119 -24.9856 0
-1.97874 2.26305 -25.3568 0
6.48402 0.953208 -25.2285 0
6.06876 0.955003 -25.254 0
7.72828 0.75483 -25.2622 0
6.30462 0.751479 -25.2429 0
6.16744 0.592643 -25.2506 0
5.31487 0.328497 -25.241 0
-5.01707 -0.959626 -25.4635 0
-3.35583 -1.36652 -25.3989 0
7.4653 -1.87906 -25.3937 0
6.51405 -2.70302 -25.3914 0
6.41245 -3.06018 -25.4395 0
6.19258 -3.10216 -25.4451 0
8.28827 -3.1541 -25.4238 0
5.69713 -3.2021 -25.4129 0
5.34737 -3.26988 -25.405 0
4.73107 -3.39659 -25.5384 0
4.53904 -3.45991 -25.7154 0
-6.0021 -4.68986 -25.7852 0
0.22983 -4.80438 -25.8883 0
-0.11403 -5.04083 -25.9162 0
-2.03541 -5.81771 -26.1453 0
-5.93915 -6.14197 -26.1605 0
-3.63342 -6.5733 -26.1394 0
-2.84624 -6.63856 -26.083 0
-3.87937 -7.39131 -26.1443 0
-3.74405 -8.11632 -26.1408 0
1.46706 5.95706 -25.5415 0
-8.468 4.8368 -25.0564 0
-3.04752 3.8441 -25.083 0
6.63929 2.0849 -25.2473 0
-1.8637 1.89442 -25.3441 0
-2.30501 1.70815 -25.3038 0
6.9036 1.20773 -25.2517 0
-6.55072 -1.73338 -25.4455 0
-6.43662 -2.347 -25.4684 0
6.96375 -2.44007 -25.3579 0
7.08531 -2.75207 -25.3756 0
7.08531 -2.75207 -25.3756 0
7.32983 -2.85128 -25.3613 0
7.32983 -2.85128 -25.3613 0
7.59714 -2.98282 -25.3796 0
4.30443 -3.39236 -25.6424 0
-4.14768 -5.55846 -25.5972 0
-3.4954 -5.87279 -26.0462 0
-3.4954 -5.87279 -26.0462 0
-4.25705 -6.66265 -26.1472 0
-4.00263 -6.96957 -26.1553 0
-3.35201 -7.09886 -26.0917 0
4.86725 7.94393 -25.8574 0
2.62902 7.64339 -25.7394 0
6.05319 7.44724 -25.7635 0
3.32643 7.12346 -25.6099 0
-5.24853 6.99543 -25.603 0
-7.98294 6.4244 -25.2264 0
-0.0213626 6.01499 -25.519 0
-3.14883 4.61077 -25.027 0
6.01039 2.7679 -25.0415 0
-7.59808 2.58318 -24.9767 0
6.33436 2.34442 -25.1868 0
-2.81832 2.1422 -25.2021 0
-1.39847 1.68056 -25.4499 0
-1.52787 0.608254 -25.4277 0
-2.706 -0.155512 -25.4512 0
-0.261889 -4.32766 -25.7763 0
-2.60313 -5.06818 -26.033 0
-5.77238 -5.91138 -25.6095 0
-2.0869 -6.24772 -26.1639 0
-7.71453 -7.89844 -26.2034 0
-7.55398 4.76082 -25.176 0
5.5223 4.22304 -25.021 0
-7.37232 3.03229 -25.0215 0
6.46039 2.71155 -25.0514 0
-6.55058 -5.21022 -25.915 0
-2.04484 2.03152 -25.3613 0
6.52295 1.71896 -25.2246 0
0.185986 -4.43955 -25.8395 0
-0.0209184 -5.33917 -25.9839 0
0.111507 -6.1217 -26.1546 0
-1.57291 7.116 -25.6575 0
-7.99146 5.02009 -25.0738 0
-1.24311 -5.33429 -25.8269 0
-0.622679 -5.56842 -26.09 0
-8.20753 -6.7376 -26.1469 0
-3.7768 -6.76627 -26.145 0
-0.373875 -7.05473 -26.0947 0
-7.34984 -7.50454 -26.2062 0
