ply
format ascii 1.0
element vertex 292
property float x
property float y
property float z
property uchar intensity
end_header
-2.0479 7.10239 -24.9856 0
4.59267 5.6173 -25.1595 0
4.23148 5.61057 -25.281 0
3.32133 5.51755 -25.2071 0
2.36743 4.64413 -25.2314 0
2.81678 4.40825 -25.2449 0
-5.80936 4.42851 -25.2612 0
6.94923 3.42138 -25.4262 0
-0.560352 1.08002 -25.8289 0
-1.06355 7.85703 -24.9898 0
0.407314 7.37223 -24.9977 0
-1.84552 7.3369 -24.9833 0
-0.850108 6.8554 -24.9845 0
-1.31176 6.82943 -24.9799 0
-1.31176 6.82943 -24.9799 0
8.28043 6.76042 -25.1897 0
4.87078 6.41908 -25.0366 0
4.60017 6.20026 -25.0874 0
3.44988 5.92212 -25.1661 0
4.61711 5.67465 -25.1531 0
3.8876 5.53103 -25.3609 0
3.64565 5.42792 -25.2594 0
-0.209628 4.62098 -25.2124 0
2.47501 4.57445 -25.232 0
2.36741 4.38924 -25.2262 0
2.83051 3.11966 -25.3255 0
2.46276 3.05819 -25.3327 0
2.31491 3.02268 -25.3333 0
-0.558622 1.13391 -25.6259 0
-0.458758 1.01741 -25.7273 0
-0.618438 0.955124 -26.0504 0
-2.28364 0.522265 -26.0717 0
6.57418 -1.40931 -25.9058 0
8.03058 -4.07894 -25.8404 0
1.14669 -4.91351 -25.8623 0
-7.15264 -6.33558 -25.9036 0
-1.50971 7.42139 -24.986 0
-1.69703 7.38991 -24.989 0
-1.9324 7.30625 -24.9777 0
-1.86719 7.24305 -24.9665 0
-1.44949 7.09726 -24.9823 0
-0.692535 6.87148 -24.989 0
-1.3882 6.73128 -24.9902 0
-1.3882 6.73128 -24.9902 0
-1.48302 6.50611 -24.9936 0
-1.70912 6.42688 -25.0348 0
-1.49123 6.29176 -25.0771 0
-6.67145 6.38569 -25.4609 0
6.03448 6.22576 -25.0745 0
4.09415 5.5984 -25.4246 0
-4.0942 4.91728 -25.2602 0
-0.1629 4.51491 -25.2491 0
2.43283 4.23367 -25.2367 0
-6.70285 3.49771 -25.2274 0
5.28844 3.31705 -25.3217 0
5.77536 3.28721 -25.318 0
3.19845 3.13598 -25.318 0
1.22435 2.99152 -25.3256 0
-0.47248 1.08415 -25.6461 0
-0.455457 0.956182 -25.7859 0
-1.10896 0.771015 -26.1081 0
-1.75629 0.66756 -26.0578 0
-1.75629 0.66756 -26.0578 0
6.44764 0.632724 -25.4557 0
-2.26358 0.59085 -26.0857 0
3.80272 0.449385 -25.4578 0
5.49238 -1.07921 -25.5776 0
-8.73714 -1.16863 -25.9913 0
6.46931 -1.39159 -25.8591 0
-7.76892 -1.68909 -25.9357 0
1.65778 -2.40049 -25.8163 0
-8.58709 -3.41282 -25.4723 0
2.1307 -3.36759 -25.7433 0
2.03116 -3.4949 -25.8122 0
1.78081 -3.9339 -25.8588 0
-8.26088 -4.07535 -25.9283 0
-8.02801 -5.53016 -26.0802 0
-7.21539 -6.15163 -25.9142 0
-7.93056 -6.68229 -25.9099 0
-6.02283 -6.71541 -25.963 0
-0.140405 -7.83522 -25.92 0
-1.75547 7.29553 -24.9827 0
-4.76349 7.02914 -25.0382 0
-1.26283 6.93063 -24.9721 0
-1.23663 6.78378 -24.9782 0
-7.58314 6.86091 -25.2421 0
8.11395 6.80521 -25.2008 0
-7.09209 6.72535 -25.4001 0
4.93061 6.45351 -25.0321 0
5.20792 6.19102 -25.0795 0
5.48716 6.09338 -25.0453 0
4.81232 5.8426 -25.2126 0
2.23508 4.7401 -25.2255 0
2.49375 4.37537 -25.2355 0
2.59103 4.25493 -25.2604 0
2.50972 4.17469 -25.2498 0
-3.5782 4.08935 -25.4549 0
7.75626 3.73368 -25.3079 0
-6.83471 3.48689 -25.2352 0
7.92874 3.48765 -25.3438 0
-7.61495 3.37601 -25.3756 0
2.68768 3.21103 -25.3115 0
2.24162 3.16855 -25.3209 0
2.66175 3.00937 -25.3287 0
2.51136 2.98707 -25.3292 0
-6.44628 2.3396 -25.1988 0
-6.34094 2.31604 -25.2003 0
-0.227983 2.00273 -25.3745 0
7.56052 1.27484 -25.4697 0
3.54512 0.975761 -25.4559 0
0.470033 0.948899 -25.4286 0
2.62633 0.897964 -25.4595 0
6.57944 0.628046 -25.4625 0
-4.32111 -0.0601889 -26.0007 0
-4.87212 -0.195248 -26.019 0
1.3137 -1.08489 -25.554 0
-7.45263 -1.1431 -25.9711 0
-7.45263 -1.1431 -25.9711 0
5.50179 -1.16502 -25.7238 0
5.85579 -1.18499 -25.851 0
5.85994 -1.37714 -25.9248 0
1.02147 -1.49258 -25.5378 0
6.94108 -1.53051 -25.769 0
7.87167 -2.37812 -25.7583 0
1.32331 -2.91523 -25.8541 0
1.2947 -3.11227 -25.8595 0
2.58782 -4.30807 -25.7189 0
-7.08868 -6.55173 -25.934 0
-8.01297 -6.5944 -25.9416 0
-7.5429 -6.57957 -25.8829 0
-6.4062 -6.72101 -25.9663 0
0.129461 7.58413 -25.0249 0
-5.32732 7.39641 -25.252 0
-4.77959 7.23202 -25.0083 0
-1.30458 7.07596 -24.975 0
-1.53128 6.98382 -24.9744 0
0.562496 6.56458 -24.9736 0
0.778321 5.94119 -25.1637 0
5.81525 5.82268 -25.1375 0
2.77 4.70508 -25.2434 0
-3.39148 4.60773 -25.2101 0
-4.19642 4.61081 -25.2781 0
2.73648 4.32268 -25.2634 0
-4.11158 4.29638 -25.4151 0
-3.66709 4.02521 -25.4707 0
6.68882 3.61575 -25.3894 0
8.11014 3.19877 -25.3776 0
8.11014 3.19877 -25.3776 0
7.95528 3.18089 -25.4298 0
2.69636 3.12011 -25.3299 0
3.48187 3.09498 -25.3033 0
0.628287 2.92565 -25.2937 0
1.23551 2.90011 -25.3272 0
-6.04144 2.44151 -25.1789 0
0.686502 0.924475 -25.4396 0
0.448272 0.721226 -25.4504 0
0.983154 -0.810874 -25.5633 0
5.93318 -0.946132 -25.5861 0
5.48254 -0.955443 -25.5218 0
1.23705 -1.26298 -25.5425 0
1.4471 -2.0178 -25.6563 0
1.4471 -2.0178 -25.6563 0
8.28644 -2.56753 -25.8587 0
1.63259 -2.67654 -25.835 0
1.49938 -2.71947 -25.8491 0
1.54232 -3.3048 -25.8716 0
1.46111 -4.08818 -25.8849 0
-7.15605 -5.62349 -25.8311 0
-7.8568 -6.79954 -25.9527 0
2.30147 8.4146 -25.0365 0
1.15553 8.14894 -24.9864 0
0.32448 7.98053 -25.1636 0
-4.60459 7.3732 -25.1101 0
-7.18914 6.92794 -25.4129 0
8.05832 5.79826 -25.2206 0
8.05832 5.79826 -25.2206 0
-3.045 5.57923 -25.0754 0
-1.8219 5.00277 -25.2391 0
2.47067 4.6833 -25.2602 0
-0.262004 4.50993 -25.2474 0
-1.72018 3.70316 -25.1152 0
-1.85003 3.59374 -25.1074 0
6.37793 3.52316 -25.3893 0
5.31909 3.43968 -25.3868 0
-2.34735 3.39831 -25.1254 0
3.5014 3.36345 -25.2658 0
-6.6246 3.35559 -25.2124 0
4.54261 3.19824 -25.2262 0
4.37035 3.18586 -25.2841 0
-2.19902 3.15356 -25.1625 0
3.90678 3.14549 -25.3433 0
8.15795 3.06465 -25.4262 0
5.56887 2.84413 -25.2988 0
-6.3392 2.39101 -25.1906 0
-6.04991 2.03272 -25.2251 0
-6.69358 1.40137 -25.4204 0
-0.205309 1.28404 -25.3619 0
7.26 1.25737 -25.4722 0
6.61884 0.87278 -25.4293 0
-2.21549 0.699125 -26.0813 0
-1.86053 0.618654 -26.0682 0
-2.9932 0.481793 -26.0745 0
1.05566 -0.147331 -25.4024 0
0.71868 -0.235266 -25.4453 0
1.69413 -2.28239 -25.759 0
-6.80727 -6.50536 -25.9341 0
5.74242 8.49597 -25.0676 0
-0.117633 7.49987 -25.0001 0
-4.54812 7.16464 -24.9996 0
6.37767 5.06464 -25.2247 0
6.43239 3.2069 -25.3766 0
8.30587 2.9432 -25.4603 0
-5.30649 2.59939 -25.3301 0
7.36661 1.67381 -25.3932 0
6.55185 1.68034 -25.4189 0
-0.980307 1.37805 -25.867 0
-4.54057 1.2817 -25.4683 0
-0.811942 1.06969 -26.0047 0
-1.62685 0.694283 -26.0489 0
-2.09898 0.565506 -26.0688 0
0.918579 0.334446 -25.4005 0
-3.01369 0.316795 -26.0563 0
-3.01369 0.316795 -26.0563 0
-3.2241 0.250805 -26.0312 0
3.0641 -0.796361 -25.5141 0
-7.74304 -0.858043 -25.9623 0
0.904775 -0.951174 -25.5686 0
2.18361 -1.43508 -25.6596 0
-7.52252 -1.55749 -25.9423 0
-7.52252 -1.55749 -25.9423 0
1.50964 -2.87033 -25.8592 0
2.00581 -3.69632 -25.8236 0
-8.26759 -5.19522 -26.0588 0
-8.28885 -5.40677 -26.0698 0
-6.54905 -6.83864 -25.9671 0
-1.67776 5.38139 -25.1293 0
-1.53925 5.1639 -25.1592 0
3.15764 3.36965 -25.2674 0
-0.581561 3.28385 -25.076 0
-6.35626 3.30534 -25.2139 0
5.21788 3.13673 -25.2877 0
6.23644 3.03262 -25.2733 0
-5.29439 2.39936 -25.3106 0
-0.53835 1.01163 -25.9211 0
-0.260381 0.884939 -25.4432 0
7.81988 0.775683 -25.4807 0
6.44529 0.777914 -25.4342 0
-3.46327 0.299469 -26.0353 0
-3.40637 0.128247 -26.0299 0
3.17243 -0.997532 -25.5376 0
2.12694 -1.12696 -25.8778 0
4.73295 -4.6663 -25.7508 0
-5.26956 7.88921 -25.3676 0
-1.44382 7.11031 -24.9834 0
8.11337 3.64011 -25.2647 0
-6.40832 1.47298 -25.4448 0
2.80373 0.991387 -25.4581 0
6.48936 -1.28698 -25.831 0
6.20785 -1.55863 -25.7838 0
2.55958 -2.34928 -25.5467 0
1.92269 -4.30241 -25.8578 0
2.86079 -4.79086 -25.7712 0
-5.8499 -6.60651 -25.9608 0
-5.86038 2.23804 -25.2957 0
2.85363 -0.618934 -25.4969 0
6.20493 -1.27561 -25.85 0
2.37789 -2.77076 -25.3679 0
-6.08362 -5.90497 -25.9111 0
-5.60719 -5.94629 -25.8969 0
0.923279 8.24758 -25.0318 0
-4.57862 4.85571 -25.078 0
-0.463958 1.36732 -25.4505 0
0.775037 0.16775 -25.4205 0
1.73819 0.0458471 -25.4669 0
0.907015 -0.324781 -25.4252 0
1.03539 -0.822769 -25.5638 0
-7.36707 -1.80274 -25.942 0
-8.52047 -1.95331 -25.9329 0
-7.93784 -2.03728 -25.9284 0
1.35279 -2.0894 -25.707 0
-7.1325 -2.50502 -25.8266 0
1.522 -2.88803 -25.86 0
1.522 -2.88803 -25.86 0
1.49851 -4.39024 -25.8977 0
1.49851 -4.39024 -25.8977 0
5.05182 -5.11699 -25.7475 0
-6.28659 -5.23673 -25.9492 0
-6.62523 -6.16685 -25.8949 0
-6.33601 -6.6496 -25.9749 0
-0.112278 3.85927 -25.1782 0
-6.48764 2.22507 -25.2503 0
-1.11598 1.66128 -25.5372 0
