ply
format ascii 1.0
element vertex 370
property float x
property float y
property float z
property uchar intensity
end_header
1.6808 8.51577 -25.6013 0
-3.47638 7.4983 -25.572 0
-1.94762 7.0638 -25.6172 0
-4.08824 6.9841 -25.6284 0
-4.25567 6.83338 -25.5699 0
5.72871 6.72705 -25.3232 0
-3.13188 6.50125 -25.4946 0
4.33275 6.4741 -25.101 0
-3.65746 6.44974 -25.5157 0
3.74994 6.36023 -25.1626 0
-3.8136 6.1158 -25.5274 0
-4.0354 6.01375 -25.52 0
5.43548 5.93177 -25.3376 0
7.8104 5.91622 -25.0382 0
-8.31365 5.69287 -25.5413 0
2.28522 5.35163 -25.0405 0
1.65691 5.1645 -25.0249 0
8.12564 4.61944 -25.0564 0
7.97689 4.61403 -25.0643 0
0.20306 4.31406 -24.9856 0
0.307668 4.2461 -24.9872 0
0.25782 4.13221 -24.9868 0
0.650947 4.09592 -24.9862 0
0.249587 4.06805 -24.9874 0
-2.37549 4.08383 -25.3183 0
-2.19951 3.94808 -25.4197 0
0.282828 3.91235 -24.9979 0
-2.5694 3.43133 -25.0392 0
4.70832 3.25298 -25.2849 0
0.426348 2.69456 -25.0394 0
2.25467 0.47687 -25.3378 0
-2.04935 0.351177 -25.2435 0
-1.88034 0.269983 -25.2107 0
-1.93667 0.241294 -25.2354 0
-2.11297 0.176359 -25.3875 0
-3.62908 -0.348954 -25.3456 0
-3.82302 -0.480299 -25.4214 0
-5.00282 -0.848108 -25.4032 0
-5.00282 -0.848108 -25.4032 0
-6.36463 -1.31059 -25.4695 0
-7.09569 -1.56078 -25.3945 0
6.20848 -3.92021 -25.5785 0
-8.13706 -7.19836 -26.2211 0
-8.06917 -7.37605 -26.2436 0
1.84555 8.64249 -25.6298 0
3.53048 8.23803 -25.701 0
-3.9002 7.0342 -25.6122 0
-2.36407 6.97839 -25.6066 0
-4.32386 6.89639 -25.5782 0
5.54657 6.7661 -25.4237 0
-4.27972 6.74834 -25.563 0
-4.16462 6.58716 -25.5737 0
-3.00242 6.4973 -25.4986 0
-4.17441 6.37712 -25.5643 0
-3.72635 6.33354 -25.5197 0
2.51246 6.13871 -24.9839 0
-3.77124 5.88946 -25.5286 0
-3.82068 5.74664 -25.5228 0
-8.35464 5.80495 -25.5568 0
3.29872 5.67233 -25.0254 0
7.7781 5.6656 -25.1133 0
-1.45218 5.47623 -25.2695 0
1.14512 4.91329 -25.0256 0
0.62332 4.49038 -24.9997 0
0.0760009 4.40745 -24.9821 0
7.88823 3.67723 -25.1616 0
8.25807 3.58845 -25.1818 0
8.307 3.36819 -25.199 0
-3.64011 3.2085 -25.1624 0
3.16468 3.0869 -25.2157 0
3.6143 3.07175 -25.2145 0
1.14674 2.82593 -25.0197 0
0.778462 2.77512 -25.0308 0
0.319112 2.64804 -25.0425 0
0.753072 2.63653 -25.0301 0
-0.718695 2.57603 -25.124 0
-8.73497 2.5577 -25.2765 0
-8.21841 1.42772 -25.4469 0
0.777401 0.590588 -25.1201 0
1.27758 0.520857 -25.1732 0
-1.93092 0.173069 -25.2397 0
-2.53732 -0.0420081 -25.133 0
-3.1544 -0.176549 -25.1234 0
-3.1544 -0.176549 -25.1234 0
-3.63071 -0.28044 -25.3191 0
-6.09449 -1.20295 -25.3805 0
3.66249 -1.20276 -25.3743 0
-6.27347 -1.28653 -25.4284 0
3.6615 -1.28285 -25.3953 0
4.57072 -1.43924 -25.4273 0
4.68242 -1.45455 -25.4276 0
3.99916 -1.46322 -25.447 0
-0.134034 -1.63417 -25.5674 0
-0.422189 -2.04912 -25.9187 0
0.263278 -2.86503 -25.9594 0
0.232138 -2.92784 -25.9548 0
-0.0201887 -3.38058 -25.9073 0
-0.0201887 -3.38058 -25.9073 0
0.776387 -3.76085 -26.1098 0
0.674184 -3.88534 -26.1127 0
0.424222 -4.30476 -26.1424 0
-8.82326 -6.58561 -25.8105 0
-6.93038 -7.65577 -26.2663 0
-8.78328 -7.79036 -26.2429 0
0.0333141 8.18658 -25.6148 0
7.08391 7.18689 -25.2019 0
-2.00996 6.97653 -25.6012 0
-3.6674 6.69381 -25.5195 0
-2.49602 6.67202 -25.5403 0
-6.63395 6.62811 -25.5212 0
-3.61382 6.55891 -25.5199 0
-3.57574 6.40401 -25.5157 0
-7.43111 6.4641 -25.605 0
2.57966 6.17555 -25.0007 0
2.83756 5.92091 -25.0207 0
3.11978 5.83218 -25.019 0
2.83838 5.52969 -25.0325 0
2.50005 5.52921 -25.0454 0
7.26654 5.45759 -25.0747 0
7.16708 5.14714 -25.0476 0
7.73391 4.61163 -25.0551 0
0.587869 4.39179 -24.9957 0
0.347155 4.05298 -24.9903 0
0.347155 4.05298 -24.9903 0
0.454863 3.93987 -24.9923 0
-6.34689 3.96062 -25.2348 0
0.373956 3.85384 -24.9983 0
7.1289 3.90241 -25.1081 0
5.45789 3.63067 -25.3013 0
-7.97603 3.6449 -25.2778 0
-8.18238 3.59408 -25.245 0
-8.75592 3.49043 -25.3561 0
5.62846 3.37478 -25.3461 0
3.03076 3.1472 -25.2215 0
3.03076 3.1472 -25.2215 0
5.80968 3.09488 -25.3159 0
5.80968 3.09488 -25.3159 0
3.00653 2.97107 -25.2291 0
1.54821 2.75462 -25.0339 0
0.330471 2.73363 -25.0417 0
0.512978 2.63343 -25.0366 0
-0.0739432 2.511 -25.0514 0
-1.34697 2.46821 -25.4407 0
-1.0728 0.234828 -25.4758 0
-5.57777 -1.04152 -25.4074 0
3.6619 -1.07774 -25.342 0
3.98871 -1.28073 -25.3943 0
-0.338612 -1.86621 -25.7019 0
5.96716 -2.29745 -25.4641 0
6.33955 -2.45689 -25.458 0
0.149307 -2.80125 -25.9469 0
0.205717 -3.73432 -26.0499 0
-8.68964 -6.0021 -25.7993 0
-8.73942 -6.64783 -25.8433 0
-8.05891 -6.65164 -25.8104 0
-8.86391 -6.69611 -25.8852 0
-7.99526 -7.58557 -26.258 0
-7.29434 -7.68375 -26.2803 0
-8.69447 -7.90145 -26.2582 0
-5.39244 8.69198 -26.16 0
3.54363 7.93207 -25.688 0
1.02909 7.5913 -25.6699 0
-2.25709 7.28027 -25.6185 0
5.78001 6.90671 -25.3325 0
-4.14782 6.8936 -25.5852 0
-2.1183 6.71056 -25.5995 0
-2.2851 6.66579 -25.5792 0
-3.89368 6.58434 -25.53 0
-6.86658 6.3539 -25.5147 0
-1.52261 5.647 -25.4844 0
3.50459 5.55849 -25.0327 0
0.30603 4.36246 -24.9854 0
0.588822 4.0187 -24.987 0
0.981044 3.90778 -24.9951 0
8.15205 3.59232 -25.1696 0
4.4382 3.45637 -25.2501 0
-5.59741 3.41295 -25.4859 0
7.33553 3.30534 -25.1979 0
0.622265 2.88319 -25.0468 0
1.01777 2.83353 -25.0213 0
0.254489 2.81875 -25.0386 0
0.653376 2.77214 -25.0347 0
0.653376 2.77214 -25.0347 0
3.04318 2.7039 -25.2243 0
0.650792 2.65039 -25.0328 0
-4.25378 2.6679 -25.2314 0
-0.600445 2.42945 -25.111 0
5.14812 1.18623 -25.2923 0
5.30974 1.17402 -25.293 0
-1.89978 1.15432 -25.4525 0
-4.87972 1.03395 -25.3835 0
4.5503 0.533543 -25.3038 0
-1.73087 0.508363 -25.1646 0
-1.02676 0.132657 -25.4627 0
-1.08527 0.0255671 -25.4253 0
3.7831 -0.0138545 -25.4043 0
-2.90884 -0.255832 -25.069 0
-1.51875 -0.304729 -25.2384 0
-0.747426 -0.48473 -25.4651 0
-6.08224 -1.31701 -25.3943 0
-0.477218 -1.40007 -25.5219 0
-0.204999 -1.81356 -25.6227 0
-8.60138 -2.31778 -25.4361 0
0.0491691 -2.49944 -25.4294 0
0.0491691 -2.49944 -25.4294 0
0.258752 -3.12439 -25.9458 0
0.110442 -3.18387 -25.9036 0
0.463418 -3.63939 -26.0555 0
0.546468 -3.73818 -26.0956 0
0.156429 -4.47999 -26.1391 0
-8.45078 -7.65998 -26.2488 0
-8.90594 -7.71951 -26.2182 0
-0.165177 8.16323 -25.662 0
-0.165177 8.16323 -25.662 0
3.47028 8.06149 -25.7233 0
-2.08369 7.65395 -25.6271 0
-2.3033 7.11636 -25.6157 0
6.80695 7.09036 -25.2004 0
-6.71032 6.49603 -25.5115 0
6.89281 5.84759 -25.0185 0
6.46637 5.7931 -25.0088 0
5.57154 5.67602 -25.1401 0
5.57154 5.67602 -25.1401 0
2.88347 5.41384 -25.0402 0
-5.29233 5.04634 -25.5333 0
4.16869 3.3443 -25.2094 0
-3.81089 3.23004 -25.1406 0
3.17599 3.21986 -25.1838 0
-3.93504 3.1115 -25.1277 0
6.18224 3.01414 -25.2111 0
5.88392 2.97892 -25.3793 0
2.45759 2.93385 -25.1898 0
7.45972 2.90158 -25.2077 0
1.43062 2.77524 -25.0258 0
-8.54286 2.43316 -25.3236 0
-8.72059 2.44069 -25.3446 0
6.17744 2.13976 -25.3913 0
4.4339 1.51067 -25.2631 0
-7.88479 1.15714 -25.3597 0
-2.06711 1.07281 -25.4533 0
4.56353 0.771351 -25.2859 0
-5.98984 0.66709 -25.2169 0
-1.19571 0.360111 -25.3998 0
6.11367 0.276556 -25.4452 0
-3.03068 0.0137935 -25.0756 0
-2.65499 -0.0147042 -25.1139 0
-3.03359 -0.148211 -25.0841 0
-3.58188 -0.177466 -25.2348 0
-3.24539 -0.232543 -25.162 0
-3.45345 -0.292809 -25.2165 0
-4.3124 -0.431975 -25.3958 0
-4.35826 -0.595249 -25.4001 0
-4.35826 -0.595249 -25.4001 0
-0.435529 -0.759489 -25.3298 0
1.33636 -1.07134 -25.5336 0
-8.78127 -1.33579 -25.6525 0
-0.561511 -1.5337 -25.5272 0
0.622182 -1.90224 -25.6463 0
0.622182 -1.90224 -25.6463 0
0.94058 -2.87749 -26.0634 0
0.0264712 -3.06722 -25.9298 0
0.127315 -3.32459 -25.8683 0
0.378054 -3.78095 -26.0915 0
-7.71396 -7.52005 -26.2589 0
-7.12689 -7.71531 -26.2904 0
-7.50711 -7.9865 -26.21 0
-1.07743 8.66282 -25.4249 0
-4.95818 8.26407 -25.7167 0
3.29472 8.15218 -25.7042 0
-0.910623 7.96967 -25.58 0
6.93906 7.21335 -25.2456 0
6.93906 7.21335 -25.2456 0
-2.50537 7.18175 -25.5916 0
-2.91159 6.79705 -25.5056 0
8.11056 5.84078 -25.0254 0
4.02854 4.90024 -24.9948 0
0.772256 4.45129 -25.0024 0
5.89337 3.27459 -25.2826 0
1.42096 3.08606 -25.0347 0
4.23826 3.01795 -25.1973 0
2.29859 2.91265 -25.1517 0
6.02243 2.87113 -25.3323 0
4.08442 2.86135 -25.2496 0
7.47866 2.73179 -25.2325 0
0.554955 2.4898 -25.0424 0
5.18905 1.56816 -25.2727 0
-2.56401 1.18097 -25.1865 0
-2.45508 0.548403 -25.1356 0
6.39851 0.512813 -25.4549 0
-8.52103 0.488943 -25.4663 0
-2.27444 0.262903 -25.2131 0
-2.27444 0.262903 -25.2131 0
-1.74516 0.12939 -25.2294 0
-2.81399 -0.070644 -25.0843 0
-0.597834 -0.316454 -25.4807 0
-4.70087 -0.81179 -25.4021 0
-7.94974 -1.03362 -25.4416 0
3.81526 -1.24256 -25.3849 0
7.42069 -2.26025 -25.4601 0
6.09916 -2.34499 -25.4357 0
-8.6316 -2.69682 -25.4913 0
-8.6316 -2.69682 -25.4913 0
8.10126 -4.28704 -25.627 0
7.84619 -4.54334 -25.6525 0
-0.126242 -4.79833 -26.1192 0
7.37878 -6.91224 -25.5192 0
-7.42883 -7.81355 -26.2659 0
5.82965 6.73881 -25.2348 0
-3.82205 4.84221 -25.3301 0
-3.65715 4.58352 -25.0754 0
3.10366 2.90271 -25.2224 0
2.68614 2.82395 -25.2353 0
-8.26481 2.42467 -25.3418 0
5.69319 0.750178 -25.36 0
4.41411 0.670186 -25.2679 0
-2.02113 0.227092 -25.2804 0
-4.76891 -0.644004 -25.4076 0
1.44013 -1.27098 -25.5254 0
0.610237 -1.60363 -25.5436 0
8.05016 -2.01909 -25.5138 0
-8.26367 -2.45084 -25.4834 0
-0.141716 -2.73561 -25.8034 0
6.02124 -2.84211 -25.483 0
8.02352 6.37869 -25.0461 0
8.22592 6.13086 -25.0622 0
4.17025 4.49259 -25.015 0
6.56152 4.03024 -25.0659 0
-7.12315 1.83232 -25.0263 0
-7.74147 1.35929 -25.3886 0
0.951118 0.680935 -25.1132 0
-8.19151 0.580586 -25.4743 0
-7.4116 -0.00725771 -25.3535 0
4.59454 -1.34482 -25.4073 0
4.37087 -1.62227 -25.4596 0
6.58603 -2.36214 -25.434 0
1.10686 -2.76941 -26.0715 0
1.54356 -5.0522 -26.0619 0
-6.5919 -6.92004 -26.2156 0
-6.76565 -7.50571 -26.2401 0
-6.76565 -7.50571 -26.2401 0
-3.81227 6.71189 -25.5262 0
7.84952 6.01406 -25.0468 0
5.78074 3.53748 -25.3767 0
4.97503 3.3991 -25.1314 0
-8.24182 2.56423 -25.2278 0
-0.750985 -0.486106 -25.4651 0
0.178908 -0.541215 -25.4833 0
7.77036 -2.15918 -25.4272 0
3.57329 -5.16602 -26.0875 0
-7.23225 -6.19266 -25.7895 0
-7.02844 -6.85532 -26.2078 0
-1.50909 7.94249 -25.6209 0
5.36465 6.94373 -25.4562 0
-6.6533 4.1452 -25.2928 0
7.7987 2.85753 -25.2686 0
-1.97213 0.568417 -25.2961 0
-0.57849 -0.935255 -25.4728 0
-0.431846 -1.40074 -25.5222 0
-0.0624013 -2.56663 -25.4909 0
0.139149 -3.33957 -25.8743 0
0.139149 -3.33957 -25.8743 0
7.03139 -3.58734 -25.7365 0
-0.621379 -4.451 -26.0981 0
0.226296 -4.7692 -26.0807 0
0.226296 -4.7692 -26.0807 0
-7.55796 -7.17004 -26.2985 0
-7.23496 -7.61823 -26.2847 0
-2.20867 3.42121 -25.3702 0
-7.32947 1.92707 -25.0449 0
-2.60655 0.823244 -25.1116 0
