ply
format ascii 1.0
element vertex 212
property float x
property float y
property float z
property uchar intensity
end_header
-6.04467 8.41505 -25.9979 0
-2.04148 7.53293 -25.7908 0
1.17233 7.24525 -25.7485 0
-7.93689 7.00226 -25.845 0
-6.83065 6.8957 -25.6208 0
-7.60532 6.78364 -25.6102 0
-1.57382 6.00773 -25.4935 0
-8.44464 6.06804 -25.1862 0
-1.63559 5.88452 -25.4776 0
-1.93502 5.28516 -25.4816 0
1.90198 5.09037 -25.5658 0
7.47064 5.1283 -25.7782 0
6.11016 4.78583 -25.4541 0
5.59272 4.57858 -25.1483 0
2.44158 4.54401 -25.4639 0
-8.18832 4.485 -25.1894 0
-0.754178 4.38458 -25.3394 0
-8.14516 4.34258 -25.131 0
1.5413 4.06984 -25.0018 0
-1.24622 3.721 -25.5515 0
7.94911 3.56419 -25.0127 0
7.52697 3.52915 -25.0139 0
7.49257 3.41796 -25.0598 0
4.32024 2.52961 -25.0287 0
4.32024 2.52961 -25.0287 0
6.50562 0.594108 -25.2373 0
5.4859 0.53213 -25.246 0
6.00815 0.496629 -25.2347 0
6.20996 0.493324 -25.2362 0
4.1193 -0.0778728 -25.1856 0
2.59791 -2.87049 -25.4735 0
2.92168 -3.57306 -25.6553 0
2.80174 -3.84053 -25.8388 0
1.47757 -4.00342 -25.7965 0
-3.72716 -4.07235 -25.6054 0
-3.70752 -4.49212 -25.5482 0
-3.22128 -4.71914 -25.6883 0
-3.15108 -4.74887 -25.685 0
3.20805 -5.14226 -26.0419 0
3.09845 -5.16672 -26.0166 0
3.77556 -5.86689 -26.0642 0
3.82157 -6.06275 -26.0532 0
0.404756 -6.59781 -26.0285 0
0.404756 -6.59781 -26.0285 0
0.480354 -6.64884 -26.0241 0
1.79751 7.39645 -25.8013 0
-7.71557 7.00699 -25.8236 0
-5.93396 6.63715 -25.6712 0
-7.64301 6.40409 -25.6207 0
-7.48459 6.32932 -25.586 0
7.72915 5.79458 -25.7149 0
-1.76831 5.61511 -25.4683 0
-1.65727 5.54434 -25.467 0
5.78984 4.81044 -25.4838 0
6.23204 4.7328 -25.3633 0
5.70275 4.73218 -25.3918 0
5.79107 4.59891 -25.1922 0
-7.75504 4.31839 -25.2567 0
-1.75868 4.11768 -25.6078 0
-2.6893 3.95883 -25.4853 0
-7.8473 3.74795 -25.1263 0
-0.512434 3.05136 -25.4376 0
-0.512434 3.05136 -25.4376 0
-1.04431 2.8864 -25.5242 0
7.05325 0.72582 -25.2413 0
-2.46394 0.707076 -25.3212 0
6.29574 0.542158 -25.2335 0
-2.86659 0.53266 -25.2556 0
3.87449 -0.401578 -25.2567 0
3.87449 -0.401578 -25.2567 0
3.50697 -0.987229 -25.3439 0
-0.181004 -2.00946 -25.3219 0
-2.83923 -2.13072 -25.1942 0
-2.61997 -2.24928 -25.1951 0
1.9033 -2.57663 -25.5397 0
-0.036294 -2.96155 -25.4223 0
2.84139 -3.54589 -25.6387 0
-3.985 -3.63999 -25.5103 0
-3.985 -3.63999 -25.5103 0
-3.46853 -4.37007 -25.6531 0
-3.59126 -4.88157 -25.6167 0
3.17827 -5.25035 -26.0499 0
4.22332 -6.11286 -25.9851 0
1.55274 -6.24586 -26.0722 0
0.444535 -6.26148 -26.0416 0
2.67639 8.45831 -26.0405 0
-6.75554 7.74425 -26.0004 0
-5.78784 7.29441 -25.8422 0
-7.3152 6.83063 -25.6135 0
-6.35144 6.78331 -25.5907 0
-8.74642 6.84809 -25.7553 0
-7.69665 6.62331 -25.6993 0
6.94799 5.72597 -25.7579 0
-8.44115 5.23985 -25.1857 0
5.70349 5.06856 -25.7222 0
1.42656 4.42922 -25.0834 0
-0.320416 3.60945 -25.1456 0
7.38148 3.43593 -25.0487 0
-0.81865 2.5858 -25.3736 0
2.99505 2.27639 -25.0666 0
0.891856 1.71788 -25.5729 0
-2.00166 0.927558 -25.356 0
3.10535 -1.13686 -25.3336 0
3.62249 -1.41265 -25.4067 0
0.235312 -2.06438 -25.3871 0
0.235312 -2.06438 -25.3871 0
-2.2437 -2.15467 -25.3094 0
-2.39979 -2.19542 -25.2998 0
-2.74066 -2.20307 -25.1661 0
-0.403006 -2.22811 -25.3344 0
-1.36653 -2.52004 -25.3061 0
-4.14864 -2.68649 -25.3922 0
0.809651 -3.30989 -25.3739 0
2.96462 -3.65408 -25.6906 0
0.621602 -3.72493 -25.6894 0
-3.41733 -4.11531 -25.5624 0
4.6467 -6.46991 -26.0012 0
-6.63389 7.84567 -26.0206 0
-6.662 7.51459 -25.9576 0
-1.93626 7.24313 -25.7707 0
-7.42249 6.72229 -25.675 0
6.14989 4.97622 -25.6383 0
0.999896 4.29116 -25.2528 0
-1.39928 3.99403 -25.5324 0
0.110526 3.06953 -25.1007 0
-0.842743 2.97723 -25.4734 0
-1.6423 1.85972 -25.3241 0
-2.84833 1.09018 -25.3194 0
-2.81289 -1.16753 -25.4161 0
-2.26633 -1.34695 -25.3959 0
-1.98747 -1.82488 -25.3443 0
2.33214 -2.14835 -25.485 0
-4.45796 -2.26093 -25.3619 0
0.631613 -2.61543 -25.5564 0
-3.45235 -3.10894 -25.5035 0
1.24345 -3.31401 -25.4977 0
1.24345 -3.31401 -25.4977 0
0.8995 -4.95203 -25.8845 0
3.04238 -5.05868 -25.9935 0
-3.68431 -5.0786 -25.7126 0
-2.49375 -5.85695 -26.0181 0
4.15866 -6.23386 -25.9971 0
4.30136 -6.79983 -25.9861 0
-7.37098 4.03355 -25.4539 0
-1.07463 3.89776 -25.5225 0
8.16207 1.04503 -25.2155 0
4.05438 -0.586523 -25.2986 0
3.76139 -0.857449 -25.3206 0
0.2526 -3.44025 -25.1321 0
0.437841 -4.18985 -25.7216 0
2.80877 -4.81467 -25.9769 0
0.996677 -4.78948 -25.8778 0
-3.34535 -4.91984 -25.7103 0
2.08413 -5.03153 -25.9481 0
1.31169 -5.24545 -25.9611 0
1.40594 -5.44988 -26.0393 0
-0.134673 -6.17394 -26.1057 0
-0.134673 -6.17394 -26.1057 0
4.49988 -6.57634 -25.9969 0
4.49988 -6.57634 -25.9969 0
0.367115 -6.67795 -26.024 0
-1.45249 -6.65429 -26.0181 0
6.962 8.10609 -26.0538 0
-0.701426 4.10036 -25.3122 0
7.69845 3.79615 -25.0086 0
7.9282 1.11833 -25.2456 0
7.9791 0.903558 -25.2339 0
-4.60873 0.488109 -25.3621 0
-4.29806 -0.0437788 -25.3094 0
3.5861 -0.0892986 -25.1624 0
-0.158437 -2.74417 -25.4248 0
0.124027 -3.04428 -25.4388 0
0.760259 -3.13783 -25.6059 0
0.760259 -3.13783 -25.6059 0
1.1219 -4.59124 -25.8905 0
1.09939 -5.06894 -25.9185 0
2.33811 -5.15644 -26.0063 0
0.822336 -5.66993 -26.0728 0
-8.51657 7.22038 -25.9792 0
-7.01355 6.32708 -25.5472 0
-0.450608 4.11005 -25.2771 0
-0.179079 3.96661 -25.138 0
-7.6872 3.38881 -25.385 0
-1.08295 -5.9947 -26.0677 0
1.68926 -6.58339 -26.0645 0
-7.09692 6.68742 -25.4976 0
-7.88403 5.57361 -25.5077 0
-7.46316 4.69971 -25.413 0
-7.51845 3.80783 -25.4465 0
-2.49847 -1.45352 -25.4085 0
-3.44164 -4.2126 -25.6057 0
4.73909 -4.90116 -26.1389 0
5.33578 -5.64088 -26.0713 0
4.88359 -5.61062 -25.9935 0
-0.807869 -5.6936 -25.9961 0
5.13925 -6.33978 -26.0767 0
5.13925 -6.33978 -26.0767 0
-6.44602 6.91588 -25.5904 0
-8.34203 5.84471 -25.41 0
-7.73416 5.12593 -25.4823 0
-7.73416 5.12593 -25.4823 0
-0.884746 4.28752 -25.4034 0
3.99258 -0.220113 -25.1701 0
3.85962 -1.13731 -25.2984 0
4.65807 -6.3971 -26.0157 0
3.29067 -1.37618 -25.4219 0
0.257746 -2.82739 -25.4737 0
3.62442 -2.86897 -25.4151 0
-4.02003 -3.09175 -25.4063 0
-3.12392 -3.80114 -25.5548 0
3.42728 -4.47662 -26.0778 0
4.34871 -5.88183 -26.002 0
