ply
format ascii 1.0
element vertex 358
property float x
property float y
property float z
property uchar intensity
end_header
2.54851 7.82856 -25.0408 0
1.93702 7.65138 -25.0338 0
-3.09205 6.58106 -25.0256 0
-1.61047 6.15616 -24.9886 0
-4.4352 5.9531 -25.037 0
5.27028 5.78016 -25.1239 0
4.71909 5.77034 -25.1661 0
4.15098 5.63705 -25.1205 0
-2.71949 5.5898 -25.1046 0
-3.90203 5.27439 -25.0719 0
-7.73201 5.16843 -25.3003 0
4.88848 4.93803 -25.204 0
1.85426 4.77042 -25.2203 0
-8.66133 4.67355 -25.0894 0
3.08637 4.57798 -25.3295 0
3.05298 4.51118 -25.3191 0
-8.44999 4.55501 -25.0862 0
2.67674 4.45594 -25.2818 0
-4.81202 4.42011 -25.4345 0
5.21979 4.12763 -25.1883 0
1.28368 3.47098 -25.2585 0
0.912439 3.45161 -25.2527 0
0.867008 3.26885 -25.2613 0
-1.13532 2.88914 -25.2009 0
-2.32871 2.67735 -25.4463 0
-0.288116 -1.0217 -25.6989 0
-2.03851 -1.74419 -25.9622 0
-3.24895 -2.15573 -25.9597 0
-3.24895 -2.15573 -25.9597 0
-4.47619 -2.60987 -26.0661 0
-4.73698 -2.70569 -26.0539 0
-4.73698 -2.70569 -26.0539 0
-5.98048 -3.17528 -25.7205 0
-7.52875 -6.82909 -25.9298 0
-4.21043 8.20497 -25.0336 0
2.11271 7.77754 -25.0477 0
0.314148 7.28689 -25.0112 0
5.91343 6.04758 -25.0536 0
3.18801 5.43843 -25.3304 0
3.12382 5.40532 -25.3758 0
-6.10581 5.27102 -25.1185 0
3.87559 4.81702 -25.176 0
3.2279 4.76325 -25.3986 0
-7.88391 4.81711 -25.2962 0
-7.84826 4.69785 -25.2862 0
2.59228 4.44618 -25.2662 0
-0.974426 4.33122 -25.2343 0
2.10504 4.22032 -25.3455 0
-5.66686 4.01568 -25.2559 0
0.234397 3.39455 -25.1698 0
0.102311 3.32559 -25.1573 0
-7.35349 3.34124 -25.2249 0
-5.65028 3.21043 -25.2747 0
0.908047 3.10782 -25.2973 0
-1.45468 3.09315 -25.0553 0
1.00064 3.05978 -25.3059 0
-5.56597 2.98609 -25.2659 0
5.68629 2.46696 -25.4688 0
3.92608 2.17055 -25.4131 0
1.97092 2.0051 -25.3918 0
1.6035 1.9439 -25.3933 0
1.63102 1.79352 -25.3737 0
1.16379 1.79034 -25.3672 0
0.100646 1.70376 -25.3834 0
0.337571 1.67834 -25.3775 0
-0.230186 1.57595 -25.3869 0
-6.03841 1.11103 -25.4411 0
-7.29261 0.331504 -25.4308 0
2.61728 -0.446694 -25.4804 0
-0.0639333 -0.920066 -25.64 0
-0.109118 -1.02885 -25.6377 0
1.12323 -1.12156 -25.6435 0
-1.37086 -1.41673 -25.9667 0
-1.37086 -1.41673 -25.9667 0
-1.57095 -1.44238 -25.9704 0
-1.82704 -1.53214 -25.9798 0
4.99892 -2.05606 -25.6075 0
5.03394 -2.2401 -25.6308 0
5.98784 -2.39111 -25.6472 0
6.15117 -2.40654 -25.6358 0
5.40013 -2.42452 -25.6853 0
-4.37266 -2.56386 -26.0858 0
1.76699 -2.85805 -25.8725 0
2.18123 -4.0977 -25.4981 0
2.15039 -4.16397 -25.5832 0
-8.61663 -4.36911 -25.8906 0
2.72283 -5.03772 -25.7299 0
-7.87742 -5.31508 -26.0254 0
2.35676 -5.56864 -25.7017 0
-7.9399 -6.21247 -25.9892 0
2.10678 -6.33091 -25.8671 0
-7.06803 -8.22051 -25.8801 0
-6.98857 -8.28932 -25.8703 0
1.64501 8.24978 -25.0363 0
2.31262 6.98369 -25.0049 0
2.16553 6.95463 -24.992 0
0.377336 6.49443 -25.0049 0
-1.64144 6.07686 -25.0259 0
-3.96231 5.63805 -25.0055 0
3.76316 5.54785 -25.2399 0
-3.21092 5.49453 -25.105 0
3.52216 5.16074 -25.1542 0
3.86703 5.04892 -25.1411 0
4.02066 4.90004 -25.181 0
1.0665 3.80134 -25.2301 0
1.39058 3.29394 -25.2581 0
0.958206 3.2496 -25.2705 0
1.07487 3.14038 -25.2985 0
-7.23647 2.96256 -25.2165 0
6.47811 2.84515 -25.3859 0
-4.91856 2.75943 -25.0609 0
-7.4706 2.68576 -25.2088 0
-6.81314 2.63577 -25.217 0
-4.81094 2.43766 -25.1132 0
4.89669 2.40865 -25.3955 0
3.873 2.38472 -25.4236 0
4.03388 2.26716 -25.4026 0
1.43366 2.03742 -25.3945 0
-7.31752 1.92422 -25.3202 0
1.13769 1.88322 -25.3657 0
-8.22094 1.76002 -25.2971 0
0.792577 1.65321 -25.3682 0
-8.66228 1.29514 -25.3239 0
-4.5536 0.289749 -25.8443 0
-7.06395 0.233162 -25.4769 0
5.38096 -2.23369 -25.6627 0
-3.82932 -2.36928 -25.6476 0
1.50056 -3.17947 -25.8279 0
7.62127 -3.29107 -25.8089 0
1.45134 -3.26658 -25.828 0
8.0211 -3.4579 -25.8017 0
2.06304 -4.03195 -25.5231 0
-7.58041 -4.53722 -25.9117 0
1.87238 -4.73592 -25.7682 0
-8.02968 -4.9506 -25.9887 0
2.13689 -4.99933 -25.7181 0
2.47953 -5.10396 -25.7001 0
-8.1388 -5.55011 -26.0324 0
-6.95685 -7.6078 -25.9476 0
-7.09813 -8.33832 -25.8664 0
-2.50415 8.51341 -25.314 0
-7.15892 8.53003 -25.4622 0
1.45146 8.20111 -25.0167 0
1.45146 8.20111 -25.0167 0
-2.27158 8.12717 -25.0096 0
1.86015 7.99316 -25.0319 0
4.27063 7.83048 -25.0411 0
0.594653 6.39531 -25.1013 0
-1.89349 6.38622 -24.9731 0
7.11607 6.43462 -25.1179 0
-8.2165 6.42234 -25.3063 0
-1.38494 5.42643 -25.0009 0
-6.41971 5.41173 -25.1986 0
-5.83431 5.28592 -25.0194 0
-5.65639 5.26045 -25.0509 0
3.48441 4.72586 -25.1964 0
-7.50159 3.6687 -25.2287 0
1.19624 3.59668 -25.2436 0
0.911262 3.5503 -25.2417 0
1.20724 3.22137 -25.276 0
8.06923 3.18123 -25.2877 0
6.3289 2.87232 -25.3628 0
5.3072 2.68816 -25.4232 0
7.48235 2.42768 -25.4094 0
7.48235 2.42768 -25.4094 0
6.14631 2.21865 -25.4558 0
6.14631 2.21865 -25.4558 0
1.02716 1.96484 -25.3723 0
1.52018 1.79791 -25.3743 0
1.35202 1.7808 -25.3713 0
-3.74776 1.78205 -25.4578 0
0.229989 1.55687 -25.3769 0
6.26275 0.383059 -25.499 0
6.44986 0.355945 -25.4898 0
-0.133316 -0.0215708 -25.4319 0
5.70236 -0.322877 -25.4799 0
0.0840399 -0.666561 -25.6145 0
0.749309 -1.13656 -25.5538 0
-1.11648 -1.49617 -25.9537 0
0.314927 -1.50053 -25.5684 0
-1.31452 -1.57169 -25.9622 0
-1.50845 -1.64236 -25.9789 0
1.1168 -1.67433 -25.5395 0
5.41626 -1.98697 -25.6389 0
1.41544 -2.6165 -25.6479 0
1.70294 -3.04203 -25.7776 0
-6.93031 -3.79011 -25.9144 0
1.95938 -3.74872 -25.5836 0
1.95938 -3.74872 -25.5836 0
-7.65559 -4.46745 -25.9298 0
-8.55768 -4.89817 -25.9866 0
2.38211 -4.89839 -25.6982 0
2.46771 -4.9948 -25.6992 0
-8.59152 -5.13458 -26.0031 0
-8.30018 -7.14554 -26.0619 0
-7.32899 -7.50905 -25.957 0
-7.32899 -7.50905 -25.957 0
-6.29467 -8.26064 -25.8237 0
-7.29785 -8.41311 -25.8905 0
-5.62282 8.44751 -25.467 0
0.599608 7.97977 -25.0226 0
0.599608 7.97977 -25.0226 0
0.130913 7.69393 -25.0054 0
4.34171 7.37236 -25.0223 0
4.04887 7.30967 -25.0243 0
0.117535 7.2506 -25.0018 0
0.117535 7.2506 -25.0018 0
-3.93816 7.22981 -25.0079 0
-0.996786 6.95908 -24.9637 0
-1.75612 6.72412 -24.9641 0
7.39152 6.49563 -25.1071 0
-4.43963 6.43234 -24.9932 0
7.27204 6.33711 -25.1431 0
7.57791 5.17504 -25.2321 0
8.3151 5.14305 -25.2519 0
7.14189 5.11091 -25.201 0
-4.17191 4.98053 -25.1242 0
6.21138 4.96904 -25.1979 0
6.21138 4.96904 -25.1979 0
3.52014 4.60767 -25.1966 0
-4.79103 4.12922 -25.3999 0
1.69187 3.1377 -25.2765 0
1.85179 3.09236 -25.2731 0
6.64719 3.05963 -25.3799 0
2.19687 2.2378 -25.4511 0
-2.33211 2.20427 -25.4294 0
6.99586 2.22093 -25.3884 0
3.37472 2.12071 -25.4599 0
1.82354 2.00201 -25.3863 0
-3.91652 1.99629 -25.3951 0
1.43548 1.92729 -25.3875 0
1.43548 1.92729 -25.3875 0
5.03276 1.91207 -25.4156 0
-7.61529 1.35043 -25.2977 0
-0.866903 1.01619 -25.503 0
-6.99195 0.477925 -25.4231 0
-6.97974 0.0831019 -25.656 0
5.70705 -0.0643534 -25.4856 0
8.07203 -0.15618 -25.4635 0
1.36721 -0.437907 -25.4569 0
0.640527 -0.818554 -25.5436 0
-1.23448 -1.21654 -25.9536 0
-0.85802 -1.23714 -25.9721 0
-1.25352 -1.38563 -25.9626 0
-1.79608 -1.4318 -25.982 0
-1.45589 -1.4779 -25.967 0
-1.66172 -1.54429 -25.9902 0
-2.0064 -1.67229 -25.9701 0
-2.53905 -1.71805 -25.9802 0
-2.39706 -1.83006 -25.9828 0
-2.58955 -1.88108 -25.9623 0
-2.58955 -1.88108 -25.9623 0
1.43692 -1.94745 -25.3912 0
1.00522 -1.97216 -25.7481 0
1.16232 -2.44863 -25.8015 0
1.79901 -2.73706 -25.9043 0
1.31112 -2.9161 -25.8141 0
2.55014 -3.11829 -25.7978 0
2.55014 -3.11829 -25.7978 0
1.93303 -4.33192 -25.7532 0
2.18245 -4.37816 -25.6926 0
2.04146 -4.44375 -25.7181 0
2.03783 -4.59899 -25.7248 0
-7.04685 -4.69416 -25.9172 0
2.28897 -5.04189 -25.6989 0
-8.51905 -5.4665 -26.011 0
-7.2448 -8.17917 -25.9191 0
1.98 8.1648 -25.0449 0
4.16 7.71601 -25.0247 0
-5.06313 7.37252 -25.2224 0
-0.609926 7.06327 -24.9874 0
7.23313 6.55174 -25.0977 0
7.23313 6.55174 -25.0977 0
-2.19192 6.26084 -25.0106 0
6.2268 6.06405 -25.1048 0
-6.37338 5.78727 -25.2021 0
5.31027 2.23975 -25.4217 0
3.21474 2.09222 -25.4569 0
2.74167 2.02383 -25.4654 0
-8.10539 1.8481 -25.3015 0
1.40516 1.62087 -25.3683 0
5.48862 1.30571 -25.4351 0
6.30506 0.745676 -25.4768 0
5.57376 0.71783 -25.438 0
-3.71168 0.589921 -26.0418 0
-0.816691 0.0333422 -25.9242 0
6.83837 -0.039193 -25.494 0
7.6542 -0.313909 -25.5154 0
-5.17378 -0.49433 -25.9889 0
1.14057 -0.545257 -25.4496 0
-7.6348 -0.620501 -25.7702 0
-0.462444 -0.939557 -25.7666 0
-0.462444 -0.939557 -25.7666 0
-0.995253 -0.977869 -26.002 0
-1.03082 -1.30737 -25.9727 0
1.26691 -1.49427 -25.6022 0
0.986429 -1.97893 -25.7489 0
5.19472 -2.20264 -25.6354 0
1.15081 -2.45259 -25.8049 0
-6.94384 -4.17087 -25.9174 0
-6.94384 -4.17087 -25.9174 0
1.94969 -4.31604 -25.7468 0
2.62408 -5.38138 -25.6904 0
1.81489 -6.08229 -25.8501 0
-7.45964 -7.94534 -25.975 0
1.45998 3.66003 -25.4707 0
6.95512 2.52007 -25.3864 0
1.81651 2.21802 -25.4318 0
4.01351 2.07907 -25.3965 0
3.60893 2.00524 -25.4154 0
-7.36505 1.3177 -25.3258 0
-6.2781 0.4593 -25.5169 0
7.76523 -0.116441 -25.5303 0
5.55323 -0.171 -25.4947 0
-0.656216 -0.643588 -25.8867 0
-0.198585 -0.966374 -25.6974 0
0.0861013 -1.05335 -25.5484 0
-2.99979 -1.95908 -25.9671 0
6.08332 -2.28349 -25.6442 0
5.72441 -2.57109 -25.6902 0
7.73007 -3.85431 -25.8733 0
-6.57274 -3.91723 -25.913 0
1.75611 -3.98311 -25.7914 0
-8.50841 -4.23586 -25.8794 0
-7.45772 -8.20005 -25.977 0
-4.15812 7.73365 -25.0169 0
7.59762 3.31043 -25.2997 0
-6.23965 0.775727 -25.4467 0
-7.35568 -0.524347 -25.7622 0
1.14996 -2.19716 -25.7759 0
2.99952 -3.9873 -25.6441 0
3.56878 -6.37391 -25.9472 0
-1.17754 7.00455 -24.9884 0
5.71156 6.21148 -25.0483 0
6.70085 2.78731 -25.3895 0
5.86379 2.62891 -25.4372 0
5.16696 2.46517 -25.4009 0
-7.3475 1.50242 -25.3015 0
-6.8376 0.285204 -25.4881 0
0.502338 3.15705 -25.2768 0
-5.84516 3.11938 -25.3053 0
-1.59316 2.55849 -25.3643 0
-0.141761 -0.62235 -25.6811 0
1.28777 -2.12934 -25.61 0
1.44404 -2.60851 -25.6338 0
-6.70692 -3.55944 -25.7615 0
1.84544 -3.82352 -25.7646 0
-6.77743 -4.42723 -25.9177 0
-7.95869 -4.64902 -25.9545 0
-7.33496 -4.7227 -25.9171 0
-6.50233 -5.11902 -25.9172 0
2.16832 -6.08486 -25.8294 0
2.16832 -6.08486 -25.8294 0
-5.45071 7.58363 -25.4347 0
-6.4452 0.927057 -25.4247 0
2.13205 -1.63218 -25.5755 0
1.23687 -5.71454 -25.8641 0
-6.80327 -6.07263 -25.8587 0
