ply
format ascii 1.0
element vertex 162
property float x
property float y
property float z
property uchar intensity
end_header
7.04449 1.71594 -25.5713 0
5.83624 0.971519 -25.0256 0
2.86109 0.907659 -25.5005 0
-4.39009 0.776636 -25.4391 0
4.06514 0.6968 -25.0915 0
6.50558 0.627569 -25.0521 0
8.2857 0.558977 -25.0732 0
-4.5921 0.103996 -25.489 0
-3.36679 0.0748918 -25.4509 0
-3.91207 0.0209618 -25.4638 0
-4.2355 -0.0403462 -25.476 0
-4.1542 -0.0941304 -25.4814 0
-3.91935 -0.240741 -25.5355 0
-3.82828 -0.395502 -25.5247 0
-1.63618 -0.69906 -25.1302 0
7.11255 -5.46961 -25.5256 0
8.21534 -8.12257 -25.3498 0
8.39217 -8.18818 -25.0653 0
-3.84492 6.80987 -25.6078 0
6.34311 1.68813 -25.5512 0
5.77534 1.27788 -25.4993 0
6.49455 1.0778 -25.0416 0
6.28615 1.04299 -25.0347 0
6.00192 0.997937 -25.0299 0
7.88699 0.565983 -25.0869 0
-3.95255 0.544702 -25.461 0
6.44119 -0.220102 -25.1436 0
-4.40267 -0.328369 -25.5565 0
-4.12749 -0.377413 -25.5512 0
-4.29237 -0.704537 -25.5413 0
-4.06885 -0.770644 -25.5383 0
-4.06885 -0.770644 -25.5383 0
2.62977 -1.71094 -25.3556 0
4.36002 -2.96373 -25.5054 0
4.21819 -2.9833 -25.5303 0
3.99833 -3.00407 -25.4982 0
-3.44748 -3.71424 -25.5651 0
1.50001 -4.61311 -25.2061 0
-2.78578 -4.67031 -25.4797 0
6.33731 -5.4818 -25.5753 0
7.48937 -5.59373 -25.5217 0
-0.570523 -5.76681 -25.3843 0
3.78659 8.40395 -25.006 0
-3.88186 7.7747 -25.7309 0
-8.13748 1.00467 -25.7022 0
-5.1207 0.949662 -25.3857 0
-8.60749 0.936845 -25.6968 0
-4.11409 0.751523 -25.4197 0
-8.3822 0.735683 -25.6009 0
-4.00587 0.707556 -25.44 0
-4.25777 0.659242 -25.4335 0
7.4751 0.490548 -25.1261 0
-4.08624 0.332581 -25.4476 0
-0.671858 0.269922 -25.5231 0
-4.09768 0.205169 -25.4547 0
-4.67832 0.142052 -25.5281 0
-4.44497 -0.136517 -25.5343 0
-4.44497 -0.136517 -25.5343 0
-3.60106 -0.288358 -25.4787 0
-4.00891 -0.708247 -25.5396 0
-0.539638 -1.66925 -25.3483 0
0.27546 -1.95332 -25.3077 0
0.465934 -1.97131 -25.2714 0
-1.00752 -2.08797 -25.105 0
5.48358 -2.85513 -25.2501 0
4.68172 -2.85335 -25.4133 0
-2.50355 -3.10482 -25.3608 0
5.00488 -3.17691 -25.4768 0
-4.00412 -3.18978 -25.4343 0
4.1459 -3.24968 -25.4853 0
5.27827 -4.91346 -25.4171 0
-2.5527 -4.94428 -25.4417 0
8.20224 -5.68564 -25.4814 0
2.11034 8.02733 -24.9628 0
-6.02368 5.82368 -24.9588 0
-6.36599 5.57437 -24.9729 0
-6.79324 5.3315 -24.9574 0
-1.48666 3.19748 -25.8999 0
-4.2656 2.55565 -25.7827 0
-4.13051 0.590459 -25.4434 0
-8.5564 0.247604 -25.0687 0
-3.8856 0.196254 -25.4421 0
-4.53068 -0.0651448 -25.5384 0
-4.04883 -0.0906138 -25.4841 0
6.2247 -0.179908 -25.0973 0
-3.9893 -0.458681 -25.5448 0
-0.613167 -1.09714 -25.2903 0
5.45222 -1.34604 -25.2757 0
7.84728 -2.35992 -25.2756 0
7.85522 -2.83036 -25.2841 0
4.63155 -3.03072 -25.4831 0
3.52164 -3.068 -25.3983 0
7.6872 -3.2052 -25.3098 0
4.57465 -3.21662 -25.4763 0
3.06083 -3.88509 -25.4619 0
-1.99846 -4.42426 -25.4202 0
-0.314018 -4.94159 -25.4635 0
-3.28187 -5.55828 -25.5248 0
-0.451249 6.98687 -24.9335 0
-1.28283 6.9106 -24.9495 0
-6.07356 5.54258 -25.0079 0
2.28152 3.53469 -25.9568 0
3.16404 3.1117 -25.7971 0
0.742128 3.03904 -25.9577 0
0.799294 2.76774 -25.9221 0
5.01921 -0.584569 -25.0917 0
8.16192 -2.80434 -25.2876 0
4.92995 -2.84635 -25.3365 0
7.09945 -3.10649 -25.2716 0
-3.05613 -3.62271 -25.5684 0
3.18918 -3.79996 -25.4578 0
-2.69241 -4.3995 -25.4736 0
-5.74454 -4.46115 -25.0679 0
7.65702 -8.33109 -26.3887 0
4.99235 7.84694 -25.0562 0
1.1392 7.5949 -24.9664 0
-5.82888 7.06783 -24.9211 0
-6.08735 7.00465 -24.9677 0
-6.69531 6.20173 -24.9686 0
-6.44792 5.46431 -24.9579 0
-0.183496 -1.66041 -25.3934 0
6.40157 -2.41563 -25.2521 0
7.29087 -2.74231 -25.2488 0
5.29558 -2.78967 -25.2558 0
5.55443 -3.27627 -25.3852 0
-1.18201 -5.76133 -25.4207 0
-1.89219 -6.47575 -25.4262 0
6.54355 -7.73627 -26.2399 0
0.194175 7.39309 -24.9449 0
-7.13182 5.16321 -24.9396 0
1.32348 2.46627 -25.6041 0
-4.46127 -0.63643 -25.5542 0
5.61289 -1.55615 -25.2693 0
6.0115 -2.42928 -25.2641 0
5.6862 -2.7304 -25.2757 0
-2.44459 -3.29722 -25.3823 0
-2.83808 -3.5816 -25.5 0
-0.123378 -4.6197 -25.4857 0
4.88656 -5.08699 -25.3367 0
-3.03074 -5.49692 -25.513 0
-4.26759 -7.80514 -25.4853 0
8.05915 -8.21248 -25.7604 0
-6.26387 1.05174 -25.0083 0
-4.65732 0.105018 -25.5185 0
6.95097 -2.83663 -25.2235 0
-2.66607 -2.9685 -25.4293 0
-1.93487 -3.47134 -25.4026 0
4.61011 -4.27029 -25.327 0
2.44796 -5.10755 -25.2713 0
5.39375 -5.27705 -25.4473 0
-6.25896 -7.86065 -22.3252 0
2.97087 -3.98866 -25.4381 0
-2.38072 -4.64166 -25.4619 0
5.77892 -5.41246 -25.6311 0
-2.26085 -6.61024 -25.5854 0
1.12624 2.93513 -25.9493 0
5.53284 -1.85548 -25.2712 0
2.84249 -1.35993 -25.4763 0
-2.7055 -3.13224 -25.4809 0
2.37943 -3.53003 -25.196 0
0.517691 -4.78484 -25.4085 0
4.52951 -5.30531 -25.4003 0
