ply
format ascii 1.0
element vertex 302
property float x
property float y
property float z
property uchar intensity
end_header
0.767514 4.72016 -25.6118 0
-7.7304 4.64365 -25.3901 0
0.791226 4.42746 -25.6217 0
-7.40918 4.37616 -25.3546 0
-2.9907 2.6782 -25.5568 0
-3.87315 2.55568 -25.064 0
6.94444 2.57006 -25.0295 0
6.14797 1.53502 -25.196 0
7.5222 1.36629 -25.159 0
2.60848 1.06928 -25.1092 0
4.90017 -5.30599 -25.4144 0
0.686968 4.70677 -25.6148 0
-3.62932 4.50909 -25.5004 0
-2.74089 4.36631 -25.471 0
0.721593 4.34072 -25.6075 0
0.581767 4.12916 -25.527 0
-3.25151 3.80659 -25.5024 0
-7.84863 3.43345 -25.4897 0
-2.74451 3.30132 -25.4786 0
-2.67063 3.22261 -25.4829 0
-2.6897 2.94179 -25.5373 0
-7.87798 2.90919 -25.4142 0
-7.87357 2.82457 -25.4182 0
-1.35499 2.55474 -25.4839 0
7.11293 2.56639 -25.0343 0
7.43873 2.55876 -25.0795 0
-7.49144 2.57406 -25.4928 0
-3.12585 2.25605 -25.4641 0
7.56848 2.14162 -25.0706 0
-7.90818 2.00578 -25.408 0
6.97898 1.3943 -25.0947 0
2.50555 1.08299 -25.1087 0
5.16693 0.748766 -25.2385 0
2.92559 0.686295 -25.2999 0
5.57693 -0.892864 -25.5617 0
2.81713 -0.939507 -25.2874 0
4.70669 -5.34256 -25.4236 0
3.06556 -5.59812 -26.0667 0
1.51039 -5.90286 -26.0617 0
0.103797 -6.11731 -25.9326 0
-0.658317 -6.21781 -25.9179 0
-1.00732 -6.27095 -25.8997 0
-1.00732 -6.27095 -25.8997 0
-1.84719 -6.41411 -25.8956 0
-3.47972 -6.54334 -25.8464 0
-7.17188 -7.582 -26.1156 0
-3.62334 4.40147 -25.5 0
-0.947065 4.35584 -25.554 0
-2.77232 4.11491 -25.5049 0
0.54374 3.6661 -25.4037 0
-7.73064 3.15171 -25.5249 0
-3.46772 3.05371 -25.2818 0
-3.21431 2.93206 -25.4276 0
-3.46002 2.92697 -25.261 0
3.51445 2.81643 -25.1151 0
-3.20217 2.78931 -25.4486 0
-3.42788 2.61403 -25.2617 0
-7.57559 2.6092 -25.4977 0
7.28203 2.56505 -25.0554 0
-2.7455 2.53029 -25.5552 0
-2.7455 2.53029 -25.5552 0
-7.36796 2.5073 -25.4829 0
7.49892 2.48049 -25.0928 0
-1.33967 2.3973 -25.5013 0
6.1611 1.44713 -25.1995 0
7.07739 1.40087 -25.092 0
-0.985177 1.29574 -25.236 0
2.65335 0.967701 -25.1035 0
4.2589 0.854607 -25.2235 0
-3.82273 0.779146 -25.2806 0
4.72215 0.752025 -25.251 0
-4.55042 0.382252 -25.1894 0
-3.29131 -0.11494 -25.3012 0
3.5983 -0.770925 -25.2419 0
4.37303 -0.819077 -25.3052 0
4.41824 -0.891139 -25.286 0
5.47629 -0.950134 -25.5613 0
-7.72088 -3.78027 -25.4894 0
4.89807 -5.39638 -25.4194 0
4.25916 -5.51961 -25.7229 0
3.58987 -5.58079 -26.1047 0
-0.164243 -6.16067 -25.9223 0
-3.6706 -7.08433 -26.0506 0
-5.91906 -7.30617 -26.0382 0
-7.91167 -7.4036 -26.146 0
-8.76901 -7.72568 -26.1733 0
-8.18144 -7.72394 -26.1671 0
-6.33792 -7.7251 -26.0723 0
1.14071 5.91138 -25.7678 0
0.827693 4.66653 -25.6005 0
0.842481 4.52344 -25.6079 0
-7.90107 4.43061 -25.4376 0
-3.16587 3.62438 -25.5114 0
-3.04431 3.31387 -25.4512 0
3.96233 2.78415 -25.1043 0
3.41297 2.77737 -25.0558 0
3.33263 2.71595 -25.0149 0
-7.51518 2.69658 -25.4997 0
-2.63304 2.585 -25.5408 0
-7.52854 2.48804 -25.4894 0
-3.6345 2.42879 -25.1988 0
-0.503939 1.63167 -25.4061 0
8.25404 1.54337 -25.1202 0
7.4847 1.43668 -25.1613 0
-1.12363 1.11158 -25.131 0
2.86944 1.08902 -25.1256 0
-0.713622 1.01368 -25.1704 0
-0.385826 0.919353 -25.2391 0
4.91281 0.744223 -25.2477 0
4.80667 0.672438 -25.2442 0
-3.57056 0.328169 -25.2253 0
6.2692 -0.832368 -25.2459 0
-3.19305 -0.862096 -25.3945 0
6.24366 -0.928122 -25.2446 0
3.96657 -1.02299 -25.2775 0
4.36495 -1.05851 -25.2785 0
4.78516 -1.10238 -25.2541 0
-3.01389 -1.1885 -25.3966 0
7.60796 -1.29951 -25.5003 0
0.96426 -1.68523 -25.5081 0
-0.533931 -1.81414 -25.3767 0
4.81887 -2.85904 -25.368 0
1.70695 -4.84699 -25.7121 0
0.99054 -5.99154 -26.0229 0
0.99054 -5.99154 -26.0229 0
-2.27258 -6.71206 -25.9836 0
-2.27258 -6.71206 -25.9836 0
-2.7007 -7.22187 -26.0788 0
-3.14133 -7.21995 -26.0953 0
-3.08498 -7.29245 -26.0621 0
-5.5924 -7.35813 -26.0312 0
-7.59015 -7.47159 -26.1436 0
-3.23907 -7.7176 -26.0004 0
-6.59132 -7.9221 -26.1458 0
-3.61917 6.41437 -25.8371 0
-3.76173 6.38295 -25.8317 0
-3.91427 6.39348 -25.8131 0
-5.60916 6.2277 -25.7778 0
-5.7505 6.23214 -25.79 0
1.15152 6.07441 -25.9501 0
5.91972 5.82599 -25.7141 0
3.55012 5.6936 -25.6171 0
3.67222 5.34384 -25.75 0
3.67222 5.34384 -25.75 0
0.598356 4.59324 -25.5946 0
2.43185 4.35074 -25.6131 0
0.676112 4.10315 -25.5335 0
-2.62855 4.09127 -25.499 0
-0.867764 3.89839 -25.5003 0
-0.554021 3.41854 -25.3594 0
0.723236 3.29105 -25.1735 0
-3.20573 2.13595 -25.3285 0
-7.77558 2.14984 -25.384 0
0.924918 1.87953 -25.1639 0
0.478031 1.59671 -25.5045 0
7.76934 1.52307 -25.3145 0
4.82359 0.899971 -25.2678 0
3.33352 -0.778096 -25.1471 0
7.8982 -0.952064 -25.4435 0
4.55584 -0.940988 -25.2578 0
4.97873 -0.988664 -25.2648 0
4.97873 -0.988664 -25.2648 0
6.61437 -3.57386 -25.3626 0
5.16975 -5.10889 -25.4322 0
5.79353 -5.6018 -25.47 0
3.77182 -5.71251 -26.0309 0
1.83275 -6.01014 -26.0463 0
-7.64445 -6.144 -25.8054 0
6.00828 -6.35029 -25.5873 0
-4.96876 -7.16664 -26.0266 0
-4.96876 -7.16664 -26.0266 0
-4.04787 -7.45231 -26.0808 0
-8.8519 -7.65249 -26.1722 0
-8.41989 -7.68512 -26.1618 0
5.89628 -7.61714 -25.6085 0
5.88102 -7.9789 -25.6258 0
-7.59677 -8.11946 -26.1643 0
-8.48297 -8.24763 -26.1483 0
-5.64282 -8.37387 -26.1083 0
3.0084 6.77551 -26.0314 0
-0.951093 6.61279 -25.9188 0
0.736096 5.54668 -25.5756 0
7.80761 5.55061 -25.7706 0
0.74752 5.2063 -25.605 0
-0.359372 3.50271 -25.4017 0
-0.479767 2.5203 -25.1859 0
7.58143 1.54054 -25.1988 0
0.66969 1.39287 -25.4941 0
0.391726 1.21082 -25.4717 0
0.0841842 1.04032 -25.4957 0
-3.28463 0.170915 -25.2884 0
-3.06327 -0.649295 -25.3903 0
4.92746 -0.838592 -25.2797 0
-1.56808 -2.37964 -25.282 0
6.44467 -5.1388 -25.4569 0
4.03905 -5.1762 -25.5337 0
5.66571 -5.35104 -25.4468 0
4.09536 -5.49271 -25.8208 0
3.17454 -5.49847 -26.0921 0
4.55948 -5.53175 -25.5039 0
3.47906 -5.62101 -26.0892 0
2.40016 -5.61366 -26.0335 0
3.24031 -5.6484 -26.0922 0
2.29037 -5.78225 -26.0713 0
2.29037 -5.78225 -26.0713 0
0.837787 -5.91338 -25.9358 0
5.80632 -6.62611 -25.8394 0
6.19731 -6.73891 -26.1167 0
-8.29009 -6.89046 -26.0624 0
-3.8367 -7.10438 -26.0552 0
-8.0615 -7.37161 -26.1378 0
-8.4861 -8.24797 -26.1483 0
8.21325 5.589 -25.7824 0
-8.14238 4.55644 -25.4287 0
-8.30199 4.00779 -25.3965 0
-7.17705 2.36837 -25.4823 0
-2.69432 0.678709 -25.3592 0
-2.57052 0.311066 -25.3613 0
5.92175 0.267253 -25.2259 0
5.31022 -0.867375 -25.5316 0
5.31022 -0.867375 -25.5316 0
5.71456 -0.884335 -25.5606 0
5.22549 -1.04326 -25.3225 0
5.44212 -1.1078 -25.3613 0
5.25826 -1.28697 -25.2852 0
-3.8004 -1.61341 -25.4045 0
4.2031 -2.11256 -25.3495 0
4.54416 -5.2386 -25.4358 0
4.54416 -5.2386 -25.4358 0
3.71512 -5.56761 -26.0512 0
5.68847 -5.67577 -25.4604 0
2.09488 -5.82295 -26.0561 0
6.08783 -6.18916 -25.4881 0
-8.00183 -6.50425 -25.9557 0
-2.41249 -7.09196 -26.0298 0
7.01001 -7.18095 -25.6025 0
-4.32328 -7.73914 -26.0278 0
-7.9782 -7.86344 -26.141 0
7.08314 -8.17554 -25.6915 0
-5.35654 -8.25423 -26.1057 0
-5.81916 -8.3756 -26.0573 0
3.83937 5.48606 -25.6378 0
0.449467 3.52533 -25.0671 0
-3.14939 3.47272 -25.4928 0
-3.0756 2.74133 -25.5435 0
8.0439 1.5558 -25.1536 0
5.82438 0.93106 -25.2292 0
-2.81753 0.891084 -25.4351 0
5.66659 0.593391 -25.1949 0
-2.35651 0.27863 -25.366 0
6.13088 -0.650616 -25.2357 0
-2.18952 -0.711131 -25.4177 0
8.13292 -0.992107 -25.4505 0
6.32678 -1.13841 -25.2423 0
6.76862 -1.17565 -25.2339 0
-0.281298 -1.51552 -25.2927 0
-3.52336 -1.62177 -25.4124 0
1.33134 -2.12986 -25.4734 0
3.75778 -2.68228 -25.3899 0
4.41573 -4.92392 -25.421 0
4.78743 -5.34187 -25.4188 0
4.78743 -5.34187 -25.4188 0
5.03671 -5.48215 -25.4256 0
1.87494 -5.75255 -26.0467 0
-2.50503 -6.38702 -25.835 0
-6.33025 -7.42486 -26.0692 0
-5.6633 -7.72859 -26.0586 0
-5.6633 -7.72859 -26.0586 0
-2.35361 -7.7539 -26.0015 0
-6.36344 7.06491 -26.0316 0
1.70732 5.34884 -25.5641 0
-5.63277 5.24035 -25.4125 0
4.81799 0.847706 -25.2622 0
-2.1488 0.0580981 -25.3826 0
7.68665 -1.45186 -25.4842 0
4.19828 -2.97719 -25.3533 0
-7.52595 -3.12121 -25.4627 0
5.60929 -3.38275 -25.3167 0
5.86344 -6.85726 -25.8399 0
-8.52388 -6.98142 -26.1034 0
-4.79407 -7.01319 -26.0374 0
-7.84947 -7.70084 -26.1516 0
-4.33857 -8.13333 -26.0288 0
-3.50141 0.604062 -25.3042 0
5.82569 -0.0771201 -25.247 0
0.201311 -1.75887 -25.4972 0
1.51809 5.85228 -25.649 0
0.395702 5.50137 -25.5103 0
-2.1926 5.1233 -25.4646 0
-2.75861 0.474102 -25.3598 0
3.33959 -2.68539 -25.3274 0
-2.10201 -6.53199 -25.9126 0
6.01343 -6.83033 -25.9262 0
6.03252 -7.34005 -25.6307 0
-3.49021 -7.34269 -26.0416 0
-2.32811 -7.36838 -26.0201 0
-2.91275 -7.55077 -25.9938 0
-2.23408 -8.1102 -26.0067 0
2.59308 1.21643 -25.0984 0
3.21345 0.952398 -25.1575 0
7.46112 -5.07955 -25.4505 0
6.95736 -6.51866 -25.5701 0
