ply
format ascii 1.0
element vertex 320
property float x
property float y
property float z
property uchar intensity
end_header
2.31073 4.34804 -25.6195 0
-0.114121 3.99205 -25.525 0
-8.31356 3.88821 -25.4739 0
-3.53197 2.8322 -25.4862 0
7.87595 2.60586 -25.6127 0
-4.62785 2.103 -25.0713 0
5.30713 1.19681 -25.0357 0
1.73068 0.741002 -25.0799 0
1.83933 0.730335 -25.0872 0
4.16174 -5.39485 -25.3835 0
1.74032 4.2694 -25.5929 0
-0.0383011 4.01067 -25.5228 0
-0.0383011 4.01067 -25.5228 0
-7.96632 4.01517 -25.4782 0
-4.42733 3.94394 -25.4207 0
-0.241134 3.71039 -25.5204 0
-3.56571 3.66941 -25.5149 0
-4.05316 3.3625 -25.4963 0
-8.63422 2.91936 -25.0596 0
-3.46487 2.7865 -25.4952 0
-3.47914 2.49643 -25.3833 0
-8.69538 2.42607 -25.0941 0
6.2734 2.27087 -25.5865 0
-2.10284 2.1467 -25.5228 0
6.66031 1.84879 -25.0242 0
4.35344 0.440491 -25.1984 0
2.1463 0.358151 -25.0983 0
3.51238 -1.05085 -25.2013 0
3.63662 -1.17702 -25.2313 0
2.06738 -1.25137 -25.2738 0
3.98082 -5.44246 -25.3849 0
4.15729 -5.50793 -25.3959 0
4.08509 -5.50706 -25.3819 0
2.18734 -5.84391 -25.6438 0
0.421811 -6.09458 -25.6078 0
-0.45871 -6.26667 -25.9382 0
-4.49892 -7.71978 -25.8166 0
-4.00235 -8.20704 -25.9715 0
6.80677 5.90354 -26.1544 0
0.966355 5.40062 -25.9825 0
0.0116627 4.10787 -25.5085 0
-4.44554 4.0497 -25.4202 0
-3.74432 2.59376 -25.4096 0
-8.53256 2.63638 -25.227 0
7.35763 2.60411 -25.5913 0
2.7112 2.46648 -25.5529 0
7.77799 2.41739 -25.6148 0
6.42709 2.2716 -25.5816 0
-8.65091 2.26288 -25.0178 0
-3.67282 2.19652 -25.241 0
6.62359 2.17963 -25.5722 0
-1.79632 2.12906 -25.5249 0
-1.86189 2.08333 -25.5236 0
-3.50609 2.08818 -25.2448 0
-3.50609 2.08818 -25.2448 0
-8.27051 2.07116 -25.1765 0
-4.42057 1.97129 -25.0668 0
7.94704 1.47098 -25.269 0
-1.99194 1.20558 -25.5139 0
6.04214 1.11054 -25.0345 0
1.88131 0.625607 -25.0931 0
1.67355 0.583413 -25.1179 0
3.90366 0.443608 -25.11 0
-4.19798 -0.098305 -25.1994 0
-4.26851 -0.099541 -25.1772 0
-3.96965 -0.496417 -25.1068 0
3.59833 -1.10106 -25.2152 0
3.43712 -1.10173 -25.1814 0
-3.57698 -1.13519 -25.3389 0
4.65608 -1.21804 -25.2477 0
6.73317 -1.51207 -25.2587 0
-0.240675 -2.51805 -25.3289 0
2.40318 -5.6661 -25.6355 0
5.30774 -5.79908 -25.4333 0
-0.178846 -6.21162 -25.9556 0
7.95782 -6.72493 -25.566 0
7.95782 -6.72493 -25.566 0
-4.00984 -6.77736 -25.8902 0
8.30048 -7.00177 -25.6048 0
-4.45035 -7.14232 -25.8143 0
-6.33947 -7.54647 -25.7487 0
-8.35785 -7.72809 -26.1657 0
-5.00588 -7.95605 -25.8359 0
-6.76595 -7.99283 -25.8144 0
-7.00266 -8.17967 -25.869 0
-4.2818 -8.36459 -25.9379 0
-8.38479 5.10039 -25.7369 0
-0.00560322 4.24836 -25.4558 0
-3.5213 4.01916 -25.4997 0
0.0184609 3.96192 -25.5233 0
-3.94696 3.10449 -25.4054 0
-3.76243 2.77507 -25.4009 0
-3.76243 2.77507 -25.4009 0
2.60518 2.42749 -25.5227 0
-8.5255 2.47035 -25.2036 0
2.52342 2.36653 -25.5081 0
3.18893 2.26259 -25.5469 0
3.38498 2.2191 -25.5557 0
-4.2106 2.18467 -25.0215 0
-8.30712 2.19457 -25.2214 0
-3.41406 2.13935 -25.267 0
5.31383 1.78724 -25.0082 0
-3.89783 1.78413 -25.1086 0
7.33204 1.62953 -25.0942 0
0.184987 1.51816 -25.3193 0
7.45921 1.53371 -25.1263 0
7.59345 1.32846 -25.1324 0
7.33446 1.26261 -25.0454 0
4.09256 0.4336 -25.1241 0
3.99514 0.36463 -25.1242 0
-3.30397 0.150544 -25.3011 0
7.02294 -1.16162 -25.3033 0
5.43105 -1.18225 -25.2683 0
-3.96952 -1.17627 -25.3591 0
-3.86034 -1.26431 -25.3593 0
3.19566 -1.30688 -25.2159 0
3.58805 -1.33341 -25.2359 0
4.00783 -1.37096 -25.2632 0
0.280406 -2.04019 -25.4771 0
-1.22897 -2.16266 -25.1891 0
4.66172 -3.67014 -25.3979 0
5.51092 -3.73743 -25.3854 0
-8.31896 -4.2039 -25.4385 0
7.43154 -4.9779 -25.4486 0
-5.4012 -7.39804 -25.7892 0
-5.4012 -7.39804 -25.7892 0
-3.58366 -7.51852 -26.0619 0
5.24311 -7.86974 -25.5279 0
-3.70075 -7.89988 -25.9792 0
-1.73081 6.11957 -25.7867 0
0.331852 5.60488 -25.9441 0
-6.44329 5.66755 -25.7269 0
0.33331 5.40386 -25.956 0
0.33331 5.40386 -25.956 0
4.99484 5.43291 -26.0243 0
2.69919 5.29332 -25.9522 0
-0.0615713 5.10831 -25.9068 0
2.81212 4.94188 -25.9475 0
2.81212 4.94188 -25.9475 0
-0.230068 4.17221 -25.4948 0
1.55735 3.94558 -25.6294 0
-0.144344 3.69166 -25.5287 0
-1.62356 3.48071 -25.4884 0
-3.97026 3.25597 -25.4688 0
-1.32012 3.0072 -25.4673 0
-4.33381 2.8982 -25.3227 0
-3.8332 2.86583 -25.375 0
-8.64661 2.69575 -25.2052 0
2.44974 2.12681 -25.4459 0
-8.31357 1.99292 -25.1111 0
7.03523 1.75156 -25.0247 0
-8.52976 1.65198 -25.0264 0
6.8404 1.24688 -25.0203 0
3.99856 0.591075 -25.1093 0
-4.54952 0.369116 -25.0327 0
-1.04433 0.266184 -25.1014 0
-3.9657 -0.234273 -25.192 0
4.10644 -0.98379 -25.2712 0
5.49093 -1.08859 -25.2643 0
2.59148 -1.07434 -25.2759 0
3.77425 -1.21836 -25.2462 0
2.13871 -1.66133 -25.2739 0
6.49572 -1.83786 -25.2394 0
-4.42474 -2.02804 -25.4074 0
4.42681 -5.18013 -25.3725 0
5.03976 -5.61441 -25.4375 0
2.49664 -5.56922 -25.514 0
2.79057 -5.66939 -25.4441 0
3.08686 -5.75225 -25.4251 0
2.88836 -5.78876 -25.4436 0
2.68783 -5.82011 -25.4305 0
1.84654 -5.99911 -25.7254 0
4.45842 -6.05706 -25.4459 0
5.30089 -6.35225 -25.467 0
7.94817 -6.48671 -25.5003 0
7.9899 -6.61219 -25.5371 0
7.9899 -6.61219 -25.5371 0
8.32233 -6.81533 -25.5886 0
-2.80372 -6.90092 -25.7252 0
-8.75817 -7.2499 -26.2268 0
5.31673 -7.37671 -25.6943 0
-4.50542 -7.65076 -25.766 0
-4.34867 -7.74195 -25.903 0
-3.09859 -7.76728 -25.8078 0
-4.00189 -7.89251 -26.0309 0
5.18054 -7.9594 -25.5732 0
-4.91184 -8.01908 -25.8399 0
-6.42526 -8.09859 -25.7676 0
-6.42526 -8.09859 -25.7676 0
-8.02187 -8.40246 -25.9887 0
-4.41038 -8.35996 -25.9247 0
6.71901 6.83224 -25.8914 0
6.5267 6.81503 -25.8864 0
-4.33343 5.89382 -25.7964 0
1.87147 5.84145 -25.9322 0
-4.66802 5.87107 -25.7929 0
-0.0504888 4.80681 -25.9077 0
-3.40529 3.68179 -25.5111 0
6.67127 1.2529 -25.0287 0
-0.283311 1.23544 -25.3699 0
-0.102724 0.99848 -25.4074 0
-0.375632 0.819411 -25.3562 0
-0.675904 0.646425 -25.2025 0
1.78046 0.635854 -25.093 0
-6.83208 0.362862 -25.4365 0
-7.73048 -0.897835 -25.3584 0
4.64244 -1.36194 -25.2507 0
-3.63495 -1.51485 -25.3938 0
7.53664 -1.57294 -25.3899 0
-6.36915 -2.33849 -25.4232 0
-6.36915 -2.33849 -25.4232 0
-2.25291 -2.75592 -25.3282 0
3.32341 -5.2611 -25.3885 0
4.91179 -5.43138 -25.4287 0
3.06676 -5.46111 -25.4246 0
3.40425 -5.55035 -25.418 0
3.86957 -5.58726 -25.4191 0
3.00078 -5.62501 -25.4457 0
4.94674 -5.73659 -25.4258 0
2.58241 -5.70267 -25.5188 0
1.74376 -5.71279 -25.6196 0
2.24182 -5.77151 -25.6637 0
1.6461 -5.86219 -25.6304 0
1.6461 -5.86219 -25.6304 0
5.00864 -6.62856 -25.4694 0
5.43108 -6.70245 -25.4803 0
-2.81489 -6.90306 -25.7258 0
-4.2825 -7.31046 -25.9725 0
5.658 -7.53925 -25.7114 0
-8.50604 -7.7078 -26.2544 0
5.15927 -7.64553 -25.8803 0
6.30107 -8.10173 -25.5815 0
6.30107 -8.10173 -25.5815 0
-4.61938 -8.20495 -25.843 0
-6.01822 -8.30226 -25.8213 0
-4.6902 5.86458 -25.7919 0
-6.75468 5.23376 -25.7504 0
2.65312 3.5065 -25.5897 0
-0.343621 3.13616 -25.5332 0
-1.19343 0.517059 -25.2695 0
5.0961 -0.00879776 -25.2365 0
-3.06616 -0.14276 -25.3216 0
4.88835 -1.14577 -25.2421 0
4.49392 -1.13463 -25.2476 0
4.49392 -1.13463 -25.2476 0
4.05332 -1.27493 -25.2658 0
4.43307 -1.31243 -25.2491 0
-3.03417 -1.30369 -25.3991 0
7.99595 -1.57443 -25.3537 0
4.53137 -1.54157 -25.216 0
-4.83231 -3.26544 -25.3325 0
2.62593 -4.69529 -25.3976 0
3.84219 -5.32604 -25.3789 0
3.84219 -5.32604 -25.3789 0
4.32733 -5.5485 -25.4161 0
5.36064 -6.21971 -25.4596 0
4.99913 -6.63039 -25.4694 0
-2.56404 -7.05438 -25.7348 0
6.23108 -7.11504 -25.5039 0
-2.90391 -7.25953 -25.8162 0
-8.41509 -8.18131 -26.3039 0
-7.07049 6.49418 -25.4805 0
-7.28954 6.31302 -25.4544 0
-7.02175 6.14059 -25.4707 0
2.94519 5.10857 -25.9613 0
-3.93915 3.02437 -25.3789 0
-3.84181 2.29316 -25.1756 0
7.12591 1.27276 -25.0301 0
4.9861 0.629566 -25.1762 0
-3.52775 0.480573 -25.2886 0
4.84369 0.282256 -25.2455 0
-3.39447 0.274999 -25.3013 0
-3.2697 -0.0784958 -25.2906 0
-2.85985 -0.293266 -25.3697 0
-3.73913 -0.257778 -25.217 0
5.30967 -0.921306 -25.2543 0
7.25142 -1.21107 -25.358 0
5.51906 -1.38301 -25.3135 0
5.93812 -1.41796 -25.2597 0
-4.19459 -2.02091 -25.3951 0
3.46661 -2.36153 -25.3132 0
0.633854 -2.42435 -25.4802 0
3.03828 -2.91225 -25.3135 0
3.46903 -3.19787 -25.3396 0
-8.13988 -3.5595 -25.4578 0
3.7162 -5.00975 -25.3734 0
4.07805 -5.41582 -25.3768 0
1.24946 -5.86394 -25.5894 0
-2.98642 -6.57866 -25.5296 0
5.1009 -6.86155 -25.5429 0
-4.38216 -7.03166 -25.8765 0
-6.74069 -7.6941 -25.8284 0
-2.83913 -7.92474 -25.9084 0
0.902307 4.94061 -25.9248 0
-6.38256 4.74926 -25.6987 0
-8.41102 1.20386 -24.983 0
-3.47414 -1.33303 -25.3743 0
6.82491 -1.6681 -25.2859 0
7.29323 -1.69511 -25.3832 0
3.87654 -3.41188 -25.3746 0
4.83844 -3.60097 -25.4306 0
-4.1919 0.187779 -25.2667 0
-0.496284 -2.11047 -25.2135 0
2.57045 -5.83445 -25.5739 0
-2.59929 -6.72278 -25.7466 0
-2.727 -8.28012 -26.0192 0
0.700553 5.42917 -25.942 0
-0.388866 5.09336 -25.8892 0
-2.95502 4.69283 -25.829 0
-3.45326 0.0718348 -25.2912 0
3.26342 -1.41655 -25.2203 0
5.25786 -6.82771 -25.5002 0
5.32255 -7.34706 -25.6861 0
-2.82149 -7.54393 -25.824 0
-3.97094 -7.52383 -26.081 0
-3.38975 -7.74058 -25.8729 0
1.82115 0.872153 -25.0877 0
2.42221 0.614139 -25.0835 0
6.63199 -5.18233 -25.4084 0
6.18875 -6.50494 -25.4618 0
