ply
format ascii 1.0
element vertex 148
property float x
property float y
property float z
property uchar intensity
end_header
-4.33019 -3.22931 246.466 0
-4.63401 -2.40669 439.844 0
-1.58177 -1.86669 354.82 0
-6.50748 -3.1633 247.092 0
-1.56993 -1.46232 314.598 0
-3.55664 -1.8996 419.863 0
-7.51678 -3.11935 247.267 0
-2.2876 -1.18872 317.641 0
-1.05788 -0.821318 241.894 0
-2.37801 -1.08735 322.893 0
-1.38735 -0.593662 255.053 0
-3.09724 -0.668274 288.118 0
-2.72361 -0.542742 320.584 0
-5.61751 -1.97221 246.793 0
-5.38365 -1.88343 246.738 0
-6.57957 -1.671 246.971 0
-6.3542 -1.57637 246.919 0
-9.4796 -1.49436 246.875 0
-8.74196 -0.982462 239.959 0
-13.4023 -17.3828 251.592 0
-1.71478 -1.98105 354.789 0
-4.07886 -2.97633 246.352 0
-1.20038 -1.56818 378.133 0
-7.96354 -3.15462 247.46 0
-7.96354 -3.15462 247.46 0
-5.69718 -2.64534 246.877 0
-6.84257 -2.78019 247.129 0
-2.4236 -0.674361 296.175 0
-11.0874 -3.08866 247.052 0
-9.16214 -2.55945 247.226 0
-8.83951 0.141353 254.694 0
-11.4134 -2.49582 246.725 0
-10.306 0.607699 265.202 0
-8.03591 -1.01402 240.306 0
-12.5244 -16.5219 251.007 0
-21.6007 -22.5376 256.48 0
-21.6007 -22.5376 256.48 0
-12.287 -13.6332 250.256 0
-10.2214 -10.407 248.848 0
-13.1293 -11.6122 249.941 0
-9.61335 -9.60138 248.541 0
-5.99195 -6.95169 247.035 0
-7.21808 -6.01765 247.435 0
-8.82809 -6.24062 247.868 0
-8.82809 -6.24062 247.868 0
-6.93731 -5.5195 247.332 0
-8.46073 -5.68373 247.724 0
-8.46073 -5.68373 247.724 0
-4.57146 -4.01727 246.509 0
-5.71667 -4.00756 246.923 0
-8.21318 -4.53245 247.496 0
-8.63941 -4.60137 247.713 0
-4.45375 -3.16039 246.521 0
-1.69244 -1.39825 278.635 0
-6.31948 -2.96283 247.003 0
-1.64569 -1.21908 303.694 0
-4.70021 -2.5721 246.558 0
-1.92109 -1.15466 312.431 0
-1.95418 -0.537806 266.685 0
-2.96057 -0.496054 289.018 0
-7.08252 -0.305495 247.728 0
-6.51585 -1.16806 247.163 0
-10.0296 -1.53159 246.802 0
-12.0514 -10.4412 249.403 0
-5.77868 -3.29586 246.903 0
-6.16455 -2.76956 246.991 0
-7.90227 -2.93382 247.258 0
-1.66366 -0.9014 298.482 0
-6.59643 -2.61646 247.056 0
-5.42857 -2.27329 246.822 0
-3.05518 -0.67592 306.609 0
-7.69712 -2.57976 247.207 0
-7.69712 -2.57976 247.207 0
-5.06241 -2.11313 246.674 0
-7.9201 -2.39838 247.182 0
-6.30013 -1.8372 246.932 0
-6.30013 -1.8372 246.932 0
-7.43462 -0.0828995 245.452 0
-7.43462 -0.0828995 245.452 0
-8.98386 -0.0296153 254.66 0
-11.5358 -2.6873 246.747 0
-9.68131 -1.50319 246.866 0
-9.68131 -1.50319 246.866 0
11.0541 4.85756 352.21 0
-10.6978 -14.2501 249.628 0
-10.6978 -14.2501 249.628 0
-4.18735 -3.53407 246.405 0
-4.18735 -3.53407 246.405 0
-5.68091 -3.50621 246.881 0
-5.68091 -3.50621 246.881 0
-2.58696 -1.80884 342.822 0
-7.36228 -3.47113 247.242 0
-5.50028 -2.97631 246.873 0
-7.27355 -3.122 247.223 0
-3.26786 -1.06067 324.479 0
-3.23922 -0.881357 293.374 0
-5.99437 -1.68665 246.881 0
-10.0935 -1.78584 246.85 0
-9.36826 -1.52639 246.937 0
-10.175 -1.54207 246.731 0
-7.77144 -1.18202 240.459 0
-8.65901 -11.5003 248.341 0
-12.2227 -13.2444 250.13 0
-18.8197 -16.8942 252.829 0
-6.90612 -8.97055 247.47 0
-9.58568 -9.87683 248.555 0
-5.94002 -7.17756 247.061 0
-7.89865 -7.56199 247.776 0
-10.5407 -8.16365 248.517 0
-8.88731 -6.00511 247.836 0
-4.50249 -4.21194 246.525 0
-6.00596 -4.23827 247.01 0
-7.86527 -4.27381 247.426 0
-3.99992 -3.17594 246.376 0
-4.16077 -2.91141 246.384 0
-1.00699 -1.0663 265.243 0
-4.11627 -2.54531 246.393 0
-7.17255 -2.72899 247.189 0
-7.17255 -2.72899 247.189 0
-9.58964 -2.89246 247.271 0
-7.17182 -2.33599 247.131 0
-7.75031 0.230513 237.817 0
-10.1624 -1.53373 246.656 0
-23.6701 -20.7025 254.65 0
-9.60846 -9.89648 248.564 0
-13.0674 -11.2492 249.809 0
-11.9523 -9.26072 249.113 0
-1.14928 -1.87482 376.422 0
-2.06608 -1.16894 271.602 0
-2.06608 -1.16894 271.602 0
-6.84194 -3.10984 247.095 0
-6.84194 -3.10984 247.095 0
-5.3605 -2.59651 246.78 0
-6.27739 -2.14461 246.956 0
-6.6318 -1.84583 246.982 0
-8.9502 -1.59703 247.012 0
-5.10037 -0.725269 334.105 0
-8.02362 -2.00804 247.117 0
-8.02362 -2.00804 247.117 0
-7.22671 0.0167216 255.96 0
-9.75714 -1.99843 246.995 0
-10.8401 -1.69052 246.572 0
-5.94696 -2.41315 246.901 0
-8.80873 -2.60147 247.245 0
-12.973 -15.3317 250.82 0
-17.6702 -17.4111 253.284 0
-4.89013 -3.49354 246.696 0
-7.1786 -4.62163 247.319 0
