ply
format ascii 1.0
element vertex 188
property float x
property float y
property float z
property uchar intensity
end_header
4.24718 2.51751 -110.296 0
4.16856 0.399954 -110.296 0
4.03028 0.363719 -110.296 0
3.67213 0.350103 -119.137 0
4.52211 0.336697 -110.296 0
4.87863 0.293566 -110.296 0
6.69178 0.349656 -188.528 0
55.0945 3.65917 -3542.12 0
3.4085 0.266666 -124.377 0
6.07273 0.244658 -156.559 0
6.07273 0.244658 -156.559 0
-35.5826 -1.59513 2606.33 0
5.72097 0.245112 -261.67 0
16.8637 0.272199 -927.93 0
163.292 1.70854 -8552.53 0
60.5308 0.807036 -3930.76 0
73.2805 0.130557 -3204.87 0
-127.743 0.691331 7159.35 0
57.0961 -0.476968 -3031.44 0
57.3433 -1.30501 -3031.44 0
464.345 -10.0269 -21484.6 0
-54.2457 1.81664 2923.04 0
73.7227 -2.71077 -3665.41 0
-66.6076 3.35439 3166.09 0
4.2678 2.55271 -110.296 0
4.1325 0.425492 -110.296 0
3.96386 0.373517 -110.296 0
4.0737 0.369365 -110.296 0
-21.1896 -1.64317 1559.77 0
-39.7369 -2.28669 2606.33 0
3.04087 0.232843 -116.522 0
5.22768 0.30866 -221.655 0
3.53323 0.19374 -119.392 0
6.27369 0.221571 -158.99 0
6.27369 0.221571 -158.99 0
-44.2471 -1.62331 2606.33 0
148.529 4.26433 -7532.09 0
5.07701 0.202268 -221.655 0
-81.1628 -1.94816 5013.11 0
-19.7853 -0.288151 1559.77 0
69.452 0.474728 -3204.87 0
52.315 -1.02997 -2208.49 0
4.81512 2.40462 -110.296 0
4.81512 2.40462 -110.296 0
4.80432 2.296 -110.296 0
4.26675 2.11163 -110.296 0
4.26675 2.11163 -110.296 0
5.30991 1.97318 -110.296 0
5.30991 1.97318 -110.296 0
5.43186 1.95508 -110.296 0
4.73786 1.68874 -110.296 0
4.10035 1.65875 -110.296 0
5.98935 1.8919 -152.83 0
5.98935 1.8919 -152.83 0
4.72853 1.58191 -110.296 0
2.96001 1.72444 -149.605 0
4.19065 1.31876 -110.296 0
4.19065 1.31876 -110.296 0
3.24033 1.20195 -110.296 0
7.02953 1.53352 -199.716 0
6.35405 1.33167 -159.339 0
6.65373 1.20002 -191.383 0
6.65373 1.20002 -191.383 0
4.6527 0.886463 -110.296 0
4.13202 0.747311 -110.296 0
4.12306 0.646629 -110.296 0
4.12306 0.646629 -110.296 0
4.49213 0.571558 -110.296 0
3.35329 0.568318 -124.829 0
6.71158 0.705757 -188.528 0
6.71158 0.705757 -188.528 0
6.86696 0.672739 -188.528 0
3.3204 0.508691 -121.391 0
3.85918 0.297424 -124.2 0
-26.2677 -1.24519 1559.77 0
-23.6691 -1.10924 1559.77 0
55.7318 2.39641 -2909.44 0
5.15746 0.273579 -221.655 0
45.5693 2.03865 -3068.88 0
-20.7634 -0.710032 1559.77 0
6.53246 0.165649 -170.769 0
-249.421 -3.11706 16353.7 0
16.4754 0.0291089 -914.791 0
74.2587 -0.834289 -3204.87 0
4.80873 2.28957 -110.296 0
5.41278 1.84057 -110.296 0
4.09496 1.65147 -110.296 0
5.98408 1.90075 -152.83 0
6.17993 1.8213 -163.628 0
3.23761 1.13517 -110.296 0
4.12825 0.638851 -110.296 0
6.85824 0.683909 -188.528 0
6.84176 0.61071 -188.528 0
3.32931 0.446082 -122.961 0
6.7038 0.559066 -188.528 0
4.46609 0.407017 -110.296 0
4.59144 0.366957 -110.296 0
17.5121 1.0863 -914.791 0
70.6711 2.67706 -3665.41 0
55.5012 1.63071 -3813.81 0
-42.9191 -0.409214 2606.33 0
89.4229 0.618235 -4224.5 0
90.9542 -0.482846 -4224.5 0
2965.03 -60.7674 -154741 0
2965.03 -60.7674 -154741 0
2.23502 -0.149234 -115.44 0
-64.9883 2.28705 3166.09 0
4.23127 2.35128 -110.296 0
4.23127 2.35128 -110.296 0
4.05187 0.528501 -110.296 0
4.05187 0.528501 -110.296 0
4.54005 0.435509 -110.296 0
4.54005 0.435509 -110.296 0
3.66558 0.412391 -119.213 0
7.82424 0.663484 -387.111 0
7.82424 0.663484 -387.111 0
6.59273 0.414241 -188.528 0
153.316 9.34104 -8552.53 0
6.62239 0.291199 -188.528 0
6.31871 0.237485 -164.824 0
-36.1868 -1.2651 2497.42 0
-38.6995 -1.19654 2606.33 0
-26.9667 -0.608608 1559.77 0
62.2428 -0.159779 -4314.29 0
67.7112 -0.987289 -3391.91 0
67.7112 -0.987289 -3391.91 0
63.1415 -1.71511 -3204.87 0
4.21412 2.06759 -110.296 0
4.15981 1.71127 -110.296 0
4.14653 1.3766 -110.296 0
4.07962 0.703094 -110.296 0
4.55084 0.615216 -110.296 0
3.69724 0.588409 -121.023 0
4.02782 0.431014 -110.296 0
4.11189 0.345279 -110.296 0
346.241 18.8519 -21484.6 0
-35.9738 -2.07271 2606.33 0
-35.9738 -2.07271 2606.33 0
12.6602 0.278881 -492.123 0
12.6602 0.278881 -492.123 0
3.10676 0.0637056 -116.078 0
66.9117 -0.0427644 -3204.87 0
3.69325 -1.2535 -115.49 0
4.2048 2.48883 -110.296 0
5.24752 1.92581 -110.296 0
0.357037 1.90171 -116.869 0
4.68123 1.64376 -110.296 0
3.66705 1.64883 -110.296 0
5.99114 1.80482 -150.081 0
2.79431 1.61372 -140.173 0
2.11136 1.50981 -151.178 0
2.11136 1.50981 -151.178 0
6.96372 1.61731 -199.716 0
3.6031 0.943203 -110.296 0
4.68197 2.32398 -492.123 0
6.58867 1.10023 -184.86 0
3.54731 0.280771 -120.902 0
3.54731 0.280771 -120.902 0
4.94701 0.252363 -110.296 0
4.94701 0.252363 -110.296 0
-600.337 -23.1097 34240.9 0
2.44768 0.0988868 -116.777 0
896.835 19.8787 -62350 0
-26.7641 0.0560564 1559.77 0
69.1823 -1.62055 -3391.91 0
5.38432 2.04656 -110.296 0
5.38432 2.04656 -110.296 0
6.999 2.30407 -189.185 0
6.999 2.30407 -189.185 0
6.24605 1.53605 -155.969 0
74.8029 1.32788 -4224.5 0
-63.7812 1.74276 3166.09 0
-63.7812 1.74276 3166.09 0
2.31853 -0.231087 -115.296 0
5.04364 -2.43746 -113.97 0
1.90584 -2.48889 -110.296 0
0.706723 1.96895 -117.73 0
56.3578 1.0561 -2909.44 0
72.8666 -0.377149 -3204.87 0
8.18998 -0.480559 -282.36 0
3.81971 0.771211 -110.296 0
4.29202 0.471396 -110.296 0
4.29202 0.471396 -110.296 0
4.99412 2.07087 -110.296 0
3.36635 0.98844 -110.296 0
4.8413 0.630659 -110.296 0
4.82091 -2.40114 -113.97 0
3.24576 1.35062 -153.997 0
