ply
format ascii 1.0
element vertex 241
property float x
property float y
property float z
property uchar intensity
end_header
-12.6791 -17.8964 1559.77 0
-12.4727 -7.32099 1559.77 0
-11.9152 -6.96625 1559.77 0
-14.5697 -6.83898 1559.77 0
-16.2468 -6.59644 1559.77 0
-16.2468 -6.59644 1559.77 0
-11.0739 -6.35743 1559.77 0
-17.8823 -6.21515 1559.77 0
-17.8823 -6.21515 1559.77 0
-10.0217 -6.03731 1559.77 0
-10.5943 -5.69928 1559.77 0
-9.5199 -5.62358 1559.77 0
-12.07 -5.42773 1559.77 0
-16.292 -5.41598 1559.77 0
-18.9248 -5.38738 1559.77 0
-10.9832 -5.27497 1559.77 0
-20.5053 -5.25841 1559.77 0
-9.9392 -5.2014 1559.77 0
-15.5697 -5.00625 1559.77 0
-15.2174 -4.92448 1559.77 0
40.7131 8.21287 -2208.49 0
-15.3553 -4.57525 1559.77 0
-19.9714 -4.58632 1559.77 0
-17.4035 -4.28724 1559.77 0
-20.8167 -3.73233 1559.77 0
-22.4321 -3.31377 1559.77 0
-12.6823 -7.16907 1559.77 0
-12.1696 -6.99119 1559.77 0
-11.6013 -6.98389 1559.77 0
-16.5046 -6.61809 1559.77 0
-11.1857 -6.62962 1559.77 0
-17.8155 -6.56514 1559.77 0
-16.0878 -6.35971 1559.77 0
-12.7388 -6.38019 1559.77 0
-18.5995 -6.08483 1559.77 0
-18.5995 -6.08483 1559.77 0
-15.2559 -6.04027 1559.77 0
-18.6363 -5.83718 1559.77 0
-8.81507 -5.78481 1559.77 0
-8.32594 -5.78187 1559.77 0
-13.4632 -5.66054 1559.77 0
-10.6976 -5.15819 1559.77 0
-11.8456 -5.12511 1559.77 0
-21.62 -5.02261 1559.77 0
-23.3149 -4.93159 1559.77 0
-20.8706 -4.89061 1559.77 0
-20.9364 -4.6145 1559.77 0
3.32278 1.62409 -386.584 0
-51.0149 -7.74584 2743.87 0
-24.8425 -4.1804 1559.77 0
-24.4945 -3.93575 1559.77 0
0.627254 0.596523 -117.73 0
3.33082 -1.47262 -114.958 0
-15.7861 -17.2709 1559.77 0
-12.9247 -16.3007 1559.77 0
-18.5301 -15.5423 1559.77 0
-18.5301 -15.5423 1559.77 0
-14.9361 -15.4464 1559.77 0
-14.9361 -15.4464 1559.77 0
-19.2256 -15.4372 1559.77 0
-15.5165 -14.0334 1559.77 0
-12.1097 -13.8517 1559.77 0
-17.6473 -13.7117 1559.77 0
-17.6473 -13.7117 1559.77 0
0.825901 2.38619 -119.705 0
-12.626 -12.0655 1559.77 0
-12.626 -12.0655 1559.77 0
-18.8468 -11.6098 1559.77 0
2.0503 2.85522 -209.991 0
-18.1157 -11.145 1559.77 0
-18.7892 -11.0432 1559.77 0
-0.533956 2.09015 -125.095 0
-0.533956 2.09015 -125.095 0
-9.97864 -10.1768 1559.77 0
-17.3134 -9.9585 1559.77 0
-17.3134 -9.9585 1559.77 0
-17.2554 -9.40416 1559.77 0
-17.2554 -9.40416 1559.77 0
-12.4113 -9.01649 1559.77 0
-14.3963 -8.64851 1559.77 0
-12.3737 -8.48165 1559.77 0
-12.3737 -8.48165 1559.77 0
-14.3481 -8.08377 1559.77 0
-17.8316 -8.00168 1559.77 0
-17.8316 -8.00168 1559.77 0
-18.4937 -7.8633 1559.77 0
2.04773 2.01132 -221.655 0
-9.15455 -7.54001 1559.77 0
-17.7838 -7.43144 1559.77 0
-17.7838 -7.43144 1559.77 0
3.5699 3.35628 -492.123 0
2.41889 2.19596 -288.876 0
-15.5408 -6.20408 1559.77 0
-13.5814 -6.18125 1559.77 0
-15.9555 -6.13217 1559.77 0
-9.79193 -5.89499 1559.77 0
-6.61505 -5.88657 1559.77 0
-10.8063 -5.67557 1559.77 0
-11.6994 -5.32416 1559.77 0
1.91448 0.928352 -167.724 0
-23.2021 -3.02663 1559.77 0
-19.1317 -14.8243 1559.77 0
1.6391 3.12967 -146.677 0
-12.0794 -13.8091 1559.77 0
-17.6187 -13.7623 1559.77 0
-15.5134 -13.4233 1559.77 0
-15.5134 -13.4233 1559.77 0
-18.7217 -11.334 1559.77 0
2.17814 2.94381 -233.016 0
-12.4046 -8.43746 1559.77 0
-14.3177 -8.05169 1559.77 0
-12.0135 -7.82323 1559.77 0
-12.0135 -7.82323 1559.77 0
-18.386 -7.60633 1559.77 0
-17.8097 -7.39186 1559.77 0
-14.2538 -7.2089 1559.77 0
-14.9234 -7.01446 1559.77 0
-13.1186 -6.50694 1559.77 0
-16.7852 -5.74921 1559.77 0
-12.1685 -5.74845 1559.77 0
-9.89066 -5.48802 1559.77 0
-18.5851 -5.38558 1559.77 0
-14.4898 -5.36758 1559.77 0
-5.54085 -5.14304 1559.77 0
2.17695 1.40287 -253.097 0
-9.04097 -4.64397 1559.77 0
-16.828 -4.6375 1559.77 0
-16.828 -4.6375 1559.77 0
-22.5512 -4.56812 1559.77 0
-22.5512 -4.56812 1559.77 0
-25.1153 -4.50626 1559.77 0
-9.26293 -4.36232 1559.77 0
-24.4745 -4.17696 1559.77 0
-20.0963 -4.18281 1559.77 0
1.86784 0.828425 -140.752 0
-22.6509 -3.11267 1559.77 0
-22.6509 -3.11267 1559.77 0
-12.7033 -17.5936 1559.77 0
-12.7033 -17.5936 1559.77 0
3.48087 7.26565 -539.942 0
7.59086 2.62194 -282.36 0
7.59086 2.62194 -282.36 0
-14.639 -7.38936 1559.77 0
-14.639 -7.38936 1559.77 0
-9.44808 -6.95964 1559.77 0
-17.3731 -6.81095 1559.77 0
-10.6197 -6.65806 1559.77 0
-14.7026 -6.59522 1559.77 0
-17.5052 -6.30962 1559.77 0
-18.2544 -6.16131 1559.77 0
-11.7187 -5.80254 1559.77 0
-8.56606 -5.48167 1559.77 0
-21.2357 -5.21153 1559.77 0
-16.8095 -4.7432 1559.77 0
-16.8095 -4.7432 1559.77 0
-16.4092 -4.45376 1559.77 0
-23.0638 -3.40265 1559.77 0
-17.713 -3.34519 1559.77 0
-22.115 -3.2537 1559.77 0
-23.4471 -2.98515 1559.77 0
-23.4471 -2.98515 1559.77 0
-12.6521 -16.0475 1559.77 0
-15.2596 -15.7065 1559.77 0
-15.2596 -15.7065 1559.77 0
-12.4108 -14.1423 1559.77 0
-15.2058 -13.7869 1559.77 0
-9.90755 -13.6356 1559.77 0
-17.9223 -13.3938 1559.77 0
-12.3926 -12.3614 1559.77 0
-14.9608 -11.9701 1559.77 0
-9.67742 -9.88459 1559.77 0
-17.5887 -9.64385 1559.77 0
0.0979187 1.80425 -118.128 0
-12.1394 -8.77916 1559.77 0
-12.1394 -8.77916 1559.77 0
-0.606543 1.6123 -117.061 0
-14.6643 -8.3319 1559.77 0
-9.44962 -7.83493 1559.77 0
-17.5099 -7.76374 1559.77 0
-11.9259 -7.33858 1559.77 0
-12.3625 -6.87667 1559.77 0
-9.9162 -6.73291 1559.77 0
-12.4912 -6.28841 1559.77 0
-10.7027 -6.13783 1559.77 0
-10.7027 -6.13783 1559.77 0
-17.6536 -5.7534 1559.77 0
-17.6536 -5.7534 1559.77 0
-17.9183 -5.15681 1559.77 0
-8.60082 -4.74866 1559.77 0
-9.75767 -4.70848 1559.77 0
-9.75767 -4.70848 1559.77 0
1.87682 1.21193 -221.655 0
1.8301 1.02629 -175.898 0
-23.7487 -3.95347 1559.77 0
-18.2097 -15.2968 1559.77 0
-1.4081 2.59853 -119.927 0
0.762272 2.32097 -119.102 0
-14.954 -11.966 1559.77 0
0.094092 2.11507 -117.99 0
0.094092 2.11507 -117.99 0
-16.8436 -6.43317 1559.77 0
-16.8436 -6.43317 1559.77 0
-8.76804 -6.21892 1559.77 0
-8.76804 -6.21892 1559.77 0
-14.7204 -6.04763 1559.77 0
-10.3621 -5.35641 1559.77 0
-16.5973 -5.11046 1559.77 0
-17.382 -4.54416 1559.77 0
3.54652 -1.72243 -114.846 0
-5.46399 -2.51008 -114.01 0
-18.9445 -15.9466 1559.77 0
-18.9445 -15.9466 1559.77 0
-18.8073 -14.4448 1559.77 0
-18.8073 -14.4448 1559.77 0
-18.6019 -12.0423 1559.77 0
-0.606107 2.01336 -124 0
0.207832 1.68326 -116.869 0
-1.3659 1.32146 -115.342 0
-14.0316 -5.52845 1559.77 0
-20.2983 -5.05502 1559.77 0
-11.0161 -4.65418 1559.77 0
0.776249 0.883572 -118.128 0
-19.5435 -4.42116 1559.77 0
-19.5435 -4.42116 1559.77 0
-21.4544 -4.34276 1559.77 0
-22.3181 -3.84592 1559.77 0
-24.4004 -2.97132 1559.77 0
0.578273 -1.97325 -116.146 0
-1.02384 2.7041 -121.251 0
0.528929 1.65177 -116.777 0
-15.8402 -5.61133 1559.77 0
-16.7263 -3.54992 1559.77 0
-8.53093 -10.2215 1559.77 0
-10.7969 -9.04837 1559.77 0
-13.3066 -7.55044 1559.77 0
-13.3066 -7.55044 1559.77 0
-16.8188 -16.0915 1559.77 0
-16.2084 -8.41715 1559.77 0
3.34212 -1.68927 -114.811 0
3.34212 -1.68927 -114.811 0
-5.45122 -10.6264 1559.77 0
