ply
format ascii 1.0
element vertex 250
property float x
property float y
property float z
property uchar intensity
end_header
-19.3013 -15.8766 1559.77 0
2.73479 2.75216 -146.677 0
-18.7141 -5.14251 1559.77 0
-18.1336 -4.79501 1559.77 0
-20.8307 -4.55097 1559.77 0
-15.3266 -4.34577 1559.77 0
-22.5038 -4.24282 1559.77 0
-22.5038 -4.24282 1559.77 0
3.7279 0.923213 -157 0
-24.073 -4.13852 1559.77 0
2.35621 0.744173 -122.265 0
-24.1534 -3.80173 1559.77 0
-24.1534 -3.80173 1559.77 0
3.68426 0.836962 -164.824 0
-14.737 -3.7306 1559.77 0
3.60886 0.780497 -157 0
-15.4694 -3.54778 1559.77 0
-18.2333 -3.22089 1559.77 0
3.70017 0.683355 -157 0
-15.9237 -3.10598 1559.77 0
-22.5151 -3.04028 1559.77 0
3.81779 0.63392 -164.824 0
-26.7891 -2.69381 1559.77 0
-21.7519 -2.64896 1559.77 0
-21.3933 -2.57714 1559.77 0
-27.9243 -2.41993 1559.77 0
-29.6882 -2.22595 1559.77 0
-21.511 -2.21336 1559.77 0
-23.6025 -1.82538 1559.77 0
-23.2768 -1.74613 1559.77 0
-28.7078 -0.591243 1559.77 0
-19.5333 -16.6488 1559.77 0
-19.3849 -16.4525 1559.77 0
-18.3903 -4.81737 1559.77 0
-17.7809 -4.83041 1559.77 0
-15.4877 -4.57482 1559.77 0
-17.3315 -4.48678 1559.77 0
-18.9464 -4.1585 1559.77 0
-22.3144 -4.00459 1559.77 0
-16.0293 -3.94766 1559.77 0
-14.1528 -3.76401 1559.77 0
-21.4811 -3.71378 1559.77 0
-24.8228 -3.6189 1559.77 0
-24.8228 -3.6189 1559.77 0
-23.3073 -3.52082 1559.77 0
3.62883 0.65836 -157 0
-17.9886 -2.92667 1559.77 0
-25.1965 -2.88807 1559.77 0
-30.6953 -2.16162 1559.77 0
-27.2204 -2.01691 1559.77 0
1.53793 0.258262 -114.997 0
-31.2177 -1.38933 1559.77 0
-30.8401 -1.15737 1559.77 0
-27.0547 -1.11318 1559.77 0
-22.5124 -15.7531 1559.77 0
-22.5124 -15.7531 1559.77 0
3.98001 2.92572 -138.813 0
3.98001 2.92572 -138.813 0
-21.507 -13.3261 1559.77 0
-21.507 -13.3261 1559.77 0
-25.1462 -13.3023 1559.77 0
-25.1462 -13.3023 1559.77 0
-25.8035 -13.1911 1559.77 0
-22.0395 -11.8574 1559.77 0
3.5271 2.25536 -118.92 0
-24.1957 -11.4601 1559.77 0
-24.1957 -11.4601 1559.77 0
-21.9857 -11.294 1559.77 0
1.99306 2.11908 -129.944 0
-19.0515 -9.95736 1559.77 0
-19.0515 -9.95736 1559.77 0
-25.2834 -9.27904 1559.77 0
3.05453 2.04821 -164.824 0
0.464581 1.73702 -116.364 0
0.464581 1.73702 -116.364 0
-24.5791 -8.8282 1559.77 0
-25.2128 -8.71255 1559.77 0
-16.1147 -8.13923 1559.77 0
-23.7102 -7.639 1559.77 0
-23.7102 -7.639 1559.77 0
-21.5424 -7.53376 1559.77 0
-23.6396 -7.07359 1559.77 0
-23.6396 -7.07359 1559.77 0
-18.7278 -6.86814 1559.77 0
-20.7147 -6.40335 1559.77 0
-18.6648 -6.32401 1559.77 0
-18.6648 -6.32401 1559.77 0
-20.6471 -5.84759 1559.77 0
-24.1688 -5.61475 1559.77 0
-24.1688 -5.61475 1559.77 0
3.23413 1.35691 -192.779 0
-15.1627 -5.50781 1559.77 0
-24.786 -5.45928 1559.77 0
3.246 1.28978 -192.779 0
-24.6825 -5.20069 1559.77 0
-24.1005 -5.04135 1559.77 0
-24.1005 -5.04135 1559.77 0
3.06756 1.15515 -175.898 0
-18.9829 -4.9911 1559.77 0
-16.0881 -4.28099 1559.77 0
-19.7642 -3.94743 1559.77 0
-21.7764 -3.87185 1559.77 0
-15.7711 -3.80541 1559.77 0
-16.0994 -3.68889 1559.77 0
3.66187 0.773272 -157 0
-24.8915 -3.36321 1559.77 0
-17.8498 -3.14495 1559.77 0
-27.1608 -2.29287 1559.77 0
-14.6187 -2.09098 1559.77 0
-29.4811 -0.272154 1559.77 0
2.8891 2.77567 -151.178 0
-25.6827 -12.5657 1559.77 0
3.51802 2.24526 -118.747 0
-24.1668 -11.5122 1559.77 0
-22.0157 -11.2463 1559.77 0
-22.0157 -11.2463 1559.77 0
-24.0867 -10.8559 1559.77 0
-25.1418 -9.00414 1559.77 0
-20.616 -5.81577 1559.77 0
-24.7477 -5.50782 1559.77 0
-19.3359 -4.27302 1559.77 0
-22.1945 -3.75006 1559.77 0
-14.4907 -3.45947 1559.77 0
-15.8809 -3.38114 1559.77 0
-20.6869 -3.0607 1559.77 0
-24.8265 -2.89851 1559.77 0
-14.909 -2.56765 1559.77 0
-25.3163 -2.53249 1559.77 0
-15.153 -2.28038 1559.77 0
-23.0206 -2.21275 1559.77 0
-23.0206 -2.21275 1559.77 0
-14.2572 -1.97357 1559.77 0
-28.8816 -1.88864 1559.77 0
-28.8816 -1.88864 1559.77 0
-31.4578 -1.69668 1559.77 0
-30.8414 -1.40417 1559.77 0
-23.816 -0.907919 1559.77 0
-28.9181 -0.383493 1559.77 0
-28.9181 -0.383493 1559.77 0
-5.90591 -2.66128 -113.973 0
-19.3219 -15.5571 1559.77 0
-19.3219 -15.5571 1559.77 0
3.16283 2.03049 -175.898 0
-31.0554 -5.89427 1559.77 0
-31.0554 -5.89427 1559.77 0
-18.2715 -5.69151 1559.77 0
-18.2715 -5.69151 1559.77 0
-20.9093 -5.10391 1559.77 0
-20.9093 -5.10391 1559.77 0
-15.4486 -4.90562 1559.77 0
-21.2077 -4.72931 1559.77 0
3.62883 0.993401 -157 0
3.62883 0.993401 -157 0
-23.6591 -4.41367 1559.77 0
-20.9436 -4.30862 1559.77 0
-23.7658 -3.8992 1559.77 0
-15.1433 -3.78923 1559.77 0
-24.4992 -3.73009 1559.77 0
-17.8816 -3.63625 1559.77 0
-18.361 -3.5526 1559.77 0
-23.0121 -3.35752 1559.77 0
2.13113 0.619801 -121.251 0
-27.5412 -2.60449 1559.77 0
-23.0001 -2.36157 1559.77 0
-23.0001 -2.36157 1559.77 0
-22.5864 -2.04575 1559.77 0
-26.2814 -1.62449 1559.77 0
-29.3523 -0.662899 1559.77 0
-28.3699 -0.554862 1559.77 0
-29.7235 -0.219623 1559.77 0
-29.7235 -0.219623 1559.77 0
3.64881 2.67978 -119.102 0
-21.8417 -13.5782 1559.77 0
-21.8417 -13.5782 1559.77 0
3.58735 2.30564 -118.92 0
-21.7224 -11.6359 1559.77 0
-18.8165 -10.2673 1559.77 0
-21.4029 -9.77886 1559.77 0
1.113 1.50375 -117.162 0
-15.7845 -7.85389 1559.77 0
-18.4325 -6.6436 1559.77 0
-18.4325 -6.6436 1559.77 0
-20.9703 -6.08042 1559.77 0
-15.489 -5.796 1559.77 0
-18.1438 -5.16897 1559.77 0
-18.581 -4.68927 1559.77 0
-18.7107 -4.08242 1559.77 0
3.57232 0.85969 -151.178 0
3.57232 0.85969 -151.178 0
-23.8793 -3.32373 1559.77 0
-23.8793 -3.32373 1559.77 0
3.47043 0.782509 -221.655 0
-24.1482 -2.70234 1559.77 0
-14.4148 -2.63057 1559.77 0
9.2672 1.12257 -723.201 0
-30.0854 -1.2019 1559.77 0
-19.1572 -16.301 1559.77 0
-24.8117 -13.0455 1559.77 0
-21.7333 -11.6444 1559.77 0
3.06718 2.22665 -118.747 0
-24.4532 -11.1362 1559.77 0
-21.3981 -9.76865 1559.77 0
-25.0394 -9.67164 1559.77 0
-24.3209 -9.1648 1559.77 0
-15.7912 -7.86756 1559.77 0
-23.9775 -7.30596 1559.77 0
0.359919 1.34745 -115.161 0
-23.8473 -5.38709 1559.77 0
-14.6852 -4.18291 1559.77 0
-14.6852 -4.18291 1559.77 0
-20.9279 -3.75549 1559.77 0
4.46111 0.890485 -235.175 0
-22.7837 -2.70708 1559.77 0
-15.7083 -2.61128 1559.77 0
-15.7083 -2.61128 1559.77 0
2.42032 0.515262 -123.068 0
-23.5762 -2.09519 1559.77 0
2.95058 -0.876344 -118.424 0
-25.5582 -13.6805 1559.77 0
-25.5582 -13.6805 1559.77 0
-25.3728 -12.2241 1559.77 0
-25.3728 -12.2241 1559.77 0
1.14541 1.83421 -123.068 0
1.14541 1.83421 -123.068 0
0.393611 1.70139 -120.162 0
1.19569 1.37682 -117.489 0
-0.451353 1.05849 -115.25 0
-23.0816 -4.07187 1559.77 0
-23.0816 -4.07187 1559.77 0
-20.2172 -3.24559 1559.77 0
-26.5679 -2.48925 1559.77 0
3.79762 0.556927 -164.824 0
-13.6947 -2.46705 1559.77 0
-25.7734 -1.87633 1559.77 0
-25.7734 -1.87633 1559.77 0
-27.7335 -1.7021 1559.77 0
-28.5979 -1.15488 1559.77 0
1.55773 0.194194 -114.382 0
-30.726 -0.148158 1559.77 0
1.08502 -2.33259 -116.364 0
-22.0501 -3.25263 1559.77 0
3.55852 1.4661 -146.677 0
1.565 1.34157 -126.4 0
-19.5652 -5.33583 1559.77 0
-19.5652 -5.33583 1559.77 0
-23.4392 -13.9424 1559.77 0
-22.5474 -6.13335 1559.77 0
3.93618 -2.19034 -114.436 0
3.93618 -2.19034 -114.436 0
2.28093 1.7967 -137.746 0
