ply
format ascii 1.0
element vertex 167
property float x
property float y
property float z
property uchar intensity
end_header
2.66736 1.1768 -110.296 0
2.64447 1.1461 -118.166 0
2.0917 1.14556 -123.439 0
1.7721 1.13527 -127.81 0
3.32517 1.03392 -110.296 0
2.45218 1.05654 -119.196 0
3.60947 0.960164 -110.296 0
2.34762 0.984515 -121.772 0
2.166 0.971936 -120.505 0
2.12895 0.9792 -123.834 0
2.35607 0.950828 -121.354 0
2.82991 0.855067 -110.296 0
2.19866 0.869667 -119.964 0
2.78188 0.874938 -130.222 0
3.78952 0.796632 -110.296 0
2.5202 0.803281 -126.234 0
62.5686 14.1082 -4917.57 0
28.5372 6.41725 -2208.49 0
36.2295 5.73873 -2208.49 0
20.869 3.44048 -1386.89 0
289.246 46.8925 -21484.6 0
67.6946 7.63153 -4103.31 0
2.81043 3.33631 -110.296 0
2.58108 1.17064 -120.043 0
2.12907 1.17798 -123.439 0
2.61427 1.11616 -110.296 0
2.49446 1.10751 -120.343 0
1.95221 1.02727 -121.733 0
3.71053 0.946162 -110.296 0
3.71053 0.946162 -110.296 0
3.14706 0.928126 -110.296 0
3.46334 0.904381 -110.296 0
2.43605 0.846153 -119.784 0
5.29885 0.79584 -141.23 0
5.11489 0.790433 -140.557 0
5.08932 0.855523 -169.84 0
5.76082 0.596412 -129.211 0
5.3035 0.603421 -134.842 0
5.33635 0.566457 -140.622 0
2.10036 -0.979503 -113.97 0
2.77814 3.3001 -110.296 0
3.32345 3.18881 -110.296 0
3.32345 3.18881 -110.296 0
2.80946 2.88905 -110.296 0
2.80946 2.88905 -110.296 0
3.85775 2.62792 -110.296 0
3.24696 2.45728 -110.296 0
3.61786 2.39805 -110.296 0
3.61786 2.39805 -110.296 0
3.23688 2.35332 -110.296 0
2.7321 2.08054 -110.296 0
3.53549 1.67671 -110.296 0
3.53549 1.67671 -110.296 0
3.1623 1.64251 -110.296 0
3.5231 1.57028 -110.296 0
3.5231 1.57028 -110.296 0
2.6655 1.39554 -110.296 0
3.00527 1.31965 -110.296 0
3.61803 1.29766 -110.296 0
3.69904 1.27868 -110.296 0
2.71214 1.14738 -110.296 0
2.27164 1.12059 -125.145 0
3.37678 1.03176 -110.296 0
3.29835 0.98722 -110.296 0
2.22547 1.04109 -128.342 0
2.85346 0.958374 -110.296 0
3.26984 0.944112 -110.296 0
2.23557 0.983683 -120.886 0
0.322075 0.834228 -116.689 0
2.34593 0.822564 -118.138 0
2.73085 0.813772 -130.222 0
4.69652 0.78819 -136.058 0
49.2529 6.06415 -3470.91 0
89.0103 6.27125 -4917.57 0
1.68655 -0.264446 -116.146 0
3.31799 3.07378 -110.296 0
3.59755 2.28506 -110.296 0
2.67042 1.38826 -110.296 0
3.60971 1.18546 -110.296 0
2.98088 1.15353 -110.296 0
3.10351 1.11401 -110.296 0
2.77538 1.0191 -110.296 0
3.74138 0.88711 -110.296 0
2.21149 0.923013 -122.508 0
3.41402 0.870343 -110.296 0
2.68104 0.85631 -128.015 0
3.72724 0.79607 -110.296 0
29.8183 7.8448 -2416.36 0
3.81371 0.730242 -110.296 0
39.1659 7.36301 -2818.94 0
39.1659 7.36301 -2818.94 0
4.87867 0.696639 -136.461 0
4.87867 0.696639 -136.461 0
5.36261 0.673493 -134.842 0
5.314 0.612792 -139.38 0
53.5359 4.06245 -2965.56 0
53.5359 4.06245 -2965.56 0
2.77088 3.13425 -110.296 0
2.77088 3.13425 -110.296 0
2.5914 1.27599 -110.296 0
2.5914 1.27599 -110.296 0
3.05203 1.17871 -110.296 0
3.05203 1.17871 -110.296 0
2.10275 1.23596 -120.779 0
2.40681 1.15242 -124.416 0
3.52906 1.06739 -110.296 0
3.04928 1.03517 -110.296 0
3.5438 0.976033 -110.296 0
2.67203 0.954115 -126.234 0
2.80416 0.942403 -129.631 0
-43.3969 -7.96638 3514.6 0
124.304 10.8127 -6959 0
23.2636 1.96775 -1234.57 0
41.8478 2.85366 -2208.49 0
2.75289 2.84354 -110.296 0
3.20965 2.77837 -110.296 0
3.72511 2.7041 -110.296 0
2.6996 2.48151 -110.296 0
3.19163 2.41181 -110.296 0
3.66398 2.33916 -110.296 0
2.6853 2.13947 -110.296 0
3.13508 2.06105 -110.296 0
3.64238 1.96772 -110.296 0
3.58285 1.61663 -110.296 0
2.61874 1.45363 -110.296 0
3.06229 1.36593 -110.296 0
3.56038 1.25284 -110.296 0
2.56273 1.17721 -110.296 0
2.16962 1.15078 -122.022 0
2.64691 1.09042 -110.296 0
2.04306 1.02893 -121.193 0
2.66532 0.980113 -110.296 0
3.56011 0.869094 -110.296 0
3.56011 0.869094 -110.296 0
5.17351 0.940676 -169.84 0
3.6084 0.755323 -110.296 0
5.14125 0.564427 -137.886 0
55.3947 3.73603 -2965.56 0
2.74096 3.27691 -110.296 0
3.83483 2.80017 -110.296 0
3.1938 2.41396 -110.296 0
3.75282 2.05729 -110.296 0
2.07873 1.73851 -110.296 0
1.94133 1.11048 -121.85 0
1.94133 1.11048 -121.85 0
2.39335 1.03233 -121.772 0
2.39335 1.03233 -121.772 0
3.43166 0.996604 -110.296 0
3.43166 0.996604 -110.296 0
3.0518 0.930969 -110.296 0
0.391432 0.767584 -116.442 0
22.8919 5.02073 -1606.55 0
88.0543 15.8125 -6336.82 0
2.37559 -1.21743 -113.97 0
2.92989 0.830281 -110.296 0
107.042 16.4596 -6959 0
107.042 16.4596 -6959 0
4.6357 0.649128 -134.653 0
36.8318 4.05786 -2021.27 0
49.781 3.16337 -2552.47 0
3.2487 0.846806 -110.296 0
4.96435 0.902043 -169.84 0
32.9676 4.6698 -2416.36 0
3.47748 2.87866 -110.296 0
2.81148 1.22422 -110.296 0
3.33941 1.39851 -110.296 0
2.17112 -1.20131 -113.97 0
