ply
format ascii 1.0
element vertex 144
property float x
property float y
property float z
property uchar intensity
end_header
-30.839 -77.0716 276.435 0
-30.6482 -77.014 276.723 0
-31.2927 -77.2329 275.705 0
-28.9261 -69.1449 296.815 0
-31.7064 -77.471 274.892 0
-29.689 -75.7729 283.354 0
-26.8302 -47.8612 338.383 0
-31.9507 -77.7001 274.259 0
-31.409 -91.8328 251.341 0
-31.9648 -77.7081 274.226 0
-31.9648 -77.7081 274.226 0
-32.0449 -77.8047 273.972 0
-30.6794 -76.987 276.711 0
-31.6713 -77.4062 275.021 0
-27.1051 -40.0518 349.614 0
-32.2494 -78.4936 272.518 0
-31.5182 -77.2969 275.35 0
-31.4389 -77.2518 275.503 0
-31.4673 -77.2563 275.463 0
-32.2378 -78.239 272.991 0
-31.89 -77.55 274.548 0
-32.2741 -78.5787 272.316 0
-30.7891 -77.0587 276.51 0
-30.5606 -76.9947 276.845 0
-30.7101 -77.0316 276.63 0
-30.4494 -76.9622 277.009 0
-31.033 -77.1193 276.15 0
-30.3332 -83.2943 268.296 0
-28.6861 -68.9536 296.705 0
-32.0716 -77.8673 273.84 0
-32.0716 -77.8673 273.84 0
-31.4482 -77.2874 275.449 0
-29.7144 -79.3486 275.993 0
-31.0301 -77.0977 276.176 0
-26.3311 -36.7449 356.997 0
-32.1257 -77.9323 273.663 0
7.99769 14.0893 472.089 0
-31.5541 -77.6682 274.853 0
-31.5541 -77.6682 274.853 0
-30.9272 -77.3091 276.089 0
-32.0026 -78.1922 273.45 0
-31.5015 -77.5395 275.081 0
-34.1659 -93.3505 252.256 0
-33.4206 -20.0932 388.341 0
-33.4206 -20.0932 388.341 0
-33.7253 -92.7591 251.934 0
-33.7253 -92.7591 251.934 0
-31.3151 -77.369 275.525 0
-34.8038 -86.2961 259.726 0
-32.0637 -78.0977 273.501 0
-31.8533 -77.714 274.375 0
-31.8533 -77.714 274.375 0
-30.7794 -77.0959 276.484 0
-30.769 -77.0807 276.512 0
-30.769 -77.0807 276.512 0
-31.2457 -77.2438 275.751 0
-31.9485 -77.755 274.184 0
-31.9485 -77.755 274.184 0
-32.0473 -77.9016 273.827 0
-32.0436 -77.8695 273.88 0
-31.6262 -77.4031 275.084 0
-31.0588 -77.1217 276.114 0
-31.5109 -77.3272 275.323 0
-29.901 -79.331 275.994 0
6.76418 3.91409 449.183 0
-30.3422 -76.9214 277.172 0
-32.0824 -77.8713 273.82 0
-30.5835 -76.9624 276.849 0
-32.2516 -78.6735 272.175 0
-32.0052 -78.1998 273.435 0
-33.435 -20.1286 388.36 0
-30.7763 -77.0821 276.501 0
-32.0341 -77.8678 273.896 0
-31.9475 -77.7322 274.216 0
-31.2207 -77.2107 275.819 0
-31.3748 -77.2756 275.555 0
-30.9497 -77.0904 276.282 0
-31.6012 -77.3765 275.151 0
-29.4849 -75.4088 283.159 0
-31.2801 -77.187 275.774 0
-32.0789 -77.8402 273.872 0
-31.7807 -77.4628 274.808 0
-31.7807 -77.4628 274.808 0
-32.2496 -78.2678 272.921 0
-35.5624 -94.0826 252.701 0
-35.5624 -94.0826 252.701 0
-30.6746 -77.0418 276.662 0
-30.6746 -77.0418 276.662 0
-31.3112 -77.2532 275.661 0
-31.3112 -77.2532 275.661 0
-29.6326 -72.4302 290.321 0
-31.0487 -87.5163 260.137 0
-31.8754 -77.6255 274.465 0
-31.3251 -77.2408 275.657 0
-31.9007 -77.6352 274.417 0
-32.0229 -77.7859 274.032 0
-30.5894 -76.9745 276.83 0
-30.7077 -77.0028 276.661 0
-31.7667 -77.4895 274.791 0
-25.4623 -29.9727 369.701 0
-31.7736 -77.4663 274.81 0
-31.7736 -77.4663 274.81 0
-31.6961 -77.3936 275.006 0
-35.0405 -93.7218 252.491 0
-33.7564 -92.9017 252.007 0
-30.7099 -77.0706 276.594 0
-31.3176 -77.2819 275.62 0
-29.9764 -72.6848 290.468 0
-30.6482 -77.0208 276.718 0
-30.7611 -77.0422 276.559 0
-30.7932 -77.0382 276.523 0
-31.2317 -91.8912 251.361 0
-31.2317 -91.8912 251.361 0
-31.9277 -77.6444 274.367 0
-31.9277 -77.6444 274.367 0
-31.9762 -77.6802 274.25 0
-35.9246 -74.2604 285.383 0
-33.3761 -19.8227 388.203 0
-31.9008 -77.7581 274.247 0
-28.8447 -69.101 296.788 0
-28.8447 -69.101 296.788 0
-31.7776 -77.5194 274.738 0
-31.7776 -77.5194 274.738 0
-31.3267 -77.2276 275.669 0
-26.7344 -38.4463 353.423 0
-31.7323 -77.4406 274.899 0
-31.8842 -77.5542 274.55 0
-34.379 -19.8038 388.247 0
-34.379 -19.8038 388.247 0
-32.9125 -17.7203 390.003 0
-31.7743 -77.5178 274.744 0
-31.7743 -77.5178 274.744 0
-31.1671 -77.1455 275.957 0
-32.2033 -78.0793 273.312 0
-32.2033 -78.0793 273.312 0
-31.5752 -77.3483 275.216 0
-32.2482 -78.4 272.69 0
-11.5129 3.00101 226.433 0
-31.6446 -83.8387 268.642 0
-30.9968 -77.1322 276.18 0
-30.9968 -77.1322 276.18 0
-31.7498 -77.8086 274.396 0
-29.7601 -61.4105 315.071 0
-31.6493 -77.4815 274.955 0
