ply
format ascii 1.0
element vertex 144
property float x
property float y
property float z
property uchar intensity
end_header
-6.5354 0.129346 255.551 0
-6.40816 0.192228 255.768 0
-6.99455 -0.0890136 254.731 0
-4.42976 -0.605678 277.309 0
-4.61029 -0.476615 226.43 0
-4.56231 -0.539021 262.286 0
-7.56648 -0.385453 253.166 0
-7.56648 -0.385453 253.166 0
-4.75451 -0.548612 324.055 0
-4.50031 -0.366339 245.444 0
-7.63134 -0.417918 252.892 0
-4.41396 -0.177963 254.112 0
-6.45062 0.187493 255.769 0
-7.3352 -0.251355 254.025 0
-7.69233 -0.450768 252.555 0
-6.81463 -0.0104449 337.57 0
-7.74365 -0.488255 251.275 0
-6.28357 0.0376474 345.68 0
-7.20819 -0.180643 254.375 0
-7.14008 -0.144645 254.534 0
-7.16799 -0.155696 254.495 0
-7.76405 -0.489714 251.812 0
-7.52619 -0.344342 253.527 0
-7.76407 -0.489283 251.056 0
-6.58246 0.108648 255.476 0
-6.46523 0.16549 255.675 0
-6.32625 0.229813 255.89 0
-7.35361 -0.272618 253.879 0
-6.22517 0.27928 256.056 0
-7.55247 -0.380917 253.199 0
-6.76505 0.0274699 255.191 0
-7.2885 -0.235619 254.084 0
-7.64682 -0.430518 252.744 0
-7.64682 -0.430518 252.744 0
-7.13825 -0.154379 254.47 0
-7.65749 -0.434342 252.724 0
-4.44081 -0.279978 277.309 0
-6.76992 0.0332793 255.224 0
-7.72818 -0.479633 250.888 0
16.947 17.2805 472.848 0
-7.13057 -0.255263 253.762 0
-7.13057 -0.255263 253.762 0
-6.58406 0.0205705 255.056 0
-7.49931 -0.434588 252.254 0
-7.11391 -0.217091 254.026 0
-5.06193 -3.72283 226.43 0
-12.5758 -6.15943 380.78 0
-12.5758 -6.15943 380.78 0
-5.28668 -2.94999 226.43 0
-5.28668 -2.94999 226.43 0
-6.97165 -0.123912 254.507 0
-8.01603 -2.66121 236.233 0
-7.58851 -0.444133 252.339 0
-7.44332 -0.352482 253.301 0
-7.44332 -0.352482 253.301 0
-6.51152 0.124204 255.512 0
-6.50665 0.131651 255.544 0
-6.50665 0.131651 255.544 0
-6.942 -0.0746075 254.769 0
-7.5367 -0.385723 253.107 0
-7.5367 -0.385723 253.107 0
-7.61146 -0.427059 252.718 0
-7.61456 -0.423573 252.78 0
-7.19112 -0.183216 254.337 0
-6.79115 0.0179494 255.157 0
-7.26964 -0.223556 254.157 0
-4.54693 -0.310038 254.112 0
-6.13249 0.330385 256.225 0
-6.36234 0.229442 255.906 0
-7.5007 -0.435631 252.236 0
-12.5548 -6.19628 380.78 0
-6.51373 0.12877 255.534 0
-6.42491 0.176192 255.7 0
-6.42491 0.176192 255.7 0
-7.60455 -0.420572 252.796 0
-7.54162 -0.382683 253.147 0
-6.92735 -0.058971 254.846 0
-7.06552 -0.126537 254.574 0
-6.6895 0.063983 255.326 0
-7.41185 -0.295663 253.777 0
-6.47392 0.173537 255.715 0
-4.74311 -0.115492 262.286 0
-7.66008 -0.431401 252.785 0
-6.99661 -0.0759624 254.813 0
-7.4339 -0.296992 253.804 0
-7.4339 -0.296992 253.804 0
-7.77351 -0.492288 251.736 0
15.9993 18.0652 447.783 0
-5.32191 -5.34046 226.43 0
-5.32191 -5.34046 226.43 0
-7.00627 -0.100207 254.682 0
-7.00627 -0.100207 254.682 0
-4.65253 -0.88002 270.006 0
-7.49062 -0.348783 253.42 0
-4.60328 -0.633375 236.233 0
-7.02547 -0.102255 254.682 0
-7.51543 -0.357748 253.371 0
-7.61107 -0.410391 252.955 0
-6.36355 0.224203 255.884 0
-7.42646 -0.293939 253.804 0
-7.42646 -0.293939 253.804 0
-7.36493 -0.258029 254.015 0
-5.29896 -4.67239 226.43 0
-12.7779 -5.92789 380.78 0
-5.18494 -3.07804 226.43 0
-7.48376 -0.371735 253.164 0
-6.44948 0.155437 255.625 0
-7.00362 -0.107826 254.632 0
-4.65329 -1.33246 270.006 0
-6.40492 0.190033 255.761 0
-6.51336 0.14407 255.604 0
-6.54811 0.133446 255.572 0
-4.4485 -0.381436 226.43 0
-4.4485 -0.381436 226.43 0
-7.54215 -0.367341 253.322 0
-7.54215 -0.367341 253.322 0
-7.58569 -0.386152 253.199 0
-6.42 0.379304 360.097 0
-9.0216 -5.0794 264.474 0
-7.41468 -0.303712 253.716 0
-7.41468 -0.303712 253.716 0
-4.41567 -0.510548 277.309 0
-4.41567 -0.510548 277.309 0
-7.0316 -0.100108 254.7 0
-6.48949 -0.0641422 341.708 0
-7.38923 -0.277363 253.898 0
-7.51903 -0.342839 253.527 0
-13.4282 -6.69296 380.78 0
-13.4282 -6.69296 380.78 0
-13.3676 -4.97661 383.354 0
-7.41171 -0.302306 253.723 0
-7.41171 -0.302306 253.723 0
-6.89437 -0.0265001 255.001 0
-7.75359 -0.490574 251.471 0
-7.75133 -0.478144 252.172 0
-7.75133 -0.478144 252.172 0
-7.25173 -0.209155 254.229 0
-65.1952 76.2104 247.837 0
-4.59456 -2.82178 297.029 0
-4.86622 -1.78122 245.444 0
-6.72308 0.0377745 255.214 0
-6.72308 0.0377745 255.214 0
-7.30398 -0.334188 253.282 0
-7.28948 -0.255602 253.933 0
