ply
format ascii 1.0
element vertex 150
property float x
property float y
property float z
property uchar red
property uchar green
property uchar blue
element face 120
property list uchar int vertex_index
end_header
-39.8595 -165.207 -494.525 0 0 255
-48.0321 -179.575 -441.42 0 0 255
-52.161 -146.164 -443.933 0 0 255
-18.9019 -142.384 -448.316 0 0 255
-14.773 -175.795 -445.803 0 0 255
231.693 -97.8743 -450.93 0 0 255
222.083 -109.457 -397.387 0 0 255
224.441 -75.9282 -400.539 0 0 255
257.697 -78.7442 -405.618 0 0 255
255.339 -112.273 -402.466 0 0 255
-67.3631 -198.816 -515.232 0 0 255
-76.5545 -214.968 -462.811 0 0 255
-80.7924 -181.509 -464.304 0 0 255
-47.469 -177.448 -467.872 0 0 255
-43.2311 -210.906 -466.378 0 0 255
60.7687 -72.9312 -478.745 0 0 255
49.8947 -84.5683 -425.457 0 0 255
48.2359 -51.0769 -429.361 0 0 255
81.8032 -49.8061 -432.722 0 0 255
83.462 -83.2975 -428.818 0 0 255
160.529 -10.6506 -459.188 0 0 255
149.321 -17.7433 -405.175 0 0 255
150.011 15.4277 -411.41 0 0 255
183.553 14.0601 -414.977 0 0 255
182.863 -19.111 -408.742 0 0 255
15.9261 -127.449 -488.375 0 0 255
6.48847 -141.252 -435.33 0 0 255
3.50545 -107.737 -438.069 0 0 255
36.9333 -105.08 -441.967 0 0 255
39.9163 -138.595 -439.227 0 0 255
-24.1089 -178.409 -502.258 0 0 255
-32.7804 -194.319 -449.675 0 0 255
-36.6661 -160.819 -451.206 0 0 255
-3.35007 -157.138 -455.227 0 0 255
0.535599 -190.638 -453.696 0 0 255
-81.3588 -29.9387 -461.547 0 0 255
-91.4575 -38.0986 -407.465 0 0 255
-89.5777 -4.81896 -412.813 0 0 255
-56.2215 -7.42607 -417.312 0 0 255
-58.1013 -40.7057 -411.964 0 0 255
-147.152 -137.704 -510.048 0 0 255
-160.47 -149.429 -457.336 0 0 255
-163.448 -116.082 -461.67 0 0 255
-129.839 -113.274 -463.157 0 0 255
-126.861 -146.621 -458.822 0 0 255
-163.302 -92.0274 -501.555 0 0 255
-176.99 -101.407 -448.471 0 0 255
-178.587 -68.1296 -453.924 0 0 255
-144.893 -66.775 -455.525 0 0 255
-143.296 -100.052 -450.071 0 0 255
-119.641 -23.544 -473.192 0 0 255
-130.62 -30.6834 -419.138 0 0 255
-129.681 2.49692 -425.291 0 0 255
-96.1711 0.852646 -429.041 0 0 255
-97.1107 -32.3277 -422.888 0 0 255
-45.0697 -57.1752 -453.716 0 0 255
-53.7633 -67.5878 -399.778 0 0 255
-51.9056 -34.1167 -403.766 0 0 255
-18.6897 -36.6144 -409.256 0 0 255
-20.5475 -70.0855 -405.268 0 0 255
-111.633 -183.46 -518.655 0 0 255
-123.493 -198.251 -466.369 0 0 255
-127.209 -164.787 -468.834 0 0 255
-93.7034 -161.22 -470.913 0 0 255
-89.9879 -194.684 -468.448 0 0 255
-153.385 -48.716 -490.182 0 0 255
-166.451 -56.6556 -436.707 0 0 255
-166.544 -23.4216 -442.637 0 0 255
-132.862 -23.7327 -444.905 0 0 255
-132.77 -56.9666 -438.975 0 0 255
203.474 -30.4675 -453.672 0 0 255
193.193 -38.435 -399.597 0 0 255
194.683 -5.16644 -405.133 0 0 255
228.092 -7.37981 -409.443 0 0 255
226.602 -40.6484 -403.906 0 0 255
215.84 -150.895 -454.191 0 0 255
204.777 -166.156 -401.864 0 0 255
207.28 -132.498 -402.598 0 0 255
240.655 -135.076 -406.975 0 0 255
238.151 -168.734 -406.241 0 0 255
174.053 -173.437 -452.756 0 0 255
161.026 -190.018 -401.291 0 0 255
163.478 -156.348 -401.088 0 0 255
197.002 -158.771 -404.242 0 0 255
194.55 -192.44 -404.445 0 0 255
108.02 -159.354 -448.618 0 0 255
93.2202 -174.299 -397.13 0 0 255
96.4326 -140.698 -397.715 0 0 255
129.966 -143.941 -399.872 0 0 255
126.754 -177.542 -399.288 0 0 255
36.984 -128.479 -454.397 0 0 255
20.6512 -141.671 -402.894 0 0 255
24.7241 -108.187 -404.283 0 0 255
58.2052 -112.313 -405.573 0 0 255
54.1323 -145.797 -404.184 0 0 255
-19.1257 -88.0376 -464.297 0 0 255
-35.4663 -98.4703 -412.167 0 0 255
-31.4031 -65.1071 -415.339 0 0 255
2.07945 -69.2857 -416.401 0 0 255
-1.98372 -102.649 -413.229 0 0 255
-110.247 -42.8761 -502.391 0 0 255
-126.497 -49.1572 -449.572 0 0 255
-123.334 -16.0998 -455.645 0 0 255
-89.7459 -19.4323 -456.289 0 0 255
-92.9094 -52.4897 -450.217 0 0 255
-138.65 -57.8463 -520.837 0 0 255
-154.357 -65.183 -467.99 0 0 255
-153.396 -31.9893 -474.067 0 0 255
-119.663 -33.0946 -474.77 0 0 255
-120.624 -66.2883 -468.693 0 0 255
111.085 -30.0988 -469.794 0 0 255
99.3764 -38.9972 -416.155 0 0 255
98.7626 -5.68109 -421.571 0 0 255
132.382 -5.55923 -424.632 0 0 255
132.996 -38.8753 -419.216 0 0 255
-66.5826 -55.4562 -480.601 0 0 255
-82.9391 -62.9558 -427.974 0 0 255
-79.1038 -29.8054 -433.075 0 0 255
-45.5911 -33.8016 -433.849 0 0 255
-49.4264 -66.952 -428.748 0 0 255
-154.515 -94.1055 -532.003 0 0 255
-169.712 -103.714 -479.372 0 0 255
-170.509 -70.3604 -484.529 0 0 255
-136.766 -69.67 -485.278 0 0 255
-135.969 -103.023 -480.121 0 0 255
-156.097 -138.824 -537.727 0 0 255
-170.826 -151.421 -485.595 0 0 255
-173.224 -117.952 -489.307 0 0 255
-139.553 -115.611 -489.948 0 0 255
-137.154 -149.079 -486.237 0 0 255
-88.7606 -183.813 -516.058 0 0 255
-98.8203 -199.024 -463.515 0 0 255
-103.292 -165.637 -465.74 0 0 255
-69.9393 -161.371 -468.756 0 0 255
-65.468 -194.759 -466.532 0 0 255
-133.689 -172.851 -533.322 0 0 255
-146.527 -187.525 -481.234 0 0 255
-150.222 -154.071 -483.851 0 0 255
-116.686 -150.481 -485.303 0 0 255
-112.991 -183.935 -482.687 0 0 255
15.3572 -128.569 -471.037 0 0 255
7.80827 -141.563 -417.488 0 0 255
4.2464 -108.147 -420.709 0 0 255
37.4913 -105.086 -425.716 0 0 255
41.0532 -138.502 -422.496 0 0 255
69.7581 -83.8721 -442.574 0 0 255
60.8378 -94.1148 -388.64 0 0 255
58.8174 -60.7525 -393.388 0 0 255
92.2369 -59.3796 -397.963 0 0 255
94.2573 -92.742 -393.215 0 0 255
3 0 1 2
3 0 2 3
3 0 3 4
3 0 4 1
3 5 6 7
3 5 7 8
3 5 8 9
3 5 9 6
3 10 11 12
3 10 12 13
3 10 13 14
3 10 14 11
3 15 16 17
3 15 17 18
3 15 18 19
3 15 19 16
3 20 21 22
3 20 22 23
3 20 23 24
3 20 24 21
3 25 26 27
3 25 27 28
3 25 28 29
3 25 29 26
3 30 31 32
3 30 32 33
3 30 33 34
3 30 34 31
3 35 36 37
3 35 37 38
3 35 38 39
3 35 39 36
3 40 41 42
3 40 42 43
3 40 43 44
3 40 44 41
3 45 46 47
3 45 47 48
3 45 48 49
3 45 49 46
3 50 51 52
3 50 52 53
3 50 53 54
3 50 54 51
3 55 56 57
3 55 57 58
3 55 58 59
3 55 59 56
3 60 61 62
3 60 62 63
3 60 63 64
3 60 64 61
3 65 66 67
3 65 67 68
3 65 68 69
3 65 69 66
3 70 71 72
3 70 72 73
3 70 73 74
3 70 74 71
3 75 76 77
3 75 77 78
3 75 78 79
3 75 79 76
3 80 81 82
3 80 82 83
3 80 83 84
3 80 84 81
3 85 86 87
3 85 87 88
3 85 88 89
3 85 89 86
3 90 91 92
3 90 92 93
3 90 93 94
3 90 94 91
3 95 96 97
3 95 97 98
3 95 98 99
3 95 99 96
3 100 101 102
3 100 102 103
3 100 103 104
3 100 104 101
3 105 106 107
3 105 107 108
3 105 108 109
3 105 109 106
3 110 111 112
3 110 112 113
3 110 113 114
3 110 114 111
3 115 116 117
3 115 117 118
3 115 118 119
3 115 119 116
3 120 121 122
3 120 122 123
3 120 123 124
3 120 124 121
3 125 126 127
3 125 127 128
3 125 128 129
3 125 129 126
3 130 131 132
3 130 132 133
3 130 133 134
3 130 134 131
3 135 136 137
3 135 137 138
3 135 138 139
3 135 139 136
3 140 141 142
3 140 142 143
3 140 143 144
3 140 144 141
3 145 146 147
3 145 147 148
3 145 148 149
3 145 149 146
