ply
format ascii 1.0
element vertex 148
property float x
property float y
property float z
property uchar intensity
end_header
1.67948 0.319996 -83.9011 0
1.58416 0.262808 -83.9011 0
1.42925 0.241178 -147.212 0
2.30357 0.169842 -83.9011 0
1.42897 0.169184 -83.9011 0
1.21679 0.153385 -94.6527 0
2.57588 0.0960963 -83.9011 0
1.38257 0.0921472 -93.7984 0
1.32626 0.113891 -151.833 0
1.39424 0.0636769 -93.4939 0
1.22355 0.0615736 -99.473 0
1.67154 0.00286595 -94.0774 0
1.47665 -0.0135561 -95.0829 0
1.29691 -0.0163894 -98.2266 0
1.48642 -0.0651015 -93.7742 0
2.18042 -0.0934042 -83.9011 0
2.12139 -0.105102 -83.9011 0
4.04174 -0.169926 -145.203 0
4.13785 -0.199206 -127.015 0
2.48608 -0.230832 -83.9011 0
2.43237 -0.243751 -83.9011 0
3.92018 -0.516008 -125.131 0
1.81116 2.23335 -83.9011 0
1.78669 2.20035 -83.9011 0
1.62637 0.266407 -83.9011 0
1.33105 0.263228 -120.584 0
2.13531 0.0828216 -83.9011 0
2.68654 0.0654802 -83.9011 0
2.68654 0.0654802 -83.9011 0
2.43639 0.0500374 -83.9011 0
1.43236 -0.033526 -97.2371 0
1.63544 -0.0479473 -94.9385 0
3.08443 -0.201692 -83.9011 0
4.34817 -0.357822 -121.344 0
4.20435 -0.395542 -116.818 0
17.2594 -1.96876 -1165.11 0
-51.5798 7.118 3775.82 0
-1.61565 -1.32429 -86.9907 0
2.30379 2.08249 -83.9011 0
2.30379 2.08249 -83.9011 0
2.14959 1.7733 -83.9011 0
2.2255 1.43142 -83.9011 0
2.58147 1.3654 -83.9011 0
2.21665 1.33771 -83.9011 0
1.73347 1.1163 -83.9011 0
2.15296 0.806575 -83.9011 0
2.50145 0.731309 -83.9011 0
2.50145 0.731309 -83.9011 0
2.14411 0.714348 -83.9011 0
2.48992 0.637714 -83.9011 0
2.48992 0.637714 -83.9011 0
1.67098 0.5152 -83.9011 0
1.99721 0.435809 -83.9011 0
2.57766 0.396126 -83.9011 0
1.72374 0.294888 -83.9011 0
1.31543 0.188244 -96.4107 0
2.27404 0.131659 -83.9011 0
1.85263 0.122169 -83.9011 0
1.25039 0.104712 -94.4287 0
1.305 0.0843542 -94.0774 0
2.69804 0.0230998 -83.9011 0
1.59738 -0.0100302 -92.821 0
3.07434 -0.155837 -83.9011 0
6.40095 -0.907353 -282.026 0
2.56341 1.2649 -83.9011 0
2.6733 0.378224 -83.9011 0
2.25281 0.0884953 -83.9011 0
1.2723 0.0314735 -94.979 0
2.00485 -0.0247884 -83.9011 0
2.68757 -0.0538323 -83.9011 0
2.68757 -0.0538323 -83.9011 0
2.76876 -0.114791 -83.9011 0
2.38981 -0.166308 -83.9011 0
2.38981 -0.166308 -83.9011 0
4.06108 -0.270039 -132.649 0
4.06108 -0.270039 -132.649 0
4.48596 -0.304965 -127.015 0
4.17591 -0.346451 -115.014 0
29.1489 -4.3983 -2539.48 0
16.8416 -2.35437 -1016.14 0
16.8416 -2.35437 -1016.14 0
1.77654 2.04989 -83.9011 0
1.77654 2.04989 -83.9011 0
1.60651 0.410842 -83.9011 0
1.60651 0.410842 -83.9011 0
2.04061 0.312818 -83.9011 0
2.04061 0.312818 -83.9011 0
2.08987 0.250798 -83.9011 0
1.35332 0.222775 -83.9011 0
2.49401 0.197594 -83.9011 0
2.04656 0.181377 -83.9011 0
2.51186 0.11242 -83.9011 0
1.15626 0.103367 -97.3708 0
1.60419 0.07431 -93.0547 0
1.69533 0.0600866 -94.364 0
2.38777 0.0231684 -83.9011 0
2.09768 0.00279634 -83.9011 0
3.9617 -0.131026 -145.203 0
2.31831 -0.1937 -83.9011 0
2.92913 -0.266087 -83.9011 0
4.24761 -0.527427 -138.833 0
4.04557 -0.548369 -138.736 0
22.6776 -3.22802 -1360.27 0
22.6776 -3.22802 -1360.27 0
1.75893 1.79023 -83.9011 0
2.19285 1.71828 -83.9011 0
1.70819 1.46589 -83.9011 0
2.17321 1.39457 -83.9011 0
1.69468 1.16778 -83.9011 0
2.12072 1.08621 -83.9011 0
1.63265 0.56809 -83.9011 0
2.05033 0.474184 -83.9011 0
1.5857 0.324573 -83.9011 0
1.65777 0.245178 -83.9011 0
1.67932 0.144883 -83.9011 0
1.44001 0.141211 -96.8679 0
1.44001 0.141211 -96.8679 0
2.53088 0.0171213 -83.9011 0
2.53088 0.0171213 -83.9011 0
2.57563 -0.0859142 -83.9011 0
4.1773 -0.397153 -124.424 0
2.68356 1.6297 -83.9011 0
2.17499 1.39599 -83.9011 0
2.62399 1.31152 -83.9011 0
2.7208 1.0682 -83.9011 0
2.6021 0.984103 -83.9011 0
2.54562 0.676111 -83.9011 0
2.52468 0.358568 -83.9011 0
1.18359 0.18946 -121.827 0
2.04422 0.0899614 -83.9011 0
2.35045 -0.0843424 -83.9011 0
2.48156 -0.18612 -83.9011 0
4.38945 -0.551211 -175.601 0
2.80727 1.73595 -83.9011 0
2.3989 0.14131 -83.9011 0
2.3989 0.14131 -83.9011 0
2.00159 0.00624712 -92.8126 0
2.97595 -0.122818 -83.9011 0
2.84484 -0.223909 -83.9011 0
2.84484 -0.223909 -83.9011 0
4.00256 -0.319861 -145.203 0
3.79039 -0.394803 -117.538 0
8.15307 -1.13785 -369.183 0
2.22926 0.00629901 -83.9011 0
1.81939 0.351625 -83.9011 0
2.02896 1.9993 -83.9011 0
2.45677 1.77926 -83.9011 0
2.31005 0.482442 -83.9011 0
