ply
format ascii 1.0
element vertex 148
property float x
property float y
property float z
property uchar intensity
end_header
0.987523 0.523011 -83.9011 0
0.921191 0.478588 -90.2367 0
0.395009 0.468539 -94.4592 0
1.58049 0.392606 -83.9011 0
0.445912 0.416997 -96.939 0
0.742952 0.397121 -91.0628 0
1.83727 0.325311 -83.9011 0
0.63462 0.327736 -93.1263 0
0.426733 0.319289 -94.7752 0
0.644686 0.298546 -92.7916 0
0.511454 0.229482 -91.678 0
0.975199 0.211216 -99.8667 0
0.764366 0.156428 -96.691 0
9.98903 0.809797 -1435.12 0
7.06179 0.522455 -1016.14 0
6.95011 -0.0346422 -772.339 0
15.2668 -0.222378 -1934.39 0
29.3977 -2.51853 -2539.48 0
14.721 -1.84392 -811.234 0
1.10788 2.46599 -83.9011 0
0.428458 0.49732 -94.4592 0
0.939948 0.46894 -83.9011 0
0.279523 0.367126 -93.095 0
1.9286 0.3123 -83.9011 0
1.9286 0.3123 -83.9011 0
1.42042 0.298593 -83.9011 0
1.70564 0.275977 -83.9011 0
0.725764 0.208167 -91.5342 0
2.99485 0.105062 -108.051 0
2.77885 0.105512 -130.891 0
3.20458 -0.0517269 -103.533 0
3.19436 -0.0955819 -108.102 0
3.56884 -0.211006 -102.203 0
11.0582 -1.20026 -636.06 0
1.07881 2.43318 -83.9011 0
1.57266 2.33005 -83.9011 0
1.57266 2.33005 -83.9011 0
1.42859 2.01356 -83.9011 0
1.50538 1.66904 -83.9011 0
1.84043 1.61487 -83.9011 0
1.49657 1.57553 -83.9011 0
1.04244 1.33221 -83.9011 0
1.44055 1.03251 -83.9011 0
1.76784 0.967472 -83.9011 0
1.76784 0.967472 -83.9011 0
1.43152 0.938051 -83.9011 0
1.757 0.872153 -83.9011 0
1.757 0.872153 -83.9011 0
0.985052 0.718775 -83.9011 0
1.29123 0.649599 -83.9011 0
1.84362 0.627629 -83.9011 0
1.91683 0.610316 -83.9011 0
1.02795 0.49652 -83.9011 0
0.546941 0.442047 -95.8219 0
1.55651 0.350891 -83.9011 0
0.487793 0.364587 -98.3706 0
1.15588 0.326825 -83.9011 0
0.539057 0.329205 -92.4174 0
0.654299 0.190771 -90.2138 0
0.929805 0.156991 -99.8667 0
2.65011 0.114225 -104.496 0
10.6506 -0.845056 -1259.03 0
18.255 -1.66102 -1435.12 0
1.8223 1.51326 -83.9011 0
1.38046 0.465185 -83.9011 0
1.53219 0.308062 -83.9011 0
1.95676 0.259209 -83.9011 0
0.50845 0.271741 -93.7153 0
1.66129 0.245696 -83.9011 0
1.37901 0.204369 -83.9011 0
0.897894 0.199502 -98.1106 0
1.94442 0.177631 -83.9011 0
1.94442 0.177631 -83.9011 0
6.77159 0.952857 -1064.79 0
2.02292 0.118121 -83.9011 0
9.27763 0.266299 -1148.1 0
9.27763 0.266299 -1148.1 0
2.81119 0.0309809 -104.815 0
2.81119 0.0309809 -104.815 0
3.25735 0.0103739 -103.533 0
3.18255 -0.051894 -107.122 0
14.7596 -1.29986 -1175.38 0
14.7596 -1.29986 -1175.38 0
-2.47415 -1.41474 -86.8764 0
1.07303 2.2825 -83.9011 0
1.07303 2.2825 -83.9011 0
0.918774 0.612061 -83.9011 0
0.918774 0.612061 -83.9011 0
1.33385 0.523291 -83.9011 0
1.33385 0.523291 -83.9011 0
0.672124 0.471527 -95.2399 0
1.76423 0.421733 -83.9011 0
1.33192 0.394819 -83.9011 0
1.77792 0.339823 -83.9011 0
0.899813 0.290265 -96.691 0
0.998324 0.272342 -99.3965 0
50.2624 0.696328 -7185.6 0
19.9166 -1.33099 -1591.55 0
9.30744 -0.74752 -715.217 0
13.6396 -1.25597 -1016.14 0
10.0271 -0.845452 -594.464 0
1.05808 2.01923 -83.9011 0
1.47083 1.95868 -83.9011 0
1.93691 1.89056 -83.9011 0
1.01153 1.69278 -83.9011 0
1.45558 1.62828 -83.9011 0
1.00004 1.3853 -83.9011 0
1.40564 1.31329 -83.9011 0
1.86352 1.22811 -83.9011 0
1.81076 0.913487 -83.9011 0
0.942733 0.77094 -83.9011 0
1.34241 0.690811 -83.9011 0
1.79176 0.587702 -83.9011 0
0.893318 0.523764 -83.9011 0
0.969429 0.445779 -83.9011 0
0.364224 0.369499 -92.6626 0
0.986398 0.34698 -83.9011 0
1.79312 0.243914 -83.9011 0
1.79312 0.243914 -83.9011 0
2.85265 0.179781 -130.891 0
1.83726 0.141675 -83.9011 0
3.03799 -0.0910323 -105.942 0
15.5497 -1.44134 -1175.38 0
2.03611 1.97721 -83.9011 0
1.45753 1.63021 -83.9011 0
1.88118 1.56147 -83.9011 0
1.96308 1.30826 -83.9011 0
0.268845 0.44116 -93.1884 0
0.675506 0.37023 -93.1263 0
0.675506 0.37023 -93.1263 0
1.67667 0.358737 -83.9011 0
1.67667 0.358737 -83.9011 0
1.33459 0.301522 -83.9011 0
6.96789 0.580914 -847.175 0
12.8103 0.276141 -1551.57 0
8.81925 -0.573626 -710.883 0
1.22518 0.21183 -83.9011 0
15.6904 0.063239 -1591.55 0
15.6904 0.063239 -1591.55 0
2.60562 -0.00642156 -103.384 0
12.2081 -0.465672 -968.452 0
15.3969 -1.39213 -1094.45 0
1.51234 0.225329 -83.9011 0
2.66854 0.146878 -130.891 0
1.30641 2.18856 -83.9011 0
1.71265 2.04869 -83.9011 0
1.11711 0.564916 -83.9011 0
1.59194 0.718964 -83.9011 0
