ply
format ascii 1.0
element vertex 144
property float x
property float y
property float z
property uchar intensity
end_header
-50.3593 7.10209 3320.01 0
-48.6338 7.53494 3320.01 0
-54.7913 7.90968 3320.01 0
-40.9111 8.2121 3320.01 0
-59.2697 8.47454 3320.01 0
-42.664 8.51335 3320.01 0
-39.2002 8.68356 3320.01 0
-62.379 8.74306 3320.01 0
-46.491 8.73784 3320.01 0
-62.5928 9.51288 3320.01 0
-62.5928 9.51288 3320.01 0
-63.6802 10.6225 3320.01 0
7.89731 -1.79513 -362.502 0
-208.985 40.17 11412.6 0
4.40262 -1.07273 -152.004 0
-68.7481 11.8536 3320.01 0
6.6521 -1.42589 -219.445 0
5.74883 -1.2684 -174.197 0
5.14461 -1.20562 -138.824 0
10.9144 -2.17338 -362.502 0
5.42225 -1.23873 -130.092 0
6.00364 -1.34012 -123.882 0
-49.9062 6.78594 3320.01 0
-47.8033 7.40944 3320.01 0
-49.1759 7.46929 3320.01 0
-46.8019 8.1755 3320.01 0
-52.2051 8.66277 3320.01 0
-43.8892 9.27628 3320.01 0
12.3642 -2.91322 -807.356 0
-64.1999 9.78216 3320.01 0
-64.1999 9.78216 3320.01 0
-56.3782 9.81128 3320.01 0
-42.5867 10.1824 3320.01 0
-52.1428 10.6281 3320.01 0
4.15585 -1.06919 -152.004 0
-65.0704 11.5102 3320.01 0
-1.49828 -2.6433 -89.2187 0
-58.1871 -16.0009 3320.01 0
-58.1871 -16.0009 3320.01 0
-51.4791 -13.7845 3320.01 0
-64.5444 -12.0435 3320.01 0
5.22874 0.784821 -138.824 0
-49.424 -8.28397 3320.01 0
5.51263 0.693562 -130.092 0
5.51263 0.693562 -130.092 0
-50.5692 -4.13513 3320.01 0
-50.5692 -4.13513 3320.01 0
-55.2493 -3.33584 3320.01 0
-63.378 -1.94096 3320.01 0
-64.8915 -1.66159 3320.01 0
5.85198 -0.0781275 -152.004 0
5.85198 -0.0781275 -152.004 0
-49.8751 2.84383 3320.01 0
-49.7707 4.07568 3320.01 0
-49.7707 4.07568 3320.01 0
-54.3944 5.02559 3320.01 0
-62.5469 5.38669 3320.01 0
-62.5469 5.38669 3320.01 0
-64.041 5.70737 3320.01 0
-63.8941 6.98219 3320.01 0
-58.3475 9.10639 3320.01 0
-52.4379 9.39495 3320.01 0
-57.0687 9.43461 3320.01 0
-43.2815 9.57427 3320.01 0
-1.33787 -0.772567 -89.9197 0
-45.8397 10.2772 3320.01 0
-64.3736 10.4171 3320.01 0
5.59337 -1.31453 -219.445 0
-69.6923 12.7749 3320.01 0
-64.5966 -12.1053 3320.01 0
5.50759 0.701783 -130.092 0
-49.8362 4.17131 3320.01 0
-63.8029 6.29056 3320.01 0
-62.4812 6.76887 3320.01 0
-54.0827 7.04143 3320.01 0
-55.6577 7.54471 3320.01 0
-51.4161 8.66951 3320.01 0
-58.0497 9.69709 3320.01 0
4.45356 -1.08126 -174.197 0
-54.6487 11.3784 3320.01 0
-64.228 11.5056 3320.01 0
6.1403 -1.34833 -174.197 0
6.1403 -1.34833 -174.197 0
6.45499 -1.36952 -152.004 0
-51.0279 -16.6953 3320.01 0
-51.0279 -16.6953 3320.01 0
-48.8904 5.51703 3320.01 0
-48.8904 5.51703 3320.01 0
-55.007 6.69855 3320.01 0
-55.007 6.69855 3320.01 0
-42.5466 7.06426 3320.01 0
-45.4321 7.97775 3320.01 0
-61.4239 8.12759 3320.01 0
-55.129 8.50147 3320.01 0
-61.7165 9.29013 3320.01 0
-63.4237 9.65327 3320.01 0
-48.0497 10.1734 3320.01 0
-49.1381 10.3415 3320.01 0
-59.9435 10.5485 3320.01 0
3.83108 -1.05977 -130.092 0
6.13364 -1.31184 -174.197 0
6.13364 -1.31184 -174.197 0
5.21537 -1.1985 -130.092 0
-50.8245 -13.2516 3320.01 0
-50.015 -4.84334 3320.01 0
-49.2237 3.38114 3320.01 0
-55.1261 4.49547 3320.01 0
-42.6159 5.02761 3320.01 0
-48.5976 6.70974 3320.01 0
-49.6554 7.76786 3320.01 0
-49.9511 9.12652 3320.01 0
-45.5811 9.1974 3320.01 0
-45.5811 9.1974 3320.01 0
-62.0082 10.5951 3320.01 0
-62.0082 10.5951 3320.01 0
104.961 -20.0942 -5162.15 0
-63.7639 -11.4704 3320.01 0
5.5674 0.627797 -130.092 0
5.91079 -0.148328 -152.004 0
-40.8635 8.63349 3320.01 0
-40.8635 8.63349 3320.01 0
-60.1334 8.98812 3320.01 0
-60.1334 8.98812 3320.01 0
-55.1016 9.75783 3320.01 0
5.20392 -1.26687 -219.445 0
-59.4875 12.0476 3320.01 0
5.84129 -1.27684 -152.004 0
-65.0912 -9.58252 3320.01 0
-65.0912 -9.58252 3320.01 0
-64.4739 -3.93929 3320.01 0
-60.1104 8.92902 3320.01 0
-60.1104 8.92902 3320.01 0
270.711 -55.4118 -15895.8 0
6.33208 -1.31421 -152.004 0
6.33208 -1.31421 -152.004 0
-57.7315 10.8318 3320.01 0
-68.3527 12.3342 3320.01 0
4.86198 -1.26732 -108.454 0
-45.9754 2.52958 3320.01 0
-51.8976 6.23647 3320.01 0
-51.8976 6.23647 3320.01 0
-60.5759 -13.2531 3320.01 0
-40.3195 -0.150171 3320.01 0
-58.7679 4.33226 3320.01 0
