ply
format ascii 1.0
element vertex 144
property float x
property float y
property float z
property uchar intensity
end_header
2.33611 0.40022 -123.882 0
2.16026 0.321443 -115.636 0
5.13802 0.573287 -362.502 0
1.48524 0.203099 -101.302 0
1.94698 0.201305 -108.454 0
1.62878 0.192459 -103.087 0
-39.2809 -2.13496 3320.01 0
-39.2809 -2.13496 3320.01 0
1.34035 0.154683 -96.915 0
1.73249 0.141054 -105.385 0
-40.4785 -1.02591 3320.01 0
1.6334 0.0658796 -104.159 0
2.21945 0.0321296 -119.239 0
-35.6815 -0.34213 3320.01 0
-41.6462 -0.268996 3320.01 0
1.83659 0.00283792 -95.8956 0
-45.2309 0.0275935 3320.01 0
1.64991 -0.00986247 -95.3259 0
-34.0476 0.577487 3320.01 0
-33.2505 0.760433 3320.01 0
-33.5635 1.54651 3320.01 0
-44.0225 1.53839 3320.01 0
3.58976 -0.20686 -147.875 0
-45.9443 3.46548 3320.01 0
2.37704 0.370711 -123.882 0
2.20842 0.326114 -115.636 0
2.07811 0.321275 -112.76 0
3.73147 0.314235 -177.129 0
1.98244 0.253056 -110.41 0
-39.1283 -2.92234 3320.01 0
2.78994 0.267293 -152.004 0
-35.2166 -2.46516 3320.01 0
-40.9064 -1.83946 3320.01 0
-40.9064 -1.83946 3320.01 0
-33.3347 -1.74894 3320.01 0
-40.9907 -1.28215 3320.01 0
1.48894 0.093896 -101.302 0
2.78953 0.0856569 -152.004 0
-46.0614 0.857207 3320.01 0
-3.17122 -3.23312 -89.1297 0
4.024 3.14042 -219.445 0
4.024 3.14042 -219.445 0
2.30533 2.03479 -110.41 0
-40.733 -23.076 3320.01 0
3.95264 2.29517 -219.445 0
2.13772 1.57222 -108.454 0
2.9713 1.45531 -93.164 0
2.9713 1.45531 -93.164 0
2.23263 1.24584 -108.454 0
2.23263 1.24584 -108.454 0
3.04329 1.38332 -152.004 0
3.22403 1.07036 -106.801 0
1560.52 490.287 -119561 0
3.14842 0.874457 -112.76 0
3.14842 0.874457 -112.76 0
2.25403 0.707235 -115.636 0
2.24695 0.606616 -115.636 0
2.24695 0.606616 -115.636 0
3.19872 0.648742 -174.197 0
5.75789 0.904562 -316.093 0
5.75789 0.904562 -316.093 0
-40.6613 -5.83936 3320.01 0
-40.5518 -4.60823 3320.01 0
-33.9789 -2.11657 3320.01 0
2.8149 0.197156 -152.004 0
-34.9178 -1.95383 3320.01 0
1.68261 0.114754 -104.159 0
1.91214 0.0769882 -110.41 0
2.11961 0.0122414 -115.636 0
-40.7897 -23.1408 3320.01 0
2.96634 1.46402 -93.164 0
2.2528 0.598299 -115.636 0
2.15522 0.477513 -112.76 0
2.15522 0.477513 -112.76 0
-40.4179 -5.26194 3320.01 0
-39.113 -4.78133 3320.01 0
3.62047 0.510218 -219.445 0
-32.5803 -3.93972 3320.01 0
2.59665 0.255321 -138.824 0
3.1253 0.0925982 -119.239 0
2.27691 0.0949561 -123.882 0
1.69333 0.0412553 -103.087 0
-40.8763 -0.2662 3320.01 0
5.1093 0.0384925 -362.502 0
3.18789 -0.121915 -123.882 0
3.18789 -0.121915 -123.882 0
-44.3077 2.44751 3320.01 0
-3.11493 -3.56658 -89.1096 0
2.24751 2.25537 -108.454 0
2.24751 2.25537 -108.454 0
3.72196 0.557402 -219.445 0
3.72196 0.557402 -219.445 0
1.60748 0.304075 -102.142 0
3.23812 0.29526 -119.239 0
1.85143 0.254766 -106.801 0
5.18668 0.484664 -362.502 0
3.41172 0.208523 -131.453 0
-40.1242 -2.01265 3320.01 0
2.12319 0.102343 -115.636 0
3.13024 -0.0996404 -119.239 0
3.13024 -0.0996404 -119.239 0
8.82851 -0.44773 -628.486 0
2.23782 1.97324 -108.454 0
3.01905 1.40061 -93.164 0
2.18967 1.29992 -108.454 0
3.23516 0.824771 -115.636 0
2.17873 0.655425 -112.76 0
3.72846 0.804193 -219.445 0
1.60774 0.460396 -102.142 0
2.16227 0.391531 -115.636 0
2.31465 0.313988 -123.882 0
2.33983 0.199765 -123.882 0
1.87866 0.16111 -108.454 0
1.87866 0.16111 -108.454 0
4.29678 0.121593 -201.377 0
4.29678 0.121593 -201.377 0
-39.366 0.246224 3320.01 0
1.61201 -0.0952176 -94.3822 0
3.19068 1.79646 -102.813 0
3.13637 0.223233 -119.239 0
3.13637 0.223233 -119.239 0
1.48051 0.171203 -101.302 0
1.48051 0.171203 -101.302 0
-32.1229 -1.76674 3320.01 0
1.72572 0.0170799 -95.6012 0
3.57403 -0.0340097 -161.481 0
4.51279 -0.191978 -224.953 0
3.17268 1.58137 -93.164 0
3.17268 1.58137 -93.164 0
3.13534 1.16727 -93.0224 0
3.13212 0.227486 -119.239 0
3.13212 0.227486 -119.239 0
4.94169 0.0971507 -362.502 0
-44.7621 0.484558 3320.01 0
-43.0528 1.9084 3320.01 0
-43.0528 1.9084 3320.01 0
-34.6581 -0.782798 3320.01 0
3.16832 -0.333381 -123.882 0
1.42656 0.876151 -99.2636 0
1.87335 0.685743 -105.385 0
2.55556 0.454749 -130.092 0
2.55556 0.454749 -130.092 0
-36.8613 -24.3061 3320.01 0
-35.4851 -7.08934 3320.01 0
