ply
format ascii 1.0
element vertex 10
property float x
property float y
property float z
property uchar red
property uchar green
property uchar blue
element face 8
property list uchar int vertex_index
end_header
-106.544 152.925 -194.597 0 0 255
-63.968 103.525 -59.0733 0 0 255
-69.509 112.862 -54.2929 0 0 255
-52.1663 124.566 -57.0516 0 0 255
-46.6253 115.228 -61.832 0 0 255
-30.2347 -37.1499 -222.793 0 0 255
-22.8928 -17.3774 -73.8802 0 0 255
-19.8789 -6.07534 -75.8608 0 0 255
0.372514 -11.7696 -77.5379 0 0 255
-2.64137 -23.0717 -75.5574 0 0 255
3 0 1 2
3 0 2 3
3 0 3 4
3 0 4 1
3 5 6 7
3 5 7 8
3 5 8 9
3 5 9 6
