ply
format ascii 1.0
element vertex 144
property float x
property float y
property float z
property uchar intensity
end_header
-6.92182 0.0493912 27.0179 0
-6.73589 0.128616 27.3608 0
4.78545 12.3835 113.55 0
-6.25082 0.313277 28.0909 0
-6.78892 0.0849822 27.1889 0
-6.78892 0.0849822 27.1889 0
-1.1145 2.38204 50.1713 0
-1.1145 2.38204 50.1713 0
-6.93911 -0.0384296 26.6635 0
1.97953 13.9647 153.427 0
-8.24507 -2.52481 38.6866 0
-7.03645 -0.0198688 26.7077 0
-6.97503 0.00353207 26.822 0
-6.97503 0.00353207 26.822 0
-7.2573 -4.60989 0.15008 0
-7.2573 -4.60989 0.15008 0
-5.62213 0.527519 28.8712 0
-5.44928 0.573134 29.0425 0
1.16117 13.4113 153.606 0
-6.20868 0.318225 28.1168 0
1.96611 15.3904 155.844 0
-1.15219 2.29522 50.1883 0
-6.78494 0.086408 27.1947 0
-6.70276 0.120908 27.3388 0
-6.78494 0.086408 27.1947 0
-3.0766 0.291066 35.4237 0
-6.06403 0.388583 28.364 0
4.19565 8.98231 96.1449 0
-7.3428 -0.206602 25.727 0
-7.00321 -0.0237957 26.7045 0
-7.3428 -0.206602 25.727 0
-7.43674 -4.65691 0.178836 0
-6.5466 0.202893 27.6641 0
-7.16127 -0.109273 26.2733 0
-7.16127 -0.109273 26.2733 0
-6.39462 0.258271 27.8833 0
-3.82956 -0.549428 27.3188 0
-5.90249 0.443177 28.5633 0
5.48856 12.9811 117.42 0
-7.23294 -0.142773 26.0944 0
47.5182 40.9449 237.671 0
-6.49841 0.0609147 27.2034 0
-6.49841 0.0609147 27.2034 0
-5.74762 0.357425 28.3857 0
-7.07992 -0.221566 25.7807 0
-6.44086 0.129735 27.4551 0
-8.69483 -7.62762 0.756694 0
2.11464 13.6896 153.45 0
2.11464 13.6896 153.45 0
-8.71417 -6.83073 0.645491 0
-8.71417 -6.83073 0.645491 0
-6.22255 0.247514 27.9013 0
-10.0761 -4.4465 10.4489 0
-7.43276 -0.315965 25.0404 0
-7.02185 -0.0290317 26.6735 0
-7.15771 -0.194724 25.8727 0
-43.5083 87.7456 13.2291 0
-7.02185 -0.0290317 26.6735 0
-6.87896 -0.0119249 26.791 0
-5.71769 -3.16853 19.103 0
-7.12541 -0.0808102 26.4148 0
-6.87896 -0.0119249 26.791 0
-5.85764 0.433378 28.5487 0
-5.49114 0.580174 29.0473 0
-5.59666 0.500379 28.8105 0
-5.85764 0.433378 28.5487 0
-6.6621 0.156599 27.477 0
-5.58623 0.510639 28.8403 0
-6.74286 -0.0347101 26.7585 0
3.98746 11.9431 109.501 0
-5.58623 0.510639 28.8403 0
0.507959 2.98946 69.9509 0
-7.44624 -0.343824 24.847 0
-6.14992 0.32317 28.1482 0
-6.63036 0.127394 27.384 0
-6.47998 0.238699 27.799 0
-7.00036 -0.0454553 26.614 0
1.16117 13.4113 153.606 0
-5.67301 0.4997 28.7836 0
-7.12962 -0.119179 26.2442 0
-7.00036 -0.0454553 26.614 0
-6.38618 0.277001 27.9447 0
-6.42048 0.268533 27.9104 0
-7.40142 -0.26462 25.376 0
-6.92904 0.0499386 27.0191 0
-7.49261 -0.370024 24.6331 0
-5.6135 0.51724 28.8503 0
-5.34642 0.603893 29.1494 0
-5.52212 0.549984 28.9597 0
-5.21679 0.647 29.2963 0
-5.90331 0.431662 28.5311 0
-5.00711 -1.91933 18.8378 0
-1.08005 2.60849 50.1348 0
-7.12418 -0.1063 26.3051 0
-6.60615 0.167271 27.5287 0
-5.93483 0.424925 28.5018 0
-6.46883 0.226338 27.7609 0
-3.99072 -0.639376 27.3514 0
43.7813 38.4388 212.983 0
-5.09443 0.694383 29.4468 0
-7.17494 -0.112893 26.2548 0
-5.37912 0.615628 29.1688 0
-7.47595 -0.393979 24.464 0
-7.08367 -0.224673 25.7635 0
2.12543 13.6488 153.454 0
-5.59501 0.508351 28.8311 0
-7.11196 -0.103997 26.3189 0
-6.99957 -0.0357528 26.6524 0
-6.12264 0.344845 28.2197 0
-6.30528 0.27963 27.9744 0
-5.80524 0.464955 28.6517 0
-6.57617 0.183883 27.5969 0
-3.14251 0.743334 35.3673 0
-6.19736 0.34278 28.196 0
-7.16928 -0.10081 26.3147 0
-6.79504 0.108878 27.2757 0
-6.79504 0.108878 27.2757 0
-7.42026 -0.275066 25.3031 0
-9.35526 -9.09855 1.04746 0
-9.35526 -9.09855 1.04746 0
-5.47759 0.552918 28.9801 0
-5.47759 0.552918 28.9801 0
-6.22868 0.303863 28.0715 0
-6.22868 0.303863 28.0715 0
-2.31757 1.07145 43.0746 0
-6.28595 -3.43548 9.83921 0
-6.90902 0.0210426 26.9112 0
-6.24756 0.307169 28.0739 0
-6.94095 0.0124204 26.8671 0
-7.09639 -0.0702381 26.4742 0
-5.38429 0.607864 29.148 0
-5.52352 0.565667 28.9988 0
-6.77681 0.100406 27.2471 0
7.18547 15.362 131.543 0
-6.78715 0.109743 27.2743 0
-6.78715 0.109743 27.2743 0
-6.69346 0.156939 27.4711 0
-9.16352 -8.46829 0.934107 0
-8.64907 -6.98017 0.658779 0
-5.51558 0.529176 28.9111 0
-6.23414 0.288848 28.0231 0
-2.43323 0.640626 43.1503 0
-5.44761 0.569141 29.0354 0
-5.5823 0.532641 28.8974 0
