ply
format ascii 1.0
element vertex 263
property float x
property float y
property float z
property uchar intensity
end_header
1292.23 -293.837 3660.2 0
-61.6144 217.991 680.789 0
-64.5432 222.579 685.72 0
573.127 -316.156 3321.06 0
566.156 -283.575 3423.29 0
-517.325 -200.39 3731.61 0
-1232.92 -247.152 4969.48 0
-494.363 -65.5561 2146.45 0
-547.543 -50.1176 2069.23 0
-553.83 -24.8998 2171.96 0
-347.709 32.0869 1799.77 0
-350.838 34.3893 1786.8 0
-495.366 52.4975 1740.8 0
-363.727 91.7786 2279.11 0
301.351 68.8502 1395.73 0
-174.3 182.78 1685.09 0
170.202 280.605 1629.2 0
-148.14 263.04 1195.26 0
-62.8211 223.011 682.074 0
-15.7971 223.924 675.785 0
-15.2262 225.628 674.59 0
8.31934 227.899 671.939 0
-168.911 -142.729 1041.54 0
-77.6598 -146.696 1081.62 0
566.402 -321.528 3408.68 0
614.774 -291.613 3326.84 0
1288.04 -277.075 3647.45 0
1301.64 -267.868 3650.69 0
583.973 -237.181 3377.92 0
54.5818 -187.916 3109.01 0
-326.548 -210.153 3822.63 0
66.3748 -65.6886 1237.54 0
68.4979 -62.9007 1210.81 0
68.4979 -62.9007 1210.81 0
-260.473 -196.495 3913.57 0
568.266 -118.895 3399.22 0
1223.73 -103.29 3443.31 0
146.768 -32.3078 1424.84 0
-532.498 -45.1577 2052 0
154.639 3.80462 1611.73 0
4.81717 11.6769 1780.26 0
-323.731 40.0478 1795.11 0
-371.735 43.0433 1779.42 0
-72.7696 49.3923 1731.95 0
276.07 82.5432 1329.36 0
327.413 83.7224 1337.95 0
252.531 123.908 1307.85 0
-123.86 185.907 1681.36 0
-283.529 195.674 1685.48 0
52.6593 201.685 1433.98 0
177.057 273.254 1622.65 0
-95.3234 230.866 1173.07 0
-239.476 322.698 1424.38 0
-247.602 322.98 1351.72 0
-94.0142 225.226 682.958 0
277.52 -1516.53 4842.19 0
112.426 -331.429 1133 0
-227.384 -161.243 953.436 0
-226.551 -163.225 976.191 0
-140.242 -156.755 1047.93 0
156.123 -162.552 1145.47 0
142.462 -365.478 3898.14 0
1302.53 -286.164 3653.7 0
-307.512 -333.767 4447.08 0
559.549 -256.829 3400.85 0
109.119 -74.3568 1152.21 0
101.704 -59.4596 1181.64 0
-273.855 -181.135 3714.11 0
-1001.25 -169.9 3510.08 0
-261.236 -174.608 3766.93 0
101.712 -55.9218 1187.57 0
-336.914 -169.343 3685.95 0
1255.95 -160.024 3650.75 0
1221.57 -242.271 5693.48 0
622.875 -142.656 3504.94 0
-158.412 -81.7728 2390.12 0
-546.324 -58.2041 2143.71 0
1208.03 -75.2958 3444.57 0
-520.616 -13.7959 1945.55 0
72.6173 -9.57602 3091.4 0
165.831 24.8227 1629.92 0
-349.62 45.2182 1735.53 0
-76.5814 58.8844 1735.94 0
-322.888 89.3311 2273.88 0
-346.61 97.1518 2253.18 0
301.954 63.2334 1409.97 0
117.74 154.978 2786.41 0
322.345 75.6261 1345.48 0
226.125 78.0837 1368.6 0
-149.233 184.684 1674.21 0
-277.089 190.226 1699.3 0
-277.637 190.142 1700.39 0
-146.049 191.969 1685.12 0
-197.457 196.692 1702.66 0
162.518 203.707 1742.23 0
-553.268 199.12 1622.5 0
-362.137 195.562 1596.27 0
244.111 167.811 1335.53 0
-541.474 211.636 1617.73 0
-340.777 199.112 1516.53 0
292.888 183.998 1379.86 0
-411.313 335.978 1443.4 0
-424.727 328.541 1257.25 0
-72.0704 213.961 680.41 0
-88.7804 226.476 681.785 0
772.821 -1727.71 4842.12 0
1082.23 -1859.33 5279.86 0
-976.548 -1523.29 4334.56 0
854.511 -1658.25 4951.6 0
241.609 -191.752 1148.29 0
22.0052 -158.759 1078.11 0
-262.821 -135.448 1007.46 0
-171.069 -139.564 1048.4 0
-79.797 -143.35 1087.12 0
581.217 -314.351 3437.16 0
-430.768 -201 3805.14 0
-370.409 -191.355 3763.13 0
-209.287 -64.8466 1616.4 0
-149.705 -64.4737 2219.65 0
1206.85 -84.6427 3395.37 0
-371.535 71.6582 2043.87 0
152.344 116.344 2897.04 0
-368.203 95.4827 2217.97 0
244.882 66.9277 1366.58 0
262.269 82.6637 1330.27 0
266.27 97.5934 1306.56 0
219.733 140.239 1334.6 0
-211.063 191.344 1667.47 0
-136.693 193.432 1662.98 0
-162.902 190.254 1599 0
-187.465 192.255 1592.54 0
248.813 163.772 1324.55 0
-524.335 208.639 1609.92 0
-297.117 198.108 1530.35 0
-451.681 202.53 1486.43 0
-494.801 207.338 1489 0
283.352 207.062 1385.5 0
-87.8829 216.964 1184.87 0
-447.869 306.442 1292.98 0
-108.328 217.527 689.886 0
-48.9086 218.056 679.105 0
-34.7811 228.024 679.083 0
-29.1405 228.617 678.322 0
-23.6463 229.045 677.277 0
-18.7849 229.481 676.156 0
-107.48 235.483 689.963 0
-107.535 235.519 690.207 0
-84.8224 234.732 687.118 0
811.193 -1694.17 4848.51 0
-15.0904 -1603.35 4797.77 0
810.481 -1617.63 4868.23 0
-281.186 -1517.83 4675.94 0
1116.53 -1624.12 5163.75 0
-209.81 -173.094 954.49 0
-51.5912 -175.32 1029.14 0
141.692 -170.66 1130.92 0
-507.425 -366.337 4839.94 0
109.092 -53.8219 1178.85 0
-532.894 -72.5033 2102.21 0
-516.638 -0.895858 1856.65 0
-549.887 34.6669 1928.03 0
161.371 62.4668 2913.59 0
-536.344 43.242 1918.32 0
-555.13 48.7936 2113.68 0
-84.3007 61.3129 1735.11 0
164.49 105.007 2901.37 0
385.157 104.357 1262.11 0
384.805 104.241 1260.77 0
-219.18 187.472 1719.77 0
-468.358 194.445 1641.57 0
150.725 261.502 1681.6 0
-481.132 227.521 1429.58 0
-400.868 210.926 1308.49 0
-446.446 229.544 1407.64 0
285.739 251.958 1364.3 0
-116.822 222.714 1211.09 0
-486.008 289.942 1404.82 0
-407.685 305.825 1288.03 0
-411.206 321.5 1301.4 0
-70.5744 196.286 687.287 0
-51.8482 221.805 680.802 0
-28.5782 219.893 675.122 0
-43.4668 222.825 679.164 0
-43.466 222.804 679.03 0
-32.3898 223.642 676.243 0
-26.4717 224.736 676.2 0
-20.3667 225.406 676.51 0
-86.7502 230.847 685.052 0
4.9818 227.22 670.702 0
847.741 -1696.5 4842.16 0
374.231 -1588.28 4561.76 0
-948.248 -1527.73 4384.18 0
-286.473 -169.78 920.921 0
-502.236 -470.629 4823.3 0
123.593 -71.0488 1162.93 0
-391.994 -69.3674 1276.07 0
-506.475 13.8723 1823.81 0
-519.056 25.1343 2047.71 0
235.585 71.3054 1398.59 0
390.735 121.903 1258.74 0
-291.579 190.726 1692.67 0
-264.564 189.234 1687.76 0
-276.813 194.946 1561.15 0
267.573 178.492 1345.2 0
-348.199 209.258 1488.66 0
295.25 196.808 1374.91 0
-122.26 196.96 1205.75 0
197.29 276.274 1628.57 0
-392.01 343.674 1285.72 0
-28.3888 207.502 696.39 0
-103.239 212.936 686.23 0
-55.8942 217.554 681.063 0
-55.9604 217.432 680.537 0
884.347 -1083.21 3902.8 0
95.7029 -171.848 1114.89 0
345.504 -147.531 1272.67 0
102.642 -85.6748 1112.78 0
-603.525 -210.339 3634.26 0
7.77589 49.8758 1262.68 0
226.153 90.1645 1379.07 0
199.457 102.642 1349.02 0
-388.085 193.464 1647.74 0
-415.094 195.613 1651.73 0
-480.177 198.591 1574.72 0
-324.226 196.247 1530.66 0
-59.8334 205.468 1601.3 0
-385.45 309.113 1281.2 0
-43.9984 203.245 696.333 0
-79.6762 212.074 678.015 0
-62.4724 220.37 681.538 0
-62.5234 220.414 681.829 0
-64.3471 233.789 686.083 0
-64.4199 233.179 684.137 0
178.171 -143.531 1198.49 0
236.316 158.21 1347.88 0
-351.914 198.011 1510.04 0
-367.114 208.199 1487.51 0
-416.576 210.757 1465.67 0
-107.002 251.507 1504.19 0
18.2807 194.208 1128.88 0
-224.458 303.963 1390.87 0
-149.354 280.481 1238.63 0
-411.204 312.126 1283.54 0
328.489 -139.468 1370.16 0
-131.945 245.631 1305.26 0
-141.438 253.388 1209.66 0
-399.383 298.894 1288.94 0
-105.774 227.414 688.423 0
53.0841 -141.561 1122.86 0
33.887 -110.363 1142.35 0
209.437 -132.976 1401.58 0
737.101 -219.429 3460.85 0
109.348 -70.7352 1247.29 0
-125.566 66.2553 1748.41 0
-85.282 169.278 2000.91 0
-111.924 210.743 668.269 0
-173.392 -174.223 1014.9 0
95.0467 -180.41 1119.57 0
-82.5324 -153.431 1086.2 0
266.875 106.137 1319.43 0
262.79 154.408 1327.11 0
306.034 264.57 1369.96 0
250.675 273.911 1325.45 0
