ply
format ascii 1.0
element vertex 304
property float x
property float y
property float z
property uchar intensity
end_header
1267.8 -424.008 3655.81 0
-52.2537 182.642 679.044 0
-55.4547 184.773 678.208 0
99.8197 200.849 658.645 0
-73.94 -193.86 1068.53 0
552.286 -433.199 3308.59 0
580.344 -441.383 3440.83 0
-542.041 -325.389 3710.92 0
-287.131 -328.01 3895.61 0
-359.924 -226.073 2968.3 0
-1336.29 -538.335 7213.79 0
-496.717 -138.709 2068.73 0
-501.669 -143.067 2130.86 0
1243.87 -216.235 3462.65 0
-561.252 -102.954 2156.95 0
-350.961 -35.6456 1788.84 0
-411.346 -28.3257 1717.64 0
-75.2509 -17.428 1724.48 0
-497.903 -12.8713 1728.96 0
-371.866 9.67636 2269.57 0
302.505 10.6048 1392.96 0
299.605 22.9617 1420.31 0
329.237 27.1008 1335.93 0
222.043 92.3706 1380.56 0
-205.875 99.0504 1351.17 0
45.2826 150.206 1414.84 0
176.565 208.599 1624.6 0
169.668 215.778 1631.3 0
-144.092 212.559 1193.69 0
-53.4552 187.625 680.468 0
-37.5734 186.895 677.605 0
-6.36367 188.536 674.705 0
17.8071 192.527 671.235 0
47.7099 195.946 666.86 0
130.326 197.201 649.555 0
121.042 203.23 655.076 0
162.008 203.812 647.061 0
-281.722 336.934 1063.72 0
-288.135 343.494 1057.21 0
114.893 -380.826 1116.33 0
-164.743 -188.319 1027.62 0
1263.82 -406.854 3643.53 0
71.1447 -114.58 1201.71 0
71.1447 -114.58 1201.71 0
117.994 -104.718 1194.67 0
-415.197 -328.1 3783.22 0
161.159 -126.336 1615.1 0
-1356.36 -551.873 7238.97 0
600.72 -265.508 3498.12 0
588.548 -256.837 3433.86 0
547.331 -238.357 3392.59 0
1202.34 -226.751 3444.05 0
-412.902 -101.873 1980.35 0
-516.566 -42.0895 1824.41 0
-393.016 -28.2337 1716.64 0
-374.727 -23.985 1768.58 0
-79.0696 -8.04485 1728.71 0
-335.612 -4.10113 2242.66 0
302.934 4.56013 1407.03 0
104.396 55.6413 2783.59 0
277.984 26.389 1326.77 0
268.485 42.1575 1304.33 0
244.94 84.7292 1334.85 0
-125.287 120.752 1677.49 0
-199.066 131.191 1698.32 0
-542.099 150.081 1610.26 0
53.9187 143.24 1432.56 0
-91.1624 180.852 1171.1 0
-237.641 265.675 1423.53 0
-84.6475 189.94 681.089 0
90.3233 194.488 660.299 0
56.6273 196.588 665.099 0
65.3931 196.858 661.543 0
-286.432 328.297 1068.06 0
106.621 201.694 657.809 0
-296.464 340.828 1048.41 0
-294.951 344.947 1050.88 0
251.397 -1661.69 4712.46 0
235.975 -1677.54 4789.7 0
1071.1 -1798.15 5116.71 0
-136.196 -202.647 1033.89 0
115.309 -498.091 3879.35 0
-340.372 -481.063 4424.22 0
112.345 -124.435 1143.23 0
102.492 -113.561 1158.37 0
68.7262 -118.162 1228.32 0
104.673 -110.399 1173.02 0
-298.328 -306.608 3696.57 0
-1023.46 -286.287 3485.31 0
-286.249 -301.723 3749.69 0
-361.039 -293.718 3668.12 0
1175.66 -433.291 5688.86 0
-489.422 -131.671 1961.06 0
611.531 -235.604 3684.78 0
-566.567 -134.49 2137.52 0
-553.569 -135.425 2127.8 0
-547.038 -132.765 2126.35 0
-525.584 -85.1858 1931.35 0
-544.183 -71.1055 1875.73 0
123.96 -53.5671 1691.55 0
-943.23 -87.9817 2775.93 0
-326.905 -27.6458 1784.68 0
-352.138 -20.5818 1725.01 0
137.673 13.5586 2893.37 0
-354.453 15.7571 2243.99 0
278.355 30.791 1346.27 0
320.714 33.7603 1329.16 0
208.033 66.77 1313.4 0
254.831 68.477 1306.27 0
186.586 74.058 1333.92 0
255.464 85.1631 1317.97 0
-150.586 119.848 1670.03 0
-279.241 125.038 1695.01 0
315.514 101.232 1337.75 0
-147.491 126.788 1681.19 0
317.445 107.478 1348.25 0
-362.605 133.929 1590.22 0
-399.487 138.945 1598.05 0
-420.472 142.064 1611.25 0
-340.382 139.787 1510.85 0
-154.042 195.459 1310.26 0
-244.992 268.173 1350.83 0
-283.804 270.286 1329.4 0
-348.882 299.637 1291.08 0
-56.7912 189.609 680.74 0
-79.3968 191.203 680.009 0
-98.1489 200.037 688.256 0
-98.2065 200.066 688.501 0
48.4133 195.887 665.733 0
48.6915 195.656 664.472 0
-287.113 331.892 1064.38 0
-296.144 336.797 1049.99 0
180.725 214.865 642.801 0
198.041 216.725 640.114 0
143.077 223.207 654.411 0
152.819 224.203 651.925 0
-49.7918 -225.656 1010.39 0
-222.342 -203.938 938.391 0
25.7109 -206.217 1065.71 0
-258.256 -179.635 992.788 0
-166.962 -185.353 1034.55 0
-76.1232 -190.672 1074.1 0
112.112 -104.71 1170.47 0
-418.92 -306.37 3711.03 0
-161.146 -160.242 2219.49 0
-157.81 -145.587 2207.69 0
1274.91 -196.475 3580.59 0
-520.609 -69.6358 1842.92 0
-522.15 -61.2435 1827.63 0
146.322 -40.8277 2908.38 0
-377.24 -3.33255 2033.76 0
149.73 2.04762 2897.48 0
-375.676 15.2348 2208.52 0
246.342 9.78876 1363.18 0
227.607 20.9555 1365.33 0
221.811 84.1297 1333.15 0
-212.316 126.959 1662.85 0
-137.895 128.878 1659.2 0
-469.307 131.883 1634.34 0
-163.431 127.731 1594.88 0
251.084 107.836 1324.12 0
-187.917 130.025 1588.23 0
246.281 111.562 1335.16 0
-524.889 147.25 1602.54 0
-296.877 138.191 1525.09 0
-450.945 144.56 1479.69 0
-494.072 149.464 1481.95 0
285.134 149.133 1386.7 0
-358.027 159.265 1452.48 0
-444.682 254.223 1289.52 0
-62.7201 178.668 678.435 0
-39.5305 182.706 677.497 0
-19.7158 193.205 677.242 0
-77.3852 195.466 683.427 0
-9.33446 194.091 675.212 0
-75.465 199.279 685.63 0
26.6211 196.973 666.847 0
-294.436 329.611 1064.38 0
-79.4155 220.007 683.465 0
-92.0969 229.994 689.22 0
202.929 217.623 640.328 0
156.559 220.335 651.886 0
-281.113 -211.253 905.012 0
-47.4206 -220.999 1015.49 0
144.782 -220.187 1119.39 0
-317.671 -167.708 995.359 0
-535.694 -589.342 4754.61 0
-539.752 -148.525 2086.03 0
36.2251 -63.7343 1967.47 0
-554.484 -36.0996 1914.98 0
-540.806 -27.2917 1905.68 0
-561.654 -27.5382 2100.91 0
-299.554 -24.4581 1798.24 0
165.574 -28.2563 2918.55 0
-86.7703 -5.56113 1727.88 0
-77.8363 9.09772 1899.33 0
324.059 18.8022 1343.17 0
-221.004 121.55 1714.92 0
-585.656 282.393 3483.36 0
-479.695 171.367 1423.32 0
-398.207 158.094 1302.64 0
-444.769 173.909 1401.81 0
287.915 194.637 1366.89 0
-113.096 171.648 1208.64 0
-399.819 234.65 1298.06 0
-438.497 258.642 1315.26 0
-404.45 253.592 1284.97 0
-408.054 268.872 1298.77 0
-65.9211 159.582 684.367 0
-99.0628 182.095 687.63 0
-19.152 184.579 673.786 0
-42.474 186.413 679.275 0
-34.0718 187.449 677.757 0
-34.0697 187.431 677.622 0
-22.9092 188.433 675.609 0
-22.9613 188.308 674.979 0
-17.039 189.378 675.032 0
-10.9352 190.014 675.426 0
8.5919 191.023 667.891 0
14.4804 191.898 669.943 0
-302.745 328.175 1058.61 0
-90.0575 214.871 684.238 0
-91.0348 223.975 688.393 0
171.316 218.287 649.693 0
-81.0215 230.311 686.303 0
347.156 -202.158 1263.92 0
106.247 -134.537 1103.41 0
126.717 -121.51 1154.19 0
-510.041 -53.9288 1810.65 0
-266.038 124.458 1682.5 0
-276.915 134.022 1556 0
269.679 121.853 1345.4 0
297.106 139.154 1375.94 0
269.203 149.949 1387.87 0
-118.573 146.088 1202.47 0
-15.66 167.312 698.086 0
19.5686 208.244 849.147 0
-57.6425 168.592 669.812 0
-46.5384 182.174 679.366 0
-46.5994 182.068 678.835 0
-54.9834 198.285 684.783 0
-55.0378 197.733 682.818 0
-88.9082 209.987 685.581 0
-290.898 335.159 1058.84 0
-320.91 336.157 1040.77 0
127.194 216.429 660.599 0
-326.883 341.545 1017.66 0
135.898 219.952 654.916 0
194.623 219.123 641.907 0
-73.5262 -183.006 1089.66 0
180.64 -195.249 1188.13 0
-627.235 -332.058 3612.41 0
10.2961 -3.16777 1256.31 0
230.99 12.8782 1355.59 0
227.569 32.7157 1376.16 0
201.242 46.1993 1346.22 0
-293.098 125.911 1687.16 0
-389.108 130.391 1641.32 0
-416.149 132.529 1645.09 0
-480.396 138.084 1567.53 0
-323.994 136.432 1525.06 0
196.744 211.358 1630.83 0
-382.131 256.993 1278.48 0
-19.2359 171.553 694.672 0
-93.953 177.595 683.891 0
-70.307 176.884 675.904 0
-53.1107 185.001 679.856 0
-53.1647 185.036 680.147 0
25.3244 190.858 668.391 0
-309.688 356.609 1055.3 0
97.2235 -369.901 1082.94 0
98.9626 -220.705 1102.85 0
40.0073 -190.505 1086.21 0
-89.7975 -181.913 1071.35 0
93.1203 -123.412 1101.43 0
238.319 101.626 1347.14 0
-351.453 138.927 1504.21 0
-366.374 149.85 1481.83 0
-415.59 153.264 1459.57 0
-106.295 191.579 1502.56 0
22.7682 145.077 1127.03 0
265.167 197.521 1364.81 0
-222.337 247.894 1389.63 0
-145.703 228.694 1237.56 0
-407.897 260.039 1280.64 0
-34.8598 167.364 694.323 0
-80.6215 212.624 684.722 0
-316.229 340.085 1022.94 0
193.385 212.526 638.958 0
111.574 -123.674 1238.37 0
279.702 14.8314 1389 0
220.894 226.552 1628.76 0
-129.136 191.786 1303.28 0
323.339 230.176 1398.19 0
-137.58 202.451 1207.87 0
-396.184 246.603 1285.76 0
-96.4568 192.01 686.493 0
329.133 -196.96 1361.42 0
-128.157 -0.85294 1740.88 0
-90.1817 94.3697 1996.77 0
-102.454 175.978 665.782 0
-78.8863 -200.71 1072.85 0
268.984 50.3076 1317.45 0
253.35 217.889 1328.36 0
