ply
format ascii 1.0
element vertex 196
property float x
property float y
property float z
property uchar intensity
end_header
937.474 -1306.12 3778.35 0
-168.665 -1316.25 4202.1 0
301.919 -1124.16 3635.69 0
945.934 -1050.59 3625.73 0
1123.81 -997.025 3462.03 0
982.41 -995.144 3501.75 0
753.497 -912.143 3297.6 0
1005.74 -904.878 3416.26 0
1211.2 -874.073 3477.44 0
250.099 -916.814 3770.19 0
229.184 -901.748 3764.1 0
-498.075 -400.303 1683.6 0
274.037 -796.794 3621.11 0
-498.946 -350.024 1645.45 0
-506.848 -344.234 1668.69 0
1151.22 -701.169 3505.37 0
-542.022 -426.704 2153.39 0
-145.478 -270.361 1442.24 0
37.9768 -227.937 1272.94 0
-235.841 -623.03 3673.58 0
11.0482 -181.054 1225.45 0
56.9493 -171.495 1218.71 0
-455.842 -208.423 1468.4 0
-184.249 -107.843 1023.1 0
-139.979 -14.3795 621.849 0
-146.042 -12.3442 588.274 0
-155.689 -13.7077 591.456 0
-27.348 60.7423 574.848 0
95.1651 68.1702 560.914 0
-35.512 94.7968 580.558 0
74.6667 109.262 567.86 0
74.1688 111.194 571.262 0
-38.1287 113.075 582.81 0
76.9924 111.479 565.629 0
-77.5625 123.487 590.293 0
-106.864 156.159 603.477 0
-96.5875 158.629 602.245 0
-96.5875 158.629 602.245 0
-9.72625 158.526 588.789 0
-11.7986 159.555 589.055 0
-53.0584 -359.192 1071.45 0
-259.337 -1097.64 3565.26 0
-220.719 -1036.19 3432.11 0
-135.206 -1075.46 3630.22 0
968.815 -1027.26 3542.38 0
172.426 -334.709 1197.2 0
754.164 -902.437 3311.19 0
965.76 -945.818 3494.16 0
856.427 -891.847 3313.93 0
1068.78 -907.631 3480.24 0
291.321 -842.416 3650.75 0
-256.803 -337.597 1630.75 0
1166.95 -708.697 3510.65 0
-513.688 -426.916 2151.89 0
-540.243 -403.35 2051.19 0
-542.374 -413.705 2112.03 0
145.291 -224.642 1219.81 0
85.8427 -208.646 1226.64 0
1127.56 -601.963 3541.31 0
1101.98 -591.542 3522.65 0
137.14 -203.484 1244.67 0
1279.59 -531.764 3568.33 0
-469.274 -236.521 1618.07 0
55.1283 -156.074 1231.92 0
-152.591 -168.125 1363.65 0
112.191 -132.85 1253.37 0
-172.944 -18.4039 590.788 0
-165.24 -16.3179 590.952 0
-84.0325 24.1872 583.742 0
-32.7095 44.3808 424.584 0
-7.39019 68.5627 570.345 0
-7.29074 68.738 571.695 0
-6.39504 71.3813 571.076 0
-12.173 85.9071 573.683 0
80.5455 101.4 567.655 0
77.2779 104.629 565.309 0
83.0929 113.45 567.433 0
-38.0907 124.012 589.03 0
-76.7646 125.992 589.471 0
79.6948 123.041 574.352 0
-118.872 151.179 604.248 0
-37.9508 150.411 591.655 0
-10.8686 149.102 585.068 0
-55.8317 -368.035 1037.73 0
-985.122 -1486.51 4538.09 0
290.891 -1132.78 3720.73 0
795.518 -1008.7 3368.38 0
1255.64 -987.644 3502.53 0
1171.86 -959.285 3615.35 0
1175.8 -784.553 3632.26 0
-107.033 -322.243 1775.45 0
148.827 -219.105 1218.71 0
133.376 -213.119 1251.08 0
-475.308 -211.853 1471.67 0
-451.256 -211.433 1487.72 0
1129.15 -486.659 3462.45 0
47.3751 -135.02 1240.15 0
42.1703 -133.124 1251.47 0
-58.7311 -115.365 1592.66 0
181.098 -17.4989 992.723 0
-70.2964 23.6758 581.015 0
-74.5863 26.9004 581.4 0
51.3123 49.099 557.866 0
51.3123 49.099 557.866 0
54.6218 50.1133 558.7 0
97.9231 52.9117 553.86 0
26.3939 56.6118 563.985 0
26.2593 56.4926 563.452 0
31.224 58.0365 563.203 0
8.67614 61.4371 572.448 0
-14.7822 87.2092 573.5 0
79.3318 95.321 565.377 0
-114.262 158.434 600.427 0
-114.258 158.466 600.434 0
-706.605 -604.756 2090.06 0
909.415 -1013.48 3542.07 0
-140.767 -897.503 3229.5 0
1261.46 -852.645 3537.84 0
-539.253 -437.511 2136.22 0
-69.8604 -296.323 1671.09 0
95.1729 -203.901 1226.8 0
59.2009 -153.595 1231.36 0
41.9094 -154.9 1254.08 0
88.5625 -101.945 1294.86 0
75.3098 -94.9771 1306.46 0
696.689 -164.839 2491.88 0
-74.9069 42.3979 583.108 0
45.4788 41.873 563.351 0
-32.4112 52.5148 577.725 0
100.318 50.9474 551.653 0
-14.5466 82.4607 576.802 0
88.107 108.281 566.587 0
-73.4377 121.631 590.308 0
85.4058 117.738 567.513 0
-67.8377 129.508 591.845 0
-65.3375 133.489 593.33 0
-42.0311 139.834 590.213 0
3.99437 140.612 578.192 0
-102.755 153.582 602.937 0
-25.0872 164.455 593.645 0
-919.738 -1442.79 4553.8 0
1068.41 -588.681 3526.87 0
63.81 -120.348 1262.73 0
59.456 -96.7405 1307.64 0
-98.6187 14.4951 589.203 0
-10.8783 99.1674 579.728 0
89.8532 100.614 565.638 0
77.2339 114.047 566.841 0
-31.9001 125.298 586.553 0
-55.3677 128.893 587.1 0
-34.1659 130.761 588.615 0
3.01568 145.94 580.841 0
3.01568 145.94 580.841 0
-1252.04 -1453.08 4382.17 0
-500.255 -564.467 2102.81 0
36.2408 -217.384 1284.83 0
-96.1625 -263.817 1887.5 0
78.5651 -61.2698 1318.66 0
-195.253 -27.0914 594.144 0
189.039 -20.3533 1000.71 0
166.848 0.113617 944.89 0
65.6002 60.5761 563.552 0
3.42374 64.7179 574.204 0
-3.13077 71.3003 574.531 0
-18.3345 74.0791 577.825 0
-7.96954 89.4285 578.244 0
91.9227 88.5839 562.005 0
-22.7382 91.5623 580.702 0
-27.0678 109.205 583.185 0
-81.1103 119.327 595.023 0
-56.4944 123.896 589.919 0
-43.8257 127.736 589.194 0
-20.0675 135.294 586.552 0
-21.3077 141.959 587.712 0
-104.86 161.139 602.983 0
7.8436 -205.392 1256.17 0
1029.43 -455.138 3261.74 0
-92.8729 4.19282 581.113 0
-48.1147 137.677 593.18 0
40.1257 145.687 578.834 0
-41.2851 159.276 593.819 0
44.8457 154.777 576.708 0
1062.03 -537.248 3429.07 0
70.3396 -105.259 1290.79 0
56.4839 32.5654 556.625 0
103.138 49.3802 540.052 0
-121.39 138.652 606.798 0
18.7419 134.429 579.406 0
-127.411 156.707 606.189 0
901.965 -971.151 3410.65 0
1115.98 -739.671 3500.47 0
39.6663 -124.503 1282.46 0
-58.2278 112.757 579.462 0
-7.18123 67.5315 580.385 0
92.3561 70.9315 560.421 0
-39.0642 117.704 585.713 0
