ply
format ascii 1.0
element vertex 279
property float x
property float y
property float z
property uchar intensity
end_header
539.053 -672.215 3814.16 0
503.555 -648.507 3928.4 0
446.837 -624.192 3975.95 0
-56.4808 92.9139 642.295 0
-920.823 -595.577 3351.07 0
522.529 -663.486 3837.35 0
522.548 -662.906 3835.88 0
467.001 -664.195 3995.38 0
448.965 -647.657 3998.28 0
537.747 -622.781 3869.62 0
-683.196 -543.99 3410.7 0
-358.018 -315.045 2049.01 0
-343.868 -320.114 2120.95 0
-345.88 -306.269 2031.02 0
486.434 -552.563 3848.96 0
-232.812 -259.128 1965.35 0
-210.218 -228.871 1765.62 0
883.069 -334.719 3212.23 0
-126.105 -149.408 2242.96 0
28.8607 -92.3924 1678.47 0
355.019 30.5436 1281.22 0
-282.459 189.582 1045.48 0
2.05705 112.676 630.437 0
-298.18 194.038 1033.77 0
-110.09 -312.745 964.391 0
119.365 -262.154 1043.31 0
-92.1602 -1057.12 4620.11 0
177.182 -721.661 3811.5 0
473.364 -718.427 3893.38 0
378.389 -790.947 4331.01 0
488.752 -689.754 3846.76 0
529.483 -683.418 3830.28 0
468.049 -677.582 3928.08 0
-767.385 -607.418 3519.55 0
469.301 -604.201 3909.73 0
348.584 -409.884 3107.2 0
-359.53 -227.656 1818.42 0
-41.674 -461.946 3760.86 0
959.564 -405.047 3243.27 0
41.9949 -237.738 2171.97 0
918.071 -301.112 3216.17 0
263.028 -118.391 1361.07 0
286.066 -131.103 1534.75 0
843.917 -248.016 3303.82 0
-193.729 -162.865 2220.18 0
847.374 -220.446 3264.14 0
-76.3254 -107.739 1707.36 0
-76.0022 -106.265 1694.64 0
294.885 -84.3886 1557.01 0
9.61771 -74.5502 1691.07 0
263.988 -46.6459 1578.04 0
291.317 26.3799 2727.83 0
288.307 77.0188 1320.31 0
-298.838 189.652 1031.39 0
55.0314 133.848 621.171 0
-131.428 221.663 659.309 0
145.836 205.699 594.265 0
158.215 209.531 600.792 0
-1334.3 -1311.12 4103.72 0
82.7515 -283.015 1017.56 0
-451.875 -845.442 3813.86 0
183.457 -712.409 3816.61 0
521.63 -649.403 3741.85 0
-1514.75 -808.906 4620.7 0
453.888 -691.684 4024.01 0
492.083 -654.344 3870.79 0
449.944 -673.529 4053.2 0
-360.056 -247.56 1821.88 0
-98.2215 -254.782 1952.41 0
947.249 -385.275 3210 0
-213.318 -168.011 1706.86 0
-182.613 -168.198 1764.34 0
861.828 -282.106 3295 0
-186.761 -168.411 2242.91 0
141.353 -117.309 1726.59 0
848.174 -202.611 3408.83 0
-184.413 -128.344 2224.8 0
48.081 -89.8361 1689.66 0
252.615 -85.3102 1636.55 0
265.533 -74.1222 1615.48 0
837.662 -146.053 3298.17 0
-498.026 -69.5908 1600.58 0
-496.407 -68.9176 1594.14 0
283.186 -62.9291 1566.51 0
-423.317 -40.9019 2259.89 0
-298.173 -16.0208 1495.04 0
-253.793 -8.75852 1532.87 0
-130.757 -2.03573 1691.42 0
-12.5223 54.2626 1520.84 0
246.13 107.502 1685.68 0
350.351 127.394 1314.96 0
-89.5841 114.018 649.822 0
2.83183 119.73 633.562 0
-99.8096 126.206 656.977 0
-113.013 198.221 660.253 0
68.5514 -302.553 966.679 0
-492.517 -1207.23 4375.79 0
166.22 -272.318 1021.88 0
-950.505 -873.375 3272.12 0
-424.314 -1160.71 4530.38 0
-505.991 -1102.05 4348.48 0
365.054 -246.772 1068.74 0
282.146 -236.448 1076.83 0
-172.281 -710.304 3611.9 0
168.877 -700.936 3816.32 0
184.341 -657.964 3681.37 0
482.816 -662.423 3967.15 0
450.93 -586.48 3957.06 0
216.318 -162.128 1090.12 0
207.797 -150.078 1120.54 0
935.681 -417.479 3224.12 0
899.055 -333.617 3327.5 0
930.221 -273.428 3289.57 0
854.299 -256.983 3298.04 0
-202.49 -143.958 2213.36 0
-185.524 -139.747 2243.27 0
-207.544 -134.318 2191.06 0
-367.67 -33.9887 1471.43 0
-347.815 -31.1203 1510.49 0
107.237 -23.6349 1281.82 0
-329.977 -27.0332 1552.71 0
-301.815 -16.1937 2282.77 0
342.12 -5.3638 2834.33 0
-118.497 8.33881 1635.51 0
-427.552 44.5432 1395.76 0
339.498 38.7868 1240.27 0
-410.039 92.1164 1260.72 0
308.32 98.502 1261.95 0
-355.303 121.214 1203.41 0
-40.6324 94.749 640.342 0
-78.0275 105.896 651.301 0
-29.2918 107.788 639.77 0
-292.938 179.41 1047.05 0
-93.185 112.029 649.573 0
-297.433 185.833 1032.9 0
-14.35 113.07 635.845 0
-99.7571 158.078 654.893 0
-114.633 172.503 655.78 0
131.735 196.742 600.666 0
193.04 194.355 586.804 0
75.2786 -295.649 974.158 0
67.2427 -296.372 1021.88 0
-47.5025 -289.76 1002.7 0
-742.207 -1288.07 4455.12 0
-787.943 -1226.07 4455.57 0
-291.728 -310.525 1283.12 0
-34.3703 -997.776 4392.59 0
463.321 -711.932 4000.56 0
-1420.2 -779.185 4471.31 0
-658.819 -286.81 2065.58 0
-564.822 -295.066 2164.17 0
-382.676 -234.823 1933.35 0
39.9673 -89.2946 1689.44 0
-487.574 -70.5469 1596.89 0
-370.471 -49.2466 1626.91 0
325.801 -67.4501 2869.04 0
-298.243 -18.1085 1463.52 0
-374.779 -4.76429 1393.58 0
-349.145 -0.434544 1353.08 0
-190.911 -1.43745 1534.01 0
-165.515 3.27025 1548.62 0
401.887 29.9231 1274.5 0
277.225 57.3713 1248.36 0
331.64 61.6206 1265.01 0
-353.955 64.042 1287.25 0
-402.738 72.1137 1282.37 0
322.515 68.7758 1242.41 0
-364.018 81.1777 1274.73 0
-370.135 95.2659 1288.91 0
303.623 101.062 1273.37 0
-357.914 121.71 1272.87 0
-90.5612 83.3127 653.535 0
-62.0164 85.2373 643.023 0
-100.695 97.5064 655.741 0
-79.8769 98.0419 649.286 0
-49.9059 99.1648 641.748 0
-78.7713 102.227 651.37 0
-36.4822 100.655 640.09 0
-21.658 101.454 635.091 0
-26.1521 104.164 636.608 0
-14.8968 108.729 636.144 0
-99.5864 122.454 655.554 0
8.81107 116.646 628.739 0
-102.005 128.046 656.515 0
23.6346 122.883 627.956 0
-109.776 173.975 653.401 0
-109.776 173.975 653.401 0
117.546 162.54 601.213 0
-120.849 189.934 655.151 0
-116.912 191.449 654.121 0
-133.921 196.101 663.718 0
150.555 189.244 591.743 0
-457.628 -1217.06 4509.63 0
-182.901 -997.292 4217.77 0
-1408.33 -914.56 4434.97 0
-1407.66 -914.173 4433.04 0
-346.706 -348.229 2201.56 0
-40.0691 -674.028 4796.45 0
230.357 -155.712 1099.97 0
-318.381 -35.6736 1633.54 0
364.781 -55.9033 2848.12 0
-326.899 -23.2904 1470.35 0
381.149 -38.9561 2856.9 0
-194.515 -11.9624 1665.95 0
-131.88 -9.11844 1727.39 0
-214.491 -6.07214 1518.32 0
-125.916 8.83647 1545.34 0
-333.45 13.0704 1276.35 0
-402.562 69.9525 1325.23 0
-423.65 103.899 1250.4 0
324.557 116.799 1281.87 0
-65.6502 71.8373 622.69 0
-321.945 179.14 1025.61 0
-291.281 185.596 1041.31 0
-330.802 182.704 1003.08 0
-129.032 147.968 657.098 0
118.327 173.058 604.674 0
-122.293 204.437 659.837 0
148.953 184.876 593.281 0
-125.002 209.869 660.26 0
150.114 202.774 598.699 0
-1457.42 -1111.54 4374.86 0
309.496 -865.205 4495.58 0
-364.954 -242.494 1931.13 0
92.184 -111.03 1441.44 0
-218.016 -154.384 2016.78 0
-291.996 -31.2507 1627.68 0
-337.122 -17.1935 1448.73 0
106.119 -20.6222 2202.29 0
-239.414 -10.7702 1506.81 0
-232.186 2.12584 1533.63 0
-139.176 15.8389 1524.6 0
307.727 20.4269 1314.95 0
-10.9893 27.8928 1542.6 0
276.699 26.8632 1287.25 0
-343.75 89.8085 1266.57 0
320.576 144.352 1324.51 0
-55.3337 76.6045 633.941 0
-12.2388 85.7761 658.888 0
336.494 191.038 1330.75 0
-47.1391 92.5575 642.739 0
-54.1419 93.7174 643.759 0
-94.366 109.368 652.456 0
-314.913 201.835 1039.42 0
-95.7194 141.882 654.152 0
-114.573 168.678 659.021 0
113.081 189.854 605.743 0
-132.366 216.926 660.342 0
-365.923 -1126.63 4272.48 0
223.527 -259.161 1049.99 0
-45.8961 -1141.62 4677.12 0
75.003 -1113.7 4733.08 0
-191.17 -156.904 2006.59 0
-286.976 -8.40301 1467.11 0
-91.5496 76.7023 650.857 0
-31.1131 81.1518 656.614 0
347.674 181.131 1034.12 0
-87.0533 113.92 650.986 0
-319.737 183.912 1007.51 0
-290.393 193.418 1040.87 0
-107.3 162.92 659.053 0
-137.006 204.179 664.235 0
1029.5 -204.906 3344.47 0
-208.048 -69.3811 1788.63 0
-470.008 -57.1136 1649.87 0
366.773 -4.51643 2831.32 0
322.545 25.8356 1270.83 0
-354.273 76.4011 1274.82 0
299.244 89.6121 1285.83 0
-97.2543 90.1097 653.778 0
310.391 161.024 1002.51 0
-311.335 188.438 1031.69 0
-294.752 -359.759 2190.52 0
-82.2301 26.4496 1568.57 0
-95.5204 127.016 656.099 0
-111.624 175.142 659.402 0
339.022 46.9413 1253.39 0
-100.775 72.9057 633.442 0
288.281 191.814 1257.89 0
