ply
format ascii 1.0
element vertex 237
property float x
property float y
property float z
property uchar intensity
end_header
-1187.97 -133.488 3447.23 0
341.922 85.4659 1377.61 0
365.6 93.6639 1437.85 0
331.683 109.589 1322.16 0
117.116 255.216 1774.68 0
242.158 293.564 1646.13 0
-195.906 336.442 1379.67 0
41.9313 238.896 695.488 0
42.5834 240.64 695.162 0
-109.729 -126.174 1063.42 0
-936.037 -156.697 3567.09 0
-447.079 6.33927 1972.38 0
-440.503 46.157 1864 0
-337.926 56.0213 1754.27 0
-295.722 90.2305 2068.55 0
-243.602 107.378 2297.83 0
368.486 74.8515 1425.05 0
367.738 80.4754 1410.82 0
341.651 94.4358 1344.83 0
-129.814 202.618 1754.2 0
-95.2215 198.092 1701.89 0
-155.754 204.143 1746.15 0
-57.3 205.152 1687.01 0
-328.096 219.558 1629.45 0
360.246 195.706 1395.07 0
111.976 222.377 1434.92 0
248.842 286.143 1639.48 0
-125.916 316.799 1394.15 0
-169.953 339.933 1447.2 0
-179.118 340.304 1374.67 0
-218.444 342.033 1354.16 0
-410.58 350.909 1283.71 0
-36.1572 241.011 703.783 0
922.291 -1603.41 4947.83 0
390.393 -1491.41 4779.34 0
376.828 -1504.84 4857.38 0
-229.283 -151.991 944.508 0
294.616 -180.07 1159.85 0
-168.509 -146.064 998.912 0
401.677 -140.968 1278.36 0
271.317 -130.409 1244.39 0
-25.7069 -115.357 1125.33 0
705.045 -283.379 3337.26 0
170.555 -60.7054 1170.1 0
-176.743 -163.697 3737.23 0
-200.921 -152.64 3719.07 0
129.131 -51.5998 1256.02 0
717.247 -134.53 3515.22 0
-409.973 -41.1579 2047.02 0
-456.986 -43.1583 2166.6 0
-410.455 -39.4764 2002.56 0
-483.146 -36.5032 2180.9 0
-463.894 -35.2424 2169.2 0
-305.934 51.9825 1779.08 0
-5.36222 74.414 1756.42 0
-267.535 115.447 2277.47 0
286.364 115.247 1368.71 0
318.238 136.045 1323.65 0
-209.346 203.099 1740.04 0
-77.5787 200.968 1695.73 0
-74.1629 208.218 1706.59 0
-291.454 214.065 1620.85 0
-524.102 224.632 1634.27 0
-122.005 331.661 1474.66 0
-40.1229 317.831 1386.16 0
-366.642 347.809 1304.77 0
-423.814 352.025 1283.19 0
-411.998 354.283 1281.69 0
-14.3705 229.519 700.921 0
869.854 -1721.16 4850.23 0
82.7237 -1588.61 4817.17 0
950.856 -1565.54 4997.54 0
7.05606 -159.982 1049.35 0
81.5152 -144.191 1097.26 0
-19.9818 -127.725 1107.72 0
-111.755 -122.987 1070.32 0
-204.037 -117.913 1030.7 0
719.851 -256.64 3410.52 0
-201.475 -316.028 4470.61 0
-205.325 -328.51 4609.48 0
757.953 -178.551 3459.28 0
-136.158 -170.363 3838.48 0
-163.302 -157.305 3789.86 0
-240.074 -151.246 3709.98 0
130.9 -48.8321 1229.27 0
130.9 -48.8321 1229.27 0
-75.9476 -62.4875 2253.45 0
-470.403 -37.8147 2170.89 0
-317.149 -1.90825 2004.57 0
-444.241 19.2043 1883.43 0
249.472 75.4288 2930.54 0
-476.092 55.1053 1955.28 0
-251.82 58.1442 1819.12 0
252.858 117.935 2918.27 0
240.77 129.398 2914.11 0
-289.647 114.005 2242.57 0
310.839 79.1426 1382.49 0
388.079 87.0365 1360.28 0
292.231 90.4929 1384.77 0
327.866 94.6998 1345.93 0
408.894 151.671 1424.09 0
-139.427 208.271 1689.88 0
-138.996 207.659 1681.27 0
-484.082 212.384 1644.18 0
-92.2657 206.685 1620.72 0
-116.897 208.942 1614.61 0
315.174 175.944 1340.4 0
-482.142 219.608 1649.82 0
310.673 180.031 1351.44 0
-227.363 215.94 1554 0
-470.287 232.002 1644.88 0
-271.203 217.399 1540.81 0
-500.714 230.294 1601.64 0
-544.861 235.346 1617.28 0
-425.512 227.229 1515.49 0
-246.251 231.641 1497.98 0
351.032 218.867 1400.84 0
-326.715 237.096 1459.27 0
-25.012 239.257 1202.95 0
-417.068 309.743 1431.19 0
-84.1773 278.429 1243.52 0
-380.367 325.855 1318.81 0
-373.51 331 1344.25 0
-173.205 339.965 1381.11 0
-396.471 340.667 1343.18 0
-381.36 346.163 1296.26 0
-383.533 353.045 1195.71 0
-17.5336 210.64 707.503 0
-50.4493 233.461 710.915 0
-383.9 -1542.76 4709.47 0
-184.188 -1500.32 4699.16 0
1219.2 -1621.17 5166.89 0
201.816 -157.341 1148.34 0
-314.622 -103.826 1025.65 0
794.84 -165.212 3479.18 0
178.39 -51.4923 1195.12 0
-368.198 -54.0705 1382.6 0
408.517 -23.2053 1315.79 0
269.049 88.1705 2939.84 0
-13.0669 76.9227 1755.7 0
-260.861 88.1563 1873.12 0
302.048 83.6142 1414.62 0
265.541 115.329 1365.58 0
-65.1113 209.585 1684.32 0
-397.021 214.049 1667.67 0
-453.295 228.827 1636.81 0
334.381 190.467 1360.77 0
-478.679 226.032 1593.9 0
-412.487 247.273 1455.88 0
-334.144 229.854 1333.65 0
-378.1 248.937 1433.44 0
250.944 292.5 1639.76 0
307.177 229.684 1104.32 0
-139.75 307.007 1405.32 0
-340.267 324.82 1313.28 0
-343.432 340.53 1326.7 0
-391.078 360.51 1284.84 0
-402.905 369.736 1208.77 0
29.1008 234.998 695.009 0
14.3016 238.063 699.13 0
0.905152 240.225 700.177 0
0.859408 239.983 700.018 0
-975.246 -1519.06 4304.05 0
945.087 -1690.73 4849.2 0
468.757 -1577.58 4575.6 0
-855.43 -1503.25 4416.99 0
953.823 -1652.57 4958.52 0
1066.48 -1635.63 5208.55 0
-492.794 -1382.87 4572.3 0
-174.884 -127.821 1028.2 0
185.216 -57.549 1180.6 0
-434.397 33.8685 1850.45 0
-192.65 206.716 1710.93 0
-502.713 214.555 1658.72 0
-206.653 212.565 1584.51 0
10.9775 220.826 1621.54 0
362.67 208.491 1390.08 0
335.141 219.823 1402.38 0
-369.008 240.491 1442.33 0
269.188 288.952 1645.12 0
-358.441 265.383 1452.12 0
-350.712 267.958 1335.07 0
-44.1961 244.532 1201.61 0
-335.42 306.248 1326.82 0
-104.548 305.914 984.682 0
29.4662 222.604 716.273 0
-9.57121 219.156 692.481 0
-45.4619 228.817 707.187 0
1.84985 232.943 701.342 0
-565.235 -1392.91 4588.31 0
-152.185 -156.105 976.974 0
407.869 -136.343 1287.16 0
292.534 102.572 1395.24 0
-161.452 198.294 1781.21 0
-219.575 208.488 1716.22 0
-316.682 212.233 1672.68 0
-343.606 214.663 1677.06 0
-181.674 211.465 1600.48 0
-254.482 214.361 1554.7 0
-37.097 267.361 1525.11 0
-62.8503 278.596 1253.66 0
-419.443 303.537 1277.03 0
-82.9477 296.795 1260.19 0
-318.099 327.878 1306.14 0
-182.407 351.489 1332.18 0
-124.476 366.706 1146.53 0
-22.0291 227.71 698.635 0
-4.69118 235.827 701.91 0
96.4159 -127.968 1116.92 0
185.869 -78.9751 1162.36 0
302.956 170.51 1363.9 0
-282.443 216.414 1534.47 0
-297.857 226.762 1512.16 0
-347.598 229.836 1491.04 0
82.1899 208.792 1148.05 0
-440.552 302.285 1385.85 0
-1.35315 256.318 1172.5 0
-343.784 331.158 1308.85 0
-429.493 345.924 1265 0
13.8139 218.51 716.441 0
152.472 -307.759 1117.61 0
172.185 -57.0939 1265.16 0
-75.7306 269.623 1231.11 0
-332.025 317.804 1314.08 0
-315.191 338.081 1324.18 0
154.914 -166.603 1137.66 0
-22.8347 -137.777 1106.85 0
113.409 -127.321 1141.55 0
830.025 -212.483 3469.5 0
-54.084 82.293 1769.59 0
304.711 137.7 1345.94 0
-64.9486 261.761 1326.56 0
-6.24233 241.35 1186.8 0
-207 -147.766 973.209 0
332.561 118.124 1335.02 0
374.086 276.138 1384.98 0
-57.8559 296.165 1216.35 0
