ply
format ascii 1.0
element vertex 366
property float x
property float y
property float z
property uchar intensity
end_header
556.43 -1240.71 4344.38 0
666.64 -995.241 3819.77 0
288.369 -978.886 3808.03 0
594.426 -1021.13 4018.8 0
600.95 -973.605 4038.96 0
586.032 -945.278 3987.07 0
-775.035 -730.206 3528.55 0
-19.4 -276.757 2334.31 0
20.2247 -269.918 2278.56 0
-589.631 -221.908 1981.25 0
129.776 54.0209 719.085 0
234.832 77.779 695.586 0
59.0443 189.639 756.788 0
245.057 -351.566 1093.98 0
-378.23 -1409.32 4709.1 0
646.721 -995.573 3836.28 0
925.493 -969.491 3719.49 0
652.078 -985.79 3843.96 0
652.145 -985.124 3842.53 0
637.571 -974.214 3936.32 0
600.729 -988.897 4003.37 0
584.618 -968.583 4001.07 0
585.311 -970.204 4007.85 0
632.464 -871.874 3863.45 0
599.445 -567.664 2787.49 0
-777.787 -683.774 3409.66 0
-533.901 -670.166 3464.6 0
-217.101 -416.301 2229.68 0
-574.259 -436.522 2428.86 0
-363.333 -383.664 2339.56 0
-599.511 -308.051 1991.06 0
-50.5838 -270.45 1822.21 0
-7.27525 -293.17 2287.9 0
77.088 -221.406 1797.76 0
27.3993 -268.588 2314.76 0
13.0507 -263.979 2309.67 0
-545.103 -218.982 1964.68 0
-413.387 -47.007 1426.19 0
114.271 52.8519 723.466 0
160.211 59.1893 713.416 0
183.385 65.9713 708.019 0
220.784 74.5709 698.611 0
-104.55 154.489 1123.08 0
-95.6864 157.447 1131.25 0
-221.682 186.671 840.113 0
171.409 -353.386 1081.58 0
596.9 -1036.76 3898.11 0
710.399 -977.089 3692.93 0
615.128 -1007.59 3852.85 0
655.948 -1006 3835.47 0
301.454 -992.91 3825.81 0
502.813 -1123.36 4333.36 0
922.227 -975.225 3805.42 0
599.152 -1001.18 3999.03 0
583.872 -999.457 4061.04 0
642.72 -923.387 3832.47 0
492.43 -900.332 3753.45 0
609.563 -924.407 3921.49 0
-623.71 -728.008 3572.06 0
288.529 -199.637 1014.59 0
-204.321 -264.25 1797.24 0
-22.231 -293.209 2264.63 0
37.4475 -283.161 2309 0
88.9968 -214.438 1772.18 0
89.2293 -212.203 1759.56 0
149.131 -195.513 1716.35 0
-555.18 -176.002 1846.12 0
544.02 -245.256 2889.15 0
525.075 -147.167 1643.81 0
-0.656023 -100.377 1746.94 0
49.8492 -101.309 1764.46 0
364.876 -116.123 1989.19 0
101.038 -95.5817 1722.41 0
123.158 -95.4882 1717.45 0
62.1535 -89.1675 1708.91 0
210.871 -69.8952 1622.98 0
467.107 -58.2482 1385.48 0
-470.4 -45.0826 1500.41 0
-15.8206 67.9922 1412.97 0
76.368 37.1034 731.79 0
121.086 51.5284 718.966 0
156.746 59.7479 760.019 0
46.7733 79.3966 878.017 0
200.444 61.0302 630.256 0
77.9361 114.337 735.836 0
75.5418 115.231 734.59 0
56.7987 123.199 746.661 0
69.6966 148.876 747.791 0
-222.621 185.487 831.984 0
-205.294 201.892 814.972 0
56.963 186.609 748.415 0
57.7961 193.961 748.885 0
71.759 209.033 749.05 0
-1271.42 -1381.11 4130.42 0
5.98799 -1338.7 4620.83 0
309.102 -984.986 3831.27 0
650.964 -965.567 3749.57 0
89.2746 -864.312 3395.21 0
296.307 -971.578 3832.15 0
624.039 -974.633 3878.86 0
350.361 -258.312 1174.98 0
499.071 -663.46 3136.58 0
342.332 -255.472 1207.4 0
-498.518 -730.572 3669.49 0
-196.365 -413.313 2180.54 0
457.7 -304.96 1599.32 0
-237.638 -379.85 2129.87 0
-15.0886 -299.547 2305.25 0
214.236 -213.14 1751.58 0
395.891 -195.092 1678.76 0
-37.0703 -254.121 2257.53 0
-8.78874 -253.064 2290.63 0
-325.325 -110.397 1681.61 0
-323.778 -109.543 1675.17 0
-293.3 -97.4541 1578.47 0
-289.525 -103.474 1660.81 0
-133.097 -78.154 1554.16 0
40.9063 48.7625 1426.17 0
88.1875 53.6476 725.706 0
110.797 54.4437 724.199 0
79.1802 57.0467 744.023 0
98.266 66.2358 729.45 0
-91.3818 141.839 1140.7 0
-92.7877 145.574 1137.39 0
-103.67 150.42 1124.31 0
79.1231 119.616 739.121 0
89.2791 127.289 737.189 0
-172.611 196.888 981.935 0
56.7239 174.157 751.809 0
56.7355 174.222 752.032 0
69.8727 172.719 745.079 0
65.865 179.426 748.49 0
65.865 179.426 748.49 0
42.467 203.293 759.391 0
-193.42 219.435 771.526 0
-187.16 221.237 760.956 0
188.098 -376.636 1072.22 0
289.468 -366.825 1070.48 0
75.054 -352.689 1057.19 0
-417.299 -1414.75 4380.92 0
169.49 -350.825 1087.56 0
-339.557 -1388.41 4535.76 0
-848.649 -948.914 3314.98 0
612.313 -1000.96 3922.63 0
584.501 -1016.06 4030.69 0
484.846 -976.602 3913.68 0
615.97 -987.548 3974.8 0
356.361 -269.448 1143.62 0
573.347 -874.432 3842.66 0
350.315 -263.572 1154.89 0
347.044 -260.717 1160.4 0
456.72 -733.468 3349.53 0
125.66 -1038.37 4753.84 0
551.972 -702.959 3212.88 0
274.818 -888.2 4415.86 0
283.27 -914.638 4552.55 0
433.605 -245.37 1664.07 0
416.342 -220.214 1714.27 0
-11.0839 -265.368 2308.4 0
-27.9023 -252.385 2253.81 0
518.247 -204.02 1907.95 0
-363.083 -110.651 1631.7 0
-315.206 -112.576 1677.53 0
-156.344 -105.423 1722.85 0
59.3461 -98.9005 1761 0
-173.672 -77.484 1510.92 0
-365.727 -57.8859 1430.52 0
-231.112 -58.011 1499.48 0
-370.342 -49.8484 1430.46 0
-273.612 2.88924 1396.04 0
314.908 6.61933 1153.94 0
-233.841 47.2207 1396.53 0
-223.137 58.9579 1349.54 0
-250.576 70.2727 1308.02 0
-233.951 75.4158 1250.67 0
-166.165 83.6997 1292.36 0
128.248 49.6617 718.843 0
-271.484 96.0312 1241.63 0
69.5709 59.8544 736.316 0
69.5357 59.8604 736.566 0
141.317 60.9811 718.698 0
146.782 62.2206 717.537 0
152.09 63.3093 716.089 0
156.764 64.3479 714.62 0
163.997 65.9816 713.291 0
166.671 66.3311 711.112 0
-339.505 108.643 1139.48 0
74.2235 84.356 737.61 0
72.6514 90.1588 738.987 0
-99.8075 142.525 1137.89 0
21.3527 160.892 1182.22 0
80.9011 109.846 738.126 0
48.7648 113.611 741.654 0
66.4831 135.905 741.364 0
71.4435 136.829 738.923 0
71.4435 136.829 738.923 0
-187.253 192.088 959.669 0
62.8047 154.042 741.997 0
66.8928 155.05 740.934 0
50.9507 161.422 751.341 0
-215.348 186.352 838.633 0
82.1752 165.755 745.872 0
24.672 198.055 887.963 0
58.7844 170.645 749.39 0
-181.251 221.243 789.21 0
-185.472 226.726 766.917 0
395.677 -359.384 1109.65 0
-710.442 -1396.89 4468.93 0
156.373 -343.32 1110.42 0
66.316 -1273.49 4395.59 0
303.108 -332.47 1160.25 0
-163.007 -356.937 1343.59 0
590.397 -1035.87 4005.76 0
-17.3143 -315.449 1246.14 0
339.214 -884.955 3648.5 0
-1271.91 -867.31 4532.24 0
-550.348 -326.204 2097.29 0
-504.549 -332.434 2137.51 0
-309.384 -293.864 2215.74 0
206.28 -211.447 1751.66 0
-468.94 -112.557 1642.99 0
-15.2504 -100.48 1740.52 0
-15.0071 -99.2063 1719.38 0
-382.08 -78.5662 1460.27 0
-359.913 -79.1488 1477.96 0
-152.436 -80.3451 1548.97 0
-12.5912 -81.6458 1609.74 0
54.0257 -82.3887 1628.15 0
53.624 -82.0509 1622.12 0
-209.544 -58.7584 1492.64 0
-452.938 -53.0589 1491.64 0
-173.385 -50.0838 1472.76 0
-246.716 18.9453 1450.63 0
-171.028 21.6002 1372.49 0
-363.572 23.6887 1229.32 0
-218.261 36.7663 1369.68 0
-178.833 40.7575 1361.36 0
-373.658 41.1239 1273.67 0
-370.825 46.4941 1222.84 0
-182.543 54.6193 1376.56 0
-3.13464 68.5705 1449.82 0
70.4041 41.9984 734.415 0
121.553 48.2586 721.311 0
121.45 48.1819 720.782 0
147.857 53.9514 713.397 0
133.201 54.9356 718.951 0
133.192 54.9276 718.816 0
119.768 55.4687 720.995 0
119.735 55.2401 720.814 0
90.0953 57.8671 729.235 0
143.832 57.164 715.221 0
155.61 60.1171 714.672 0
91.8353 61.7105 731.533 0
-304.69 108.379 1195.49 0
174.078 63.711 705.445 0
180.025 65.0758 706.998 0
-351.149 117.661 1148.49 0
85.6261 81.992 731.33 0
83.2883 91.8544 735.082 0
-129.05 147.736 1117.43 0
-137.832 153.963 1095.45 0
67.3533 106.379 738.4 0
66.072 131.909 744.362 0
66.1182 131.871 744.974 0
-199.677 175.147 928.956 0
-198.846 183.516 939.545 0
69.1806 152.263 745.846 0
61.6599 173.991 748.44 0
-214.659 200.766 811.529 0
-79.8446 -348.773 1033.7 0
-674.045 -1464.55 4463.23 0
-381.049 -1438.04 4512.72 0
371.399 -265.727 1153.39 0
-1280.33 -1000.37 4487.38 0
-1279.66 -999.955 4485.46 0
365.15 -261.927 1168.9 0
-577.478 -696.618 3506.03 0
-201.3 -445.907 2259.33 0
201.288 -396.439 2236.02 0
-595.966 -294.979 1999.17 0
-589.729 -256.818 1959.97 0
-547.51 -268.587 2052.29 0
-141.956 -104.346 1710.74 0
-115.356 -103.316 1704.31 0
-63.2313 -82.6684 1583.27 0
-194.072 -67.5253 1483.14 0
-390.726 -30.7457 1464.97 0
-257.984 14.4528 1328.51 0
-255.729 33.834 1314.41 0
-389.929 55.6591 1247.57 0
110.962 34.2235 711.83 0
-253.859 88.4755 1266.72 0
112.123 62.9776 728.704 0
111.927 62.5544 726.716 0
-97.4203 148.774 1132.49 0
64.5072 140.302 745.127 0
-205.235 189.402 925.881 0
-202.536 202.668 827.186 0
88.5604 194.994 750.787 0
-172.84 228.337 778.8 0
-159.866 229.061 777.077 0
89.3042 223.875 747.946 0
172.86 -343.968 1103.35 0
6.91518 -415.089 2251.4 0
-628.342 -298.959 2020.87 0
-301.139 -120.384 1703.34 0
-92.7637 -81.7645 1565.33 0
-110.884 -71.0549 1545.35 0
40.1673 -71.6621 1599.4 0
-196.099 -11.9932 1488.22 0
417.481 -1.66945 1688.01 0
-270.185 0.152318 1437.76 0
-273.304 56.432 1321.77 0
114.813 50.3255 722.626 0
-375.843 96.3139 1212.21 0
190.707 65.3094 704.366 0
77.4491 70.8933 733.555 0
85.3002 74.4549 732.129 0
5.32748 143.854 1218.77 0
-95.4347 156.405 1132.5 0
-279.691 166.105 905.186 0
-212.383 172.382 909.289 0
-193.648 193.903 816.404 0
154.799 -343.422 1086.78 0
165.962 -1425.48 4724.69 0
-638.897 -321.373 2018.31 0
343.601 -325.046 2087.66 0
-555.687 -252.948 2017.61 0
-471.551 -51.3977 1493.62 0
-169.87 34.6596 1360.85 0
12.5505 47.7467 1447.82 0
-183.329 47.0689 1357.88 0
17.5849 122.642 1185.75 0
41.1075 120.621 1016.32 0
-126.608 153.31 1099.58 0
-118.53 168.27 1132.36 0
72.4478 125.193 743.81 0
49.0634 169.804 752.448 0
-187.33 200.195 794.997 0
57.7005 201.476 753.438 0
-195.288 215.45 795.847 0
-282.951 -1346.28 4278.66 0
-758.63 -759.739 3191.49 0
6.65263 -404.773 2211.84 0
53.7181 -268.727 2306.16 0
219.981 -130.412 2026.52 0
75.7205 22.9145 1446.38 0
65.4587 37.0068 712.577 0
71.8737 52.1895 733.797 0
81.5611 75.0353 736.941 0
-180.082 190.123 975.856 0
499.187 -1253.53 4444.31 0
-628.78 -475.321 2571.54 0
223.109 -499.728 2740.68 0
-294.667 -105.212 1730.64 0
-405.835 -58.6904 1442.6 0
111.962 41.1014 720.24 0
78.9107 88.2546 738.299 0
69.9221 137.854 745.04 0
-206.424 197.2 844.534 0
-224.24 194.741 821.19 0
-166.889 220.489 892.185 0
69.4083 203.342 752.884 0
167.637 -360.997 1085.82 0
440.96 -69.3342 1309 0
-272.814 180.053 893.302 0
