ply
format ascii 1.0
element vertex 363
property float x
property float y
property float z
property uchar intensity
end_header
-322.82 -1617.82 4624.34 0
302.333 -1088.81 3746.33 0
629.469 -1080.17 3796.45 0
659.681 -1064.1 3780.76 0
-807.25 -948.316 3411.77 0
-630.92 -942.088 3509.94 0
-618.029 -937.907 3507.71 0
593.073 -1050.6 3951.73 0
-593.147 -881.647 3378.34 0
630.552 -943.683 3810.64 0
-630.159 -479.422 1930.06 0
1097.74 -754.635 3211.92 0
-60.9973 -362.808 1779.55 0
-355.407 -327.788 1620.65 0
-586.207 -383.931 1906.85 0
-20.079 -403.233 2253.02 0
-5.5346 -388.357 2260.18 0
-24.4658 -384.792 2244.47 0
175.728 -291.468 1702.55 0
-63.1243 -389.324 2284.58 0
-23.7241 -376.433 2229.75 0
-361.122 -234.39 1601.8 0
-284.038 -196.373 1460.04 0
484.047 -306.507 2850.29 0
16.6308 -163.882 1568.05 0
408.88 -90.5736 1350.41 0
-36.4479 -52.1143 1401.9 0
-126.067 -27.5497 1353.8 0
57.5115 -10.346 682.684 0
54.1493 -7.37762 682.517 0
-113.389 -12.1857 1347.99 0
71.1765 -1.13489 681.748 0
100.93 9.47457 675.717 0
123.002 17.1925 671.042 0
122.938 17.3141 670.634 0
-185.663 51.3262 1090.29 0
169.414 32.197 667.063 0
178.852 37.3393 659.355 0
-251.07 86.8103 947.941 0
-14.0728 123.351 713.81 0
-10.9782 134.82 723.011 0
205.674 206.734 668.756 0
215.62 209.922 666.724 0
215.62 209.922 666.724 0
-64.9977 -139.528 411.392 0
-184.805 -428.942 1268.11 0
316.702 -1101.66 3764.01 0
323.279 -1093.04 3769.8 0
670.083 -1073.36 3779.87 0
663.73 -1053.97 3788.77 0
663.741 -1053.26 3787.36 0
-729.347 -981.111 3543.29 0
610.596 -1079.5 3942.42 0
646.539 -1046.59 3881.1 0
496.553 -985.475 3697.43 0
647.275 -992.811 3778.62 0
613.099 -1000.04 3866.97 0
319.53 -294.601 1139.35 0
-220.402 -541.617 2124.33 0
-627.566 -455.555 1944.07 0
-174.672 -378.726 1734.89 0
-92.5734 -356.876 1722.86 0
-630.332 -392.489 1922.52 0
-603.554 -359.401 1845.66 0
-312.107 -233.694 1666.55 0
212.08 -310.758 2291.78 0
428.246 -379.796 2858.63 0
-467.345 -183.689 1375.18 0
-211.184 -206.024 1614.56 0
-223.919 -190.107 1491.74 0
-49.2769 -171.111 1560.4 0
51.5666 -178.297 1674.02 0
152.159 -138.379 1582.81 0
-322.399 -51.6767 1292.67 0
-275.139 -50.2047 1312.57 0
-106.923 -30.1477 1384.18 0
-85.9122 -22.5741 1372.05 0
24.9265 -9.15746 688.001 0
100.706 7.60206 675.847 0
159.27 30.3597 662.534 0
-179.718 60.4711 1082.76 0
-171.391 64.2335 1091.15 0
-178.916 64.6143 1085.5 0
4.54611 48.8336 700.57 0
-10.0194 58.1579 708.72 0
12.6852 57.4143 701.507 0
-7.87308 82.1506 705.556 0
-7.90398 82.2186 706.182 0
-0.250843 85.1311 710.706 0
0.502866 97.2282 710.58 0
-22.7273 108.382 709.417 0
236.191 176.095 653.6 0
210.456 201.709 670.973 0
227.49 201.566 635.154 0
308.983 -1081.25 3770.76 0
323.41 -1026.99 3639.83 0
369.801 -1017.36 3642.32 0
661.702 -1031.55 3694.89 0
624.818 -1075.75 3866.3 0
597.311 -1096.82 3973.44 0
634.039 -1047.09 3823.41 0
307.339 -308.443 1122.83 0
594.265 -1081.2 4004.16 0
404.468 -904.844 3400.53 0
343.245 -299.814 1123.58 0
-239.424 -442.786 1833.05 0
-259.999 -439.345 1945.58 0
-600.167 -450.46 1993 0
-55.714 -410.685 2255.07 0
170.369 -283.553 1707.95 0
409.191 -256.823 1566.33 0
1095.78 -548.307 3326.56 0
-366.022 -243.843 1626.63 0
367.6 -147.261 1011.65 0
-339.144 -203.454 1459.04 0
-247.981 -227.965 1656.33 0
-209.823 -219.304 1675.02 0
-226.689 -200.237 1541.56 0
-337.291 -180.509 1411.8 0
-189.615 -187.225 1522.97 0
2.98755 -188.543 1717.28 0
437.13 -85.071 1285.16 0
73.7766 -35.2051 690.081 0
-347.766 -54.1286 1222.89 0
29.6535 -6.66324 686.673 0
10.2745 -2.96086 697.086 0
10.2349 -2.96561 697.335 0
32.2371 1.61658 692.759 0
12.6872 25.008 694.346 0
152.619 28.142 664.694 0
151.704 27.7182 662.395 0
-165.426 48.9955 1100.3 0
-173.83 48.7628 1097.36 0
9.71488 52.7601 696.807 0
-236.554 90.0065 961.124 0
-8.98303 114.218 712.19 0
-8.98303 114.218 712.19 0
234.901 178.407 655.834 0
236.74 178.64 652.702 0
194.152 200.912 670.479 0
197.919 208.432 666.265 0
197.922 208.464 666.271 0
213.07 215.304 665.845 0
14.1539 248.877 764.702 0
111.924 -1620.13 4634.7 0
605.881 -1115.14 3948.15 0
495.524 -1066.27 3855.6 0
344.23 -985.426 3590.08 0
327.495 -306.906 1101.53 0
406.73 -933.993 3400.64 0
626.066 -1063.36 3918.85 0
320.627 -302.075 1112.82 0
-232.927 -586.549 2207.02 0
316.958 -299.769 1118.34 0
319.744 -297.373 1133.03 0
572.475 -952.608 3788.71 0
540.795 -768.425 3162.97 0
268.83 -1016.25 4355.82 0
278.224 -1045.08 4491.97 0
-55.8072 -376.366 2259.11 0
-78.4916 -365.877 2207.98 0
-80.7267 -317.542 1946.45 0
-334.024 -246.797 1636.94 0
-418.808 -189.016 1380.12 0
-227.046 -188.061 1463.55 0
-206.21 -189.406 1501.9 0
-181.605 -187.478 1519.35 0
-264.584 -173.198 1445.06 0
-70.5801 -198.32 1695.39 0
-44.4022 -193.271 1688.66 0
-6.95217 -202.316 1755.73 0
-68.7585 -176.361 1564.83 0
-68.1374 -175.893 1565.18 0
443.775 -149.802 1306.41 0
-43.0326 -173.539 1579.34 0
498.647 -315.299 2852.37 0
-3.36389 -168.623 1575.86 0
436.662 -285.159 2586.82 0
39.6197 -164.004 1625.56 0
-306.308 -112.992 1435.29 0
441.668 -92.7477 1271.5 0
-282.581 -76.173 1324.31 0
54.2349 -32.5224 687.126 0
329.647 -72.0958 1641.06 0
-289.723 -54.1871 1304.62 0
56.9582 -26.1348 676.905 0
22.9014 -15.071 689.999 0
-340.425 -20.2294 1196.76 0
-79.6068 -22.2871 1378.11 0
70.0059 -5.745 680.453 0
20.0273 -4.82326 704.898 0
30.997 -2.34288 690.337 0
81.6529 7.02814 680.822 0
96.6574 12.2878 677.111 0
118.954 20.011 671.06 0
18.5417 26.9704 694.798 0
-203.163 51.0425 1076.49 0
-180.853 66.5378 1069.86 0
-1.81656 72.0456 703.91 0
-250.108 98.274 941.444 0
3.0378 73.6079 701.584 0
3.0378 73.6079 701.584 0
-7.61244 89.6038 704.913 0
-3.65541 91.1114 703.95 0
10.1834 103.401 709.425 0
-13.6717 105.422 712.63 0
-16.1681 108.604 715.094 0
-16.1677 108.664 715.319 0
-258.578 126.476 749.237 0
223.549 202.921 650.641 0
235.983 204.512 650.314 0
-182.67 -421.717 1275.74 0
-168.751 -424.18 1297.47 0
-168.751 -424.18 1297.47 0
309.447 -301.018 1122.14 0
-222.682 -576.613 2202.21 0
133.177 -1191.65 4687.28 0
447.697 -813.449 3297.07 0
-580.847 -494.458 2036.71 0
115.933 -1135.5 4753.02 0
345.315 -547.399 2278.34 0
-555.716 -496.756 2065.77 0
-562.972 -503.898 2095.59 0
-230.821 -431.606 1816.04 0
-535.259 -496.325 2077.6 0
-249.271 -466.29 2085.13 0
603.465 -578.386 2780.13 0
-50.4336 -429.341 2287.12 0
162.268 -282.807 1707.92 0
-424.336 -181.576 1380.17 0
-195.477 -216.232 1663.21 0
466.748 -371.002 2879.73 0
-271.768 -165.895 1434.3 0
-92.6849 -179.058 1549.21 0
-229.395 -159.828 1426.07 0
428.979 -234.029 2671.16 0
-256.669 -125.079 1442.02 0
-318.587 -82.0317 1268.31 0
-233.941 -85.7659 1327.61 0
-243.773 -67.3715 1316.82 0
428.511 -64.5282 1293.81 0
424.055 -62.8698 1305.48 0
-249.322 -54.4421 1332.27 0
54.7666 -22.9145 672.753 0
458.402 -21.7443 1357.5 0
66.5037 -2.9483 682.795 0
60.8693 -1.03035 682.589 0
74.3021 0.0684481 680.78 0
74.2954 0.0628803 680.645 0
89.0558 0.954425 675.475 0
84.7353 3.70681 677.935 0
84.6535 3.62439 677.301 0
96.0089 7.95101 677.04 0
119.787 15.9363 669.939 0
11.9918 21.8749 699.055 0
9.72676 27.4154 700.544 0
20.1493 30.4477 696.876 0
-212.277 56.7696 1054.52 0
533.396 80.0992 1480.08 0
-246.26 84.9119 973.522 0
-1.13159 88.4837 708.835 0
209.906 204.454 667.922 0
222.896 213.052 654.727 0
170.708 -1422.02 3963.89 0
-170.399 -433.005 1255.47 0
-181.962 -447.985 1338.19 0
-1263.24 -1311.77 4396 0
-1262.59 -1311.23 4394.1 0
456.009 -1307.6 4430.53 0
-585.944 -902.184 3435.36 0
-660.316 -474.555 1959.55 0
-628.302 -466.241 1938.55 0
-19.4414 -521.404 2198.85 0
-242.507 -447.198 1942.39 0
-263.759 -351.173 1586.07 0
-65.5295 -372.586 2021.98 0
-248.044 -179.839 1435.64 0
424.686 -160.724 1294.92 0
-146.455 -184.75 1529.39 0
-243.427 -170.228 1435.19 0
-447.356 -165.903 1414.75 0
-109.935 -171.825 1565.48 0
-237.926 -144.866 1447.58 0
-330.881 -120.388 1390.52 0
-318.763 -101.905 1281.89 0
-272.154 -91.4717 1376.07 0
-275.15 -72.5399 1349.85 0
-338.809 -61.8496 1275.88 0
445.498 -48.4267 1314.95 0
-322.422 -26.3203 1221.99 0
471.209 -27.8846 1344.97 0
442.854 -24.6304 1359.9 0
63.4853 -7.98724 682.764 0
63.4 -8.06174 682.231 0
52.276 5.32662 690.335 0
52.1614 4.93535 688.334 0
16.8409 8.9938 694.737 0
-172.111 55.3877 1092.15 0
-16.7913 47.8286 703.335 0
-273.607 74.9019 887.467 0
-273.931 83.0311 898.269 0
-1.80079 67.9516 706.803 0
-4.35374 76.0803 707.741 0
230.269 71.6953 648.969 0
-238.078 137.061 737.692 0
-214.764 201.165 705.579 0
341.838 -301.704 1111.66 0
334.947 -299.07 1127.14 0
-584.113 -435.748 1993.17 0
306.799 -388.268 2043.56 0
-216.613 -181.204 1481.07 0
-165.989 -175.218 1499.26 0
435.386 -150.427 1371.79 0
399.756 -137.921 1317.49 0
56.5296 -6.75978 684.004 0
130.406 17.4892 667.51 0
-70.842 60.2926 1180.17 0
-285.595 71.1818 867.509 0
-237.534 78.3862 940.423 0
228.954 55.9011 646.463 0
223.103 65.8638 654.896 0
3.87114 78.7187 707.305 0
13.0078 133.049 715.161 0
10.3925 161.882 713.032 0
-673.286 -501.147 1972.59 0
-309.83 -229.415 1677.9 0
-234.147 -72.3611 1316.31 0
419.589 -75.2635 1316.97 0
82.5907 -31.4013 694.811 0
-55.8976 -40.2583 1406.93 0
453.02 -32.5538 1342.33 0
405.409 -1.39015 1328.39 0
24.2396 13.4871 693.542 0
-201.119 57.3294 1058.83 0
-171.038 63.1957 1092.38 0
-195.364 72.2717 1092.1 0
5.32859 62.0463 706.206 0
-280.756 88.4822 884.636 0
233.325 171.75 658.618 0
185.406 205.834 673.029 0
304.922 -371.267 1195.79 0
534.155 -1353.38 4379.57 0
315.333 -548.746 2295.6 0
197.633 -592.874 2689.84 0
-593.537 -420.276 1958.74 0
-347.314 -235.513 1680.27 0
441.084 -138.002 1296.06 0
423.286 -54.0618 1336.51 0
13.5016 -10.2346 694.424 0
20.3843 13.4993 698.298 0
-23.2723 103.367 715.487 0
192.753 188.269 673.302 0
419.602 -261.2 1535.68 0
8.96673 -372.046 2257.98 0
-458.725 -194.832 1391.44 0
9.2456 -25.5048 672.73 0
54.8199 -16.189 681.344 0
16.1765 26.2768 699.925 0
1.31218 74.2874 707.695 0
-4.46598 98.2057 724.737 0
-245.819 124.72 852.411 0
-7.02346 139.036 717.106 0
385.401 -102.646 1273.22 0
