ply
format ascii 1.0
element vertex 353
property float x
property float y
property float z
property uchar intensity
end_header
192.327 -1019.26 3772.2 0
486.7 -994.421 3957.99 0
-663.903 -693.164 3397.03 0
-148.245 -279.73 1733.29 0
-66.5208 -295.941 2299.32 0
-116.159 -1380.08 4575 0
442.356 -1292.48 4311.57 0
569.762 -1044.67 3791.97 0
554.899 -1035.11 3815.94 0
538.646 -1024.08 3908.08 0
500.01 -1038.53 3974.16 0
1175.96 -831.359 3276.25 0
897.497 -629.393 2547.13 0
-885.365 -728.512 3430.31 0
-710.21 -745.815 3529.25 0
-703.536 -709.415 3422.52 0
-314.986 -588.852 3135.87 0
-541.978 -410.295 2316.64 0
-86.3154 -283.986 1786.76 0
-68.2088 -311.652 2229.44 0
-25.7734 -316.222 2268.16 0
-27.4908 -297.469 2259.34 0
-25.5343 -289.506 2244.52 0
445.656 -79.9084 1363.52 0
110.117 45.8528 695.172 0
125.737 46.6967 691.141 0
156.402 51.1979 686.186 0
179.842 57.4813 681.361 0
196.449 61.1554 678.145 0
208.954 63.7528 675.182 0
217.63 65.2837 672.854 0
231.812 68.1874 670.167 0
-225.083 186.456 805.852 0
78.4648 206.723 704.572 0
149.854 -365.04 1050.32 0
223.235 -365.082 1064.33 0
497.368 -1085.28 3868.36 0
616.705 -1026.34 3666.3 0
558.48 -1055.33 3807.33 0
517.262 -1056.11 3823.8 0
831.284 -1024.09 3697.6 0
549.485 -1044.69 3808.05 0
204.687 -1033.76 3790.12 0
391.759 -1173.8 4300.57 0
212.398 -1026.07 3795.82 0
498.241 -1050.73 3969.66 0
481.65 -1049.24 4031.34 0
547.261 -972.395 3804.88 0
512.146 -973.485 3893.15 0
537.538 -920.954 3836.15 0
329.056 -272.263 1154.81 0
-130.111 -278.007 1731 0
-89.4371 -267.593 1737.08 0
-53.7699 -312.19 2253.03 0
56.1642 -228.464 1727.75 0
-19.1257 -288.694 2280.88 0
-627.433 -224.234 1934.55 0
19.2963 -116.721 1732.92 0
-289.241 -115.504 1678.03 0
-493.579 -45.6735 1458.22 0
224.319 -17.8291 1106.49 0
210.166 73.7556 1008.32 0
245.135 65.9347 701.209 0
70.1945 105.078 713.511 0
66.9446 105.916 709.874 0
74.9713 108.059 707.373 0
53.8152 117.314 717.825 0
67.2836 142.667 719.494 0
-225.87 185.373 797.693 0
55.4273 180.683 720.223 0
41.0892 197.599 731.051 0
-194.215 215.821 736.939 0
-188.033 220.954 727.816 0
-1383.16 -1387.55 4056.6 0
-436.161 -1052.52 3791.08 0
556.329 -1013.96 3721.76 0
526.371 -1023.63 3850.34 0
140.321 -977.511 3701.24 0
222.225 -962.539 3664.97 0
302.303 -903.026 3530.7 0
399.321 -945.034 3722.86 0
328.895 -275.126 1148.53 0
425.032 -702.479 3108.7 0
-585.297 -751.084 3619.14 0
402.003 -296.344 1539.35 0
-59.1808 -277.115 1794 0
-633.652 -286.75 1956.97 0
-605.953 -284.879 2005.96 0
388.804 -246.217 1750.76 0
-69.2691 -304.169 2249.09 0
181.26 -232.28 1722.47 0
-81.9686 -272.158 2222.42 0
-54.4024 -272.087 2256.13 0
-34.6685 -272.206 2273 0
256.976 -260.603 2378.85 0
-352.374 -115.258 1635.46 0
-185.975 -115.557 1686.8 0
-319.509 -102.966 1539.58 0
-197.994 -85.1841 1474.84 0
-265.796 -0.0990456 1445.18 0
10.0499 21.6574 1412.3 0
-374.907 51.3365 1247.16 0
205.622 41.7943 713.597 0
116.997 44.4117 690.808 0
84.017 47.2438 696.854 0
106.666 47.5193 695.846 0
-102.49 135.672 1108.73 0
-103.735 139.472 1105.42 0
78.4472 114.747 712.768 0
86.5824 120.725 709.101 0
-166.712 184.332 968.657 0
-178.906 194.149 948.801 0
73.81 149.484 716.986 0
52.0212 172.534 720.229 0
62.7356 172.712 720.541 0
62.7356 172.712 720.541 0
-207.796 201.526 781.228 0
56.422 188.008 720.785 0
-194.564 219.199 738.229 0
-186.348 226.343 733.867 0
54.0996 -361.83 1023.85 0
147.865 -362.492 1056.28 0
-480.911 -1487.74 4513.74 0
-484.941 -1468.21 4527.15 0
-932.595 -957.671 3254.93 0
845.4 -961.421 3472.95 0
513.075 -1050.09 3893.57 0
482.555 -1065.56 4000.84 0
515.901 -1037.27 3945.94 0
335.319 -286.1 1117.2 0
329.166 -280.19 1128.4 0
351.845 -280.987 1139.23 0
478.847 -921.912 3814.06 0
325.843 -277.311 1133.86 0
167.585 -934.114 4380.48 0
172.417 -962.055 4517.04 0
1091.99 -587.675 3368.65 0
-62.1091 -318.547 2270.14 0
-57.3742 -284.504 2273.72 0
-390.732 -115.018 1591.15 0
28.9206 -114.505 1729.69 0
-160.995 -88.7944 1534.43 0
464.719 -55.2566 1318.3 0
-392.151 -52.1335 1390.41 0
-78.8393 41.0231 1377.3 0
-389.895 40.3917 1234.52 0
108.332 23.9822 687.486 0
-28.4015 56.9314 1387.89 0
48.2859 31.4953 695.925 0
-297.91 61.0177 1231.8 0
-184.415 73.5819 1327.47 0
124.114 42.3774 690.821 0
74.6925 50.6791 715.005 0
65.3228 53.7872 707.12 0
65.2823 53.7916 707.37 0
-285.785 93.1718 1205.25 0
137.445 53.3854 691.074 0
142.961 54.5063 690.045 0
148.324 55.483 688.723 0
153.052 56.4248 687.366 0
163.077 58.2067 684.094 0
176.232 60.8422 681.321 0
187.912 62.9867 676.748 0
69.0535 83.9831 710.163 0
-110.833 136.585 1105.75 0
-114.211 144.699 1092.16 0
9.72334 151.654 1152.87 0
68.5376 101.98 711.754 0
76.2094 113.276 710.735 0
63.9086 129.838 712.868 0
68.9416 130.667 710.545 0
68.9416 130.667 710.545 0
-193.165 189.909 926.176 0
60.6434 148.05 713.605 0
64.7763 148.971 712.641 0
48.7636 155.618 722.764 0
80.1935 159.264 718.016 0
-218.727 186.002 804.507 0
56.8522 164.671 721.076 0
134.429 -354.898 1078.93 0
-830.254 -1419.84 4407.02 0
-460.827 -1420.78 4481.96 0
280.251 -348.001 1132.03 0
-49.3963 -1314.15 4351.8 0
-190.216 -363.193 1304.97 0
488.53 -1085.27 3975.84 0
248.845 -925.031 3614.77 0
315.084 -284.479 1138.42 0
318.219 -277.436 1137.64 0
376.394 -773.505 3319.96 0
475.308 -743.948 3185.73 0
7.57499 -1083.95 4713.61 0
-1.77429 -1025.01 4778.5 0
565.281 -570.06 2800.66 0
-1380.41 -877.761 4463.49 0
-869.295 -496.637 2539.25 0
-548.411 -338.236 2091.49 0
173.346 -230.401 1722.39 0
441.416 -206.119 2686.18 0
-45.2254 -114.123 1707.57 0
26.9022 -96.5979 1596.92 0
26.6408 -96.1929 1590.89 0
-39.2594 -94.1028 1577.08 0
-177.67 -88.9117 1513.31 0
108.563 -87.3879 1528.89 0
-383.455 -82.1268 1437.83 0
-233.007 -65.4407 1455.98 0
-324.303 -60.3038 1382.13 0
-387.728 -60.2781 1390.49 0
468.931 -57.691 1306.67 0
-196.228 -57.4336 1436.98 0
-476.12 -53.9762 1449.76 0
-293.48 -1.37091 1358.64 0
-379.251 23.1492 1190.22 0
-273.092 29.9239 1277.73 0
-236.785 31.4386 1333.83 0
-197.102 34.5758 1326.41 0
-385.824 46.1809 1183.82 0
-240.697 53.9317 1313.81 0
65.7788 35.9354 705.057 0
-266.947 66.2901 1271.82 0
210.535 42.1312 746.167 0
-248.953 71.5885 1214.9 0
117.335 41.1095 693.13 0
117.242 41.0402 692.598 0
121.034 45.6726 693.108 0
143.933 46.2541 685.846 0
129.186 47.5314 691.09 0
129.179 47.5249 690.955 0
115.727 48.3625 692.847 0
140.036 49.6224 688.248 0
139.946 49.5434 687.615 0
85.9453 51.3829 700.466 0
151.798 52.2221 687.351 0
87.7242 55.1618 702.84 0
176.485 56.6753 680.259 0
-286.135 101.073 1154.82 0
-317.673 106.743 1158.54 0
81.998 75.5855 702.707 0
70.5191 78.1582 708.762 0
79.8103 85.4641 706.507 0
6.38021 158.433 1139.24 0
-147.64 149.326 1062.61 0
64.1512 100.329 709.626 0
-177.075 180.831 981.075 0
-204.512 181.808 905.719 0
-100.112 -354.026 997.047 0
373.251 -376.61 1083.18 0
343.725 -279.031 1142.74 0
-1390.96 -1010.14 4417.11 0
-1390.23 -1009.73 4415.21 0
315.566 -510.078 2297.23 0
-250.648 -460.013 2218.71 0
-354.158 -305.045 2174.33 0
-587.985 -272.575 2006.01 0
-330.619 -126.901 1664.01 0
-51.5674 -131.384 1765.55 0
17.0243 -126.196 1768.27 0
-144.552 -114.242 1669.18 0
-171.304 -114.704 1675.02 0
-89.3173 -93.6734 1549.51 0
-217.541 -74.4795 1446.72 0
-117.019 -78.1379 1510.8 0
-178.151 -37.5501 1322.62 0
-412.833 -32.886 1424.67 0
390.75 -25.0766 1665.46 0
-291.033 -4.58831 1400.4 0
-276.109 10.4671 1291.58 0
-267.418 13.52 1413.96 0
-228.774 15.5547 1385.84 0
92.1294 18.7742 690.858 0
-200.818 48.375 1341.66 0
106.629 27.4204 683.28 0
-405.246 55.5576 1208.22 0
-268.896 84.9608 1230.65 0
108.093 55.9758 700.464 0
107.93 55.5764 698.469 0
-108.182 142.827 1100.46 0
63.3383 125.824 715.816 0
63.3702 125.779 716.428 0
61.9543 134.243 716.631 0
-205.306 173.563 895.031 0
-210.46 187.974 891.98 0
-217.364 183.18 858.806 0
-217.106 200.655 777.572 0
88.6357 217.176 720.832 0
-173.945 227.541 746.037 0
-160.924 227.974 744.603 0
-1471.78 -1191.35 4343.23 0
350.221 -282.829 1127.33 0
-41.6443 -434.055 2215.61 0
-668.799 -300.725 1972.54 0
-118.42 -91.8991 1530.94 0
-135.842 -80.5726 1510.68 0
-218.377 -18.9663 1452.32 0
488.56 -19.2847 1372.29 0
-290.289 52.8596 1284.93 0
53.2453 28.5858 700.983 0
110.619 43.3224 694.319 0
187.225 56.6815 677.861 0
-7.49423 134.651 1188.9 0
-106.019 150.409 1100.59 0
-128.821 162.818 1100.06 0
-217.64 171.288 875.066 0
87.153 188.295 723.365 0
133.372 -354.736 1055.25 0
151.048 -355.868 1072.21 0
264.21 -353.425 1060.11 0
-685.427 -325.036 1985.88 0
-595.032 -256.416 1971.32 0
463.395 -142.593 1385.84 0
-494.729 -51.8942 1451.35 0
-188.275 28.2728 1326.02 0
-7.54856 36.2061 1417.07 0
-389.439 96.2051 1173.59 0
81.4781 68.0509 703.423 0
32.1606 112.52 987.042 0
-136.528 148.368 1066.97 0
69.5656 118.965 715.334 0
-284.97 166.644 869.44 0
47.0495 164.031 723.914 0
-196.374 193.25 782.831 0
-189.443 199.596 761.631 0
56.4028 195.479 725.411 0
-197.058 215.026 762.463 0
-84.4226 -1475.05 4625.05 0
-835.481 -769.503 3135.34 0
285.643 -506.942 2314.37 0
-40.7978 -423.356 2176.16 0
-700.63 -367.089 2071.11 0
7.36475 -289.373 2272.85 0
458.516 -66.7337 1329.93 0
55.0385 9.90162 1416.74 0
61.1976 31.2719 683.068 0
67.5 46.0944 704.574 0
-127.496 149.631 1091.32 0
-186.399 187.62 942.494 0
382.652 -1304.9 4410.09 0
262.4 -326.718 1107.9 0
-685.441 -482.301 2521.27 0
1130.39 -630.292 3352.06 0
182.914 -152.353 1998.29 0
-324.393 -112.149 1691.59 0
-428.099 -60.2495 1401.7 0
107.604 34.1917 691.779 0
77.649 68.6735 708.159 0
75.28 81.9381 709.592 0
67.3109 131.669 716.638 0
-209.683 196.579 810.709 0
-227.035 194.766 786.961 0
68.1605 197.073 725.13 0
420.939 -89.6386 1286.39 0
-277.509 180.539 857.85 0
