ply
format ascii 1.0
element vertex 205
property float x
property float y
property float z
property uchar intensity
end_header
-440.83 -143.386 2150.57 0
-280.607 -55.6517 1768.85 0
-279.124 -51.6383 1763.67 0
161.697 299.136 1545.61 0
72.2839 -472.788 3813.76 0
-1031.51 -406.68 3439.43 0
-422.071 -170.867 2120.24 0
14.858 -292.743 4490 0
830.162 -211.737 3205.23 0
797.319 -129.564 3219.26 0
234.096 36.7234 1546.41 0
-131.188 141.132 1636.17 0
-123.632 162.214 623.708 0
1006.37 -1624.31 4622.51 0
-21.5375 -512.12 3933.54 0
86.4784 -482.694 3833.37 0
-855.807 -382.419 3529.18 0
-427.658 -174.894 2122.34 0
-423.435 -161.833 2029.68 0
22.5918 -316.289 4406.13 0
-539.57 -123.67 1996.65 0
-131.445 -225.641 3767.44 0
873.443 -198.279 3254.53 0
-308.046 -105.797 1928.94 0
-294.435 -106.134 1932.4 0
-296.195 -107.082 1944.22 0
232.921 -37.721 1545.25 0
793.194 -48.5114 3274.04 0
221.622 -17.4512 1552.28 0
761.371 12.902 3408.3 0
-276.516 17.4726 2242.01 0
161.785 43.6105 2476.51 0
-26.6615 35.3616 1680.03 0
221.058 33.2707 1549 0
200.382 56.78 1596.36 0
-175.973 182.039 1159.68 0
-353.694 277.871 1015.08 0
294.21 -155.041 1070.57 0
92.7384 -473.196 3838.02 0
265.494 -372.804 3754.91 0
-384.235 -260.405 3623.31 0
785.952 -243.272 3400.23 0
-451.647 -126.071 1867.76 0
145.521 -69.101 1086.37 0
-170.968 -235.627 3772.95 0
-117.485 -213.54 3726.55 0
-145.317 -209.958 3694.92 0
861.4 -180.287 3220.18 0
742.956 -188.858 3399.14 0
-95.3057 -186.749 3646.84 0
-435.452 -94.6395 1813.1 0
-32.6589 -107.81 2210.01 0
-38.3682 -93.0993 2251.34 0
812.517 -122.348 3334.42 0
-326.686 -58.8643 1694.94 0
735.398 -113.422 3395.37 0
732.008 -71.8679 3412.17 0
844.076 -64.325 3293.55 0
774.954 -63.7649 3354.35 0
768.135 -47.3101 3300.61 0
-262.904 25.8681 2214.82 0
-276.931 29.0221 1817.72 0
751.745 63.4998 3294.71 0
205.22 107.499 2837.97 0
198.209 77.2956 1534.86 0
206.781 103.804 1661.98 0
-371.407 99.3421 1479.34 0
-254.737 115.218 1657.22 0
-327.271 108.528 1517.04 0
209.709 206.301 2712.2 0
237.887 112.934 1291.52 0
-81.6915 179.379 1533.77 0
216.463 181.843 1303.99 0
246.164 178.803 1239.23 0
-435.686 218.049 1408.49 0
-230.668 216.679 1340.16 0
302.962 216.927 1263.24 0
-107.766 163.913 621.77 0
-96.3929 176.881 620.584 0
-160.342 181.759 629.701 0
-81.4128 181.919 616.487 0
-166.986 196.322 636.293 0
-1.70915 -215.631 969.57 0
-3.3825 -206.513 1024.36 0
-1037.82 -660.846 3295 0
75.7803 -173.66 1019.99 0
78.1871 -461.727 3837.02 0
849.664 -211.67 3235.91 0
-436.046 -114.329 1817.62 0
136.818 -55.4299 1116.05 0
775.628 -72.5735 3298.96 0
-258.036 -38.4781 1757.17 0
-278.254 109.549 1517.09 0
-196.111 126.786 1672.36 0
-192.644 130.82 1619.56 0
-178.34 140.262 1653.59 0
268.116 139.303 1226.46 0
236.924 200.147 1244.71 0
-129.189 154.597 624.806 0
-148.23 162.929 627.205 0
-117.039 168.415 622.875 0
-128.591 170.281 624.605 0
-112.264 173.087 630.221 0
-145.211 175.698 631.859 0
346.268 288.948 974.398 0
-176.637 213.27 633.098 0
-231.396 -260.811 885.691 0
-162.247 -246.435 910.046 0
-360.512 -235.054 1286.67 0
-1515.51 -501.989 4484.17 0
139.244 -82.8243 1047.68 0
-137.414 -382.22 4812.85 0
222.854 -259.813 3333.38 0
150.198 -71.9993 1076.91 0
754.753 -57.4275 3445.03 0
-285.817 18.1478 2181.3 0
-34.7723 35.9056 1679.72 0
220.705 64.0854 2997.66 0
203.949 80.833 2941.36 0
214.906 94.0785 2895.04 0
243.015 120.068 2858.44 0
-371.266 95.5774 1447.98 0
258.553 106.379 1288.31 0
317.681 117.37 1327.5 0
330.249 132.16 1261.55 0
-126.75 124.993 1174.02 0
-133.04 133.903 1155.46 0
46.8319 266.831 1560.05 0
-157.81 153.289 635.207 0
-167.926 167.599 636.582 0
-145.963 172.039 632.118 0
-103.601 169.789 621.233 0
-88.7413 170.293 616.302 0
-93.2397 173.089 617.641 0
-81.9713 177.602 617.013 0
-58.1956 185.068 609.362 0
1509.16 -1655.73 4826.35 0
1441.15 -1481.84 4716.65 0
1381.33 -1420.61 4519.15 0
-200.5 -200.113 957.7 0
198.194 -155.827 1064.17 0
-1503.7 -639.131 4455.18 0
-1503.01 -638.849 4453.24 0
-811.817 -352.515 3460.96 0
-109.125 -482.923 4797.38 0
399.98 -81.669 1190.47 0
777.336 -158.9 3408.03 0
-456.771 -80.908 1895.38 0
-392.608 87.1378 1618.55 0
-268.915 112.313 1650.52 0
-239.078 121.215 1532.74 0
-206.724 127.834 1579.9 0
-425.585 168.318 1267.2 0
253.064 219.449 1263.74 0
-429.316 225.144 1249.74 0
162.197 305.818 1545.68 0
-147.064 167.751 630.253 0
-166.761 192.499 635.073 0
-192.939 207.206 634.408 0
1526.33 -1541.76 4822.63 0
-282.237 -272.18 874.765 0
1814.91 -1645.49 5337.2 0
-352.208 -270.05 1269.53 0
-24.1964 -173.005 1051.05 0
-366.174 91.1929 1612.64 0
-410.04 95.7747 1432.89 0
-312.719 105.103 1491.23 0
-212.546 132.436 1508.27 0
-84.4593 145.193 1526.49 0
235.793 125.009 1301.79 0
-430.623 127.704 1276.85 0
-140.193 150.767 1147.01 0
-415.181 192.927 1245.25 0
-7.52948 168.335 1053.05 0
181.014 306.951 1550.02 0
-158.794 146.547 632.878 0
-114.294 161.864 624.235 0
-121.301 163.09 625.144 0
-161.549 179.257 632.713 0
-162.841 211.818 632.665 0
794.748 -94.2028 3302.85 0
-271.242 -10.0841 1811.18 0
-233.301 15.6096 2099.66 0
-341.369 99.7566 1472.64 0
-360.002 105.439 1451.12 0
204.97 130.017 1273.57 0
-250.47 228.663 1343.05 0
231.933 292.992 1280.1 0
-98.3891 151.185 638.81 0
-154.216 183.711 631.055 0
200.615 327.241 1545.28 0
-164.489 160.102 635.04 0
231.764 -118.9 1128.53 0
-283.416 61.5406 1775.98 0
-155.88 145.27 1552.01 0
-50.3609 179.745 1658.81 0
236.407 160.674 1251.38 0
-101.848 177.539 1086.8 0
230.457 216.373 1285.4 0
-162.689 197.076 635.403 0
104.904 -148.347 1062.12 0
-80.7686 29.1797 1718.43 0
-187.185 139.59 625.887 0
-167.909 141.845 615.626 0
213.057 307.685 1243.9 0
