ply
format ascii 1.0
element vertex 147
property float x
property float y
property float z
property uchar intensity
end_header
850.36 -744.106 3362.58 0
182.689 -1011.95 3659.24 0
980.739 -842.218 3559.37 0
1125.68 -816.843 3676.47 0
1160.87 -824.932 3670.15 0
123.216 -802.566 3787.26 0
-345.979 -275.291 1616.91 0
-589.528 -360.053 2121.74 0
-586.831 -358.614 2158.54 0
-600.75 -354.927 2151.78 0
817.74 -1177.38 3822.75 0
680.31 -1046.95 3565.58 0
-298.805 -1200.11 4217.75 0
863.786 -872.229 3539.92 0
638.75 -798.828 3327.93 0
733.291 -751.989 3320.06 0
-742.237 -797.272 3563.66 0
-718.666 -775.087 3496.49 0
102.174 -788.082 3780.26 0
1090.68 -747.103 3518.62 0
-627.528 -386.311 2144.88 0
-635.437 -367.463 2138.98 0
1038.31 -563.839 3545.35 0
-167.6 -220.278 1522.5 0
-36.4111 -177.868 1269.31 0
-358.256 -305.452 2207.16 0
996.666 -488.227 3525.48 0
-121.159 81.9205 565.97 0
-128.891 -320.082 1045.7 0
213.161 -948.555 3436.42 0
-336.025 -939.592 3440.07 0
169.589 -1018.76 3744.15 0
-311.819 -891.683 3335.62 0
-255.02 -972.37 3641.23 0
644.714 -882.368 3366.06 0
825.152 -925.443 3664.22 0
849.762 -903.636 3580.95 0
638.864 -788.79 3341.29 0
740.788 -776.041 3346.43 0
1049.42 -829.795 3657.49 0
948.942 -783.499 3518.54 0
-338.316 -284.998 1621.9 0
1042.29 -581.926 3546.63 0
-620.851 -345.309 2130.28 0
1026.57 -574.849 3540.76 0
-602.945 -343.614 2149.01 0
40.0276 -183.713 1311.8 0
974.714 -465.876 3554.08 0
-89.7105 59.674 558.334 0
-183.019 181.915 587.738 0
-75.7686 192.121 575.131 0
-1157.82 -1575.09 4340.12 0
-121.159 -325.424 1035.23 0
692.767 -876.933 3400.56 0
596.374 -860.3 3357.66 0
1006.19 -872.154 3503.94 0
-16.4554 -574.534 2636.55 0
-294.655 -497.988 3045.42 0
-14.9798 -185.597 1277.56 0
-325.385 -305.462 2282.79 0
-27.9977 -85.585 1234.52 0
-6.71308 80.6231 550.394 0
-55.2108 95.3592 561.536 0
-101.793 182.506 577.273 0
-178.455 189.169 583.862 0
-1043.28 -1863.72 5176.65 0
790.129 -891.092 3578.77 0
846.365 -823.45 3530.7 0
-2.48057 -571.338 2614.08 0
-2.48057 -571.338 2614.08 0
1138.9 -723.216 3579.76 0
-265.551 -506.078 3058.68 0
957.452 -481.128 3261.11 0
59.2194 -161.621 1249.58 0
-33.5371 -83.5273 1245.66 0
11.0617 -50.3778 1289.47 0
-2.62926 -43.4092 1300.55 0
-115.993 65.195 559.699 0
-114.461 69.6731 562.03 0
-34.8867 89.4148 553.576 0
-76.6579 114.716 564.692 0
25.6963 142.387 556.521 0
-136.653 152.981 575.706 0
22.7841 151.806 557.145 0
-128.873 165.071 578.648 0
-105.623 171.817 575.983 0
-59.3201 173.253 565.147 0
-166.924 184.616 586.787 0
-89.2688 196.855 579.254 0
-628.698 -1387.81 3876.86 0
121.93 -369.143 1156.64 0
-1383.63 -1354.8 4372.9 0
1183.35 -787.687 3669.46 0
1163.13 -732.676 3549.07 0
-219.413 -341.651 2399.79 0
-12.4609 -70.0452 1257.15 0
-18.4704 -45.4691 1301.35 0
-132.2 74.7977 569.683 0
-93.9417 84.4408 565.88 0
27.6191 134.736 555.804 0
-95.1117 157.409 572.943 0
-131.253 161.005 577.196 0
-97.5394 162.872 574.812 0
-60.4743 178.621 567.639 0
-60.4743 178.621 567.639 0
-589.615 -505.505 2092.87 0
-38.6705 -167.073 1280.89 0
96.5348 44.8994 939.263 0
4.23074 94.1712 554.065 0
-58.2759 97.2892 562.995 0
-80.3041 106.286 565.82 0
-70.2611 121.85 566.134 0
-85.1291 123.738 568.155 0
30.0229 122.668 552.521 0
-89.8729 141.343 570.094 0
-144.4 150.633 580.275 0
-119.754 155.583 575.702 0
-107.149 159.664 575.213 0
-83.4843 167.642 573.006 0
-169.179 192.127 586.594 0
-105.359 191.35 579.133 0
-50.7884 -163.126 1255.6 0
906.397 -337.242 3288.14 0
-0.0958947 -0.668651 1312.63 0
-111.739 169.607 578.843 0
-84.887 174.306 573.97 0
-23.3265 179.082 566.603 0
-18.7335 188.213 564.38 0
-1241.58 -1552.24 4314 0
936.178 -414.657 3458.2 0
-6.97756 -54.1609 1285.01 0
-4.14034 65.8223 547.587 0
-185.354 169.402 590.525 0
-44.4899 167.404 566.894 0
-191.714 187.31 589.321 0
785.319 -852.068 3446.2 0
477.659 -593.1 3340.65 0
-26.473 -175.247 1264.64 0
-31.4754 -125.447 1235.85 0
15.9478 22.0764 1241.02 0
42.5925 83.1911 531.827 0
-120.988 144.165 565.477 0
634.646 -761.396 3310.68 0
-41.2795 8.99819 1236.19 0
-113.297 72.6424 576.129 0
30.8489 104.996 551.378 0
-102.099 149.651 572.102 0
