ply
format ascii 1.0
element vertex 277
property float x
property float y
property float z
property uchar intensity
end_header
-774.182 -1268.78 4479.9 0
941.67 -750.164 3378.32 0
987.093 -738.395 3372.9 0
-487.942 -493.274 2863.67 0
1141.42 -616.317 3564.65 0
-0.0489264 -182.317 1631.65 0
-272.834 -328.83 931.711 0
1084.5 -892.626 3519.63 0
432.546 -655.404 3206.08 0
346.331 -635.828 3482.89 0
-677.507 -367.576 2026.75 0
-671.164 -364.384 2025.57 0
349.415 -594.552 3459.02 0
1120.73 -496.734 3585.44 0
1047.08 -385.442 3366.81 0
-461.498 -227.87 2145.93 0
-458.318 -226.392 2182.69 0
-471.835 -221.322 2176.01 0
-508.256 -218.603 2179.5 0
-186.132 72.7282 612.053 0
-137.396 78.14 603.558 0
-96.6506 87.3987 598.91 0
175.017 195.062 571.654 0
-182.36 -330.365 973.681 0
1044.35 -905.8 3519.59 0
1062.86 -859.679 3574.97 0
344.922 -732.461 3456.25 0
352.407 -723.258 3488.56 0
-700.791 -646.307 3603.27 0
-545.538 -646.27 3670.41 0
38.8361 -267.535 1528.02 0
38.2607 -265.472 1528.18 0
-286.556 -380.369 2150.06 0
400.873 -568.231 3300.08 0
403.483 -530.063 3407.99 0
466.701 -496.066 3405.66 0
454.712 -484.539 3341.81 0
412.782 -466.62 3301.01 0
59.9971 -213.997 1529.87 0
-82.9092 -206.119 1785.85 0
20.6892 -173.954 1552.18 0
-458.742 -168.296 1677.08 0
-223.704 -46.87 1543.83 0
-53.6728 94.81 590.462 0
-40.9942 97.2042 591.845 0
-25.4357 100.152 589.253 0
-11.1284 102.852 586.844 0
137.588 131.788 572.204 0
117.9 136.347 574.352 0
117.414 135.736 572.384 0
55.6759 139.669 585.497 0
98.8143 138.73 575.034 0
142.866 139.291 569.528 0
134.629 145.111 571.17 0
192.041 152.163 566.47 0
69.1523 155.622 578.525 0
90.9869 164.31 574.756 0
63.8356 190.426 582.927 0
184.932 193.534 566.584 0
174.636 197.149 574.978 0
177.554 196.993 569.389 0
186.23 198.926 571.422 0
-82.1138 -327.242 973.149 0
-82.1138 -327.242 973.149 0
-240.951 -1074.95 4247.66 0
-303.528 -872.187 3602.26 0
-178.905 -858.288 3668.56 0
386.04 -784.209 3370.57 0
1133.39 -853.671 3672.38 0
975.373 -792.506 3468.7 0
0.659314 -242.753 1088.65 0
34.4495 -290.017 1340.58 0
358.291 -647.768 3377.95 0
362.209 -653.925 3409.88 0
409.092 -601.657 3346.22 0
-403.886 -334.585 1881.72 0
-680.793 -630.731 3557.49 0
-586.503 -649.732 3671.81 0
-701.652 -616.924 3505.3 0
410.032 -578.57 3294.53 0
-526.089 -632.457 3632.4 0
-549.933 -620.682 3599.53 0
7.7091 -322.024 1926.35 0
315.314 -598.99 3580.12 0
1151.32 -607.438 3559.12 0
-511.062 -584.097 3487.08 0
-293.514 -369.428 2192.36 0
1096.4 -484.856 3565.99 0
37.7528 -192.732 1541.08 0
-251.391 -196.132 1736.78 0
-69.8346 -321.646 2919.98 0
-506.417 -218.744 2121.85 0
-491.015 -209.835 2154.59 0
207.59 -120.282 1235.75 0
33.6798 -156.028 1650.49 0
124.118 -59.9267 1231.3 0
55.3244 -60.7675 1258.13 0
-713.48 -83.4645 2176.79 0
-350.214 -55.242 1583.13 0
279.297 98.1835 1002.08 0
-83.1753 89.8249 595.9 0
-82.8665 89.6875 594.632 0
-75.0248 91.1363 595.439 0
-66.2586 92.2274 592.045 0
20.7207 124.391 585.691 0
19.1156 126.15 585.409 0
127.802 131.465 566.564 0
50.9682 153.265 574.582 0
182.866 158.022 563.038 0
89.766 161.562 574.105 0
89.8607 161.776 575.449 0
89.9782 166.885 577.248 0
86.4295 179.356 576.764 0
30.0458 183.704 586.775 0
83.9435 180.867 576.492 0
178.513 180.697 569.729 0
180.207 186.729 571.819 0
177.26 190.137 569.308 0
29.4247 194.839 589.193 0
-1471.14 -1302.56 4250.04 0
-1109.84 -1306.84 4357.46 0
-349.673 -1196.47 4488.23 0
-232.135 -803.954 3363.57 0
-2.37212 -252.521 1055.21 0
468.862 -746.7 3216.31 0
-9.40037 -246.301 1065.69 0
352.906 -723.324 3373.03 0
1232.84 -757.808 3592.84 0
413.368 -604.427 3290.36 0
1151.94 -679.408 3683.39 0
349.702 -619.702 3447.55 0
360.289 -608.317 3399.39 0
382.004 -601.698 3435.31 0
-112.857 -285.973 2029.71 0
-454.989 -224.343 1694.04 0
-495.716 -221.845 2172.08 0
175.431 -126.079 1328.98 0
-102.678 -107.49 1246.87 0
-270.629 -165.418 2212.37 0
127.933 -52.7022 1230.94 0
117.377 -22.0352 1251.31 0
112.19 -19.3057 1262.47 0
147.663 17.8288 1316.7 0
5.64688 36.9126 1612.84 0
-101.827 63.3515 612.845 0
-156.677 80.6785 606.702 0
-151.075 81.7049 606.145 0
-145.602 82.5831 605.285 0
-140.759 83.434 604.335 0
47.7201 119.34 576.213 0
64.892 122.564 573.914 0
69.7009 123.788 574.258 0
81.0605 129.209 577.437 0
-207.917 149.043 618.837 0
195.841 134.249 557.893 0
158.491 137.32 565.93 0
193.591 136.486 559.99 0
146.772 136.773 563.316 0
146.772 136.773 563.316 0
150.143 137.533 564.171 0
20.0909 141.67 586.581 0
79.1853 143.242 580.902 0
122.498 146.578 568.742 0
122.362 146.452 568.211 0
127.443 147.561 567.996 0
127.405 147.521 567.85 0
105.136 153.182 576.728 0
50.3682 169.596 581.97 0
65.8601 190.404 583.366 0
130.89 -360.902 1039.77 0
-82.0568 -335.517 971.754 0
-275.34 -326.436 938.768 0
37.0576 -344.209 1026.44 0
-184.83 -327.669 979.393 0
-200.1 -319.432 1000.61 0
-1163.64 -1224.85 4174.21 0
1216.06 -892.997 3562.06 0
-92.4165 -245.472 1880.25 0
1277.77 -438.729 3612.68 0
-81.4258 -341.272 2968.92 0
-216.367 -182.197 1642.45 0
-89.9613 -315.887 2914.02 0
-72.7753 -299.845 2870.56 0
211.601 -115.106 1234.52 0
196.251 -106.691 1266.39 0
-374.551 -75.008 1672.25 0
127.703 -41.8443 1243.37 0
-360.904 -51.4311 1542.49 0
-377.139 -49.4817 1496.53 0
-413.874 -46.5084 1475.84 0
158.848 -3.96853 1309.32 0
264.157 74.905 1002.38 0
-170.096 69.845 605.481 0
-149.859 73.3555 602.21 0
-207.21 83.3551 613.974 0
23.1205 122.562 585.209 0
140.266 130.265 568.942 0
63.3664 147.959 581.593 0
131.97 146.939 572.876 0
148.012 150.965 564.651 0
83.7266 176.235 579.958 0
47.581 187.57 583.842 0
84.4917 194.461 581.223 0
188.342 192.903 570.648 0
-816.982 -1172.09 4076.78 0
235.907 -320.489 1174.99 0
1271.11 -825.789 3682.8 0
-660.364 -1012.96 4660.27 0
1255.66 -770.042 3562.04 0
390.804 -700.967 3387.94 0
324.489 -674.653 3617.86 0
1063.13 -479.018 3569.53 0
103.696 -119.842 1276.96 0
81.0101 -56.2039 1232.51 0
-431.002 -63.3685 1606.05 0
-460.634 -45.6066 1444.34 0
-389.454 -47.1757 1492.68 0
134.675 -8.01395 1273.66 0
131.701 17.4551 1317.66 0
-173.316 73.2271 607.421 0
-153.937 76.7331 603.553 0
-208.829 79.5519 611.526 0
-142.069 79.2489 604.29 0
-116.787 83.2277 599.331 0
-5.99511 116.106 593.213 0
61.2911 124.607 575.786 0
189.442 185.087 569.991 0
88.7613 192.665 582.375 0
-46.507 -315.381 1041.32 0
-59.4573 -313.369 1066.29 0
11.6247 -249.239 1066.55 0
-685.982 -395.881 2103.57 0
98.631 -101.526 1298.58 0
-359.307 -38.1912 1471.73 0
271.712 71.6745 1010.59 0
252.147 91.9517 953.729 0
-177.071 68.7148 607.203 0
-177.118 68.6358 606.667 0
-183.832 71.0405 607.749 0
-183.892 71.0546 608.041 0
-186.701 83.8504 613.399 0
-105.879 83.0423 597.895 0
95.6433 128.031 562.763 0
81.7449 137.761 575.258 0
70.739 138.771 567.12 0
100.157 156.955 578.279 0
94.1825 164.076 578.267 0
79.2248 168.246 581.201 0
190.532 172.804 566.808 0
90.8515 182.669 581.276 0
76.2844 186.13 583.403 0
-8.40934 -346.974 1009.17 0
-182.969 -320.76 995.41 0
-1023.67 -1269.71 4107.92 0
-630.011 -1360.14 4601.46 0
428.213 -629.355 3292.95 0
-483.073 -224.866 1935.08 0
1039.48 -352.146 3299.36 0
151.745 -116.429 1311.21 0
71.7723 -88.1993 1269.04 0
-45.8872 -115.188 1900.1 0
78.1883 -33.0294 1259.67 0
-164.55 53.9135 621.472 0
60.5597 118.123 572.445 0
154.513 138.709 550.439 0
-472.665 -362.89 2079.09 0
1062.56 -430.731 3469.93 0
-468.208 -200.067 1750.02 0
150.535 119.828 562.729 0
-465.111 -124.047 1723.03 0
109.738 -61.2957 1253.06 0
-53.1299 -320.371 1018.63 0
70.2352 -320.868 1097.06 0
139.39 -77.68 1241.65 0
42.975 138.357 592.122 0
189.484 155.133 565.834 0
89.7422 160.873 584.176 0
