ply
format ascii 1.0
element vertex 329
property float x
property float y
property float z
property uchar intensity
end_header
-231.763 -322.259 985.986 0
-599.054 -1171.43 4573.26 0
1201.26 -773.037 3592.88 0
576.467 -668.276 3221.49 0
1117.37 -657.711 3390.54 0
588.359 -593.424 3372.75 0
-1132.81 -584.257 3469.12 0
-1119.33 -582.121 3467.51 0
-583.165 -338.841 2090.85 0
-1079.21 -537.965 3337.27 0
-590.702 -331.707 2093.92 0
-1578.99 -724.797 4529.07 0
-1578.99 -724.797 4529.07 0
481.987 -516.305 3495.57 0
-424.933 -254.115 1749.03 0
1284.75 -502.33 3565.44 0
556.55 -408.175 3373.81 0
-455.081 -202.488 1684.75 0
-414.349 -206.029 1742.98 0
-378.031 -190.518 2203.1 0
-421.912 -194.255 2255.87 0
-387.346 -183.25 2233.34 0
-178.832 -136.841 1690.88 0
-423.642 -180.706 2238.06 0
200.653 -79.6056 1302.25 0
-159.783 71.3049 653.008 0
-158.155 72.0895 649.378 0
-87.7245 82.8146 638.788 0
-58.2879 88.6883 633.89 0
-35.169 92.8035 629.903 0
-6.81043 98.1448 625.073 0
53.91 143.656 615.509 0
198.681 195.164 596.543 0
201.121 197.053 594.139 0
-297.435 -330.744 950.974 0
1181.19 -820.744 3539.43 0
478.537 -654.269 3496.58 0
487.089 -644.157 3528.35 0
26.8365 -480.383 3043.79 0
562.562 -507.394 3303.14 0
-507.39 -559.041 3666.34 0
-404.44 -568.947 3740.06 0
-199.803 -316.786 2166.4 0
-186.354 -295.077 2062.56 0
533.675 -452.798 3440.96 0
1249.75 -423.75 3544.31 0
538.646 -392.148 3332.1 0
-435.932 -198.488 1736.4 0
1256.47 -409.528 3591.75 0
-417.312 -212.079 2228.81 0
-182.85 -168.104 1786.02 0
-422.035 -204.796 2206 0
-354.431 -203.541 2232.48 0
-422.209 -175.985 2119.01 0
-392.412 -143.38 1733.05 0
-163.264 -23.8133 1588.35 0
-111.425 76.846 642.639 0
-49.4914 90.0785 631.96 0
-198.637 132.245 662.807 0
-201.684 132.924 658.966 0
-215.148 144.726 665.671 0
142.183 136.124 602.819 0
141.633 135.458 600.886 0
80.3688 139.286 616.088 0
123.115 138.385 604.12 0
166.937 139.123 597.031 0
73.0223 149.206 620.258 0
158.716 144.923 598.813 0
60.5452 147.694 613.007 0
60.5142 147.311 612.491 0
93.457 155.146 608.222 0
88.0127 190.015 611.897 0
208.423 193.574 591.164 0
198.402 197.335 599.823 0
209.847 199.102 595.81 0
86.8334 208.544 613.03 0
-197.933 230.168 666.202 0
204.871 208.891 602.069 0
95.4434 -324.633 1084.84 0
-76.0223 -979.928 4317.12 0
-36.3656 -778.251 3730.69 0
517.014 -707.968 3410.87 0
-98.7634 -703.305 3424.71 0
46.4086 -230.051 1130.74 0
1109.51 -709.348 3488.08 0
566.344 -588.117 3357.37 0
488.418 -571.587 3415.65 0
493.518 -576.866 3447.57 0
537.679 -525.962 3380.93 0
536.592 -504.248 3328.66 0
-484.825 -541.682 3597.43 0
83.8473 -287.026 1969.45 0
1271.81 -512.291 3561.78 0
-598.629 -262.048 1845.51 0
-578.584 -248.972 1797.31 0
80.872 -199.496 1621.36 0
77.264 -177.24 1627.72 0
1231.37 -398.348 3572.88 0
60.6221 -172.061 1669.2 0
-423.85 -182.363 2180.41 0
32.5366 -220.924 2859.05 0
-407.369 -172.476 2212.33 0
230.879 -93.5439 1331.9 0
230.879 -93.5439 1331.9 0
-138.97 -155.88 2276.68 0
70.0396 -145.109 2583.83 0
188.931 -67.7095 1260.93 0
172.966 -26.3048 1276.29 0
-288.225 -32.0658 1632.35 0
-507.423 -43.901 2268.72 0
-151.061 70.4229 645.459 0
-197.895 108.826 660.878 0
45.5698 123.763 617.93 0
89.3088 121.947 604.636 0
-193.522 134.921 656.801 0
43.9412 125.502 617.66 0
-190.298 141.839 662.059 0
129.373 152.923 605.206 0
127.217 154.427 605.329 0
206.526 157.966 588.627 0
113.992 161.368 604.249 0
114.131 166.524 605.908 0
-197.188 187.712 665.446 0
110.464 178.951 605.224 0
-204.622 200.725 666.226 0
-204.622 200.725 666.226 0
54.4374 183.15 617.124 0
202.226 180.779 594.873 0
203.943 186.876 596.741 0
-212.274 215.472 665.499 0
207.39 198.658 595.717 0
-228.073 225.583 674.478 0
-123.181 -346.028 1017.47 0
-39.6363 -326.486 1019.35 0
-142.135 -319.19 1030.45 0
-1005.15 -1245.15 4304.63 0
-965.296 -1260.37 4509.9 0
-520.118 -1116.18 4351.13 0
279.408 -308.298 1201.54 0
-339.221 -273.104 1173.03 0
42.2728 -240.724 1097.7 0
35.5701 -234.28 1108.27 0
593.995 -673.958 3252.83 0
483.486 -647.283 3412.91 0
539.991 -530.181 3325.05 0
482.074 -541.748 3484.75 0
490.851 -531.566 3435.97 0
276.507 -193.001 1246.42 0
-567.486 -240.199 1780.33 0
-411.347 -184.052 2230.29 0
228.633 -105.769 1361.54 0
247.057 -87.8957 1297.76 0
-185.446 -124.931 2261.02 0
-545.442 -46.2512 1609.54 0
160.338 -22.7513 1298.53 0
167.001 -4.24913 1283.29 0
162.191 -1.26265 1294.55 0
199.259 37.5553 1346.48 0
304.046 87.1269 1026.81 0
318.973 110.5 1025.37 0
-184.298 73.6506 649.598 0
-203.472 80.7303 658.538 0
-203.526 80.7464 658.785 0
-130.603 79.3259 646.402 0
-125.033 80.3781 645.618 0
-119.601 81.2732 644.541 0
-114.802 82.134 643.397 0
-91.307 86.183 638.4 0
-199.726 111.021 660.38 0
-200.217 129.075 661.108 0
72.2565 118.66 607.631 0
47.966 121.94 617.411 0
-192.433 140.283 659.98 0
-181.943 147.611 658.561 0
173.517 134.614 592.795 0
170.641 136.469 590.751 0
170.641 136.469 590.751 0
182.44 137.171 592.93 0
44.8294 141.054 618.389 0
-182.71 152.99 657.371 0
-204.73 156.97 660.687 0
146.495 146.237 596.782 0
146.34 146.096 596.26 0
151.401 147.236 595.834 0
151.359 147.192 595.691 0
171.81 150.7 591.669 0
-194.942 176.751 664.416 0
-220.223 183.236 668.559 0
74.6923 169.069 611.968 0
-214.139 195.897 669.242 0
90.0516 190.019 612.263 0
53.8106 194.341 619.269 0
-112.596 -345.305 970.247 0
-234.037 -319.697 993.062 0
81.4123 -332.852 1069.96 0
-1303.43 -1216.39 4369.4 0
-938.526 -1215.17 4463.92 0
-656.936 -1085.77 4169.52 0
-602.482 -361.231 2173.2 0
-604.7 -235.799 1907.96 0
-33.2672 -249.129 2076.07 0
31.6007 -300.448 3037.37 0
-13.7604 -155.869 1602.56 0
-151.313 -156.42 1690.16 0
31.9422 -279.271 3014.68 0
21.2539 -255.413 2959.48 0
36.7532 -240.405 2915.03 0
-309.219 -49.6389 1722.77 0
-300.383 -29.412 1592.03 0
-318.254 -28.801 1546.64 0
-460.408 -23.0412 1451.08 0
838.128 -6.35934 2523.82 0
211.702 28.8864 1335.13 0
-203.015 62.8005 657.328 0
-143.967 68.3659 645.946 0
-147.144 71.7746 647.91 0
-123.889 71.9364 641.863 0
-138.886 73.5085 646.248 0
-138.886 73.4958 646.113 0
-127.887 75.4265 643.895 0
-127.945 75.3185 643.262 0
-182.54 77.9459 653.113 0
-116.079 77.9397 643.508 0
-180.867 81.8245 655.401 0
-91.0229 81.9705 637.547 0
-196.647 96.2696 654.849 0
-198.223 105.132 659.329 0
-204.493 127.342 658.827 0
-190.869 130.441 659.465 0
62.7801 121.118 614.834 0
164.393 130.065 596.775 0
-199.575 157.673 658.6 0
-199.575 157.673 658.6 0
87.8471 147.525 611.696 0
156.104 146.776 600.564 0
100.589 156.048 612.173 0
-207.919 175.209 660.406 0
107.902 175.897 608.593 0
71.825 187.065 613.467 0
108.561 194.154 609.351 0
211.98 193.077 595.12 0
201.581 199.665 595.183 0
210.021 202.753 595.488 0
-979.588 -1264.51 4439.53 0
285.207 -303.747 1210.64 0
521.704 -624.262 3425.87 0
-1078.33 -555.839 3395.62 0
463.378 -592.346 3657.25 0
1198.2 -392.661 3577.45 0
-9.60284 -216.283 2842.59 0
46.9021 -129.109 1725.4 0
-492.249 -41.8128 1619.16 0
-465.222 -41.7183 1614.74 0
-368.079 -40.1725 1658.34 0
-403.579 -26.9226 1497.38 0
-330.717 -26.6883 1543.17 0
-459.328 -12.1527 1440 0
184.965 10.4859 1304.63 0
-60.6149 70.3788 705.78 0
-150.867 67.2307 647.945 0
-150.932 67.1372 647.413 0
-195.093 91.4495 656.002 0
-185.393 102.839 655.902 0
-198.834 134.446 652.881 0
-205.48 153.099 663.782 0
-205.481 153.083 664.397 0
49.0455 141.826 617.452 0
94.7769 138.011 597.215 0
64.0338 143.968 617.53 0
-206.855 161.553 664.133 0
-201.904 173.406 664.789 0
118.392 163.773 606.85 0
-207.179 189.608 665.552 0
115.016 182.415 609.486 0
112.884 192.421 610.397 0
324.827 -371.471 1119.59 0
-312.683 -301.634 943.601 0
-139.763 -311.845 1046.2 0
-1268.68 -1285.14 4368.84 0
-861.575 -1184.05 4210.57 0
-13.8786 -301.673 1112.41 0
56.6358 -237.04 1108.45 0
-393.455 -336.194 2180.06 0
-588.407 -246.27 1906.31 0
150.602 -82.5938 1333.27 0
128.226 -15.3044 1293.32 0
-447.893 -15.4716 1455.55 0
206.446 80.2435 1356.74 0
-137.725 52.905 662.141 0
311.914 84.1709 1034.84 0
290.176 102.789 978.195 0
-157.624 69.5205 648.671 0
-157.673 69.5419 648.965 0
-80.1713 81.8269 635.728 0
-191.11 123.668 658.834 0
81.473 131.856 602.328 0
25.0459 137.254 622.306 0
106.073 137.297 604.978 0
185.871 147.145 595.47 0
124.421 156.7 606.835 0
103.513 167.91 610.205 0
-215.049 203.592 666.035 0
100.506 185.824 612.041 0
-449.909 -1258.47 4691.95 0
555.125 -554.922 3327.76 0
-407.101 -193.265 1993.15 0
1163.93 -273.176 3305.06 0
204.252 -96.767 1344.38 0
155.309 -12.1652 1306.36 0
-197.665 58.8336 653.331 0
-187.057 94.7491 655.054 0
-199.278 146.203 663.95 0
177.904 138.12 577.56 0
-221.945 191.7 669.227 0
-181.723 215.768 669.7 0
-570.599 -1264.09 4629.26 0
-390.447 -327.341 2140.27 0
-399.02 -173.273 1807.09 0
-201.209 72.9198 656.469 0
174.52 119.542 590.476 0
-200.729 224.686 670.042 0
-397.511 -97.9756 1778.02 0
-209.396 45.5479 655.359 0
-9.1895 -309.89 1064.75 0
116.882 -307.404 1138.72 0
189.116 -59.9681 1274.31 0
163 91.18 1281.73 0
221.381 98.7407 1283.68 0
114.19 160.696 612.995 0
