ply
format ascii 1.0
element vertex 94
property float x
property float y
property float z
property uchar intensity
end_header
-738.681 -323.788 2147.39 0
1006.05 -454.544 3754.05 0
738.053 -409.873 3428.77 0
-1758.15 -836.816 7069.13 0
1021.92 -626.155 3872.73 0
-1629.78 -705.691 4797.18 0
1041.5 -462.495 3749.24 0
-1776.22 -853.84 7093.69 0
0.908221 -448.746 3838.19 0
1046.11 -439.784 3755.28 0
-149.157 -113.939 1515.03 0
-174.644 -77.0644 1551.99 0
891.973 -524.477 3583.17 0
-482.388 -272.303 2146.01 0
622.274 -422.833 3384.03 0
781.895 -393.017 3423.78 0
-20.1524 -435.172 3829.6 0
906.996 -224.963 3598.22 0
878.104 -123.725 3622.92 0
-483.817 18.9009 1559.07 0
932.785 -1860.78 5190.1 0
699.688 -808.305 3919 0
534.44 -550.893 3437.38 0
707.573 -568.732 3742.37 0
748.682 -524.249 3615.46 0
527.871 -459.52 3405.56 0
-773.98 -393.221 3006.67 0
773.445 -441.902 3522.68 0
334.099 -214.896 3667.13 0
333.859 -214.708 3664.69 0
853.216 -116.178 3602.07 0
-93.5049 74.3107 1236.09 0
-171.421 189.796 554.274 0
-171.468 190.197 554.775 0
-244.052 -278.447 973.23 0
-370.813 -635.173 3695.75 0
-177.848 -181.165 1052.95 0
-185.931 -175.19 1062.8 0
569.708 -558.014 3475 0
581.482 -542.117 3472.58 0
930.505 -470.134 3734.18 0
833.059 -435.947 3589.67 0
-339.351 -124.137 1387.78 0
922.663 -231.323 3604.99 0
-682.038 -131.837 2155.19 0
-5.60703 1.06027 1258.97 0
-452.358 63.7924 1534.43 0
-223.962 142.229 1589.68 0
-186.652 181.962 559.431 0
-312.181 -312.304 915.346 0
-126.723 -269.006 1031.54 0
527.915 -649.098 3563.29 0
730.795 -476.584 3602.19 0
1020.43 -368.142 3650.99 0
-418.955 -99.9953 1628.17 0
843.906 -153.403 3310.71 0
819.385 -114.23 3604.32 0
-80.1575 -22.0036 1286.78 0
1026.01 -45.3541 3650.33 0
-42.7567 6.37277 1232.04 0
-444.149 46.1876 1455.59 0
-314.778 132.871 1532.11 0
-181.304 163.319 559.439 0
-165.894 173.14 549.9 0
-164.49 177.804 551.929 0
115.637 -277.408 1097.84 0
62.5738 -211.713 1183.37 0
674.312 -541.4 3653.74 0
-311.776 -97.766 2412.02 0
-424.873 -51.5693 2175.32 0
-86.4161 -31.3788 1305.92 0
-104.197 -3.67973 1288.12 0
-443.117 53.3186 1486.75 0
-436.705 51.4046 1467.14 0
-78.7998 91.7422 1257.88 0
-86.3323 119.426 1299.96 0
-182.498 183.187 558.729 0
-196.988 166.939 1532.81 0
-288.245 -91.163 1694.16 0
-93.9604 -20.2927 1274.75 0
-93.4107 -21.2632 1278.64 0
790.048 -8.7771 3325.63 0
-115.701 -1.82107 1262.31 0
-74.2862 109.737 1284.6 0
-178.746 166.92 1539.24 0
816.472 -72.8593 3501.69 0
56.7098 170.537 993.764 0
672.424 -512.402 3518.55 0
873.386 -265.104 3595.43 0
-96.4301 34.6048 1240.3 0
-438.869 60.7436 1493.65 0
-91.4569 -12.8327 1272.84 0
-426.019 45.3559 1614.27 0
-163.741 181.83 565.792 0
