ply
format ascii 1.0
element vertex 310
property float x
property float y
property float z
property uchar intensity
end_header
-128.157 -780.942 4020.73 0
1200.44 -728.11 3772.07 0
-131.372 -730.12 4006.46 0
1149.82 -679.582 3759.45 0
-126.044 -706.536 3984.8 0
391.022 -485.362 3339.51 0
-599.088 -222.24 2080.61 0
-508.237 -92.0652 1638.59 0
-408.709 -84.5453 1679.8 0
-473.467 -83.398 2234.56 0
-393.254 -739.236 3793 0
-117.269 -750.251 4004.71 0
1242.46 -720.514 3772.79 0
451.661 -600.386 3256.46 0
435.988 -514.047 3274.57 0
426.677 -523.805 3361.57 0
461.483 -524.166 3407.18 0
370.127 -413.205 3453.97 0
-677.001 -244.819 2293.36 0
-637.32 -220.335 2072.69 0
-654.505 -185.818 1953.23 0
-659.97 -183.778 2106.19 0
1119.87 -286.734 3446.97 0
-446.305 -102.657 1730.9 0
-502.581 -98.0563 1671.54 0
-484.24 -97.5926 1670.92 0
-438.931 -74.3762 2221.68 0
-475.182 -69.652 2224.78 0
-378.601 64.387 1639.69 0
82.3479 151.846 1595.15 0
75.1752 158.764 1601.84 0
-80.6336 146.071 641.438 0
-39.4385 153.031 636.746 0
16.6895 159.676 629.731 0
25.5945 160.725 627.826 0
46.8351 163.58 624.745 0
87.9376 165.101 617.598 0
-238.786 -240.312 984 0
-148.75 -244.869 1026.68 0
-385.61 -731.684 3798.97 0
-119.424 -762.578 4000.77 0
491.536 -600.076 3310.26 0
526.428 -498.601 3370.83 0
-489.295 -580.758 4454.84 0
1153.19 -471.049 3628.81 0
495.456 -435.581 3467.3 0
1106.95 -434.635 3520.01 0
-542.902 -436.509 3730.75 0
1123.81 -390.877 3605.24 0
-651.055 -215.542 2076.61 0
-644.549 -212.73 2075.35 0
425.486 -320.946 3362 0
85.5509 -135.527 1617.37 0
-442.999 -104.978 1740.16 0
-443.537 -105.545 1743.84 0
64.4348 -86.4408 1607.96 0
-47.5584 -94.408 1834.19 0
217.135 -45.6088 1376.56 0
244.443 -21.2374 1306.45 0
135.095 41.1086 1350.02 0
-289.55 60.5275 1946.33 0
-377.494 52.6705 1670.35 0
-159.044 145.847 646.212 0
-17.6291 155.513 633.298 0
3.91187 157.886 628.346 0
32.3939 161.716 627.147 0
196.93 184.229 610.131 0
177.491 189.875 611.952 0
176.986 189.214 610.005 0
202.603 191.341 607.208 0
-181.066 220.211 659.13 0
129.784 211.782 615.007 0
111.525 210.214 611.021 0
-294.225 -255.362 893.317 0
-48.475 -246.935 1026.8 0
-48.475 -246.935 1026.8 0
83.2021 -260.327 1096.99 0
-138.893 -774.406 4031.1 0
-141.531 -756.146 4060.37 0
-445.19 -684.959 3695.21 0
1176.11 -661.312 3610.98 0
1227.73 -642.397 3671.07 0
34.565 -173.283 1106.52 0
477.028 -489.194 3282.82 0
-478.248 -599.99 4370.25 0
419 -458.91 3356.67 0
1154.29 -489.455 3630.96 0
416.983 -432.773 3359.82 0
254.935 -158.195 1229.68 0
-1145.63 -400.839 3421.03 0
-545.57 -413.505 3658.91 0
-554.997 -338.516 3066.74 0
-487.08 -398.94 3617.45 0
-260.183 -234.513 2176 0
-270.521 -245.336 2333.62 0
1129.32 -376.383 3652.75 0
-256.893 -219.578 2164.54 0
1105.75 -364.034 3632.67 0
-237.777 -200.2 2061.13 0
1062.76 -270.037 3429.44 0
33.5402 -112.493 1656.17 0
-609.678 -115.842 1775.82 0
-215.02 -77.6756 1783.49 0
-171.064 -71.593 1689.92 0
49.4782 -109.387 2884.03 0
-439.34 -63.0033 2218.36 0
-429.612 -31.0346 1804.57 0
193.297 -18.7221 1315.8 0
235.931 -14.6174 1299.62 0
-10.5552 -24.1676 2749.38 0
-245.355 57.3458 1646.42 0
-373.077 58.2198 1654.49 0
-293.123 65.8518 1659.59 0
159.877 61.6105 1305.5 0
-399.079 73.8723 1500.17 0
-430.594 76.8362 1508.54 0
172.789 79.4245 1342.14 0
-56.7757 97.4368 1392.2 0
-231.217 137.738 1173.07 0
-58.676 163.002 816.715 0
-34.9093 135.452 673.978 0
-25.839 154.642 633.747 0
-25.5306 154.439 632.488 0
214.048 164.338 602.357 0
68.4823 183.986 624.906 0
79.7619 183.389 623.003 0
78.2516 185.216 622.642 0
140.316 184.77 615.029 0
187.171 184.191 604.433 0
-166.902 203.651 655.408 0
139.15 199.005 617.936 0
-156.298 215.828 656.636 0
165.603 207.425 613.579 0
-133.233 -269.913 1020.45 0
162.125 -288.901 1096.28 0
169.032 -288.346 1101.06 0
-48.8384 -255.25 1025.72 0
-241.205 -237.519 990.939 0
-151.109 -241.829 1032.27 0
467.473 -606.624 3288.59 0
-111.849 -670.501 3967.61 0
39.4541 -176.533 1097.28 0
27.8093 -166.306 1116.7 0
26.0094 -159.958 1136.39 0
387.007 -448.933 3501.17 0
483.615 -322.434 3655.46 0
1289 -325.525 3678.93 0
-82.9651 -163.067 2080.72 0
-62.2579 -204.122 3044.47 0
-471.638 -102.522 1697.58 0
-419.562 -97.0073 1740.33 0
-392.563 -93.5484 1754.52 0
-438.12 -82.2222 2198.39 0
161.362 -40.6498 1331.64 0
-477.848 -63.0247 2163.78 0
-457.371 -62.7587 2199.68 0
184.067 -6.76357 1273.87 0
174.048 26.2462 1275.4 0
-315.203 55.4804 1675.54 0
-305.557 62.0313 1623.77 0
-382.773 66.9403 1512.89 0
164.978 58.1855 1294.49 0
-404.249 92.184 1428.5 0
-447.53 95.4624 1411.04 0
196.92 98.9505 1358.52 0
54.4231 136.827 1652.62 0
-37.6363 144.998 1596.87 0
334.297 160.121 1042.05 0
-153.798 147.232 645.265 0
-99.7746 149.719 644.335 0
-172.886 155.546 653.28 0
-172.949 155.569 653.523 0
-83.7227 151.557 641.984 0
-150.142 155.275 651.114 0
-47.6666 155.287 634.426 0
15.0802 156.82 629.813 0
-167.444 185.591 654.918 0
106.517 176.59 613.934 0
123.845 178.833 611.642 0
128.709 179.821 611.975 0
218.125 188.429 603.807 0
206.408 188.385 601.127 0
206.408 188.385 601.127 0
-158.089 203.935 652.126 0
80.0221 200.699 623.222 0
-158.431 214.369 654.485 0
182.645 199.631 605.987 0
182.505 199.491 605.46 0
187.637 200.328 605.241 0
187.598 200.284 605.097 0
208.374 202.535 601.924 0
-147.476 221.051 653.434 0
-122.795 -275.099 968.495 0
-120.62 -270.494 973.725 0
69.3582 -267.929 1081.61 0
-12.6849 -234.28 1094.73 0
1250.06 -656.979 3640.94 0
-161.646 -520.523 3327.4 0
16.26 -162.304 1124.67 0
-689.512 -654.757 4754.61 0
1148.09 -268.594 3565.88 0
-59.6185 -129.517 1929.97 0
-622.245 -127.202 1985.67 0
-59.7036 -183.332 3021.57 0
-48.3697 -146.263 2921.76 0
-11.7316 -124.867 2890.06 0
-178.793 -69.2427 1688.96 0
239.281 -29.7683 1313.42 0
174.31 37.5769 1287.4 0
-469.028 78.4489 1435.11 0
-199.433 81.6425 1168.47 0
180.955 99.4368 1359.37 0
102.337 154.876 1601.85 0
317.972 137.682 1043.13 0
-173.434 137.605 652.305 0
-116.781 143.168 645.214 0
-93.3202 141.886 640.18 0
-108.372 144.393 643.891 0
-108.367 144.378 643.756 0
-85.2471 147.446 642.091 0
-59.7663 149.922 637.174 0
-18.741 130.235 540.644 0
-165.006 170.606 649.704 0
-154.454 175.96 649.247 0
-166.247 179.61 654.004 0
-156.319 186.176 652.24 0
96.9029 179.701 620.689 0
82.0666 181.422 622.611 0
199.543 182.445 606.951 0
136.782 212.324 619.252 0
-276.499 -266.986 894.345 0
-316.471 -215.621 937.899 0
268.333 -248.719 1230.64 0
1261.93 -708.708 3763.87 0
29.4846 -182.752 1066.4 0
48.649 -170.287 1117.83 0
1072.81 -356.357 3635.74 0
146.111 -37.7149 1323.79 0
141.88 -18.336 1344.65 0
-359.611 58.1282 1642.25 0
-386.785 58.973 1646.37 0
-187.855 57.974 1541.91 0
-509.054 64.0077 1601.87 0
-331.662 65.7972 1536.82 0
-343.82 68.5824 1532.78 0
182.853 72.156 1316.41 0
-437.44 86.6241 1441.83 0
209.303 89.407 1347.83 0
-201.889 100.182 1160.91 0
-120.763 138.85 645.142 0
-120.811 138.753 644.608 0
-97.2257 145.518 641.361 0
-151.941 151.468 648.802 0
-129.632 154.691 650.676 0
-129.635 154.175 648.701 0
-163.789 165.721 650.981 0
120.344 181.131 613.407 0
-188.443 199.775 652.348 0
116.712 189.148 608.878 0
-164.856 208.813 647.185 0
-148.983 -234.407 1048.02 0
432.522 -484.45 3360.34 0
-431.821 -69.9238 1795.23 0
-481.904 62.4619 1598.62 0
-390.452 70.7945 1497.8 0
-414.551 71.9327 1483.88 0
-407.288 82.5869 1511.65 0
-59.6346 93.853 1080.53 0
243.747 132.344 1074.09 0
-93.5766 128.472 660.817 0
-131.4 125.238 635.111 0
-168.161 133.275 648.592 0
-127.398 141.54 645.546 0
-127.459 141.569 645.837 0
-48.8744 149.12 635.83 0
57.0404 165.228 623.473 0
154.9 182.272 600.523 0
141.454 193.183 612.527 0
59.9003 198.116 626.323 0
23.9067 -269.019 1064.11 0
-419.02 -71.9067 2087.04 0
115.913 -4.80297 1314.41 0
-441.62 74.2895 1462.51 0
-456.291 85.34 1440.03 0
126.221 170.568 1600.57 0
176.459 147.347 1337.1 0
325.303 134.389 1051.52 0
-312.347 187.85 1352.67 0
-109.105 123.99 660.065 0
-144.347 133.169 641.088 0
-155.54 168.532 650.343 0
209.293 171.258 601.223 0
119.297 174.567 610.313 0
-158.041 197.69 653.597 0
-165.078 220.735 658.083 0
16.1853 -171.847 1064.36 0
194.08 -35.4507 1358.25 0
-424.643 4.72773 1765.35 0
158.014 72.7906 1335.71 0
-171 147.588 651.405 0
103.303 -243.598 1151.53 0
155.309 19.4681 1297.7 0
-160.874 75.506 1679.13 0
-152.721 121.585 1106.71 0
-161.342 183.137 655.071 0
128.168 -242.537 1355.77 0
-228.88 -68.0607 1722.87 0
-196.514 133.261 638.621 0
-176.256 131.834 630.283 0
102.673 196.43 629.061 0
