ply
format ascii 1.0
element vertex 109
property float x
property float y
property float z
property uchar intensity
end_header
-175.457 351.217 1661.04 0
523.636 -1425.17 4720.32 0
326.799 64.214 3689 0
-373.976 279.789 1123.17 0
418.037 -1107.32 4853.02 0
-708.706 12.7002 2110.35 0
1234.69 31.3904 3554.82 0
296.29 105.45 3691.98 0
-489.992 242.655 1602.75 0
-407.683 250.972 1647.55 0
-212.647 373.418 1519.81 0
-436.521 325.164 1298.65 0
-115.446 380.247 1411.92 0
428.757 -1097 4774.07 0
997.948 -113.761 3651.35 0
1151.38 -94.9156 3564.77 0
988.008 -47.799 3408.89 0
1199.01 -26.4161 3707.18 0
255.793 29.1121 3853.24 0
-62.4006 10.0581 1078.79 0
-69.8572 17.0707 1088.45 0
-562.322 33.6924 1895.2 0
315.262 67.0783 3729.75 0
1180.85 216.143 3551.4 0
1137.61 286.9 3520.25 0
1116.32 313.691 3545.32 0
-149.894 182.787 1676.9 0
-530.53 231.506 1592.19 0
-482.472 239.473 1616.73 0
-433.434 246.932 1639.77 0
74.9174 207.731 1231.22 0
-306.775 304.535 1548.63 0
145.503 -1248.5 4822.61 0
1277.83 -1266.71 5291.18 0
-120.922 -105.704 1019.24 0
-244.512 -84.1793 1040.53 0
1010.23 -89.7975 3605.08 0
1093.5 -5.48043 3565.85 0
-420.461 17.1581 2159.16 0
1284.55 65.801 3609.26 0
-303.488 50.2551 2149.67 0
-499.647 90.6729 1723.84 0
1185.1 198.575 3555.63 0
1169.11 204.423 3549.18 0
1142.33 307.939 3565.35 0
-418.211 250.182 1583.12 0
106.97 206.822 1290.17 0
106.97 206.822 1290.17 0
-295.159 285.389 1482.11 0
34.0798 281.317 1230.55 0
-148.035 356.383 1380.12 0
-133.418 -1221.43 4702.47 0
943.439 -1225.1 4854 0
1018.29 -1116.98 5033.78 0
993.054 -1046.96 4989.22 0
-203.796 -126.88 967.342 0
-236.519 -96.417 1023.73 0
-13.1577 -80.0702 1063.28 0
1197.19 148.286 3689.6 0
-136.76 181.189 1683.69 0
-424.743 248.702 1635.77 0
122.711 209.636 1255.48 0
116.371 222.192 1240.2 0
-303.299 279.148 1471.58 0
98.8603 288.087 1242.31 0
61.0312 334.421 1287.43 0
-906.194 -1418.92 4320.3 0
-791.63 -1372.62 4430.27 0
959.445 -1300.22 4832.77 0
913.681 -1245.06 4629.81 0
522.188 -1180.53 4575.65 0
-458.858 -1174.44 4572.07 0
975.158 -1184.81 4857.04 0
1011.42 -1180.96 4849.87 0
1012.68 -1134.31 4956.21 0
960.813 -1108.43 4871.47 0
1120.02 -1078.71 5202.95 0
938.119 -102.205 3649.08 0
185.042 -10.3513 1197.54 0
1082.69 316.254 3549.31 0
-496.905 236.869 1610.48 0
84.084 212.71 1230.34 0
177.711 242.848 1167.34 0
50.1411 300.635 1249.63 0
-169.143 371.404 1531.56 0
-126.446 381.729 1374.49 0
1012.31 -1472.14 4953.38 0
1035.54 -1359.45 4945.83 0
-528.019 -1197.03 4589.7 0
922.481 -640.712 3870.04 0
1139.62 405.586 3465.47 0
36.0716 190.408 1282.28 0
-2.97838 214.217 1260.49 0
180.3 261.096 1163.94 0
45.2524 332.419 1289.12 0
-32.7186 404.365 1527.44 0
9.79321 430.621 1464.68 0
-431.933 247.773 1470.92 0
-200.928 253.015 1026.9 0
56.3199 321.121 1274.13 0
-134.563 164.133 1713.22 0
1037.76 394.067 3263.7 0
-295.713 297.321 1507.65 0
928.509 -86.6516 3512.02 0
1074.03 347.34 3443.43 0
31.1605 242.256 1238.83 0
-57.4075 -98.8716 1053.89 0
-520.803 192.566 1736.95 0
37.735 198.202 1275.57 0
