ply
format ascii 1.0
element vertex 312
property float x
property float y
property float z
property uchar intensity
end_header
-1095.93 -1297.91 4556.15 0
-330.575 -849.881 3746.79 0
-588.818 -389.264 2037.24 0
508.744 -588.64 3256.76 0
-456.337 -227.564 2211.71 0
-158.438 -168.129 1655.09 0
-97.2356 48.2737 624.343 0
-100.725 49.81 623.367 0
-130.578 -1070.51 4329.38 0
-190.071 -958.157 4304.8 0
102.952 -819.477 3696.89 0
-6.59672 -813.462 3926.05 0
46.1172 -752.53 3812.64 0
-7.66746 -714.532 3848.46 0
546.302 -581.902 3311.8 0
1286.83 -602.047 3791.75 0
478.768 -505.968 3273.93 0
460.545 -480.633 3376.81 0
-410.082 -245.131 2187.33 0
-436.056 -244.655 2168.51 0
-412.341 -227.089 2177.24 0
-409.17 -219.69 2162.34 0
-421.465 -213.205 2191.69 0
450.656 -330.893 3403.19 0
-272.399 -190.608 2034.19 0
-177.997 -149.419 1665.8 0
1073.15 -188.648 3445.85 0
-99.1965 53.056 626.233 0
21.9463 86.1169 615.284 0
-168.697 186.127 643.794 0
-166.142 184.884 637.473 0
-157.62 -344.457 961.814 0
-69.4423 -334.421 1007.35 0
-319.427 -862.194 3767 0
-313.297 -853.507 3773.16 0
29.3472 -847.356 3830.77 0
19.3864 -837.651 3829.68 0
-597.261 -382.926 2039.63 0
-575.217 -327.988 1846.63 0
-593.3 -316.276 1790.3 0
-568.91 -281.634 1740.87 0
-360.093 -405.133 2548.55 0
-462.804 -246.771 1639.94 0
-490.359 -246.347 1652.07 0
-444.767 -243.352 1639.9 0
-405.115 -243.991 1710.44 0
443.826 -391.045 3324.91 0
122.099 -179.863 1556.57 0
-282.359 -184.338 1693.91 0
-265.153 -175.608 1657.6 0
116.423 -158.903 1560.75 0
1156.36 -359.039 3645.99 0
434.44 -317.111 3360.01 0
-100.549 -247.308 3088.88 0
-107.803 -212.034 2855.81 0
273.331 -50.2684 1298.28 0
-265.996 -59.566 1526.11 0
-185.779 -37.579 1116.53 0
-233.364 -51.8654 1622.19 0
154.015 -6.40598 1338.06 0
-53.0178 62.445 622.488 0
-29.8303 70.8067 620.341 0
-45.1375 105.689 946.894 0
-0.662817 64.3948 546.377 0
80.9043 96.1795 604.646 0
-149.538 108.997 631.129 0
-139.397 119.065 634.934 0
-153.908 146.016 638.465 0
106.172 145.81 606.863 0
112.529 150.495 604.806 0
164.79 169.29 598.549 0
164.802 169.564 599.887 0
-1021.17 -1409.94 4494.85 0
-1022.91 -1378.86 4448.9 0
-1050.38 -1347.37 4422.8 0
-1060.54 -1359.63 4461.95 0
-1086.86 -1211.7 4201.35 0
-326.996 -841.11 3771.46 0
34.8176 -810.564 3743.28 0
-245.998 -787.786 3649.5 0
-200.592 -734.923 3514.8 0
-126.653 -757.741 3720.02 0
96.7018 -214.904 1144.5 0
-571.081 -301.548 1743.55 0
480.097 -508.97 3390.27 0
91.3141 -185.361 1616.98 0
-140.666 -167.121 1668.66 0
109.314 -152.228 1576.72 0
1171.9 -365.751 3652.73 0
-440.825 -204.714 2169.07 0
61.6216 -158.822 1724.16 0
102.177 -127.784 1555.18 0
1276.77 -182.226 3704.12 0
10.974 -132.342 2843.25 0
223.376 -58.0644 1277.62 0
-302.892 -64.9906 1649.1 0
-232.741 -62.7643 1541.04 0
-267.61 -50.1515 1502.13 0
7.86431 81.939 616.299 0
-141.197 117.281 632.724 0
97.9847 126.738 608.532 0
195.132 146.63 599.005 0
-152.554 158.041 637.776 0
-155.014 169.686 634.678 0
178.548 164.038 602.063 0
-169.24 182.644 635.357 0
102.095 184.712 605.875 0
102.518 185.158 607.915 0
-186.407 198.537 643.207 0
159.424 186.694 600.327 0
-160.679 -342.093 968.659 0
-42.0851 -339.602 1017.68 0
-72.439 -331.802 1012.84 0
-981.94 -1365.6 4431.6 0
-1387.11 -1320.01 4268.18 0
-887.518 -1377.16 4485.92 0
-848.753 -1378.97 4505.87 0
242.072 -327.681 1086.96 0
-1057.97 -1327.72 4434.37 0
-619.128 -1139.39 4307.37 0
203.702 -287.204 1169.78 0
97.2608 -234.182 1092.58 0
-172.063 -721.045 3411.16 0
89.1449 -228.389 1102.51 0
85.7142 -222.418 1122.1 0
524.318 -592.248 3289.41 0
539.516 -560.497 3277.96 0
-606.786 -290.342 1851.71 0
308.246 -183.722 1222.57 0
-383.289 -232.339 1711.31 0
1267.74 -504.832 3695.92 0
519.413 -449.938 3358.61 0
-445.98 -250.987 2184.76 0
-458.229 -218.815 2154.94 0
-444.954 -216.509 2186.85 0
-459.829 -208.278 2132.53 0
482.616 -309.235 3655.17 0
28.5901 -184.592 2858.01 0
248.083 -78.7404 1367.62 0
-493.858 -76.3496 1487.99 0
177.587 -81.148 1606.13 0
1055.83 -170.731 3397.79 0
212.485 -45.73 1263.74 0
-252.806 -47.6626 1562.22 0
188.134 -23.5972 1273.06 0
202.97 -23.1014 1288.08 0
157.614 -13.5107 1290.6 0
219.19 39.971 1342.21 0
-84.6744 50.6664 623.466 0
-125.495 51.7745 623.993 0
-124.461 56.2544 627.565 0
-72.5796 62.9539 624.76 0
-67.1035 64.5713 624.381 0
-56.9679 67.3605 622.909 0
-49.7511 69.5019 622.614 0
328.641 118.478 1036.62 0
-39.2619 72.9521 623.013 0
-147.851 105.336 633.433 0
-131.437 125.645 631.987 0
-133.034 131.889 634.597 0
-155.159 132.61 632.251 0
159.518 136.321 602.889 0
122.403 138.579 602.41 0
-173.823 157.188 638.537 0
-166.459 166.915 637.356 0
199.161 157.825 595.115 0
199.063 157.664 594.585 0
203.997 159.319 594.524 0
203.97 159.27 594.379 0
-169.113 170.341 639.265 0
-169.14 170.415 639.485 0
-171.843 174.204 635.42 0
164.284 174.718 601.473 0
120.442 192.254 610.299 0
-1061.57 -1395.41 4485.16 0
147.655 -321.963 1069.26 0
-965.837 -1579.35 5267.31 0
96.4371 -882.647 3657.46 0
92.1143 -215.426 1120.02 0
-632.702 -887.557 4658.87 0
-626.242 -831.974 4535.4 0
-407.753 -366.344 2140.42 0
-215.165 -333.223 2153.75 0
-148.639 -166.049 1667.45 0
44.7196 -168.98 2869.33 0
286.949 -67.3743 1274.27 0
-458.149 -68.6264 1427.44 0
269.393 -59.522 1305.13 0
-373.126 -73.0993 1617.66 0
-346.055 -69.5441 1614.4 0
-352.245 -59.3241 1487.64 0
-328.66 -56.6607 1505.44 0
-288.698 -53.585 1507.31 0
-170.564 -14.9612 1498.7 0
182.513 15.2808 1283.42 0
-102.504 25.0145 629.328 0
-136.473 42.1401 629.942 0
-16.4922 52.0332 633.784 0
-145.921 56.8965 631.358 0
-93.7769 55.8712 624.031 0
-93.765 55.6344 623.859 0
-80.1856 56.3095 624.071 0
-80.1738 56.2959 623.936 0
-64.8157 56.2662 620.851 0
-123.374 60.3019 629.914 0
-69.2921 59.2204 621.89 0
-57.8114 63.0575 622.988 0
-61.7262 66.0159 623.702 0
-32.9201 69.6166 618.868 0
-46.8044 69.979 620.85 0
-33.6996 73.7832 619.634 0
-143.28 81.7161 632.171 0
-145.456 87.4253 633.017 0
-138.595 107.65 632.477 0
81.0126 109.09 606.686 0
102.361 123.61 608.64 0
-149.96 133.828 630.547 0
-149.96 133.828 630.547 0
116.518 133.843 602.324 0
97.2133 142.304 609.09 0
-160.173 150.418 631.456 0
-156.052 151.701 630.977 0
139.724 153.144 605.554 0
-187.002 163.479 613.63 0
156.939 183.415 603.54 0
115.577 198.476 599.842 0
155.661 201.648 604.069 0
97.1847 203.867 609.384 0
-1077.05 -1351.46 4411.23 0
-873.599 -1367.48 4516.66 0
-744.07 -1124.64 4115.55 0
336.042 -270.894 1224.41 0
110.307 -228.953 1104.31 0
-656.084 -826.809 4718.32 0
-617.349 -329.165 2050.22 0
-616.734 -309.047 1992.65 0
-423.611 -176.107 1871.01 0
-493.115 -87.8696 1569.28 0
-465.982 -85.0101 1566.91 0
-424.629 -66.7157 1442.15 0
-397.401 -64.7697 1454.31 0
-373.892 -62.0032 1468.98 0
-421.002 -53.9612 1411.49 0
197.187 31.9514 1305.82 0
54.3744 57.0572 1626.56 0
189.535 58.5612 1348.57 0
205.388 60.6596 1348.22 0
-99.5266 33.6886 614.663 0
-91.5531 48.8378 624.957 0
-91.5676 48.7341 624.423 0
-103.035 63.0377 630.129 0
-102.892 62.5289 628.157 0
-138.517 68.4068 629.297 0
-130.059 80.7376 629.754 0
-133.933 94.1054 629.828 0
-171.076 109.033 630.92 0
81.9891 119.439 610.578 0
-155.742 128.705 635.34 0
-155.788 128.694 635.952 0
-158 136.973 635.458 0
114.472 129.548 603.499 0
-154.357 149.279 636.305 0
116.026 147.183 609.634 0
-163.716 170.437 636.693 0
168.72 172.431 602.774 0
163.257 190.641 604.867 0
-611.967 -412.933 2118.24 0
-589.426 -299.082 1851.45 0
-62.0774 -94.3833 1187.5 0
219.485 53.2427 1337.97 0
207.129 95.2218 1358.11 0
-98.545 50.4211 625.138 0
73.7982 114.28 615.753 0
-149.675 139.243 636.037 0
77.6834 136.505 611.565 0
175.427 166.019 603.32 0
-170.588 177.951 636.102 0
389.243 -334.816 1137.63 0
174.969 -292.48 1140.09 0
-421.683 -226.962 1950.86 0
201.628 49.163 1333.06 0
-78.1334 36.0533 640.317 0
336.134 116.411 1045.26 0
-130.814 72.5134 628.907 0
-22.0042 70.5838 617.873 0
-138.091 100.884 631.933 0
-148.896 122.489 636.078 0
-139.066 193.538 642.079 0
-1134.49 -1310.04 4384.4 0
-201.502 -1084.12 4419.99 0
-304.115 -310.751 2017.47 0
191.051 -58.3644 1291.48 0
169.968 6.36549 1305.66 0
-142.717 49.3474 629.584 0
-176.45 165.433 638.945 0
614.951 -389.473 3427.76 0
130.735 -165.581 1532.16 0
-380.51 -214.903 2194.6 0
-109.569 -103.889 1349.25 0
35.8147 -133.013 2843.37 0
179.122 -24.4903 1286.51 0
171.966 28.5636 1324.32 0
-147.942 21.2676 628.276 0
-144.681 32.9545 608.386 0
-100.33 40.9232 622.79 0
-139.046 85.9894 633.375 0
-152.476 134.952 636.308 0
-158.857 200.443 640.854 0
55.8385 -308.541 1056.9 0
-559.836 -427.506 2113.36 0
210.852 -37.9137 1276.97 0
164.4 168.98 608.632 0
