ply
format ascii 1.0
element vertex 313
property float x
property float y
property float z
property uchar intensity
end_header
592.785 -832.156 4065.18 0
587.687 -757.394 4030.31 0
-190.888 -300.459 2429.45 0
-9.508 -150.053 1839.59 0
127.098 120.511 729.102 0
129.459 123.503 731.664 0
144.888 123.778 727.577 0
82.2535 262.512 752.515 0
650.181 -807.059 3888.49 0
650.264 -806.459 3887.03 0
286.853 -784.153 3855.46 0
598.247 -813.303 4044.53 0
600.456 -800.942 4048.33 0
637.236 -790.902 3980.4 0
585.998 -781.355 4052.14 0
611.484 -740.474 3963.69 0
636.245 -691.608 3903.27 0
-768.191 -455.091 3454.12 0
271.877 -496.422 3933.27 0
-208.057 -265.106 2258.95 0
1160 -389.448 3435.37 0
-192.664 -132.272 1820.31 0
-2.79931 -130.956 2355.79 0
36.5064 -128.399 2299.47 0
44.1245 -125.887 2335.51 0
29.9588 -120.811 2330.35 0
-573.513 -63.6585 2005.68 0
384.989 -3.77613 2000.8 0
-241.419 23.0277 1733.28 0
169.524 28.017 1695.49 0
163.565 83.9213 1061.56 0
198.672 132.511 714.639 0
250.486 141.16 702.622 0
-63.7378 248.775 1141.54 0
-80.2322 252.283 1128.03 0
-78.6778 256.407 1130.46 0
84.9461 189.707 749.192 0
-150.334 281.212 993.085 0
244.453 -270.817 1117.55 0
299.443 -798.027 3873.71 0
596.851 -812.696 3980.81 0
583.243 -826.111 4076.92 0
493.838 -717.907 3795.8 0
-616.344 -500.409 3627.22 0
-29.6376 -500.044 3787.32 0
197.796 -508.023 3848.42 0
132.583 -500.386 3835.23 0
294.449 -150.789 1145.18 0
23.9797 -488.455 3770.46 0
-523.358 -450.947 3506.3 0
457.448 -191.763 1627.47 0
-563.615 -259.641 2461.91 0
-68.7476 -208.089 2018.73 0
-0.910007 -148.979 2328.55 0
227.344 -103.379 1768.87 0
68.6379 16.6922 1778.39 0
138.09 21.9722 2040.1 0
18.0498 19.3171 1761.29 0
-271.545 26.5112 1677.88 0
483.386 23.5188 1394.3 0
-253.379 32.1733 1705.92 0
70.5611 134.144 1378.52 0
22.6597 169.774 1491.93 0
-14.2251 170.774 1433.58 0
-256.24 197.887 1225.35 0
135.875 121.565 726.734 0
225.483 131.316 702.495 0
98.8685 147.33 738.142 0
93.5979 187.993 740.016 0
97.4332 192.388 744.323 0
99.7713 193.903 746.205 0
75.3878 197.359 751.897 0
92.236 234.178 750.834 0
78.6018 260.705 750.937 0
184.528 -299.025 1042.06 0
270.149 -268.022 1093.18 0
270.149 -268.022 1093.18 0
499.771 -916.45 4384.61 0
307.52 -790.257 3878.76 0
623.084 -793.097 3923.13 0
583.734 -808.229 4106.54 0
391.595 -683.334 3604.87 0
340.6 -188.908 1184.4 0
354.958 -179.407 1193.57 0
347.422 -174.814 1225.9 0
-488.706 -504.27 3713.27 0
-505.683 -483.82 3605.41 0
-15.1432 -486.128 3739 0
464.492 -213.187 1618.57 0
40.9793 -471.864 3699.79 0
238.114 -469.972 3737.41 0
172.108 -459.767 3716.27 0
211.908 -459.33 3722.04 0
255.599 -465.951 3789.09 0
145.356 -444.17 3647.24 0
-205.82 -268.327 2222.67 0
1238.92 -396.67 3669.25 0
-43.498 -130.92 1793.84 0
62.2274 -141.836 2326.81 0
-580.493 -124.76 2031.51 0
-20.1903 -110.762 2278.28 0
8.46303 -109.67 2311.06 0
-307.409 22.2076 1699.27 0
-297.45 19.3731 1695.19 0
143.342 21.9844 1722.59 0
154.3 32.0111 1710.79 0
-353.555 33.6639 1594.16 0
-397.945 36.6257 1555.36 0
-115.238 39.7265 1568.89 0
-156.198 40.5227 1526.01 0
419.896 60.7398 1850.12 0
-70.6238 55.5794 1541.58 0
73.1496 162.788 1514.81 0
-211.56 163.034 1406.92 0
-337.164 169.684 1297.22 0
-244.481 176.296 1350.21 0
112.842 118.518 747.561 0
-377.642 198.676 1233.98 0
103.189 125.551 733.663 0
190.132 135.785 718.768 0
-79.5346 248.232 1129.42 0
107.923 199.474 741.977 0
107.558 205.834 744.764 0
-147.699 291.907 985.789 0
77.8042 248.433 754.862 0
77.8212 248.507 755.082 0
87.1505 253.11 751.241 0
87.1505 253.11 751.241 0
192.675 -293.701 1049.42 0
74.2058 -265.297 1082.32 0
247.582 -244.131 1094.95 0
-852.658 -720.273 3371.48 0
300.515 -255.477 1204.38 0
610.583 -816.957 3968.08 0
295.39 -776.222 3879.17 0
615.437 -801.539 4019.6 0
340.415 -699.613 3691.63 0
556.942 -546.673 3246.79 0
363.86 -195.12 1152.84 0
360.082 -192.135 1162.67 0
125.275 -739.718 4681.03 0
287.452 -480.237 3834.39 0
-1352.25 -581.703 4739.83 0
427.252 -136.493 1708.75 0
-266.075 11.8328 1705.08 0
-137.951 20.7685 1738.78 0
-345.669 21.6646 1649.74 0
80.9116 25.8663 1722.27 0
106.203 25.2529 1737.3 0
-275.911 29.2183 1595.39 0
-98.6684 56.8889 1529.93 0
127.174 53.5236 1257.46 0
-352.174 74.1807 1446.15 0
-222.871 125.689 1494.11 0
-196.787 150.714 1380.41 0
-344.055 138.734 1242 0
-178.318 176.044 1344.11 0
-211.888 185.008 1260 0
-143.34 191.769 1300.7 0
120.227 114.009 729.89 0
142.938 119.352 726.629 0
-248.488 207.008 1250.41 0
162.67 122.457 720.835 0
105.334 129.819 736.992 0
-299.182 214.202 1195.43 0
156.53 130.011 725.887 0
85.0057 133.091 744.16 0
162.035 130.936 724.626 0
167.374 131.705 723.087 0
172.076 132.454 721.534 0
179.364 133.679 720.074 0
182.028 133.807 717.859 0
108.707 137.13 739.076 0
-328.022 228.495 1157.12 0
-75.9079 240.742 1143.29 0
46.4605 255.104 1185.74 0
89.5597 163.298 745.506 0
64.9489 205.291 914.345 0
89.5295 181.36 746.171 0
85.611 209.348 745.978 0
-162.792 286.881 963.878 0
82.8109 227.652 745.867 0
86.9309 228.416 744.726 0
19.4801 -294.516 987.259 0
19.3809 -292.74 980.816 0
394.687 -285.218 1132.23 0
-161.505 -309.781 1351.79 0
-162.533 -275.279 1371.69 0
484.338 -786.879 3959.2 0
576.854 -692.189 3883.12 0
461.813 -566.747 3385.44 0
638.365 -395.147 2850.54 0
-398.425 -199.711 2260.87 0
-294.525 -139.06 2240.6 0
219.479 -101.303 1768.94 0
78.2014 18.4917 1774.75 0
-451.37 25.3429 1662.02 0
-236.982 30.5233 1696.32 0
-30.1535 25.2712 1444.28 0
151.829 33.2102 1570.4 0
-342.648 46.4467 1494.77 0
224.047 51.5903 1642.89 0
-364.95 47.3486 1477.26 0
-155.01 66.2388 1486.72 0
-347.947 65.9399 1446.52 0
-371.25 95.6865 1479.99 0
116.184 126.773 1286.76 0
-188.091 154.728 1405.49 0
-157.305 152.445 1371.59 0
-160.185 167.099 1386.21 0
-352.819 158.495 1285.66 0
-371.612 154.794 1233.81 0
-212.244 186.635 1349.75 0
-143.655 191.114 1370.21 0
136.21 118.379 729.213 0
136.098 118.284 728.689 0
148.138 124.38 726.469 0
148.127 124.367 726.334 0
134.723 125.412 728.434 0
158.823 125.934 722.555 0
170.722 128.29 721.777 0
107.281 133.668 739.108 0
127.574 133.834 736.051 0
127.336 133.338 734.086 0
189.24 130.596 712.245 0
195.262 131.737 713.687 0
210.971 135.064 712.495 0
-84.7064 239.014 1138.39 0
90.8378 157.373 744.364 0
-105.086 246.486 1122.88 0
100.223 164.312 741.439 0
42.8351 261.258 1171.89 0
101.173 168.525 740.469 0
-113.796 252.194 1100.73 0
98.7314 182.51 743.732 0
85.0417 205.506 749.148 0
-176.34 269.275 934.026 0
-174.997 278.035 944.24 0
-205.891 277.082 866.642 0
84.3017 242.05 750.85 0
-192.426 277.393 843.446 0
82.6902 247.887 751.46 0
375.384 -188.733 1172.13 0
-1273.7 -701.225 4548.71 0
-1273.03 -700.928 4546.77 0
-567.702 -473.492 3549.2 0
-492.139 -171.45 2165.78 0
-583.14 -135.515 2026.77 0
-532.911 -109.267 2078.28 0
-575.508 -99.3911 1985.92 0
302.557 -86.0268 2253.89 0
491.499 -35.5874 1387.29 0
-1.44703 5.55169 1813.96 0
3.39901 19.6457 1754.99 0
-123.659 20.6375 1726.51 0
-45.3603 33.0839 1597.56 0
4.85195 32.4008 1623.21 0
-176.395 50.2694 1498.01 0
132.167 42.1882 1275.07 0
403.631 75.5822 1802.01 0
123.124 72.0299 1250.53 0
-175.711 106 1500.73 0
118.807 120.009 1316.97 0
-237.971 128.621 1340.58 0
-195.698 147.55 1423.2 0
-234.943 147.257 1325.65 0
-368.657 172.681 1259.1 0
110.413 96.6119 728.906 0
124.859 104.482 720.433 0
-353.023 211.077 1221.91 0
-73.2828 246.634 1137.6 0
-189.347 277.327 897.748 0
172.035 -257.782 1120.47 0
-1361.24 -883.841 4486.96 0
-615.435 -137.008 2048.9 0
-97.11 20.1108 1719.82 0
-75.0066 34.651 1579.85 0
-92.808 45.367 1559.58 0
-249.668 119.559 1450.45 0
-251.338 170.967 1332.18 0
129.591 120.822 730.497 0
205.914 131.343 710.954 0
101.369 146.726 739.215 0
-70.9347 254.154 1137.27 0
-93.4368 267.102 1136.82 0
98.2882 175.742 743.163 0
-256.946 263.104 911.36 0
-189.374 266.297 914.606 0
285.536 -260.45 1111.44 0
-627.077 -158.976 2047.38 0
-540.703 -94.7334 2043.04 0
-452.658 80.1855 1510.2 0
-148.65 145.905 1371.25 0
35.1108 153.848 1456 0
-161.531 158.812 1367.87 0
40.9068 217.263 1190.93 0
-102.572 251.177 1104.79 0
91.0828 198.474 748.827 0
69.9517 244.486 755.753 0
-755.03 -541.051 3239.23 0
101.953 118.407 1264.79 0
95.7365 143.296 1296.06 0
-132.168 166.521 1381.25 0
79.5515 109.485 721.456 0
86.9123 125.225 741.95 0
97.7139 147.689 744.031 0
-155.55 285.259 980.071 0
166.587 -276.841 1110.47 0
-387.916 67.5819 1458.97 0
95.7131 161.067 744.845 0
89.1786 211.282 749.537 0
-618.393 -289.697 2606.59 0
-249.538 276.189 898.831 0
