ply
format ascii 1.0
element vertex 369
property float x
property float y
property float z
property uchar intensity
end_header
-0.491091 -415.744 1266.98 0
311.834 -1113.83 3782.14 0
298.151 -1100.04 3764.63 0
720.281 -1073.03 3653.1 0
656.684 -1098.67 3795.39 0
661.465 -1088.83 3803.37 0
645.736 -1080.52 3895.88 0
615.248 -1031.87 3882.14 0
-803.325 -887.144 3441.72 0
635.75 -976.667 3825.71 0
-625.967 -892.565 3538.06 0
-623.608 -854.093 3431.88 0
-1270.76 -1089.94 4478.63 0
-504.862 -529.599 2347.41 0
-501.102 -526.218 2329.14 0
-611.325 -428.04 1958.8 0
1135.6 -716.047 3287.03 0
-225.535 -385.709 1811.42 0
-126.824 -356.835 1742.97 0
-22.7426 -390.123 2260.82 0
-605.926 -341.265 1951.36 0
2.42637 -373.537 2267.04 0
178.33 -284.026 1717.82 0
-4.13075 -360.502 2283.52 0
403.051 -262.742 1696.09 0
57.2985 -117.59 1217.64 0
444.795 -106.462 1368.89 0
92.5602 -2.35498 704.922 0
89.3964 0.825927 704.793 0
91.1463 3.75605 707.159 0
137.101 14.6155 697.529 0
159.579 20.8916 692.636 0
237.851 43.6601 674.599 0
-206.322 114.16 973.469 0
41.4149 96.622 733.651 0
-252.175 116.592 824.533 0
34.0659 146.88 746.124 0
22.8017 156.048 753.539 0
47.4706 161.571 719.657 0
90.2606 267.189 797.807 0
575.937 -1361.78 4296.04 0
608.676 -1144.07 3855.69 0
319.018 -1105.67 3787.87 0
666.452 -1108.58 3794.37 0
625.653 -1112.77 3811.36 0
934.49 -1054.88 3681.64 0
395.497 -971.977 3523.68 0
498.165 -1009.46 3713.83 0
648.915 -1026.72 3793.46 0
682.733 -1013.03 3779.99 0
340.217 -303.868 1158.52 0
-204.507 -517.081 2148.75 0
-77.9552 -440.341 1981.87 0
-77.3534 -439.629 1979.25 0
-152.28 -356.794 1759.05 0
-28.972 -357.44 1809.27 0
436.513 -272.775 1584.6 0
21.2458 -378.354 2282.55 0
197.922 -284.191 1728.65 0
-12.1195 -372.373 2270.56 0
510.207 -306.708 1961.8 0
403.539 -408.089 2892.61 0
-587.858 -255.069 2163.32 0
521.132 -329.564 2867.66 0
-191.655 -164.93 1516.64 0
55.7419 -165.533 1613.32 0
-435.33 -142.496 1402.61 0
75.4982 -117.709 1198.59 0
-492.873 -145.561 1476.38 0
215.726 -57.4525 1115.83 0
3.45814 -39.2446 1425.02 0
-65.618 -12.7132 1408.05 0
91.2927 -1.3955 710.08 0
60.1774 0.938487 710.578 0
98.053 2.91328 702.682 0
-71.2739 5.69709 1371.96 0
136.757 12.7613 697.66 0
196.537 31.69 683.769 0
229.529 35.4879 676.022 0
-121.76 70.5826 1124.89 0
-135.455 82.9945 1107.51 0
-126.815 86.1926 1115.82 0
-134.357 87.0718 1110.25 0
43.7387 60.1081 723.424 0
-185.397 96.1497 1138.49 0
49.1129 63.6973 719.612 0
29.8942 70.3442 731.735 0
33.5627 94.1525 728.577 0
33.5427 94.2212 729.203 0
-252.994 115.58 816.368 0
-236.439 133.323 799.94 0
30.1384 135.653 736.942 0
-224.621 149.305 755.723 0
11.2802 149.205 746.464 0
91.9915 266.189 801.488 0
-325.644 -1181.51 3791.14 0
659.935 -1066.16 3709.54 0
594.297 -1127.61 3988.66 0
632.639 -1080.1 3838.32 0
930.942 -1063.09 3767.35 0
624.604 -1096 3933.81 0
592.587 -1111.89 4019.43 0
363.38 -310.581 1142.5 0
576.993 -981.76 3804.37 0
342.094 -298.5 1158.03 0
-219.078 -561.255 2231.51 0
420.267 -328.329 1541.62 0
-607.044 -404.417 1972.81 0
-578.872 -401.203 2021.46 0
419.277 -302.51 1642.13 0
-30.3283 -397.365 2277.93 0
1156.48 -594.726 3356.65 0
424.071 -270.385 1641.05 0
-50.627 -351.085 2231.13 0
-26.3834 -350.238 2264.6 0
444.043 -458.821 3119.33 0
-488.841 -216.677 1617.13 0
-335.559 -209.566 1652.92 0
-345.806 -208.031 1656.98 0
-344.263 -206.924 1650.58 0
535.149 -339.29 2869.57 0
-177.609 -195.315 1699.72 0
37.173 -178.523 1739.82 0
-304.976 -147.84 1437.88 0
428.396 -128.031 1300.86 0
-260.792 -38.2216 1376.94 0
-282.964 -20.0295 1318.75 0
-291.492 3.45049 1238.64 0
65.0427 3.12273 709.203 0
55.7437 5.55094 727.529 0
66.7016 7.33997 712.859 0
188.815 29.546 683.705 0
50.25 35.8153 717.089 0
-130.19 70.9017 1122.04 0
-134.37 78.9456 1108.64 0
-136.325 89.1456 1094.63 0
-173.622 93.7563 1024.8 0
52.4274 68.1401 724.287 0
-191.494 116.382 986.504 0
-204.683 125.549 966.976 0
-245.823 116.646 823.097 0
42.9518 108.645 733.531 0
-213.271 154.593 774.9 0
-225.207 152.626 757.074 0
-218.978 155.038 746.607 0
246.713 206.868 687.306 0
246.718 206.899 687.312 0
-328.851 -1613.44 4499.98 0
82.7265 -1619.49 4654.3 0
-835.462 -1116.47 3263.17 0
622.016 -1108.18 3881.27 0
493.508 -1090.3 3871.92 0
346.977 -316.595 1120.61 0
340.553 -311.349 1131.98 0
337.099 -308.818 1137.54 0
340.185 -306.636 1152.2 0
119.434 -1136.36 4773.13 0
284.575 -1056.2 4510.52 0
-210.913 -406.062 1840.71 0
406.821 -319.06 1519.72 0
-38.8622 -383.248 2257.22 0
-575.191 -317.776 1908.03 0
-28.1495 -363.12 2282.01 0
378.87 -254.692 1657.84 0
444.928 -257.629 1783.83 0
-383.156 -208.921 1606.77 0
-303.717 -214.611 1662.91 0
-380.594 -173.172 1453.95 0
-194.93 -162.633 1488.48 0
-387.194 -150.974 1407.04 0
-156.917 -164.339 1547.51 0
-324.077 -146.024 1397.85 0
-34.5341 -161.001 1588.47 0
-392.225 -143.191 1407.15 0
-9.18554 -160.309 1602.38 0
31.5243 -158.267 1601.39 0
187.904 -137.912 1603.87 0
-298.171 -84.5479 1374.95 0
461.276 -79.721 1323.83 0
-269.432 -82.521 1461.13 0
369.911 -83.4069 1660.37 0
-399.249 -48.3329 1252.81 0
-244.5 -47.1189 1349.96 0
-396.354 -41.4559 1202.16 0
87.8949 -24.2797 709.372 0
90.9228 -18.0639 699.132 0
-250.399 -24.6795 1330.36 0
57.7929 -4.83459 712.59 0
-261.386 -6.15751 1231.88 0
-195.587 -1.00385 1343.62 0
105.304 1.42862 702.568 0
-299.889 12.6977 1223.08 0
-350.317 18.6279 1167.71 0
68.2211 11.2061 715.272 0
117.759 13.4173 702.831 0
-333.382 24.5238 1177.02 0
133.035 17.6978 698.971 0
167.14 27.069 688.011 0
49.4007 32.7254 721.801 0
56.224 37.3924 717.482 0
47.5159 38.3987 723.319 0
-201.383 111.907 998.997 0
43.8541 84.9262 724.482 0
43.8541 84.9262 724.482 0
-243.474 113.086 877.319 0
-218.899 120.588 944.471 0
34.3005 101.574 727.939 0
38.3371 102.823 726.938 0
47.3666 103.956 731.173 0
27.1024 121.071 738.23 0
27.109 121.131 738.456 0
-217.622 160.445 752.725 0
-391.995 -1479.56 4302.37 0
706.479 -1133.34 3611.15 0
601.397 -1146.41 3963.26 0
329.561 -309.585 1141.41 0
132.318 -1193.39 4707.16 0
456.492 -833.889 3314.2 0
550.941 -794.763 3179.2 0
-536.78 -450.422 2093.71 0
-544.179 -457.131 2123.6 0
-221.48 -463.837 2165.57 0
-516.218 -451.342 2105.33 0
-228.821 -439.965 2109.94 0
-323.894 -404.712 2186.17 0
-25.9434 -416.383 2309.91 0
-40.0345 -358.283 2045 0
189.887 -282.92 1728.71 0
539.418 -382.939 2876.31 0
455.439 -177.39 1313.15 0
557.418 -368.359 2886.09 0
-173.834 -165.399 1526.61 0
26.7536 -191.692 1778.35 0
-37.0948 -183.46 1718.68 0
-84.8675 -163.964 1561.58 0
-474.955 -152.372 1467.55 0
-59.3976 -162.535 1572.76 0
-231.611 -145.328 1470.4 0
-238.415 -137.555 1459.72 0
-195.823 -134.238 1451.06 0
465.495 -81.644 1312.11 0
-387.955 -64.0158 1208.1 0
-196.555 -59.8578 1352.74 0
-205.281 -40.8437 1342.07 0
88.9027 -14.7004 695.006 0
-209.819 -27.6095 1357.6 0
47.8378 -9.67285 717.453 0
98.6751 -0.389437 704.943 0
98.5797 -0.457266 704.411 0
102.015 4.44267 704.949 0
96.5151 6.72302 704.803 0
96.4957 6.49795 704.616 0
109.972 6.95005 702.857 0
109.963 6.94518 702.722 0
124.697 6.88527 697.4 0
120.59 9.90805 699.908 0
120.496 9.83229 699.275 0
88.4329 13.6107 712.645 0
88.2726 13.2314 710.646 0
132.105 13.4124 698.902 0
156.278 19.849 691.564 0
66.5245 23.3745 714.102 0
51.35 24.2968 716.677 0
58.0754 40.7541 719.548 0
-159.525 75.1206 1101.47 0
-168.472 81.4678 1079.6 0
-169.212 90.2813 1092.07 0
22.4105 60.4865 726.409 0
40.7347 100.028 731.792 0
-245.708 131.8 796.392 0
-233.809 133.913 812.193 0
-200.449 -1377.21 4703.85 0
-1271.86 -1222 4430.19 0
-1271.2 -1221.5 4428.28 0
361.731 -312.354 1130.59 0
355.184 -309.306 1146.15 0
-208.259 -551.997 2226.61 0
-579.259 -855.532 3463.07 0
-1.90557 -510.104 2221.21 0
-640.799 -421.278 1988.61 0
-608.529 -415.023 1967.29 0
-240.908 -323.239 1611.19 0
-604.041 -375.547 1929.17 0
-561.894 -387.565 2021.48 0
203.539 -165.559 1295.62 0
-113.624 -164.686 1553.49 0
-215.635 -153.013 1460.8 0
-413.823 -126.119 1441.99 0
-220.616 -97.8206 1467.34 0
-294.89 -88.2229 1416.61 0
-282.711 -70.3686 1307.88 0
483.077 -42.8832 1378.1 0
-282.063 5.40393 1248.11 0
53.358 19.5644 717.417 0
171.585 24.8029 690.921 0
-128.098 77.4105 1116.82 0
38.7118 79.5867 729.744 0
-230.203 103.852 913.218 0
36.7023 87.8623 730.718 0
57.8044 143.569 738.024 0
-205.174 162.396 764.751 0
-192.245 163.845 763.155 0
-165.145 226.357 730.877 0
147.386 -1424.39 3983.14 0
-161.963 -435.955 1325.04 0
206.825 -180.969 1246.73 0
-321.279 -217.317 1678.64 0
467.572 -167.951 1389.92 0
432.276 -153.056 1336.01 0
-132.805 -153.849 1523.58 0
-493.643 -151.743 1469.41 0
17.6955 -147.99 1578.84 0
-416.084 -33.9736 1226.97 0
35.8436 -17.8937 713.421 0
-300.172 -29.0841 1302.13 0
446.901 -17.2017 1347.01 0
91.827 1.28508 706.257 0
166.95 20.713 689.027 0
-25.828 75.5645 1203.79 0
-150.204 95.7696 1117.03 0
-242.612 100.955 893.38 0
-236.483 117.873 910.476 0
-224.399 125.919 801.256 0
-218.274 133.107 780.076 0
57.0467 172.515 735.955 0
-650.142 -444.137 1985.36 0
330.69 -398.162 2062.71 0
-570.645 -371.45 1987.16 0
456.132 -91.8192 1335.35 0
-196.006 -46.4472 1341.46 0
-15.1275 -26.1592 1430.26 0
61.0204 23.5697 716.151 0
-157.258 81.2937 1083.81 0
-126.517 85.1318 1117.05 0
45.4359 73.2317 729.066 0
19.6774 116.307 738.691 0
26.6287 148.35 740.591 0
234.127 205.076 694.196 0
-414.676 -1589.06 4483.86 0
321.236 -379.525 1215.03 0
-635.73 -612.169 2534.39 0
83.9151 -448.083 2088.03 0
-76.9177 -215.141 1788.12 0
-315.801 -202.567 1706.38 0
545.697 -330.621 2864.06 0
30.7411 -36.891 768.837 0
42.7155 -27.2543 714.825 0
116.341 -25.0173 716.765 0
43.3117 -14.3276 695.451 0
-181.824 -25.0403 1353.18 0
48.7732 0.594204 717.118 0
57.2231 23.8236 720.947 0
-12.2451 55.9198 1170.32 0
-211.746 118.567 960.659 0
240.32 187.071 694.373 0
518.765 -1380.27 4395.12 0
215.084 -596.424 2709.85 0
446.302 -277.763 1553.83 0
36.7532 -363.015 2280.22 0
183.365 -200.435 1412.8 0
-427.286 -154.205 1418.77 0
89.481 -8.00828 703.604 0
53.8713 36.8445 722.632 0
42.2389 85.7052 730.611 0
38.2023 109.917 747.739 0
-255.024 125.023 805.81 0
-237.523 127.784 829.357 0
38.2256 150.841 740.183 0
419.791 -116.843 1291.93 0
