ply
format ascii 1.0
element vertex 111
property float x
property float y
property float z
property uchar intensity
end_header
959.032 -93.8491 3544.19 0
1039.51 -96.0505 3742.59 0
905.604 233.965 3376.08 0
218.231 -1252.15 4751.29 0
409.91 -978.541 4051.26 0
705.794 -126.316 3396.17 0
866.416 -94.8119 3430.18 0
944.11 253.491 3393.9 0
885.003 258.608 3375.77 0
-160.468 334.004 1531.69 0
-211.453 313.443 1412.6 0
316.453 -1578.4 4692.2 0
204.727 -1264.62 4829.5 0
940.99 -232.879 3598.09 0
1137.7 -119.428 3758.32 0
-62.5809 133.662 1282.02 0
-312.436 303.36 1516.7 0
159.733 -153.917 1136.43 0
654.56 -254.242 3497.77 0
1109.52 -194.44 3637.75 0
611.75 -172.593 3410.59 0
611.703 -160.713 3422.35 0
821.449 -164.487 3435.83 0
713.459 -146.176 3425.78 0
-152.639 -40.7018 1081.35 0
73.4034 -102.187 3855.41 0
996.255 84.4902 3589.27 0
879.65 199.318 5630.12 0
943.146 193.636 3586.45 0
-254.512 108.778 1670.78 0
-537.629 171.99 1624.25 0
-438.366 190.605 1568.74 0
-13.9461 146.543 1234.31 0
-407.229 233.392 1540.25 0
-1015.3 -1525.8 4306.31 0
-891.294 -1065.5 3342.78 0
730.279 -1380.53 4846.25 0
755.332 -1250.75 4939.35 0
774.201 -1205.94 4987.9 0
-213.283 -149.733 1000.74 0
666.36 -238.642 3493.95 0
836.795 -211.691 3631.49 0
-144.809 -47.4247 1071.79 0
1021.5 -150.425 3741.99 0
859.916 -136.4 3532.5 0
-425.134 -51.083 2146.88 0
-43.3221 -59.1061 2692.53 0
1012.04 78.5272 3596.15 0
173.674 28.6722 1094.46 0
968.453 187.438 3607.24 0
1117.34 266.563 3625.7 0
-400.871 210.108 1462.72 0
-60.6674 223.57 1244.86 0
-55.064 219.975 1234.16 0
9.22141 226.654 1248.41 0
-242.771 290.332 1379.02 0
82.4361 298.675 973.747 0
798.168 -1336.06 4845.76 0
746.489 -1264.33 4867.46 0
795.394 -1292.29 4953.29 0
-282.862 -187.198 946.951 0
-281.491 -181.8 951.672 0
-316.356 -152.987 1007.64 0
-94.6356 -136.927 1055.64 0
-29.2998 -59.0597 2669.87 0
-29.2998 -59.0597 2669.87 0
1134.54 -68.8503 3620.8 0
1110.08 -55.2956 3649.74 0
-294.738 67.3023 3099.65 0
-323.88 73.0348 3085.28 0
-372.604 76.5443 1644.79 0
-241.622 107.044 1677.99 0
-4.77628 151.576 1233.9 0
-399.107 219.454 1493.26 0
-393.144 216.091 1473.7 0
-30.4125 271.619 1293.37 0
-987.764 -1522.67 4356.45 0
-528.371 -1456.74 4663.14 0
747.375 -1455 4823.6 0
-730.844 -1350.53 4529.94 0
-661.197 -1327.23 4515.42 0
893.55 -1243.01 5205.14 0
763.208 -225.536 3672.52 0
98.2964 -70.161 1198.78 0
927.148 135.622 3298.81 0
909.385 195.972 3589.29 0
968.886 287.736 3509.99 0
-46.9755 119.534 1311.25 0
-269.373 301.183 1529.95 0
-46.2327 269.516 1294.44 0
-221.108 315.896 1374.86 0
-88.418 362.815 1471.18 0
796.647 -1629.93 4941.37 0
819.622 -1516.99 4937.69 0
1055.16 -1625.07 5477.75 0
742.062 -769.866 3878.22 0
-55.1546 128.401 1279.53 0
-54.5235 127.709 1283.46 0
-77.0699 146.079 1266.27 0
-34.583 258.666 1279.56 0
-133.039 334.724 1531.64 0
-240.412 89.2046 1707.1 0
904.402 229.876 3484.04 0
874.397 281.311 3304.44 0
-394.668 227.327 1499.51 0
758.459 -206.321 3535.67 0
962.381 44.4842 3590.12 0
-58.1033 180.695 1241.27 0
-138.435 -155.624 1044.16 0
607.295 -138.127 3388.06 0
-52.6552 135.687 1277.03 0
