ply
format ascii 1.0
element vertex 254
property float x
property float y
property float z
property uchar intensity
end_header
-431.015 -96.9302 2224.02 0
385.506 34.011 1373.99 0
75.652 206.102 700.347 0
157.025 212.038 684.102 0
368.007 -299.741 2963.11 0
-365.164 -300.359 3820.19 0
-1110.73 -223.784 3463.65 0
-1077.91 -200.254 3385.55 0
-424.456 -76.2993 2054.18 0
-225.023 41.0834 2310.77 0
410.234 40.7238 1433.99 0
291.398 236.499 1648.77 0
-71.0567 246.095 1349.41 0
-366.985 305.372 1298.78 0
28.6328 197.546 706.867 0
74.9959 204.354 700.645 0
469.849 -1634.67 4816.01 0
833.881 -389.586 3403.43 0
273 -86.3829 1634.81 0
-228.347 -5.28258 1817.14 0
-190.085 26.7067 2282.47 0
412.8 22.191 1420.72 0
384.736 43.7207 1341.42 0
-79.2102 145.047 1761.02 0
-158.964 146.256 1748.21 0
-2.37127 145.124 1708.03 0
-154.881 151.364 1730.86 0
-203.633 155.289 1706.71 0
297.929 229.195 1641.84 0
-80.7068 267.313 1403.61 0
-123.722 289.468 1457.91 0
-150.82 287.637 1390.76 0
-173.749 293.919 1365.76 0
-393.626 335.343 1233.76 0
-2.93003 206.683 710.299 0
129.424 211.025 689.325 0
137.611 211.63 688.342 0
-186.736 350.075 1104.33 0
1016.2 -1738.07 4895.01 0
482.181 -1619.55 4738.07 0
340.307 -225.829 1155.46 0
-133.968 -183.764 976.164 0
-132.46 -186.277 998.831 0
12.6048 -159.168 1123.48 0
203.628 -92.2164 1196.13 0
-1046.5 -259.316 3601.68 0
-94.9759 -265.735 3735.8 0
-119.392 -254.147 3718.31 0
-355.772 -103.839 2052.95 0
-407.608 -100.409 2176.13 0
-393.858 -54.4779 1980.04 0
-392.438 -39.6212 1891.36 0
44.5522 16.1878 1758.25 0
362.509 102.679 1333.12 0
-27.9701 144.45 1701.65 0
-24.3331 151.435 1712.61 0
-433.136 166.202 1662.99 0
-465.328 168.17 1644.99 0
-299.831 169.27 1654.07 0
-378.72 176.565 1527.93 0
4.94557 268.084 1394.2 0
-351.941 293.717 1357.76 0
-322.719 301.571 1319.03 0
-380.22 306.567 1298.51 0
-368.419 308.798 1296.86 0
38.4587 170.565 717.482 0
-230.94 327.397 1275.72 0
108.457 225.024 873.688 0
-369.704 324.434 1214.42 0
-382.508 323.483 1172.41 0
-16.007 216.982 717.95 0
-16.054 217.013 718.196 0
6.53666 215.951 714.379 0
146.222 211.776 684.419 0
136.011 -201.736 1096.95 0
119.181 -187.911 1092.97 0
17.9662 -171.165 1105.51 0
-167.295 -158.669 1031.83 0
-277.87 -143.903 1028.97 0
143.77 -164.21 1206.2 0
144.092 -391.258 3403.57 0
-108.274 -434.469 4465.89 0
-109.869 -450.066 4604.49 0
-52.7392 -274.896 3836.18 0
-80.6204 -260.604 3788.33 0
-158.684 -252.347 3709.91 0
210.262 -75.9627 1197.7 0
-93.7547 -102.759 1640.21 0
-414.101 -102.986 2177.87 0
-263.455 -64.1183 2009.84 0
-262.639 -63.8059 2007.19 0
318.997 -10.6368 2927.63 0
-255.717 -5.20477 1785.46 0
-422.884 -5.18945 1964.53 0
-200.908 -0.227678 1824.72 0
-208.879 28.6028 1879.52 0
-225.652 46.4696 2246.6 0
-208.636 46.7842 2284.44 0
335.97 39.1303 1382.1 0
-89.866 152.201 1697.01 0
-89.5827 151.782 1688.38 0
-309.205 161.478 1699.05 0
-43.8782 151.936 1627.05 0
-435.21 159.117 1657.23 0
354.345 129.302 1350.48 0
-68.5958 154.457 1621.41 0
-475.322 171.792 1648.27 0
-180.019 163.39 1562.84 0
48.9589 176.239 1663.86 0
-452.452 178.069 1615.39 0
-496.302 182.993 1631.88 0
395.739 166.805 1400.06 0
-344.927 194.179 1463.13 0
16.5552 193.593 1209.04 0
-371.233 260.919 1445.38 0
-41.706 232.143 1251.47 0
-336.329 279.376 1332.8 0
-128.078 291.01 1391.9 0
-337.586 300.194 1310.72 0
-8.33152 166.261 684.8 0
-341.403 309.357 1210.41 0
-375.803 333.167 1197.55 0
-17.1422 199.047 717.5 0
34.0619 205.788 706.053 0
-194.873 351.452 1100.98 0
1056.78 -1778.85 4982.72 0
-627.081 -1116.44 3409.08 0
43.8453 -202.233 1045.98 0
240.246 -202.83 1141.71 0
-74.3928 -165.111 1069.77 0
-293.372 -576.874 4844.91 0
218.19 -97.9465 1191.25 0
211.015 -86.6297 1193.23 0
-383.066 -24.2662 1858.56 0
338.796 1.79061 2936.89 0
114.014 16.6638 1282.49 0
-177.755 33.6054 2169.91 0
53.1484 34.5422 1928.53 0
89.4355 49.5666 2246.18 0
427.606 50.629 1341.95 0
309.1 64.5303 1363.92 0
-96.4146 147.264 1749.44 0
-15.648 153.259 1690.23 0
358.639 125.443 1339.28 0
-404.46 175.564 1649.72 0
-430.573 173.87 1607.18 0
300.07 235.533 1642.23 0
398.181 212.131 1379.8 0
-2.6192 198.995 1208.14 0
-396.481 254.181 1358.35 0
-296.333 278.261 1326.57 0
-347.415 314.845 1299.8 0
23.3421 184.952 698.062 0
39.0888 202.67 706.744 0
58.423 204.315 701.617 0
64.3536 205.319 701.413 0
70.4751 205.889 701.546 0
4.48402 212.144 712.288 0
95.6567 207.448 694.987 0
129.914 184.063 596.658 0
-7.93045 231.695 713.482 0
-222.244 358.125 1078.45 0
-8.63279 240.839 717.605 0
-229.124 363.413 1055.58 0
237.151 234.157 670.763 0
216.634 234.028 674.661 0
-245.74 -188.565 932.327 0
-116.561 -195.903 976.401 0
448.705 -186.034 1277.47 0
224.738 -103.709 1176.48 0
346.247 31.5285 1411.62 0
338.851 30.9457 1372.29 0
-179.089 141.009 1783.71 0
-142.738 150.444 1718.92 0
-169.56 152.235 1724.7 0
-294.193 159.931 1687.78 0
-158.821 159.22 1592.91 0
59.4407 165.524 1626.44 0
378.263 139.403 1359.65 0
407.138 156.615 1388.88 0
-232.187 176.261 1523.04 0
-262.569 179.188 1506.97 0
-15.3694 166.966 1232.97 0
-307.049 197.089 1444.84 0
318.381 231.772 1647.2 0
-312.509 215.796 1464.32 0
-19.9793 226.355 1291.81 0
-376.22 258.21 1291.18 0
-371.034 275.964 1275.78 0
-360.462 325.848 1224.17 0
-12.2436 194.463 713.584 0
34.9857 198.477 707.037 0
26.9524 214.72 712.681 0
26.8095 214.155 710.724 0
-6.7791 226.808 714.813 0
-427.39 -288.097 3665.73 0
388.944 32.5925 1403.61 0
336.515 50.9678 1392.83 0
-110.415 140.276 1788.45 0
-267.359 157.462 1682.89 0
-453.583 161.055 1672.13 0
-207.132 161.935 1563.96 0
229.616 185.058 1796.16 0
-323.376 191.186 1454.16 0
-306.725 220.975 1347.24 0
-395.512 254.607 1400.29 0
39.7951 211.216 1178.59 0
-20.2117 231.971 1261.26 0
-40.0963 250.12 1268.53 0
-274.271 281.365 1319.12 0
-26.3069 214.53 893.474 0
62.7905 187.661 721.265 0
-66.2522 265.573 993.701 0
11.0363 193.429 704.617 0
28.4712 201.381 707.781 0
-94.5235 347.941 1187.67 0
106.414 206.275 692.989 0
211.765 218.774 673.623 0
134.498 -172.214 1112.74 0
224.969 -124.72 1157.75 0
213.127 -105.097 1261.23 0
346.786 119.542 1362.86 0
-235.415 164.589 1544.26 0
-251.144 175.517 1522.45 0
435.276 247.494 1409.31 0
-299.888 284.715 1322.34 0
-83.134 322.794 1157.19 0
1.49239 229.345 713.586 0
-209.85 364.554 1084.86 0
-218.274 361.872 1060.41 0
189.565 -352.26 1108.43 0
434.857 -179.933 1375.6 0
-1056.6 -295.99 3175.5 0
353.747 51.7023 1349.27 0
342.587 246.679 1644 0
35.0632 195.954 1192.63 0
-33.5168 223.576 1238.73 0
-288.118 271.186 1327.06 0
-21.5162 192.811 695.861 0
-14.4783 208.924 716.178 0
-2.39412 230.74 718.106 0
15.0436 -181.179 1104.45 0
276.069 -173.143 1171.99 0
906.888 -313.633 3450.12 0
-3.89813 24.0175 1772.42 0
348.059 87.1378 1344.13 0
122.654 163.826 1151.67 0
-15.7453 250.352 1224.27 0
-171.384 -187.199 973.749 0
-78.3064 -198.959 1035.6 0
193.122 -211.608 1131.62 0
375.614 67.6711 1332.31 0
362.282 235.492 1342.58 0
18.4625 277.091 1350.34 0
