ply
format ascii 1.0
element vertex 162
property float x
property float y
property float z
property uchar intensity
end_header
769.752 -1519.26 4672.66 0
808.483 -921.963 4023.74 0
-509.203 -85.5844 2105.78 0
-435.711 -140.166 3694.2 0
-574.637 -56.678 2132.67 0
634.768 -53.7699 3319.99 0
1204.89 -33.4254 3369.15 0
591.012 -25.1958 3297.53 0
627.312 -15.965 3332.99 0
507.043 -13.6572 3680.3 0
562.388 -4.89442 3509.06 0
558.238 32.5964 3479.73 0
563.835 53.4505 3406.25 0
114.831 78.013 1581.7 0
-105.319 328.103 1535.49 0
54.5837 355.773 1533.67 0
46.6452 361.896 1540.26 0
-11.6379 339.515 1424.91 0
-211.355 205.643 608.035 0
-574.058 -90.1356 2115.92 0
-547.503 -91.6915 2100.9 0
-505.523 -85.4404 1979.61 0
-508.213 -85.4804 2043.31 0
581.374 -88.965 3525.93 0
-734.414 -53.6699 2248.94 0
96.0179 -13.3418 1366.92 0
-446.935 14.4127 1678.36 0
597.252 42.8271 3315.49 0
599.727 95.9533 3416.87 0
-376.897 189.046 1623.85 0
-267.481 198.747 1618.26 0
-83.9529 255.282 1348.7 0
-334.652 279.179 1320.15 0
-397.82 296.448 1289.44 0
1517.05 -1123.95 5096.48 0
-191.389 -159.122 994.91 0
103.687 -99.175 1076.87 0
155.39 -64.9 1155.52 0
1190.99 -149.521 3572.6 0
285.866 -45.4838 1184.82 0
576.053 -105.399 3411.69 0
1161.83 -103.951 3378.13 0
573.685 -103.609 3495.75 0
1205.99 -74.4471 3471.9 0
-556.783 -41.9054 1815.12 0
577.025 -30.8506 3438.19 0
612.552 17.7475 3364.99 0
531.29 40.8085 3602.42 0
103.768 34.9599 1952.13 0
-158.891 57.9424 1625.7 0
-397.873 103.702 1800.4 0
77.172 166.085 2939.76 0
60.7154 192.401 2830.62 0
-20.029 134.338 1692.81 0
-33.398 135.764 1686.46 0
97.3103 170.681 1852.54 0
-417.468 177.157 1614.27 0
-369.354 185.612 1638.65 0
-320.201 192.957 1658.37 0
-407.64 179.785 1486.22 0
131.968 161.89 1285.76 0
210.929 174.042 1292.81 0
210.929 174.042 1292.81 0
129.586 251.567 1248.07 0
-421.762 295.808 1264.62 0
-408.68 309.984 1256.98 0
1217.14 -1181.2 4888.56 0
-11.5736 -135.817 1021.04 0
350.063 -122.132 1127.37 0
186.445 -112.435 1072.27 0
32.4859 -15.593 1092.41 0
561.595 6.34771 3471.73 0
614.364 7.6701 3309.84 0
567.976 12.107 3421.87 0
590.282 26.6767 3454.97 0
607.523 33.1554 3310.74 0
74.0178 133.852 3016.41 0
357.463 60.4143 1083.59 0
-179.589 191.095 2233.44 0
-481.953 168.826 1458.26 0
-389.525 177.397 1498.13 0
-310.829 195.952 1655.02 0
-305.942 198.694 1602.25 0
-448.29 185.951 1412.34 0
164.512 185.96 1220.93 0
-191.608 242.316 1518.27 0
-59.0467 225.909 1372.56 0
134.545 248.013 1237.04 0
-423.836 280.82 1280.85 0
33.8049 341.95 1594.37 0
-44.6186 315.554 1393.59 0
175.272 292.4 1283.46 0
161.978 300.539 1294.22 0
-376.391 304.841 1289.86 0
-195.405 206.873 606.465 0
107.907 -1330.93 4678.95 0
1255.46 -1266.26 4792.8 0
1238.24 -1135.69 4935.52 0
-133.392 -131.64 1030.27 0
-31.0862 -126.36 1016.56 0
90.6313 -110.803 1063.44 0
-379.325 34.3655 1741.85 0
45.7842 127.731 3059.39 0
71.035 152.222 2991.57 0
68.6096 180.024 2888.2 0
-541.02 184.604 1604.59 0
154.143 156.19 1293.68 0
-464.915 182.44 1399.79 0
225.536 177.959 1257.73 0
-195.187 232.731 1487.97 0
277.414 214.574 1170.04 0
277.037 214.319 1168.72 0
-61.4422 326.881 1545.89 0
252.957 327.712 967.707 0
-204.577 211.645 607.234 0
-671.369 -1538.73 4315.92 0
-77.4699 -1414.81 4698.74 0
1205.77 -1386.35 4774.68 0
1152.57 -1328.04 4574.43 0
1219.53 -1271.13 4800.97 0
1372.37 -1168.9 5144.6 0
-983.658 -226.06 3437.47 0
291.16 -39.2116 1193.18 0
611.005 -76.1753 3420.79 0
-582.517 0.399677 1875.84 0
18.0338 189.502 2815.19 0
-506.934 160.352 1597.11 0
-397.33 153.672 1320.77 0
-451.369 178.936 1430.32 0
-240.128 198.474 1136.67 0
150.728 267.304 1256.04 0
146.309 298.125 1296.34 0
73.991 363.167 1538.39 0
113.949 391.743 1474.97 0
-167.875 198.535 626.546 0
1266.27 -1559.45 4889.88 0
553.246 -26.7412 3649.21 0
-383.434 182.935 1631.66 0
-195.124 208.061 1511.68 0
129.948 174.246 1295.7 0
-202.046 205.056 608.807 0
-148.726 -126.168 1027.77 0
45.2353 -122.192 1049.92 0
-522.093 -172.541 3602.03 0
632.784 -14.3678 3314.7 0
-451.758 168.287 1452.31 0
-423.444 173.287 1471.5 0
139.32 156.763 1282.81 0
140.223 156.111 1286.7 0
-323.018 198.316 1490.49 0
99.9844 179.434 1266.61 0
-105.842 218.398 1039.96 0
-186.805 194.289 624.014 0
-186.928 250.318 1524.18 0
124.482 241.227 1261.21 0
146.381 290.525 973.83 0
-402.43 135.427 1757.8 0
132.787 208.729 1244.55 0
46.5642 -130.453 1054.98 0
-199.371 96.3724 1706.15 0
141.5 164.081 1280.11 0
-200.685 230.879 1071.08 0
