ply
format ascii 1.0
element vertex 330
property float x
property float y
property float z
property uchar intensity
end_header
-999.229 -1496.57 4385.72 0
256.018 -994.27 3664.63 0
-1070.79 -851.827 3386.31 0
-988.626 -839.713 3400.85 0
-495.742 -496.513 2047.69 0
-1548.08 -1074.97 4418.16 0
-1548.08 -1074.97 4418.16 0
686.268 -738.108 3276.6 0
830.441 -745.888 3331.06 0
255.989 -602.723 2874.9 0
-380.549 -337.087 1617.32 0
-283.787 -314.696 1659.71 0
-307.791 -344.982 2186.01 0
-350.74 -347.17 2221.71 0
-440.635 -166.304 1421.4 0
256.849 -86.8907 1294.82 0
-44.1291 -3.42887 636.125 0
-26.8779 2.12828 637.126 0
16.2909 13.3974 631.211 0
26.5128 18.196 631.869 0
26.4983 18.3115 631.454 0
73.6586 31.2946 632.757 0
73.4659 32.6712 627.32 0
77.8588 33.8865 627.255 0
84.0821 35.9041 626.048 0
105.821 42.6032 622.667 0
-324.314 73.0291 1014.13 0
-302.304 79.7346 1022.65 0
-109.935 130.48 657.604 0
-107.393 142.008 666.9 0
187.307 162.788 618.45 0
116.644 204.284 635.558 0
-211.127 -203.849 631.399 0
-163.823 -1042.9 3745.33 0
-157.566 -1034.42 3751.66 0
963.352 -1000.07 3627.45 0
922.643 -943.7 3545.71 0
109.554 -1028.5 3954.51 0
86.5406 -1028.29 4014.1 0
26.8223 -935.215 3696.98 0
927.176 -837.247 3426.6 0
-476.894 -383.064 1752.57 0
-462.17 -344.982 1659.59 0
-401.232 -343.649 1663.01 0
-317.485 -325.269 1659.69 0
653.446 -630.197 3253.45 0
662.19 -581.798 3440.07 0
-347.377 -355.99 2171.62 0
-290.845 -348.955 2203.76 0
-302.652 -335.247 2208.13 0
617.382 -489.367 3380.14 0
-95.6335 -338.753 2449.4 0
326.115 -152.541 1350.28 0
300.367 -137.471 1284.4 0
288.526 -122.366 1262.62 0
-73.8237 -3.95434 638.401 0
-42.5367 -0.289787 639.074 0
-283.2 12.1134 1279.21 0
3.45149 9.5835 634.357 0
64.0013 29.7603 627.175 0
97.5826 34.2492 623.299 0
-317.214 81.7771 1007.14 0
-309.703 85.3856 1016.34 0
-316.547 85.942 1009.89 0
-93.0565 55.0353 647.708 0
180.986 62.5621 613.366 0
-104.568 88.9073 650.756 0
-104.664 88.9895 651.373 0
-97.4363 91.6948 656.661 0
199.941 110.605 612.479 0
-113.08 128.304 655.491 0
-112.894 135.697 656.023 0
-100.293 151.82 657.857 0
190.555 144.542 616.856 0
147.349 172.17 624.343 0
136.215 199.401 619.577 0
141.76 197.572 604.64 0
126.874 207.039 634.577 0
126.874 207.039 634.577 0
214.093 209.275 623.902 0
211.982 210.246 624.069 0
-855.548 -1491.05 4371.45 0
278.456 -359.918 1159.27 0
182.977 -297.688 1110.95 0
-94.3743 -963.276 3628.83 0
92.2716 -1044.64 3984.16 0
-478.861 -403.084 1754.51 0
678.349 -715.408 3243.87 0
-92.571 -149.339 931.509 0
-51.6992 -262.573 1672.51 0
-322.676 -344.121 2187.76 0
-336.642 -322.508 2179.58 0
269.064 -147.944 1301.23 0
-215.063 -160.939 1661.87 0
270.158 -99.2077 1265.66 0
273.113 -91.588 1265.37 0
232.043 -86.4999 1340.16 0
297.112 -26.4139 1340.56 0
-42.8246 -5.4812 641.654 0
-300.427 -4.54682 1260.96 0
80.9206 13.5545 652.901 0
57.0691 27.8489 628.627 0
56.3934 27.4134 626.25 0
-305.4 70.12 1026.34 0
-87.352 58.6784 644.471 0
-95.712 60.9782 644.714 0
-84.7229 63.3099 649.391 0
-108.028 65.0873 654.058 0
153.572 75.5006 618.582 0
199.587 77.5431 608.1 0
-96.178 103.748 656.42 0
-115.628 119.85 655.288 0
219.787 118.913 608.371 0
157.242 133.563 618.154 0
157.723 133.93 620.197 0
-130.106 143.742 664.479 0
214.368 136.191 611.009 0
145.918 174.577 626.384 0
148.096 174.673 623.469 0
120.946 199.123 638.367 0
186.051 200.362 626.121 0
109.283 206.23 632.204 0
109.286 206.262 632.21 0
124.658 212.497 633.335 0
-803.196 -1577.54 4408.2 0
-707.134 -1590.58 4459.21 0
232.005 -381.833 1074.9 0
-667.784 -1592.91 4477.92 0
-871.983 -1559.48 4402.16 0
-880.893 -1573.38 4441.06 0
275.376 -366.111 1176.78 0
286.474 -360.155 1167.91 0
407.419 -349.687 1201.09 0
169.445 -304.618 1087.44 0
147.043 -304.925 1106.42 0
161.591 -299.289 1097.83 0
158.706 -294.138 1117.73 0
-519.03 -539.196 2129.23 0
878.649 -815.767 3417.75 0
28.9536 -769.766 3290.91 0
-511.411 -396.508 1864.03 0
659.963 -608.339 3329.49 0
-341.043 -369.412 2193.54 0
-354.37 -336.156 2165.41 0
-356.7 -324.737 2143.51 0
63.0283 -383.723 2944.66 0
-470.058 -183.606 1507.77 0
-415.881 -156.762 1384.47 0
169.231 -311.418 2866.15 0
-376.803 -156.792 1444.9 0
-286.148 -168.294 1632.21 0
-450.542 -140.834 1361.74 0
-229.687 -173.514 1699.22 0
-259.208 -164.411 1628.3 0
-269.219 -149.139 1502.29 0
-268.621 -148.688 1502.69 0
-245.133 -147.021 1519.48 0
-205.153 -143.728 1520.3 0
-41.4974 -22.3937 631.164 0
142.851 -52.5638 1608.17 0
-80.0301 -19.1271 642.199 0
-76.2951 -9.74167 640.262 0
-28.0885 -2.4586 635.786 0
-403.061 1.52019 1236.51 0
-253.342 1.33069 1313.01 0
-89.1114 2.9958 645.721 0
-89.178 2.99778 645.965 0
-67.7694 2.66554 641.277 0
-66.6391 6.62309 643.754 0
-354.308 26.0674 1192.2 0
-85.2699 30.7864 642.805 0
-79.4239 32.5282 643.864 0
-313.436 70.154 1022.49 0
-316.177 77.7843 1008.49 0
-91.2796 51.2966 649.811 0
-82.6315 53.1847 646.624 0
-76.3339 77.0704 647.631 0
-98.7879 78.5419 649.949 0
214.851 85.7581 611.526 0
177.724 87.7589 612.23 0
-117.409 102.708 657.771 0
-98.8005 115.49 653.869 0
219.334 124.215 611.525 0
175.666 141.057 622.339 0
152.32 152.524 622.579 0
162.104 163.651 628.439 0
148.664 200.499 620.589 0
-760.985 -1824.66 5233.73 0
412.255 -344.844 1210.6 0
102.786 -1063.81 3960.27 0
-517.058 -420.948 2004.34 0
-340.054 -387.59 2226.28 0
-59.7107 -261.513 1671.58 0
-328.456 -281.792 1882.56 0
78.8592 -365.654 2901.49 0
33.5878 -344.258 2827.52 0
250.908 -158.35 1287.89 0
-399.418 -158.122 1424.89 0
346.721 -137.393 1301.74 0
-315.309 -153.572 1470.1 0
-291.393 -151.225 1484.19 0
-456.205 -133.482 1350.13 0
-438.541 -131.508 1345.58 0
-408.909 -126.064 1308.04 0
258.773 -62.4201 1285.63 0
253.144 -60.3474 1296.72 0
-403.731 -57.1205 1246.94 0
122.452 -58.9179 1620.03 0
-418.23 -25.1311 1249.37 0
283.278 -19.5202 1351.51 0
-37.2023 2.65182 636.83 0
-37.1941 2.42221 636.648 0
-23.6188 3.18856 636.487 0
-23.6109 3.18044 636.352 0
-8.35122 3.38858 632.818 0
249.566 11.3763 1055.08 0
-16.0371 9.85588 637.221 0
-10.5848 11.5276 636.747 0
-5.23903 13.0381 635.97 0
-0.514727 14.4487 635.092 0
23.3881 17.0434 630.44 0
-68.4686 18.7136 642.084 0
-86.6019 27.7813 647.46 0
-88.7864 33.4356 648.6 0
-77.911 35.9827 646.049 0
-82.0703 53.7157 648.678 0
-114.591 54.9202 648.133 0
-93.6491 79.8653 648.144 0
-93.6491 79.8653 648.144 0
152.721 91.0249 619.792 0
-103.934 96.3297 650.023 0
-99.8368 97.6617 649.475 0
195.041 102.313 615.45 0
-131.36 109.9 633.537 0
212 132.767 614.158 0
170.454 147.658 612.289 0
151.526 170.447 624.548 0
159.155 182.641 627.453 0
182.346 189.623 624.882 0
120.845 201.823 635.23 0
135.537 209.633 623.4 0
198.406 214.86 628.079 0
-898.955 -1563.3 4391.22 0
-692.369 -1582.05 4489.89 0
119.66 -371.718 1097.59 0
-1101.97 -1324.98 4424.48 0
-106.494 -1240.23 4426.4 0
182.801 -299.769 1098.98 0
-303.434 -482.604 2143.46 0
-494.012 -405.102 1862.91 0
-515.84 -443.371 2061.04 0
-342.873 -155.228 1458.69 0
-340.237 -141.222 1428.47 0
-43.0898 -19.1774 626.744 0
267.456 -21.7478 1352.24 0
-34.9085 -4.39658 637.404 0
-12.8131 6.26542 634.107 0
-46.3201 9.49829 643.481 0
-46.2322 9.07035 641.488 0
-81.8435 14.6341 643.911 0
-83.8592 19.2945 642.818 0
38.5422 22.3819 631.49 0
-310.89 76.5973 1017.4 0
137.69 68.0073 620.801 0
-99.2551 74.5114 652.893 0
-99.2831 74.4747 653.506 0
-101.56 82.7511 653.412 0
-105.013 110.545 655.603 0
-107.444 116.095 656.169 0
193.032 175.311 622.004 0
180.957 177.449 624.186 0
169.46 178.176 621.691 0
190.534 180.759 623.821 0
204.547 185.67 622.066 0
203.066 192.325 622.976 0
-507.924 -529.769 2125.42 0
-403.679 -256.754 1313.28 0
-323.845 -335.807 1960.19 0
253.587 -146.884 1365.29 0
224.624 -134.129 1307.22 0
-358.602 -145.569 1426.45 0
274.001 -46.5573 1308.25 0
-41.9016 -2.87351 637.855 0
136.009 52.2277 618.425 0
-333.287 94.3699 1014.52 0
-320.099 97.6608 1030.01 0
129.688 62.5837 626.001 0
-93.2349 85.0574 653.838 0
-196.667 107.86 800.27 0
-114.376 123.576 656.084 0
-82.7881 139.141 661.758 0
-83.9715 168.004 658.882 0
-523.143 -190.399 1589.1 0
-69.327 -14.2018 637.924 0
279.142 -30.4245 1336.02 0
234.65 2.27469 1316.44 0
34.2636 18.1305 629.165 0
-74.1807 18.81 643.461 0
-81.541 46.9809 647.846 0
-309.529 84.3607 1017.62 0
-92.3513 68.3216 653.178 0
143.777 168.046 629.087 0
176.237 187.366 627.72 0
182.378 209.179 627.899 0
-957.424 -1521.26 4367.79 0
-25.2052 -1290.06 4385.06 0
-455.87 -543.748 2118.43 0
268.003 -136.265 1290.45 0
-18.205 -28.2822 651.856 0
-402.156 -43.9553 1235.47 0
-20.9601 -17.6898 651.833 0
-85.9146 -4.45183 643.549 0
-329.73 81.3267 1006.2 0
-120.074 110.91 658.589 0
102.559 186.435 638.962 0
96.0114 204.263 637.596 0
134.12 -366.078 1179.69 0
215.519 -253.531 1528.26 0
757.133 -550.004 3398.2 0
-275.535 -333.27 2202.9 0
249.362 -50.8737 1327.33 0
-88.4053 -19.9918 621.772 0
-43.6966 -12.2822 635.178 0
-78.5272 19.0711 647.765 0
-82.3598 32.0339 648.711 0
-96.0006 80.7382 654.017 0
-102.615 105.212 669.929 0
-102.65 145.944 661.396 0
167.348 161.733 614.475 0
216.635 -99.2482 1261.07 0
