ply
format ascii 1.0
element vertex 338
property float x
property float y
property float z
property uchar intensity
end_header
313.103 -386.879 1145.25 0
-71.4208 -52.5371 1840.22 0
-96.7737 -48.6836 1856.64 0
-73.5566 -17.8004 2347.24 0
-76.253 -4.21596 2337.47 0
491.081 12.2072 1374.02 0
7.80977 88.439 1408.3 0
97.8208 176.944 724.986 0
115.753 179.463 723.736 0
146.966 183.125 716.914 0
170.088 185.673 711.669 0
170.044 185.766 711.251 0
784.019 -461.9 3916.27 0
-875.732 -313.702 3569.07 0
-902.171 -301.138 3526.35 0
-679.413 -283.259 3488.12 0
-190.993 -178.217 2239.37 0
-216.201 -153.997 2147.93 0
-40.5696 -9.22597 2330.56 0
-590.003 58.8554 1975.5 0
-602.762 80.4286 1912.11 0
-38.3218 107.801 1773.63 0
436.711 87.3743 1400.24 0
-294.125 125.988 1723.72 0
404.802 209.78 1654.88 0
126.204 149.576 1059.11 0
54.1339 202.941 1246.3 0
-19.6948 254.543 1483.54 0
100.247 179.921 727.502 0
217.937 191.477 701.104 0
-119.582 322.394 1123.5 0
-95.9201 325.644 1129.12 0
-110.323 333.497 1117.5 0
64.2454 242.841 740.84 0
58.0578 248.337 742.023 0
73.0942 251.854 739.22 0
779.49 -1670.12 4712.77 0
771.073 -1686.27 4791.02 0
118.397 -202.366 1114.54 0
511.26 -552.815 3932.88 0
296.352 -110.768 1235.26 0
17.0328 -344.343 3848.33 0
399.378 -132.397 1638.69 0
-218.419 -146.735 2040.05 0
-215.124 -149.81 2084.31 0
249.115 -64.8003 1038.17 0
-641.678 -120.512 2453.82 0
168.453 -17.4237 1773.09 0
476.977 37.8699 1320.14 0
325.295 83.2929 2005.09 0
455.632 80.0905 1352.7 0
15.522 109.673 1776.43 0
14.4795 108.994 1775.53 0
66.2849 107.111 1733.88 0
116.266 110.813 1726.4 0
110.046 114.427 1711.36 0
43.4131 112.414 1643.87 0
-164.032 125.479 1671.22 0
411.182 202.701 1647.59 0
-439.638 178.516 1427.81 0
105.3 171.963 1219.11 0
-33.3905 257.031 1411.77 0
111.439 146.544 735.34 0
-283.502 266.967 1336.09 0
106.678 177.578 722.772 0
68.9257 181.722 730.414 0
146.366 181.359 717.223 0
33.9342 223.477 878.328 0
208.168 190.254 702.18 0
-111.991 329.361 1115.16 0
61.002 243.591 737.177 0
70.7355 250.372 737.337 0
48.7589 256.439 744.287 0
470.04 -576.933 4041.59 0
556.075 -507.43 3897.44 0
313.417 -134.019 1163.23 0
309.566 -130.577 1172.87 0
303.978 -123.38 1183.6 0
326.719 -124.778 1194.24 0
304.339 -116.679 1203.25 0
-830.915 -336.412 3660.96 0
-615.388 -310.209 3604.71 0
125.607 -321.207 3751.87 0
172.565 -330.293 3850.13 0
-237.726 -314.152 3706.65 0
100.154 -310.046 3735.62 0
142.209 -316.226 3803.75 0
60.4907 -309.112 3729.02 0
-599.944 -110.014 2891.5 0
-66.2257 -49.7988 1858.09 0
-103.71 -33.5604 1793.19 0
382.908 -26.563 1712.22 0
-89.2373 1.10804 2277.15 0
-644.647 1.13335 2019.19 0
-61.2191 2.1247 2310.48 0
434.574 41.1894 1369.56 0
464.636 80.6834 1334.96 0
53.1623 114.767 1734.99 0
28.2188 115.888 1719.42 0
28.1195 115.556 1710.78 0
-359.408 126.66 1688.36 0
-183.825 128.305 1686.2 0
-305.168 134.716 1695.84 0
164.788 143.567 1680.28 0
-201.173 133.598 1546.13 0
-204.181 133.525 1517.85 0
113.72 157.766 1229.85 0
28.9955 213.472 1372.33 0
106.414 236.86 1413.87 0
-252.265 254.244 1393.86 0
-73.9484 258.656 1393.81 0
-240.219 261.507 1346.3 0
-375.305 262.293 1281.39 0
-142.499 287.192 1361.38 0
-248.805 271.519 1246.36 0
38.4931 157.892 710.324 0
-291.915 285.009 1210.4 0
37.3604 169.666 729.605 0
90.6832 170.743 725.831 0
83.1339 176.098 743.193 0
74.0453 183.056 728.883 0
94.8284 185.875 726.312 0
200.051 189.443 703.526 0
200.221 189.217 702.245 0
-350.188 305.564 1131.59 0
-111.482 325.332 1116.7 0
66.8151 245.996 733.089 0
-102.005 -222.298 969.677 0
228.363 -227.897 1107.25 0
22.6622 -195.047 1088.83 0
196.457 -180.274 1104.45 0
-14.8487 -608.314 4825.91 0
352.229 -437.814 3407.87 0
-16.5474 -556.119 4700.82 0
149.478 -497.071 4480 0
154.551 -514.005 4618.35 0
300.931 -119.852 1188.84 0
-23.6985 -345.35 3853.99 0
-282.461 -163.83 2261.89 0
-261.377 -148.786 2209.74 0
-253.093 -69.0915 1892.2 0
-129.682 -46.2862 1813.62 0
416.914 -20.3828 1828.06 0
-42.3074 -17.4814 2307.47 0
441.857 16.0572 1384.41 0
-601.144 75.5964 1946.52 0
-595.369 93.6996 1854 0
102.006 118.794 1709.3 0
-316.477 121.949 1701.1 0
70.974 117.386 1647.45 0
45.9731 119.365 1642.96 0
365.717 141.56 1853.24 0
460.514 103.289 1341.52 0
456.644 106.938 1352.95 0
-68.1761 126.167 1589.59 0
-338.21 133.795 1654.55 0
173.809 133.461 1642.32 0
-381.37 137.508 1673.05 0
-402.969 136.552 1582 0
-135.697 146.518 1522.63 0
-146.137 147.749 1522.47 0
-173.615 148.406 1501.95 0
499.351 144.958 1400.99 0
-397.045 172.245 1432.87 0
-415.92 195.547 1465.61 0
111.354 164.414 1227.6 0
-266.777 220.169 1481.92 0
54.1871 201.151 1273.02 0
-237.469 240.519 1368.07 0
-197.782 240.424 1360.03 0
63.3267 141.423 704.762 0
92.8221 152.876 732.004 0
83.8725 158.387 705.653 0
-413.338 290.811 1216.44 0
55.2395 173.679 738.169 0
62.564 175.479 736.597 0
65.7603 176.568 732.96 0
113.648 175.088 722.884 0
127.665 185.18 722.098 0
76.2915 187.341 732.122 0
133.226 185.848 720.926 0
138.621 186.359 719.476 0
143.378 186.874 718 0
55.9704 191.631 738.755 0
55.934 191.659 739.003 0
78.3467 191.176 734.158 0
153.448 187.72 714.495 0
23.5183 301.669 1104.53 0
-361.058 316.204 1139.76 0
13.5438 329.072 1175.42 0
-117.193 316.614 1125.84 0
-101.167 320.53 1130.24 0
10.441 334.918 1161.31 0
73.9522 211.852 732.394 0
61.692 221.664 739.257 0
72.4656 222.131 735.386 0
57.8497 238.198 737.418 0
71.6523 240.438 737.081 0
140.54 -229.089 1059.33 0
341.047 -225.864 1146.08 0
116.667 -199.214 1120.29 0
452.304 -551.72 3911.52 0
-1409.27 -467.07 4535.97 0
546.03 -290.38 2871.73 0
-257.431 -164.401 2168.9 0
-1390.2 -332.525 4573.09 0
-299.16 -115.667 2156.21 0
160.677 -15.0409 1772.94 0
-363.677 -17.6462 2234.59 0
420.695 70.2731 1328.56 0
24.1773 110.302 1772.03 0
-186.886 264.204 3565.91 0
-288.662 132.122 1686.64 0
-316.634 130.2 1645.31 0
-444.641 138.371 1563.56 0
-389.593 145.724 1482.51 0
-411.49 146.937 1464.52 0
-259.593 157.048 1504.22 0
-201.195 157.909 1477.81 0
-311.217 158.492 1464.85 0
-243.802 161.468 1486.29 0
389.544 188.865 1707.99 0
-393.157 163.861 1433.58 0
-480.053 180.784 1492.97 0
431.79 205.719 1652.05 0
-295.787 213.645 1396.05 0
76.1018 201.404 1281.82 0
-191.78 221.529 1372.62 0
-224.075 227.564 1382.66 0
-391.159 251.36 1269.85 0
-409.052 246.744 1217.76 0
-250.877 276.019 1335.98 0
-267.602 287.416 1261.14 0
133.599 177.234 717.414 0
119.046 179.902 722.678 0
119.037 179.885 722.544 0
105.646 181.519 724.327 0
129.86 180.912 718.943 0
141.856 182.776 718.344 0
166.669 185.002 710.67 0
98.6875 190.453 731.526 0
98.4692 189.903 729.572 0
-108.432 318.152 1130.87 0
-136.948 324.377 1109.67 0
62.7563 215.66 738.327 0
-144.983 329.713 1087.18 0
-154.152 -221.322 959.032 0
-42.8904 -199.751 1050.57 0
324.8 -127.475 1182.55 0
318.796 -122.011 1197.65 0
-560.897 -44.6656 2156.67 0
-605.669 -37.4362 2115.47 0
-680.387 -9.1808 2036.2 0
-647.625 -9.65557 2014.72 0
-597.426 16.2405 2066.44 0
-50.1137 113.745 1750.68 0
-49.6021 113.431 1729.51 0
-23.5467 112.654 1743.67 0
-77.245 110.766 1439.3 0
102.371 115.612 1568.92 0
-45.5413 122.225 1618.62 0
-95.1681 124.05 1591.91 0
351.011 155.485 1804.37 0
-122.387 138.153 1552.32 0
-223.416 143.155 1489.13 0
483.574 145.561 1403.55 0
-206.205 176.295 1497.71 0
455.467 221.232 1647.91 0
77.8547 195.509 1312.28 0
-274.639 236.809 1312.65 0
53.7166 187.282 914.53 0
-405.891 265.299 1242.53 0
95.1202 160.746 716.774 0
42.1969 166.86 734.838 0
106.837 174.461 725.355 0
-105.463 323.753 1125.05 0
35.422 269.948 906.153 0
293.969 -226.967 1133.59 0
119.937 -190.145 1128.78 0
-581.163 -42.0316 2144.79 0
-35.2705 -9.22989 2194.54 0
-603.934 29.9362 2030.61 0
442.61 27.8029 1395.24 0
413.598 40.9734 1367.74 0
-336.36 116.226 1711.09 0
-149.807 117.011 1713.39 0
-176.442 118.787 1719.51 0
-124.372 126.208 1573.54 0
-498.462 184.207 1494.56 0
-220.575 198.874 1490.14 0
-292.924 213.7 1437.91 0
-176.161 244.128 1351.63 0
-290.206 261.338 1318.09 0
-387.486 252.702 1218.8 0
80.2078 153.72 725.181 0
135.507 164.184 738.198 0
60.062 169.252 733.988 0
100.296 177.201 726.423 0
-388.011 301.851 1204.51 0
177.349 184.106 708.175 0
-4.19265 316.24 1212.89 0
64.8118 201.705 735.307 0
72.9569 204.452 733.735 0
-124.769 344.957 1123.21 0
70.9522 233.677 736.713 0
102.692 -190.633 1118.77 0
324.675 -148.298 1163.61 0
-884.57 -144.484 2619.07 0
-698.35 -31.1746 2051.66 0
449.888 96.8836 1365.55 0
-141.328 136.959 1552.58 0
-201.678 246.83 1356.03 0
82.9284 168.862 723.967 0
6.39077 291.662 1181.67 0
-133.892 328.387 1091.51 0
292.447 -376.149 1113.56 0
377.498 -195.61 1175.02 0
-859.495 -369.308 3235.31 0
-714.954 -65.0258 2140.21 0
457.823 29.3612 1350.95 0
129.036 167.374 1210.39 0
53.5672 206.708 1449.64 0
61.9885 192.904 1259.83 0
56.1454 219.001 1290.18 0
-189.388 233.544 1360.08 0
57.6068 183.629 736.831 0
69.2479 205.71 738.44 0
113.936 -209.286 1119.27 0
1114.31 -342.309 3420.71 0
120.525 -10.8951 1789.52 0
-433.268 167.458 1445.13 0
215.409 137.748 1165.18 0
67.7638 219.175 738.796 0
-78.0432 -218.558 997.063 0
17.9999 -228.657 1054.52 0
293.733 -235.677 1138.03 0
-700.466 -143.778 2598.18 0
117.708 246.601 1369.54 0
