ply
format ascii 1.0
element vertex 368
property float x
property float y
property float z
property uchar intensity
end_header
-475.193 -1462.74 4502.2 0
-373.641 -1474.73 4645.72 0
248.025 -960.069 3756.78 0
668.336 -900.949 3650.94 0
-686.019 -838.341 3509.57 0
996.87 -634.507 3168.5 0
-211.577 -312.122 1674.17 0
884.801 -482.378 2525.37 0
564.717 -522.063 2861.83 0
-139.718 -310.978 1759.64 0
-112.447 -283.631 1706.15 0
-120.786 -320.699 2222.24 0
-79.9457 -299.311 2217.42 0
-88.5628 -294.31 2248.33 0
107.547 -209.167 1690.09 0
77.9399 -202.872 1697.13 0
-676.823 -242.237 2115.89 0
404.065 -65.1496 1250.41 0
373.845 -31.047 1285.37 0
4.37377 28.4495 663.213 0
19.5839 31.7233 659.639 0
61.1927 45.3352 649.201 0
71.1323 50.7161 648.757 0
-241.302 91.3264 1064.62 0
-218.962 99.3997 1070.77 0
116.453 67.7643 639.258 0
120.738 69.226 638.73 0
126.677 71.5753 636.869 0
147.53 79.4464 631.203 0
-306.286 121.318 920.824 0
-68.2517 155.446 687.381 0
108.152 -365.145 1024.58 0
180.563 -353.233 1038.58 0
343.782 -330.227 1071.93 0
262.499 -972.115 3774.94 0
268.869 -963.202 3780.51 0
338.599 -831.674 3513.39 0
440.616 -854.524 3706.19 0
-579.824 -800.812 3491.94 0
-272.649 -471.287 2115.58 0
269.973 -243.244 1127.5 0
-290.735 -361.441 1819.05 0
1040.99 -626.679 3218.27 0
31.5025 -490.225 2587.67 0
-287.844 -324 1724.7 0
-183.771 -312.978 1703.81 0
-167.736 -315.649 1728.89 0
363.202 -258.923 1557.34 0
1058.76 -521.557 3280.05 0
-118.496 -328.233 2202.71 0
-104.214 -326.076 2226.3 0
-19.4267 -245.016 1737.69 0
-7.79933 -234.361 1699.71 0
1024.74 -469.527 3381.9 0
-73.8374 -296.897 2253.76 0
355.653 -191.123 1553.79 0
-415.194 -182.427 1583.16 0
920.915 -370.751 3289.23 0
-366.695 -178.873 1648.21 0
-337.769 -147.154 1440.87 0
-244.018 -134.336 1504.17 0
-104.299 -114.432 1542.09 0
-4.20413 -116.314 1656.58 0
-10.1026 -78.9499 1157.54 0
-28.5872 -79.7855 1176.29 0
452.12 -91.8079 1334.01 0
453.69 -85.1991 1318.23 0
453.69 -85.1991 1318.23 0
418.931 -79.226 1270.99 0
319.818 -55.4291 1287.95 0
353.831 -31.378 1333.02 0
382.467 -27.2697 1267.84 0
-377.594 -8.24047 1269.01 0
-163.267 20.1181 1361.35 0
44.4281 41.0747 700.2 0
48.986 40.8463 653.689 0
-221.101 89.6819 1074.84 0
97.9991 54.964 637.451 0
-235.474 100.357 1056.86 0
-227.284 104.525 1065.2 0
-234.772 104.594 1059.49 0
-44.7899 80.6913 680.146 0
-48.1231 80.9402 676.496 0
-51.4117 86.6766 673.738 0
-38.1865 91.542 679.243 0
-305.492 132.6 913.996 0
-61.2093 114.146 680.401 0
-61.2463 114.232 681.025 0
-53.6844 117.423 685.514 0
-76.5872 140.19 683.375 0
199.351 134.526 619.78 0
-71.4649 153.063 685.624 0
-59.8894 177.301 686.442 0
181.418 211.173 627.391 0
180.066 213.526 629.546 0
220.498 215.146 623.286 0
-310.934 -1548.34 4527.24 0
-367.116 -1093.04 3776.33 0
254.345 -951.666 3781.02 0
268.734 -901.04 3648.64 0
-284.948 -513.982 2199.48 0
-562.087 -822.125 3599.51 0
-291.327 -381.509 1821.36 0
-114.048 -299.743 1766.76 0
-61.7652 -309.978 2248.31 0
-129.517 -301.391 2216.61 0
-111.254 -286.544 2228.75 0
116.311 -218.221 1694.47 0
-430.513 -190.445 1612.07 0
-428.953 -189.407 1605.66 0
1068.14 -396.836 3346.06 0
988.134 -389.285 3388.53 0
968.745 -380.71 3326.05 0
-302.613 -172.221 1638.27 0
-301.22 -148.02 1483.92 0
-265.922 -150.825 1596.13 0
-52.9075 -126.204 1699.78 0
455.183 -98.2435 1347.57 0
315.296 -21.8626 1699.94 0
-402.379 -13.2441 1199.16 0
-323.186 -1.28157 1266.87 0
-234.075 96.45 1058.13 0
100.584 62.0388 642.294 0
99.6947 61.5296 640.003 0
-62.9244 90.2208 684.263 0
-291.934 125.181 934.007 0
-40.1556 89.6995 677.235 0
192.621 114.937 621.913 0
-73.5251 144.476 685.764 0
-62.9775 146.369 686.07 0
-62.9775 146.369 686.07 0
205.082 139.653 617.049 0
-88.348 167.643 696.176 0
192.851 173.102 620.572 0
193.515 173.526 622.551 0
196.984 203.569 630.022 0
181.925 213.701 626.421 0
227.16 -362.35 1016.15 0
105.767 -362.851 1030.5 0
-301.187 -1580.32 4571.56 0
-273.52 -1532.09 4505.1 0
-172.147 -1538.88 4546.06 0
-131.02 -1538.69 4560.63 0
-343.496 -1518.07 4506.01 0
-350.628 -1499.22 4519.1 0
60.9778 -1468.4 4659.21 0
-88.7912 -947.699 3579.76 0
396.37 -310.522 1168.64 0
397.275 -304.431 1150.85 0
278.457 -256.508 1090.13 0
271.412 -251.478 1101.22 0
267.658 -249.079 1106.64 0
293.901 -248.465 1112.06 0
270.286 -246.197 1121.28 0
391.552 -695.401 3300.56 0
1016.87 -637.878 3198.67 0
-312.819 -375.131 1933.6 0
1012.75 -497.826 3272.38 0
-111.472 -333.406 2243.52 0
-112.247 -298.99 2246.54 0
-134.736 -290.457 2194.95 0
318.277 -197.713 1661.63 0
-420.102 -191.232 1608.22 0
-62.8762 -139.021 1738.56 0
-98.1541 -116.178 1561.14 0
1.86245 -116.989 1583.52 0
436.425 -209.756 2841.6 0
390.176 -91.2034 1291.05 0
-16.0512 -103.695 1607.63 0
-361.428 -64.9845 1413.5 0
396.557 -43.7483 1276.5 0
351.456 -37.1281 1285.31 0
-337.56 -31.0206 1301.65 0
-344.968 -9.76857 1281.26 0
3.20003 0.18965 665.829 0
381.183 14.5734 1323.47 0
-292.582 18.8421 1294.59 0
-395.483 20.001 1172.09 0
-28.4796 17.1144 667.962 0
18.5108 27.0552 658.474 0
-41.3874 29.1847 674.595 0
-41.4287 29.1866 674.845 0
-20.6297 29.9999 667.977 0
-2.24243 33.1073 662.34 0
-19.4833 34.0524 670.289 0
14.1837 35.2435 667.962 0
29.9104 40.0547 658.544 0
35.1792 42.0261 657.496 0
40.3205 43.8258 656.157 0
44.8402 45.489 654.784 0
51.8106 48.0921 653.604 0
-237.676 86.0832 1066.61 0
67.0315 53.4558 648.663 0
-229.476 89.201 1071.85 0
-272.918 105.325 973.274 0
-45.9262 77.3409 678.44 0
-31.1023 98.6829 675.478 0
-54.95 104.115 679.099 0
-32.804 103.886 674.493 0
194.524 113.485 622.043 0
-74.0438 127.3 688.575 0
-67.5018 137.501 686.738 0
-70.0767 140.706 689.089 0
-70.0792 140.773 689.312 0
190.999 130.405 623.061 0
215.243 128.45 612.992 0
211.139 181.692 622.766 0
204.551 187.833 613.246 0
187.314 191.817 625.305 0
-343.322 -1568.17 4567.76 0
-871.027 -1087.42 3238.8 0
-132.732 -1763.86 5324.14 0
330.447 -340.332 1057.58 0
-95.0614 -1269.15 4168.13 0
-274.857 -503.998 2194.45 0
-633.247 -433.665 2024.06 0
-608.299 -434.619 2053.35 0
-615.644 -441.012 2083.32 0
-587.944 -433.445 2065.31 0
54.898 -980.49 4763.08 0
-302.643 -397.721 2073.95 0
-135.9 -249.941 1932.09 0
108.199 -217.632 1694.36 0
-388.133 -193.265 1618.85 0
-320.591 -165.654 1573.01 0
-250.394 -159.284 1645.16 0
-280.973 -137.649 1444.54 0
-260.408 -137.458 1483.06 0
119.737 -112.835 1258 0
-235.978 -134.543 1500.62 0
444.217 -252.662 2849.79 0
-325.885 -117.221 1414.33 0
-126.108 -138.034 1677.68 0
460.753 -236.323 2859.37 0
-308.925 -114.317 1407.96 0
-99.9802 -132.686 1670.98 0
-283.657 -107.769 1367.52 0
-123.711 -119.922 1546.54 0
-58.5605 -110.607 1557.8 0
54.8197 -64.3455 1534.85 0
-365.13 -52.3064 1382.06 0
-321.587 -41.6006 1315.54 0
-288.774 -39.5769 1305.58 0
370.732 -26.31 1290.82 0
-304.781 -8.42952 1309.19 0
373.394 -6.64892 1275.81 0
368.819 -4.73127 1287.4 0
-38.0797 11.6043 672.824 0
401.984 38.5683 1338.42 0
9.27046 31.655 660.403 0
9.27328 31.4235 660.224 0
22.6933 32.9571 658.658 0
22.6878 32.9475 658.523 0
37.4675 33.9684 653.432 0
0.499544 38.0726 667.896 0
0.407538 37.6201 665.908 0
33.077 36.7091 655.779 0
33.0016 36.6064 655.147 0
44.2746 41.1403 654.837 0
54.4602 48.797 651.482 0
62.2811 47.1962 645.994 0
67.95 49.3664 647.669 0
-40.1564 54.0963 675.837 0
-28.3992 53.2936 669.823 0
-258.688 90.2986 1050.71 0
-42.5372 59.634 677.144 0
-267.741 95.1965 1028.51 0
-32.1465 62.7557 673.461 0
-269.441 104.293 1040.69 0
-49.9872 74.9757 676.34 0
-37.0374 80.2617 676.341 0
-50.1086 105.7 676.762 0
-50.1086 105.7 676.762 0
-54.6143 120.702 683.537 0
-61.0852 121.58 679.538 0
-57.1503 123.135 678.559 0
185.687 209.693 627.18 0
-371.178 -1523.58 4497.96 0
-154.838 -1529.06 4574.97 0
-222.271 -412.084 1290.45 0
-1317.93 -1193.67 4401.77 0
-1317.28 -1193.18 4399.86 0
400.617 -1155.52 4448.26 0
282.969 -258.348 1080.33 0
-282.809 -370.675 1804.09 0
-295.157 -382.739 1930.76 0
-294.326 -419.176 2130.43 0
-315.517 -297.735 1571.6 0
-637.295 -376.344 1978.77 0
-200.963 -130.845 1510.82 0
-172.518 -127.453 1519.32 0
-202.252 -117.172 1480.36 0
-372.925 -58.6874 1259.76 0
-327.239 -44.5769 1353.9 0
-373.022 -39.225 1245.59 0
-336.986 -35.6546 1344.31 0
-330.394 -26.4908 1327.12 0
389.911 10.3947 1296.59 0
-377.561 15.0064 1197.61 0
3.65874 9.37607 651.181 0
-31.3463 15.0973 671.474 0
415 32.3062 1326.16 0
12.0164 24.7578 660.804 0
11.9366 24.6659 660.273 0
-35.0312 41.1883 671.938 0
-27.3436 54.0189 671.662 0
82.7963 55.5723 647.102 0
-227.844 95.7005 1066.46 0
-31.9681 67.1073 672.671 0
-69.4581 79.6086 679.14 0
-54.8786 100.109 682.113 0
-57.5922 108.212 682.79 0
177.511 106.588 625.827 0
208.086 118.908 614.834 0
-62.411 135.795 685.068 0
-65.0897 141.205 685.83 0
209.388 136.459 621.265 0
-1368.58 -1386.63 4330.88 0
292.621 -250.734 1100.19 0
-72.6803 -445.025 2190.88 0
-120.236 -302.422 2009.34 0
-220.444 -122.585 1480.28 0
-393.68 -19.219 1252.42 0
5.02957 25.8878 661.958 0
78.5561 51.05 645.269 0
-256.629 96.0979 1032.89 0
-251.411 112.127 1065.74 0
-36.206 73.556 675.521 0
-292.536 112.936 913.655 0
176.515 90.7046 623.783 0
-138.46 130.103 838.431 0
170.413 100.799 631.874 0
-49.4158 110.993 682.334 0
194.971 131.88 621.924 0
-41.3709 165.697 688.634 0
-44.5162 194.399 685.629 0
284.798 -351.093 1044.4 0
-646.749 -362.082 1943.83 0
125.181 -129.401 1209.68 0
-270.806 -130.077 1461.92 0
28.1169 12.4987 673.84 0
-27.7101 45.7853 670.662 0
-226.92 103.531 1066.46 0
-47.6342 94.3267 681.742 0
-77.0831 135.349 689.588 0
178.596 206.925 632.515 0
-434.082 -1485.28 4480.28 0
480.002 -1201.27 4399.23 0
255.996 -258.135 1050 0
-401.964 -180.96 1661.72 0
387.34 -79.7688 1280.33 0
-53.7536 -15.3756 724.784 0
-289.149 -26.519 1293.88 0
364.501 -16.8626 1299.22 0
-41.6614 -6.41878 670.681 0
-38.0028 21.8986 672.174 0
-47.5595 -293.463 2245.74 0
366.378 -196.205 1523.36 0
372.842 -46.6166 1278.06 0
367.647 4.97559 1318.15 0
-41.8035 5.91368 650.915 0
3.51925 16.3529 659.568 0
-36.0626 58.6014 676.605 0
-51.8932 106.527 682.838 0
-61.5263 171.355 690.259 0
237.164 -332.502 1057.91 0
403.755 -57.7647 1263.99 0
331.173 -46.1794 1256.07 0
