ply
format ascii 1.0
element vertex 290
property float x
property float y
property float z
property uchar intensity
end_header
-410.076 -194.515 3194.48 0
-154.973 -29.3707 1844.13 0
-126.887 -29.5326 1823.22 0
63.6447 194.878 710.386 0
81.6 197.378 709.464 0
136.158 203.491 698.401 0
76.5069 -182.721 1101.93 0
415.621 -521.012 3928.72 0
-964.022 -282.409 3537.65 0
-989.636 -270.013 3494.39 0
-766.179 -252.479 3460.3 0
-346.095 -121.297 2238 0
442.543 42.5547 1335 0
-347.189 148.652 1701.73 0
224.823 157.035 1455.59 0
352.99 231.584 1645.78 0
66.0257 197.865 712.935 0
125.259 200.526 699 0
181.76 208.854 690.131 0
184.204 209.211 688.72 0
195.036 210.45 686.292 0
-151.757 353.331 1098.19 0
-12.449 -322.262 3849.97 0
-76.7329 -312.523 3833.91 0
-816.408 -290.34 3596.11 0
58.7041 -310.54 3937.27 0
-200.436 -91.9515 2034.58 0
338.215 -44.7584 1621.64 0
-199.522 -18.9076 1769.96 0
418.759 101.026 1327.62 0
389.608 108.028 1392.32 0
63.0653 133.164 1712.25 0
64.7661 135.931 1680.33 0
-8.21079 134.457 1628.35 0
214.911 163.841 1438.49 0
359.501 224.467 1638.64 0
-68.1464 275.926 1466.23 0
-344.876 316.692 1249.55 0
72.5429 195.496 708.338 0
163.347 200.791 687.393 0
50.8788 212.931 716.921 0
174.416 208 689.616 0
36.2135 223.108 717.348 0
-153.384 349.187 1095.84 0
668.054 -1635.07 4718.47 0
658.142 -1650.86 4796.62 0
371.236 -179.86 1229.79 0
266.6 -110.826 1163.56 0
33.669 -289.9 3739.42 0
8.53836 -278.791 3722.64 0
49.2902 -284.703 3791.58 0
263.775 -88.4437 1198.8 0
-345.972 -138.792 2241.29 0
-342.589 -125.92 2201.97 0
-323.891 -123.995 2189.49 0
-320.624 -26.6504 1840.2 0
-158.263 -10.7385 1775.5 0
114.246 5.09294 1760.49 0
-136.101 11.0525 1888.47 0
471.722 27.2746 1399.39 0
394.99 36.637 1376.91 0
388.012 61.7091 1361.82 0
417.531 84.2966 1316.02 0
421.686 91.2484 1314.89 0
35.1077 127.289 1714.58 0
-39.6353 131.643 1759.45 0
20.0231 128.572 1713.38 0
-89.3721 135.653 1740.25 0
37.3287 131.932 1706.54 0
41.0938 138.944 1717.44 0
57.1336 136.716 1697.08 0
-411.79 149.22 1665.14 0
-216.125 147.808 1651.71 0
-357.694 157.266 1673.61 0
-214.155 154.342 1542.06 0
-250.883 155.403 1525.91 0
-444.541 193.704 1408.78 0
-38.3788 242.179 1428.07 0
59.2437 257.835 1399.04 0
-298.977 275.415 1372.16 0
-74.285 277.699 1400.37 0
-120.687 279.685 1375.47 0
-329.103 287.907 1313.76 0
56.4869 188.687 711.123 0
31.4386 194.564 717.753 0
77.0916 202.595 717.42 0
93.5454 203.078 708.028 0
109.335 204.741 704.221 0
127.607 207.249 702.068 0
132.782 207.069 698.039 0
-150.133 338.045 1111.66 0
32.2541 221.997 717.077 0
-152.908 345.165 1097.4 0
27.2913 239.69 723.773 0
1208.62 -1742.02 4860.6 0
1252.44 -1782.31 4946.98 0
-487.274 -1151 3422.06 0
266.662 -408.208 3400.29 0
-127.353 -572.142 4811.86 0
78.7498 -298.589 3838.59 0
67.7714 -146.537 2256.08 0
-319.186 -139.793 2148.8 0
5.38976 -186.381 2905.85 0
65.5447 -141.178 2325.54 0
-675.274 -81.9387 2864.54 0
332.426 -8.24058 1671.21 0
413.627 -0.438608 1925.71 0
439.873 -8.43598 2930.86 0
-143.546 26.684 2255.96 0
-125.544 27.2007 2293.34 0
126.928 22.7852 1930.58 0
-658.416 99.4906 1918.9 0
-0.186751 137.206 1719.63 0
-24.8299 138.277 1703.58 0
49.1387 141.08 1694.85 0
19.2818 139.423 1632.43 0
-401.806 145.846 1661.57 0
-5.62787 141.402 1627.46 0
-374.978 151.315 1645.07 0
-389.949 156.188 1631.7 0
-118.74 148.058 1571.9 0
-433.448 160.017 1649.37 0
122.21 155.393 1629.18 0
112.481 165.675 1666.92 0
-453.32 158.676 1557.93 0
-496.014 161.988 1517.3 0
42.5584 182.728 1243.54 0
-464.012 217.165 1441.06 0
67.6462 184.561 1213.22 0
-315.183 241.741 1460.08 0
-283.707 261.564 1346.72 0
-243.875 261.402 1339.43 0
-286.026 282.458 1324.81 0
-225.569 297.54 1267.84 0
-292.709 292.034 1224.67 0
4.58861 175.809 694.687 0
-335.119 305.399 1187.85 0
79.5072 193.001 708.593 0
-358.705 326.694 1164.86 0
99.5599 195.107 703.492 0
107.803 200.646 704.554 0
41.9933 205.324 717.067 0
99.1284 203.737 706.958 0
104.55 204.237 705.608 0
21.554 209.66 723.295 0
44.0128 209.167 719.125 0
-141.881 336.839 1114.79 0
38.1368 240.131 720.105 0
-141.13 -203.118 953.005 0
-70.8755 -205.895 978.266 0
-70.6519 -204.351 971.766 0
99.6686 -209.706 1047.27 0
-18.7171 -175.44 1074.38 0
74.6711 -179.542 1107.63 0
-223.636 -158.724 1039.08 0
-132.967 -507.338 4871.36 0
470.71 -263.3 2867.27 0
-1497.42 -296.382 4531.82 0
-309.525 -45.7126 1871.81 0
-341.496 -19.0325 2164.86 0
-426.529 7.33458 2211.82 0
106.476 7.48123 1760.17 0
171.046 9.55977 1283.07 0
406.218 29.126 1406.11 0
386.237 99.6355 1345.06 0
-29.8719 132.927 1756.14 0
310.096 164.273 1843.66 0
414.533 123.664 1334 0
-341.019 154.618 1664.74 0
410.45 127.366 1345.34 0
-257.933 171.34 1709.52 0
-494.634 160.446 1538.7 0
-167.902 167.407 1516.03 0
-438.054 167.397 1458.68 0
-459.606 168.548 1440.26 0
452.273 165.564 1394.01 0
-286.894 175.537 1476.75 0
-249.59 179.412 1457.48 0
336.711 210.916 1698.68 0
-440.674 185.32 1409.6 0
361.506 230.851 1639 0
48.336 189.525 1212.86 0
-342.568 234.86 1373.71 0
-39.2545 244.702 1422.18 0
-270.603 248.663 1361.61 0
-275.832 266.137 1371.97 0
-296.474 296.932 1314.23 0
50.0487 176.247 690.875 0
28.1731 193.493 721.333 0
-327.604 318.638 1161.93 0
84.9125 197.81 708.467 0
84.9056 197.792 708.333 0
71.4848 199.445 709.855 0
95.7958 198.794 704.934 0
132.759 202.819 697.341 0
-31.8432 354.851 1144.27 0
40.8535 230.435 718.994 0
28.3679 233.682 722.89 0
-185.841 349.441 1067.24 0
-83.5376 -180.261 1034.91 0
-1516.67 -431.274 4496.87 0
-1515.91 -431.074 4494.94 0
281.651 -107.694 1173.5 0
275.367 -102.159 1188.47 0
-642.296 -17.275 2118.03 0
-622.261 -19.8725 2130.3 0
-666.238 -12.7899 2088.23 0
-657.021 40.6628 2039.13 0
-103.742 136.335 1733.36 0
-102.83 135.927 1712.21 0
-77.0482 135.192 1726.86 0
-96.6624 144.227 1601.38 0
296.331 177.993 1794.45 0
434.365 137.97 1353.92 0
463.602 155.696 1382.48 0
-272.035 164.725 1468.45 0
-265.525 173.087 1467.2 0
436.451 166.191 1396.27 0
36.9854 157.086 1237.82 0
380.024 227.488 1643.47 0
-269.165 220.446 1469.26 0
31.4063 221.819 1266.6 0
-238.13 242.558 1352.22 0
-284.407 259.915 1389.6 0
-68.7636 280.441 1431.31 0
-246.714 276.681 1353.41 0
-228.603 299.423 1337.26 0
61.0859 178.646 702.196 0
7.83532 184.883 719.227 0
72.6503 192.391 710.937 0
72.5545 192.282 710.412 0
64.3992 208.416 716.882 0
64.2175 207.857 714.927 0
-147.049 343.618 1105.88 0
-178.237 344.198 1089.9 0
-62.6282 -206.726 981.979 0
-226.5 -113.193 1316.29 0
448.652 31.2143 1396.99 0
395.548 48.4299 1387.7 0
367.074 61.5017 1359.6 0
-111.444 124.595 1792.54 0
-42.6698 125.423 1795.46 0
-202.709 139.515 1694.18 0
-229.454 141.34 1699.79 0
89.661 202.869 1182.26 0
-324.192 239.692 1306.05 0
-222.095 265.051 1331.42 0
15.9681 206.09 899.013 0
101.063 182.147 724.365 0
25.7154 187.256 718.705 0
48.7671 186.804 709.121 0
66.0929 195.14 711.869 0
-47.4675 336.413 1195.65 0
143.484 201.903 695.053 0
38.6437 222.445 718.541 0
-299.886 -319.568 3678.01 0
-662.838 54.2051 2003.12 0
-389.185 138.868 1688.35 0
403.448 117.373 1357.85 0
-174.621 148.073 1554.8 0
-191.168 158.745 1533.47 0
-340.498 235.098 1415.61 0
17.7046 213.232 1244.38 0
-54.9789 258.223 1431.41 0
11.3107 239.468 1274.5 0
-247.689 267.793 1335.33 0
-335.47 282.203 1295.66 0
-22.4662 255.694 1000.54 0
-36.3163 311.689 1164.75 0
-165.828 350.879 1096.02 0
-174.834 348.126 1071.78 0
334.423 -175.903 1167.27 0
-941.516 -339.503 3204.51 0
411.599 49.7802 1343.7 0
403.788 242.965 1639.72 0
85.6538 187.431 1196.33 0
-235.49 254.516 1339.67 0
16.0167 185.48 701.223 0
23.2194 201.648 721.438 0
250.392 -356.645 1105.01 0
71.9518 -189.616 1106.6 0
1028.44 -313.252 3427.14 0
66.0209 11.7322 1775.97 0
404.966 85.1006 1338.91 0
172.841 157.537 1152.9 0
34.4686 240.484 1229.61 0
251.337 -216.067 1128.88 0
432.636 66.334 1326.26 0
415.739 233.749 1337.82 0
71.3836 267.371 1354.89 0
