ply
format ascii 1.0
element vertex 369
property float x
property float y
property float z
property uchar intensity
end_header
469.019 -863.314 4012.43 0
469.524 -864.82 4019.25 0
472.122 -840.48 3997.93 0
-116.823 -339.408 2288.74 0
1064.27 -471.116 3423.65 0
-357.819 -218.73 2053.72 0
-91.0942 -183.107 1827.52 0
-88.8367 -178.997 1822.7 0
-68.4325 -172.282 2322.7 0
103.734 107.842 704.637 0
121.607 110.832 703.588 0
59.2548 251.483 736.394 0
205.419 -292.758 1088.02 0
131.964 -290.064 1074.67 0
531.197 -898.086 3849.13 0
52.461 -1225.34 5372.62 0
75.5387 -889.575 3933.33 0
175.067 -858.759 3815.69 0
522.263 -873.874 3948.54 0
483.739 -884.575 4015.4 0
524.584 -492.327 2790.54 0
-866.37 -547.887 3516.44 0
-892.969 -533.794 3474.31 0
-670.576 -508.897 3437.92 0
-273.568 -301.036 2218.55 0
-245.687 -160.161 1783.04 0
-27.7798 -169.326 2267.35 0
-34.9226 -162.217 2298.23 0
461.886 -12.31 1328.11 0
121.946 -3.74017 1669.77 0
-289.795 -2.42163 1697.95 0
131.783 64.3129 1037.07 0
106.084 110.743 707.31 0
175.818 118.889 692.068 0
221.138 125.823 683.428 0
234.309 127.954 679.486 0
-118.12 227.971 1109.09 0
-94.5564 231.476 1114.96 0
-109.104 239.572 1103.7 0
62.2809 177.353 725.088 0
60.7236 250.117 729.761 0
537.216 -887.871 3855.22 0
186.993 -873.191 3833.96 0
465.537 -892.682 4073.05 0
560.606 -853.226 3890.32 0
531.971 -825.9 3843.67 0
567.194 -816.96 3829.82 0
497.753 -822.704 3932.23 0
524.734 -773.127 3873.35 0
-717.682 -555.323 3572.18 0
-704.263 -553.671 3569.77 0
-134.966 -568.036 3745.78 0
26.0593 -572.063 3797.41 0
-114.472 -245.276 1985.86 0
-105.039 -223.525 1816.23 0
-633.646 -293.357 2413.3 0
-552.227 -267.88 2366.34 0
-548.058 -265.864 2347.95 0
-95.9391 -160.855 1760.06 0
-66.2052 -189.813 2295.16 0
-2.93427 -183.719 2295.02 0
-629.582 -88.5863 1960.86 0
-597.835 -64.5036 1882.56 0
18.9701 -14.9143 1750.08 0
93.0608 -14.9654 1703.94 0
77.9324 -13.9935 1703.03 0
442.665 -7.87039 1375.88 0
114.569 -4.05703 1686.65 0
48.1949 -4.19326 1618.88 0
-300.957 7.44612 1670.5 0
-196.534 16.2708 1521.35 0
-435.634 61.6117 1404.48 0
109.907 78.1142 1197.91 0
32.2225 110.077 1352.72 0
-298.818 189.975 1255.66 0
202.882 117.467 680.527 0
206.883 123.951 685.233 0
205.888 123.596 682.957 0
213.809 124.816 682.976 0
-96.6485 229.508 1110.25 0
-110.669 235.523 1101.15 0
71.1157 175.667 716.082 0
74.9216 179.912 720.562 0
52.7905 185.114 727.719 0
-177.096 268.209 965.207 0
70.2697 221.654 727.761 0
57.0803 248.403 728.064 0
159.454 -299.346 1081.01 0
428.568 -286.856 1198.11 0
437.391 -288.177 1205.82 0
373.289 -1004.72 4346.95 0
495.477 -899.23 3935.1 0
195.077 -865.658 3839.34 0
465.443 -909.986 4043.09 0
509.423 -874.736 3890.93 0
384.468 -794.938 3762.13 0
321.252 -216.937 1137.32 0
315.618 -204.713 1168.34 0
160.188 -753.379 4421.11 0
165.254 -777.15 4558.46 0
307.404 -200.609 1200.57 0
-592.178 -563.002 3661.07 0
-606.279 -540.216 3553.26 0
-119.113 -553.453 3698.09 0
-80.7823 -557.046 3730.4 0
-144.583 -539.474 3648.04 0
15.4746 -546.958 3727.02 0
134.346 -541.602 3702.67 0
69.0327 -529.868 3680.21 0
108.688 -530.222 3686.9 0
150.679 -538.864 3754.8 0
-272.972 -318.675 2220.88 0
-270.535 -303.603 2182.27 0
1137.55 -484.136 3659.1 0
1137.05 -483.767 3656.73 0
482.816 -185.143 1978.29 0
-69.8342 -167.471 2059.61 0
-638.181 -150.041 1985.33 0
-609.925 -147.786 2033.98 0
-55.7716 -150.345 2278.66 0
-590.584 -48.1516 1825.22 0
83.0495 -17.0024 1629.95 0
-31.1524 -11.0999 1731.86 0
95.0397 -9.83895 1696.13 0
57.6252 -6.21649 1710.04 0
32.7073 -4.88488 1694.44 0
-354.974 -1.46591 1662.4 0
106.437 0.221782 1684.78 0
-318.552 2.63027 1641.94 0
-398.447 12.776 1556.5 0
-159.535 15.2433 1536.87 0
-441.859 17.2342 1516.75 0
58.5062 83.2667 1342.35 0
-249.967 143.239 1375.14 0
-77.9729 150.111 1353.72 0
-281.324 158.14 1317.96 0
-372.836 154.123 1262.72 0
-275.261 181.411 1234.75 0
-411.332 185.001 1199.14 0
79.8126 113.202 708.741 0
38.3476 145.101 859.87 0
90.6471 125.19 712.34 0
-110.072 231.434 1102.48 0
85.2562 193.172 721.497 0
-174.113 278.994 958.183 0
72.3538 227.389 726.991 0
57.842 232.381 729.419 0
69.093 233.628 725.212 0
146.819 -318.495 1010.63 0
154.879 -313.452 1018.28 0
426.624 -292.365 1216.02 0
259.678 -280.034 1176.4 0
-951.563 -766.208 3306.82 0
499.377 -884.881 3987.01 0
253.594 -805.674 3708.5 0
463.268 -614.39 3218.16 0
315.469 -210.421 1148.37 0
181.219 -554.553 3800.55 0
379.584 -206.879 1536.53 0
-244.743 -204.758 1856.55 0
-58.2753 -179.482 1824.21 0
477.894 -144.565 1902.11 0
-83.6628 -150.322 2245.21 0
465.834 -74.4274 1334.71 0
-596.204 -71.027 1916.69 0
28.645 -13.2096 1746.69 0
-186.537 -6.55358 1705.79 0
-344.972 -4.3922 1658.51 0
-392.067 -0.412037 1612.01 0
-320.937 6.98095 1559.44 0
-200.994 22.0153 1705.65 0
-199.459 17.5555 1493.08 0
369.135 21.7486 1830.75 0
-169.2 33.9184 1478.07 0
-392.921 56.0729 1409.38 0
-263.939 104.441 1461.31 0
-234.783 131.176 1348.75 0
-237.956 153.167 1328.05 0
94.7436 81.9743 710.303 0
44.9059 88.1962 688.795 0
-246.484 168.008 1228.71 0
-178.806 172.821 1271.11 0
43.4455 98.9534 708.64 0
96.7398 101.444 705.14 0
119.606 106.459 702.509 0
-282.478 190.809 1218.7 0
70.8279 117.602 726.856 0
117.105 115.496 711.883 0
81.9498 117.368 712.201 0
133.388 116.897 702.288 0
138.936 117.751 701.174 0
144.321 118.458 699.773 0
61.5159 120.851 718.959 0
83.9098 121.142 714.436 0
149.07 119.156 698.345 0
-331.742 199.914 1162.72 0
156.41 120.284 697.078 0
159.127 120.408 694.927 0
85.3938 124.579 714.505 0
167.239 122.229 696.062 0
172.351 122.397 691.953 0
-348.298 205.462 1115.39 0
-359.435 215.424 1124.04 0
-99.6867 226.193 1115.8 0
66.5393 150.944 720.997 0
77.3104 151.853 717.198 0
66.7942 168.988 722.012 0
85.58 186.861 718.597 0
63.3479 197.037 722.272 0
68.387 197.58 719.878 0
68.387 197.58 719.878 0
-188.77 274.644 935.835 0
60.8563 215.385 722.451 0
65.014 216.1 721.422 0
23.936 265.144 866.875 0
80.9034 225.898 726.325 0
-87.5007 -307.72 928.1 0
-16.8008 -310.124 952.127 0
36.16 -283.658 1048.98 0
130.145 -287.247 1080.57 0
233.855 -772.044 3654.81 0
465.83 -772.31 3851.83 0
364.593 -635.47 3354.16 0
556.469 -456.764 2826.91 0
1087.81 -478.551 3390.42 0
-1383.14 -629.147 4516.16 0
-290.478 -265.638 2117.69 0
-462.813 -232.444 2217.34 0
359.141 -132.982 1671.15 0
-357.472 -173.204 2200.65 0
168.005 -135.27 1741.83 0
-71.8045 1.70979 1414 0
-497.95 4.83841 1621.91 0
-284.369 5.6992 1661.25 0
-440.097 14.5651 1538.01 0
466.262 11.5291 1318.14 0
94.6972 19.0667 1248.95 0
-385.001 27.2598 1457.66 0
-406.869 28.8759 1439.66 0
90.3084 30.8187 1231.46 0
-196.923 43.9908 1454.33 0
-388.842 47.7555 1409.68 0
-412.425 77.2537 1443.18 0
-292.544 101.592 1375.1 0
11.1909 116.301 1419.54 0
-226.612 134.563 1374.1 0
-195.082 132.399 1340.87 0
-378.945 124.351 1206.77 0
-388.4 143.425 1250.58 0
-406.032 141.034 1198.25 0
-248.917 167.933 1318.44 0
68.4877 104.984 716.017 0
139.518 109.336 697.234 0
124.892 111.4 702.567 0
124.883 111.389 702.432 0
111.453 112.623 704.241 0
135.69 112.845 698.932 0
147.641 115.011 698.475 0
-283.016 197.113 1168.04 0
166.414 117.181 689.42 0
104.269 121.02 711.853 0
104.069 120.565 709.873 0
172.419 118.191 691.023 0
83.6622 133.354 712.665 0
25.4751 211.522 1089.68 0
-106.896 223.62 1116.28 0
-115.605 222.137 1111.14 0
67.7451 145.021 719.77 0
-135.488 230.25 1095.31 0
11.4687 241.555 1148 0
38.6795 190.13 890.005 0
78.3531 156.067 716.333 0
-143.58 236.527 1073.09 0
76.0687 170.027 719.809 0
-172.509 266.643 990.852 0
-201.906 257.844 905.342 0
-200.657 266.384 915.752 0
-229.735 267.437 837.458 0
60.9413 235.509 728.433 0
-215.727 267.958 814.589 0
355.007 -310.002 1105.88 0
-206.512 -329.227 1312.01 0
336.383 -213.978 1147.2 0
330.21 -209.423 1162.54 0
-1399.71 -762.374 4474.15 0
-1398.99 -762.051 4472.23 0
-553.789 -200.781 2120.67 0
-598.597 -192.513 2079.71 0
-640.895 -160.656 1980.31 0
-591.458 -136.256 2033.48 0
239.935 -130.649 2228.77 0
236.714 -119.487 2286.61 0
-45.6441 -10.4012 1725.24 0
-171.966 -6.69541 1693.86 0
26.0092 0.542903 1613.44 0
-40.191 5.19641 1594.12 0
178.073 19.8943 1618.92 0
-117.893 22.3164 1528.07 0
-218.829 28.1773 1464.81 0
354.251 37.7797 1782.58 0
-476.277 59.6598 1469.5 0
-217.281 83.8261 1468.63 0
81.6567 96.2925 1292.03 0
137.176 90.7916 1175.8 0
-271.698 129.415 1293.06 0
-198.059 146.82 1355.71 0
-384.613 147.425 1199.68 0
-403.372 158.383 1223.94 0
101.433 92.0208 695.609 0
48.3306 95.9993 713.744 0
112.805 105.552 704.917 0
112.703 105.47 704.389 0
-386.234 197.207 1187.88 0
-104.041 229.574 1110.77 0
62.6405 193.146 725.352 0
61.6188 201.639 725.909 0
70.183 202.71 725.355 0
-214.529 255.46 885.572 0
-213.923 266.807 868.936 0
-876.392 -331.207 2576.15 0
-673.721 -162.018 2001.66 0
-631.707 -123.897 1940.36 0
449.955 -66.9624 1367.91 0
-145.279 -7.54841 1687.76 0
-90.4686 6.86262 1567.01 0
-119.661 9.27302 1548.66 0
86.7305 49.5202 1224.79 0
-289.803 99.6017 1416.92 0
-275.384 110.552 1307.55 0
-287.844 153.273 1299.67 0
106.199 108.083 706.096 0
183.124 117.668 688.53 0
70.1316 131.287 716.059 0
78.2154 134.295 714.66 0
-123.827 250.395 1109.92 0
75.5264 163.279 719.098 0
-282.05 253.485 880.703 0
246.801 -282.98 1083.06 0
133.18 -278.545 1089.52 0
-691.214 -185.17 2015.92 0
-598.179 -120.923 1998.35 0
455.718 3.67691 1341.77 0
-136.802 20.6756 1528.2 0
-494.765 62.5746 1471.19 0
-4.70154 128.906 1429.73 0
-199.113 138.907 1337.19 0
66.1379 98.8401 713.088 0
8.36214 197.246 1166.15 0
-132.473 235.241 1077.38 0
68.5696 186.019 725.035 0
48.0508 232.245 732.363 0
-847.891 -586.197 3180.38 0
274.719 -397.372 2341.36 0
-707.285 -223.818 2102.59 0
465.256 -62.8228 1323.82 0
56.722 99.9868 1429.69 0
66.0058 95.9729 1239.46 0
-186.531 125.72 1340.61 0
59.4731 120.365 1271.06 0
56.2032 97.7774 695.681 0
63.3425 112.996 716.642 0
-181.938 272.591 952.157 0
127.651 -297.314 1079.02 0
1124.22 -523.255 3374.87 0
-429.059 49.8432 1421.24 0
72.6685 148.621 720.435 0
66.8627 198.842 725.95 0
-692.294 -325.22 2556.06 0
-274.133 266.677 868.606 0
