ply
format ascii 1.0
element vertex 342
property float x
property float y
property float z
property uchar intensity
end_header
-511.881 -962.055 5372.36 0
8.87814 -717.696 4052.44 0
18.7761 -687.119 4035.58 0
17.0931 -669.4 4069.99 0
1193.76 -571.179 3553.55 0
1276.2 -601.685 3748.78 0
1263.59 -421.896 3623.37 0
-575.837 -406.505 3758.07 0
-509.182 -218.144 2150.39 0
1230.28 -214.65 3431.03 0
-391.649 -89.4241 1780.89 0
-403.701 -55.5875 2267.05 0
-369.735 -46.2695 2252.93 0
-110.839 145.353 663.488 0
-114.121 147.374 662.693 0
-96.3313 150.114 661.891 0
-115.033 -232.527 1052.22 0
-274.416 -670.226 3812.92 0
16.6884 -699.543 4031.92 0
4.42631 -665.994 4030.55 0
4.42597 -667.175 4037.45 0
602.836 -539.597 3319.65 0
544.858 -455.022 3284.34 0
501.539 -425.92 3350.22 0
483.175 -352.165 3464.09 0
-1088.44 -337.064 3358.39 0
-602.746 -219.015 2334.98 0
-592.611 -160.89 2146.38 0
-389.025 -85.5528 1776.06 0
-392.246 -82.925 1763.17 0
-356.576 -65.1174 1710.6 0
-405.937 -42.0353 2257.11 0
-367.525 -21.6034 1751.63 0
197.097 56.3197 1315.6 0
-248.498 74.6312 1713.14 0
-330.062 83.5507 1667.11 0
-131.851 83.5747 1606.24 0
127.833 177.119 1606.43 0
120.77 184.041 1613.22 0
-112.195 150.289 664.938 0
-41.2551 157.669 654.903 0
-11.5405 162.128 650.195 0
11.7769 165.128 646.373 0
70.7778 166.272 631.949 0
40.3909 169.103 641.736 0
-341.043 290.787 1051.17 0
103.116 211.666 631.556 0
122.396 216.539 636.372 0
-272.022 -236.781 976.813 0
-42.7581 -234.728 1071 0
-263.928 -683.796 3832.66 0
21.4373 -700.733 3968.37 0
-3.61291 -692.437 4092.08 0
561.282 -541.409 3267.16 0
-332.697 -536.125 4409.98 0
-341.349 -515.638 4494.55 0
518.67 -361.656 3373.99 0
1272.19 -395.356 3614.7 0
-420.138 -384.429 3770.28 0
1221.97 -361.475 3506.86 0
530.389 -335.589 3334.87 0
525.369 -317.663 3479.47 0
-577.731 -190.124 2115.54 0
114.888 -139.064 1573.46 0
550.887 -276.139 3411.29 0
534.154 -260.652 3368.89 0
136.182 -109.759 1633.23 0
1172.38 -199.105 3415.06 0
129.205 -79.4888 1589.37 0
11.0819 -118.333 2517.99 0
-450.443 -80.1657 1705.57 0
9.40294 -66.9836 1853.5 0
108.07 -51.6679 1616.01 0
-118.958 -48.4498 1712.9 0
-374.332 -9.82956 1835.08 0
232.482 3.54229 1326.49 0
174.478 63.0656 1361.58 0
194.695 61.9244 1320.56 0
207.404 57.1537 1298.6 0
-257.75 187.483 1373.67 0
-105.137 148.202 661.159 0
-65.2322 152.838 658.638 0
-342.798 288.601 1046.41 0
102.183 173.978 629.109 0
-356.086 294.203 1036.04 0
117.27 176.777 628.876 0
-347.753 297.135 1044.75 0
-354.688 298.366 1038.5 0
210.574 194.603 617.847 0
-150.197 212.501 676.039 0
-153.169 213.192 672.143 0
190.562 199.287 618.277 0
129.354 206.191 632.595 0
172.152 203.1 621.191 0
208.058 207.947 616.131 0
109.905 214.942 628.511 0
109.946 215.339 629.016 0
-81.1376 -247.623 1042.72 0
-177.344 -243.382 1018.27 0
-88.1267 -241.551 1060.97 0
-131.686 -219.473 1078.89 0
180.057 -225.005 1205.04 0
272.995 -225.403 1240.71 0
-256.215 -676.031 3838.26 0
-1.62274 -711.147 4063.04 0
498.077 -572.692 3456.9 0
69.5951 -156.876 1124.96 0
526.887 -392.74 3421.73 0
1273.65 -413.705 3617.11 0
527.316 -372.615 3368.82 0
1258.87 -404.863 3611.18 0
6.81446 -114.875 1100.11 0
-1032.87 -362.987 3479.46 0
-425.44 -362.682 3698.19 0
-454.82 -297.832 3105.48 0
-368.529 -347.946 3654.65 0
-190.072 -204.467 2204.19 0
-308.192 -205.371 2197.52 0
-584.149 -193.012 2117.06 0
-195.233 -212.785 2362.21 0
-171.858 -171.764 2088.11 0
1223.25 -289.012 3618.33 0
-430.432 -145.464 1954.11 0
-429.551 -145.085 1951.5 0
-556.765 -125.498 1831.99 0
-17.0944 -131.999 2102.12 0
-558.77 -117.131 1816.74 0
-553.888 -97.7883 1813.5 0
99.6386 -52.8756 1668.44 0
-409.179 -46.8593 2218.62 0
-389.041 -35.3009 2231.35 0
182.326 -8.08113 1346.1 0
-323.977 77.717 1681.83 0
-244.029 86.6267 1684.24 0
267.088 75.2431 1317.72 0
-344.013 90.6259 1512.16 0
-386.378 93.0101 1537.51 0
245.862 99.392 1360.75 0
211.306 101.802 1351.87 0
-16.805 117.226 1408.95 0
-462.511 227.718 1429.86 0
361.94 179.831 1045.48 0
120.456 185.68 624.664 0
137.666 188.143 621.784 0
92.3521 194.029 634.13 0
-132.812 227.004 671.539 0
-90.4737 -263.343 993.727 0
-99.3361 -257.437 1045.9 0
-15.0539 -241.43 1048.23 0
-300.591 -224.507 978.629 0
-14.7851 -233.093 1049.15 0
-14.7851 -233.093 1049.15 0
-208.679 -227.162 1019.33 0
-117.26 -229.429 1057.82 0
578.2 -546.869 3298.87 0
21.7824 -607.934 3997.02 0
74.2383 -160.208 1115.63 0
-50.6249 -469.528 3356.37 0
553.111 -456.756 3400.42 0
61.7872 -143.179 1154.87 0
598.543 -404.547 3365.16 0
529.636 -398.768 3366.04 0
502.095 -386.836 3511.3 0
-288.324 -250.137 2849.12 0
-187.38 -189.68 2192.38 0
1247.64 -300.667 3637.85 0
-579.893 -127.853 1865.06 0
1171.4 -206.874 3365.59 0
104.182 -56.3484 1636.11 0
-369.542 -54.4938 2229.76 0
-410.641 -36.4777 2196.13 0
258.65 -21.9577 1386.89 0
201.409 -18.5897 1343.71 0
122.815 -33.0308 2878.99 0
218.241 -1.15616 1307.91 0
274.512 8.00985 1308.9 0
221.742 14.6534 1284.7 0
164.306 45.8343 1288.87 0
-265.428 76.1972 1701.07 0
-257.533 82.0178 1648.91 0
202.316 79.6485 1304.85 0
-137.019 104.352 1541.84 0
-362.829 107.398 1456.43 0
-390.347 109.267 1453.69 0
-406.687 109.735 1440.31 0
247.823 112.423 1356.22 0
235.64 121.959 1367.15 0
101.982 162.655 1664.99 0
8.08416 168.511 1612.09 0
129.67 183.543 1606.94 0
346.006 157.173 1047.45 0
-121.168 141.022 662.988 0
-98.1438 145.86 661.795 0
-138.248 152.971 664.785 0
-101.271 155.338 670.525 0
-84.3258 156.249 662.087 0
-157.197 161.134 673.269 0
-78.7073 157.038 661.34 0
-73.2306 157.667 660.304 0
-68.3869 158.286 659.194 0
-60.968 159.338 658.413 0
-58.1011 159.355 656.463 0
-50.0833 161.212 658.099 0
-44.6849 161.173 654.369 0
-345.402 281.983 1055.54 0
-353.489 283.027 1051.95 0
-346.249 285.56 1051.88 0
-355.609 290.181 1037.6 0
-152.172 191.279 674.241 0
-151.893 209.351 674.418 0
111.293 198.252 626.654 0
222.468 196.836 610.611 0
-143.623 220.178 673.048 0
152.85 208.644 627.253 0
93.9005 209.544 634.4 0
205.509 209.962 617.793 0
195.928 209.718 613.909 0
195.774 209.567 613.39 0
200.884 210.477 612.993 0
200.841 210.43 612.851 0
-254.601 -258.101 920.239 0
198.538 -270.733 1112.54 0
105.039 -251.399 1100.5 0
308.323 -226.711 1242.75 0
1274.91 -478.623 3745.2 0
1261.97 -194.089 3548.67 0
-559.61 -105.796 2023.8 0
0.933635 -100.65 1950.18 0
34.8282 -156.491 3065.26 0
-577.685 -84.0147 1895.09 0
36.3325 -136.055 3041.95 0
-365.308 -76.7182 1771.64 0
43.9178 -100.508 2941.24 0
79.196 -79.1047 2908.04 0
278.533 -6.85457 1322.83 0
-298.761 86.4625 1559.1 0
-465.834 91.0901 1552.17 0
197.514 83.182 1315.96 0
-427.145 92.811 1465.33 0
-163.189 84.6199 1208.49 0
-166.231 95.5351 1190.19 0
219.704 122.221 1368.5 0
147.976 180.559 1612.44 0
-443.75 241.135 1272.5 0
-77.2799 135.377 678.708 0
-101.193 149.46 663.616 0
-77.8862 148.443 657.856 0
-92.8493 150.788 662.005 0
-92.8482 150.771 661.87 0
-106.367 152.116 662.635 0
-81.8079 152.037 659.102 0
-136.345 157.293 668.191 0
-69.8434 154.156 659.416 0
-134.533 161.165 670.382 0
-44.5728 156.928 653.647 0
-149.669 176.247 669.198 0
-139.22 181.749 668.315 0
-150.912 185.302 673.387 0
72.9007 179.05 633.701 0
-355.621 311.61 1057.95 0
96.2223 190.292 634.039 0
-156.215 207.734 672.137 0
213.113 192.805 614.614 0
-142.477 210.266 672.85 0
114.724 202.038 625.753 0
10.7131 -214.893 1140.8 0
63.391 -167.095 1085.19 0
-522.456 -691.043 4781.71 0
506.198 -488.842 3469.42 0
-530.781 -587.555 4801.75 0
139.937 -62.8159 2899.8 0
-337.945 78.1285 1674.15 0
-310.906 77.6202 1669.17 0
-461.628 80.5864 1633.5 0
-142.44 78.3392 1563.4 0
-269.116 83.9486 1608.39 0
-286.44 83.9275 1562.79 0
162.992 70.5714 1314.73 0
-323.564 87.0811 1542.83 0
-395.489 101.569 1470.91 0
220.659 94.2518 1325.95 0
-73.5208 131.254 682.07 0
-105.107 145.082 663.742 0
-105.171 144.975 663.212 0
-148.337 171.403 670.514 0
-138.156 182.359 670.191 0
67.112 185.357 643.078 0
-173.458 205.103 672.112 0
134.188 190.417 623.622 0
130.29 198.302 619.08 0
-150.19 214.403 666.05 0
143.903 203.724 613.949 0
98.1561 210.107 633.493 0
346.001 -298.829 1154.29 0
-114.75 -221.712 1073.38 0
22.9434 -218.762 1115.68 0
543.66 -424.038 3369.69 0
-376.235 -48.8992 1826.45 0
185.873 -16.0155 1336.31 0
182.007 3.64689 1356.96 0
154.887 16.2792 1327.36 0
-434.575 79.3916 1629.42 0
-346.509 87.3881 1525.59 0
-371.053 87.9317 1512.43 0
-363.078 99.1598 1539.78 0
-169.213 113.905 1182.4 0
-29.5004 108.348 1097.63 0
171.562 196.582 1610.13 0
353.649 154.131 1055.66 0
-152.28 138.859 668.799 0
-111.767 147.68 664.315 0
-114.04 160.88 669.298 0
-33.718 156.266 651.968 0
-143.003 203.493 672.421 0
168.296 191.858 609.621 0
73.9296 206.714 638.185 0
1164.24 -169.359 3346.04 0
190.039 72.9507 1328 0
-398.82 89.5236 1491.9 0
-414.365 99.9735 1469.73 0
-463.923 101.736 1448.04 0
213.764 169.677 1345.61 0
272.892 151.25 1080.85 0
-274.869 203.134 1376.14 0
-92.753 130.652 678.527 0
-140.156 174.325 669.568 0
-150.25 226.503 676.753 0
-354.148 -45.7726 2117.7 0
234.871 -12.455 1369.16 0
-122.126 135.124 1126.32 0
-155.25 153.174 671.466 0
140.806 -225.389 1168.89 0
193.353 40.8506 1309 0
-213.972 91.8793 1584.66 0
-111.391 98.5822 1699.38 0
196.439 94.8406 1346.02 0
-160.929 136.989 650.784 0
-146.031 188.92 674.239 0
116.788 205.713 639.58 0
-175.747 -45.2263 1747.62 0
222.111 22.787 1297.83 0
-180.932 138.254 659.741 0
