ply
format ascii 1.0
element vertex 281
property float x
property float y
property float z
property uchar intensity
end_header
222.65 -1169.24 3954.97 0
-1105.36 -935.157 3336.9 0
-243.512 -422.606 2190.53 0
-216.553 -424.782 2207.79 0
17.6691 -305.535 1676.62 0
-261.043 -408.217 2235.87 0
-491.373 -231.022 1532.63 0
-400.622 -197.518 1398 0
-209.744 -24.4361 1302.04 0
-62.8908 -1136.67 3715.62 0
295.312 -1125.82 3787.7 0
228.687 -1136.28 3941.03 0
211.801 -1116.77 3937.62 0
211.908 -1118.55 3944.39 0
-1129.82 -922.148 3293.15 0
-948.827 -924.612 3404.29 0
-414.235 -549.142 2061.85 0
-400.448 -427.968 1769.54 0
-153.141 -1053.17 4406.92 0
-242.189 -371.411 1673.96 0
-208.254 -361.648 1673.36 0
10.5614 -348.881 1630.79 0
-493.312 -324.676 1550.97 0
-216.528 -397.697 2184.57 0
-227.057 -393.058 2214.93 0
14.8571 -30.866 652.92 0
11.7202 -27.6826 652.509 0
59.8974 -13.908 649.709 0
82.7338 -7.63518 646.924 0
-307.445 85.1613 893.092 0
-50.1851 107.103 679.419 0
-59.0105 127.459 695.323 0
-31.3218 133.053 663.873 0
187.738 178.615 652.055 0
187.738 178.615 652.055 0
-160.214 -223.859 646.858 0
11.8356 -1423.66 4493.75 0
-50.8861 -1150.52 3734.28 0
-44.2575 -1142.37 3740.67 0
301.098 -1145.55 3779.16 0
258.905 -1149.75 3792.3 0
291.282 -1135.63 3779.29 0
311.458 -1089.8 3824.73 0
242.06 -1069.03 3862.03 0
267.7 -1013.69 3807.88 0
1030.36 -877.678 3355.45 0
-281.345 -384.762 1664.57 0
-215.818 -379.654 1732.98 0
-201.707 -410.925 2216.25 0
-213.053 -397.067 2221.32 0
36.9949 -594.242 3725.08 0
397.018 -205.473 1351.99 0
-341.458 -212.618 1557.84 0
-343.024 -195.354 1434.56 0
357.867 -171.973 1266.24 0
-135.742 -209.692 1677.84 0
-83.2186 -202.465 1638.78 0
13.1202 -29.9191 657.942 0
-413.707 -53.1913 1231.14 0
59.5422 -15.7623 649.802 0
-214.72 -25.4431 1370.17 0
223.094 28.8534 625.166 0
-35.4324 31.5833 667.011 0
-249.246 53.5959 1033.01 0
-241.407 56.7662 1042.09 0
201.324 44.2059 634.053 0
-46.024 65.6213 671.294 0
-46.1016 65.6885 671.916 0
-59.4062 92.7535 674.188 0
181.72 170.74 655.788 0
201.587 169.638 621.477 0
4.13398 238.437 745.915 0
339.228 -406.236 1156.75 0
1073.47 -1131.26 3586.99 0
1032.01 -1071.67 3507.95 0
302.446 -1102.91 3694.19 0
79.3353 -987.51 3381.11 0
221.437 -328.368 1126.31 0
206.806 -1149.39 3996.44 0
1072.66 -973.718 3426.77 0
-436.391 -593.521 2142.8 0
987.785 -939.203 3384.78 0
1030.89 -867.924 3369.02 0
-402.854 -447.982 1770.98 0
263.915 -359.252 1515.39 0
25.3018 -315.444 1681.25 0
-268.523 -383.471 2158.5 0
-246.17 -333.933 1898.15 0
-247.467 -382.729 2194.07 0
-468.111 -245.336 1569.74 0
-498.896 -240.242 1556.88 0
-455.804 -200.961 1392.44 0
-350.52 -205.501 1483.88 0
-149.675 -222.954 1715.21 0
-378.54 -175.604 1384.89 0
-169.23 -191.086 1536.76 0
28.8091 -56.772 661.374 0
-398.934 -68.2329 1289.42 0
-140.24 -69.5691 1361.64 0
-17.9075 -27.5643 655.577 0
-202.061 -55.8895 1383.94 0
-12.9352 -25.3799 654.662 0
113.421 1.37431 643.117 0
112.672 1.0217 640.748 0
120.361 3.16163 640.947 0
-248.404 57.6653 1035.85 0
-38.0197 37.6691 664.254 0
-26.8564 39.6068 668.692 0
-301.824 66.7058 1059.29 0
-293.881 87.339 907.444 0
-35.6935 86.0652 676.784 0
208.982 171.952 637.306 0
196.487 171.18 636.603 0
170.075 178.292 650.14 0
170.079 178.324 650.147 0
185.624 184.157 651.024 0
5.51786 237.425 749.737 0
-711.041 -1460.15 4588.23 0
229.739 -346.369 1089.45 0
222.297 -341.148 1100.19 0
218.346 -338.63 1105.41 0
244.057 -340.424 1112.77 0
220.069 -336.488 1120.3 0
248.843 -1145.34 3861.59 0
121.752 -1127.35 3840.48 0
211.337 -1165.04 3965.91 0
263.392 -1117.16 3819.87 0
246.584 -1133.3 3914.17 0
223.746 -319.605 1123.78 0
1084.81 -957.988 3425.3 0
211.158 -1018.69 3781.2 0
136.408 -869.457 3282.41 0
-145.123 -1094.76 4457.2 0
252.549 -349.917 1492.36 0
-252.645 -429.887 2206.85 0
795.77 -647.57 3367.21 0
-250.836 -395.654 2211.21 0
262.233 -272.175 1557.19 0
266.185 -289.202 1759.02 0
-330.488 -224.051 1607.51 0
-343.689 -192.981 1406.22 0
-326.198 -195.862 1446.13 0
-303.033 -195.631 1465.55 0
-448.597 -177.978 1345.74 0
-216.5 -193.2 1502.63 0
242.157 -364.015 2845.07 0
-193.809 -192.149 1520.17 0
-193.19 -191.724 1520.58 0
-129.174 -188.77 1536.58 0
324.811 -131.876 1305.64 0
425.47 -130.667 1375.08 0
-415.316 -112.746 1372.34 0
-384.288 -54.5769 1244.04 0
-23.8823 -22.9929 672.06 0
-11.6183 -21.1734 658.466 0
-10.3258 -17.3147 661.019 0
-282.771 -6.36624 1217.41 0
-28.3764 7.30244 661.238 0
-22.4633 8.87426 662.184 0
-253.349 39.2312 1041.97 0
-237.217 41.1289 1051.55 0
-16.9915 47.8483 667.975 0
-40.5234 55.1479 670.048 0
-35.4034 56.3984 668.141 0
-35.4034 56.3984 668.141 0
210.327 62.4774 633.41 0
-45.2271 73.044 670.748 0
-41.1148 74.2929 670.125 0
221.716 134.59 643.778 0
-18.1156 230.278 733.669 0
210.484 -339.401 1108.57 0
220.739 -1183.78 3941.23 0
226.48 -329.47 1118.35 0
-425.163 -584.258 2138.94 0
-908.665 -890.751 3335.14 0
242.913 -830.047 3156.79 0
-392.176 -437.317 1754.84 0
-432.661 -495.931 2077.18 0
348.977 -642.834 2782.21 0
96.0986 -266.496 1289.61 0
-251.235 -448.992 2239.05 0
212.02 -285.889 1627.49 0
218.343 -427.366 2872.37 0
259.542 -417.426 2855.23 0
416.693 -189.469 1303.33 0
276.572 -402.884 2866.66 0
-268.721 -195.261 1478.45 0
255.933 -373.757 2848.24 0
-240.832 -194.582 1489.15 0
-297.376 -154.097 1290.71 0
330.216 -112.003 1291.68 0
324.936 -110.107 1302.97 0
-415.544 -98.7198 1341.25 0
-332.752 -89.8517 1271.19 0
12.1231 -43.183 642.677 0
-380.229 -77.0715 1264.03 0
370.872 -78.4689 1346.51 0
357.507 -71.5567 1358.02 0
-346.392 -57.6067 1274.89 0
18.8104 -21.7906 653.19 0
47.5542 -21.6291 648.417 0
10.0676 -15.2916 658.266 0
48.8727 -16.6834 650.106 0
-29.6577 4.20093 665.844 0
-31.6717 9.87151 667.196 0
-20.8086 12.2293 664.421 0
-245.348 41.4616 1047.93 0
-279.552 52.1654 1002.17 0
-281.434 60.9469 1014.55 0
219.21 153.664 643.392 0
181.601 173.528 652.729 0
19.6376 -1368.12 4407.89 0
-219.17 -542.498 2152.7 0
-415.167 -452.668 1879.66 0
-361.751 -183.275 1376.78 0
-266.545 -180.483 1448.56 0
-341.118 -164.489 1368.96 0
-350.391 -149.095 1389.85 0
-367.288 -128.096 1382.98 0
-436.567 -118.313 1325.65 0
-414.412 -100.184 1218.55 0
346.424 -97.1451 1314.3 0
-340.447 -70.8037 1259.81 0
20.945 -28.9049 653.51 0
43.235 -18.6099 650.543 0
43.2001 -18.684 649.904 0
54.7962 -15.1111 650.612 0
-25.3195 -8.95146 661.808 0
79.5449 -8.67266 645.55 0
194.767 39.805 634.199 0
-41.0112 51.0489 672.893 0
-41.0238 50.9958 673.505 0
-45.8086 87.1195 676.741 0
196.162 181.314 640.722 0
243.512 -342.165 1100.76 0
235.561 -339.153 1115.65 0
126.669 -430.379 2025.81 0
-487.049 -248.071 1583.78 0
325.074 -198.513 1369.12 0
51.7889 -299.548 2200.86 0
-356.497 -173.986 1376.8 0
14.0057 -27.229 654.192 0
90.4061 -7.80957 644.009 0
192.637 24.1425 631.44 0
-148.961 45.837 1138.96 0
-43.098 59.3234 673.699 0
-22.7329 114.995 683.067 0
-23.2832 143.947 681.014 0
-335.84 -291.206 1332.02 0
-446.275 -229.762 1612.7 0
294.902 -183.453 1312.22 0
37.4347 -53.5761 666.844 0
-13.678 -37.8985 654.697 0
-159.223 -56.4842 1365.19 0
-268.773 51.9723 1007.39 0
-241.225 55.7019 1043.34 0
-264.803 66.3566 1041.16 0
-34.2563 44.6909 672.82 0
-54.0103 119.792 682.763 0
203.526 139.399 645.044 0
318.746 -122.232 1313.93 0
322.202 -101.405 1333.92 0
-331.159 -76.4121 1260.04 0
-29.8661 -27.9175 661.037 0
-132.361 26.27 1106.83 0
-261.79 53.4702 1032.39 0
-60.7718 87.7591 680.145 0
163.049 158.481 656.536 0
98.553 -1418.7 4363.01 0
-48.1717 -630.245 2659.02 0
288.738 -308.737 1530.08 0
872.354 -670.179 3375.8 0
-186.044 -395.591 2215.41 0
-33.3147 -42.7789 638.919 0
11.9099 -36.5137 651.309 0
-21.7941 -4.70417 665.69 0
-25.2808 8.31464 667.094 0
-37.5761 57.1626 674.097 0
-43.1626 81.3328 690.845 0
-42.4239 122.276 683.432 0
345.492 -119.311 1293.37 0
