ply
format ascii 1.0
element vertex 271
property float x
property float y
property float z
property uchar intensity
end_header
-356.627 -406.85 1189.84 0
-588.664 -1425.24 4499.7 0
-250.83 -1057.63 3711.93 0
88.2512 -1052.17 3864.96 0
1213.06 -954.89 3474.58 0
30.9793 -1048.98 3932.59 0
1192.22 -923.716 3531.24 0
-1136.56 -774.519 3316.74 0
-345.725 -547.165 2543.65 0
463.696 -729.886 3470.51 0
403.419 -758.643 3637.85 0
464.071 -688.175 3447.21 0
1266.2 -649.363 3515.01 0
-440.704 -361.589 2179.66 0
-423.835 -278.303 1681.62 0
-244.31 -258.663 1621.53 0
-415.206 -346.102 2187.22 0
-458.132 -342.766 2191.92 0
-412.738 -338.123 2172.49 0
-285.028 -311.031 2034.9 0
-458.496 -331.381 2207.98 0
157.533 -169.319 1275.27 0
-162.494 5.79472 622.878 0
-122.755 15.0091 617.823 0
-67.8905 27.3234 608.774 0
-59.2237 29.3132 606.547 0
-35.802 189.851 620.527 0
-1069.66 -1471.31 4411.77 0
-238.972 -1071.73 3730.51 0
1353.81 -1089.31 3745.11 0
-231.78 -1063.81 3736.55 0
25.9001 -1078.66 3985.31 0
1037.02 -997.687 3643.34 0
1072.83 -946.338 3517.43 0
61.0949 -1002.39 3848.53 0
236.937 -299.977 1218.14 0
939.571 -817.152 3304.4 0
465.383 -826.095 3442.4 0
473.73 -817.042 3474.54 0
-1145.07 -809.618 3413.05 0
58.8233 -339.534 1534.55 0
376.162 -716.395 3648.45 0
473.593 -657.161 3377.84 0
43.4589 -306.645 1589.41 0
1211.57 -611.838 3410.57 0
-32.1778 -393.462 2457.35 0
1234.85 -558.789 3545.32 0
-408.183 -337.039 2209.12 0
-189.285 -358.547 2438.68 0
185.159 -190.005 1319.76 0
-12.3966 -221.692 1553.77 0
128.782 -131.71 1238.76 0
-162.853 3.9235 623.891 0
-101.463 19.732 613.581 0
-80.4994 24.4011 607.843 0
-38.5134 34.3348 602.716 0
88.3715 73.5779 585.793 0
69.2432 75.1201 587.251 0
39.0449 90.6555 592.155 0
161.4 92.7115 575.311 0
29.5059 71.4722 442.433 0
60.3224 100.337 587.687 0
32.4193 125.129 597.32 0
142.771 134.751 581.839 0
152.537 133.728 576.366 0
142.433 136.771 585.209 0
145.133 136.823 579.51 0
153.791 139.101 581.237 0
-25.4649 191.867 619.011 0
-25.4649 191.867 619.011 0
60.9808 187.888 603.608 0
58.9591 189.007 603.898 0
-919.429 -1578.08 4442.83 0
213.975 -387.641 1172.48 0
-420.485 -940.862 3286.77 0
-244.681 -1050.47 3736.61 0
-217.237 -1000.33 3606.12 0
-43.8334 -977.605 3672.71 0
505.283 -874.764 3354.36 0
946.827 -841.754 3330.33 0
1097.83 -858.878 3429.52 0
472.027 -739.778 3365.01 0
392.25 -762.081 3678.66 0
473.174 -700.591 3387 0
434.972 -695.838 3569.45 0
-424.134 -327.788 1720.8 0
1269.11 -667.668 3516.06 0
1253.58 -659.603 3510.97 0
-52.7085 -265.568 1572.78 0
-457.786 -321.593 2089.23 0
-458.917 -330.609 2150.32 0
1209.3 -547.7 3527.02 0
-72.2465 -217.523 1468.85 0
-442.638 -321.513 2182.57 0
60.7919 -259.5 1855.71 0
145.214 -156.103 1234.53 0
115.266 -113.789 1274.1 0
164.991 -61.9937 1312.68 0
-84.4147 2.02447 638.21 0
-109.525 18.0615 614.335 0
-109.261 17.9559 613.054 0
98.1601 69.2439 577.551 0
59.1958 97.5483 587.039 0
59.3338 97.7468 588.382 0
-0.874456 116.891 602.361 0
55.2072 115.14 590.112 0
146.802 120.581 579.55 0
148.317 126.649 581.67 0
145.13 129.963 579.33 0
151.35 138.577 581.134 0
148.51 148.439 587.921 0
31.239 154.592 605.224 0
-7.30036 158.183 606.493 0
59.3664 178.445 600.115 0
-43.1706 192.368 617.596 0
-43.1646 192.4 617.602 0
-916.156 -1611.67 4486.9 0
-741.68 -1592.61 4484.92 0
-781.703 -1587.19 4468.41 0
-879.159 -1566.58 4422.84 0
-946.664 -1543.49 4420.71 0
-954.46 -1557.18 4459.92 0
-547.297 -1549.52 4593.93 0
-512.726 -1357.96 4279.86 0
3.83995 -327.052 1064.6 0
-3.03111 -321.295 1075.45 0
42.9906 -985.816 3896.38 0
1058.04 -896.529 3509.16 0
469.694 -815.417 3359.08 0
236.988 -277.562 1214.44 0
464.983 -713.12 3435.33 0
-456.21 -354.026 2174.92 0
4.36013 -468.904 3000.02 0
186.677 -196.976 1333.31 0
126.038 -180.671 1273.93 0
204.174 -175.8 1270.28 0
-390.184 -166.709 1651.17 0
-374.206 -145.052 1519.94 0
121.215 -94.4405 1259.63 0
116.358 -92.1003 1271.02 0
152.31 -54.2476 1324.43 0
-195.067 -5.81063 626.941 0
-182.086 5.57666 627.818 0
-176.56 6.85332 627.061 0
-171.167 7.98064 626.005 0
-166.406 9.05473 624.883 0
-92.8911 21.2518 609.869 0
267.926 36.2845 1006.3 0
126.627 52.1752 573.185 0
-5.23077 55.5351 600.077 0
-9.37472 58.9421 600.49 0
-9.01976 74.4711 601.874 0
116.743 75.417 573.659 0
116.743 75.417 573.659 0
128.522 76.4347 575.827 0
120.11 76.3099 574.396 0
163.365 77.2112 568.524 0
92.3037 84.0796 580.176 0
92.1519 83.9554 579.649 0
97.1685 85.2867 579.255 0
97.1266 85.2476 579.111 0
75.0013 89.8069 588.931 0
117.426 89.6283 575.174 0
151.856 98.2148 572.33 0
19.8292 103.749 596.548 0
52.65 116.546 589.961 0
34.4585 125.188 597.68 0
-1.87653 127.953 604.98 0
32.5221 181.01 607.282 0
-956.103 -1594.04 4481.35 0
-1292.03 -1485.92 4296.41 0
-991.349 -1393.85 4210.02 0
-51.4623 -807.775 3268.52 0
1277.68 -741.332 3639.03 0
-639.099 -378.734 1876.43 0
-25.4276 -478.502 3041.28 0
1175.97 -543.363 3531.93 0
-28.1811 -264.154 1802.14 0
7.57293 -241.93 1696.44 0
-40.636 -378.073 2809.12 0
165.824 -165.502 1246.68 0
-534.761 -168.955 1595.75 0
-410.538 -164.67 1634.55 0
-447.231 -145.877 1474.42 0
-175.143 -1.37769 622.948 0
253.821 12.3687 1006.8 0
110.748 68.5523 579.427 0
165.625 75.1048 566.306 0
33.7174 82.7054 595.321 0
101.906 84.7912 583.946 0
52.7679 111.86 593.357 0
16.3504 121.557 598.816 0
52.8008 130.081 594.885 0
156.127 133.188 580.286 0
145.508 139.404 580.661 0
153.838 142.766 581.069 0
1.81614 161.373 608.59 0
4.51149 165.276 609.933 0
27.9791 170.585 606.157 0
73.7042 169.209 593.09 0
73.0069 174.626 595.645 0
73.0069 174.626 595.645 0
-31.8166 187.096 619.949 0
45.9935 194.546 608.682 0
-764.722 -1580.13 4498.31 0
-974.393 -1545.21 4411.23 0
-2.28042 -334.837 1024.27 0
-622.462 -388.555 1874.29 0
-475.416 -145.385 1464.51 0
138.76 -80.0055 1281.51 0
136.429 -55.3279 1326 0
-201.914 -7.26744 628.913 0
-201.978 -7.34061 628.378 0
-179.306 1.79985 624.502 0
-167.537 4.81772 624.821 0
-142.663 9.96192 618.954 0
239.19 29.5787 958.94 0
-33.7064 47.7055 609.095 0
131.619 86.4052 578.776 0
157.534 125.437 579.461 0
57.1852 128.456 595.843 0
37.4175 155.57 602.581 0
14.1362 160.145 603.58 0
35.4263 161.162 604.577 0
-33.6083 194.733 619.881 0
249.331 -386.332 1173.98 0
448.854 -771.569 3605.58 0
107.761 -175.345 1306.3 0
-188.22 -21.7156 642.447 0
157.228 -20.463 1335.82 0
-208.742 -5.24569 629.757 0
-208.791 -5.23841 630.051 0
-131.822 10.2711 617.096 0
52.2528 73.4072 588.117 0
69.9303 93.3378 590.735 0
63.6605 100.192 591.068 0
48.6646 103.665 594.644 0
159.024 113.26 576.039 0
59.6569 118.577 594.502 0
45.0497 121.371 597.246 0
41.5061 139.225 599.449 0
-11.7846 151.818 612.283 0
12.8718 155.257 606.529 0
25.6669 158.554 605.437 0
49.6465 165.064 602.1 0
48.708 171.797 603.145 0
29.6054 190.048 609.33 0
161.92 -188.108 1316.62 0
79.2174 -162.772 1278.04 0
1136.32 -413.749 3264.96 0
261.823 9.35088 1014.67 0
31.8341 52.9103 585.808 0
110.018 172.793 592.809 0
115.056 181.634 590.384 0
-56.2407 191.305 623.689 0
-1030.8 -1498.74 4391.37 0
77.2081 -284.866 1502.66 0
-456.182 -193.121 1701.77 0
146.557 -64.6314 1309.1 0
121.203 58.6613 572.654 0
168.107 73.1859 554.68 0
123.883 77.8732 560.526 0
88.2103 162.446 594.103 0
-50.9526 173.032 624.546 0
-580.872 -532.733 2126.18 0
115.34 -134.017 1261.04 0
114.935 -82.7534 1301.87 0
10.4392 143.989 596.353 0
29.9304 148.263 602.064 0
145.195 -148.931 1248.23 0
158.696 95.5763 574.822 0
