ply
format ascii 1.0
element vertex 325
property float x
property float y
property float z
property uchar intensity
end_header
-576.196 -1564.25 4600.99 0
420.473 -1140.12 3968.51 0
424.96 -1092.95 3990.01 0
-927.212 -817.28 3299.67 0
476.047 -658.284 2749.28 0
-132.13 -352.362 1759.75 0
-83.5378 -387.912 2242.27 0
494.203 -197.946 1368.81 0
77.6388 -3.2645 675.509 0
-225.193 120.35 931.424 0
371.34 -1367.91 4286.88 0
551.32 -1086.16 3649.85 0
124.286 -1099.36 3743.81 0
143.982 -1105.57 3767.91 0
764.632 -1074.72 3687.21 0
426.821 -1107.41 3954.13 0
466.581 -1090.42 3889.33 0
504.983 -1063.94 3833.56 0
329.017 -1015.35 3701.16 0
410.797 -1089.15 3958.25 0
1111.81 -861.505 3277.95 0
-955.526 -852.754 3374.98 0
-159.654 -352.874 1728.21 0
-127.939 -354.902 1768.58 0
-100.461 -326.813 1707.81 0
989.185 -619.125 3403.27 0
-390.08 -281.288 1599.87 0
-125.048 -384.755 2202.42 0
-111.258 -384.945 2226.4 0
-85.8525 -369.145 2233.62 0
-634.056 -314.465 1878.62 0
126.978 -277.827 1699.33 0
-83.847 -360.917 2218.95 0
-78.4894 -360.277 2255.48 0
43.6621 -153.761 970.61 0
-92.6681 -355.85 2249.79 0
462.462 -172.662 1292.05 0
-2.48206 -154.181 1559.18 0
79.3817 -0.383042 677.939 0
126.018 8.97805 670.202 0
205.609 27.5921 654.726 0
31.5797 94.1079 702.137 0
21.426 133.489 704.87 0
14.0616 154.165 721.104 0
40.2763 158.782 688.262 0
-219.12 -398.947 1252.66 0
-45.1916 -123.657 400.579 0
229.484 -1386.02 4518.53 0
490.58 -1119.48 3788.84 0
448.999 -1122.31 3804.13 0
425.728 -1119.62 3949.44 0
1210.19 -960.485 3363.72 0
235.56 -975.307 3506.83 0
475.713 -1037.11 3787.01 0
510.479 -1024.55 3774.93 0
462.824 -986.551 3818.58 0
-156.441 -434.373 1945.52 0
-155.708 -433.689 1942.92 0
134.524 -287.955 1703.62 0
155.146 -318.254 2288.43 0
-339.345 -191.756 1647.25 0
-241.938 -157.14 1475.36 0
401.625 -119.428 1354.02 0
-318.397 -13.4875 1275.09 0
-320.309 -10.1159 1273.53 0
-124.571 -4.99225 1340.8 0
48.2237 -2.20403 680.076 0
-84.7134 -3.89559 1360.31 0
-111.826 8.43866 1403.71 0
-110.293 9.06645 1335.42 0
125.61 7.13614 670.322 0
186.462 24.108 658.301 0
186.488 24.1085 658.882 0
33.1606 57.5026 692.097 0
30.6279 63.6578 689.445 0
-211.707 102.269 1097.21 0
23.8698 91.8709 696.747 0
11.5069 119.42 700.184 0
-247.471 139.844 756.753 0
2.63089 147.666 713.572 0
83.1358 263.265 767.887 0
-548.677 -1589.99 4453.63 0
418.375 -390.29 1164.32 0
-502.351 -1160.89 3744.58 0
488.937 -1077.18 3703.71 0
154.557 -1040.02 3638.11 0
409.869 -1135.53 3980 0
757.277 -1082.5 3772.72 0
407.387 -1119.65 4010.64 0
299.755 -316.946 1133.62 0
1162.43 -936.135 3359.13 0
290.084 -315.024 1165.66 0
404.87 -989.852 3794.83 0
-660.083 -864.276 3571.93 0
-105.543 -344.378 1767.83 0
358.577 -313.598 1626.41 0
364.433 -281.646 1625.46 0
-67.8547 -374.501 2249.91 0
365.664 -172.33 1014.04 0
-140.372 -345.83 2195.46 0
-113.779 -344.952 2229.94 0
-392.714 -196.702 1605.65 0
-236.464 -187.308 1658.93 0
-356.834 -159.333 1439.04 0
134.349 -141.875 1578.21 0
469.289 -76.5625 1354.05 0
-39.2924 -38.0367 1391.64 0
33.9149 5.39172 688.956 0
-229.26 11.4775 1232.77 0
537.939 38.5913 1487.8 0
178.472 22.2935 659.79 0
178.71 22.2105 658.503 0
194.948 25.8231 655.003 0
218.532 29.3065 653.416 0
-160.969 87.4254 1068.36 0
-221.39 118.031 957.14 0
-265.249 122.694 772.518 0
-233.328 155.287 713.029 0
60.048 255.77 756.825 0
84.68 262.223 771.639 0
-529.524 -1538.54 4430.28 0
-599.284 -1454.88 4253.28 0
307.53 -327.228 1102.37 0
-203.962 -1043.06 3559.37 0
782.123 -1008.66 3463.77 0
442.618 -1117.36 3873.81 0
300.811 -321.74 1113.45 0
455.9 -1089.79 3831.28 0
297.211 -319.081 1118.85 0
443.414 -1105.09 3926.39 0
-311.564 -549.861 2189.35 0
81.2287 -1052.47 4488.39 0
-282.277 -396.391 1798.88 0
-119.773 -391.882 2243.2 0
-126.987 -377.575 2222.12 0
341.623 -292.965 1737.59 0
-116.675 -357.709 2247.29 0
379.753 -269.053 1768.95 0
-438.313 -194.711 1557.56 0
422.275 -349.692 2857.68 0
408.666 -339.532 2855.16 0
-103.709 -198.106 1741.26 0
-35.5221 -189.895 1745.97 0
-96.5492 -179.851 1683.68 0
-95.2959 -178.084 1662.61 0
-243.969 -154.84 1447.08 0
-208.508 -157.543 1507.64 0
-87.8828 -157.946 1553.64 0
-63.1228 -158.01 1568.58 0
-23.0756 -156.956 1566.36 0
-432.226 -137.373 1357.7 0
-368.657 -134.461 1351.13 0
18.5791 -156.444 1617.38 0
-314.684 -72.5009 1416.48 0
259.599 -52.3913 1116.71 0
-316.053 -58.5764 1385.38 0
457.321 -55.6974 1362.77 0
78.7957 -22.2131 669.958 0
-284.053 -38.3019 1306.36 0
-99.4418 -22.346 1416.97 0
-288.418 -15.756 1286.49 0
-314.026 -4.05526 1243.92 0
-294.72 2.75661 1187.6 0
43.2408 2.60683 696.818 0
54.8484 3.99518 682.611 0
33.9625 5.39228 688.708 0
-324.759 13.3393 1193.07 0
56.3891 7.81961 685.077 0
-332.206 22.7932 1177.16 0
156.807 20.438 661.911 0
45.1512 34.3812 686.729 0
-156.699 75.2231 1083.12 0
43.3494 55.1063 690.166 0
-161.108 93.5554 1055.44 0
28.9698 81.2256 695.274 0
34.0227 82.3082 693.103 0
34.0227 82.3082 693.103 0
-222.925 131.658 924.98 0
24.8695 99.2631 696.124 0
28.9818 100.38 695.288 0
37.8597 101.241 699.892 0
-273.036 120.796 801.801 0
-222.62 160.28 732.649 0
-233.864 158.63 714.347 0
-227.133 160.805 704.143 0
-225.86 166.188 710.3 0
-987.529 -1081.57 3195.76 0
537.352 -1146.15 3607.49 0
-216.537 -391.951 1260.37 0
-203.607 -395.719 1282.52 0
-203.607 -395.719 1282.52 0
417.413 -1154.63 3954.96 0
289.499 -319.594 1122.41 0
-83.3364 -1184.07 4678.85 0
309.549 -839.967 3299.75 0
410.708 -804.338 3168.7 0
-92.6316 -505.666 2187.96 0
-308.127 -452.651 2123.15 0
-599.569 -431.019 2050.7 0
-312.393 -428.755 2067.21 0
1014.44 -622.995 3370.7 0
-117.324 -410.916 2275.37 0
126.538 -286.43 1703.34 0
424.868 -393.43 2864.68 0
442.903 -379.394 2875.17 0
-221.525 -185.653 1647.58 0
-224.57 -158.139 1486.06 0
-200.451 -158.574 1504.27 0
-137.128 -159.406 1524.68 0
-112.11 -158.746 1536.91 0
427.849 -133.794 1284.8 0
-437.007 -129.433 1357.59 0
-242.407 -126.564 1409.59 0
-202.399 -117.809 1329.17 0
425.439 -95.4805 1298.1 0
420.802 -93.383 1309.63 0
335.266 -87.459 1628.81 0
-236.695 -52.5463 1311.16 0
-244.361 -33.3027 1300.09 0
35.278 -12.3939 686.456 0
113.39 1.64506 669.575 0
84.9353 2.40366 675.802 0
114.947 6.55229 671.172 0
38.0096 29.9485 690.771 0
36.2453 35.684 692.197 0
47.0216 37.6897 688.862 0
-185.007 80.2982 1061.35 0
-192.834 86.8487 1039.11 0
-193.808 95.7253 1051.52 0
-161.185 102.856 1091.71 0
-258.346 120.115 833.818 0
-21.338 139.088 840.955 0
-220.323 -418.078 1322.77 0
-421.369 -1357.24 4662.14 0
-1475.04 -1169.07 4343.88 0
-1474.28 -1168.6 4342.01 0
-300.085 -313.47 1568.13 0
-409.371 -390.231 2139.35 0
412.303 -190.854 1298.93 0
-263.193 -144.666 1418.54 0
-459.474 -111.561 1391.46 0
-321.21 -60.4757 1262.79 0
62.7566 -28.1815 672.812 0
-318.689 -40.731 1249.25 0
-277.108 -35.3685 1332.12 0
-249.115 -19.8762 1315.39 0
86.8599 -4.77324 676.047 0
86.7845 -4.83989 675.512 0
109.211 4.73054 671.267 0
-315.673 15.0259 1202.93 0
41.7238 16.6531 686.585 0
39.9 21.4442 685.751 0
-154.186 81.6437 1077.98 0
28.4994 77.1533 698.16 0
28.5163 77.1026 698.772 0
26.716 85.4919 699.031 0
-246.875 110.592 870.257 0
-246.749 118.729 881.057 0
-245.334 140.395 769.103 0
16.4946 126.882 703.555 0
-213.865 167.786 722.827 0
-200.842 168.818 721.767 0
-170.449 230.324 690.503 0
-45.6589 -1417.99 3956.6 0
-204.787 -404.401 1240.48 0
321.985 -323.422 1112.94 0
314.9 -320.112 1128.21 0
249.641 -404.9 2043.15 0
-639.678 -366.122 1964.88 0
421.541 -181.533 1376.12 0
-379.765 -204.812 1631.95 0
-266.68 -89.3202 1424.74 0
-338.445 -77.5493 1370.96 0
-337.093 -18.6784 1256.22 0
80.0201 -2.87755 677.072 0
-90.807 11.7541 1319.57 0
76.7587 9.57215 683.286 0
76.6694 9.19103 681.282 0
156.373 14.0949 662.932 0
-9.53821 59.0623 968.23 0
-55.7165 76.8602 1169.12 0
-252.586 124.795 867.226 0
49.2615 140.526 707.083 0
49.5129 169.474 704.92 0
186.805 -242.537 1308.66 0
389 -165.717 1320.76 0
-337.021 -187.701 1658.67 0
414.802 -105.271 1320.95 0
103.227 -29.9075 688.647 0
-235.252 -39.1999 1299.89 0
407.478 -30.3573 1332.05 0
52.0779 -12.669 679.033 0
-57.6528 -24.3494 1396.07 0
-181.815 86.3336 1043.78 0
-152.37 89.3116 1078.26 0
-175.684 100.696 1077.23 0
35.0399 70.5857 697.776 0
-258.537 108.02 849.928 0
-235.738 132.067 758.584 0
-236.837 154.045 738.452 0
18.1745 146.303 708.343 0
-895.708 -887.765 3081.09 0
-741.814 -586.452 2474.78 0
430.776 -169.822 1300.62 0
-374.974 -190.145 1659.86 0
36.5532 -2.16298 686.137 0
-41.3916 56.6759 1136.29 0
-173.526 87.6925 1068.38 0
10.2904 114.491 706.227 0
-213.32 157.442 836.168 0
234.722 178.057 670.95 0
309.553 -1384.22 4383.54 0
101.07 -597.1 2685.37 0
1055.16 -663.643 3354.72 0
-51.7834 -359.671 2248.2 0
419.919 -84.4989 1340.64 0
31.5212 -16.9805 664.296 0
77.4911 -12.1011 674.344 0
45.573 20.7999 690.262 0
42.571 33.9265 691.778 0
32.1807 83.1597 699.159 0
28.2116 107.548 716.051 0
-249.949 134.447 786.112 0
29.8518 148.424 708.411 0
440.546 -103.261 1299.05 0
