ply
format ascii 1.0
element vertex 237
property float x
property float y
property float z
property uchar intensity
end_header
8.32855 0.938301 -25.106 0
-6.02205 -1.50535 -25.3099 0
-6.16941 -1.59203 -25.3001 0
-6.09826 -1.96107 -25.3482 0
-1.62611 -3.52322 -25.959 0
-3.59896 -4.35745 -25.8212 0
3.42453 -5.91878 -25.468 0
-1.46451 -8.3801 -25.752 0
-1.50145 -8.43924 -25.7767 0
2.49396 2.8783 -25.1286 0
6.34445 1.0655 -25.0781 0
5.50097 -0.0817447 -25.2052 0
5.79081 -0.6343 -25.3434 0
4.66907 -0.778822 -25.3146 0
3.39978 -1.05792 -25.3375 0
2.57756 -1.14134 -25.2693 0
-6.2306 -1.27953 -25.2972 0
-6.32471 -1.39173 -25.2982 0
-6.15831 -1.70661 -25.2953 0
1.79855 -2.81124 -25.3583 0
1.3313 -2.82847 -25.3366 0
2.16615 -2.84265 -25.3789 0
0.824397 -2.95124 -25.3138 0
4.88824 -3.27109 -25.3276 0
-6.29931 -3.41012 -25.6339 0
-1.93701 -3.76518 -25.8197 0
-3.70881 -4.26276 -25.8202 0
2.237 -5.52033 -25.4168 0
2.90076 -5.7482 -25.441 0
3.16955 -6.01821 -25.4628 0
3.874 -6.12761 -25.5026 0
7.77398 -6.66414 -25.7607 0
1.29189 -8.35386 -25.8166 0
-4.52775 7.83048 -25.4773 0
-1.97725 7.58562 -25.4955 0
-1.89334 7.5367 -25.5283 0
5.83715 3.90673 -24.9163 0
-6.15547 3.76192 -25.2 0
4.10788 3.54301 -24.9527 0
-7.58171 2.66346 -25.106 0
-5.27918 2.5334 -25.1662 0
0.5586 2.48838 -25.1182 0
-5.12285 2.05974 -25.1582 0
-3.53082 1.25341 -25.0664 0
1.15172 1.05954 -25.0824 0
1.30871 0.996551 -25.0901 0
-2.48544 1.01033 -25.1089 0
-4.95311 0.934086 -25.1712 0
4.84609 0.506917 -25.2441 0
5.10494 0.480897 -25.2093 0
4.98268 0.490008 -25.2184 0
5.39382 0.40391 -25.2788 0
5.16682 0.373906 -25.2342 0
4.17843 -0.717621 -25.3253 0
0.0691506 -1.02126 -25.2531 0
2.85548 -1.21754 -25.2893 0
-5.1272 -2.07627 -26.1217 0
-5.82213 -2.51173 -25.464 0
2.93043 -2.8336 -25.4009 0
1.1192 -2.87986 -25.3306 0
1.05918 -2.96544 -25.33 0
4.36429 -3.20698 -25.3325 0
7.7849 -3.36521 -25.3394 0
2.00742 -5.4694 -25.4204 0
0.699647 -5.59168 -25.631 0
6.85301 -6.48993 -25.7407 0
8.03672 -6.68319 -25.7626 0
7.84558 -6.74609 -25.7639 0
0.493852 -7.97509 -25.6215 0
-4.33537 8.58116 -25.1676 0
-0.427014 8.01591 -25.4965 0
-4.61468 7.59959 -25.4643 0
-0.134492 3.68633 -24.9016 0
-1.79737 3.18486 -24.9899 0
0.435469 2.7861 -25.1004 0
2.52787 2.77442 -25.1377 0
4.78052 2.75673 -24.9714 0
-5.12009 1.82276 -25.1655 0
1.08289 1.73134 -25.1244 0
1.08289 1.73134 -25.1244 0
-5.30558 1.25264 -25.1971 0
0.857459 1.07498 -25.0943 0
1.04329 1.00646 -25.0783 0
1.56768 0.990388 -25.0911 0
-2.58848 0.971548 -25.1318 0
-2.58848 0.971548 -25.1318 0
0.810476 0.695044 -25.1912 0
5.26555 0.398043 -25.2456 0
3.84865 0.0247931 -25.2316 0
5.71176 -0.24202 -25.3339 0
-2.08412 -0.625546 -25.3889 0
5.92091 -0.705379 -25.3531 0
3.38989 -0.804441 -25.3459 0
-2.10745 -0.986104 -25.3608 0
-2.00953 -1.079 -25.3533 0
3.10659 -1.22956 -25.312 0
-5.44113 -1.37884 -25.2439 0
-6.91035 -1.57112 -25.2793 0
-5.11989 -1.58857 -25.2743 0
-5.9049 -1.70479 -25.2933 0
-6.95879 -2.5793 -25.3171 0
2.00891 -3.00211 -25.3525 0
2.00891 -3.00211 -25.3525 0
7.14971 -3.13687 -25.3909 0
1.38064 -3.09963 -25.323 0
1.76223 -3.14485 -25.3724 0
-5.73079 -3.1966 -25.6633 0
7.10749 -3.23922 -25.4036 0
-5.60582 -3.25312 -25.6675 0
3.54938 -3.38298 -25.3263 0
6.94964 -3.42532 -25.4077 0
4.27311 -3.42583 -25.3476 0
7.58728 -3.48907 -25.3806 0
8.16994 -3.52993 -25.3459 0
6.81348 -3.63715 -25.4031 0
3.9895 -3.75202 -25.3533 0
-6.11451 -3.82052 -25.7961 0
5.43708 -3.94378 -25.3669 0
0.523566 -4.79847 -25.4308 0
7.07821 -5.24894 -25.4399 0
1.65668 -5.40582 -25.4285 0
7.03073 -6.04222 -25.8067 0
6.81034 -6.05765 -26.143 0
3.06572 -5.99131 -25.4514 0
7.20681 -6.19025 -25.6527 0
7.14719 -6.49066 -25.6622 0
7.84225 -7.19777 -25.7652 0
0.594444 -7.25377 -25.6173 0
1.7131 -7.98106 -25.5139 0
1.9797 7.98009 -25.5495 0
0.958636 7.77289 -25.609 0
-5.75699 7.62283 -25.3411 0
-4.27494 3.32551 -25.4123 0
7.43182 2.43423 -25.0616 0
-5.53777 1.14763 -25.1994 0
-3.63347 1.03811 -25.1728 0
6.4651 0.952866 -25.087 0
-7.54482 0.482767 -25.2459 0
-2.2256 -0.726456 -25.3631 0
0.176867 -1.06291 -25.2594 0
3.38096 -1.12971 -25.3328 0
-5.16288 -1.4264 -25.2634 0
-4.79585 -2.01323 -25.9446 0
0.932005 -3.03262 -25.326 0
5.82397 -3.12038 -25.3689 0
6.72091 -3.39698 -25.4045 0
-5.98571 -3.41709 -25.6946 0
7.29064 -3.44408 -25.3937 0
6.90869 -4.13177 -25.3939 0
6.07138 -4.16605 -25.3668 0
6.39657 -4.21106 -25.3901 0
-3.73895 -4.36297 -25.8208 0
-6.77563 -5.06674 -25.7521 0
2.41746 -5.30864 -25.4079 0
6.3364 -6.03626 -25.9562 0
6.32165 -6.25335 -25.8248 0
7.40193 -6.8335 -25.7416 0
8.1284 -7.46041 -25.8562 0
-1.0275 -8.24317 -25.8454 0
-0.507979 -8.30392 -25.7397 0
-0.0364189 -8.34839 -25.6585 0
-0.0364189 -8.34839 -25.6585 0
5.51853 8.54783 -25.5158 0
-4.72351 8.44771 -25.2747 0
-2.47869 8.38995 -25.5112 0
4.70296 8.26397 -25.4582 0
-4.68017 8.09966 -25.4536 0
-4.97025 7.61923 -25.3941 0
2.63364 7.34944 -25.5466 0
4.10028 3.00575 -24.9929 0
-3.80848 1.18618 -25.2502 0
5.67743 -0.430161 -25.2715 0
2.73637 -2.94346 -25.3756 0
7.3844 -3.18486 -25.4232 0
3.16971 -3.24638 -25.3386 0
-0.168024 -3.31597 -25.3831 0
-6.36894 -3.66732 -25.7359 0
-5.82876 -3.83773 -25.7977 0
6.24613 -4.05213 -25.3761 0
-3.99592 -4.29625 -25.816 0
6.03409 -4.45361 -25.3795 0
6.37183 -4.8697 -25.4531 0
0.938596 -4.92595 -25.572 0
6.15626 -5.58053 -25.5406 0
2.58922 -7.57155 -25.7607 0
-0.98592 -7.56147 -25.7858 0
0.29875 -7.72411 -25.6262 0
1.55532 -7.87515 -25.5034 0
-0.0824995 -8.08426 -25.6555 0
2.99517 7.36793 -25.5382 0
3.73171 3.8144 -24.9293 0
-7.64106 2.52472 -25.117 0
-5.08861 -1.78536 -25.2871 0
2.21251 -2.69737 -25.3443 0
3.10537 -2.96272 -25.3522 0
4.59081 -3.06006 -25.3457 0
4.95916 -3.09916 -25.332 0
2.7538 -3.20393 -25.3764 0
3.98418 -3.34765 -25.3339 0
0.587696 -4.25674 -25.4144 0
1.21278 -5.42156 -25.5472 0
7.98527 -5.78092 -25.6142 0
1.59264 -5.69558 -25.4272 0
5.91198 -6.08534 -25.5126 0
3.33096 -6.41446 -25.5172 0
2.67344 -7.77473 -25.5979 0
0.77143 -7.94909 -25.606 0
0.162194 -8.18296 -25.6683 0
-2.08506 2.79191 -25.1481 0
-3.87665 1.62928 -25.2085 0
-5.4098 -3.03836 -25.6484 0
4.46675 -3.41676 -25.3382 0
4.77058 -3.65649 -25.3634 0
5.67144 -3.76046 -25.3664 0
-1.73392 -4.44461 -25.8387 0
7.79012 -5.28964 -25.4401 0
0.0319197 -5.32148 -25.4696 0
6.41314 -6.18338 -25.9881 0
8.27489 -6.63367 -25.7356 0
-0.450291 -7.41965 -25.6427 0
-3.30434 6.67904 -25.4247 0
-3.28397 1.04799 -25.0609 0
1.51556 -5.30454 -25.4361 0
6.15688 -5.8917 -25.6893 0
5.77947 -6.20525 -25.5121 0
-3.36049 3.50615 -25.0099 0
0.502937 3.00954 -24.9841 0
-2.40435 2.68888 -25.1382 0
-5.79751 1.48309 -25.2107 0
0.730879 -1.13084 -25.2284 0
-5.50692 -2.47051 -25.4593 0
1.19201 -4.79727 -25.5873 0
0.139029 -4.89842 -25.4343 0
5.12115 3.65223 -24.9271 0
-6.08139 -2.15244 -25.7226 0
-6.58572 -4.86504 -25.7721 0
1.15233 -5.93003 -25.512 0
