ply
format ascii 1.0
element vertex 162
property float x
property float y
property float z
property uchar intensity
end_header
-4.01526 7.92099 -25.6181 0
-4.87723 5.55821 -25.3666 0
5.86443 0.987202 -25.2596 0
2.85972 0.915829 -25.1493 0
6.53522 0.642412 -25.2864 0
-4.63739 0.392077 -25.2339 0
-8.68743 0.2451 -25.3554 0
-4.34772 0.187942 -25.2448 0
-4.56663 0.116321 -25.2617 0
-3.33922 0.086943 -25.0931 0
-3.88911 0.0334133 -25.247 0
-3.89295 -0.227332 -25.2519 0
-4.02104 -0.382594 -25.2888 0
-1.73234 -1.11731 -25.3041 0
1.65708 -5.23673 -26.0632 0
-0.869188 -5.66805 -25.918 0
-0.72753 -5.7466 -25.9156 0
0.213865 -5.85572 -26.212 0
8.49677 -8.26384 -26.0324 0
6.5263 1.09426 -25.3007 0
6.32064 1.05985 -25.335 0
6.19974 1.04204 -25.3205 0
6.02869 1.01342 -25.2402 0
-3.99822 0.612348 -25.2186 0
7.91906 0.580991 -25.3166 0
-1.73902 0.210946 -25.1237 0
6.46638 -0.207473 -25.3276 0
-4.37539 -0.314611 -25.2887 0
-4.26676 -0.689678 -25.2981 0
5.63662 -2.83097 -25.3929 0
4.03249 -3.00796 -25.9544 0
1.52605 -4.64377 -25.9638 0
6.16462 -5.14298 -25.4872 0
7.52944 -5.60085 -25.8777 0
-7.21403 5.3378 -25.4422 0
4.6917 3.86072 -24.9334 0
-2.32455 2.20358 -25.1984 0
-3.2525 1.36036 -25.0812 0
-8.08846 1.01363 -25.3326 0
-5.82415 0.915193 -25.1391 0
-4.0919 0.762179 -25.2256 0
-8.34548 0.747151 -25.3622 0
-3.98155 0.717873 -25.1997 0
-8.43044 0.522152 -25.3624 0
7.49912 0.504751 -25.2784 0
-4.07453 0.217144 -25.2436 0
-4.41877 -0.123465 -25.2874 0
-3.57582 -0.274828 -25.1952 0
-1.22792 -0.39138 -25.1702 0
2.38318 -0.840674 -25.2419 0
5.36741 -1.39074 -25.331 0
-0.640548 -1.37802 -25.4111 0
-0.528269 -1.65858 -25.428 0
0.288077 -1.94608 -25.513 0
0.479327 -1.9653 -25.5227 0
-1.34852 -2.24714 -25.4019 0
6.28191 -2.66428 -25.3918 0
5.47722 -2.75252 -25.3856 0
4.69733 -2.84281 -25.4999 0
6.65976 -2.9313 -25.3849 0
-2.49104 -3.09143 -25.3546 0
-3.96702 -3.26595 -25.3698 0
-3.96702 -3.26595 -25.3698 0
-2.55374 -4.95629 -25.8639 0
8.27284 -5.71209 -26.121 0
7.95622 -6.0541 -26.2485 0
-6.04602 5.87023 -25.4064 0
0.254186 3.20311 -24.9092 0
-7.52069 2.68084 -24.8951 0
-4.21815 2.54694 -25.1243 0
-0.719741 0.359931 -25.3869 0
-3.92255 -0.043833 -25.2438 0
-4.50408 -0.0523066 -25.2891 0
-4.02436 -0.077797 -25.2461 0
-4.14985 -0.192471 -25.2714 0
-4.45435 -0.241792 -25.2982 0
-0.601908 -1.08602 -25.3718 0
-7.99902 -1.32954 -25.3247 0
1.96809 -2.07352 -25.7078 0
8.01864 -2.80951 -25.3932 0
6.31468 -2.86736 -25.387 0
4.57946 -2.89471 -25.6629 0
4.65506 -3.02545 -25.7047 0
7.7074 -3.19509 -25.4345 0
-3.31844 -3.71838 -25.5809 0
3.09233 -3.89713 -25.985 0
1.02939 -4.02877 -26.0602 0
-2.65645 -4.8906 -25.8365 0
8.05248 -5.33377 -25.7032 0
-0.511658 -5.2469 -25.9673 0
0.784334 -5.55395 -25.9556 0
-3.28528 -5.57086 -25.9231 0
-3.03895 -5.67071 -25.9335 0
7.10938 -5.76717 -25.9183 0
7.84349 -8.34561 -25.9975 0
-0.555471 6.89096 -25.4456 0
-6.34513 6.411 -25.4258 0
-6.09147 5.5832 -25.393 0
3.14801 3.09691 -25.1112 0
0.743993 3.01075 -24.9213 0
-2.07416 2.53398 -25.4334 0
5.29782 -0.508979 -25.2358 0
-0.367138 -1.01604 -25.4241 0
-0.584421 -1.24037 -25.403 0
-0.572573 -1.52223 -25.4206 0
8.18074 -2.79304 -25.3929 0
-2.9009 -2.9298 -25.3691 0
8.06054 -3.16242 -25.4085 0
-4.35097 -3.44954 -25.396 0
3.22069 -3.8105 -25.9612 0
-5.75549 -4.46535 -25.4098 0
-5.75549 -4.46535 -25.4098 0
0.97983 -5.18389 -25.9607 0
-6.36358 -8.26875 -26.1488 0
8.25376 -8.50387 -26.0426 0
3.78802 8.67261 -25.7025 0
0.402487 7.31243 -25.5039 0
-6.12053 7.07022 -25.5549 0
-6.12053 7.07022 -25.5549 0
-6.17107 6.43785 -25.4292 0
-6.47295 5.5091 -25.4104 0
6.97996 1.60618 -25.1648 0
-5.90317 0.811317 -25.1106 0
-4.3304 0.543752 -25.2302 0
7.52488 -0.023748 -25.2806 0
-0.171736 -1.64936 -25.4562 0
7.70238 -2.4295 -25.3584 0
7.31656 -2.73408 -25.4354 0
7.66221 -3.04167 -25.4195 0
5.17137 -4.27931 -25.9039 0
-2.90302 -5.21273 -25.8867 0
-2.7665 -5.62972 -25.9333 0
-1.17705 -5.7818 -25.9096 0
-1.89027 -6.49625 -25.877 0
6.51754 -7.67758 -25.8064 0
-6.2804 7.7575 -25.6941 0
-3.66598 0.183067 -25.1237 0
5.70453 -2.7205 -25.3934 0
3.16689 -3.34187 -26.0456 0
-2.43529 -3.28807 -25.4786 0
8.08877 -8.21602 -25.9935 0
3.47009 2.95262 -25.1017 0
-1.03314 2.81917 -25.0371 0
3.51953 1.18921 -25.0891 0
-4.62979 0.117308 -25.2597 0
7.63131 -2.80575 -25.4261 0
6.97639 -2.82882 -25.4133 0
-2.6512 -2.95257 -25.3552 0
-2.6512 -2.95257 -25.3552 0
5.25955 -3.251 -25.4279 0
-1.93133 -3.47372 -25.7521 0
2.47965 -5.13592 -25.9374 0
7.32091 -7.60883 -25.8723 0
3.00316 -4.00318 -25.9974 0
-2.37975 -4.65002 -25.8433 0
-3.67132 -7.29652 -25.998 0
5.54944 -1.84417 -25.3614 0
-2.59876 -4.1 -25.7802 0
-1.06332 3.00083 -25.039 0
2.84891 -1.34492 -25.3396 0
-2.68883 -3.11406 -25.3571 0
4.56954 -5.32505 -25.9351 0
