ply
format ascii 1.0
element vertex 290
property float x
property float y
property float z
property uchar intensity
end_header
3.11158 1.47616 -25.2021 0
2.04213 0.409484 -25.3839 0
1.69425 0.393564 -25.4289 0
-2.17619 -6.72264 -25.9735 0
-2.81648 -6.8037 -26.0306 0
-4.76668 -7.14233 -26.0284 0
-1.68341 4.02117 -25.201 0
-2.56166 3.21657 -25.1734 0
6.60038 1.93428 -25.1436 0
6.85924 1.8676 -25.1524 0
5.35933 1.76897 -25.1678 0
3.75372 1.32149 -25.2817 0
-7.9691 -0.769743 -24.8946 0
5.00691 -2.15831 -26.0627 0
-3.76264 -2.62772 -25.551 0
-5.17203 -3.41666 -25.5215 0
-2.26877 -6.7865 -25.9632 0
-4.37767 -7.01494 -26.0498 0
-6.44789 -7.4013 -26.0682 0
-6.54301 -7.42772 -26.0514 0
-6.9622 -7.4968 -26.0882 0
3.37909 -7.86722 -26.0365 0
0.0720296 2.0258 -25.1051 0
0.483935 1.97914 -25.3235 0
5.4993 1.95539 -25.1549 0
-0.357548 1.90883 -25.0527 0
2.39377 1.10018 -25.3725 0
-5.06187 0.707109 -25.3182 0
2.78877 0.266323 -25.3293 0
-7.67038 -1.81378 -25.3366 0
-6.82999 -1.88788 -25.3661 0
-0.892897 -1.90053 -25.7655 0
-0.944442 -1.97181 -25.7917 0
0.131699 -2.0271 -25.8648 0
-3.63692 -2.78159 -25.6555 0
-5.33657 -3.33023 -25.492 0
1.17789 -4.65157 -26.1856 0
6.71862 -6.18708 -26.0227 0
-2.50724 -6.76058 -26.0317 0
-5.81013 -7.12956 -26.0397 0
-1.73758 -7.26394 -25.9696 0
-6.18299 -7.37483 -26.1129 0
-1.23439 -7.60149 -25.9535 0
3.42278 -7.80239 -26.0416 0
-3.44112 8.41384 -25.4234 0
-3.33101 8.36771 -25.4193 0
-7.32257 3.55075 -25.3619 0
-5.57925 2.31707 -25.3602 0
-0.219653 1.87473 -25.0671 0
-0.058565 1.81283 -25.0792 0
-0.314586 1.81408 -25.05 0
-5.27 1.78575 -25.3488 0
3.73897 1.50897 -25.0648 0
3.77009 1.38026 -25.2155 0
3.58722 1.33337 -25.2757 0
4.23931 0.352564 -25.3879 0
2.15558 0.14696 -25.4044 0
-1.57751 -0.0761258 -25.2965 0
1.73642 -0.123243 -25.4606 0
-8.13416 -0.481446 -24.9073 0
-6.91938 -0.624344 -24.9667 0
-6.86812 -1.08129 -24.9298 0
-7.66305 -1.51403 -24.918 0
-7.74287 -1.6625 -25.0788 0
-0.502644 -1.81416 -25.8321 0
0.547842 -1.8354 -25.8851 0
-0.295218 -1.83384 -25.8542 0
1.25459 -1.90732 -25.9146 0
-0.532957 -1.89921 -25.8381 0
-0.598958 -1.9795 -25.839 0
-0.822982 -1.97869 -25.8178 0
6.05681 -2.20707 -25.98 0
3.21421 -2.20086 -26.0762 0
5.23524 -2.30911 -26.0533 0
3.39953 -2.44418 -26.0709 0
4.0339 -2.49548 -26.0376 0
7.71074 -3.36068 -25.901 0
0.682336 -4.1138 -25.9803 0
-1.03297 -4.51259 -25.9855 0
5.31383 -4.89883 -26.0498 0
1.35022 -4.87585 -26.1852 0
2.14889 -4.98318 -26.1829 0
6.13198 -5.35987 -26.0388 0
-1.94356 -6.48907 -25.9698 0
-1.05769 -6.6276 -25.9031 0
-2.62062 -6.91249 -26.0519 0
-3.22846 -7.01623 -26.0376 0
-3.79577 -7.1063 -26.0268 0
-4.4494 -7.22257 -26.0232 0
-4.64544 -7.25108 -26.018 0
3.30109 -7.4467 -26.0221 0
-1.09885 -7.57654 -25.966 0
3.40502 -7.68986 -26.0414 0
-0.905794 -8.07176 -25.9345 0
-6.03821 8.73613 -25.607 0
-6.15351 8.74436 -25.579 0
3.47958 8.16801 -25.5186 0
-1.89452 2.91409 -25.2542 0
0.641954 2.8844 -25.3224 0
-0.4906 1.88244 -25.0534 0
-0.724857 1.56873 -25.1316 0
3.59945 1.55834 -25.0492 0
-0.0287067 1.49764 -25.0116 0
-0.68119 1.44221 -25.0815 0
5.71871 0.692934 -25.2586 0
-4.82151 0.0970412 -25.3083 0
-5.17507 0.0873857 -25.3291 0
-3.63675 0.0779829 -25.3045 0
1.54471 -0.288559 -25.4986 0
1.33587 -0.292253 -25.5365 0
-1.55815 -0.308567 -25.2951 0
8.31414 -1.25394 -25.3395 0
0.00372012 -1.95726 -25.8421 0
0.35915 -1.99537 -25.8867 0
-0.707396 -2.03617 -25.833 0
-0.287656 -2.09376 -25.8374 0
5.91633 -2.15298 -25.9792 0
0.0874501 -2.13193 -25.8854 0
5.5811 -2.29386 -26.023 0
5.8697 -2.33946 -25.9562 0
1.86132 -2.3172 -26.0653 0
6.43596 -2.36935 -26.0096 0
-1.83383 -2.33088 -25.595 0
-1.68498 -2.41157 -25.5623 0
7.09841 -2.49254 -25.9095 0
7.91031 -2.60434 -25.4026 0
-0.848792 -3.55112 -26.0324 0
7.82502 -3.68151 -25.9708 0
-1.35682 -3.71842 -26.0016 0
5.2918 -4.0496 -25.9833 0
5.16925 -4.76855 -26.0064 0
4.44047 -4.77077 -25.9802 0
5.28013 -5.20928 -25.986 0
4.35853 -5.74818 -25.9503 0
5.8549 -5.8179 -26.0093 0
-0.165283 -6.17339 -25.7904 0
6.91188 -6.2728 -25.9286 0
-2.7504 -6.66545 -26.0237 0
7.54342 -6.85539 -26.1155 0
-3.47186 -6.78901 -26.0094 0
-3.73274 -6.96357 -26.0304 0
-1.43924 -6.99305 -25.9066 0
-3.4198 -7.04596 -26.0581 0
-3.62099 -7.07341 -26.0211 0
-0.731079 -7.08718 -25.9496 0
-1.50571 -7.10153 -25.9225 0
3.10302 -7.36147 -25.9842 0
-1.3122 -8.13058 -25.9582 0
3.5824 5.15051 -24.8951 0
1.74661 5.0957 -24.8815 0
1.74661 5.0957 -24.8815 0
-2.29792 4.8711 -25.3892 0
0.423557 3.9492 -24.9973 0
-1.63547 3.92687 -25.1766 0
5.20818 3.70344 -25.109 0
0.663843 2.56024 -25.407 0
-3.96561 2.21166 -24.945 0
7.99423 1.59103 -25.1922 0
4.01689 0.587323 -25.3643 0
3.83589 0.219106 -25.4017 0
4.8096 -0.0807344 -26.1096 0
-1.46991 -0.103512 -25.2853 0
-3.24491 -0.188689 -25.3178 0
-7.00215 -0.490708 -24.957 0
-6.98992 -1.79871 -25.3618 0
0.409369 -1.86681 -25.8896 0
-4.05524 -2.14921 -25.39 0
-7.54032 -2.24946 -25.3505 0
5.02198 -2.2738 -26.0203 0
-7.38192 -2.27213 -25.3477 0
3.72178 -2.48425 -26.0384 0
7.79461 -2.5347 -25.3848 0
2.72958 -2.70977 -26.0446 0
7.31155 -2.8009 -25.8551 0
7.73422 -2.85475 -25.5238 0
-7.90831 -2.91038 -25.489 0
4.76986 -2.9205 -26.0211 0
4.23844 -3.00981 -25.9996 0
-4.83285 -3.00124 -25.5501 0
7.61053 -3.20294 -25.7251 0
-5.36219 -3.42763 -25.4819 0
-0.968632 -3.82039 -25.9919 0
6.14471 -4.13212 -25.9926 0
0.679863 -4.21625 -26.0063 0
4.86429 -4.47471 -26.0134 0
4.94483 -4.77008 -25.9938 0
5.5188 -5.53044 -25.9812 0
-1.77417 -6.23384 -25.9076 0
-0.953225 -6.55929 -25.9034 0
6.90047 -6.69368 -25.9698 0
-2.92184 -6.83152 -26.0187 0
-2.92184 -6.83152 -26.0187 0
-2.46991 -6.86088 -26.0351 0
-3.33622 -6.89776 -26.0435 0
-4.65429 -7.10702 -26.0125 0
0.687534 -7.59288 -25.969 0
-1.39157 -7.83088 -25.9658 0
-0.950295 -7.90804 -25.9367 0
4.26176 -8.00963 -26.0848 0
1.95356 4.20871 -25.0381 0
8.24657 2.34577 -26.11 0
8.24657 2.34577 -26.11 0
-5.81859 2.22748 -25.3265 0
-5.60466 2.07656 -25.336 0
7.34874 0.195818 -25.2327 0
7.07111 0.226354 -25.2324 0
7.72049 0.152109 -25.2535 0
7.85796 -0.479289 -25.3034 0
1.4636 -1.9442 -25.9184 0
1.4636 -1.9442 -25.9184 0
1.10482 -1.92784 -25.8933 0
1.47523 -2.19765 -26.0166 0
-4.01496 -2.41307 -25.4178 0
-7.80747 -2.49079 -25.3364 0
-8.14439 -2.73073 -25.3913 0
4.58934 -2.75141 -26.0254 0
4.40211 -2.87769 -26.0204 0
-7.58344 -2.89287 -25.4176 0
-0.740016 -3.07873 -26.0716 0
-5.6084 -3.35901 -25.4005 0
4.5221 -3.68582 -26.0048 0
-0.590496 -4.26925 -25.9855 0
4.3094 -4.34434 -25.9882 0
5.01595 -4.62777 -25.9919 0
1.14489 -4.83434 -26.1835 0
4.47333 -4.98098 -25.9748 0
4.16527 -5.50863 -25.9668 0
-2.11569 -6.2343 -25.9735 0
-0.237991 -6.00359 -22.2254 0
-2.50722 -6.62387 -26.0065 0
-2.50722 -6.62387 -26.0065 0
-2.19485 -7.12845 -25.9594 0
-2.19485 -7.12845 -25.9594 0
3.25475 -7.59206 -26.0306 0
4.00018 -7.70477 -26.0512 0
1.51317 5.04363 -24.9116 0
4.15854 2.08165 -25.028 0
-7.75955 -0.518883 -24.9643 0
-6.86817 -0.841973 -24.9268 0
-6.51694 -1.12285 -25.2043 0
1.51438 -1.68789 -25.8774 0
0.580066 -1.70071 -25.8975 0
2.93652 -2.01821 -26.0848 0
3.31171 -2.04349 -26.0809 0
-1.8642 -4.19211 -25.961 0
6.07735 -4.47796 -26.0192 0
4.09508 -4.87956 -25.9808 0
-0.432524 -5.62211 -25.936 0
-3.43017 -6.17457 -26.0351 0
-0.871573 -6.36581 -25.9138 0
-1.68173 -6.44815 -25.9357 0
-2.26979 -6.70362 -25.9602 0
0.976387 -6.8899 -25.9305 0
-5.05177 -7.12495 -26.0572 0
-1.32145 -7.55867 -25.9351 0
1.98093 2.10979 -25.1106 0
8.02504 -0.654412 -25.3132 0
5.61872 -1.98033 -26.0108 0
-7.21293 -2.09347 -25.3582 0
2.75987 -2.33643 -26.0911 0
3.067 -2.54331 -26.0586 0
5.87987 -4.06456 -26.0089 0
-0.333576 -4.18255 -25.9921 0
0.979029 -4.43259 -26.1812 0
-0.22205 -4.56855 -25.9596 0
4.53591 -4.91803 -25.9763 0
6.32596 -5.30358 -25.9756 0
0.508053 -5.9779 -22.2254 0
0.732252 -6.24453 -22.2254 0
3.6904 -7.82945 -26.0379 0
3.99559 -7.9345 -26.0645 0
-6.94393 3.6624 -25.3733 0
7.18602 2.57391 -26.1129 0
-7.40386 -0.893752 -24.9247 0
-5.9802 -3.60148 -25.4382 0
-1.76854 -3.82077 -25.9793 0
4.30419 -4.65009 -25.9802 0
-0.504231 -6.14847 -22.2254 0
-0.78706 -6.82333 -25.9221 0
-5.47154 7.84113 -25.4167 0
-1.5852 4.1486 -25.1748 0
-7.26908 2.21018 -25.1937 0
-0.903994 -0.167315 -25.3001 0
-7.31321 -1.51786 -25.0039 0
-3.66733 -3.34995 -25.7744 0
-0.648875 -4.7258 -25.9862 0
-5.42209 4.63841 -25.1417 0
-7.88186 -1.20955 -24.9097 0
-7.5708 -4.24508 -25.7025 0
-1.2706 -4.83907 -25.9918 0
