ply
format ascii 1.0
element vertex 366
property float x
property float y
property float z
property uchar intensity
end_header
-3.07483 6.87876 -24.858 0
-4.20751 6.28751 -24.8709 0
-1.84537 6.20455 -24.9182 0
-3.57641 6.13961 -24.939 0
-3.59807 5.82513 -24.9584 0
-3.55801 5.71935 -24.9853 0
5.32159 5.00135 -25.0865 0
0.200345 2.88083 -25.2125 0
-0.215155 2.87408 -25.1999 0
7.23932 2.72638 -25.2611 0
-4.40872 -1.83821 -25.7626 0
-8.20303 -2.71154 -25.5624 0
-1.90801 -6.12115 -25.7751 0
-5.44842 7.85666 -25.3225 0
1.9337 7.16255 -24.9026 0
-4.06854 6.26344 -24.8816 0
-6.02702 6.30593 -25.2164 0
-4.09098 6.18718 -24.8883 0
-4.09098 6.18718 -24.8883 0
-3.90443 5.97343 -24.9015 0
-3.62702 5.95852 -24.9415 0
-3.52617 5.84525 -24.9695 0
-3.52617 5.84525 -24.9695 0
-3.95806 5.44819 -24.9454 0
-5.13974 4.95412 -25.0145 0
5.51639 4.85027 -25.0973 0
3.72911 4.6802 -25.0788 0
2.35122 4.52751 -25.1342 0
5.72472 4.34221 -25.0801 0
3.74837 3.93142 -25.119 0
7.29327 3.74757 -25.2281 0
0.675609 3.58184 -25.1218 0
0.0769529 3.11279 -25.12 0
-1.03708 2.98466 -25.0415 0
-0.29081 2.81119 -25.1983 0
-0.129011 2.76933 -25.2004 0
6.72861 2.70391 -25.2957 0
7.02535 0.789782 -25.3723 0
-3.84687 -1.7823 -25.5385 0
-5.49733 -2.02277 -25.6683 0
-6.30841 -2.23941 -25.6316 0
-7.71967 -2.59685 -25.8706 0
2.26992 -3.36346 -25.6683 0
2.0612 -3.38234 -25.5507 0
6.43162 -5.42288 -25.7999 0
-3.81762 7.87672 -24.8963 0
-3.69281 6.41448 -24.8657 0
-4.64231 6.36965 -24.92 0
-3.84777 6.32251 -24.8812 0
-4.12446 6.32624 -24.8831 0
-1.91542 6.27072 -24.8931 0
-2.80463 6.24674 -24.9477 0
-5.86454 6.21607 -25.1758 0
-3.62223 6.03743 -24.9348 0
-3.47057 5.94408 -24.9588 0
-4.04362 5.80702 -24.9025 0
-3.17195 5.78608 -24.9961 0
-3.74505 5.69157 -24.9448 0
4.22516 4.92883 -25.085 0
-6.88189 4.76571 -25.1912 0
2.76162 3.57195 -25.3611 0
0.236794 3.13201 -25.1407 0
-0.389394 2.97665 -25.1455 0
-1.21267 2.92859 -25.0471 0
-1.21267 2.92859 -25.0471 0
-2.10929 2.76587 -25.2725 0
7.25814 2.31229 -25.2629 0
-4.57425 2.09935 -25.1602 0
-7.71432 2.11627 -25.2207 0
0.00975105 1.40147 -25.2669 0
-0.682154 1.40702 -25.2845 0
-4.45343 1.41899 -25.3285 0
-1.41151 1.36585 -25.6401 0
-1.73276 1.35784 -25.7287 0
-0.895684 1.28301 -25.2533 0
-3.15095 1.06321 -25.8562 0
-8.16123 1.01304 -25.2243 0
7.60915 0.729576 -25.3857 0
0.271105 -1.17322 -25.4438 0
-2.55147 -1.2438 -25.8763 0
-4.09647 -1.73961 -25.5382 0
-5.03857 -1.93647 -25.8723 0
-1.30419 -2.2145 -25.8543 0
-7.75758 -2.36319 -25.7953 0
-2.58941 -3.79797 -25.8215 0
-2.51968 -3.8286 -25.8229 0
-1.85226 -4.0281 -25.839 0
-2.28163 -4.86855 -25.7842 0
6.5277 -5.43306 -25.7953 0
6.1477 -6.04214 -25.8395 0
-1.85067 -6.11792 -25.7747 0
-1.92376 -6.33115 -25.7497 0
-2.33694 -6.79977 -25.5668 0
7.42379 8.07196 -24.9424 0
-0.0518171 6.99347 -24.8652 0
-1.96222 6.20487 -24.9143 0
-4.1856 6.21263 -24.8819 0
-0.632791 6.153 -24.9535 0
-1.87068 6.1265 -24.9482 0
-3.88203 6.0602 -24.9031 0
-7.21007 5.31637 -25.1979 0
-3.83917 5.10464 -24.9862 0
-6.87382 5.10548 -25.194 0
3.30318 4.81943 -25.2299 0
2.19051 4.55381 -25.1232 0
-6.91347 4.53742 -25.1824 0
2.70082 4.32566 -25.2788 0
0.153334 3.1549 -25.0999 0
-2.96452 2.93001 -25.2664 0
-5.71344 2.80063 -25.1704 0
0.406253 2.7407 -25.2191 0
0.0923339 2.67467 -25.1944 0
4.68768 1.60442 -25.295 0
4.68768 1.60442 -25.295 0
4.53209 1.50735 -25.2908 0
4.22572 1.51002 -25.285 0
2.07896 1.22181 -25.2843 0
-0.74042 -0.870818 -25.9092 0
-2.96285 -1.8099 -25.8597 0
-3.71823 -1.82496 -25.5387 0
-2.6054 -1.8744 -25.8516 0
-3.29287 -2.21972 -25.851 0
1.96264 -3.0236 -25.7585 0
1.97797 -3.12139 -25.7447 0
2.24779 -3.26848 -25.7501 0
-2.63539 -3.92986 -25.8185 0
-2.95428 -4.22872 -25.7596 0
4.28189 -4.88673 -25.6062 0
-1.84156 -5.65332 -25.756 0
-1.84156 -5.65332 -25.756 0
-2.28986 -5.65896 -25.7892 0
-2.14905 -5.84248 -25.7224 0
-2.14905 -5.84248 -25.7224 0
-1.38262 -6.52745 -25.6064 0
6.10891 -6.93224 -25.7955 0
5.99351 -7.09018 -25.7959 0
-4.2455 8.52033 -25.2695 0
-6.56369 8.3025 -25.3572 0
-1.70698 8.04592 -24.8798 0
2.30681 7.78939 -24.945 0
-3.75349 7.78437 -24.8778 0
1.80797 7.39231 -24.9178 0
6.18302 6.90445 -24.9433 0
-3.77162 6.15317 -24.8994 0
-3.49848 6.08977 -24.9466 0
-2.97792 6.02332 -24.9786 0
-3.74076 5.99413 -24.9104 0
-7.53875 5.70526 -25.2192 0
-3.60548 5.49773 -24.9876 0
-7.32377 5.52785 -25.2072 0
-7.22375 5.44666 -25.1988 0
-3.30376 5.29867 -24.9959 0
-0.63334 5.25171 -24.9717 0
-4.1592 5.27734 -24.9755 0
-1.49794 4.86299 -24.9355 0
-1.49794 4.86299 -24.9355 0
-6.31854 3.61266 -25.1798 0
-5.88083 3.09846 -25.212 0
0.123458 2.79432 -25.2075 0
0.268377 2.68522 -25.2048 0
-6.57372 2.59253 -25.1981 0
5.3964 1.64225 -25.293 0
4.55831 1.62077 -25.276 0
2.20575 1.52462 -25.2407 0
-0.799345 1.37956 -25.2768 0
2.7928 1.24926 -25.3056 0
6.21556 0.977676 -25.342 0
3.75941 0.95934 -25.3223 0
6.28232 0.841991 -25.3602 0
4.75419 -0.0462879 -25.3898 0
-6.63746 -0.141223 -25.4612 0
4.09267 -0.825689 -25.3921 0
4.02482 -1.06087 -25.4911 0
4.65679 -1.3059 -25.5399 0
4.52405 -1.4765 -25.4861 0
3.13304 -1.57237 -25.4475 0
-4.33028 -1.68337 -25.6513 0
5.32197 -1.8852 -25.5208 0
-2.31256 -1.98601 -25.8545 0
-2.31256 -1.98601 -25.8545 0
-4.82635 -2.0762 -25.9514 0
-5.0211 -2.1208 -25.9251 0
-5.20993 -2.16573 -25.9223 0
-5.37621 -2.20356 -25.9172 0
-5.61502 -2.25587 -25.6828 0
-5.72099 -2.27715 -25.5998 0
7.2519 -2.32004 -25.5754 0
-2.45309 -2.78885 -25.8444 0
-2.40221 -2.97168 -25.836 0
2.14068 -3.06026 -25.7657 0
-0.444208 -3.33341 -25.8588 0
-2.66966 -3.63774 -25.8226 0
-1.61144 -3.74861 -25.8413 0
-2.18747 -4.47818 -25.8015 0
-2.35913 -4.52406 -25.7934 0
-2.35913 -4.52406 -25.7934 0
4.75349 -4.87572 -25.6393 0
-2.06559 -5.07323 -25.8103 0
-2.20748 -5.11392 -25.8045 0
-1.65476 -5.24677 -25.8047 0
6.25197 -5.41969 -25.7914 0
-2.68889 -5.42628 -25.7999 0
-0.671053 -5.45543 -25.8525 0
-1.9209 -5.56003 -25.7816 0
5.59995 -6.83505 -25.8049 0
5.89345 -7.21178 -25.8287 0
-8.63236 7.83786 -25.2897 0
3.83104 7.54166 -24.9197 0
-3.39376 7.45847 -24.8774 0
-0.341579 6.9801 -24.8829 0
-6.33239 6.91449 -25.1994 0
2.93333 6.40473 -25.0478 0
-3.55709 6.23964 -24.9367 0
0.335327 6.11521 -25.055 0
-2.23276 5.86717 -25.0227 0
6.78517 4.62397 -25.1109 0
6.3781 3.76769 -25.2395 0
5.73275 3.76913 -25.2436 0
3.37465 3.214 -25.2438 0
-2.85819 2.93216 -25.2999 0
6.92067 1.65732 -25.2917 0
0.213214 1.40156 -25.2591 0
0.213214 1.40156 -25.2591 0
6.35841 1.31011 -25.387 0
5.91694 1.30057 -25.3629 0
2.38967 1.25539 -25.2838 0
0.188085 1.2314 -25.2847 0
-0.804168 1.22618 -25.2451 0
-0.804168 1.22618 -25.2451 0
3.4084 0.955069 -25.3378 0
7.36653 0.856976 -25.3655 0
2.8495 0.824467 -25.3459 0
4.1335 -0.323558 -25.3648 0
3.01654 -0.377912 -25.3675 0
7.18868 -0.467061 -25.4315 0
3.88228 -0.644526 -25.375 0
3.18806 -0.730129 -25.3758 0
7.1633 -0.776762 -25.4097 0
7.37171 -0.922 -25.4102 0
3.20865 -0.968003 -25.4258 0
0.0561441 -1.15108 -25.4903 0
-2.33668 -1.37926 -25.8657 0
-4.08994 -1.6432 -25.5373 0
-4.08994 -1.6432 -25.5373 0
-5.05023 -1.85207 -25.819 0
-4.53126 -1.8681 -25.8569 0
-4.53126 -1.8681 -25.8569 0
-4.05364 -1.87138 -25.5372 0
-4.05364 -1.87138 -25.5372 0
-3.01983 -1.93977 -25.8554 0
-4.91968 -1.96173 -25.9385 0
-5.32075 -2.05026 -25.8528 0
-3.10125 -2.05311 -25.8493 0
6.20046 -2.20516 -25.5505 0
-5.98412 -2.20566 -25.6221 0
-6.20222 -2.2402 -25.6269 0
7.44648 -2.49171 -25.6152 0
-2.87762 -2.75867 -25.843 0
-2.76528 -3.05787 -25.8363 0
2.81548 -3.22366 -25.7746 0
3.06745 -3.42461 -25.572 0
-2.20482 -3.50553 -25.825 0
-2.15909 -4.32636 -25.8103 0
-2.15909 -4.32636 -25.8103 0
5.23406 -4.59031 -25.6384 0
5.1552 -4.75869 -25.6598 0
-2.26276 -4.98312 -25.7783 0
-2.02352 -5.67922 -25.755 0
6.46164 -6.03357 -25.8539 0
1.87638 8.17429 -24.945 0
3.64166 7.93617 -24.9704 0
2.03416 7.69591 -24.9249 0
-7.78506 5.5802 -25.2082 0
6.89886 5.39269 -25.0759 0
6.89886 5.39269 -25.0759 0
-7.55552 5.42732 -25.2107 0
3.97436 4.80417 -25.0755 0
2.15095 4.77538 -25.1142 0
-2.15312 4.22753 -25.1334 0
7.21521 3.57051 -25.2427 0
7.27356 3.17773 -25.227 0
6.4564 3.16992 -25.2164 0
2.01927 1.4777 -25.2432 0
1.63114 1.46596 -25.2694 0
0.964564 1.25491 -25.3054 0
3.17267 1.10454 -25.3338 0
6.49716 0.503845 -25.3834 0
4.72412 -0.258758 -25.3748 0
4.72762 -0.646531 -25.3848 0
7.58326 -1.08053 -25.4106 0
-3.76477 -1.16622 -25.8268 0
4.88254 -1.70267 -25.4972 0
-3.74259 -2.11485 -25.5385 0
-3.74259 -2.11485 -25.5385 0
2.10227 -3.22388 -25.8047 0
-2.10935 -4.59558 -25.7987 0
5.40251 -4.98248 -25.7102 0
5.97408 -5.97755 -25.8169 0
-2.87111 -6.34415 -25.7939 0
5.41596 -7.14984 -25.8464 0
5.02212 -7.18719 -25.8383 0
-2.88754 -7.26822 -25.5242 0
-3.76302 7.5092 -24.8322 0
-0.0851071 4.49972 -25.1371 0
7.53504 3.58406 -25.2221 0
4.28364 1.72948 -25.2666 0
1.44124 1.26247 -25.2874 0
1.74458 1.12127 -25.3 0
-0.598436 1.09538 -25.2981 0
3.20845 0.21415 -25.3813 0
-6.02234 0.0411542 -25.6435 0
4.53829 -0.0149611 -25.3682 0
5.0301 -1.03651 -25.5057 0
-3.87036 -1.69821 -25.5388 0
7.52935 -1.9288 -25.4918 0
-6.58688 -2.26524 -25.6397 0
-2.57605 -2.4203 -25.848 0
-2.86215 -2.48428 -25.8494 0
-0.103606 -2.88461 -25.8196 0
2.05158 -3.36016 -25.565 0
7.5316 -4.48016 -25.7821 0
5.69287 -4.61794 -25.6567 0
5.77883 -5.77773 -25.7881 0
-3.41374 7.62696 -24.8782 0
-0.846426 7.28686 -24.8769 0
7.66116 3.85611 -25.1844 0
-3.91598 3.76097 -25.2034 0
6.68116 3.04303 -25.281 0
7.66381 0.842019 -25.3573 0
3.03617 -0.614062 -25.3778 0
-0.221747 -0.806455 -25.6035 0
3.28848 -0.83486 -25.3786 0
-0.37183 -2.53579 -25.7515 0
-0.976011 -2.8748 -25.8206 0
2.79668 -3.40877 -25.7303 0
2.58793 -3.6336 -25.4317 0
-2.38398 -4.11583 -25.82 0
-1.58915 -5.51883 -25.7958 0
5.7404 -6.1463 -25.8134 0
-1.87212 -6.51461 -25.6521 0
5.98227 -6.60732 -25.8093 0
1.60421 7.59467 -24.8965 0
5.73794 5.76116 -24.9723 0
-0.0818149 4.43613 -25.1586 0
-0.536722 2.82037 -25.1875 0
-2.63282 1.56812 -25.4692 0
-1.28488 -0.399722 -25.8517 0
-2.22633 -1.2398 -25.8685 0
-2.39541 -1.73526 -25.8749 0
-2.70523 -2.48919 -25.848 0
4.49469 -4.74601 -25.6254 0
-2.70777 6.81615 -24.8669 0
5.90826 4.47635 -25.0845 0
-2.00693 4.44904 -25.1113 0
4.16275 1.43045 -25.3019 0
6.82757 0.989436 -25.3547 0
-3.74566 -1.42016 -25.5772 0
-2.6148 -2.92185 -25.8407 0
-2.28936 -4.51997 -25.7973 0
5.96218 -5.69426 -25.7883 0
6.66067 -5.78048 -25.8154 0
4.54617 -5.99588 -25.6782 0
-2.22945 -6.5677 -25.6218 0
-3.72376 8.01296 -24.9023 0
-8.16402 1.29054 -25.2072 0
7.44739 -4.91486 -25.8012 0
