ply
format ascii 1.0
element vertex 369
property float x
property float y
property float z
property uchar intensity
end_header
-2.82167 5.20109 -25.0316 0
-2.82167 5.20109 -25.0316 0
-2.85063 5.08901 -25.0274 0
1.23437 3.59683 -25.1086 0
-7.5354 3.33483 -25.2702 0
4.23107 2.58287 -25.3371 0
1.20904 2.44135 -25.2349 0
1.1832 2.39119 -25.2325 0
0.711232 1.79996 -25.2541 0
-3.57518 -3.70598 -25.3424 0
-4.21895 -3.85803 -25.8173 0
-1.95841 -8.31334 -25.7382 0
-4.58173 6.56789 -25.0382 0
-2.95745 6.50982 -24.8853 0
-3.33381 5.64391 -24.9742 0
-0.239548 5.53133 -24.9448 0
-0.464602 5.46023 -24.9071 0
-1.11673 5.44793 -25.0365 0
-3.19446 5.35118 -25.0059 0
-2.91281 5.32933 -25.0064 0
-4.56681 4.27236 -25.112 0
5.95229 3.76663 -25.0911 0
6.22181 3.71838 -25.1524 0
4.72512 3.58621 -25.1183 0
2.98875 3.28193 -25.1858 0
3.3791 2.1812 -25.2941 0
0.303962 1.82221 -25.2494 0
0.371221 1.70953 -25.2518 0
-8.42636 0.218949 -25.3453 0
-1.78999 0.0578317 -25.9748 0
4.14698 0.0459187 -25.4122 0
-3.10693 -1.51275 -25.7733 0
-3.6456 -3.80577 -25.3424 0
-6.20414 -4.21216 -25.9044 0
-7.89066 -4.4906 -25.8466 0
-8.41037 -4.59781 -25.895 0
2.60398 -5.0206 -25.6605 0
2.06641 -5.06815 -25.7483 0
2.40294 -5.288 -25.6675 0
-2.10511 -5.93682 -25.7967 0
-2.0448 -8.34902 -25.7307 0
-3.36877 5.55998 -24.9899 0
-1.17756 5.51445 -25.0422 0
-2.75661 5.30649 -25.0078 0
-3.4928 5.31029 -25.0696 0
-3.34443 5.19696 -25.0398 0
-3.58436 5.165 -25.1204 0
-3.059 5.04783 -25.0357 0
-3.27864 4.82819 -25.077 0
4.86505 3.76205 -25.1056 0
4.77725 3.74966 -25.1058 0
0.871155 3.67294 -25.0614 0
-0.168691 3.64475 -24.9891 0
1.39843 2.99374 -25.2253 0
1.39843 2.99374 -25.2253 0
6.3601 2.95006 -25.222 0
5.65897 2.74516 -25.2595 0
5.65897 2.74516 -25.2595 0
1.35996 2.22799 -25.2399 0
0.700139 2.00799 -25.2575 0
0.0310145 1.94119 -25.2491 0
7.79391 1.09134 -25.3877 0
7.70241 0.833413 -25.367 0
-0.263026 0.20726 -25.5669 0
-1.34259 0.21482 -25.9148 0
-1.11038 0.198658 -25.8982 0
-7.83255 0.136886 -25.4081 0
-1.66246 0.0577645 -25.9537 0
-0.704871 0.0410502 -26.1131 0
4.37645 -0.107472 -25.374 0
3.14523 -0.263073 -25.388 0
7.53182 -1.06244 -25.4101 0
-2.24136 -1.58994 -25.9154 0
-0.570551 -2.00532 -25.8923 0
5.79566 -3.676 -25.539 0
-7.28363 -4.21865 -25.9339 0
-7.37482 -4.41712 -25.9337 0
-7.37482 -4.41712 -25.9337 0
-7.62875 -4.45907 -25.8448 0
2.12916 -5.04964 -25.743 0
2.44859 -5.22119 -25.6645 0
-2.42977 -5.98844 -25.8471 0
-2.54396 -6.10028 -25.8529 0
-1.76535 -6.22012 -25.8319 0
4.46667 -6.76347 -25.5448 0
-2.36473 -7.40138 -25.677 0
-1.90635 -8.32106 -25.749 0
-3.58778 6.67298 -24.8845 0
-8.60525 5.77417 -24.9296 0
-8.73454 5.75967 -24.9466 0
-2.07402 5.61521 -24.9978 0
-3.04024 5.52068 -24.9797 0
-1.23182 5.46005 -25.0429 0
-2.78097 5.44054 -24.9843 0
-3.15961 5.43755 -24.9923 0
-2.46413 5.11418 -25.0651 0
-6.8273 4.60743 -24.9684 0
-6.52356 4.23703 -25.0957 0
-0.86347 4.13397 -25.1542 0
-0.86347 4.13397 -25.1542 0
-6.15708 4.00251 -25.1563 0
3.9131 3.75595 -25.5144 0
4.13731 3.68491 -25.2513 0
0.780954 3.61933 -25.0306 0
0.52157 3.60989 -24.9783 0
0.960374 3.58064 -25.0789 0
-0.102867 3.54694 -24.9557 0
-0.879459 3.53832 -25.0021 0
-0.458333 3.48682 -24.9773 0
-0.713901 3.47862 -24.9668 0
-0.974873 3.47448 -24.9769 0
2.9754 3.47868 -25.1629 0
3.00087 3.36789 -25.1645 0
-7.5336 3.20285 -25.2621 0
-7.5336 3.20285 -25.2621 0
-5.97221 2.28702 -25.0941 0
0.784868 1.95907 -25.2655 0
7.79659 1.83219 -25.2782 0
7.27797 1.76086 -25.2893 0
0.602003 1.60218 -25.256 0
7.86036 0.638116 -25.3863 0
-1.25737 0.280782 -25.8849 0
0.43906 0.157901 -25.3338 0
-1.37914 0.136411 -25.9244 0
-0.833892 0.0981785 -26.075 0
-0.471118 0.0736981 -25.8963 0
5.18623 0.0285043 -25.3864 0
-1.54009 0.0209446 -25.9202 0
4.71721 -0.0392461 -25.3757 0
6.21875 -0.199471 -25.3987 0
2.52379 -0.241882 -25.3794 0
7.07982 -0.274171 -25.4279 0
-1.05725 -1.5193 -25.8903 0
4.42084 -2.54143 -25.5054 0
1.39321 -2.70502 -25.7413 0
5.19566 -2.91474 -25.5798 0
7.18225 -2.96915 -25.6085 0
5.4289 -3.57987 -25.5545 0
8.35605 -3.75674 -25.7465 0
-2.733 -3.88253 -25.3431 0
-1.08868 -4.12075 -25.878 0
-3.09309 -4.27159 -25.3444 0
2.4329 -5.11883 -25.667 0
-2.88606 -6.53464 -25.8476 0
4.41206 -7.07081 -25.4499 0
-2.42492 -7.61841 -25.6798 0
-1.93895 -7.77244 -25.7852 0
-2.31832 -7.85017 -25.7342 0
-3.48472 7.59035 -24.8639 0
-3.64538 7.43184 -24.899 0
-8.4792 5.80374 -24.9047 0
-5.3087 5.72641 -25.0364 0
6.95798 5.59045 -25.0112 0
-3.03 5.36319 -25.0028 0
-1.61018 5.25933 -25.04 0
-3.48743 4.62072 -25.1255 0
-6.63601 4.42621 -25.0273 0
-1.15376 3.53577 -25.0345 0
-5.9421 3.25374 -25.1462 0
3.21351 2.66906 -25.2913 0
0.762163 2.38848 -25.1997 0
-6.09346 1.83287 -25.1859 0
0.897831 1.62255 -25.2548 0
-8.44068 1.34642 -25.195 0
7.56332 0.892767 -25.3657 0
-0.404983 0.183342 -25.7598 0
2.65476 0.0646764 -25.3761 0
5.07078 0.0456691 -25.4021 0
5.9447 0.00464173 -25.3518 0
4.99509 -0.108932 -25.4025 0
2.83148 -0.262026 -25.3687 0
3.24957 -0.290501 -25.4182 0
-4.93611 -0.311717 -25.9152 0
2.78246 -0.559929 -25.3879 0
6.77329 -0.961823 -25.402 0
4.37839 -1.76057 -25.4846 0
4.25014 -2.37146 -25.4857 0
4.36132 -2.80324 -25.4873 0
-3.26257 -2.82471 -25.8717 0
-1.59539 -3.12901 -25.8715 0
4.88903 -3.32909 -25.5987 0
3.39382 -3.31907 -25.6192 0
-1.49698 -3.41187 -25.8695 0
-3.33536 -3.49689 -25.3426 0
-4.13877 -3.68419 -25.3424 0
5.65512 -3.81748 -25.5582 0
-2.38246 -3.95461 -25.8467 0
-4.08094 -3.94733 -25.3423 0
-2.79978 -4.00418 -25.3432 0
-4.6368 -4.06151 -25.8175 0
-4.83071 -4.09767 -25.8176 0
-5.03262 -4.12965 -25.8179 0
-2.09743 -4.1134 -25.8476 0
-2.87007 -4.11207 -25.3434 0
-5.20969 -4.16426 -25.818 0
6.95479 -4.18965 -25.7461 0
-5.47336 -4.21247 -25.8181 0
-5.59188 -4.22926 -25.8187 0
-2.89995 -4.23057 -25.3438 0
-5.8659 -4.28666 -25.895 0
-6.08693 -4.32159 -25.9006 0
7.59787 -4.48251 -25.7733 0
7.79122 -4.67262 -25.836 0
2.19113 -4.9504 -25.7344 0
-2.249 -5.10074 -25.8113 0
-2.64371 -5.17019 -25.8172 0
-2.25814 -5.71688 -25.8479 0
-2.90592 -6.34073 -25.8485 0
-2.1397 -6.6568 -25.7642 0
-2.32126 -6.69654 -25.7456 0
-2.32126 -6.69654 -25.7456 0
4.93496 -7.15223 -25.7198 0
-2.04943 -7.26347 -25.6809 0
-2.19039 -7.29256 -25.6282 0
-0.677718 -7.44846 -25.6598 0
-2.71642 -7.5595 -25.5658 0
2.29626 8.0038 -24.9127 0
0.424877 7.87173 -25.0223 0
-0.82442 6.52856 -24.8782 0
-2.90034 6.41623 -24.8778 0
-1.56327 5.11699 -25.0638 0
-2.92275 4.8474 -25.0523 0
-2.6274 4.58157 -25.1064 0
-4.76527 3.90996 -25.1585 0
-7.80595 3.43052 -25.2525 0
7.4286 3.37274 -25.3276 0
3.33525 3.04797 -25.2047 0
5.06154 2.54741 -25.2834 0
-5.20724 2.03094 -25.2689 0
3.94122 1.91481 -25.3499 0
-2.34705 1.89042 -25.4216 0
1.23616 -0.0333272 -25.3243 0
7.45182 -0.0725522 -25.3617 0
4.1655 -0.074075 -25.3846 0
6.96643 -0.219465 -25.4266 0
-8.58633 -0.213767 -25.4247 0
-1.87338 -0.365298 -25.9421 0
6.41549 -0.454355 -25.4244 0
6.86222 -0.487173 -25.3964 0
-1.78936 -0.603588 -25.9457 0
3.28867 -0.732572 -25.4247 0
6.6957 -0.823017 -25.4019 0
6.9378 -1.29378 -25.6138 0
5.17872 -1.80264 -25.5081 0
-0.191878 -2.0188 -25.8912 0
4.01904 -2.379 -25.4815 0
3.53831 -2.40343 -25.4711 0
7.57718 -2.48382 -25.6073 0
7.55313 -2.79364 -25.6252 0
8.25296 -2.86359 -25.6666 0
4.60507 -3.10735 -25.5956 0
-2.33801 -3.58653 -25.8556 0
-4.89092 -3.83979 -25.8175 0
-4.34276 -3.87405 -25.8173 0
-4.34276 -3.87405 -25.8173 0
-3.84323 -3.88085 -25.3424 0
-4.74514 -3.94271 -25.8175 0
-5.15731 -4.01996 -25.8181 0
5.90153 -4.10921 -25.6183 0
-5.90476 -4.15614 -25.898 0
-3.52999 -4.11815 -25.3421 0
-3.52999 -4.11815 -25.3421 0
-6.09611 -4.17761 -25.9033 0
-2.86698 -4.57085 -25.7998 0
-0.587442 -4.75978 -25.8459 0
2.32905 -4.86545 -25.7045 0
2.53177 -4.86403 -25.6661 0
-2.29197 -4.92775 -25.8182 0
3.01653 -5.12019 -25.661 0
-0.241599 -5.13069 -25.8457 0
-1.06458 -5.22404 -25.8409 0
-2.66886 -5.32085 -25.8307 0
3.26087 -5.37654 -25.6688 0
-2.59857 -5.77516 -25.8599 0
4.24309 -6.54857 -25.5617 0
5.43208 -6.93338 -25.6934 0
5.32911 -7.07917 -25.7015 0
6.69027 -7.79065 -25.9183 0
-2.03298 -7.88292 -25.7688 0
6.50709 -8.04025 -26.0618 0
-7.75798 6.79194 -25.065 0
3.81573 6.06569 -25.0062 0
-7.06444 4.50625 -24.9205 0
-6.85881 4.3515 -24.9783 0
7.56055 4.11603 -25.0907 0
7.56055 4.11603 -25.0907 0
6.32799 2.30017 -25.4162 0
6.97981 2.24714 -25.3782 0
7.84509 1.96738 -25.2766 0
7.05192 1.63047 -25.291 0
-2.62907 1.44497 -25.8613 0
-2.53122 1.29946 -25.8851 0
0.640509 0.137735 -25.3213 0
2.46291 0.0912534 -25.3658 0
-0.397696 -0.012007 -25.8262 0
0.61004 -0.0727706 -25.3215 0
-2.66616 -0.306866 -25.9017 0
1.87463 -0.358051 -25.3358 0
3.63214 -0.465389 -25.4329 0
-4.85306 -0.527355 -25.889 0
7.87085 -0.981926 -25.4029 0
3.59258 -1.39004 -25.4579 0
-1.58256 -1.85134 -25.8979 0
-2.84683 -1.9857 -25.8873 0
5.10312 -2.44302 -25.5089 0
3.55438 -2.6196 -25.4596 0
7.80324 -2.9894 -25.6578 0
8.02979 -3.1511 -25.6731 0
-3.5134 -3.22095 -25.3426 0
-1.65486 -3.28868 -25.8603 0
-3.89294 -3.6475 -25.3424 0
-3.89294 -3.6475 -25.3424 0
7.94507 -4.06359 -25.7285 0
2.28725 -5.03838 -25.7027 0
-2.1064 -6.50519 -25.8014 0
-2.06297 -6.77504 -25.6858 0
-2.35109 -6.83417 -25.6613 0
5.88102 -7.03283 -25.7909 0
6.00389 -7.49201 -25.9372 0
8.23977 3.11315 -25.2455 0
8.1555 1.95955 -25.2825 0
7.92107 1.54243 -25.3099 0
-7.96383 1.17195 -25.2029 0
2.09402 0.102834 -25.3537 0
1.40049 -0.107386 -25.3094 0
1.87706 -0.15048 -25.324 0
-1.72462 -0.969598 -25.9265 0
4.97513 -1.70842 -25.5012 0
5.1303 -2.04589 -25.5124 0
5.38361 -2.88029 -25.5746 0
-3.6531 -3.72352 -25.3424 0
-6.49867 -4.1947 -25.9138 0
-2.3774 -4.51728 -25.8163 0
-2.67929 -4.58552 -25.8002 0
2.72888 -5.5131 -25.646 0
-2.57165 -5.54596 -25.8531 0
7.81836 -7.04477 -26.0653 0
-5.51947 6.32717 -25.2812 0
-2.97426 6.1681 -24.9319 0
8.30985 2.22513 -25.2743 0
7.24597 1.46644 -25.3092 0
-8.28405 -0.0698216 -25.5077 0
2.18018 -0.32252 -25.352 0
8.15748 -1.04085 -25.4079 0
0.0958309 -2.20456 -25.823 0
3.62508 -2.51972 -25.4688 0
-2.2743 -3.36554 -25.8639 0
-0.172235 -4.13597 -25.7864 0
2.99214 -5.31981 -25.6724 0
-2.30912 -6.25814 -25.8435 0
-1.59459 -7.75089 -25.8115 0
6.45186 4.45918 -25.0806 0
-2.84542 4.10826 -25.1108 0
8.15209 2.5795 -25.2851 0
-8.53643 1.14483 -25.2033 0
-0.953672 -1.70191 -25.8941 0
-1.33088 -1.91681 -25.9188 0
3.38335 -2.28074 -25.4666 0
-1.15528 -2.34277 -25.9093 0
-1.93563 -3.41899 -25.8585 0
-2.15937 -3.85377 -25.8516 0
4.64578 -6.96059 -25.5269 0
-2.8533 6.63859 -24.8773 0
-8.04335 3.75766 -25.1478 0
7.32685 -0.852116 -25.4103 0
-2.46278 -5.03392 -25.8199 0
-2.24335 -6.68268 -25.7473 0
6.57853 3.08724 -25.3401 0
7.71472 -7.49264 -26.0583 0
