ply
format ascii 1.0
element vertex 310
property float x
property float y
property float z
property uchar intensity
end_header
0.773142 4.69517 -24.9831 0
-7.6787 4.6333 -24.9543 0
0.796303 4.40268 -24.9588 0
-7.35363 4.36379 -24.8618 0
0.768963 4.29278 -24.9693 0
-2.82085 3.50587 -24.9589 0
6.95152 2.58169 -24.9884 0
7.53072 1.37913 -25.1422 0
5.89969 1.20615 -25.165 0
5.13325 0.898671 -25.1103 0
2.49135 4.71166 -24.9768 0
0.710713 4.52944 -24.9553 0
-7.93802 4.59609 -24.8808 0
-3.34819 4.45044 -24.938 0
-3.21642 3.79189 -24.9347 0
-3.07451 3.76964 -24.9562 0
-3.27332 3.71098 -24.922 0
-2.5825 2.90358 -25.046 0
7.11957 2.57797 -24.9899 0
7.448 2.57144 -25.0668 0
8.07279 2.30919 -24.9908 0
7.58157 2.15553 -25.1007 0
-7.85124 2.00778 -24.9427 0
6.24776 1.44171 -25.0971 0
7.28159 1.41597 -25.1221 0
6.98971 1.40735 -25.0989 0
4.81031 0.805091 -25.1216 0
5.16871 0.760058 -25.098 0
5.59259 -0.943358 -25.2567 0
-1.25295 -2.32121 -25.2078 0
-1.14487 -2.40087 -25.1792 0
3.07583 -5.58208 -26.0586 0
1.52079 -5.8841 -26.0172 0
-0.647081 -6.21042 -26.0239 0
-0.99673 -6.26555 -26.031 0
-1.83768 -6.40887 -26.0289 0
-3.47451 -6.54221 -26.0334 0
5.90298 5.944 -25.5591 0
3.52495 5.80647 -25.51 0
2.471 4.64988 -24.9361 0
0.721861 4.61255 -24.9671 0
-3.5868 4.3841 -24.953 0
-3.76852 3.57606 -24.9471 0
2.65874 3.1511 -24.9919 0
-7.66173 3.14187 -24.9167 0
-3.44023 3.05242 -24.9244 0
-7.59032 2.98829 -24.9167 0
3.51695 2.82158 -24.9117 0
-7.50542 2.60245 -24.8686 0
7.57649 2.52251 -25.0803 0
7.50807 2.49316 -25.0793 0
-3.0593 2.3135 -25.006 0
-1.2843 2.03221 -25.2935 0
6.16451 1.4582 -25.1048 0
6.16451 1.4582 -25.1048 0
-0.973789 1.30862 -25.2691 0
0.64951 1.2626 -25.0765 0
-3.81042 0.791564 -25.2715 0
-4.545 0.395435 -25.3013 0
-2.43185 -0.732166 -25.3516 0
3.61104 -0.758643 -25.2714 0
5.47749 -0.769352 -25.1633 0
6.01624 -5.52502 -26.0439 0
0.674712 -6.02159 -26.0412 0
-0.152538 -6.15301 -26.0249 0
-1.2629 -6.31274 -26.016 0
-7.89378 -7.38289 -26.1074 0
-7.09317 -7.58343 -26.0416 0
-7.09317 -7.58343 -26.0416 0
-8.15807 -7.69778 -26.0716 0
6.71829 -8.17412 -26.1092 0
-5.16137 -8.41565 -26.0421 0
-4.46117 -8.40983 -26.0284 0
8.01372 6.95959 -25.6763 0
1.14884 5.90547 -25.5069 0
1.14884 5.90547 -25.5069 0
-1.84134 5.76676 -25.4279 0
0.832797 4.6417 -24.9681 0
0.847068 4.49759 -24.9396 0
2.90992 4.47857 -24.932 0
-7.83221 4.41221 -24.8319 0
-8.06554 4.23403 -24.9343 0
-0.770442 3.80706 -25.3924 0
-3.51472 3.5975 -24.9233 0
2.64732 3.31602 -24.9916 0
-3.01219 3.30424 -24.9257 0
-7.66841 3.24524 -24.9024 0
-2.99563 3.11405 -24.9529 0
-5.04289 3.1202 -25.3647 0
8.08979 2.83242 -24.9393 0
3.60597 2.73182 -24.9648 0
4.36698 2.6773 -24.9579 0
3.25087 2.6699 -24.9678 0
2.89682 2.60591 -24.9617 0
2.80542 2.54805 -24.9659 0
-7.46017 2.48268 -24.877 0
2.88945 2.42794 -24.9722 0
-7.33949 2.41474 -24.8517 0
2.80327 2.35642 -25.0017 0
-7.49411 1.89836 -24.9036 0
-0.490797 1.63974 -25.2078 0
8.26518 1.55696 -25.1334 0
2.88119 1.10137 -25.1257 0
2.45649 1.00129 -25.2632 0
-0.373105 0.929433 -25.0639 0
4.80779 0.683605 -25.0811 0
5.7577 0.403281 -25.1791 0
-3.56128 0.340875 -25.2818 0
-4.41756 0.278018 -25.3089 0
0.0817838 0.206753 -25.0107 0
3.61081 -0.831902 -25.2645 0
5.46347 -0.851269 -25.2154 0
4.28195 -0.960161 -25.2533 0
-2.99889 -1.17483 -25.3225 0
6.44274 -1.20193 -25.2611 0
6.91586 -1.2321 -25.2579 0
-3.13345 -1.44616 -25.2887 0
0.972745 -1.66706 -25.2491 0
4.82533 -2.84304 -25.3046 0
1.72118 -4.84087 -25.847 0
1.26543 -4.91369 -25.8585 0
1.00202 -5.97618 -26.0246 0
1.00202 -5.97618 -26.0246 0
-8.67489 -6.67199 -26.0148 0
-2.68658 -7.20201 -26.0454 0
-3.12432 -7.19427 -25.9962 0
-3.06916 -7.2692 -25.9921 0
-5.57299 -7.33383 -25.9526 0
-7.57317 -7.45155 -26.114 0
6.2437 -7.60332 -26.1164 0
-5.50372 -7.86943 -26.0101 0
5.80857 -8.03487 -26.0071 0
-6.59919 -8.26695 -26.0998 0
3.17873 6.4346 -25.566 0
-3.58647 6.39038 -25.3576 0
-3.72949 6.36136 -25.3798 0
1.15693 6.05387 -25.503 0
5.91752 5.82603 -25.5239 0
3.55541 5.69643 -25.4687 0
-3.43426 4.46286 -24.9352 0
0.682637 4.0839 -24.9277 0
-0.854903 3.90632 -25.4014 0
-0.592505 3.63481 -25.4298 0
-0.543099 3.43682 -25.4828 0
-2.6836 3.09783 -25.0035 0
-3.17978 2.13896 -24.9845 0
-8.42273 2.14421 -24.9392 0
0.935667 1.88959 -25.0717 0
0.486779 1.59864 -25.0116 0
6.64633 1.4587 -25.1033 0
5.81328 1.35155 -25.1122 0
5.42338 1.29279 -25.1032 0
4.82805 0.911287 -25.1584 0
-2.95503 0.740945 -25.336 0
5.36794 0.708461 -25.1384 0
5.0341 0.692277 -25.1046 0
-3.52201 0.12501 -25.363 0
-3.31628 -0.498919 -25.321 0
4.55936 -0.797799 -25.1762 0
4.56242 -0.927279 -25.1829 0
6.13234 -1.07503 -25.2771 0
-3.09631 -1.09268 -25.3318 0
6.85309 -1.56595 -25.3247 0
7.63695 -1.63471 -25.3257 0
-3.50083 -1.76873 -25.2826 0
-0.800792 -2.01376 -25.2243 0
0.576691 -2.20491 -25.2458 0
-7.79499 -3.64887 -25.4104 0
5.83697 -5.61878 -25.9549 0
3.7802 -5.69405 -25.9933 0
6.45888 -5.82696 -26.0287 0
6.45888 -5.82696 -26.0287 0
3.1893 -5.784 -26.0168 0
5.64745 -5.84434 -25.9899 0
1.84294 -5.99158 -26.0074 0
-0.586207 -6.09984 -26.0526 0
6.2536 -6.95828 -26.0514 0
-4.24136 -7.0335 -26.0313 0
-4.95609 -7.15133 -26.047 0
-5.14725 -7.188 -26.0627 0
-8.83022 -7.62848 -26.0967 0
-8.40424 -7.66628 -26.1454 0
-8.40424 -7.66628 -26.1454 0
5.93703 -7.6405 -26.0657 0
-3.13374 -7.87136 -25.9913 0
5.91569 -7.99587 -26.0008 0
-7.37823 -8.06114 -26.1226 0
-7.37823 -8.06114 -26.1226 0
-7.57837 -8.09719 -26.1177 0
-7.57837 -8.09719 -26.1177 0
-8.47287 -8.23367 -26.1848 0
5.51791 -8.26421 -26.0043 0
3.08738 6.91091 -25.5739 0
3.00291 6.75015 -25.5631 0
-1.56275 6.01406 -25.4255 0
0.290262 5.17019 -25.341 0
-8.2919 4.35303 -25.0156 0
1.16674 3.77771 -24.9995 0
-0.348025 3.52023 -25.5051 0
3.51206 3.32997 -24.9071 0
-7.77908 1.82169 -24.9943 0
0.763795 1.63565 -25.0239 0
7.58544 1.55243 -25.1337 0
0.480346 1.46559 -25.0043 0
0.401257 1.21589 -25.0236 0
0.095496 1.04606 -25.0235 0
2.56799 0.992693 -25.245 0
-4.42085 0.554552 -25.2992 0
-3.29554 -0.704737 -25.3281 0
7.92311 -1.32769 -25.2797 0
4.15397 -1.69512 -25.358 0
-3.2741 -1.7658 -25.2811 0
-1.55446 -2.36459 -25.2055 0
-7.40696 -3.21338 -25.4638 0
6.49288 -5.15415 -25.9574 0
4.42756 -5.43339 -26.0108 0
3.58012 -5.41757 -26.0251 0
4.11459 -5.48938 -26.0013 0
4.11459 -5.48938 -26.0013 0
3.24726 -5.62673 -26.0055 0
2.30036 -5.76443 -26.039 0
0.850388 -5.90554 -26.0374 0
6.20899 -6.42763 -26.0528 0
5.82775 -6.62332 -26.0218 0
6.20119 -6.71645 -26.0576 0
5.86027 -6.97218 -25.9965 0
-3.82207 -7.08537 -26.0306 0
-3.21442 -7.09288 -25.9735 0
-8.04699 -7.35406 -26.1348 0
-5.4041 -8.37556 -26.0402 0
7.51755 7.2635 -25.6559 0
8.21717 5.59813 -25.7077 0
-5.2653 4.86243 -25.2667 0
-8.07927 4.54143 -24.8961 0
-0.671485 4.17942 -25.4366 0
-1.05316 3.70826 -25.4274 0
-7.10694 2.36234 -24.824 0
-2.68111 0.690732 -25.32 0
-2.55737 0.323255 -25.3233 0
5.30015 -0.851028 -25.2249 0
5.6984 -0.867152 -25.1928 0
2.95524 -0.918294 -25.3848 0
7.70231 -0.968925 -25.2226 0
5.23105 -1.02924 -25.2461 0
5.44607 -1.09337 -25.2662 0
-3.38514 -1.33921 -25.2895 0
7.30593 -1.44943 -25.315 0
-3.78176 -1.59796 -25.2747 0
4.21291 -2.09889 -25.3301 0
4.58566 -5.2595 -25.9941 0
4.58566 -5.2595 -25.9941 0
3.72377 -5.54962 -26.017 0
5.73027 -5.6921 -25.9302 0
4.86235 -5.81051 -25.9745 0
4.86235 -5.81051 -25.9745 0
6.13611 -6.21244 -26.0235 0
-4.79815 -7.2181 -26.019 0
7.06173 -7.47195 -26.0627 0
-4.67962 -7.60167 -26.0177 0
6.23123 -7.89434 -26.1116 0
3.49065 5.44052 -25.4947 0
-3.11517 3.46052 -24.9312 0
5.8296 0.942927 -25.1534 0
7.31106 -0.943683 -25.1952 0
6.33924 -1.12548 -25.2729 0
6.78102 -1.16259 -25.2652 0
6.52351 -1.34201 -25.2631 0
1.34336 -2.11771 -25.4914 0
-5.50346 -3.01067 -25.3747 0
3.4509 -4.75901 -25.9026 0
5.00853 -4.82982 -26.0402 0
6.34111 -5.03157 -26.0409 0
4.83111 -5.36405 -25.9901 0
4.83111 -5.36405 -25.9901 0
1.8848 -5.73336 -25.9936 0
-2.24141 -6.48512 -25.9835 0
-6.31504 -7.40634 -26.057 0
-5.64694 -7.70789 -26.0261 0
-2.34063 -7.73608 -25.9982 0
-0.544654 6.15028 -25.3909 0
4.82209 0.859031 -25.147 0
-2.13614 0.0703824 -25.3553 0
7.29398 -1.22279 -25.2539 0
7.68022 -1.43498 -25.3202 0
-1.9302 -2.5484 -25.3664 0
-3.20719 -2.67572 -25.3798 0
-7.50858 -3.10521 -25.4212 0
5.62267 -3.37063 -25.3688 0
4.04969 -4.60546 -26.08 0
5.52728 -5.042 -26.0369 0
5.86145 -6.333 -26.0447 0
-8.50569 -6.96111 -26.063 0
-4.77967 -6.99544 -26.0275 0
5.94493 -7.38141 -26.0209 0
6.15006 -8.19954 -26.1391 0
-0.374234 3.93574 -25.4467 0
-3.48929 0.616478 -25.2985 0
5.83127 -0.0641462 -25.1792 0
-2.86388 -1.32076 -25.3096 0
6.41936 -5.54349 -25.9661 0
-2.17829 5.13023 -25.3652 0
-2.90823 -0.358934 -25.3378 0
2.33065 -1.1014 -25.2906 0
3.35462 -2.67536 -25.4192 0
6.03156 -6.82366 -26.0602 0
-2.32553 4.36813 -25.149 0
3.22509 0.964756 -25.1563 0
7.5048 -5.08736 -25.8444 0
6.81803 -5.14824 -26.0021 0
-4.00127 -7.63782 -26.0346 0
