ply
format ascii 1.0
element vertex 363
property float x
property float y
property float z
property uchar intensity
end_header
1.67782 8.45613 -24.8825 0
-1.91863 7.01391 -24.8857 0
-4.02565 6.90936 -25.3364 0
-4.23451 6.83159 -25.3759 0
5.71281 6.70863 -24.9278 0
4.34868 6.49404 -25.1777 0
4.26317 6.4685 -25.0939 0
-3.62483 6.42595 -25.0419 0
4.23375 6.3028 -24.9763 0
-3.99647 5.98624 -24.9658 0
7.89361 6.00916 -25.1005 0
-8.26798 5.68366 -25.1835 0
0.824656 4.97171 -25.0548 0
5.29964 4.94484 -25.0964 0
7.42497 4.8653 -25.0982 0
0.214833 4.32695 -24.9844 0
0.0698928 4.1574 -24.9688 0
0.269715 4.14677 -25.0176 0
-2.50536 4.15043 -25.2013 0
0.663851 4.11551 -25.1118 0
0.261615 4.08468 -25.058 0
5.46522 3.55223 -25.228 0
4.72209 3.26726 -25.3214 0
-4.14941 2.65677 -25.0225 0
-0.268568 2.52622 -25.0094 0
-7.33018 1.61736 -25.2517 0
0.673182 0.878605 -25.9322 0
2.26851 0.489609 -25.4057 0
-2.04366 0.364558 -25.4725 0
-1.93199 0.25451 -25.518 0
2.11098 0.229771 -25.6686 0
-2.54268 0.0382161 -25.4379 0
-3.61501 -0.336257 -25.3021 0
-4.46182 -0.625282 -25.3845 0
-4.46182 -0.625282 -25.3845 0
4.13164 -1.13881 -25.3863 0
-6.16672 -1.17334 -25.3258 0
-6.57945 -1.37071 -25.3337 0
6.4393 -2.22046 -25.4917 0
0.489098 -4.23196 -25.9045 0
0.368446 -4.55767 -25.8966 0
-7.51021 -7.54105 -26.0496 0
-7.90594 -7.7002 -26.0801 0
-7.90594 -7.7002 -26.0801 0
3.7899 8.24747 -25.0849 0
3.51729 8.1942 -25.115 0
-2.02235 7.06013 -24.8926 0
-2.04486 6.9948 -24.8852 0
-4.30032 6.89092 -25.3416 0
-4.25476 6.7408 -25.2983 0
-4.25476 6.7408 -25.2983 0
4.96847 6.68916 -24.9919 0
-3.7431 6.62359 -25.0641 0
-4.03355 6.53751 -25.2518 0
-3.26067 6.44162 -24.9213 0
-4.12914 6.33895 -24.9009 0
-3.84904 6.27117 -25.299 0
-6.77003 6.28634 -25.3718 0
2.52465 6.15311 -24.9946 0
7.78843 5.67892 -25.1027 0
2.43991 5.28352 -25.0527 0
1.28679 5.0013 -25.052 0
7.90194 4.92718 -25.1161 0
7.94631 4.6959 -25.115 0
4.54767 3.40395 -25.3121 0
-2.2717 3.25384 -25.1852 0
-3.63514 3.22721 -25.303 0
8.24461 3.2409 -25.2462 0
3.18053 3.10345 -25.3134 0
3.62319 3.08194 -25.1526 0
0.764954 2.6491 -25.0323 0
-0.70548 2.58326 -24.9682 0
-2.31403 2.13459 -25.0909 0
6.04775 0.971195 -25.3062 0
5.08774 0.927886 -25.3047 0
1.8452 0.544496 -25.4882 0
1.54237 0.404017 -25.9148 0
-0.877705 0.331697 -25.8133 0
-3.61781 -0.267877 -25.3001 0
-5.8214 -1.11281 -25.3476 0
4.03365 -1.35123 -25.4015 0
3.81499 -1.44291 -25.4715 0
4.01296 -1.45132 -25.4988 0
-0.161261 -1.70793 -25.9766 0
0.342618 -2.01019 -25.9541 0
-0.41042 -2.0377 -25.9632 0
0.275137 -2.85153 -25.9442 0
0.275137 -2.85153 -25.9442 0
0.00263749 -2.93235 -25.9351 0
-0.00825072 -3.36836 -25.9297 0
0.786158 -3.73782 -25.9119 0
-8.83605 -6.58885 -26.0652 0
-7.66458 -7.34924 -26.0639 0
-8.75844 -7.76331 -26.1365 0
-1.98074 6.92855 -24.8838 0
-2.15969 6.7993 -24.8789 0
-2.46062 6.73223 -24.8471 0
-4.33543 6.76097 -25.2087 0
-3.91488 6.74453 -25.3124 0
-3.6294 6.6589 -24.9257 0
-4.01921 6.64332 -25.3189 0
-6.61207 6.63177 -25.3779 0
-3.57346 6.51994 -24.8662 0
-2.87373 6.4212 -24.8675 0
-7.39911 6.46043 -25.3599 0
3.13202 5.84636 -25.0292 0
3.23966 5.49692 -25.053 0
7.27957 5.47267 -25.0944 0
0.599987 4.40703 -25.0354 0
-2.41804 4.0252 -25.1899 0
-6.32816 3.96954 -25.1408 0
-7.9313 3.9759 -24.9059 0
5.46036 3.63761 -25.1713 0
-8.70075 3.48697 -24.9378 0
5.63555 3.38511 -25.2863 0
3.64034 3.34311 -25.5021 0
3.04805 3.16549 -25.3594 0
3.56533 3.14786 -25.2019 0
5.81273 3.10337 -25.2041 0
3.0161 2.98143 -25.1705 0
0.0114337 2.69238 -25.0177 0
-8.23704 1.59304 -25.2347 0
-2.62364 1.22097 -25.1704 0
6.92895 1.06652 -25.3442 0
-1.06639 0.248359 -25.8676 0
-0.351926 0.109164 -25.8843 0
-0.351926 0.109164 -25.8843 0
-1.09943 -0.0617205 -25.922 0
-0.44951 -0.884766 -26.0206 0
-5.56135 -1.02776 -25.3521 0
-5.56135 -1.02776 -25.3521 0
3.67443 -1.06543 -25.3679 0
3.8371 -1.09572 -25.3727 0
-0.327817 -1.86033 -25.975 0
5.97868 -2.28428 -25.4855 0
0.284864 -3.93646 -25.9133 0
0.284864 -3.93646 -25.9133 0
-8.75273 -6.65182 -26.1058 0
-8.86883 -6.69359 -26.0641 0
-7.07956 -7.3249 -26.0866 0
-7.25901 -7.64408 -26.0381 0
-7.25901 -7.64408 -26.0381 0
-7.82372 -7.90047 -26.0819 0
-0.460364 -7.94889 -25.9247 0
-0.598432 8.47902 -25.4551 0
-3.69828 6.82693 -25.0079 0
-3.10456 6.67176 -24.8999 0
-2.25349 6.62058 -24.8658 0
-7.2152 6.76364 -25.5184 0
-2.88608 6.61573 -24.8412 0
-3.86715 6.57252 -25.2096 0
-6.98462 6.56799 -25.3726 0
2.54696 6.4217 -24.8929 0
-6.86689 6.49522 -25.3513 0
-6.84351 6.35722 -25.3623 0
-3.67396 6.08442 -25.231 0
-4.16747 5.86782 -24.8734 0
-1.49901 5.61557 -24.8565 0
-1.49901 5.61557 -24.8565 0
0.601697 4.03865 -25.1222 0
0.840385 3.98522 -25.1287 0
0.994706 3.92775 -25.1354 0
4.95329 3.65741 -25.3111 0
7.35886 3.32419 -25.3374 0
3.75905 3.11601 -25.1533 0
3.33179 3.05929 -25.2165 0
2.89232 2.99225 -25.1888 0
4.45854 2.91779 -25.266 0
1.0303 2.84789 -25.0701 0
0.665165 2.78439 -25.0273 0
0.0839878 2.78904 -25.0064 0
1.05329 2.71756 -25.0612 0
1.05329 2.71756 -25.0612 0
-8.18961 2.76271 -24.9074 0
0.662582 2.66263 -25.0254 0
-4.23331 2.67512 -25.0686 0
0.0397687 2.58372 -25.0082 0
-4.09223 2.5719 -24.9957 0
-0.587971 2.43906 -25.0214 0
5.20512 1.94947 -25.3478 0
-8.41737 1.81954 -25.23 0
5.13692 1.43945 -25.3462 0
-1.887 1.16609 -25.4136 0
-4.85845 1.04465 -25.2338 0
5.40558 0.998485 -25.31 0
-2.03431 0.943678 -25.4231 0
-0.815237 0.535 -25.4969 0
6.91212 0.409524 -25.3524 0
1.43537 0.399938 -25.9353 0
-2.52153 0.19326 -25.4368 0
-0.692887 0.165826 -25.9176 0
-1.08066 0.0380676 -25.9397 0
-2.9068 -0.244305 -25.3284 0
-3.44832 -0.433772 -25.2727 0
-4.29676 -0.729228 -25.3883 0
-0.655801 -0.954008 -26.0215 0
4.57736 -1.1665 -25.4015 0
4.10986 -1.50941 -25.4502 0
0.0614557 -2.50355 -25.9454 0
6.44734 -2.54075 -25.4902 0
-0.110253 -2.57195 -25.9361 0
-0.110253 -2.57195 -25.9361 0
0.270626 -3.11101 -25.9379 0
0.122405 -3.17188 -25.9302 0
-0.352383 -3.56594 -25.937 0
0.474459 -3.61983 -25.9233 0
0.557045 -3.71635 -25.9209 0
0.557045 -3.71635 -25.9209 0
8.39665 -4.10574 -25.5941 0
-8.4229 -7.63011 -26.1103 0
-8.88484 -7.69595 -26.1482 0
3.45212 8.00627 -25.011 0
3.13736 7.89661 -24.9254 0
3.13736 7.89661 -24.9254 0
-6.68751 6.49909 -25.3587 0
2.4434 6.32723 -24.8914 0
-0.678632 6.12634 -24.8816 0
-3.26882 5.95981 -24.9011 0
6.90787 5.86452 -25.0616 0
-0.588263 5.76659 -24.8743 0
-3.67647 5.82763 -25.2899 0
6.47507 5.80433 -24.9739 0
6.47507 5.80433 -24.9739 0
3.03961 5.75129 -25.0358 0
6.23397 5.76822 -24.9552 0
2.89532 5.4271 -25.0401 0
-5.26101 5.04087 -25.2272 0
0.527007 4.56199 -25.0311 0
-2.30376 4.01504 -25.1402 0
7.43967 3.1911 -25.2481 0
2.89517 3.169 -25.3336 0
-3.92803 3.12799 -25.2176 0
4.59691 2.80684 -25.2845 0
1.4443 2.79122 -25.1203 0
3.95951 2.72667 -25.197 0
-3.95797 2.18496 -24.9755 0
4.36948 2.06323 -25.3352 0
6.07486 1.58058 -25.2838 0
4.27238 1.56976 -25.2994 0
4.49772 1.24343 -25.2757 0
-8.02219 1.20477 -25.2683 0
-7.86452 1.1694 -25.2758 0
4.53534 0.983803 -25.2936 0
-1.94874 0.849438 -25.4335 0
-8.20098 0.383284 -25.2809 0
-2.37345 0.107853 -25.5194 0
-2.1696 0.0316181 -25.5963 0
-2.65341 -0.00239158 -25.4101 0
-2.65341 -0.00239158 -25.4101 0
-3.21944 -0.0455061 -25.2475 0
-3.03075 -0.13625 -25.3128 0
-3.03075 -0.13625 -25.3128 0
-3.44302 -0.28048 -25.2513 0
-4.34526 -0.582465 -25.3853 0
-0.427687 -0.754398 -26.0542 0
-0.354836 -0.970035 -25.9941 0
-0.697133 -1.08059 -26.01 0
4.88406 -1.30938 -25.3865 0
-8.73241 -1.31629 -25.3159 0
6.08417 -2.13342 -25.4663 0
0.0384156 -3.05432 -25.933 0
-7.67963 -7.48313 -26.0402 0
-8.3255 -7.95699 -26.0792 0
-1.06621 8.67938 -25.4353 0
3.24798 8.31858 -24.9284 0
3.27568 8.09033 -24.9324 0
6.92833 7.20459 -24.975 0
6.92833 7.20459 -24.975 0
-2.47396 7.13822 -24.9395 0
4.12524 6.33743 -25.0011 0
8.13117 5.8617 -25.1188 0
7.84259 5.81869 -25.1008 0
0.21198 5.72149 -24.8778 0
3.04322 5.58971 -25.0423 0
3.97066 5.31095 -25.0808 0
0.784606 4.46729 -25.0545 0
4.24937 3.03024 -25.1873 0
-7.92552 2.98762 -24.8987 0
2.31026 2.92496 -25.1445 0
4.09255 2.87149 -25.1819 0
7.66914 2.85215 -25.2751 0
1.72236 2.70229 -25.1813 0
3.97766 2.42188 -25.1945 0
5.83952 2.09857 -25.3856 0
6.03382 1.93383 -25.3802 0
4.77346 1.64519 -25.3514 0
4.86601 1.33026 -25.2997 0
6.44011 1.17772 -25.3116 0
-8.19572 0.901871 -25.2644 0
6.39879 0.524955 -25.3281 0
-8.49225 0.501676 -25.3081 0
-7.89133 0.444368 -25.2487 0
-2.27056 0.276169 -25.4806 0
-2.27056 0.276169 -25.4806 0
-1.85421 -0.168946 -25.8239 0
-1.85421 -0.168946 -25.8239 0
-0.589978 -0.306321 -26.0057 0
3.82619 -1.22972 -25.3788 0
0.615218 -1.62877 -25.978 0
7.55171 -2.0779 -25.5273 0
7.43526 -2.24763 -25.5208 0
0.0567672 -2.35067 -25.9482 0
0.14155 -2.63442 -25.9446 0
-8.62414 -2.68414 -25.5484 0
7.85601 -4.52835 -25.6725 0
7.38756 -6.89536 -25.5338 0
-7.469 6.59097 -25.4256 0
-7.22264 6.43693 -25.4242 0
7.08923 5.28293 -25.0938 0
-3.65167 4.60426 -25.2027 0
3.56355 2.97183 -25.1547 0
2.69527 2.83363 -25.1568 0
-7.65548 2.6412 -24.8521 0
-7.30732 2.53518 -24.8568 0
-2.01535 0.2401 -25.51 0
-4.75466 -0.630973 -25.3749 0
1.46018 -1.26573 -25.9589 0
8.0622 -2.00551 -25.5474 0
6.13939 -2.02595 -25.4619 0
-8.58588 -2.08942 -25.3652 0
-8.25646 -2.43834 -25.5446 0
-0.129972 -2.7272 -25.9286 0
-0.454587 -4.556 -25.9211 0
-0.365883 -5.55786 -25.8387 0
8.24262 6.14923 -25.1136 0
4.46896 3.31533 -25.3308 0
4.31311 1.33303 -25.2771 0
-7.72294 1.37158 -25.3209 0
-2.85533 1.11001 -25.1595 0
0.973607 0.700792 -25.9465 0
-8.15892 0.592697 -25.2725 0
-7.38932 0.00610086 -25.2471 0
-0.841248 -0.485876 -26.0477 0
4.60436 -1.33154 -25.389 0
3.80378 -1.40845 -25.4403 0
4.38151 -1.60916 -25.4544 0
-0.185355 -2.15763 -25.9495 0
7.79157 -2.46817 -25.5631 0
-8.66001 -6.37878 -26.0614 0
-6.73681 -7.47215 -26.0606 0
-6.17449 7.5266 -25.3946 0
-2.95094 7.4708 -25.0671 0
-3.32946 5.78961 -25.0427 0
-1.782 5.26812 -24.9843 0
7.38816 5.19531 -25.0976 0
4.99844 3.42005 -25.3199 0
-8.19707 2.56757 -24.8974 0
-7.6699 0.977617 -25.2942 0
-0.478137 0.357309 -25.7484 0
-0.744481 -0.477326 -26.0204 0
0.790914 -3.54209 -25.916 0
-7.00104 -6.82562 -26.0526 0
-6.62459 4.14798 -25.0801 0
-0.10324 3.98688 -25.0176 0
7.9925 3.39307 -25.3067 0
-0.363894 0.933469 -25.4382 0
-1.9646 0.581989 -25.4628 0
-0.570656 -0.929634 -26.0209 0
-0.0508001 -2.56889 -25.9393 0
0.151152 -3.32855 -25.9242 0
7.02737 -3.56581 -25.5884 0
0.237583 -4.74369 -25.8944 0
-7.33143 1.94406 -25.1967 0
