ply
format ascii 1.0
element vertex 94
property float x
property float y
property float z
property uchar intensity
end_header
8.32213 3.6459 -25.1692 0
-6.48023 2.917 -24.894 0
-5.17439 2.89368 -24.8644 0
6.0354 2.86683 -25.3183 0
-6.35816 3.88778 -24.8883 0
8.1674 3.67737 -25.178 0
-6.69881 2.96507 -24.821 0
6.07998 2.91529 -25.327 0
-0.00685668 2.84098 -25.3854 0
-6.71854 2.81702 -24.8835 0
2.38713 1.8758 -25.171 0
2.73356 1.19813 -25.1551 0
-6.02622 3.52515 -24.8882 0
5.44089 3.07798 -25.065 0
-4.44786 3.01606 -24.9286 0
-5.501 2.77898 -24.8951 0
0.121565 2.76339 -25.375 0
-6.10083 1.51146 -24.9899 0
-5.84033 0.81714 -24.9647 0
7.58888 -0.290657 -25.9666 0
-4.35232 8.6764 -25.2071 0
-4.30222 4.96152 -24.886 0
-3.74554 3.88587 -24.9438 0
-4.56648 3.67268 -24.9266 0
-4.99927 3.5112 -24.894 0
-3.72073 3.2688 -24.9327 0
6.2631 3.10113 -25.3548 0
-5.31367 3.02102 -24.8643 0
-2.21902 1.43186 -25.4036 0
-2.21902 1.43186 -25.4036 0
-5.72263 0.77897 -24.9593 0
1.84802 -1.46939 -25.6791 0
7.58304 -8.41149 -26.3376 0
7.58304 -8.41149 -26.3376 0
6.0583 6.93112 -25.0199 0
2.48076 4.17222 -24.9696 0
4.092 4.18137 -25.1748 0
4.26636 4.01844 -25.183 0
-3.96039 3.88363 -24.9222 0
-4.05113 3.77226 -24.9007 0
-5.99923 3.05163 -24.8421 0
-5.58442 2.9338 -24.873 0
5.94736 2.17112 -25.4915 0
-6.18594 1.55589 -25.025 0
7.70066 1.50563 -25.6317 0
0.104455 -0.0603509 -25.4594 0
7.2573 -1.05388 -26.1697 0
3.4731 -2.22615 -26.2549 0
8.18317 -8.01322 -26.4598 0
8.24725 8.25922 -25.0419 0
2.95258 6.29808 -25.0312 0
-3.58629 4.41307 -25.0767 0
-4.90616 3.19148 -24.8403 0
-6.75243 2.43813 -24.9725 0
6.26583 1.49971 -25.5522 0
-6.18804 1.14568 -24.9637 0
-5.51266 0.761956 -24.9653 0
1.51654 0.41206 -25.4657 0
-6.76999 0.29702 -24.9353 0
0.865627 -0.115513 -25.4683 0
7.46196 -0.7749 -26.1775 0
5.04015 -2.13354 -26.2191 0
7.92928 -7.12802 -26.1184 0
7.40582 -7.71755 -26.3059 0
7.28868 -7.89277 -26.1886 0
-2.55446 6.13961 -25.4016 0
-1.2892 4.34468 -25.3324 0
-4.46156 3.5838 -24.9407 0
3.13857 0.984331 -25.259 0
4.75349 0.57239 -25.4959 0
1.60841 0.585278 -25.4641 0
1.97225 0.0738375 -25.4649 0
7.31784 -0.886949 -26.1665 0
7.31784 -0.886949 -26.1665 0
1.49471 -1.79568 -25.8879 0
1.627 -2.27252 -26.1673 0
8.02218 -8.01987 -26.4136 0
3.14686 -2.63939 -26.275 0
4.13173 1.30895 -25.2959 0
1.79788 0.38176 -25.4739 0
1.79788 0.38176 -25.4739 0
-5.79666 0.0679865 -24.9566 0
2.2301 0.0364482 -25.4595 0
1.41884 -2.10414 -26.1195 0
2.85983 -2.64325 -26.2862 0
-5.64247 0.495026 -24.9535 0
-1.39127 -4.2761 -26.181 0
-4.6108 3.52362 -24.925 0
-5.8956 1.7884 -25.2948 0
1.90334 -0.70904 -25.5634 0
7.20503 -1.01314 -26.1812 0
1.7506 0.243199 -25.4763 0
6.45161 -0.631185 -25.9374 0
7.07164 -7.8568 -26.155 0
