ply
format ascii 1.0
element vertex 329
property float x
property float y
property float z
property uchar intensity
end_header
5.68407 7.89141 -25.0194 0
3.2213 6.26064 -25.9984 0
-8.13291 5.24035 -25.6203 0
-4.36825 5.06153 -25.7049 0
-8.0059 4.70334 -25.5544 0
-4.23731 4.28332 -25.5073 0
7.94998 4.10176 -25.6406 0
7.85629 4.09451 -25.6482 0
6.79634 3.94036 -25.517 0
7.86957 3.92634 -25.6557 0
6.84138 3.88457 -25.5244 0
8.49569 3.83531 -25.7047 0
8.49569 3.83531 -25.7047 0
-3.35073 3.59156 -25.4034 0
5.91035 3.52606 -25.5338 0
-8.70693 3.39634 -25.0948 0
-3.99825 2.94081 -25.2525 0
6.58909 2.92919 -25.4855 0
5.78299 2.86828 -25.4938 0
4.1711 2.09907 -25.4651 0
4.54708 2.0939 -25.3954 0
4.20933 1.98218 -25.0738 0
2.54767 1.96184 -24.9851 0
4.58483 1.95624 -25.0251 0
-3.73159 1.47915 -25.1453 0
5.93463 -2.64274 -25.1577 0
5.89666 -2.70089 -25.156 0
3.34731 -3.09827 -25.2348 0
2.24206 -3.3989 -25.3381 0
1.35768 -3.57793 -25.2877 0
0.272989 -3.80835 -25.3062 0
-2.13354 -5.71685 -25.567 0
-8.15311 -7.99864 -26.2031 0
-8.28347 -8.12095 -26.2031 0
7.55365 8.37482 -24.9936 0
-8.09153 5.63534 -25.6228 0
-3.32867 4.56043 -25.7038 0
-3.37163 4.45784 -25.6892 0
-0.218781 3.83715 -25.4055 0
-4.13459 3.72863 -25.306 0
3.37215 3.70993 -25.5181 0
2.63484 3.70125 -25.4899 0
2.20533 3.57545 -25.4688 0
2.1753 3.50462 -25.4611 0
-3.75876 3.20244 -25.3688 0
-8.51465 2.89928 -24.9918 0
-3.9185 2.8529 -25.2455 0
6.07659 2.80266 -25.4925 0
-8.45651 2.7409 -25.1591 0
4.55919 2.30813 -25.465 0
2.49167 2.28864 -25.3892 0
4.64027 2.25046 -25.4626 0
3.85975 2.2158 -25.4751 0
4.82606 2.02415 -25.1726 0
5.48061 2.00744 -25.1672 0
2.50632 0.361855 -24.9873 0
4.20467 -2.89342 -25.2197 0
1.89854 -3.46677 -25.372 0
7.29668 -4.83555 -25.3245 0
7.39276 -4.89327 -25.3329 0
7.84014 -5.27423 -25.3711 0
-5.72337 -5.4693 -25.3578 0
-5.72337 -5.4693 -25.3578 0
-3.16608 -5.47794 -25.3319 0
-4.94883 -5.56892 -25.3109 0
-6.77135 -5.62964 -25.334 0
-2.84903 -5.82323 -25.4006 0
-6.4547 -5.89265 -25.6321 0
-2.40497 -5.84557 -25.5575 0
-2.40497 -5.84557 -25.5575 0
-3.74882 -6.22373 -25.8116 0
-3.51022 -7.5777 -25.838 0
-8.61962 -8.01454 -26.053 0
-8.07193 -8.01817 -25.9847 0
-8.59828 -8.16062 -25.9785 0
-3.45391 -8.30317 -25.8782 0
7.21217 -8.39959 -25.6033 0
-8.26945 -8.4367 -25.4474 0
-2.13457 7.22675 -25.3144 0
0.438143 5.54121 -25.8551 0
0.233793 5.09893 -25.8067 0
-3.699 5.06717 -25.7217 0
0.705381 5.01324 -25.8084 0
-1.00331 4.96767 -25.7843 0
-7.74045 4.94502 -25.6157 0
-4.09828 4.29175 -25.5382 0
-3.47334 4.06762 -25.3914 0
-3.47334 4.06762 -25.3914 0
-3.8642 3.7789 -25.37 0
-3.91572 3.67961 -25.3741 0
3.28056 3.66514 -25.5074 0
-1.04148 3.54543 -25.4579 0
-8.6273 3.46612 -25.095 0
7.88706 3.45744 -25.6138 0
7.83864 3.36368 -25.5889 0
-1.21264 3.01827 -25.3596 0
-1.16296 2.70647 -25.2084 0
-8.35301 2.70045 -25.2653 0
-0.879653 2.50474 -24.9925 0
4.71306 2.02908 -25.2207 0
-0.271136 1.87398 -25.0001 0
4.45344 1.87742 -24.9038 0
-4.19278 1.71837 -24.9246 0
-4.19278 1.71837 -24.9246 0
1.52802 1.69379 -25.0074 0
-0.653032 1.37133 -25.0108 0
-3.59259 1.29956 -25.1403 0
-3.28432 0.554176 -25.1922 0
4.23801 0.509652 -25.034 0
5.41215 0.471637 -25.0767 0
5.65275 -2.61256 -25.1679 0
7.29584 -4.00347 -25.3611 0
-1.79765 -4.8735 -25.3344 0
-3.57252 -4.8977 -25.3113 0
7.14149 -4.98873 -25.3227 0
-1.73325 -4.94561 -25.3617 0
6.98083 -5.19446 -25.3318 0
-5.19471 -6.14702 -25.476 0
-5.1101 -6.19607 -25.4972 0
-8.61659 -6.58431 -26.4434 0
-4.58808 -6.49491 -25.5844 0
-4.58856 -6.69592 -25.7247 0
7.19122 -6.84442 -25.4149 0
-4.45166 -7.20435 -25.7436 0
7.45127 -7.30695 -25.4695 0
7.45127 -7.30695 -25.4695 0
-2.14769 -7.22893 -25.6547 0
-8.31357 -7.42842 -26.0766 0
-8.35463 -7.65461 -26.1012 0
7.7594 -7.88354 -25.694 0
-8.507 -8.1492 -26.0426 0
8.23123 -8.1593 -25.7992 0
2.91502 8.22327 -24.9009 0
0.931886 7.72332 -25.0465 0
3.34041 7.50819 -25.2767 0
5.68462 7.0724 -25.8671 0
5.21379 6.82494 -25.7404 0
2.88819 6.2469 -25.9867 0
-5.65767 6.23775 -25.5542 0
7.06438 5.69355 -26.0657 0
-0.947716 5.36267 -25.7905 0
-0.789604 5.1669 -25.7741 0
-4.45408 5.04934 -25.6963 0
-3.44749 4.62331 -25.7033 0
-3.94178 3.87185 -25.3361 0
-3.36474 3.78034 -25.4005 0
-3.46958 3.76197 -25.4031 0
-5.38224 3.74903 -25.3503 0
7.77895 3.27194 -25.5759 0
4.46148 1.99822 -25.12 0
-4.08627 1.88564 -24.9525 0
-4.60722 1.62215 -24.9414 0
1.9743 1.3991 -24.9432 0
8.16442 0.69493 -24.9864 0
-2.98957 0.420583 -25.2715 0
-3.15731 0.0787274 -25.1957 0
-3.05241 0.0149432 -25.2179 0
-3.55194 -0.659242 -25.0727 0
-7.19559 -2.04685 -25.3043 0
-7.55193 -2.56981 -25.3146 0
6.88016 -2.77215 -25.1625 0
7.49388 -2.97096 -25.3002 0
7.49388 -2.97096 -25.3002 0
4.90484 -2.97338 -25.2117 0
4.706 -3.01677 -25.2245 0
4.50154 -3.0591 -25.2391 0
4.3327 -3.09452 -25.2375 0
3.45745 -3.28042 -25.2333 0
7.36728 -4.07864 -25.3548 0
7.33865 -4.73278 -25.3255 0
-2.89157 -4.744 -25.3533 0
-1.89414 -4.83725 -25.3382 0
7.07673 -5.14104 -25.3339 0
6.6982 -5.43575 -25.3084 0
-7.08886 -5.50619 -25.3442 0
-7.00666 -5.5996 -25.3376 0
-7.00666 -5.5996 -25.3376 0
-7.47599 -5.62442 -25.4012 0
-1.76883 -5.56977 -25.5664 0
6.732 -5.65199 -25.3265 0
7.48015 -5.77479 -25.3355 0
-5.98426 -5.96647 -25.6982 0
-5.98426 -5.96647 -25.6982 0
-6.17735 -5.99681 -25.4214 0
-6.17735 -5.99681 -25.4214 0
-7.06426 -6.18994 -25.5644 0
7.12922 -6.47349 -25.4115 0
7.98008 -6.65829 -25.4525 0
-2.97002 -6.72692 -25.5956 0
7.75738 -7.11787 -25.4997 0
-3.59238 -7.58389 -25.8908 0
-2.10964 -7.66552 -25.7531 0
2.82152 8.58132 -24.893 0
5.69811 7.78262 -25.0736 0
-1.83752 7.50251 -24.9353 0
7.2637 6.75605 -25.8215 0
5.1029 6.63145 -25.7457 0
3.82934 6.36679 -25.9617 0
6.74564 4.04806 -25.516 0
7.7132 2.95679 -25.5503 0
0.422585 2.88228 -25.2948 0
-0.247385 2.41699 -25.2798 0
0.209757 2.35331 -25.1648 0
2.17974 2.25532 -25.4449 0
-0.258808 2.25281 -25.3383 0
-0.176371 2.09559 -25.2637 0
-0.309443 2.00114 -25.0783 0
4.37629 0.683083 -25.0085 0
4.5584 0.465194 -25.1129 0
4.99616 0.436388 -25.1406 0
7.68023 0.387321 -25.1646 0
-8.04999 0.0589648 -25.3102 0
-3.80921 -0.521189 -24.9957 0
7.4998 -2.31071 -25.2842 0
5.40736 -2.56246 -25.1451 0
5.51072 -2.68068 -25.1568 0
4.68093 -2.71678 -25.1584 0
5.21362 -2.75528 -25.1745 0
5.21362 -2.75528 -25.1745 0
4.82361 -2.83839 -25.2244 0
4.82361 -2.83839 -25.2244 0
6.77676 -2.88665 -25.1753 0
4.38616 -2.93521 -25.2376 0
6.66965 -3.0099 -25.2198 0
3.45901 -3.11897 -25.2315 0
7.29296 -3.55848 -25.3464 0
7.29216 -3.8613 -25.3663 0
7.51614 -4.69415 -25.3631 0
7.0109 -4.79603 -25.3005 0
-2.45385 -4.75451 -25.3559 0
-6.6795 -5.28758 -25.3263 0
7.36092 -5.80109 -25.3339 0
7.36092 -5.80109 -25.3339 0
-3.49861 -5.88572 -25.7316 0
-6.32084 -5.93436 -25.5571 0
-3.9982 -6.23609 -25.8444 0
7.62595 -6.44145 -25.4202 0
-4.31254 -7.04722 -25.7818 0
-2.8514 -7.43517 -25.731 0
-4.34957 -7.76866 -25.7886 0
-8.71811 -7.94388 -26.1606 0
-8.2834 -8.20105 -26.0949 0
-8.62441 -8.31358 -26.0838 0
5.36979 6.95863 -25.8038 0
-5.73162 6.10936 -25.6248 0
-3.71012 4.45029 -25.6783 0
7.7527 3.98844 -25.6599 0
-3.09431 3.9309 -25.3891 0
-8.12623 2.66182 -25.3555 0
0.0844418 1.84493 -25.1936 0
-0.660356 1.81648 -25.0289 0
7.33656 0.621905 -25.0073 0
6.97103 0.621595 -24.9518 0
5.35031 0.597631 -25.048 0
6.51854 0.434456 -25.0385 0
5.18402 0.422222 -25.1242 0
7.71448 0.22047 -25.1723 0
-3.42823 -0.184362 -25.1708 0
2.09066 -2.43741 -25.2338 0
5.65126 -2.50851 -25.1664 0
5.65126 -2.50851 -25.1664 0
7.20129 -3.35757 -25.3027 0
6.86886 -3.80907 -25.3986 0
7.37859 -5.00439 -25.3386 0
7.49507 -5.59738 -25.364 0
7.49507 -5.59738 -25.364 0
-1.92361 -5.56355 -25.5409 0
-3.84008 -5.6306 -25.5884 0
-2.51952 -5.69478 -25.6925 0
7.5792 -5.91504 -25.3666 0
7.40176 -6.32523 -25.3736 0
-4.74914 -6.57459 -25.6725 0
7.5599 -6.9156 -25.4614 0
-4.59934 -7.29777 -25.757 0
-4.50835 -7.68518 -25.7108 0
-7.00012 8.05086 -25.01 0
7.9825 7.71823 -25.0175 0
3.25095 7.21358 -25.4762 0
7.05782 7.1745 -25.7889 0
4.99406 6.91962 -25.728 0
0.30541 6.61975 -25.6899 0
-1.24969 5.19904 -25.7583 0
4.43419 3.77825 -25.4765 0
7.49222 3.09968 -25.5616 0
-2.7576 1.51239 -25.4327 0
-2.40098 0.298647 -25.2493 0
7.43353 0.26735 -25.0193 0
-3.68581 -1.45154 -25.2761 0
5.02017 -1.94664 -25.0864 0
-7.31019 -1.9687 -25.3092 0
-7.20237 -2.55542 -25.3117 0
5.8891 -2.59802 -25.1621 0
5.8891 -2.59802 -25.1621 0
3.06178 -3.12512 -25.2233 0
7.03169 -4.5483 -25.2579 0
-3.30802 -5.32124 -25.3813 0
-0.976551 -5.3455 -25.2219 0
-4.2717 -5.50162 -25.4644 0
-7.5513 -5.9352 -25.5534 0
-4.98821 -6.28064 -25.5699 0
-4.13677 -6.70713 -25.8005 0
7.82821 -7.40372 -25.4951 0
-4.01033 -7.41618 -25.9557 0
2.3303 6.55046 -25.6677 0
-4.04612 4.04663 -25.3203 0
4.94311 2.34067 -25.4579 0
-8.46644 2.00322 -24.8943 0
-3.68723 1.7471 -25.1477 0
-2.86971 0.24272 -25.3309 0
7.31717 -2.15875 -25.2834 0
6.93654 -3.51563 -25.3449 0
7.29695 -5.331 -25.3506 0
-7.48248 -5.83125 -25.4626 0
8.04777 -6.92261 -25.4775 0
6.54609 -7.78691 -25.4379 0
2.99646 6.61707 -25.4948 0
4.43632 3.71724 -25.4781 0
5.37475 2.28008 -25.4598 0
7.43535 -2.69668 -25.2488 0
-7.17474 -4.91337 -25.3582 0
7.27706 -8.17503 -25.5843 0
5.39345 1.28377 -24.9187 0
7.73378 -1.71419 -25.3299 0
0.208019 7.06111 -25.2235 0
-2.50716 6.58027 -25.631 0
-3.59702 1.15921 -25.1513 0
-3.08153 -1.73752 -25.2882 0
-4.17098 -1.90502 -25.2704 0
-4.53869 -6.37244 -25.5581 0
