ply
format ascii 1.0
element vertex 369
property float x
property float y
property float z
property uchar intensity
end_header
0.011338 7.91387 -24.8859 0
-1.97922 7.09114 -24.8831 0
-1.90628 7.04797 -24.8819 0
-4.74887 7.07354 -24.8387 0
-4.17594 6.97894 -24.8722 0
-4.1968 6.90634 -24.8669 0
-3.99265 6.68952 -24.8166 0
-3.827 6.4096 -24.9092 0
5.71689 6.30811 -26.0374 0
-4.00891 6.15396 -24.8471 0
4.31673 6.15903 -25.9262 0
4.43953 6.07293 -25.9186 0
6.97505 5.90217 -25.9897 0
5.2525 5.49201 -25.9017 0
5.2525 5.49201 -25.9017 0
7.61188 5.32168 -25.872 0
-8.32402 5.26313 -24.9162 0
3.01692 5.19701 -25.8952 0
1.8559 5.017 -25.8404 0
0.253269 4.22341 -25.775 0
7.54019 4.26212 -25.5494 0
-0.019231 4.0278 -25.787 0
-2.51778 3.98578 -25.6855 0
0.0523419 3.85134 -25.7794 0
-5.79037 3.7632 -25.609 0
-1.14212 2.34303 -25.3762 0
-7.88896 1.8755 -25.5207 0
-3.2045 0.0894323 -25.312 0
-3.08381 -0.0271596 -25.3996 0
-3.13888 -0.130021 -25.3387 0
-4.73783 -0.493473 -24.9351 0
-5.5729 -0.720743 -24.8954 0
-8.56055 -1.57046 -25.3802 0
5.15124 -2.84931 -25.3087 0
-1.35945 -3.19894 -25.4289 0
7.41752 -3.42376 -25.3724 0
-1.10016 -4.78936 -25.4586 0
-0.701222 -5.0227 -25.3699 0
-1.64326 -5.46685 -25.4392 0
-2.77182 -8.12625 -25.4412 0
-3.24045 7.68033 -25.2799 0
-3.80826 7.15212 -24.8879 0
-2.03537 7.04419 -24.887 0
-4.23518 7.04574 -24.8733 0
-3.952 7.03389 -24.8662 0
-6.11505 6.91744 -24.836 0
-2.68757 6.70789 -25.3392 0
-3.25149 6.58786 -25.0263 0
-4.12834 6.52772 -24.8733 0
-4.35418 6.45387 -24.8259 0
-7.05207 6.3451 -24.8235 0
2.35146 5.84425 -25.811 0
0.963173 5.43609 -25.8442 0
0.963173 5.43609 -25.8442 0
2.11753 4.9602 -25.8312 0
0.41424 4.82352 -25.8235 0
-6.68491 4.14393 -25.5187 0
-0.218387 4.0537 -25.7689 0
-2.79 4.0084 -25.6825 0
0.13145 4.00156 -25.7835 0
-6.32085 3.80878 -25.5795 0
-3.40512 3.44498 -25.6643 0
6.57849 2.86852 -25.1528 0
-4.42591 2.83079 -25.0372 0
3.07565 2.65032 -25.4787 0
-0.841005 2.49683 -25.4277 0
7.50871 2.45838 -25.0819 0
-1.53491 2.36951 -25.4617 0
8.06173 2.38929 -25.0004 0
-4.65318 1.24821 -24.9034 0
-0.0727691 0.659578 -25.0431 0
1.17424 0.20426 -25.3194 0
-3.12962 0.0348667 -25.3734 0
-2.05427 -0.0236013 -25.4507 0
-3.38574 -0.0817527 -25.0973 0
1.23589 -0.0933333 -25.3019 0
-4.744 -0.431122 -24.9299 0
-6.9424 -1.11242 -24.888 0
-8.207 -1.25408 -25.6775 0
2.62494 -1.52971 -25.0566 0
2.95514 -1.81017 -25.0297 0
2.74662 -1.87445 -25.0321 0
2.93109 -1.90656 -25.0129 0
-1.47753 -2.01564 -25.4611 0
3.93438 -2.05499 -25.0852 0
-1.67245 -2.15018 -25.4574 0
-0.989063 -2.33208 -25.4211 0
-1.11668 -3.13644 -25.3922 0
-1.11668 -3.13644 -25.3922 0
7.52323 -3.43612 -25.3835 0
7.18334 -4.05267 -25.5037 0
-0.96381 -4.4754 -25.3772 0
7.23956 -4.81293 -25.7078 0
-0.368377 -4.85566 -25.3623 0
-2.7953 -8.06399 -25.4429 0
1.99814 7.51713 -24.8681 0
-4.2989 6.93106 -24.8707 0
-3.59564 6.82855 -24.9419 0
-3.97462 6.78095 -24.8233 0
-5.97297 6.80204 -24.8313 0
-3.8284 6.71433 -24.8343 0
-3.5619 6.67757 -24.9402 0
-7.42155 6.34869 -22.2254 0
-3.66885 6.22199 -24.9086 0
-7.05118 6.23038 -24.8211 0
2.38298 6.13525 -25.7501 0
-6.57139 5.1139 -24.9974 0
7.46215 4.98449 -25.5673 0
6.94836 4.82887 -25.599 0
-6.20754 4.47656 -25.46 0
0.323189 4.26646 -25.7781 0
-8.25571 4.28819 -24.9126 0
-6.28841 4.01595 -25.572 0
0.515103 3.82635 -25.7875 0
0.281186 3.78189 -25.7798 0
-3.46907 3.60713 -25.6899 0
7.31536 3.30469 -25.4779 0
4.93972 3.09048 -25.4454 0
5.06678 3.04619 -25.4447 0
5.06678 3.04619 -25.4447 0
-4.51156 2.88953 -25.2468 0
2.54145 2.8052 -25.464 0
-0.489189 2.52688 -25.4763 0
5.14959 2.49656 -25.3741 0
-8.02864 2.43902 -25.6051 0
4.60911 0.674847 -25.0384 0
5.20846 0.368338 -25.0029 0
5.71911 -0.0650639 -25.468 0
-2.23348 -0.10034 -25.4518 0
-1.86678 -0.189036 -25.4461 0
-2.26157 -0.293281 -25.4542 0
-6.65516 -1.04364 -24.9007 0
-1.69578 -1.21157 -25.4471 0
2.80517 -1.5417 -25.0253 0
2.93216 -1.72484 -25.019 0
3.01964 -1.96727 -24.9716 0
4.10517 -2.19237 -25.0978 0
-1.7508 -2.30936 -25.4709 0
4.71078 -2.8531 -25.331 0
5.14056 -3.15668 -25.2997 0
7.23646 -3.44465 -25.341 0
-1.43556 -3.60809 -25.4733 0
6.66848 -4.84936 -25.4275 0
7.2466 -4.91355 -25.7108 0
7.14198 -5.05827 -25.6717 0
-8.38645 -7.02526 -22.2254 0
-8.38645 -7.02526 -22.2254 0
1.75434 8.66885 -24.8821 0
-0.409878 8.40163 -24.8552 0
6.16405 8.26556 -25.0781 0
-3.86724 6.87833 -24.8617 0
-3.09212 6.8265 -25.2534 0
-7.45745 6.81288 -24.8352 0
-7.25344 6.62211 -24.8111 0
-7.13112 6.54857 -24.8188 0
-7.11931 6.41172 -24.827 0
-0.593744 5.75838 -25.4753 0
-1.5547 5.65915 -25.1817 0
2.80602 5.38576 -25.8352 0
-6.44086 5.00731 -25.0113 0
0.450991 4.1751 -25.7942 0
7.31996 4.05215 -25.5399 0
0.303387 3.892 -25.7859 0
-5.59478 3.8112 -25.6203 0
-6.04702 3.48182 -25.6364 0
5.78736 3.16078 -25.4412 0
4.44177 3.13414 -25.4414 0
6.36121 2.89581 -25.4239 0
3.19098 2.6604 -25.4591 0
6.67107 2.59877 -25.1113 0
2.46922 2.58604 -25.4737 0
5.63028 2.53199 -25.2757 0
0.529866 2.46491 -25.4446 0
6.74704 2.47301 -25.1038 0
0.144017 2.44565 -25.4351 0
-0.478845 2.40748 -25.472 0
-2.85235 2.0863 -25.3768 0
5.23632 1.46655 -24.9484 0
-8.48444 1.44848 -25.5288 0
4.46485 1.37718 -25.0607 0
-5.34951 1.1455 -24.9131 0
7.78568 0.955554 -24.9548 0
4.36319 0.891754 -25.1375 0
7.98702 0.835996 -25.0395 0
-3.04778 0.829409 -25.4388 0
-3.19854 0.61945 -25.4341 0
4.5614 0.450978 -25.1544 0
-1.97754 0.174841 -25.4471 0
5.09607 0.0925225 -25.0544 0
3.53394 0.0320764 -25.2941 0
-3.62644 -0.0482655 -24.9246 0
5.95027 -0.249359 -25.4373 0
7.26013 -0.379075 -25.1433 0
-2.31109 -0.383477 -25.4634 0
-4.05492 -0.454328 -24.9372 0
6.8754 -0.507563 -25.1554 0
-4.60096 -0.604023 -24.9372 0
-5.86176 -0.969673 -24.9148 0
-1.6693 -1.08319 -25.4431 0
-1.90229 -1.26633 -25.4434 0
-1.60756 -1.29459 -25.4508 0
4.90893 -2.70766 -25.3449 0
-1.47365 -2.84793 -25.4268 0
-1.47365 -2.84793 -25.4268 0
6.71336 -3.11477 -25.2602 0
5.60703 -3.10146 -25.2214 0
-1.13859 -3.39175 -25.3954 0
-1.2904 -3.4439 -25.4385 0
-1.57991 -3.4645 -25.4622 0
-0.89972 -3.98972 -25.3652 0
-0.89972 -3.98972 -25.3652 0
7.03467 -5.18735 -25.6526 0
2.2432 8.28324 -24.8667 0
-4.71445 7.56286 -24.8293 0
-3.66256 6.98864 -24.9378 0
-6.95874 6.53936 -24.8273 0
-0.684823 6.1499 -24.8391 0
-3.32011 6.0787 -24.9193 0
-4.20897 6.0349 -24.8229 0
6.25003 5.25329 -25.9033 0
6.25003 5.25329 -25.9033 0
2.51395 5.21412 -25.825 0
6.00072 5.23625 -25.901 0
2.66075 5.08009 -25.8242 0
3.67401 4.51249 -25.8375 0
0.266155 4.4226 -25.8039 0
0.463123 4.31847 -25.7785 0
-2.68158 3.99244 -25.682 0
-4.56288 3.25883 -25.6878 0
-8.40368 3.28201 -25.3414 0
-4.70603 3.11107 -25.6317 0
2.77117 2.63494 -25.485 0
-0.377308 2.61988 -25.4925 0
0.533837 2.61028 -25.461 0
1.31191 2.54084 -25.4421 0
7.84287 2.53507 -25.068 0
0.912241 2.5073 -25.4473 0
3.83525 2.40509 -25.4189 0
3.97299 2.29164 -25.4166 0
3.30172 2.24928 -25.528 0
-8.62531 1.51729 -25.5367 0
7.76986 1.25968 -24.9377 0
3.52863 1.06498 -25.4763 0
3.72021 0.739427 -25.4639 0
-3.09676 0.532444 -25.4352 0
3.74572 0.485205 -25.4263 0
-1.62874 0.34536 -25.4529 0
-3.38902 0.00817316 -25.0768 0
-3.38902 0.00817316 -25.0768 0
-3.5043 -0.14153 -24.9976 0
-3.32383 -0.230859 -25.2048 0
-3.32383 -0.230859 -25.2048 0
-3.7813 -0.232946 -24.9361 0
-3.7813 -0.232946 -24.9361 0
-4.32542 -0.234772 -24.9213 0
-4.16073 -0.339843 -24.9366 0
-4.16073 -0.339843 -24.9366 0
-3.00346 -0.420207 -25.2422 0
-3.00346 -0.420207 -25.2422 0
-4.58062 -0.456451 -24.9475 0
-5.46146 -0.687095 -24.9039 0
-2.27262 -0.78862 -25.4571 0
-1.73712 -0.824136 -25.4446 0
-1.94944 -1.38634 -25.4446 0
3.50924 -1.6523 -25.1478 0
3.7779 -1.82815 -25.1125 0
3.73993 -1.99473 -25.0894 0
-0.735602 -2.03111 -25.3158 0
-1.35512 -3.32344 -25.4408 0
7.50275 -4.02766 -25.5621 0
6.98015 -4.00192 -25.3849 0
1.03258 7.10062 -25.5218 0
7.04322 6.7596 -26.284 0
7.04322 6.7596 -26.284 0
-7.47457 6.45967 -22.2254 0
-7.47035 6.51304 -24.8115 0
2.28391 6.05366 -25.7852 0
4.12093 6.03967 -25.8906 0
0.0210202 5.60289 -25.7056 0
7.82277 5.15935 -25.6537 0
7.52601 5.13105 -25.6511 0
3.63177 4.93175 -25.8496 0
7.61805 4.72351 -25.5819 0
6.75683 4.65821 -25.5798 0
-3.83288 3.10942 -25.6438 0
1.78484 2.5824 -25.4412 0
3.6144 2.53749 -25.4398 0
6.93308 2.11171 -24.8798 0
3.6712 1.60968 -25.5254 0
5.05552 1.49504 -24.9203 0
5.22133 1.29755 -24.928 0
-8.53288 0.769307 -25.6283 0
5.48837 -0.101935 -25.3694 0
-1.80346 -0.647211 -25.4367 0
-6.01128 -0.864856 -24.8829 0
2.77617 -1.6752 -25.032 0
-1.29736 -2.64521 -25.4173 0
6.12112 -2.76783 -25.285 0
-1.22722 -2.91891 -25.4093 0
-1.89085 -4.74973 -25.467 0
6.50613 -5.15325 -25.4194 0
6.12289 -5.20767 -25.452 0
5.54123 -7.59526 -26.2659 0
-0.899242 8.65458 -24.8945 0
2.94151 7.90808 -24.8682 0
-4.03257 3.47621 -25.638 0
4.65485 3.14687 -25.4167 0
-8.17118 2.93749 -25.5769 0
-7.88497 2.80662 -25.6209 0
2.14512 2.4583 -25.4579 0
8.11625 2.47344 -25.0636 0
-0.272184 2.29064 -25.4616 0
8.1846 0.666326 -25.0775 0
-1.20023 0.668674 -25.0796 0
5.58963 0.535028 -25.1853 0
-8.04553 0.276065 -25.314 0
-3.16346 -0.0365299 -25.3315 0
-5.85585 -0.714565 -24.892 0
0.517211 -1.51927 -24.9907 0
3.26151 -2.06849 -25.0362 0
6.62097 -2.74753 -25.2421 0
6.3195 -3.16971 -25.2359 0
6.76613 -3.82294 -25.2454 0
6.85125 -4.15108 -25.319 0
-1.88149 -5.6829 -25.3637 0
7.99436 5.45959 -25.9607 0
-3.88607 4.69207 -25.5908 0
7.0089 4.52803 -25.5755 0
-8.31018 1.66215 -25.5523 0
3.55619 0.845605 -25.514 0
0.245118 0.444348 -25.0664 0
-2.0603 -0.801281 -25.4398 0
3.50169 -1.82889 -25.1189 0
2.73569 -1.84249 -25.0365 0
-1.51311 -2.43694 -25.4533 0
-0.647134 -3.83649 -25.3533 0
-0.868555 -4.86892 -25.3837 0
-7.87868 -6.90217 -22.2254 0
2.22661 8.53241 -24.86 0
-6.40469 7.55453 -24.8359 0
6.06203 5.88932 -26.0098 0
-0.982154 5.22368 -25.8193 0
1.04586 2.92739 -25.4296 0
4.50225 2.88706 -25.4149 0
-4.60856 2.78457 -25.06 0
-0.975393 1.08951 -25.0515 0
-1.47043 0.93994 -25.272 0
-3.96754 0.876079 -24.9609 0
-1.51901 0.528282 -25.3912 0
3.27621 0.456034 -25.3943 0
-1.65644 -0.0183953 -25.4546 0
-1.93532 -0.79612 -25.4392 0
0.205459 -1.18137 -24.9804 0
5.32777 -2.98085 -25.1742 0
-8.08393 -6.27219 -22.2254 0
-2.86482 7.62959 -25.4231 0
-1.94982 5.35244 -25.6416 0
-6.94312 4.35741 -24.9738 0
-0.394301 3.89377 -25.7776 0
-3.16243 3.45305 -25.6453 0
7.27767 2.63199 -25.1363 0
-3.09695 0.282674 -25.4576 0
-1.81226 -1.24971 -25.4454 0
-1.41054 -2.84899 -25.4212 0
-1.24667 -3.57838 -25.4314 0
7.69872 -3.77208 -25.4826 0
6.93301 -3.72356 -25.276 0
-1.25394 -4.94531 -25.462 0
-7.90234 2.16971 -25.5789 0
