ply
format ascii 1.0
element vertex 353
property float x
property float y
property float z
property uchar intensity
end_header
-1.24734 6.57041 -25.5051 0
-2.98702 6.09498 -25.304 0
4.70906 4.91918 -24.8936 0
2.15426 3.91356 -25.0466 0
0.705893 3.12626 -25.2323 0
0.633501 7.33676 -25.4459 0
-2.49905 7.27415 -25.4371 0
-3.64618 6.68502 -25.3436 0
-3.52356 6.57378 -25.2631 0
-3.34394 6.35626 -25.2535 0
-3.05842 6.33424 -25.3304 0
-8.66176 6.13218 -24.9989 0
-8.51772 5.98473 -25.0489 0
6.23153 5.12867 -24.9057 0
4.85398 5.09643 -24.8997 0
4.96566 4.99444 -24.8999 0
2.44876 4.54773 -24.9512 0
5.70229 4.32755 -25.0511 0
1.15652 3.8415 -25.213 0
0.736167 3.40504 -25.2938 0
0.27167 3.38989 -25.0828 0
0.304345 3.19335 -25.03 0
0.277731 3.12289 -25.0435 0
-7.91499 1.40533 -25.3317 0
-3.85396 -1.61263 -25.3827 0
-4.41541 -1.64018 -25.3506 0
-5.5571 -1.80903 -25.454 0
-6.43132 -2.03566 -25.4749 0
-7.05577 -2.19255 -25.4561 0
-7.51983 -2.29146 -25.4727 0
-7.86554 -2.36093 -25.4299 0
-8.40995 -2.47302 -25.512 0
6.83313 -5.64604 -25.9822 0
-2.75805 -7.16428 -26.016 0
-3.46575 8.44113 -25.5987 0
-5.08127 8.31458 -25.3891 0
-3.11841 6.81004 -25.3705 0
-4.08602 6.7953 -25.4503 0
-3.55531 6.72318 -25.3622 0
-3.27557 6.6923 -25.3546 0
-5.43765 6.71864 -25.3232 0
-3.50046 6.65511 -25.3181 0
-1.33188 6.62999 -25.513 0
-2.21286 6.63512 -25.4083 0
-1.36428 6.56601 -25.5124 0
-3.04474 6.42572 -25.3449 0
-2.89822 6.31655 -25.3392 0
-3.48465 6.19219 -25.2128 0
-3.18663 6.06102 -25.1956 0
-3.38442 5.78453 -24.8841 0
-6.91014 5.72242 -25.3614 0
1.85383 3.90356 -25.2859 0
1.24808 3.73684 -25.2931 0
0.566852 3.37561 -25.2108 0
-0.791837 3.20741 -25.239 0
0.203897 3.05601 -25.0669 0
7.8673 2.80671 -25.1358 0
-0.263066 1.63689 -24.9854 0
4.16392 1.6412 -25.0873 0
8.19332 0.75518 -25.1868 0
-4.92409 0.38631 -25.3332 0
-5.06421 -1.76863 -25.3784 0
-8.49606 -2.28567 -25.4587 0
-2.39213 -3.58947 -25.8483 0
-2.32122 -3.64872 -25.9314 0
-2.59444 -3.73891 -25.9904 0
-1.84048 -4.00079 -25.9635 0
-2.25993 -4.85972 -26.0337 0
6.91544 -5.68115 -25.9815 0
-1.88881 -6.19907 -25.9985 0
-1.37158 -6.61185 -25.9776 0
6.4344 -7.1505 -25.9306 0
6.36922 -7.34232 -25.9441 0
8.30783 8.3411 -25.7779 0
2.7891 6.72427 -25.219 0
-3.62259 6.60706 -25.2801 0
-3.31534 6.44136 -25.2607 0
-0.930722 6.42129 -25.5054 0
-1.46203 6.38679 -25.5135 0
-2.07203 6.21434 -25.4107 0
-2.59775 6.1771 -25.3486 0
-6.93661 5.81017 -25.3576 0
-3.2956 5.42527 -24.9167 0
3.92659 4.99273 -24.8836 0
-6.30843 4.66215 -25.3869 0
0.805796 3.78355 -25.2701 0
7.82211 3.54544 -25.1078 0
7.29385 3.4315 -25.1136 0
-5.40252 3.42069 -25.3448 0
0.746521 3.2967 -25.2878 0
-2.55144 3.27176 -25.1915 0
0.851305 2.95757 -25.2449 0
0.582638 2.91936 -25.1529 0
0.361513 2.89378 -25.0932 0
-2.62016 2.662 -25.2202 0
5.21975 1.73293 -25.1725 0
2.66488 1.6455 -25.0886 0
5.04029 1.62325 -25.145 0
3.25017 1.3969 -25.1319 0
4.47203 0.00519241 -25.3834 0
-0.149397 -0.348192 -25.1412 0
7.33036 -1.00211 -25.7382 0
-6.983 -1.40498 -25.3536 0
-4.10717 -1.52554 -25.3806 0
-2.92217 -1.65701 -25.4139 0
-3.72902 -1.65657 -25.3934 0
2.27343 -2.99145 -26.0208 0
2.29095 -3.08813 -26.0639 0
-2.7405 -3.93618 -26.07 0
-2.99465 -4.18795 -26.0519 0
4.19651 -4.62468 -25.7338 0
4.59196 -4.98439 -25.5342 0
-2.52174 -5.10134 -26.0405 0
-1.76317 -5.87558 -26.005 0
-2.12648 -5.86872 -26.0136 0
-2.12648 -5.86872 -26.0136 0
6.49223 -6.30173 -25.9241 0
-1.91011 -6.37354 -25.9968 0
6.43965 -7.24932 -25.9325 0
6.20846 -7.53348 -26.0021 0
-1.28197 8.5877 -25.5243 0
-3.40735 8.34981 -25.644 0
2.58835 8.00561 -25.4873 0
2.60109 7.87906 -25.4641 0
6.93062 7.12725 -25.2445 0
-5.90337 6.71692 -25.3502 0
-3.19556 6.54101 -25.3236 0
-2.93236 6.46166 -25.343 0
-3.17208 6.37444 -25.314 0
-7.27773 6.2121 -25.3826 0
-7.06476 6.02127 -25.3695 0
-7.49321 5.99282 -25.3459 0
-3.03666 5.8531 -25.1147 0
-6.96983 5.92971 -25.3588 0
-0.936519 5.17455 -25.3806 0
-0.936519 5.17455 -25.3806 0
-7.80663 4.21962 -24.8705 0
0.655179 3.41402 -25.2625 0
0.607598 3.03269 -25.1686 0
5.9495 1.74707 -25.1204 0
-0.391991 1.61855 -25.0069 0
2.54875 1.38754 -25.3077 0
-8.5391 0.996558 -25.0759 0
6.82702 0.903021 -25.1499 0
1.39199 -0.726475 -25.4081 0
7.70119 -0.794694 -25.2787 0
-3.79853 -0.839329 -25.3108 0
0.443432 -0.990292 -25.311 0
-1.68273 -1.11773 -25.4034 0
5.89303 -1.20188 -25.7878 0
3.40235 -1.35967 -25.5897 0
-4.34692 -1.48916 -25.3656 0
-2.56005 -1.73058 -25.4274 0
-2.25133 -1.85008 -25.4652 0
-2.25133 -1.85008 -25.4652 0
5.79272 -1.896 -25.9765 0
-4.8604 -1.88137 -25.3699 0
-5.05581 -1.9216 -25.3867 0
-5.26483 -1.9637 -25.3839 0
-5.43139 -1.99631 -25.3887 0
-5.81328 -2.07566 -25.3897 0
-6.30091 -2.17613 -25.3711 0
-6.73053 -2.26801 -25.3637 0
-2.37251 -2.87483 -25.466 0
2.46794 -3.02569 -26.0453 0
2.5637 -3.25276 -26.0512 0
-0.216257 -3.24153 -25.8856 0
-2.34772 -3.49555 -25.7316 0
-2.65558 -3.88368 -26.0639 0
-2.20082 -4.46719 -26.0346 0
-2.3701 -4.50604 -26.0477 0
-2.3701 -4.50604 -26.0477 0
5.065 -4.98713 -25.5137 0
-2.08938 -5.08804 -26.0247 0
-2.22481 -5.12307 -26.0365 0
-1.66186 -5.27755 -26.0216 0
-2.73784 -5.4424 -26.0607 0
6.63608 -5.65013 -25.9748 0
-1.912 -5.58987 -26.0173 0
-3.02498 7.97613 -25.3973 0
4.57793 7.8324 -25.5852 0
2.49391 7.70529 -25.4901 0
-6.00971 7.4445 -25.3732 0
0.282313 7.32753 -25.4365 0
3.51973 6.64217 -25.0531 0
-2.98282 6.62269 -25.3517 0
-1.65525 6.21742 -25.4263 0
-6.72136 6.07649 -25.4013 0
-6.78933 5.91884 -25.3938 0
-2.74811 5.63921 -25.0984 0
-3.58769 5.62875 -24.894 0
-0.0363106 5.53087 -25.0847 0
0.00278213 5.18405 -25.0584 0
-4.87847 4.9203 -25.021 0
7.46188 4.7409 -24.9367 0
8.24441 4.72486 -24.9338 0
6.34963 3.90601 -25.048 0
-2.44108 3.24333 -25.2145 0
-3.98735 1.86161 -25.2648 0
0.636767 1.61955 -25.0635 0
-0.409004 1.46807 -25.0094 0
-0.409004 1.46807 -25.0094 0
0.599636 1.44713 -25.085 0
2.84933 1.42555 -25.2107 0
-1.71758 1.39013 -25.3373 0
6.46155 1.38335 -25.1101 0
3.89626 1.08806 -25.3196 0
5.67304 1.0682 -25.1254 0
6.74894 1.05023 -25.1461 0
-8.68752 1.06467 -25.2474 0
3.29851 0.969046 -25.3443 0
7.96803 0.912935 -25.1816 0
5.22284 -0.00933447 -25.3103 0
7.73539 -0.473479 -25.2905 0
5.20947 -0.540794 -25.3297 0
4.32884 -0.557363 -25.4448 0
3.62015 -0.640121 -25.5134 0
7.90408 -0.94768 -25.3113 0
4.44405 -0.991237 -25.5611 0
-2.26931 -1.21912 -25.4283 0
5.13454 -1.27294 -25.6578 0
-6.8459 -1.35134 -25.3546 0
4.94524 -1.44094 -25.7623 0
-4.10463 -1.45085 -25.3776 0
-4.10463 -1.45085 -25.3776 0
-4.25104 -1.60042 -25.3792 0
-5.08001 -1.63942 -25.3768 0
-4.54636 -1.67014 -25.3541 0
-4.54636 -1.67014 -25.3541 0
-4.07737 -1.69665 -25.3761 0
-4.94491 -1.75619 -25.3702 0
-4.94491 -1.75619 -25.3702 0
-2.97618 -1.79267 -25.4125 0
-5.37613 -1.84107 -25.4046 0
-3.07938 -1.90291 -25.407 0
-6.30805 -2.02622 -25.4509 0
6.03081 -2.16663 -26.044 0
6.70948 -2.26189 -26.0149 0
-2.83827 -2.63504 -25.5592 0
-2.42711 -2.67941 -25.4885 0
-2.7359 -2.96099 -25.5589 0
-0.139354 -3.39527 -25.9974 0
3.4082 -3.44526 -26.0426 0
-2.19185 -3.44016 -25.7145 0
4.35471 -4.47581 -25.4479 0
5.51263 -4.90598 -25.8987 0
2.45499 8.65311 -25.5603 0
-8.36111 8.44363 -25.3854 0
-7.28777 5.9277 -25.3517 0
7.60481 5.50606 -24.9151 0
7.60481 5.50606 -24.9151 0
-3.26136 5.29836 -24.9131 0
2.72195 5.00475 -24.8988 0
3.91257 3.3928 -24.8976 0
7.08613 3.28818 -25.128 0
4.81882 1.809 -25.0981 0
0.69078 1.8015 -25.1101 0
-0.23723 1.72777 -24.9874 0
2.0914 1.65752 -25.3416 0
2.47953 1.64727 -25.038 0
1.39547 1.46097 -25.156 0
3.61904 1.24919 -25.1733 0
1.90386 1.26345 -25.3639 0
3.27323 0.690713 -25.3701 0
7.05377 0.553933 -25.2276 0
-5.70072 0.349956 -25.3325 0
5.04889 0.0775061 -25.3107 0
5.19139 -0.193284 -25.2977 0
4.6489 -0.242694 -25.4078 0
4.01972 -0.278057 -25.4571 0
-3.27947 -0.68624 -25.2874 0
3.6462 -0.885839 -25.5473 0
-3.72364 -0.964629 -25.3299 0
8.13653 -1.11475 -25.4258 0
5.34521 -1.69477 -25.9696 0
-3.75992 -1.9478 -25.3979 0
-3.75992 -1.9478 -25.3979 0
2.41498 -3.19523 -26.1012 0
-2.17529 -4.30948 -26.0579 0
-2.17529 -4.30948 -26.0579 0
-2.11376 -4.58855 -26.012 0
5.57021 -4.71915 -25.9023 0
5.75366 -5.1367 -25.8885 0
6.19011 -5.21594 -25.9193 0
6.81006 -6.3037 -25.9501 0
-2.98898 -7.34676 -26.0115 0
5.69358 -7.45548 -26.012 0
5.27371 -7.47927 -25.9136 0
8.17689 6.61442 -24.9818 0
-7.52626 6.10024 -25.3427 0
0.47084 4.75524 -24.9777 0
8.22038 3.69472 -25.297 0
1.88133 1.45626 -25.3831 0
2.18961 1.30554 -25.4489 0
3.63985 0.327016 -25.3839 0
-8.56546 0.319649 -24.8975 0
5.50533 -1.00143 -25.5162 0
-1.83926 -1.0044 -25.3936 0
-3.87411 -1.51834 -25.383 0
-6.7077 -2.03042 -25.4604 0
0.159904 -2.76227 -25.7829 0
2.35589 -3.34344 -26.0607 0
2.83885 -3.61752 -25.9795 0
6.08037 -4.78752 -25.9143 0
-2.95924 -6.37164 -26.0565 0
-3.07004 8.15826 -25.4073 0
-3.43151 8.0645 -25.5058 0
-6.06309 8.07089 -25.4322 0
8.33475 3.96093 -24.9744 0
7.30274 3.14417 -25.1134 0
-8.02356 2.46981 -24.842 0
8.25937 0.869004 -25.1937 0
3.45861 -0.514793 -25.5144 0
0.133629 -0.619958 -25.2048 0
8.08618 -2.02459 -26.0311 0
-2.77419 -2.36189 -25.5109 0
-0.798618 -2.78394 -25.5967 0
3.12626 -3.4129 -26.022 0
-2.39191 -4.07719 -26.0503 0
8.02305 -4.64956 -26.0011 0
-1.59321 -5.55128 -26.0418 0
6.13075 -6.03766 -25.9307 0
6.0784 -6.39285 -25.9197 0
-1.8993 -6.59069 -25.9975 0
6.31234 -6.87887 -25.9323 0
0.433937 7.78057 -25.4578 0
6.4307 5.92547 -24.9356 0
-2.93362 5.28383 -25.0054 0
0.476294 4.70753 -24.9957 0
8.14491 4.27157 -24.9417 0
-0.0598657 3.0802 -25.0537 0
-8.35942 1.20474 -25.2176 0
-0.965419 -0.170852 -25.2496 0
-2.14495 -1.08587 -25.3111 0
-2.32911 -1.59109 -25.4299 0
2.90507 -3.37184 -26.0175 0
4.80851 -4.84168 -25.5303 0
-2.09858 7.21291 -25.4503 0
-5.7561 7.13798 -25.3559 0
6.58216 4.63019 -25.0324 0
-8.10357 4.53534 -24.8829 0
-2.235 1.84406 -25.2689 0
4.67769 1.55636 -25.0979 0
7.39595 1.03667 -25.1516 0
-3.73707 -1.23698 -25.3648 0
-2.67198 -2.36879 -25.5107 0
-2.58193 -2.8156 -25.5042 0
-2.30111 -4.50459 -26.0397 0
6.31995 -5.92483 -25.9382 0
7.04121 -6.04474 -25.9475 0
-2.29893 -6.64702 -26.0421 0
-7.90501 1.67181 -25.1686 0
7.90127 -5.14226 -25.9936 0
