ply
format ascii 1.0
element vertex 312
property float x
property float y
property float z
property uchar intensity
end_header
5.82043 6.89314 -25.1989 0
2.16971 5.54468 -25.8741 0
7.0952 4.6684 -25.9547 0
-3.80738 4.42014 -25.7292 0
5.01883 2.50079 -25.4619 0
2.3288 2.47473 -25.4648 0
3.78171 -1.89072 -25.1135 0
3.90563 -1.93555 -25.0811 0
0.724916 6.01255 -25.4553 0
1.08105 5.42417 -25.8602 0
-0.685613 5.40977 -25.7453 0
0.042856 5.06567 -25.8534 0
-0.28389 4.81985 -25.8491 0
0.0497142 4.53713 -25.8589 0
-4.02524 4.29427 -25.7229 0
-8.24212 3.86357 -25.4565 0
-3.548 3.77104 -25.3727 0
-3.31693 3.4567 -25.3654 0
4.56074 2.74006 -25.4398 0
4.89275 2.73255 -25.4804 0
4.60757 2.53984 -25.4671 0
4.60738 2.46777 -25.4794 0
4.647 2.37582 -25.4687 0
-3.22351 2.34942 -25.3674 0
3.25497 2.29789 -25.4411 0
2.60378 2.18102 -25.4134 0
-7.58107 1.2935 -25.3448 0
3.8441 -2.05655 -25.0836 0
-0.864846 -3.3964 -25.3282 0
6.40543 -6.98885 -25.4171 0
6.31698 -7.02672 -25.4212 0
3.95842 8.62465 -24.894 0
1.65851 7.98887 -24.8566 0
2.06014 5.59684 -25.9361 0
2.04221 5.52313 -25.9304 0
-0.179081 5.40625 -25.8433 0
-0.119677 5.35003 -25.8253 0
7.15753 4.60604 -25.9627 0
7.61551 4.35723 -25.9249 0
8.07761 4.30334 -25.9633 0
7.94541 3.94417 -25.5701 0
3.38503 3.86609 -25.5271 0
6.87066 3.67073 -25.6106 0
7.22134 3.63046 -25.6119 0
6.58463 3.60623 -25.5944 0
5.76267 3.46703 -25.5937 0
-3.23715 2.85435 -25.3817 0
-1.90845 2.80893 -25.4298 0
4.05908 2.64928 -25.4807 0
3.89666 2.57493 -25.4825 0
-1.81048 2.47537 -25.2464 0
-7.68521 2.40167 -25.2265 0
-3.14284 2.29426 -25.356 0
0.792614 1.94666 -25.4322 0
0.916021 1.80313 -25.2238 0
-5.08786 0.964159 -24.9485 0
4.20824 0.942582 -24.9716 0
3.91505 0.849974 -24.9637 0
3.54843 0.808557 -24.9769 0
-2.786 0.126816 -25.1858 0
2.04743 -2.42771 -25.1986 0
1.17362 -2.74917 -25.208 0
1.17362 -2.74917 -25.208 0
0.0234556 -2.8477 -25.323 0
-3.20369 -3.88372 -25.1118 0
5.7541 -4.18542 -25.2827 0
5.34652 -4.54296 -25.2579 0
5.84709 -5.55376 -25.339 0
-4.2262 -5.86486 -25.287 0
-4.53254 -6.06167 -25.6779 0
-6.67882 -6.86991 -25.5352 0
-6.67882 -6.86991 -25.5352 0
5.49376 7.55515 -24.9064 0
5.54513 7.47553 -24.9134 0
5.72654 7.36479 -24.893 0
5.72654 7.36479 -24.893 0
6.24273 6.99331 -25.3969 0
2.12106 5.45708 -25.8718 0
-0.235997 5.28471 -25.8384 0
1.66299 5.27768 -25.8616 0
1.42452 5.12404 -25.8573 0
0.8306 4.99363 -25.8613 0
-2.06563 4.58175 -25.7155 0
7.99743 4.2173 -25.8793 0
-3.43457 3.62619 -25.3641 0
-1.36076 2.76718 -25.3789 0
2.0532 2.418 -25.4195 0
-1.71092 2.41458 -25.2236 0
-7.76845 2.42287 -25.2287 0
4.93363 2.29214 -25.4234 0
-0.81107 2.16415 -24.9789 0
-1.59406 1.99441 -25.265 0
-8.35418 1.19399 -25.345 0
-0.0943488 1.12222 -25.0856 0
-4.23369 1.13688 -25.2769 0
4.46477 0.982741 -24.9793 0
3.62478 0.978045 -24.9625 0
4.31416 0.798985 -24.9702 0
-0.311215 -3.23037 -25.2216 0
5.4133 -4.4916 -25.2582 0
-3.91678 -5.07951 -25.3605 0
-7.91684 -5.9384 -25.5553 0
5.80979 -5.99984 -25.3249 0
5.91664 -6.4765 -25.3149 0
-7.20024 -6.61696 -25.5549 0
6.46592 -6.97728 -25.4156 0
-4.10615 -7.43386 -25.6974 0
-4.10615 -7.43386 -25.6974 0
7.0533 -7.48834 -25.4666 0
-6.46598 -7.57024 -25.7196 0
3.9969 8.51479 -24.9005 0
0.970852 8.05507 -24.8427 0
1.71924 7.89629 -24.8539 0
5.3363 7.42871 -24.8889 0
7.83524 7.47232 -24.9197 0
4.77076 7.40076 -24.9027 0
4.54561 7.37854 -24.9166 0
-5.38858 7.30022 -25.1888 0
5.75079 7.21536 -24.8817 0
3.43734 6.42596 -25.5675 0
-4.2213 5.95639 -25.3271 0
-2.18256 5.24013 -25.8351 0
1.19265 5.16642 -25.8566 0
-1.97819 5.0543 -25.7426 0
-1.86655 4.84463 -25.7414 0
-3.8826 4.38535 -25.7199 0
-4.02439 4.16596 -25.6996 0
7.96889 3.80802 -25.5782 0
-6.10846 3.65561 -25.3436 0
5.42901 3.29634 -25.5608 0
-8.31439 3.30846 -25.2817 0
-3.75735 3.24897 -25.3549 0
4.96788 2.79678 -25.4925 0
5.17138 2.45978 -25.4647 0
4.94746 2.40911 -25.4474 0
5.25396 2.3681 -25.4573 0
-3.21384 2.05369 -25.445 0
-0.242375 1.56371 -25.0786 0
-4.44284 1.41297 -25.1309 0
8.01494 1.25417 -24.8987 0
-2.68936 1.22984 -25.383 0
-7.53411 1.21714 -25.3319 0
-4.08929 0.867456 -25.3531 0
3.91253 0.750285 -24.9679 0
-3.58668 0.454339 -25.2568 0
-3.83253 0.449868 -25.2954 0
-2.94765 0.24953 -25.2221 0
-3.95082 -0.732893 -25.1867 0
3.29883 -1.97467 -25.1832 0
4.87442 -2.02259 -25.2364 0
4.8126 -2.19237 -25.1725 0
2.82192 -2.43805 -25.1797 0
2.61262 -2.5028 -25.1945 0
2.22575 -2.61813 -25.2078 0
1.93913 -2.70629 -25.1968 0
-7.71226 -2.76778 -25.329 0
1.52319 -2.83621 -25.1891 0
5.64375 -4.03549 -25.2601 0
5.03939 -4.82266 -25.2678 0
5.09719 -5.03321 -25.2757 0
5.95241 -5.08287 -25.2988 0
-6.43094 -5.48755 -25.3183 0
-4.94804 -5.60178 -25.5288 0
6.60322 -5.96774 -25.3592 0
6.31739 -6.35343 -25.3431 0
-8.15678 -6.45618 -25.6679 0
-8.15678 -6.45618 -25.6679 0
-8.3546 -6.51623 -25.6355 0
-8.3546 -6.51623 -25.6355 0
6.40752 -6.46879 -25.4017 0
6.40752 -6.46879 -25.4017 0
6.55097 -6.65887 -25.3874 0
-6.6463 -7.06519 -25.6102 0
-4.80863 -7.67574 -25.7557 0
5.70828 7.50386 -24.9033 0
-3.33239 7.26796 -24.9972 0
4.4395 7.226 -24.9134 0
-0.644526 5.86592 -25.5256 0
-1.98782 4.69299 -25.7054 0
3.31513 4.69894 -25.8706 0
3.36277 4.51215 -25.8896 0
4.67368 4.21067 -25.8614 0
2.42987 3.77959 -25.5345 0
2.1686 2.42311 -25.438 0
-0.361495 1.4241 -25.0784 0
-5.41822 1.21286 -24.9879 0
7.74829 1.15683 -24.8902 0
-4.98552 1.11443 -24.9465 0
5.58602 1.10405 -24.9498 0
5.1861 1.04748 -24.9352 0
5.72244 0.954613 -24.9675 0
5.27719 0.908919 -24.9556 0
4.6204 0.861612 -24.9694 0
2.76711 0.23517 -25.0029 0
-3.44944 -0.295873 -25.2176 0
3.99224 -0.944144 -25.1248 0
5.24144 -1.59758 -25.1543 0
0.591237 -2.06945 -25.1272 0
5.62931 -2.19112 -25.5629 0
3.62782 -2.16101 -25.0933 0
3.62782 -2.16101 -25.0933 0
3.12428 -2.18451 -25.1501 0
3.12428 -2.18451 -25.1501 0
2.52946 -2.20636 -25.1245 0
4.73625 -2.30873 -25.1506 0
2.69152 -2.31664 -25.1746 0
2.26786 -2.4438 -25.2009 0
2.4032 -2.56393 -25.2056 0
1.28573 -2.72455 -25.224 0
1.83051 -2.73743 -25.2043 0
1.31659 -2.89262 -25.2223 0
5.4973 -3.1178 -25.1702 0
5.56733 -3.35155 -25.2087 0
5.30884 -4.1278 -25.2582 0
-3.23013 -4.36732 -25.1467 0
-4.09299 -4.93199 -25.3223 0
5.76206 -5.14624 -25.2938 0
5.76206 -5.14624 -25.2938 0
-4.71003 -5.39233 -25.2882 0
-3.86936 -5.66557 -25.1892 0
6.1569 -5.7747 -25.338 0
5.99546 -5.82875 -25.3329 0
-5.61269 -6.14946 -25.515 0
7.37577 -6.47308 -25.3096 0
-6.33384 -7.40836 -25.8208 0
-4.70237 -8.06512 -25.7073 0
-6.27624 -8.13135 -25.8007 0
-3.88351 -8.15325 -25.7624 0
5.88687 7.39364 -24.8931 0
4.6664 7.30402 -24.9032 0
4.40144 6.67135 -25.5823 0
-6.68366 5.40715 -25.3835 0
-2.43928 5.06393 -25.744 0
3.39936 4.30563 -25.8639 0
7.32322 3.86295 -25.6028 0
7.52288 3.7278 -25.6046 0
5.50551 2.29232 -25.4379 0
7.59921 1.35554 -24.9077 0
7.17657 1.30225 -24.8969 0
7.10474 1.11016 -24.8916 0
6.59609 1.08142 -25.021 0
6.1536 1.03086 -24.994 0
7.22389 0.938379 -24.9465 0
-3.65619 -0.584432 -25.2487 0
-0.813258 -0.835939 -25.3108 0
-3.40464 -1.05235 -25.224 0
-3.72865 -1.11979 -25.246 0
3.92845 -1.31899 -25.1186 0
3.55644 -1.90144 -25.0793 0
3.55644 -1.90144 -25.0793 0
3.9753 -2.41619 -25.126 0
3.9753 -2.41619 -25.126 0
5.34185 -2.62295 -25.1549 0
5.01085 -3.11229 -25.1898 0
5.15637 -3.627 -25.2658 0
6.57525 -4.14365 -25.3213 0
-3.25813 -4.74778 -25.3714 0
5.93881 -4.90548 -25.2781 0
5.93881 -4.90548 -25.2781 0
6.03462 -5.23509 -25.3131 0
-4.58904 -5.21324 -25.2423 0
5.89325 -5.68631 -25.3346 0
-4.62996 -5.87994 -25.6101 0
6.22837 -6.48711 -25.318 0
-6.80012 -6.95138 -25.5686 0
-6.58253 -7.68932 -25.8354 0
7.06167 4.75312 -25.9377 0
7.74606 3.9163 -25.5739 0
1.27672 1.94572 -25.3942 0
-4.00012 -0.969587 -25.1471 0
-3.71061 -1.66744 -25.2354 0
3.82301 -1.95276 -25.0965 0
-2.88725 -4.50283 -25.1689 0
5.70637 -5.306 -25.3168 0
-3.07923 -5.41828 -25.3907 0
-7.06598 -6.69196 -25.5691 0
6.509 -6.78578 -25.3975 0
-8.3013 7.11321 -25.421 0
-3.75839 6.1731 -25.3536 0
5.2652 2.83753 -25.4929 0
-3.66958 -0.89944 -25.2509 0
2.95184 -1.35252 -25.1474 0
-7.79025 -2.68071 -25.3559 0
5.03631 -2.80274 -25.1659 0
0.865647 -2.79171 -25.207 0
5.3039 -3.87301 -25.2582 0
5.67403 -4.66936 -25.2489 0
5.21929 -7.28214 -25.3627 0
6.2559 7.20277 -24.9822 0
1.12079 5.93598 -25.4755 0
3.67315 3.7564 -25.5507 0
-3.58531 1.10094 -25.3893 0
-3.15189 -0.124673 -25.2138 0
5.52021 -1.91238 -25.6154 0
6.69172 -6.26839 -25.3614 0
-4.43962 2.74474 -25.3341 0
-2.08153 2.65901 -25.3887 0
4.22634 2.37376 -25.4796 0
1.9661 1.9004 -25.2454 0
-0.348369 1.15261 -25.0852 0
-3.38044 0.479136 -25.235 0
-3.15495 -0.536293 -25.2232 0
5.6784 -0.815153 -25.1423 0
5.71729 -1.32361 -25.1696 0
3.90186 -1.6014 -25.1375 0
5.32561 -3.28959 -25.2302 0
5.79831 -5.12312 -25.2871 0
6.0368 -7.59348 -25.4297 0
-1.28774 7.03965 -24.9201 0
6.49827 4.96463 -25.9916 0
-3.98937 0.676994 -25.3492 0
-6.57375 -6.75326 -25.5879 0
