ply
format ascii 1.0
element vertex 279
property float x
property float y
property float z
property uchar intensity
end_header
-3.44425 4.32009 -25.8087 0
-3.11809 4.03288 -25.7817 0
-2.75334 3.82292 -25.8441 0
2.16522 -3.5556 -25.2602 0
6.69287 4.32879 -25.5912 0
-3.32832 4.22119 -25.828 0
-3.32832 4.22119 -25.828 0
-2.86318 4.05727 -25.8035 0
-2.75254 3.95677 -25.8218 0
-3.37932 3.92537 -25.8256 0
4.87571 3.88511 -25.5973 0
4.251 3.74607 -25.5628 0
3.95561 3.68534 -25.497 0
4.13725 3.66855 -25.525 0
-3.09065 3.5063 -25.8048 0
2.89201 3.20545 -25.4764 0
2.96431 3.17069 -25.4797 0
-6.69836 2.52812 -25.641 0
1.37741 1.65762 -25.1832 0
-0.418001 1.33842 -25.3816 0
-6.7261 -0.568977 -25.4047 0
6.55061 -4.38231 -25.2563 0
-0.0630893 -4.34112 -25.1598 0
6.99197 -4.54765 -25.2844 0
2.77623 7.88142 -25.4853 0
-2.8036 6.18513 -25.4774 0
0.456303 5.59847 -25.9403 0
-1.15572 4.63155 -25.8569 0
-2.97699 4.51512 -25.822 0
-2.14012 4.45575 -25.774 0
-3.11494 4.3768 -25.8087 0
-3.37356 4.35834 -25.8041 0
-2.91532 4.21818 -25.8113 0
5.30263 4.19753 -25.5407 0
-2.93093 3.78127 -25.8191 0
-2.76254 3.27502 -25.7252 0
4.79298 3.03361 -25.5082 0
0.257605 2.99108 -25.4928 0
-7.21648 3.04097 -25.6916 0
-0.480615 2.66082 -25.464 0
-6.94342 2.28713 -25.5496 0
-4.69991 2.11153 -25.3837 0
-4.52947 2.07642 -25.3918 0
-6.20138 1.82074 -25.3601 0
2.09372 1.75127 -25.042 0
-6.30877 1.64285 -25.3355 0
1.08661 1.53335 -25.2744 0
1.08661 1.53335 -25.2744 0
-4.59883 1.31329 -25.3034 0
-0.139911 1.06734 -25.2732 0
-4.01572 0.653409 -24.9249 0
-2.59193 -0.23205 -25.2166 0
-5.31305 -1.40073 -25.3826 0
7.02754 -4.4834 -25.2788 0
-2.12215 -5.22051 -25.2356 0
4.86901 -8.21224 -26.0141 0
-5.94517 -8.41954 -25.4983 0
-6.39942 -8.48597 -25.4713 0
7.9522 7.83864 -26.3746 0
-1.9515 6.74406 -24.9127 0
2.91724 5.40701 -25.926 0
-1.18655 4.5594 -25.8199 0
-3.41929 4.23834 -25.8256 0
7.98612 4.25291 -25.5984 0
-2.76253 4.19635 -25.7887 0
-3.10978 4.13041 -25.8064 0
-2.71011 4.05163 -25.7689 0
4.77023 3.30981 -25.3705 0
1.22978 3.17248 -25.5014 0
-7.18089 2.91925 -25.6538 0
2.99559 2.36455 -25.0311 0
2.51013 2.3008 -25.0606 0
-6.35503 2.0773 -25.374 0
2.01319 1.83704 -25.1068 0
-1.98909 1.65301 -25.4515 0
-6.03091 1.4495 -25.3207 0
1.99467 1.38674 -24.9205 0
-0.697426 1.29519 -25.4591 0
-3.75147 1.2682 -25.3231 0
-3.98904 1.10938 -25.2821 0
-6.16783 1.07296 -25.3247 0
7.52567 1.03638 -24.9742 0
7.52567 1.03638 -24.9742 0
-4.38017 0.925912 -25.2579 0
4.52932 0.434637 -25.0094 0
4.8201 0.260301 -25.1692 0
3.97871 0.147126 -24.9693 0
1.87769 0.0442689 -25.2706 0
0.193094 -0.90185 -25.0417 0
-3.51554 -1.54989 -25.0474 0
-6.47697 -2.34775 -25.3602 0
3.36288 -4.24575 -25.3273 0
-0.0961191 -4.57236 -25.1608 0
3.69056 -4.66577 -25.4537 0
4.18216 -7.30151 -25.9119 0
-1.70529 7.5421 -24.8237 0
2.75494 6.70346 -25.8802 0
-3.95781 6.44637 -25.2133 0
7.10675 6.52624 -26.1125 0
2.29023 6.24184 -26.0172 0
2.82788 6.16122 -26.032 0
-8.23048 5.54482 -24.8507 0
-6.3212 5.32405 -24.8372 0
1.13872 4.80348 -25.9088 0
-1.0743 4.49118 -25.8099 0
-1.21746 4.36331 -25.8121 0
-2.97275 4.08365 -25.7978 0
-2.78922 3.62255 -25.8172 0
-4.85126 3.63269 -25.7624 0
-4.53614 3.27151 -25.7642 0
-7.07217 3.15195 -25.681 0
-6.58698 2.44502 -25.6081 0
-6.86577 2.02598 -25.3895 0
-6.29124 1.88888 -25.368 0
2.1976 1.57053 -24.932 0
2.00006 1.50804 -24.9235 0
2.28147 1.47154 -24.9194 0
6.06029 0.564767 -25.1214 0
5.57486 0.494613 -25.1459 0
-2.02931 0.436589 -25.3226 0
5.15516 0.423987 -25.1735 0
3.22038 0.104702 -24.9879 0
-2.92868 0.0204377 -25.1169 0
1.77173 -0.114802 -25.4519 0
7.42077 -0.77154 -25.1379 0
-6.64413 -0.773229 -25.4194 0
7.86395 -1.76433 -25.1595 0
-5.93668 -1.90168 -25.3924 0
7.00362 -2.4565 -25.1595 0
1.54285 -3.60563 -25.3516 0
2.92998 -3.93618 -25.2474 0
1.1296 -4.07377 -25.3074 0
6.77168 -4.15355 -25.2366 0
3.48205 -4.19493 -25.3777 0
6.97857 -4.36135 -25.2602 0
0.567329 -4.29676 -25.2104 0
3.70434 -5.85994 -25.7061 0
4.27013 -6.42486 -25.871 0
-5.33898 -7.93463 -25.4954 0
-7.98797 -8.00451 -25.4389 0
-1.86743 7.31296 -24.8367 0
-1.59393 7.01066 -24.8883 0
1.15322 7.0167 -25.3794 0
4.08739 7.05042 -25.7181 0
4.316 6.70623 -25.9852 0
5.56089 5.96337 -25.9881 0
0.234818 5.55047 -25.9276 0
-2.83697 4.34518 -25.8109 0
7.71986 4.23301 -25.5241 0
7.70197 3.35239 -25.0245 0
6.34516 3.29969 -25.4126 0
4.82699 2.89834 -25.3739 0
-0.578842 1.28711 -25.4343 0
7.37919 1.04945 -24.98 0
5.52398 0.74594 -25.1205 0
-2.75072 0.566447 -25.1359 0
4.93544 0.309985 -25.1676 0
6.61187 0.0913847 -25.1225 0
6.29938 0.039508 -25.1243 0
3.01674 -8.219e-05 -24.9904 0
2.58865 -0.0564997 -25.0113 0
-7.62105 -0.561433 -24.9513 0
-5.39577 -1.12053 -25.3778 0
-6.36956 -1.18382 -25.3988 0
6.68477 -1.22553 -25.1322 0
7.5561 -1.37179 -25.1539 0
-6.29862 -1.37803 -25.391 0
6.92417 -1.55852 -25.1569 0
6.96471 -1.79366 -25.1332 0
-5.78289 -1.90151 -25.3758 0
6.79394 -2.32444 -25.1563 0
3.36949 -3.09634 -25.3867 0
2.32941 -3.22124 -25.2424 0
3.72742 -3.61866 -25.3695 0
2.98651 -3.66352 -25.3057 0
1.88057 -3.73782 -25.3157 0
2.91332 -3.78904 -25.2749 0
1.39956 -3.81952 -25.3164 0
0.825016 -3.90364 -25.3046 0
0.989763 -3.97676 -25.3037 0
0.591276 -4.1385 -25.2602 0
3.70666 -4.54438 -25.4694 0
-0.338931 -4.49669 -25.1764 0
3.78091 -4.7418 -25.4482 0
-0.890964 -4.73772 -25.2369 0
4.09935 -6.4971 -25.8424 0
4.09935 -6.4971 -25.8424 0
-4.76782 -6.55676 -25.3564 0
4.49853 -7.07954 -25.8849 0
4.38519 -7.13296 -25.8987 0
4.91318 -7.23916 -26.0081 0
-6.1953 -7.76189 -25.4652 0
2.47447 6.56813 -25.7473 0
1.08527 5.80842 -25.9418 0
7.72206 5.01447 -25.6203 0
7.72206 5.01447 -25.6203 0
3.82759 3.83804 -25.5077 0
0.201954 3.43236 -25.5105 0
-5.10812 3.43337 -25.6935 0
4.7345 0.530417 -25.0581 0
-3.07133 0.486745 -25.086 0
5.38813 0.39357 -25.1674 0
-3.24604 0.321828 -25.0445 0
2.81421 0.179107 -24.9893 0
1.8737 0.132299 -25.2384 0
3.4125 0.108425 -24.9807 0
1.98566 -0.133023 -25.379 0
6.33127 -0.24052 -25.1198 0
7.39129 -1.27953 -25.639 0
8.18208 -1.98673 -25.1786 0
-6.13788 -2.2064 -25.3654 0
2.57839 -2.80952 -25.4109 0
7.61155 -4.2148 -25.297 0
6.77868 -4.32171 -25.2451 0
7.99463 -4.41253 -25.3051 0
4.76181 -5.43771 -25.4855 0
-4.75857 -6.92553 -25.4276 0
4.53288 -7.58321 -25.9686 0
-6.09409 -7.57347 -25.4652 0
4.62457 -7.75812 -25.9854 0
-6.10984 -8.25695 -25.506 0
8.17223 6.21703 -26.1212 0
-1.69264 4.69061 -25.8038 0
4.59045 2.99907 -25.5127 0
-1.55787 1.87898 -25.4777 0
2.62988 1.84111 -25.0682 0
4.33312 0.457578 -24.9977 0
5.62798 0.297462 -25.1552 0
-1.1773 0.230651 -25.5074 0
3.82668 0.172755 -24.9646 0
3.6742 -0.0216042 -24.9805 0
2.21605 -0.256712 -25.347 0
-5.67529 -0.374501 -25.3597 0
0.258292 -0.467398 -25.1932 0
-5.20196 -0.506507 -25.3061 0
6.57415 -1.69951 -25.1135 0
-5.87172 -2.64636 -25.4094 0
2.09546 -2.93928 -25.3935 0
0.441494 -3.18601 -25.1073 0
-6.13671 -3.48642 -25.3333 0
1.77941 -3.49879 -25.4012 0
2.04677 -3.53942 -25.2752 0
3.52665 -4.09686 -25.3667 0
7.35998 -4.71397 -25.3455 0
3.56041 -5.29823 -25.5982 0
4.243 -6.26138 -25.8743 0
-4.52223 -7.60345 -25.4497 0
4.90477 -8.03222 -26.0613 0
2.08435 6.40283 -25.4261 0
-5.13756 5.95884 -25.0215 0
0.274705 5.9374 -25.8933 0
-0.38086 5.74056 -25.8309 0
2.31581 1.89912 -25.1173 0
4.7372 0.133275 -25.1667 0
3.39475 -2.84297 -25.375 0
1.15958 -2.99952 -25.3401 0
-8.05607 -4.16722 -24.9332 0
3.24515 -4.25782 -25.2573 0
7.69301 -4.44121 -25.3099 0
6.76355 -4.50074 -25.2617 0
3.96205 -6.01776 -25.6963 0
5.05262 -7.52488 -26.1142 0
-7.44177 1.48828 -25.3189 0
2.82099 0.900827 -24.9431 0
6.96318 0.78893 -25.1264 0
-3.12611 0.0437604 -25.0677 0
-6.17743 -0.50018 -25.392 0
6.73001 -1.45725 -25.1262 0
-5.66137 -1.69259 -25.3791 0
3.61915 -3.35252 -25.367 0
-7.4745 -3.90026 -24.9517 0
7.3404 -4.43364 -25.2923 0
3.2711 4.00379 -25.5525 0
1.26444 -0.437953 -25.3878 0
3.54868 -4.71377 -25.5016 0
4.13605 -6.4851 -25.8479 0
-6.58259 -0.899131 -25.4183 0
3.84778 -2.83473 -25.3099 0
-5.56315 -3.70528 -25.3821 0
