ply
format ascii 1.0
element vertex 196
property float x
property float y
property float z
property uchar intensity
end_header
-5.96211 8.33014 -24.9887 0
0.994729 7.63436 -25.9449 0
-2.03353 7.56043 -25.9286 0
-6.33906 7.05008 -25.6135 0
-7.84424 6.94484 -24.9654 0
-6.8181 6.90884 -25.5922 0
-5.58248 6.74702 -25.8266 0
-7.19433 6.45331 -25.8268 0
-8.50191 6.13206 -25.8436 0
-1.62802 5.91273 -25.6721 0
-1.48805 5.8366 -25.6235 0
7.22971 5.77968 -25.5764 0
-1.82939 5.34901 -25.4736 0
7.35685 5.16384 -25.4 0
7.35662 4.97323 -25.1326 0
-8.0178 4.87195 -25.8193 0
6.10117 4.78311 -25.1846 0
2.4547 4.55923 -25.5014 0
-0.743564 4.40427 -25.456 0
1.56696 4.11895 -25.6863 0
-0.219817 3.5979 -25.5603 0
-1.15707 3.43553 -25.3705 0
7.49076 3.42544 -24.925 0
4.32532 2.53839 -24.9123 0
5.49076 0.544276 -25.1598 0
6.01317 0.509016 -25.1609 0
6.21306 0.505629 -25.1414 0
1.16247 -2.57412 -25.3578 0
-4.13538 -2.9473 -25.3679 0
1.48246 -3.97197 -25.4507 0
-3.18641 -4.67241 -25.1449 0
-3.11687 -4.70215 -25.1455 0
1.59809 -4.73682 -25.7272 0
-3.29792 -4.78098 -25.1401 0
3.2172 -5.12486 -26.0055 0
4.33042 -6.33906 -26.0789 0
3.9255 -6.44318 -26.0728 0
3.9255 -6.44318 -26.0728 0
0.415609 -6.56914 -25.8755 0
0.491022 -6.61998 -25.8709 0
1.207 8.18996 -26.0008 0
1.78641 7.51576 -25.7376 0
1.52233 7.33804 -25.6555 0
0.899878 7.20449 -25.6865 0
-6.66046 7.04699 -25.5478 0
-3.50109 6.79924 -25.8917 0
-5.57686 6.64902 -25.8546 0
-6.72282 6.61064 -25.8146 0
-6.31488 6.56714 -25.8127 0
-7.4964 6.36335 -25.8296 0
-1.95067 5.61965 -25.613 0
3.83226 5.03942 -25.5367 0
-8.10852 4.91857 -25.8433 0
5.78874 4.81322 -25.3088 0
6.37921 4.75967 -25.1909 0
6.22462 4.7318 -25.12 0
-2.89905 4.48327 -25.4663 0
-1.74392 4.12347 -25.4709 0
-7.73225 4.13657 -25.5776 0
-7.60788 4.07859 -25.5504 0
-2.67621 3.96965 -25.4413 0
-8.70613 3.62367 -25.4027 0
7.00602 3.5335 -24.9667 0
-1.06925 3.06201 -25.3373 0
2.73055 2.97933 -24.8995 0
-2.19861 2.53797 -25.4017 0
7.05112 0.737623 -25.1018 0
6.75259 0.666279 -25.1129 0
3.51081 -0.972528 -25.1792 0
1.91175 -2.55958 -25.4152 0
0.293536 -2.93641 -25.3506 0
0.293536 -2.93641 -25.3506 0
0.265591 -3.04118 -25.3495 0
0.504017 -3.65136 -25.4704 0
-3.42801 -4.32098 -25.0203 0
-3.30639 -4.47497 -25.1258 0
-3.55736 -4.83849 -25.1522 0
1.57231 -5.14419 -25.7503 0
3.18637 -5.23107 -25.987 0
-3.35006 -5.1854 -25.1732 0
4.80867 -6.11299 -26.0172 0
1.55946 -6.21226 -25.8442 0
0.45515 -6.23143 -25.8586 0
1.31919 8.66229 -25.8871 0
5.27987 7.9653 -25.8384 0
-1.91886 7.43342 -26.0395 0
-5.75458 7.28101 -25.5166 0
-8.65278 6.79816 -24.9394 0
-7.82598 6.44327 -24.9302 0
-7.92433 5.29571 -25.8456 0
1.44628 4.46641 -25.5054 0
-2.97144 4.37559 -25.4418 0
-2.59388 4.11635 -25.4524 0
7.83791 3.48382 -24.9249 0
7.38153 3.44412 -24.932 0
-7.9656 3.44287 -25.3685 0
-0.928444 2.64663 -25.3407 0
-0.804203 2.58984 -25.1231 0
0.896144 1.7156 -24.927 0
-4.44987 0.419066 -25.2061 0
2.92272 -1.01996 -25.1179 0
3.11087 -1.12215 -25.1876 0
-2.22415 -2.13487 -25.0547 0
-2.22415 -2.13487 -25.0547 0
-2.38466 -2.17999 -25.204 0
-4.32583 -2.3358 -25.3061 0
-1.13145 -2.43586 -25.1927 0
-1.13145 -2.43586 -25.1927 0
-1.35109 -2.50102 -25.1142 0
-0.391317 -2.61234 -25.3425 0
0.631531 -3.70086 -25.4672 0
-3.38752 -4.08079 -25.1682 0
4.65768 -6.45523 -26.0292 0
4.65768 -6.45523 -26.0292 0
8.21961 7.06571 -25.6901 0
-6.25268 6.96898 -25.7012 0
1.04962 6.76111 -25.6911 0
-8.68267 5.85968 -25.828 0
6.14641 4.97749 -25.4418 0
1.01467 4.31642 -25.4739 0
-1.88518 4.04132 -25.4736 0
-1.16281 3.01657 -25.3177 0
-0.828279 2.98032 -25.2276 0
-1.62362 1.86422 -25.001 0
-1.38884 1.77385 -25.0058 0
-6.78421 1.62623 -24.9719 0
3.11156 -1.75145 -25.2579 0
-1.96558 -1.80331 -24.9643 0
1.3563 -2.21627 -25.3774 0
-4.44271 -2.24644 -25.3146 0
0.622525 -3.47343 -25.4147 0
-3.75805 -4.62599 -25.0868 0
3.0506 -5.03962 -25.9284 0
-3.64766 -5.03122 -25.2 0
2.79855 -5.36602 -25.884 0
2.69144 -5.50084 -25.8928 0
1.73994 -5.78985 -25.8218 0
-0.17954 -5.93348 -25.6371 0
4.17322 -6.22454 -26.0904 0
1.03824 -6.76688 -25.91 0
4.91208 7.74237 -25.7647 0
-7.36544 4.0506 -25.5168 0
-1.23338 2.32906 -25.112 0
-1.11329 1.80186 -25.0972 0
4.05805 -0.572823 -25.1546 0
0.448718 -4.16784 -25.5675 0
-3.84083 -4.31995 -25.155 0
-3.30833 -4.86974 -25.136 0
1.32046 -5.22023 -25.8033 0
2.28947 -5.35706 -25.6758 0
1.41251 -5.41653 -25.7717 0
-0.122184 -6.12955 -25.7327 0
-0.122184 -6.12955 -25.7327 0
6.9409 8.08275 -25.6521 0
5.79939 6.53594 -25.674 0
-0.691017 4.1213 -25.4617 0
1.25274 3.34355 -24.916 0
-1.43308 1.15055 -25.0349 0
7.92744 1.1301 -25.1373 0
-4.58643 0.499629 -25.1879 0
-4.28045 -0.0311437 -25.209 0
-2.82641 -2.61628 -25.3329 0
-0.146962 -2.73928 -25.6464 0
0.135694 -3.02727 -25.3364 0
0.769748 -3.11563 -25.3808 0
0.337322 -3.76831 -25.4537 0
-3.96691 -3.82203 -25.242 0
0.954188 -3.84471 -25.5786 0
1.13229 -4.57244 -25.8106 0
3.32235 -4.83348 -25.661 0
2.34384 -5.13002 -25.8281 0
1.80654 -5.2924 -25.6805 0
0.830257 -5.63008 -25.7259 0
0.878966 -5.89115 -25.8078 0
4.25607 -6.53601 -26.0581 0
-0.168053 3.99735 -25.4829 0
-7.67105 3.40048 -25.3341 0
3.89259 -0.175494 -25.1357 0
2.00984 -5.67854 -25.8055 0
-1.69232 -6.14352 -25.7808 0
1.6961 -6.55087 -25.8656 0
-1.8915 -6.54213 -25.6893 0
-7.50501 3.8206 -25.4228 0
-1.30997 1.98251 -25.0512 0
-2.47524 -1.43454 -25.0654 0
-4.65193 -2.18684 -25.323 0
4.90049 -5.60302 -26.1157 0
-0.78899 -5.63058 -25.3262 0
5.14191 -6.31495 -25.9741 0
-6.44346 6.93965 -25.6907 0
-7.75959 5.16458 -25.8671 0
-0.741604 2.30029 -25.1898 0
2.48683 -4.75507 -25.6808 0
0.269165 -2.81016 -25.3548 0
-4.00354 -3.07538 -25.3315 0
1.62713 -4.92537 -25.7594 0
