ply
format ascii 1.0
element vertex 368
property float x
property float y
property float z
property uchar intensity
end_header
2.55697 7.83272 -24.9332 0
1.94625 7.65565 -24.9268 0
-1.59754 6.16427 -24.916 0
-4.43514 5.982 -25.237 0
4.72295 5.77419 -25.0324 0
-7.58231 4.84032 -24.952 0
3.0709 4.5331 -25.4734 0
-8.42307 4.56072 -24.9246 0
-4.78581 4.41983 -25.1885 0
1.91987 4.27756 -25.1745 0
1.60407 4.02175 -25.1598 0
1.2936 3.47835 -25.1404 0
0.878337 3.27941 -25.2119 0
0.923433 3.18705 -25.2167 0
-1.54296 2.99753 -25.2253 0
-1.12398 2.9028 -25.2281 0
7.74968 2.767 -25.2402 0
-7.824 1.29749 -25.2162 0
-7.10691 0.613837 -25.3105 0
-0.158735 -1.05261 -25.8944 0
-0.727751 -1.17658 -25.9234 0
-2.29044 -1.70727 -25.4851 0
-2.66765 -1.9066 -25.4837 0
5.51204 -2.08278 -25.5259 0
4.98431 -2.26014 -25.5736 0
-4.45419 -2.59112 -25.9024 0
-4.56813 -2.62346 -25.0039 0
-4.82991 -2.72553 -25.3024 0
-5.68822 -3.06259 -25.4779 0
8.10389 -3.20937 -25.7507 0
2.41605 -5.51779 -25.7457 0
-2.54679 8.59754 -24.9968 0
-4.20062 8.22214 -25.0475 0
-7.78356 7.47616 -25.4354 0
-1.67667 6.21428 -24.9021 0
-1.71144 6.14793 -24.9285 0
-2.32919 5.71832 -24.9865 0
-2.88433 5.5611 -24.9953 0
4.04084 5.54103 -25.0599 0
3.1261 5.40201 -25.1329 0
-5.75259 5.22248 -24.9523 0
3.88552 4.82781 -25.1384 0
-7.80144 4.69055 -24.9068 0
-0.290997 4.59386 -25.1454 0
4.03819 4.54911 -25.1726 0
2.60408 4.45899 -25.2632 0
2.33094 4.43487 -25.3536 0
-5.65035 4.02544 -25.1834 0
-7.82762 3.82215 -24.9147 0
1.30784 3.61495 -25.1477 0
1.13107 3.55256 -25.1691 0
0.245785 3.40108 -25.031 0
0.113946 3.33281 -25.0317 0
-7.3304 3.34955 -25.0956 0
0.804964 3.18812 -25.2195 0
-5.55116 2.99745 -25.22 0
6.35975 2.78908 -25.3157 0
-6.7672 2.72939 -25.1219 0
5.41285 2.61934 -25.2956 0
5.68588 2.47469 -25.3071 0
3.93265 2.18027 -25.3121 0
1.64084 1.8036 -25.2761 0
0.11276 1.71956 -25.5356 0
0.216021 1.66964 -25.4337 0
0.589711 1.66192 -25.2608 0
-8.20773 1.67554 -25.2736 0
-8.31796 1.60822 -25.2935 0
-8.31796 1.60822 -25.2935 0
-7.99798 1.51523 -25.2264 0
-6.01821 1.12247 -25.3339 0
-6.43492 0.569239 -25.3441 0
-7.3046 0.458809 -25.3025 0
7.19427 0.157595 -25.384 0
2.91425 -0.354952 -25.4017 0
-1.55734 -1.42848 -25.8956 0
-1.8129 -1.51789 -25.8939 0
5.00271 -2.03992 -25.5014 0
-3.76191 -2.1162 -26.063 0
5.41743 -2.30945 -25.5295 0
5.19416 -2.38565 -25.4833 0
5.3994 -2.40594 -25.5248 0
1.64826 -2.86468 -25.6901 0
1.76322 -2.92171 -25.6467 0
1.86826 -3.13788 -25.6352 0
1.39595 -3.29982 -25.8743 0
8.15086 -3.51741 -25.7996 0
2.19933 -4.09668 -25.743 0
2.19933 -4.09668 -25.743 0
1.91521 -4.19014 -25.843 0
2.73368 -5.02296 -25.7307 0
-7.84644 -5.28785 -25.8479 0
2.54042 -5.43681 -25.7574 0
2.11064 -6.29402 -25.6028 0
-7.05709 -8.20638 -25.9189 0
-6.97793 -8.27555 -25.913 0
-8.65795 -8.44461 -26.1466 0
1.65452 8.2534 -24.9254 0
2.32294 6.9931 -24.9524 0
-1.62849 6.08508 -24.9542 0
-1.79165 5.96276 -24.9948 0
3.13685 5.65867 -25.1339 0
3.77062 5.55476 -25.1478 0
3.878 5.06101 -25.1243 0
1.56422 4.12156 -25.1578 0
0.65979 3.33822 -25.1609 0
1.40125 3.3037 -25.1903 0
1.20796 3.11648 -25.1837 0
-1.65968 3.10572 -25.1701 0
6.4846 2.85612 -25.3309 0
6.4846 2.85612 -25.3309 0
-7.77555 2.86202 -25.2644 0
-7.05207 2.78154 -25.13 0
-7.05207 2.78154 -25.13 0
4.47731 2.55194 -25.3172 0
4.90069 2.41765 -25.2762 0
4.04108 2.27722 -25.3165 0
0.792852 1.83451 -25.2469 0
-8.20514 1.77279 -25.2579 0
-4.53433 0.301975 -25.7209 0
8.1427 0.267187 -25.4222 0
6.19337 0.0197921 -25.4092 0
5.38183 -2.21623 -25.5243 0
-3.83748 -2.36896 -26.0684 0
-3.83748 -2.36896 -26.0684 0
2.24902 -3.21706 -25.7493 0
7.6219 -3.27262 -25.724 0
1.46301 -3.25347 -25.8309 0
-7.56465 -4.52085 -25.8925 0
2.6145 -5.13974 -25.7528 0
2.24935 -5.20528 -25.7753 0
2.24935 -5.20528 -25.7753 0
-8.1092 -5.52353 -25.8743 0
3.10406 -5.87003 -25.7836 0
-7.58216 -6.80775 -25.8896 0
-7.58216 -6.80775 -25.8896 0
-7.63919 -7.89044 -26.0579 0
-7.0886 -8.32579 -25.9213 0
-5.40415 8.65512 -25.3552 0
-2.48438 8.49905 -25.0262 0
1.57919 8.33844 -24.9324 0
1.46144 8.20604 -24.9186 0
0.916019 8.1699 -24.908 0
0.694384 8.13492 -24.9077 0
1.83538 8.13261 -24.916 0
1.86945 7.99718 -24.924 0
-0.297021 7.60157 -24.8903 0
0.606136 6.4063 -25.067 0
-8.19612 6.42974 -25.1952 0
-8.34787 6.39495 -25.1878 0
-6.17563 5.69169 -25.124 0
-5.96705 5.49878 -25.0098 0
-5.83321 5.4384 -24.9839 0
-6.40742 5.42478 -25.1806 0
-5.82096 5.29777 -24.9867 0
-2.86979 5.10431 -25.0361 0
-7.66356 4.81439 -24.9182 0
3.91541 4.70295 -25.1593 0
-7.46213 3.66862 -24.9216 0
1.20665 3.60497 -25.1484 0
1.21783 3.23054 -25.193 0
1.48753 3.20318 -25.1985 0
-4.64471 2.90188 -25.0735 0
6.33824 2.88447 -25.3418 0
0.872804 1.93261 -25.2503 0
1.53025 1.8081 -25.282 0
-0.021261 1.79744 -25.5862 0
-3.73039 1.79197 -25.3412 0
-7.37788 1.67317 -25.2265 0
0.241824 1.56882 -25.3583 0
6.2027 1.10665 -25.3742 0
-7.5205 0.815421 -25.212 0
-6.60935 0.691604 -25.3315 0
6.24478 0.60075 -25.3819 0
6.54444 0.183157 -25.3855 0
-0.122094 -0.0094039 -25.8559 0
-7.00043 -0.264332 -25.4998 0
5.50079 -0.344078 -25.4333 0
8.19195 -0.410328 -25.4267 0
1.03485 -0.623463 -25.5819 0
-0.697019 -1.01501 -25.9384 0
1.49123 -1.05225 -25.4501 0
1.49123 -1.05225 -25.4501 0
0.763612 -1.12781 -25.797 0
0.084607 -1.22499 -25.8884 0
0.717965 -1.23781 -25.775 0
-0.574985 -1.28417 -25.9199 0
-1.10385 -1.48291 -25.9138 0
-1.30118 -1.55766 -25.8876 0
-1.49468 -1.62799 -25.8933 0
-1.66521 -1.69319 -25.8928 0
-1.93896 -1.79854 -25.8827 0
5.41799 -1.97036 -25.5132 0
-2.50227 -2.00587 -25.4837 0
5.20424 -2.03357 -25.5106 0
6.82316 -2.63534 -25.583 0
1.65607 -2.77337 -25.6562 0
1.12611 -3.5701 -25.8634 0
1.97467 -3.74259 -25.7385 0
1.18985 -3.76708 -25.8395 0
-7.63749 -4.44976 -25.8854 0
2.62434 -4.50791 -25.7008 0
2.39568 -4.88904 -25.7829 0
2.48045 -4.9837 -25.7564 0
2.48045 -4.9837 -25.7564 0
-7.4892 -5.10644 -25.9521 0
-8.57576 -5.1177 -25.9867 0
-8.28196 -7.12494 -26.0206 0
-8.15571 -7.48538 -26.0953 0
-7.30823 -7.485 -25.8829 0
1.81728 8.28422 -24.9261 0
6.5016 8.10558 -25.0175 0
0.610314 7.98216 -24.8978 0
-7.57394 7.78807 -25.4015 0
0.557629 7.3785 -24.893 0
3.03413 5.56448 -25.1188 0
7.57994 5.18252 -25.133 0
7.14358 5.11766 -25.0921 0
7.14358 5.11766 -25.0921 0
6.88961 5.07819 -25.0935 0
-0.283281 4.97478 -25.0862 0
3.53228 4.6211 -25.2035 0
1.70196 3.14694 -25.1937 0
-1.54913 3.11104 -25.1316 0
5.81937 2.91138 -25.3542 0
4.95182 2.55976 -25.284 0
3.74265 2.35739 -25.3147 0
4.70271 2.32499 -25.2782 0
4.26125 2.25153 -25.3455 0
-2.31571 2.21237 -25.275 0
3.82403 2.18281 -25.3083 0
-3.77501 2.14748 -25.121 0
5.60208 2.02112 -25.3318 0
1.83275 2.01146 -25.2733 0
-3.8894 2.00103 -25.0891 0
5.33556 1.96927 -25.3083 0
1.44533 1.9369 -25.2777 0
5.03687 1.92196 -25.3029 0
1.93812 1.87575 -25.2647 0
0.90411 1.72044 -25.2482 0
-0.860672 1.03529 -26.0038 0
6.4105 0.924346 -25.3745 0
5.88693 0.796872 -25.3541 0
5.37572 0.738021 -25.3276 0
-6.97029 0.490476 -25.316 0
5.65995 0.15355 -25.3995 0
-7.09707 0.119104 -25.3129 0
-6.9385 0.0959578 -25.3245 0
1.37994 -0.425895 -25.5052 0
-7.30582 -0.70334 -25.4913 0
-0.343527 -1.17084 -25.9184 0
-0.343527 -1.17084 -25.9184 0
-0.845364 -1.22381 -25.9154 0
-0.845364 -1.22381 -25.9154 0
-1.41707 -1.2836 -25.8889 0
-0.000472454 -1.35171 -25.8939 0
-0.000472454 -1.35171 -25.8939 0
-1.24071 -1.37233 -25.9162 0
-1.24071 -1.37233 -25.9162 0
-1.64758 -1.52986 -25.8955 0
-2.02722 -1.82728 -25.7478 0
-2.36943 -1.80562 -25.4838 0
-2.56138 -1.8568 -25.4847 0
1.45585 -1.94453 -25.7717 0
1.01858 -1.96252 -25.8637 0
5.99234 -2.09854 -25.558 0
1.52667 -2.15875 -25.6622 0
6.33364 -2.2523 -25.5587 0
1.16693 -2.2765 -25.8589 0
6.30255 -2.43688 -25.5828 0
1.8052 -2.7159 -25.6733 0
1.32339 -2.90435 -25.8479 0
1.81251 -3.8123 -25.7698 0
1.81251 -3.8123 -25.7698 0
1.94667 -4.32309 -25.8473 0
2.1961 -4.36895 -25.7804 0
2.05597 -4.4367 -25.8432 0
-7.23168 -8.16251 -25.9315 0
1.98892 8.16772 -24.9265 0
0.815993 8.05923 -24.9056 0
4.16653 7.72057 -24.9189 0
7.24578 6.56703 -25.1088 0
7.24578 6.56703 -25.1088 0
-2.17794 6.26723 -24.9158 0
-6.36212 5.80127 -25.1956 0
3.73172 4.98963 -25.2175 0
3.7097 4.80529 -25.2354 0
3.34919 4.73154 -25.2465 0
4.86925 4.60724 -25.0639 0
7.84638 4.60595 -25.1717 0
3.21952 2.10014 -25.2884 0
2.74678 2.03129 -25.2762 0
3.35698 1.9429 -25.2812 0
7.18019 1.12095 -25.3548 0
5.86645 0.80292 -25.3512 0
7.26802 0.765409 -25.3657 0
6.07806 0.695048 -25.3686 0
5.97264 0.501063 -25.3988 0
-7.2698 -0.174187 -25.3526 0
7.65351 -0.29997 -25.4071 0
-0.134244 -0.346439 -25.8749 0
1.15394 -0.533685 -25.5499 0
-7.59915 -0.605109 -25.5269 0
-0.451421 -0.92917 -25.9267 0
-0.451421 -0.92917 -25.9267 0
1.27721 -1.48006 -25.5125 0
0.99962 -1.96902 -25.8539 0
-3.12324 -2.10657 -25.7471 0
5.19661 -2.18555 -25.5063 0
1.1631 -2.4409 -25.8397 0
2.5106 -2.8102 -25.7287 0
1.96563 -3.58002 -25.7191 0
2.05967 -3.87654 -25.7387 0
-6.92689 -4.15407 -25.8802 0
-8.25559 -4.71518 -25.8554 0
2.22471 -4.83918 -25.8182 0
2.32131 -5.03239 -25.7744 0
-8.22021 -5.35444 -25.8718 0
7.63095 7.73762 -25.0374 0
-6.4325 5.50299 -25.1797 0
0.791107 4.90399 -25.124 0
1.46596 3.65795 -25.1577 0
3.61514 2.01468 -25.2973 0
7.64283 0.373926 -25.369 0
-0.187121 -0.956533 -25.8955 0
-2.97108 -1.93558 -25.5416 0
6.08663 -2.26721 -25.5582 0
5.72286 -2.55206 -25.5301 0
1.31042 -2.68542 -25.8737 0
7.80197 -3.01057 -25.7216 0
-6.8768 -3.53842 -25.5515 0
4.04173 -3.75796 -25.6139 0
-6.53267 -3.88687 -25.5858 0
1.76862 -3.97182 -25.8393 0
-7.65719 -5.21638 -25.9191 0
1.47441 -5.87342 -25.8439 0
1.59425 -6.9018 -25.5845 0
-6.60168 8.1367 -25.3659 0
8.1234 4.49328 -25.2208 0
-2.52281 2.58638 -25.2973 0
4.49717 2.15884 -25.2878 0
-1.04593 -0.433239 -25.9375 0
1.01123 -1.68422 -25.8118 0
5.17755 -2.35866 -25.4958 0
1.6987 -3.38882 -25.789 0
2.72667 -4.78169 -25.7058 0
-6.88626 -7.99351 -25.8961 0
2.33703 7.99114 -24.9346 0
-2.61929 6.55068 -24.8824 0
-5.92321 5.90708 -25.0417 0
5.8678 2.63851 -25.3405 0
-7.32475 1.51351 -25.1836 0
1.80427 0.540397 -25.366 0
5.42688 0.487739 -25.3982 0
-6.81121 0.297773 -25.3237 0
1.54205 0.225086 -25.2922 0
1.37352 -0.796217 -25.4591 0
0.513813 3.16724 -25.217 0
-5.82372 3.12727 -25.1705 0
-7.07611 0.901341 -25.2311 0
-6.78929 -0.0941978 -25.4251 0
1.52456 -0.223855 -25.3922 0
-0.130087 -0.611334 -25.8392 0
1.30362 -2.12338 -25.8519 0
1.85702 -3.81023 -25.7717 0
2.17608 -6.06042 -25.7156 0
-5.43206 7.58769 -25.3099 0
-7.72543 1.08412 -25.1992 0
-6.42466 0.93888 -25.3207 0
