ply
format ascii 1.0
element vertex 281
property float x
property float y
property float z
property uchar intensity
end_header
-1.37223 7.20457 -25.6697 0
8.03311 6.81458 -25.617 0
2.71373 4.69029 -25.4409 0
2.38564 4.66952 -25.4383 0
-0.235616 4.41954 -25.1395 0
2.82226 4.4112 -25.0679 0
7.73203 3.65565 -24.8977 0
6.91826 3.4138 -24.9391 0
3.9561 0.463676 -25.074 0
0.422631 7.451 -25.6966 0
-1.89274 7.24181 -25.6601 0
-1.40639 7.02198 -25.6111 0
-1.30948 6.89183 -25.5417 0
-1.30948 6.89183 -25.5417 0
8.33449 6.80994 -25.6121 0
6.768 6.60129 -25.6075 0
4.91674 6.47794 -25.6032 0
5.56203 5.91034 -25.5178 0
0.842306 5.81206 -25.4087 0
3.53994 5.40743 -25.5313 0
3.0192 5.2572 -25.4698 0
-0.158876 5.19774 -25.4253 0
7.74307 5.07438 -25.6493 0
2.37596 4.39599 -25.1163 0
2.46526 4.29871 -25.0048 0
-0.54213 1.13661 -24.9876 0
-0.442461 1.01967 -24.9828 0
-2.24795 0.529116 -25.2687 0
-3.11627 0.289213 -25.2623 0
8.34549 -2.30607 -25.2925 0
1.81914 -3.84822 -25.7223 0
2.07403 -4.47765 -25.8078 0
1.15701 -4.89408 -25.7818 0
-7.03674 -6.6896 -26.0203 0
-7.03674 -6.6896 -26.0203 0
6.04985 8.45317 -25.9817 0
-0.0692115 7.71751 -25.6733 0
0.345743 7.49991 -25.6863 0
0.297491 7.43616 -25.6862 0
-1.93514 7.37422 -25.5643 0
-1.65515 7.36866 -25.5988 0
-1.87055 7.3149 -25.6009 0
-1.98326 6.93746 -25.6173 0
-1.52586 6.72626 -25.5138 0
-1.70603 6.4725 -25.4253 0
-7.45661 6.35046 -25.4879 0
4.11159 5.61947 -25.5339 0
3.0394 5.33285 -25.4727 0
2.21498 4.50383 -25.3176 0
2.3299 4.31735 -25.0129 0
-0.240509 3.86569 -25.1036 0
-7.15672 3.68627 -25.355 0
5.27686 3.31541 -24.9777 0
5.76032 3.28508 -24.9558 0
-6.86158 3.32366 -25.3517 0
2.01021 3.05807 -25.0387 0
1.23364 2.99774 -25.1627 0
-0.456522 1.08683 -24.9778 0
8.1353 1.04967 -25.1124 0
-2.22757 0.596847 -25.2646 0
3.79471 0.459504 -25.0623 0
-8.60714 -1.13912 -24.8837 0
1.28915 -1.15051 -25.3541 0
5.85694 -1.24522 -25.2798 0
5.61219 -1.33805 -25.3091 0
-7.65951 -1.65443 -24.9227 0
1.66225 -2.37736 -25.4847 0
1.66225 -2.37736 -25.4847 0
2.13473 -3.34269 -25.4769 0
-6.77102 -6.36203 -25.9813 0
-7.92593 -6.67355 -26.0117 0
-0.128589 -7.8168 -25.9118 0
-7.12725 8.53671 -25.6028 0
-7.30085 7.69075 -25.91 0
-7.19318 7.44825 -25.8585 0
-2.00252 7.26227 -25.661 0
-0.559707 7.10579 -25.6537 0
-4.78166 7.08687 -25.5335 0
-1.26116 6.9991 -25.5954 0
-7.60404 6.90465 -25.5766 0
4.95305 6.73475 -25.5839 0
-7.08081 6.73973 -25.386 0
-7.42727 6.25682 -25.4283 0
5.53021 6.14196 -25.5082 0
-4.23221 5.75794 -25.3766 0
-0.364956 4.55232 -25.2144 0
3.00072 4.27468 -24.9525 0
3.11474 4.21 -24.9417 0
2.72162 4.20771 -24.9225 0
7.2136 3.75275 -24.8987 0
7.72819 3.72829 -24.8995 0
7.89865 3.48304 -24.9243 0
5.69996 3.35924 -24.9636 0
2.08914 3.14664 -25.0471 0
6.5942 3.0654 -24.8988 0
2.65981 3.00635 -24.9291 0
-1.07657 2.07388 -25.2252 0
7.53999 1.28281 -25.1424 0
2.46594 1.22611 -25.1608 0
0.683253 1.03241 -25.3531 0
3.54383 0.98461 -25.1752 0
0.481669 0.96062 -25.3854 0
-4.26485 -0.0470127 -25.2021 0
-4.26485 -0.0470127 -25.2021 0
-4.56782 -0.121565 -25.2826 0
5.82455 -1.35314 -25.3052 0
1.38496 -1.38404 -25.2714 0
1.03103 -1.47691 -25.3716 0
6.90325 -1.5064 -25.2191 0
7.83045 -2.34861 -25.2403 0
1.3012 -3.08687 -25.5538 0
-8.01078 -6.58753 -26.0678 0
-7.53448 -6.56792 -25.948 0
-6.39688 -6.70933 -26.0299 0
-6.39688 -6.70933 -26.0299 0
-6.96931 -6.92194 -26.0558 0
-0.180182 -7.73333 -25.9107 0
3.78071 7.77479 -25.767 0
-5.1294 7.74921 -25.7747 0
-4.93678 7.54717 -25.8215 0
-4.81475 7.45994 -25.7348 0
-5.35174 7.46047 -25.7912 0
-4.80686 7.30473 -25.6569 0
-1.574 7.2203 -25.6675 0
-0.773043 7.15534 -25.671 0
-1.30434 7.15162 -25.6666 0
-1.68194 7.12549 -25.6686 0
-1.53249 7.05615 -25.6371 0
-4.83961 6.91784 -25.5766 0
-7.69143 6.7963 -25.4966 0
-1.37624 6.5529 -25.4398 0
-1.0084 6.43198 -25.4771 0
0.792682 5.97409 -25.4195 0
-4.11393 5.69534 -25.388 0
2.78948 4.73099 -25.4568 0
-5.73659 4.65812 -25.2616 0
2.73804 4.31932 -24.97 0
-4.07596 4.28424 -24.9492 0
-3.63187 4.01214 -24.9609 0
5.01344 3.38571 -24.9328 0
5.90212 3.31224 -24.9606 0
5.45093 3.27118 -24.9696 0
4.99307 3.22768 -24.9293 0
8.07373 3.19357 -24.9047 0
3.47564 3.0916 -24.9022 0
-2.06406 3.11147 -25.3755 0
3.06424 3.03876 -24.9083 0
3.06424 3.03876 -24.9083 0
2.03252 2.95795 -25.0216 0
-6.04208 2.45962 -25.3415 0
-7.50384 2.29113 -25.1112 0
7.30227 1.98098 -25.021 0
7.48354 1.0519 -25.1193 0
0.854955 0.842363 -25.3932 0
0.459622 0.732583 -25.358 0
0.435477 0.631768 -25.3583 0
5.53958 0.139148 -25.1457 0
1.02998 -0.265759 -25.3616 0
0.826005 -0.320765 -25.2675 0
5.91082 -0.927786 -25.1497 0
5.46716 -0.937907 -25.1495 0
0.623151 -1.73753 -25.3054 0
1.45487 -1.99971 -25.4485 0
1.30099 -2.04575 -25.4296 0
1.30099 -2.04575 -25.4296 0
-8.04036 -2.37153 -25.3215 0
1.63871 -2.65463 -25.5757 0
1.50604 -2.69753 -25.5934 0
-8.36971 -5.08266 -25.4545 0
0.607741 -7.64909 -25.7683 0
-4.62803 7.44325 -25.7169 0
-1.37339 7.30525 -25.6615 0
-4.92625 7.16244 -25.5626 0
4.83614 6.65375 -25.5984 0
6.66466 6.50058 -25.6348 0
-1.92063 6.40239 -25.4141 0
5.41767 6.06215 -25.5006 0
5.06089 5.85898 -25.5434 0
-3.0464 5.61636 -25.4075 0
-1.81365 5.02528 -25.3821 0
2.73416 4.86879 -25.471 0
-3.15869 4.26131 -25.2921 0
-1.84681 3.62307 -25.4592 0
-2.20966 3.56165 -25.4495 0
-7.74133 3.54788 -25.2416 0
-2.34535 3.42513 -25.4416 0
4.36025 3.18271 -24.8953 0
-2.19382 3.1756 -25.3881 0
3.89581 3.13987 -24.8908 0
5.55195 2.84248 -24.8985 0
-6.20601 2.09971 -25.3473 0
-6.04739 2.04888 -25.347 0
7.49939 1.84253 -25.0091 0
6.32746 1.68471 -25.1093 0
-0.424155 1.65569 -25.004 0
7.23028 1.5219 -25.1259 0
-6.67393 1.41289 -25.3293 0
-6.38998 1.29333 -25.375 0
6.57192 1.08589 -25.1299 0
-0.686177 0.801406 -25.0175 0
-1.8035 0.805028 -25.2489 0
-0.372452 0.596871 -25.0049 0
-1.82926 0.624471 -25.267 0
1.06745 -0.13508 -25.3968 0
1.12497 -0.36823 -25.3698 0
0.783495 -0.450978 -25.2486 0
5.65615 -0.940004 -25.1563 0
6.75142 -1.26282 -25.2387 0
6.7389 -1.46726 -25.2531 0
-8.324 -5.84574 -26.0376 0
-6.79718 -6.49268 -25.9852 0
-0.106933 7.57692 -25.6686 0
2.471 6.11816 -25.4778 0
5.38445 5.90388 -25.5206 0
6.40526 3.20078 -24.9009 0
4.44585 3.02975 -24.9071 0
6.04749 2.88414 -24.9044 0
6.06743 2.57543 -24.9077 0
6.48269 2.20681 -25.0427 0
8.00571 2.13856 -24.9589 0
8.201 1.9744 -24.9602 0
-6.39813 1.81067 -25.3583 0
6.55713 1.34897 -25.1169 0
-0.789429 1.0678 -24.9959 0
-1.59772 0.69916 -25.2338 0
-1.59772 0.69916 -25.2338 0
-2.06517 0.571879 -25.265 0
0.929533 0.346329 -25.324 0
-2.9696 0.325775 -25.231 0
-7.42328 -1.52602 -25.0094 0
1.46827 -1.83727 -25.4115 0
1.46827 -1.83727 -25.4115 0
1.65425 -3.13048 -25.6155 0
-7.47236 -6.9024 -25.9589 0
-5.39417 7.59012 -25.8191 0
-5.15461 7.40489 -25.7629 0
-1.53163 5.19063 -25.3609 0
7.41752 3.7684 -24.9002 0
-5.75961 3.52821 -25.3623 0
-0.571366 3.30553 -25.2844 0
6.21848 3.03137 -24.902 0
-0.519937 1.01142 -24.9848 0
-3.41842 0.309055 -25.2987 0
-7.3722 -0.913296 -24.9491 0
3.17114 -0.980991 -25.2288 0
1.5358 -2.14706 -25.4672 0
0.805256 -4.10705 -25.6633 0
0.825326 -5.16598 -25.8084 0
6.12918 5.31286 -25.517 0
6.65009 3.46217 -24.9333 0
-5.43711 3.35046 -25.3116 0
-1.32783 1.94864 -25.2351 0
0.504189 1.40547 -25.301 0
2.80552 1.0002 -25.1858 0
6.45376 -1.26452 -25.2694 0
5.60951 -1.30604 -25.3143 0
6.17953 -1.53556 -25.2912 0
1.23125 -1.61966 -25.372 0
1.9323 -4.2846 -25.7886 0
-7.67805 -5.25057 -25.5371 0
-5.85179 2.25228 -25.3386 0
-5.85961 1.85583 -25.3326 0
6.34974 1.45621 -25.1084 0
1.09721 1.02699 -25.4273 0
2.85719 -0.604764 -25.2812 0
6.16969 -1.25295 -25.2672 0
2.15954 -3.1321 -25.337 0
-6.04735 -5.86733 -25.6101 0
-0.549283 7.93933 -25.8365 0
0.44984 5.76843 -25.4782 0
-4.58055 4.88332 -25.3077 0
-6.26043 4.81432 -25.2568 0
2.02368 4.32575 -25.0734 0
1.23495 1.65288 -25.4242 0
-0.449418 1.37152 -25.0028 0
0.784699 0.179468 -25.2056 0
0.917511 -0.312067 -25.3115 0
1.35982 -2.06956 -25.4421 0
1.52825 -2.86486 -25.5882 0
1.50805 -4.37064 -25.798 0
-6.48395 2.24102 -25.35 0
