ply
format ascii 1.0
element vertex 342
property float x
property float y
property float z
property uchar intensity
end_header
2.3079 4.33325 -25.1216 0
-0.0497157 4.28091 -24.9212 0
-0.106138 4.1269 -25.0063 0
-0.101744 3.98401 -25.1199 0
-8.09553 3.87116 -24.8304 0
-8.23696 3.87157 -24.8212 0
-8.44903 2.81817 -25.251 0
3.71256 2.61966 -25.134 0
5.74194 2.45696 -25.2546 0
-8.67831 1.51399 -25.2125 0
5.33877 1.21413 -25.3379 0
4.32288 0.596221 -25.2863 0
3.99324 0.492245 -25.2885 0
4.06698 -5.33893 -25.546 0
4.18022 -5.39037 -25.5483 0
3.54124 -5.5176 -25.5482 0
2.64707 5.35478 -25.0216 0
1.74135 4.25566 -25.1072 0
-0.0982776 4.1861 -24.9573 0
-0.0263125 4.00214 -25.1103 0
-0.0263125 4.00214 -25.1103 0
-4.40467 3.94712 -25.2205 0
-4.02709 3.36338 -25.2151 0
-3.62687 3.07142 -25.0524 0
-3.38003 2.45465 -25.03 0
7.85545 2.43026 -25.2868 0
6.25645 2.2736 -25.2317 0
6.6917 1.86749 -25.2726 0
5.31878 1.16853 -25.3639 0
5.40307 1.14839 -25.3596 0
5.0649 0.936459 -25.3903 0
4.36898 0.453468 -25.273 0
5.082 0.367396 -25.2981 0
-3.70455 -1.00642 -25.9441 0
3.52901 -1.0398 -25.3169 0
4.8238 -1.21591 -25.3788 0
1.99779 -1.2697 -25.3423 0
-1.94885 -2.69555 -25.7934 0
-1.842 -2.79426 -25.8085 0
4.10287 -5.50198 -25.5361 0
1.54324 -5.83777 -25.5601 0
0.433881 -6.08545 -25.6914 0
-0.445745 -6.23772 -25.7689 0
-2.7234 -6.43099 -25.7949 0
-1.53145 -6.42773 -25.8229 0
7.92633 -6.74133 -25.8732 0
-3.98391 -8.17904 -25.8715 0
-4.692 -8.29802 -25.8493 0
6.72682 5.83795 -25.0438 0
0.966242 5.34725 -25.0082 0
1.67264 4.31738 -25.1157 0
-0.133724 4.26044 -24.9284 0
0.0233707 4.09656 -25.0527 0
-4.1588 3.98899 -25.1264 0
1.82647 2.92688 -25.1407 0
1.82688 2.77213 -25.032 0
-3.71778 2.59612 -25.0994 0
-8.52345 2.651 -25.2491 0
2.71554 2.47213 -25.3382 0
-8.43627 2.49373 -25.2343 0
-3.8593 2.44145 -25.2983 0
-3.65773 2.20711 -25.1686 0
6.6058 2.18312 -25.2267 0
-1.77439 2.12939 -25.0889 0
-3.90847 1.9627 -25.0323 0
-3.83925 1.87743 -25.0353 0
-2.02398 1.63173 -25.2286 0
-8.28844 1.41957 -25.1826 0
-1.97563 1.21521 -25.3411 0
-0.104286 1.14144 -25.2572 0
6.36117 1.13954 -25.363 0
-0.128462 0.87704 -25.2615 0
-1.62397 0.772983 -25.3461 0
1.69454 0.707655 -25.2501 0
4.95178 0.107106 -25.3039 0
-4.28923 -0.0876271 -25.7712 0
-3.14162 -1.12164 -25.9004 0
-3.59062 -1.1307 -25.8956 0
-3.91992 -1.13193 -25.9455 0
4.53407 -3.31112 -25.4955 0
3.85247 -5.44424 -25.5227 0
2.41615 -5.6558 -25.7069 0
7.99531 -6.73232 -25.8826 0
-3.99082 -6.75144 -25.7773 0
8.37919 -6.92568 -25.8259 0
-4.54477 -6.84604 -25.7548 0
8.13657 -6.93872 -25.918 0
8.333 -7.0048 -25.8605 0
-8.31308 -7.68233 -25.8546 0
5.40991 -7.68555 -25.8706 0
5.53912 -7.73446 -25.8656 0
-7.51331 -7.85587 -25.8851 0
-4.99226 -7.9387 -25.8413 0
-6.75772 -7.9821 -25.8889 0
-8.24077 -8.23958 -25.9395 0
-4.27096 -8.35196 -25.9941 0
-4.27096 -8.35196 -25.9941 0
1.89374 5.76345 -24.9013 0
4.21132 5.76204 -24.9738 0
2.00157 5.51048 -25.0161 0
2.92976 4.89742 -25.0379 0
-3.59585 4.5155 -25.0126 0
-5.31774 4.38973 -24.9366 0
1.61204 4.26514 -25.1145 0
0.00618617 4.23256 -24.9325 0
-3.491 4.01072 -25.0799 0
-1.5161 3.38052 -25.1536 0
-3.73184 2.77377 -25.0075 0
-8.53371 2.77001 -25.2512 0
-3.79432 2.68113 -25.1697 0
-8.44108 2.7092 -25.2659 0
-0.151723 2.63008 -24.9882 0
7.18063 2.52445 -25.0956 0
2.79891 2.38049 -25.3148 0
3.55401 2.32721 -25.2374 0
2.44694 2.30508 -25.1539 0
2.08514 2.24324 -25.1696 0
3.39064 2.2276 -25.4152 0
6.6783 2.21887 -25.2292 0
2.00948 2.17934 -25.1928 0
2.00139 1.98951 -25.2147 0
-8.19161 1.93741 -25.2961 0
5.33577 1.80352 -25.1668 0
5.33577 1.80352 -25.1668 0
7.35324 1.64504 -25.2141 0
0.196792 1.52987 -25.289 0
7.47983 1.54897 -25.2391 0
7.36678 1.27956 -25.2881 0
-1.44875 0.764345 -25.2969 0
4.48302 0.516963 -25.2809 0
4.22754 0.386388 -25.2729 0
-3.30967 0.163848 -25.7112 0
4.67146 -1.12136 -25.3372 0
3.5136 -1.242 -25.3037 0
-4.96626 -1.42128 -25.8322 0
5.52153 -1.44605 -25.3749 0
6.1055 -1.46885 -25.3833 0
-4.4177 -1.78401 -25.8647 0
-3.82811 -1.843 -25.8591 0
0.292039 -2.02604 -25.4169 0
7.82542 -3.83443 -25.5637 0
-8.44029 -4.18508 -25.7773 0
-4.71294 -7.25533 -25.8271 0
-5.39043 -7.38515 -25.8392 0
-3.5582 -7.47591 -25.7854 0
4.81845 -8.25455 -25.8357 0
2.19929 6.3859 -24.8859 0
2.29568 5.93042 -24.8625 0
0.339138 5.54322 -24.8861 0
7.41589 5.53417 -25.0101 0
0.340589 5.34484 -24.9007 0
0.340589 5.34484 -24.9007 0
4.93664 5.37017 -24.8922 0
2.6796 5.24481 -25.027 0
-4.25063 4.02535 -25.1673 0
-0.131861 3.68678 -25.1597 0
-1.60497 3.47862 -25.1584 0
0.365573 3.39822 -25.096 0
-3.94351 3.2564 -25.169 0
-1.3026 3.0066 -25.1292 0
-4.31647 2.90723 -25.2189 0
-3.80597 2.8669 -25.0567 0
-3.46017 2.66769 -24.9744 0
2.45382 2.13248 -25.2019 0
2.08632 2.06388 -25.2185 0
-8.31725 2.01033 -25.2624 0
7.56597 1.63905 -25.1867 0
-8.42105 1.48922 -25.196 0
-1.54868 0.841731 -25.3333 0
4.01998 0.60504 -25.3007 0
4.54324 0.411677 -25.2774 0
-4.55839 0.383462 -25.3877 0
-3.65631 0.33336 -25.6266 0
-1.03454 0.27893 -25.2511 0
-4.07195 0.0267958 -25.774 0
-5.1019 -0.154178 -25.4672 0
-4.21664 -0.287462 -25.7804 0
-3.13033 -0.845343 -25.9375 0
3.78439 -1.07671 -25.3275 0
3.79057 -1.20727 -25.35 0
-3.79313 -1.49411 -25.8755 0
2.15372 -1.6514 -25.3954 0
6.05955 -1.79345 -25.4235 0
6.51905 -1.82796 -25.4066 0
6.88998 -1.85687 -25.405 0
-4.43709 -2.02635 -25.8462 0
-4.19447 -2.17796 -25.8503 0
-1.49454 -2.39216 -25.7741 0
-0.123026 -2.53799 -25.4191 0
-1.94959 -2.80022 -25.7945 0
-8.04084 -3.65997 -25.7577 0
4.44625 -5.17592 -25.5463 0
3.6153 -5.35995 -25.5263 0
5.06451 -5.61546 -25.6848 0
3.7056 -5.63941 -25.5848 0
3.10446 -5.74997 -25.6103 0
5.68826 -5.83545 -25.7102 0
2.90504 -5.78547 -25.6137 0
2.70478 -5.81821 -25.6183 0
2.531 -5.84848 -25.6197 0
2.2608 -5.89779 -25.6099 0
2.14277 -5.91671 -25.6075 0
1.85481 -5.97464 -25.6078 0
1.65748 -6.00247 -25.616 0
7.98192 -6.49039 -25.7773 0
8.20019 -6.56376 -25.7967 0
8.02464 -6.61689 -25.8235 0
8.35235 -6.81584 -25.8182 0
5.52442 -6.93862 -25.8508 0
5.49155 -7.57697 -25.8706 0
-4.33099 -7.71729 -25.8278 0
-8.87861 -7.85659 -25.8121 0
5.20639 -7.96715 -25.8496 0
-5.9459 -8.10419 -25.8665 0
-3.61137 -8.05946 -25.7769 0
-8.12371 -8.29669 -25.9556 0
-7.78372 -8.33673 -25.9382 0
-7.78372 -8.33673 -25.9382 0
-8.00914 -8.38596 -26.0009 0
-8.00914 -8.38596 -26.0009 0
6.65312 6.76757 -24.9321 0
-4.27551 5.84402 -24.9243 0
-2.30391 5.52171 -24.978 0
-6.01905 4.45982 -25.1293 0
-8.23169 3.08934 -25.2009 0
-8.61312 1.3244 -25.242 0
6.70323 1.2699 -25.2848 0
-0.00730364 1.25832 -25.2517 0
-0.271024 1.24583 -25.254 0
7.39225 1.1243 -25.2961 0
-0.289443 1.08485 -25.2558 0
4.99632 1.04247 -25.405 0
-0.363286 0.830581 -25.258 0
-0.664517 0.659096 -25.2544 0
-5.11458 0.127818 -25.3515 0
4.66027 -1.35101 -25.3676 0
7.2814 -1.42423 -25.3472 0
-3.64587 -1.51174 -25.8868 0
7.0732 -1.53972 -25.3529 0
3.28954 -1.70766 -25.4017 0
3.39348 -1.96058 -25.3908 0
-3.96002 -2.16018 -25.8583 0
-2.25571 -2.76137 -25.8427 0
8.44891 -4.61979 -25.6847 0
2.81319 -4.88676 -26.149 0
3.72163 -5.47499 -25.5163 0
2.8934 -5.51585 -25.8298 0
3.42206 -5.54707 -25.5937 0
3.42206 -5.54707 -25.5937 0
3.88605 -5.58089 -25.5527 0
3.01731 -5.62082 -25.6056 0
4.97271 -5.73964 -25.6975 0
2.59634 -5.69434 -25.6183 0
4.87734 -5.85328 -25.6912 0
1.6567 -5.84492 -25.6055 0
5.45835 -6.41186 -25.7596 0
5.03185 -6.63012 -25.701 0
5.46292 -6.7135 -25.829 0
-2.80492 -6.89395 -25.813 0
8.18938 -7.19554 -25.8999 0
-3.70895 -7.32164 -25.8058 0
5.67677 -7.53468 -25.8637 0
-8.44871 -7.65124 -25.823 0
5.16619 -7.62454 -25.852 0
-4.4691 -7.87305 -25.828 0
-0.182381 4.54387 -24.9246 0
-1.40715 3.72218 -25.1565 0
2.65005 3.49944 -25.1521 0
-3.53285 3.41046 -25.0826 0
2.69472 2.9907 -25.4944 0
-1.18117 0.52911 -25.2426 0
4.90654 -1.13453 -25.3598 0
4.51046 -1.12316 -25.3438 0
6.87484 -1.20844 -25.4527 0
2.21302 -1.21571 -25.3637 0
4.06972 -1.26378 -25.3664 0
4.45203 -1.30188 -25.3892 0
-3.04094 -1.2992 -25.8785 0
5.09689 -1.37133 -25.3503 0
6.4806 -1.67453 -25.4001 0
-4.07368 -1.74939 -25.8628 0
2.64835 -4.70132 -25.741 0
3.85991 -5.32116 -25.5367 0
3.85991 -5.32116 -25.5367 0
5.38711 -6.22319 -25.7266 0
5.02232 -6.63196 -25.701 0
-2.55319 -7.04336 -25.8001 0
6.29991 -7.45045 -25.9006 0
-5.23399 -7.44825 -25.8253 0
-5.14556 -7.79489 -25.8483 0
5.49991 -7.85107 -25.8419 0
-5.71976 -8.0903 -25.863 0
-3.77936 -8.08856 -25.8081 0
-7.27431 6.32393 -25.3974 0
2.60196 4.99389 -25.0277 0
-0.49518 4.76358 -24.8936 0
-3.91536 3.02782 -25.1364 0
5.0067 0.643417 -25.3239 0
-3.39774 0.288732 -25.6451 0
-3.2801 -0.0665169 -25.8157 0
-2.86665 -0.282718 -25.873 0
6.48392 -1.18726 -25.4333 0
5.53324 -1.37072 -25.3669 0
5.95753 -1.40679 -25.3825 0
5.72676 -1.56045 -25.3802 0
3.48178 -2.35122 -25.404 0
0.64502 -2.40929 -25.4053 0
-2.60805 -2.92184 -25.8769 0
-8.15636 -3.55783 -25.7628 0
5.53042 -5.05423 -25.6069 0
4.09643 -5.41144 -25.5422 0
4.13458 -5.87977 -25.6147 0
1.25893 -5.84017 -25.4756 0
5.1841 -7.37291 -25.8594 0
-6.72857 -7.67894 -25.8551 0
-2.82192 -7.89551 -25.7893 0
-8.42346 1.22105 -25.2199 0
-3.48455 -1.329 -25.8763 0
6.49608 -1.45578 -25.3973 0
6.84281 -1.65636 -25.3837 0
7.7685 -1.69615 -25.3658 0
-3.87968 -3.04998 -25.8485 0
-6.169 -3.40711 -25.7578 0
4.8533 -3.59026 -25.5081 0
3.34454 -4.71416 -25.8998 0
5.09811 -6.34278 -25.7069 0
5.41971 -8.16442 -25.8627 0
4.10679 0.52783 -25.2829 0
-4.20454 0.201526 -25.7216 0
2.66208 -2.89345 -25.4364 0
5.63268 -5.559 -25.6793 0
-2.91175 4.65546 -24.9786 0
-3.61544 -0.782704 -25.9172 0
3.28077 -1.40647 -25.3613 0
1.59942 -1.41755 -25.3581 0
-3.55037 -1.72963 -25.8952 0
5.99325 -5.15695 -25.669 0
5.28698 -6.83654 -25.8169 0
-4.45572 -7.84101 -25.8278 0
2.43905 0.627725 -25.242 0
-4.17637 -0.44107 -25.7829 0
6.66212 -5.18301 -25.6758 0
