ply
format ascii 1.0
element vertex 338
property float x
property float y
property float z
property uchar intensity
end_header
-6.61771 8.137 -25.0639 0
0.942342 0.706088 -25.0173 0
1.26621 0.639757 -25.042 0
0.760807 0.183856 -25.1851 0
0.793716 0.0436816 -25.1726 0
-8.67346 -0.214681 -25.4049 0
-0.135188 -1.5239 -25.1841 0
-3.29268 -5.93294 -25.6927 0
-3.90007 -6.04213 -25.6799 0
-4.97199 -6.22342 -25.7247 0
-5.82974 -6.36701 -25.7766 0
-5.82974 -6.36701 -25.7766 0
-4.85934 2.86127 -25.3015 0
5.91473 2.12207 -24.9416 0
6.1776 2.06082 -24.9275 0
4.71419 1.96348 -24.9008 0
2.05621 1.93973 -24.9266 0
2.40359 1.73064 -24.9395 0
0.421274 0.0969395 -25.1631 0
7.20107 -0.716109 -25.0601 0
7.72886 -1.04428 -25.0637 0
0.52375 -1.48572 -25.1876 0
-7.58921 -1.52035 -25.2458 0
4.14243 -1.78551 -25.1731 0
-5.92263 -3.07192 -25.1422 0
-2.89565 -3.43019 -25.2661 0
-1.05772 -3.96494 -25.3928 0
0.266261 -4.13681 -25.2684 0
-3.35959 -6.02851 -25.6888 0
-7.56734 -6.64883 -25.7045 0
2.58978 -6.97225 -25.4361 0
2.05999 -6.99713 -25.3754 0
2.38373 -7.22604 -25.383 0
-2.12709 -8.00101 -25.8633 0
-1.91038 -8.17137 -25.8723 0
-2.40148 -8.31626 -25.8576 0
-4.00545 8.58631 -25.2668 0
-3.89764 8.54977 -25.1375 0
-2.58484 4.41503 -25.3752 0
-3.16343 3.41845 -25.479 0
-5.83199 2.19463 -24.9376 0
-0.0980829 2.15941 -25.0185 0
-5.88444 1.97503 -24.9167 0
2.55326 1.72755 -24.9461 0
2.55326 1.72755 -24.9461 0
-5.81641 1.46974 -24.8925 0
6.29866 1.14128 -25.0017 0
-2.28904 0.266699 -25.0128 0
-8.73978 -0.661996 -25.3749 0
-3.94147 -1.00765 -25.2421 0
-8.13461 -1.45365 -25.2751 0
-0.203156 -1.49654 -25.1965 0
-0.203156 -1.49654 -25.1965 0
-0.933707 -1.50178 -25.3153 0
-1.63901 -1.56324 -25.3527 0
-1.56298 -1.63003 -25.3441 0
-0.64617 -1.65986 -25.3074 0
2.37999 -1.82559 -25.19 0
-6.04087 -2.97747 -25.174 0
7.46764 -3.02355 -25.2973 0
-2.10187 -3.43033 -25.4416 0
0.57072 -4.41466 -25.3179 0
-3.71125 -4.8223 -25.1999 0
5.16386 -4.86123 -25.3147 0
-3.59617 -6.01196 -25.6808 0
-2.29413 -6.06217 -25.7386 0
-4.96647 -6.16132 -25.7159 0
-0.944156 -6.21786 -25.845 0
-7.22374 -6.60057 -25.8106 0
2.43649 -7.16673 -25.3803 0
-2.00387 -8.07164 -25.8701 0
-2.34215 -8.29393 -25.8418 0
-1.59761 -8.39759 -25.7356 0
-2.8257 3.46522 -25.3792 0
-3.46211 3.15567 -25.2708 0
-6.50736 2.78139 -24.8942 0
-6.37203 2.68825 -24.8971 0
-6.22939 2.51071 -24.8957 0
-6.59153 2.51717 -24.8654 0
-6.11394 2.33708 -24.9257 0
5.53572 2.22449 -24.9374 0
4.12916 2.07253 -24.919 0
-0.812321 2.07271 -25.0577 0
-1.0896 2.0786 -25.0632 0
1.55534 2.04131 -24.9207 0
-0.648711 2.0111 -25.0546 0
-0.908644 2.01324 -25.0675 0
-0.393884 2.00891 -25.064 0
5.01313 0.924984 -25.043 0
0.874023 0.652512 -25.03 0
1.39375 0.458823 -25.1621 0
-5.42552 0.397708 -25.1377 0
0.972457 0.00522403 -25.169 0
7.72372 -0.0140737 -25.0836 0
0.64548 -0.0189304 -25.1774 0
-7.68435 -0.723237 -25.187 0
-8.43123 -1.46855 -25.279 0
-0.744524 -1.60635 -25.3192 0
-0.398365 -1.63893 -25.1907 0
-0.398365 -1.63893 -25.1907 0
5.15692 -1.80415 -25.1469 0
2.64066 -1.84412 -25.1834 0
4.36538 -1.92575 -25.1853 0
-2.37021 -2.07569 -25.1744 0
3.1462 -2.09108 -25.157 0
3.26494 -2.13832 -25.1574 0
-2.24476 -3.12334 -25.2618 0
-0.566791 -3.72966 -25.2199 0
-1.82993 -4.07437 -25.4711 0
4.3778 -4.42564 -25.3175 0
1.28537 -4.49825 -25.2997 0
4.34248 -4.72237 -25.3393 0
7.09992 -4.96016 -25.3249 0
2.53761 -5.1191 -25.2856 0
4.89506 -5.29283 -25.3311 0
-1.31834 -5.44119 -25.8197 0
5.84465 -5.70415 -25.3317 0
-1.25548 -5.68411 -25.8187 0
-3.04646 -5.73164 -25.6451 0
-2.73368 -5.77861 -25.7142 0
-2.48298 -6.106 -25.7201 0
-3.19808 -6.20535 -25.6964 0
-6.93226 -6.55614 -25.7167 0
-6.93226 -6.55614 -25.7167 0
7.51751 -6.5523 -25.3769 0
2.42393 -7.06968 -25.382 0
-2.21923 -8.18826 -25.8447 0
2.57565 5.61508 -25.9223 0
-5.01691 5.0064 -25.5309 0
-0.506429 4.35511 -25.4124 0
-4.32572 3.96035 -25.3228 0
0.0723632 3.12191 -25.3548 0
-2.51048 3.11177 -25.1039 0
0.0856722 2.88227 -25.3715 0
-0.799687 2.68545 -24.9655 0
-0.799687 2.68545 -24.9655 0
-6.10829 2.4429 -24.9348 0
0.145758 2.16902 -24.9832 0
3.0465 1.70371 -24.9514 0
2.8435 1.58222 -24.9614 0
3.25278 0.875585 -25.1176 0
1.77112 0.64883 -25.0558 0
-5.51767 0.277806 -25.094 0
0.447311 0.187914 -25.1559 0
-7.72042 -0.281367 -25.2087 0
7.48411 -0.95083 -25.0525 0
7.7508 -1.21038 -25.066 0
-1.44721 -1.68935 -25.3402 0
4.49863 -1.74003 -25.1813 0
-1.04658 -1.73186 -25.3267 0
-0.680279 -1.76477 -25.2942 0
-4.79011 -1.85092 -25.2609 0
-8.32093 -1.87251 -25.3083 0
-8.17977 -1.90935 -25.3088 0
1.04707 -1.93052 -25.1933 0
4.95635 -1.9587 -25.2317 0
-2.57003 -1.96332 -25.1542 0
5.52326 -1.98534 -25.131 0
6.16982 -2.09701 -25.1734 0
2.16814 -2.3394 -25.2749 0
2.33204 -2.35636 -25.2594 0
2.80742 -2.39604 -25.2677 0
-8.65437 -2.51216 -25.4824 0
6.70785 -2.92396 -25.2524 0
6.85847 -3.23614 -25.3227 0
-2.21461 -3.2604 -25.3312 0
4.36476 -3.60735 -25.2385 0
-1.06411 -3.87288 -25.3889 0
4.22222 -4.27224 -25.2854 0
3.51514 -4.27416 -25.2696 0
-2.19603 -4.90509 -25.2933 0
-3.0607 -5.05318 -25.2121 0
-2.88346 -5.48068 -25.5498 0
8.24139 -5.80006 -25.4141 0
-1.81553 -5.74902 -25.7655 0
-2.10133 -5.79243 -25.743 0
-2.18677 -5.87997 -25.7456 0
-3.84356 -5.90174 -25.6793 0
-4.29962 -6.24339 -25.6633 0
-2.54676 -6.24946 -25.7208 0
-4.50633 -6.27977 -25.6543 0
-4.6853 -6.30779 -25.6607 0
-4.85568 -6.33635 -25.6727 0
-1.8451 -6.3309 -25.7967 0
-1.8451 -6.3309 -25.7967 0
-2.60328 -6.35226 -25.7358 0
-5.22415 -6.39497 -25.6599 0
-0.482859 -6.6487 -25.8923 0
7.67964 -6.72594 -25.3758 0
-0.274448 -6.84468 -25.8378 0
2.53339 -6.83534 -25.3933 0
2.18682 -6.88936 -25.4105 0
-0.237225 -7.03043 -25.7725 0
-2.46359 -7.05726 -25.8537 0
-2.03382 -7.31255 -25.8343 0
-2.41268 -7.37514 -25.8511 0
-1.92802 -7.88471 -25.8513 0
-2.36475 -7.95782 -25.8588 0
-3.23649 5.28273 -25.7393 0
-7.22275 4.77875 -25.3936 0
-2.52889 4.3272 -25.3963 0
-2.79257 3.4178 -25.3797 0
7.53377 2.49722 -25.3388 0
-4.60673 2.4608 -25.3772 0
2.85526 1.82397 -24.932 0
7.33513 1.7512 -24.9179 0
3.42692 1.23952 -25.0489 0
-2.20142 0.203095 -25.2165 0
3.95401 0.19707 -25.122 0
-7.67621 -1.28272 -25.2487 0
-0.343912 -1.52472 -25.229 0
1.27236 -1.78906 -25.1921 0
4.15099 -1.8963 -25.1761 0
4.67535 -1.91331 -25.2028 0
6.89119 -2.13873 -25.1675 0
6.35459 -2.38692 -25.1562 0
6.79956 -2.42858 -25.1455 0
4.13149 -2.53085 -25.2503 0
3.31408 -2.58837 -25.2685 0
5.15173 -2.62631 -25.2741 0
3.97607 -2.64036 -25.2343 0
-5.52752 -2.66638 -25.0806 0
6.63784 -2.76774 -25.241 0
7.77904 -2.93693 -25.2946 0
-6.34722 -3.02847 -25.1954 0
5.16278 -3.65341 -25.2744 0
-1.43891 -3.81147 -25.4402 0
3.38354 -3.90973 -25.2532 0
3.94607 -3.99771 -25.2118 0
7.42609 -4.80015 -25.3379 0
8.13938 -4.91138 -25.3615 0
4.55226 -5.01405 -25.3516 0
5.16413 -5.53141 -25.3174 0
-4.54493 -6.01392 -25.6279 0
-4.01346 -6.0638 -25.6659 0
-4.01346 -6.0638 -25.6659 0
-3.55779 -6.10516 -25.6946 0
-4.40582 -6.12752 -25.6574 0
-4.81476 -6.19729 -25.701 0
-5.72291 -6.34333 -25.7986 0
-3.27227 -6.33326 -25.7054 0
-3.27227 -6.33326 -25.7054 0
2.33091 -6.81177 -25.3852 0
2.99692 -7.1007 -25.4074 0
-2.07746 -7.13605 -25.8374 0
3.23336 -7.3612 -25.4016 0
3.92967 5.64494 -25.9531 0
0.993732 4.62889 -25.5347 0
-6.61662 2.61284 -24.8784 0
-6.42384 2.44996 -24.8784 0
6.2832 0.498036 -25.0163 0
6.92193 0.428019 -25.073 0
8.07707 0.104011 -25.0743 0
7.77007 0.117133 -25.0584 0
7.02129 -0.186483 -25.0763 0
0.695688 -1.59175 -25.1925 0
0.695688 -1.59175 -25.1925 0
0.335835 -1.57506 -25.1963 0
1.27492 -1.7852 -25.1921 0
-1.60189 -1.80255 -25.3343 0
0.670796 -1.82893 -25.1956 0
1.45434 -1.89794 -25.1954 0
-4.72589 -2.09408 -25.249 0
1.92305 -2.16275 -25.2303 0
3.65128 -2.32997 -25.2176 0
-8.34858 -2.53197 -25.35 0
3.2697 -2.85893 -25.2497 0
-6.70245 -3.17266 -25.1841 0
-1.44071 -3.62461 -25.4587 0
5.07447 -4.36586 -25.2911 0
-1.4328 -4.96803 -25.3345 0
7.93374 -5.17633 -25.3799 0
-3.22074 -5.46693 -25.4689 0
-1.40431 -5.54746 -25.8124 0
-3.59939 -5.86581 -25.6573 0
2.27593 -6.97333 -25.4027 0
-0.950805 -7.26729 -25.8403 0
-6.28995 4.84139 -25.2514 0
-2.58753 4.09567 -25.4802 0
6.59108 0.467517 -25.0625 0
0.432783 0.147967 -25.1582 0
7.17265 -0.356502 -25.0836 0
-7.67399 -0.481167 -25.1963 0
-7.3023 -0.741955 -25.203 0
4.75766 -1.64184 -25.2103 0
2.1352 -1.65186 -25.1874 0
2.48957 -1.69091 -25.1846 0
1.91395 -1.94966 -25.1838 0
8.0727 -2.98741 -25.2581 0
3.61399 -3.23149 -25.2609 0
4.95206 -3.59248 -25.2748 0
3.16991 -4.38811 -25.2828 0
5.32148 -4.81481 -25.3153 0
7.67239 -5.02526 -25.3676 0
-2.67831 -5.1557 -25.514 0
-4.48232 -5.44105 -25.4491 0
-2.00033 -5.61975 -25.7436 0
-3.36729 -5.94585 -25.693 0
7.81072 -6.08085 -25.4157 0
-6.10335 -6.3397 -25.7041 0
0.0885649 -6.37152 -25.9045 0
-2.14991 -6.73261 -25.8374 0
-2.4337 -6.80474 -25.8384 0
2.68691 -7.46191 -25.4755 0
-2.35134 -7.72909 -25.8562 0
-2.2225 4.14238 -25.3737 0
-6.70552 3.11519 -25.0781 0
8.16238 1.33723 -24.9169 0
8.2073 0.362493 -24.9931 0
-7.98785 -1.71922 -25.2863 0
2.20915 -2.14949 -25.1999 0
3.61064 -4.43412 -25.2766 0
-2.77685 -5.6698 -25.6802 0
-0.12191 -6.03191 -25.8885 0
2.97525 -7.28921 -25.3603 0
-6.36745 8.18677 -25.0035 0
-7.79326 4.02299 -25.2697 0
6.46066 2.76193 -25.4348 0
8.07299 0.739696 -24.9822 0
-8.21475 -0.531524 -25.2624 0
-2.60621 -3.39158 -25.3882 0
-0.85266 -3.44199 -25.2466 0
-1.19369 -3.69823 -25.374 0
-1.04201 -4.10103 -25.3981 0
3.38069 -4.16805 -25.2734 0
-1.91155 -6.07787 -25.7575 0
-2.27668 -6.80378 -25.8474 0
-2.48297 4.53587 -25.3755 0
-7.90684 2.42621 -25.2904 0
-1.63157 0.156812 -25.2653 0
7.26875 -2.81113 -25.2312 0
-4.51699 -2.86454 -25.1316 0
-2.2434 -7.24382 -25.8548 0
1.91545 5.36044 -25.8628 0
-0.417303 5.29327 -25.7775 0
-6.26813 5.04916 -25.5925 0
6.5001 1.31928 -24.9724 0
-2.12282 -4.41415 -25.3057 0
