ply
format ascii 1.0
element vertex 147
property float x
property float y
property float z
property uchar intensity
end_header
-6.10594 5.34005 -24.8969 0
-1.2103 6.71057 -25.3111 0
-6.63935 5.70466 -24.8753 0
-7.3971 5.41027 -24.9005 0
-7.62558 5.39902 -24.8973 0
-0.790811 5.13297 -25.0747 0
5.19429 4.12998 -25.366 0
6.73148 4.10964 -25.243 0
6.5859 4.04217 -25.3136 0
6.7559 4.00551 -25.2591 0
-5.18892 7.46836 -25.3113 0
-4.63262 7.12284 -25.3805 0
1.72745 6.84781 -25.0363 0
-5.87719 5.93767 -24.9151 0
-4.65908 5.8213 -25.3545 0
-5.34038 5.46771 -24.9369 0
5.0434 5.41846 -25.196 0
4.98003 5.36993 -25.222 0
-0.657379 5.05367 -25.1764 0
-7.4701 5.11604 -24.9057 0
7.08044 4.35585 -25.1747 0
7.19056 4.16105 -25.1912 0
-7.05382 3.83131 -24.8438 0
2.67553 3.5167 -25.3366 0
0.678711 3.42298 -25.3291 0
3.93656 3.35932 -25.2231 0
-6.81888 3.33421 -24.9867 0
5.24289 -3.56617 -26.0194 0
3.01463 7.39437 -24.8707 0
-1.49817 6.67066 -25.0458 0
2.3707 6.60397 -25.0565 0
-1.09518 6.58959 -25.2972 0
2.25993 6.46066 -25.0417 0
1.69565 6.44535 -25.0632 0
-4.65372 6.36382 -25.3927 0
-5.44068 6.09877 -24.9986 0
-5.72554 6.08779 -24.9176 0
-4.65196 5.72236 -25.3532 0
-5.34526 5.59223 -24.8899 0
-6.88233 5.45797 -24.8541 0
-6.51806 5.35441 -24.8963 0
5.05422 4.29445 -25.3637 0
-7.08269 3.94345 -24.81 0
7.0694 3.92543 -25.2202 0
-6.97647 3.88386 -24.8199 0
6.80101 3.87858 -25.292 0
-0.729558 3.40452 -25.3846 0
-6.64008 3.17024 -25.1108 0
3.94254 -2.62463 -26.1359 0
7.62115 -7.58482 -26.1311 0
3.24446 -8.21237 -26.2483 0
6.44077 8.74228 -25.0159 0
2.819 7.585 -24.9243 0
-4.93971 6.2497 -25.2926 0
-4.31232 6.21322 -25.4136 0
-6.89717 6.00021 -24.8869 0
0.159389 5.28729 -25.2526 0
2.33975 3.95556 -25.0661 0
0.285917 3.53352 -25.3959 0
3.47197 3.19509 -25.2985 0
0.55385 1.69019 -25.4747 0
0.299465 -3.59781 -26.1808 0
2.4143 -4.17042 -26.168 0
4.33018 -7.75614 -26.3317 0
7.49652 -7.93197 -26.3134 0
4.59135 8.62366 -25.0618 0
-5.33722 6.02421 -25.1612 0
-5.78293 5.63336 -24.9135 0
0.0272417 5.30325 -25.2659 0
0.0272417 5.30325 -25.2659 0
-7.66974 4.87165 -24.9185 0
2.12132 4.00803 -25.0546 0
-7.07952 3.53835 -24.8804 0
-1.15543 3.15741 -25.3668 0
0.696333 1.69467 -25.4576 0
-0.214692 0.956974 -25.4757 0
0.0368624 0.812362 -25.4758 0
5.07229 -2.85529 -26.053 0
5.01869 -3.01574 -26.0602 0
1.5444 -3.96567 -26.1642 0
3.32135 -4.98596 -26.1412 0
-1.13638 -6.25022 -26.1311 0
5.80731 -6.50086 -26.1376 0
-1.00105 -6.68455 -26.1228 0
5.46202 -6.9699 -26.1335 0
4.49409 -7.28785 -26.1441 0
2.57161 -7.50354 -26.1372 0
6.95672 -7.6695 -26.224 0
3.77218 -8.31718 -26.3026 0
3.9392 8.6657 -25.4339 0
-2.55154 7.70019 -24.9482 0
7.65144 7.48842 -25.1449 0
-7.76905 5.16825 -24.9149 0
-7.90758 4.96728 -24.922 0
2.11461 3.4067 -25.1216 0
0.222471 1.36749 -25.4954 0
0.343774 0.849574 -25.5446 0
5.63462 -3.19697 -25.4826 0
4.0551 -3.67312 -26.1276 0
-1.22027 -5.93511 -26.1339 0
4.07508 -6.71155 -26.0807 0
5.56926 -6.82312 -26.1358 0
4.15944 -6.94475 -26.1309 0
2.60909 -7.70278 -26.1341 0
2.60909 -7.70278 -26.1341 0
6.81358 5.84778 -25.1772 0
0.722671 3.17467 -25.3365 0
-2.50532 -1.16371 -26.2435 0
-0.186248 -4.17597 -26.1574 0
2.54267 -4.25905 -26.1559 0
3.48299 -4.61615 -26.1011 0
3.03529 -5.25774 -26.138 0
3.67688 -5.35034 -26.1223 0
-1.33333 -5.43738 -26.0996 0
3.86052 -6.08107 -26.08 0
6.08454 -6.31055 -26.1445 0
5.09174 -6.61876 -26.1144 0
4.56048 -6.79879 -26.1398 0
3.57346 -7.21187 -26.2789 0
7.08057 -8.02173 -26.4472 0
4.46557 -8.10702 -26.3575 0
0.977391 3.15194 -25.2138 0
-6.71165 2.49419 -24.9813 0
-0.00597926 0.0393093 -25.5665 0
4.71398 -7.18872 -26.125 0
3.63839 -7.43321 -26.295 0
1.00858 -7.73704 -26.1239 0
0.811227 -8.17155 -26.13 0
6.94544 8.67763 -24.996 0
-6.55217 2.89816 -25.1281 0
0.13166 1.03241 -25.4954 0
0.221932 -2.97003 -26.2103 0
7.66736 -7.02145 -25.9549 0
1.92222 -7.23947 -26.1193 0
8.00306 -7.79357 -26.5338 0
-5.51077 5.97409 -25.0227 0
-3.60101 4.28713 -25.3784 0
0.524661 3.36611 -25.3512 0
0.631183 2.42291 -25.3049 0
-0.313399 -0.42826 -25.7475 0
-1.96747 -3.85635 -26.2293 0
5.23166 -6.2482 -26.0859 0
-4.6374 5.58228 -25.3521 0
0.811556 -0.157545 -25.7807 0
4.8306 -3.09588 -26.0696 0
-1.38246 -4.65537 -26.1745 0
4.3691 -6.39794 -26.0809 0
