ply
format ascii 1.0
element vertex 271
property float x
property float y
property float z
property uchar intensity
end_header
7.24908 8.27497 -24.9957 0
3.11535 7.69991 -24.9898 0
1.63308 6.87197 -24.8865 0
-0.554004 6.57208 -24.9848 0
-8.44263 6.62844 -24.9836 0
-0.187838 6.44753 -24.9293 0
-8.13539 6.30932 -24.927 0
8.26781 5.63246 -24.9637 0
3.27982 5.17582 -24.9432 0
-3.22297 5.07565 -24.9118 0
-2.68494 5.03329 -24.9178 0
-3.25117 4.82012 -24.9492 0
-8.69858 4.48813 -24.9305 0
4.89537 3.99443 -25.0904 0
6.10919 3.97798 -25.1039 0
3.65488 3.86719 -25.2004 0
4.59026 3.83815 -25.1084 0
5.04649 3.79693 -25.1188 0
4.60201 3.7705 -25.0828 0
3.3984 3.6983 -25.2352 0
5.02524 3.64367 -25.1174 0
-3.0158 3.23844 -25.2837 0
6.39128 -0.22732 -26.0778 0
4.86936 -0.594552 -26.0994 0
2.73812 -1.1024 -26.1438 0
2.39899 -1.18662 -26.1501 0
1.42099 -7.47963 -26.0376 0
5.85123 8.0442 -24.9827 0
1.54498 6.93139 -24.881 0
-8.72624 7.02515 -24.9844 0
1.50435 6.86956 -24.8823 0
-0.144539 6.53239 -24.9011 0
-6.88346 6.6026 -24.8955 0
-7.35955 6.48901 -24.932 0
-0.387645 6.29586 -24.9814 0
-4.72358 5.98629 -25.375 0
-6.87036 5.96538 -24.8909 0
-3.25827 5.79657 -24.922 0
-3.29489 5.68115 -24.9305 0
8.09691 5.7246 -24.9264 0
-0.936077 5.37438 -25.2299 0
-2.47625 4.75384 -24.989 0
-3.38627 4.70682 -25.0217 0
-0.647453 4.62341 -25.2511 0
-8.60157 4.35453 -24.929 0
0.353527 3.85296 -24.9716 0
-8.39175 3.79531 -24.8817 0
4.48059 3.68509 -25.0439 0
1.87459 3.51217 -25.0551 0
-3.41951 3.48861 -25.3241 0
0.1849 3.39309 -25.0142 0
-2.56127 2.6511 -25.3176 0
6.39522 -0.14862 -26.1025 0
4.05935 -0.790763 -26.1282 0
3.24953 -0.987719 -26.1184 0
1.57222 -1.40553 -26.1635 0
-3.70025 -3.08541 -26.1339 0
-2.8955 -3.13817 -26.1221 0
-1.61559 -3.75177 -26.1195 0
-6.87006 -3.94129 -26.0661 0
-1.63848 -3.96168 -26.1204 0
-2.51779 -4.18725 -26.0998 0
-1.3292 -5.13237 -26.087 0
-6.00381 -5.66884 -26.0732 0
-6.47605 -5.67283 -26.0773 0
-5.95548 -5.72269 -26.0641 0
-6.12945 -5.77872 -26.0862 0
-6.47704 -5.85508 -26.0978 0
1.00716 -7.58464 -26.0372 0
1.00716 -7.58464 -26.0372 0
-2.47735 -7.61932 -26.0757 0
-2.39758 -7.65153 -26.053 0
4.98986 8.57139 -24.9366 0
-4.42703 8.01799 -25.3738 0
3.08557 6.89302 -24.9193 0
1.56587 6.7929 -24.8834 0
1.46774 6.68829 -24.8798 0
0.2754 6.42046 -24.9329 0
-3.63566 6.29986 -24.9458 0
-6.85914 6.09627 -24.8663 0
-7.71776 6.03246 -24.8704 0
-3.39337 5.29664 -24.9079 0
-2.57789 5.00554 -24.928 0
-3.37536 4.98937 -24.9637 0
-2.94338 4.70777 -24.945 0
5.93586 4.60616 -25.1214 0
-8.70882 4.57509 -24.9275 0
-8.61797 4.51409 -24.9362 0
0.809813 4.09734 -25.0914 0
5.30482 3.71733 -25.1607 0
5.16515 3.71904 -25.1528 0
-8.27001 3.73707 -24.86 0
1.18073 3.6367 -25.0842 0
4.90329 3.56715 -25.1091 0
-0.792381 3.39413 -25.2658 0
-2.83817 3.07569 -25.3929 0
-2.19075 2.18019 -25.2936 0
-3.00781 1.1354 -25.3035 0
3.24122 -0.0716189 -25.9805 0
4.36255 -0.72606 -26.1113 0
4.36255 -0.72606 -26.1113 0
-4.17049 -2.93857 -26.1177 0
-2.47376 -4.07411 -26.1179 0
-2.47376 -4.07411 -26.1179 0
0.0348945 -4.75265 -26.0904 0
-2.29318 -4.78105 -26.0861 0
-6.19768 -5.09159 -26.0554 0
-6.24173 -5.3269 -26.0684 0
-6.12981 -5.48873 -26.0581 0
-6.37398 -5.83498 -26.0942 0
-6.17992 -6.17629 -26.0785 0
-1.26269 -6.25733 -26.0721 0
0.296286 -6.38948 -26.0814 0
-2.42173 -7.27671 -26.0643 0
1.70576 -7.62666 -26.0583 0
1.70576 -7.62666 -26.0583 0
4.92486 8.66994 -24.9425 0
3.98666 8.57775 -24.9323 0
4.21326 8.56706 -24.8911 0
4.79211 8.55241 -24.9312 0
5.16564 8.41706 -24.9567 0
5.16564 8.41706 -24.9567 0
2.87681 8.13405 -24.9202 0
2.89927 7.67974 -25.097 0
-0.088029 7.46661 -25.4855 0
0.0775619 7.25705 -25.4532 0
-0.265961 6.11868 -24.963 0
-7.26798 6.16554 -24.8883 0
-3.37041 5.84558 -24.9141 0
-4.73188 5.55109 -25.3471 0
-3.27378 5.00932 -24.9257 0
5.07866 3.94077 -25.1198 0
-0.0422332 3.75689 -24.9903 0
-3.43443 3.60181 -25.2939 0
-2.40198 3.43855 -25.3192 0
-3.90935 3.34344 -25.3423 0
5.729 2.44649 -25.2453 0
6.0305 2.32784 -25.2664 0
-2.34105 1.81739 -25.3823 0
-2.22746 1.75526 -25.3389 0
-2.78134 1.0067 -25.3316 0
7.62 0.229957 -26.0549 0
7.09697 -0.217108 -26.0324 0
6.89558 -0.266661 -26.0521 0
6.69973 -0.31135 -26.0606 0
6.52171 -0.352908 -26.0488 0
3.74783 -0.859141 -26.1333 0
-6.46508 -0.880459 -25.4845 0
-5.43007 -2.22272 -26.1709 0
0.214069 -2.28979 -26.1215 0
0.388669 -2.40943 -26.1215 0
0.366874 -3.03853 -26.1149 0
-4.98745 -3.22457 -26.1063 0
-4.98745 -3.22457 -26.1063 0
-5.46701 -3.25199 -26.0983 0
-5.12435 -3.25721 -26.1168 0
-7.02932 -3.32696 -26.0812 0
-3.89784 -3.55251 -26.1224 0
-3.89784 -3.55251 -26.1224 0
-4.11259 -3.60996 -26.1239 0
-4.11259 -3.60996 -26.1239 0
-3.12394 -3.7384 -26.1184 0
-5.00197 -3.82055 -26.1114 0
-6.49306 -4.21272 -26.1415 0
-0.816855 -4.26557 -26.1091 0
-2.18567 -4.84474 -26.0987 0
-1.41146 -5.13411 -26.0929 0
0.0735871 -5.18277 -26.1056 0
-1.30504 -7.29467 -26.0796 0
5.14986 8.58231 -24.9428 0
7.24649 8.38959 -25.0044 0
5.68311 7.99089 -24.9622 0
0.374092 5.9554 -24.9541 0
-8.49928 4.93596 -24.9101 0
8.2348 4.89922 -25.1918 0
0.20421 3.80204 -24.9819 0
-8.04002 3.69885 -24.8422 0
0.394413 3.5123 -24.991 0
-0.0789191 3.39857 -25.037 0
0.359516 3.2626 -25.0134 0
-3.23988 3.21891 -25.3118 0
8.12138 2.56961 -25.2087 0
6.09359 2.46354 -25.2352 0
7.36459 2.39831 -25.3267 0
6.88452 0.0544412 -26.0748 0
-6.12071 -0.279839 -25.5052 0
-4.68668 -2.90105 -26.1197 0
-7.16228 -3.24312 -26.0769 0
-1.38179 -3.40495 -26.1306 0
-4.27876 -3.56085 -26.1071 0
-2.17691 -4.62023 -26.1107 0
-0.671262 -4.97712 -26.1018 0
-2.17374 -5.35804 -26.0909 0
-6.58087 -5.62582 -26.0841 0
-6.13054 -5.87604 -26.09 0
-6.47797 -6.01065 -26.0936 0
-0.073598 -6.49071 -26.0442 0
-0.189157 -6.63558 -26.0405 0
-1.1365 -6.89466 -26.0591 0
-3.04164 -6.98501 -26.0479 0
-3.00089 -7.17741 -26.0812 0
-3.00089 -7.17741 -26.0812 0
1.25789 -7.39011 -25.9948 0
-1.85061 -7.82857 -26.0256 0
4.10217 8.47304 -24.8986 0
5.32774 8.45506 -24.9298 0
0.019421 7.96921 -25.5437 0
8.03359 5.02666 -25.2054 0
7.87204 2.41037 -25.2676 0
-2.62896 1.53174 -25.3336 0
-2.50548 1.01584 -25.31 0
7.86829 0.281947 -26.0643 0
7.86829 0.281947 -26.0643 0
7.02645 -0.0722109 -26.0547 0
6.56467 -0.185039 -26.0857 0
5.65436 -0.398885 -26.0893 0
-6.1148 -0.796594 -25.5652 0
1.35536 -1.90904 -26.1098 0
-5.57155 -3.65766 -26.0821 0
-6.64884 -5.30319 -26.0841 0
-2.35271 -5.28117 -26.0709 0
-1.54374 -6.33518 -26.0666 0
-0.573761 -6.49856 -26.0859 0
-1.43832 -6.51807 -26.0666 0
1.32609 -7.68883 -25.9963 0
-5.1457 7.96635 -25.3271 0
-2.99752 5.18808 -24.8992 0
-2.01036 3.27157 -25.3712 0
7.13963 0.819053 -26.0666 0
-2.86148 0.363714 -25.4002 0
8.1081 0.201893 -26.0655 0
8.1081 0.201893 -26.0655 0
5.23658 -0.395565 -26.0925 0
-2.16552 -3.08085 -26.1341 0
-2.90446 -3.86676 -26.1146 0
-2.64153 -4.15627 -26.0953 0
-2.00813 -4.27281 -26.083 0
-6.75407 -4.81315 -26.0576 0
-2.45858 -4.88907 -26.0837 0
-1.8495 -4.97902 -26.0748 0
-1.69447 -5.67988 -26.0463 0
0.473353 -6.04185 -26.1 0
-0.520519 -6.26987 -26.088 0
-1.03649 -6.41438 -26.0384 0
-2.01738 -6.70898 -26.0369 0
-1.9844 -6.97328 -26.0391 0
-1.18654 -7.63248 -26.0666 0
-2.98308 3.48288 -25.2981 0
-1.52566 3.11276 -25.3532 0
-8.37358 3.06828 -24.9934 0
-6.28367 -0.220124 -25.4678 0
-1.31269 -2.26018 -26.1711 0
-4.54217 -7.13614 -26.0739 0
-4.76909 -7.52449 -26.1147 0
2.19895 -7.50968 -26.0244 0
5.66474 8.25347 -24.9786 0
-1.24607 4.59801 -25.2921 0
6.48862 2.74489 -25.1715 0
-2.71854 1.20154 -25.3593 0
-5.21912 -2.52891 -26.1574 0
-7.42077 -3.21804 -26.1426 0
-5.41906 -3.40359 -26.1304 0
-3.63447 -6.68806 -26.0746 0
1.99616 -6.78658 -26.0067 0
6.62593 6.01773 -25.0558 0
-2.22052 2.57423 -25.3711 0
-2.17128 1.50181 -25.3278 0
-0.381564 -5.9148 -26.0553 0
-1.25909 -6.10918 -26.0643 0
-2.81019 2.89531 -25.381 0
-6.75458 -4.07207 -26.0775 0
