ply
format ascii 1.0
element vertex 263
property float x
property float y
property float z
property uchar intensity
end_header
-8.56276 1.95125 -25.4173 0
2.21153 -7.80875 -25.8511 0
2.29622 -7.92268 -25.9299 0
-4.18928 2.30785 -25.3074 0
-4.02323 2.01473 -25.4088 0
3.36646 1.30781 -25.3329 0
6.02395 1.2063 -25.3565 0
5.59713 0.741859 -25.4114 0
6.48086 0.579077 -25.3545 0
6.19895 0.262969 -25.4016 0
4.69997 -0.442854 -25.3912 0
4.76597 -0.466269 -25.3492 0
6.92993 -0.738192 -25.5221 0
3.87075 -0.98016 -25.5163 0
-5.21476 -1.1879 -25.9014 0
2.55682 -2.66256 -26.0627 0
-2.52525 -4.15748 -24.974 0
3.03368 -5.3526 -25.9367 0
2.25439 -7.98522 -25.9613 0
0.565994 -8.08003 -25.7896 0
0.550916 -8.15738 -25.7896 0
-0.299692 -8.2637 -25.8218 0
3.92995 3.32212 -25.2022 0
1.73717 3.28391 -25.2141 0
-4.03397 2.2927 -25.3237 0
-4.47474 2.11732 -25.3127 0
-8.57413 1.84977 -25.4047 0
-8.65007 1.77968 -25.399 0
-4.20349 1.70298 -25.3876 0
-0.403947 1.47571 -26.0414 0
2.08038 1.33806 -25.3267 0
-1.30528 1.27904 -26.0383 0
-1.37473 1.27268 -26.0304 0
-1.37473 1.27268 -26.0304 0
1.64635 1.23283 -26.0678 0
-4.08731 0.862412 -25.6981 0
-8.62114 0.730868 -25.3679 0
-2.49552 0.547074 -26.0426 0
6.33199 0.512691 -25.3766 0
-2.35954 -0.118206 -25.9788 0
-0.111658 -0.133177 -25.9668 0
4.37703 -0.495365 -25.4382 0
5.08513 -0.59163 -25.4775 0
1.02758 -0.69747 -26.0284 0
-5.11501 -1.53172 -25.8585 0
-5.98646 -1.53502 -25.8287 0
-4.69651 -2.21589 -25.1395 0
1.8071 -2.70606 -25.9511 0
4.08138 -2.83722 -25.7849 0
-0.912745 -3.40894 -25.8611 0
-2.6376 -4.07699 -24.9724 0
1.99062 -4.81514 -25.9341 0
4.10202 -5.52544 -25.8346 0
4.48232 -5.8389 -25.8537 0
3.35402 -8.07082 -26.0225 0
-1.38865 7.57573 -24.9028 0
-2.47106 7.09498 -25.1569 0
5.80774 4.10971 -25.2265 0
5.62609 4.03922 -25.2667 0
3.2461 3.61034 -25.2081 0
-3.30075 3.45815 -25.3424 0
-0.894759 2.29683 -25.8517 0
-8.65017 1.89485 -25.4151 0
1.68628 1.84337 -26.071 0
-3.99952 1.83799 -25.4094 0
-2.32481 1.56675 -25.7983 0
-2.10438 1.22887 -25.8702 0
1.80049 1.19763 -26.1056 0
6.91782 1.18288 -25.3442 0
1.70561 1.1375 -26.0902 0
-2.12154 1.13736 -25.9007 0
2.21904 1.11992 -25.3333 0
-8.34467 1.06597 -25.3615 0
-5.21845 1.0097 -25.4294 0
-4.32845 0.987414 -25.62 0
1.59558 0.878226 -25.9637 0
6.19248 0.655405 -25.3765 0
-8.50799 0.523456 -25.3504 0
6.49476 0.176935 -25.4079 0
-0.580016 0.057068 -25.9832 0
-2.50554 -0.349642 -25.9652 0
4.90054 -0.633534 -25.4664 0
1.08288 -0.848333 -26.0106 0
3.45053 -0.951721 -25.448 0
3.73975 -1.04065 -25.4917 0
-5.22994 -1.11299 -25.909 0
-1.02379 -1.37578 -25.6476 0
-5.85222 -1.40756 -25.8813 0
-4.02421 -1.41422 -25.5862 0
2.18048 -2.69698 -25.9064 0
3.98362 -2.72871 -25.7656 0
3.98362 -2.72871 -25.7656 0
2.11862 -2.79038 -25.9491 0
2.84956 -2.83325 -25.8562 0
-2.26788 -2.84918 -25.5746 0
8.28189 -2.9819 -25.5953 0
5.5348 -2.98765 -25.8172 0
-4.459 -3.07636 -25.0398 0
8.13625 -3.17805 -25.5951 0
5.50231 -3.20974 -25.9881 0
-5.18071 -3.28417 -25.8816 0
6.97668 -5.71895 -25.7678 0
8.28508 -6.34763 -25.8051 0
2.58947 -7.67813 -25.848 0
3.18564 -8.1239 -26.0488 0
-3.87308 8.63596 -25.313 0
-4.96946 8.53949 -25.3521 0
5.44157 8.47794 -25.0105 0
-4.15916 8.09032 -25.3217 0
-5.09284 4.04273 -25.1407 0
-0.496799 3.58825 -25.2835 0
6.32897 3.25847 -25.3571 0
3.95772 3.22403 -25.2409 0
1.77932 3.19778 -25.2185 0
-4.11496 2.22271 -25.3665 0
2.7477 1.28665 -25.3257 0
2.39066 1.24232 -25.3394 0
3.14664 0.975153 -25.3176 0
1.66877 0.742742 -25.9773 0
-8.657 0.60932 -25.3593 0
4.41561 -0.851568 -25.306 0
-1.27381 -0.991552 -25.0164 0
4.04488 -1.03243 -25.6763 0
-4.36619 -1.19297 -25.5882 0
-4.7965 -1.50787 -25.2087 0
-4.95343 -1.82107 -25.4482 0
-3.98236 -2.54194 -25.1451 0
3.10291 -2.80987 -25.8166 0
2.00862 -2.8461 -25.9536 0
2.4925 -2.91376 -25.9948 0
2.88013 -2.9519 -25.8473 0
-4.54267 -2.99647 -25.0398 0
7.92363 -3.16022 -25.5943 0
4.74035 -3.14793 -25.7613 0
7.40376 -3.31169 -25.6378 0
8.09133 -3.38948 -25.6653 0
-4.98455 -3.65827 -25.8167 0
1.82236 -4.47045 -25.9159 0
8.42824 -5.79252 -25.8702 0
3.8482 -7.71906 -26.0938 0
1.76934 -7.83627 -25.91 0
1.23743 -8.19487 -25.7851 0
1.03993 -8.22491 -25.7905 0
0.839295 -8.25655 -25.8232 0
0.672206 -8.28047 -25.8087 0
3.80339 -8.3517 -26.0852 0
3.80339 -8.3517 -26.0852 0
3.01869 -8.36399 -26.0407 0
-4.05541 8.49857 -25.3098 0
0.0754622 8.07967 -24.8948 0
-4.03558 8.05822 -25.3177 0
1.45109 7.84166 -24.9098 0
-5.22613 7.65447 -25.4379 0
5.37417 4.42859 -25.8004 0
1.20879 4.12054 -25.0568 0
-3.02813 3.66165 -25.2403 0
2.54869 1.89199 -25.2581 0
-2.29613 1.11532 -25.8788 0
6.15647 0.842445 -25.3727 0
6.76536 0.0157485 -25.3904 0
6.92737 -0.424235 -25.4817 0
-1.32937 -0.516166 -24.9546 0
6.80087 -0.557395 -25.4981 0
6.39279 -0.581244 -25.4772 0
1.1899 -0.865667 -26.0117 0
-1.3818 -0.883562 -24.9512 0
-7.45605 -1.9828 -25.9362 0
-7.45605 -1.9828 -25.9362 0
3.10309 -2.67578 -25.8012 0
6.97894 -2.8791 -25.7823 0
-2.16934 -3.75214 -24.9729 0
8.18836 -3.87395 -25.6735 0
7.46289 -3.931 -25.6666 0
7.79282 -3.98269 -25.7185 0
-5.11197 -4.52505 -25.8351 0
2.36636 -4.51203 -25.8968 0
8.44198 -5.05796 -25.9397 0
7.72611 -5.78435 -25.854 0
7.72579 -6.01363 -25.8357 0
2.56582 -6.93031 -25.5968 0
1.86186 -7.95652 -25.908 0
1.04528 -7.93759 -25.8169 0
1.55774 -7.99028 -25.6824 0
1.55774 -7.99028 -25.6824 0
1.17077 -8.06353 -25.8079 0
0.954546 -8.1052 -25.8094 0
0.730769 -8.12978 -25.8058 0
3.09486 -8.22369 -26.0526 0
-0.180852 -8.26347 -25.8307 0
-4.23903 8.48068 -25.3133 0
-1.98854 8.37508 -24.9335 0
5.22557 8.4072 -24.9767 0
7.55104 4.42471 -25.0941 0
2.52944 2.37969 -25.2846 0
-2.60051 1.48417 -25.7682 0
7.45426 1.31836 -25.3486 0
6.69793 -0.164761 -25.4006 0
6.19957 -0.346714 -25.4083 0
-4.09901 -1.24283 -25.46 0
-7.58245 -2.36765 -25.8994 0
4.20182 -2.75234 -25.7817 0
3.82325 -2.73471 -25.7785 0
4.3348 -3.05278 -25.762 0
-4.80298 -3.23256 -25.0373 0
5.70284 -3.43482 -25.8454 0
-5.26095 -3.478 -25.8775 0
2.47523 -3.96843 -25.8794 0
-2.92289 -4.09517 -24.9633 0
7.42013 -6.55083 -25.8909 0
1.01034 -7.24738 -25.8451 0
3.69257 -7.59804 -26.0298 0
2.01205 -7.8054 -25.9454 0
2.01205 -7.8054 -25.9454 0
-5.48102 6.71246 -25.1402 0
-2.07284 3.71423 -24.9859 0
-6.57407 2.80343 -25.2565 0
-2.24811 1.87007 -25.5507 0
4.01121 1.40357 -25.3518 0
-0.148851 -0.903946 -25.9741 0
-3.99992 -1.59815 -25.6875 0
-3.64381 -1.85233 -25.9748 0
5.73726 -2.84514 -25.5621 0
6.10095 -2.87323 -25.6001 0
7.4423 -3.07911 -25.5941 0
5.19136 -3.1192 -25.9891 0
0.937943 -3.16129 -25.9542 0
7.32678 -5.86803 -25.7283 0
1.54014 -7.11355 -25.7365 0
2.85359 -7.64736 -25.8779 0
2.23676 -7.89495 -25.8931 0
2.23676 -7.89495 -25.8931 0
2.26345 -8.371 -25.9093 0
2.26345 -8.371 -25.9093 0
-3.58338 2.89641 -25.2631 0
-4.2379 -2.8318 -25.0448 0
5.6787 -3.19174 -25.8012 0
6.00227 -3.41907 -25.6929 0
6.91765 -3.51058 -25.6801 0
1.74834 -4.0983 -25.9367 0
-0.402575 -4.21091 -25.8865 0
3.9502 -5.33545 -25.8184 0
2.98329 -5.52711 -25.9157 0
7.80676 -5.92161 -25.8395 0
-5.80429 2.46277 -25.1908 0
2.49765 -4.61667 -25.9395 0
2.85157 -5.12077 -25.9344 0
7.56632 -5.6511 -25.8585 0
3.755 -8.07686 -26.0484 0
-1.1536 3.0705 -25.0939 0
-0.718483 2.37254 -25.7744 0
-3.62708 2.30334 -25.3489 0
-5.22459 1.54369 -25.3709 0
-2.16003 1.38088 -25.8583 0
1.75917 -0.931373 -25.9004 0
1.02632 -2.06848 -25.9695 0
4.0965 -7.71994 -26.0467 0
4.13752 4.14509 -25.1412 0
-2.06963 3.89305 -25.0296 0
1.84424 3.43313 -25.1426 0
-4.91316 -1.93333 -25.3175 0
-4.77125 -2.81587 -25.0395 0
-5.46678 -4.70487 -25.8815 0
-4.6268 -5.10042 -25.81 0
