ply
format ascii 1.0
element vertex 313
property float x
property float y
property float z
property uchar intensity
end_header
-3.54819 4.9809 -25.4646 0
-3.53424 4.57423 -25.4598 0
1.90066 2.98492 -24.9197 0
0.143311 1.97015 -24.9574 0
-4.2366 -4.00401 -25.461 0
-4.3109 -4.1109 -25.5799 0
-4.85063 -4.13139 -25.5695 0
-2.68108 -8.49815 -25.7561 0
-4.05756 5.03866 -25.3695 0
-4.05756 5.03866 -25.3695 0
-1.80826 4.94712 -25.4274 0
-3.60096 4.88297 -25.4569 0
-3.61047 4.81997 -25.4509 0
-3.89134 4.81532 -25.3738 0
-3.51437 4.69626 -25.4883 0
-3.73503 4.51714 -25.3842 0
-3.95951 4.30168 -25.3481 0
5.36694 3.18605 -24.9673 0
-1.6719 3.06115 -24.9259 0
2.22926 2.81024 -24.9118 0
-8.16225 2.72942 -24.8484 0
2.53963 1.75744 -25.0425 0
0.0262722 1.36239 -25.002 0
-0.38091 1.35593 -24.9867 0
-0.464269 1.30223 -24.9859 0
-0.315584 1.26104 -24.9945 0
6.92282 0.767771 -25.0642 0
-4.62351 0.0373507 -25.2085 0
3.38004 -0.318912 -25.2383 0
-2.42138 -0.408788 -25.0643 0
-3.68965 -1.97641 -25.1593 0
-6.7487 -4.47485 -25.4401 0
-8.67027 -4.88492 -25.5202 0
1.35442 -5.28871 -25.3227 0
1.72624 -5.4377 -25.335 0
1.68995 -5.50775 -25.3359 0
-2.76483 -6.18099 -25.7715 0
3.67245 -6.87569 -25.4398 0
-5.31955 5.87161 -25.7196 0
-1.88278 5.00705 -25.4106 0
-3.63992 4.96254 -25.4474 0
-3.4692 4.93032 -25.4665 0
-3.15442 4.59841 -25.4411 0
4.11296 3.34497 -25.1072 0
0.193659 3.19265 -24.9643 0
-1.23353 3.19255 -24.9957 0
-0.838805 3.1606 -24.9571 0
-6.23647 3.19194 -25.3251 0
-0.151337 3.12862 -24.9378 0
3.61752 3.11585 -25.1709 0
-6.81945 2.85318 -25.351 0
5.57489 2.52443 -24.9103 0
0.82691 2.50438 -24.9392 0
0.00247648 1.55375 -24.9874 0
-3.11051 1.38198 -25.0729 0
-0.93565 -0.229982 -25.0751 0
-1.63754 -0.250474 -25.0997 0
-0.243864 -0.263281 -25.0701 0
3.93033 -0.352612 -25.1257 0
-8.4387 -0.38873 -25.195 0
3.59879 -0.457193 -25.199 0
-1.25549 -2.36665 -25.2521 0
-0.371383 -2.75805 -25.2069 0
0.241858 -2.92414 -25.1846 0
5.06997 -3.92469 -25.3442 0
-4.56151 -4.07413 -25.7507 0
-7.84395 -4.56165 -25.6663 0
-3.27132 -4.8742 -25.7783 0
-3.08834 -6.20096 -25.7936 0
-3.20008 -6.30138 -25.7821 0
-3.26794 -6.33476 -25.7816 0
-2.43952 -6.40596 -25.7727 0
-3.00187 -7.60307 -25.7666 0
-2.55057 -8.46374 -25.7717 0
-4.31777 6.99524 -25.738 0
-6.0216 5.98213 -25.7335 0
-6.0216 5.98213 -25.7335 0
-2.77453 5.10632 -25.4456 0
-1.9316 4.95174 -25.3982 0
-3.85023 4.91412 -25.3861 0
-3.45956 4.78622 -25.4951 0
-2.67149 4.59907 -25.4337 0
-6.99368 3.8723 -25.342 0
-7.21753 3.64578 -25.3268 0
-6.84067 3.46818 -25.3125 0
3.18409 3.28592 -25.0966 0
3.38924 3.2516 -25.1018 0
0.0949395 3.14491 -24.9359 0
-6.9608 3.1913 -25.3196 0
-0.259924 3.08516 -24.9181 0
-1.53882 3.03548 -24.9177 0
-1.12162 2.9932 -24.928 0
-1.37469 2.98527 -24.9306 0
-1.63076 2.97284 -24.9431 0
-0.962259 2.94567 -24.9378 0
2.24171 2.92136 -24.9288 0
-8.11838 2.61062 -24.8455 0
0.634757 1.79041 -24.9923 0
-0.656686 1.48639 -24.9731 0
6.92216 1.48331 -24.9913 0
0.187609 1.17597 -25.0433 0
-0.0881681 1.14835 -25.0194 0
4.37664 -0.298238 -25.0814 0
4.28413 -0.299275 -25.0824 0
-2.01259 -0.313702 -25.1169 0
-2.17864 -0.424249 -25.1008 0
5.3677 -0.498555 -25.0776 0
6.19398 -0.56267 -25.0732 0
1.78832 -0.616216 -25.3994 0
2.50006 -0.651618 -25.8054 0
-5.51129 -0.801871 -25.223 0
1.11372 -0.877333 -25.0948 0
-1.15893 -2.58885 -25.2136 0
3.6402 -2.80866 -25.2923 0
6.30519 -3.16268 -25.2602 0
4.39289 -3.16207 -25.2178 0
-3.6147 -3.81715 -25.3982 0
7.42032 -3.90431 -25.3206 0
-3.42473 -4.21922 -25.7797 0
-6.43336 -4.58069 -25.3173 0
1.70733 -5.33374 -25.3301 0
-3.55131 -6.5534 -25.7763 0
-3.52097 -6.74511 -25.7707 0
3.63584 -7.19641 -25.4531 0
-2.51342 -8.02439 -25.7743 0
-2.51342 -8.02439 -25.7743 0
-2.82438 -8.21651 -25.7557 0
-2.82438 -8.21651 -25.7557 0
-4.4001 6.82183 -25.7637 0
-1.66595 5.97951 -25.7647 0
-5.47885 5.41112 -25.3133 0
6.1631 5.19865 -25.5673 0
-6.0598 5.14488 -25.2893 0
-3.74394 5.0037 -25.4139 0
-1.84588 4.86235 -25.4073 0
-3.72227 4.84417 -25.4098 0
-2.26264 4.60623 -25.3672 0
-4.15352 4.08675 -25.3018 0
-7.65425 4.10698 -25.3509 0
-7.51002 4.00911 -25.3469 0
-0.641718 3.78622 -25.3664 0
-1.80871 3.03409 -24.9369 0
6.88307 2.96484 -24.9303 0
-6.04383 1.99686 -25.1876 0
3.78516 -0.170356 -25.1192 0
1.93311 -0.290757 -25.5077 0
5.09907 -0.31895 -25.0697 0
-1.14009 -0.355284 -25.1285 0
-1.47552 -0.353968 -25.1383 0
4.18894 -0.453472 -25.0999 0
1.56428 -0.898468 -25.1316 0
-2.46051 -1.01238 -25.2811 0
5.90152 -1.24486 -25.2164 0
3.6016 -2.06546 -25.2996 0
3.47642 -2.65097 -25.3049 0
6.69804 -2.70832 -25.2725 0
3.2143 -3.1754 -25.2887 0
4.07736 -3.55621 -25.2672 0
2.67871 -3.57534 -25.2811 0
-3.99595 -3.79521 -25.3494 0
-4.79453 -4.00945 -25.7371 0
4.81658 -4.01568 -25.3535 0
-5.44968 -4.11511 -25.0092 0
-3.49735 -4.30068 -25.7712 0
6.07968 -4.33792 -25.2937 0
-5.22613 -4.33528 -25.2267 0
-2.78633 -4.3611 -25.6005 0
-5.42776 -4.37903 -25.2721 0
-5.6265 -4.41606 -25.4074 0
-5.79673 -4.45592 -25.4446 0
-6.05803 -4.50926 -25.4227 0
-6.15819 -4.52558 -25.4097 0
-3.59001 -4.52966 -25.748 0
6.87801 -4.78752 -25.367 0
1.60594 -5.11249 -25.3303 0
-0.953563 -5.23135 -25.5421 0
-2.92323 -5.32129 -25.814 0
-1.73566 -5.48241 -25.777 0
-2.92238 -5.93204 -25.7655 0
-2.79557 -6.84557 -25.7689 0
4.08843 -7.22384 -25.4567 0
-2.70889 -7.44129 -25.7644 0
-2.83837 -7.47395 -25.7498 0
-0.47761 7.28891 -25.8887 0
-0.47761 7.28891 -25.8887 0
-8.49077 6.14228 -25.7504 0
2.90388 5.57294 -25.4656 0
2.88234 4.88157 -25.5022 0
-2.96861 4.82363 -25.4552 0
-3.60245 4.33235 -25.3506 0
-3.32659 4.04864 -25.3351 0
-5.42612 3.35467 -25.1135 0
4.28699 2.13857 -24.9162 0
3.14739 1.51369 -25.0821 0
-3.00337 1.3906 -25.0751 0
-1.07312 -0.244175 -25.0896 0
6.57488 -0.344981 -25.0519 0
3.39528 -0.436301 -25.2461 0
0.500298 -0.430038 -25.0694 0
-2.34096 -0.469255 -25.0742 0
5.55876 -0.749045 -25.0691 0
-3.30259 -0.755882 -25.2176 0
5.99069 -0.772986 -25.0697 0
2.50918 -1.08104 -25.1772 0
5.82282 -1.10138 -25.2057 0
6.0844 -1.56728 -25.2225 0
-2.22286 -2.42926 -25.3318 0
3.25135 -2.67264 -25.3301 0
2.77747 -2.69937 -25.318 0
2.78991 -2.91017 -25.2801 0
6.64892 -2.99447 -25.2394 0
7.29654 -3.03916 -25.228 0
3.81635 -3.35373 -25.2628 0
2.55057 -3.3931 -25.2424 0
-4.56146 -3.98401 -25.7504 0
-4.56146 -3.98401 -25.7504 0
-4.9387 -4.15621 -25.4068 0
-4.9387 -4.15621 -25.4068 0
-4.51494 -4.19518 -25.7286 0
-5.31721 -4.21695 -25.0187 0
-5.73442 -4.30815 -25.3313 0
-3.57758 -4.40484 -25.7574 0
-4.20734 -4.42836 -25.7217 0
-4.20734 -4.42836 -25.7217 0
-6.44926 -4.4523 -25.3056 0
-6.63702 -4.47686 -25.3786 0
-7.20412 -4.61557 -25.679 0
1.79866 -5.08712 -25.3314 0
-2.96896 -5.17591 -25.8235 0
2.27156 -5.32731 -25.3244 0
-3.31044 -5.4045 -25.7931 0
-0.886765 -5.43078 -25.5448 0
-3.34125 -5.55826 -25.8194 0
2.51006 -5.56635 -25.3457 0
-3.27183 -5.99355 -25.7856 0
-2.75638 -6.69536 -25.7725 0
4.59816 -7.0118 -25.4784 0
4.49555 -7.14458 -25.4419 0
5.76513 -7.7612 -25.5016 0
-2.72009 -7.85331 -25.7571 0
5.58258 -7.98846 -25.4964 0
-2.68873 -8.03642 -25.756 0
-7.75424 3.90265 -25.3338 0
6.77453 3.72698 -25.0882 0
6.77453 3.72698 -25.0882 0
3.87266 3.23481 -25.1291 0
5.47769 1.91289 -24.9354 0
6.95454 1.62155 -24.9221 0
6.20727 1.27237 -24.9638 0
7.01077 1.214 -25.0335 0
-3.24082 0.932933 -25.0721 0
-8.57861 0.612925 -25.2402 0
-0.00205054 -0.0771859 -24.9813 0
-0.0487612 -0.274961 -25.0684 0
1.73628 -0.298844 -25.1457 0
0.68058 -0.510357 -25.0713 0
-0.0881033 -0.490975 -25.0391 0
2.84096 -0.804005 -25.3977 0
-2.50323 -0.806068 -25.2019 0
-5.42536 -1.0128 -25.1944 0
-2.39996 -1.4079 -25.2767 0
2.81642 -1.71184 -25.2222 0
-2.25839 -2.25244 -25.2988 0
4.31208 -2.33423 -25.2489 0
3.34356 -2.51879 -25.3338 0
4.30537 -2.70319 -25.2504 0
7.09757 -3.32174 -25.2645 0
-3.75441 -3.26456 -25.5061 0
-4.15276 -3.52008 -25.4062 0
7.02728 -4.18294 -25.3549 0
1.55764 -5.27528 -25.3265 0
5.12432 -7.508 -25.5111 0
-3.7244 5.5927 -25.4249 0
7.39994 4.78286 -25.6448 0
7.2526 1.61052 -24.9113 0
1.36605 -0.281063 -25.1359 0
1.15234 -0.540643 -25.1278 0
1.44356 -0.698184 -25.1212 0
4.14561 -2.00099 -25.2204 0
4.56149 -3.11987 -25.2272 0
-4.31895 -4.02654 -25.5147 0
-7.04733 -4.51541 -25.6344 0
-3.34931 -4.84177 -25.7659 0
1.51644 -5.42266 -25.3309 0
2.02294 -5.72649 -25.3476 0
-3.23393 -5.75938 -25.788 0
6.84996 -7.00466 -25.4195 0
5.04161 -7.09063 -25.9426 0
-6.24725 5.69772 -25.545 0
7.39119 1.87723 -24.9404 0
6.38272 1.11799 -25.0246 0
7.26857 -1.27001 -25.2186 0
2.63154 -2.58665 -25.3272 0
-0.575108 -2.56426 -25.2046 0
2.86695 -2.83171 -25.2984 0
-0.833543 -4.42932 -25.2357 0
2.25362 -5.51943 -25.3495 0
-2.96294 -6.45902 -25.7883 0
-2.25372 -7.88646 -25.7949 0
5.682 4.10474 -25.4803 0
-1.9863 -2.29698 -25.3557 0
-1.79707 -2.71081 -25.3343 0
2.31515 -2.93823 -25.2166 0
-2.63602 -3.66611 -25.3007 0
-2.84973 -4.10461 -25.5055 0
-3.2018 -4.85004 -25.7939 0
3.86381 -7.07284 -25.4586 0
-3.65621 6.07281 -25.7266 0
6.45091 -1.12348 -25.2252 0
-3.13972 -5.25914 -25.8155 0
-2.89813 -6.87855 -25.7734 0
5.77745 2.69323 -24.9062 0
6.75614 -7.47981 -25.6916 0
