ply
format ascii 1.0
element vertex 325
property float x
property float y
property float z
property uchar intensity
end_header
3.0292 8.23485 -25.0093 0
-2.58399 7.01182 -25.864 0
-2.60697 6.68828 -25.8942 0
6.8817 6.06882 -26.0742 0
-4.18981 5.84585 -25.7059 0
1.83697 4.88147 -25.5438 0
0.894425 4.19503 -25.4633 0
-8.71152 3.50223 -25.242 0
-2.79822 0.106397 -25.3359 0
5.84998 -3.14235 -25.2937 0
-2.11349 7.75107 -25.4882 0
-3.68238 7.24841 -25.7199 0
-0.793112 7.16599 -25.8438 0
-0.907957 7.15455 -25.8616 0
-5.05921 7.10992 -25.7363 0
-2.63295 6.8444 -25.9088 0
-2.95843 6.84428 -25.9384 0
-3.21326 6.76001 -25.8664 0
-2.18005 6.71802 -25.8796 0
-2.52786 6.71229 -25.8969 0
-8.29474 6.40529 -25.8522 0
6.91631 6.18099 -26.0775 0
2.25901 4.97555 -25.6271 0
1.76298 4.89518 -25.5401 0
1.43062 4.65077 -25.5263 0
-7.04017 4.41609 -25.3512 0
5.96864 4.39415 -26.3309 0
1.39272 4.24228 -25.4875 0
1.21474 4.20917 -25.4727 0
0.927564 4.01047 -25.4403 0
8.20118 4.06264 -25.4665 0
-1.8191 3.97727 -25.39 0
0.909549 3.95096 -25.4216 0
0.818577 3.90991 -25.4182 0
-1.10019 3.85453 -25.3584 0
1.00029 3.84096 -25.3589 0
-8.63261 3.25869 -25.255 0
0.0388522 2.40158 -24.923 0
-2.85051 0.0121667 -25.3532 0
-4.56427 -0.317215 -25.2045 0
-7.58767 -1.01539 -25.2307 0
-1.09082 -3.24791 -25.2391 0
-0.708211 -4.60622 -25.3432 0
-0.484724 -5.21383 -25.6129 0
-1.42652 -5.64151 -25.9045 0
4.26703 7.76449 -25.9112 0
2.74158 7.52099 -25.8054 0
-1.23449 7.48268 -25.7905 0
-3.16092 7.21221 -25.8487 0
-2.87678 7.19565 -25.8462 0
-2.62561 6.92472 -25.8988 0
-8.80267 6.96602 -25.9544 0
-1.64073 6.79405 -25.9327 0
-3.07596 6.68091 -25.8873 0
-3.30161 6.61844 -25.8333 0
-2.96261 6.29634 -25.8149 0
1.96269 5.44171 -25.582 0
1.96269 5.44171 -25.582 0
-1.91948 4.11125 -25.43 0
-1.63791 3.35282 -24.9919 0
4.98194 2.82103 -25.2519 0
3.95983 2.57661 -24.9601 0
-7.13672 2.11864 -24.8817 0
6.04241 0.252094 -25.0853 0
6.11197 0.193742 -25.0808 0
2.28627 0.0914058 -25.1304 0
-1.73003 0.0826383 -25.151 0
1.52324 0.0663824 -25.1605 0
1.93253 -0.153279 -25.1216 0
1.99677 -0.164716 -25.1221 0
-4.56224 -0.252455 -25.1994 0
-6.87689 -0.889705 -25.258 0
-6.87689 -0.889705 -25.258 0
-1.18735 -2.01684 -25.2947 0
-1.08063 -2.24501 -25.3238 0
4.68202 -2.27211 -25.2444 0
-0.851877 -3.19521 -25.2648 0
-0.392025 -4.10922 -25.3154 0
7.9162 -4.4848 -25.3492 0
-0.10728 -5.03028 -25.3527 0
-2.63946 -8.35054 -25.755 0
2.95476 8.70028 -24.92 0
-8.72924 8.14202 -25.4657 0
3.29633 7.60652 -25.9122 0
-3.2303 7.08932 -25.838 0
-1.04813 6.98751 -25.9498 0
-2.51985 6.96089 -25.8785 0
-4.92778 6.98164 -25.7407 0
-2.49078 6.81811 -25.9143 0
-6.45002 6.81356 -25.8097 0
-8.43245 6.79713 -25.751 0
-6.08504 6.59865 -25.8631 0
-2.62382 6.37895 -25.8682 0
4.4966 5.92781 -25.9351 0
1.44715 4.77177 -25.5314 0
-5.3416 4.63264 -25.3237 0
-5.43884 4.18273 -25.3056 0
0.721751 4.04861 -25.4494 0
-8.73652 4.12078 -25.3061 0
1.57309 3.82301 -25.3458 0
1.22509 3.75027 -25.3308 0
5.91625 2.97059 -25.232 0
3.44576 2.75188 -24.9746 0
5.98099 2.67369 -24.9623 0
-2.04728 2.16699 -25.0057 0
-8.37229 1.38514 -25.2398 0
0.680769 0.674375 -25.1422 0
-1.20899 -0.185958 -25.159 0
4.51163 -0.230064 -25.2098 0
-8.75136 -0.613973 -25.1867 0
-6.56993 -0.825338 -25.2227 0
-6.56993 -0.825338 -25.2227 0
-7.17632 -0.954112 -25.171 0
-8.09726 -1.05973 -25.3236 0
3.68248 -1.98561 -25.2412 0
5.61565 -2.99374 -25.2787 0
8.30617 -3.8509 -25.3173 0
7.92226 -5.26538 -25.407 0
-1.93354 -8.24398 -25.7721 0
-2.67354 -8.28298 -25.7545 0
2.89164 8.42241 -25.0121 0
3.41294 8.26213 -24.9195 0
-6.78587 7.2408 -25.7704 0
1.37576 7.15801 -25.948 0
-5.50472 7.07657 -25.7624 0
-2.7957 7.03806 -25.8699 0
-6.59395 7.03208 -25.7643 0
-2.93942 6.93123 -25.9144 0
-6.48556 6.9424 -25.7631 0
-2.76927 6.87304 -25.9074 0
3.48644 6.14221 -25.9132 0
-0.466899 5.705 -25.833 0
3.82828 5.36129 -25.4844 0
1.29726 4.24843 -25.4778 0
1.40679 4.14059 -25.4888 0
-4.76734 4.09 -25.331 0
1.25561 3.8625 -25.32 0
-5.21336 3.69001 -25.2952 0
6.82875 3.03539 -25.3712 0
-3.58016 2.96207 -25.1091 0
-3.46343 2.88039 -25.1466 0
1.43577 2.73441 -24.9593 0
0.476349 2.61477 -24.894 0
1.39498 2.59348 -24.9032 0
1.39498 2.59348 -24.9032 0
4.08091 2.58423 -25.0284 0
3.35268 2.51128 -24.9229 0
1.36235 2.45327 -24.916 0
0.964059 2.44392 -24.9211 0
0.342781 2.4186 -24.9212 0
7.68573 2.43729 -24.9492 0
6.56401 2.39528 -24.9142 0
-0.281268 2.32772 -24.9315 0
5.3794 1.25274 -24.9722 0
-5.60265 1.15372 -25.2327 0
5.49527 1.04326 -24.9766 0
-8.11685 1.01234 -25.2183 0
-2.84145 0.812137 -25.0886 0
5.23533 0.75853 -25.0177 0
1.69923 0.379216 -25.1549 0
5.4243 0.289605 -25.0758 0
6.08903 0.0914788 -25.0873 0
5.96292 -0.0867817 -25.1305 0
-1.52902 -0.0936584 -25.1887 0
-1.91784 -0.184515 -25.1139 0
-1.21178 -0.184821 -25.159 0
6.60426 -0.277745 -25.1199 0
-1.98254 -0.284638 -25.1366 0
6.82571 -0.471774 -25.0636 0
-5.7234 -0.765488 -25.2253 0
-1.5793 -1.21066 -25.259 0
3.51875 -1.67045 -25.2095 0
-1.48746 -1.93594 -25.2977 0
3.69793 -2.16101 -25.2723 0
-1.02276 -2.83769 -25.3641 0
-1.18508 -2.88222 -25.3473 0
-1.18508 -2.88222 -25.3473 0
5.84158 -3.45902 -25.2558 0
-0.872474 -3.46465 -25.2943 0
-0.993074 -3.49981 -25.3099 0
-1.32769 -3.5348 -25.245 0
8.29373 -3.64935 -25.3309 0
7.37035 -5.31471 -25.4031 0
7.95633 -5.37459 -25.4348 0
7.84691 -5.52395 -25.4472 0
7.73524 -5.66489 -25.5206 0
7.51004 8.19525 -25.2039 0
-3.60957 7.70584 -25.3256 0
4.20005 7.58849 -25.9887 0
3.88426 7.54841 -26.0397 0
3.88426 7.54841 -26.0397 0
-2.57994 7.12191 -25.8349 0
-6.29371 6.93723 -25.7652 0
0.428321 6.22481 -25.8453 0
-2.28157 6.21817 -25.8428 0
-3.16588 6.19486 -25.8139 0
1.05111 5.66302 -25.8278 0
3.54004 5.18527 -25.5306 0
7.11065 5.11053 -25.586 0
3.68343 5.05802 -25.5236 0
-7.26945 4.48815 -25.3596 0
1.25373 4.37995 -25.4784 0
-1.80558 4.0792 -25.4274 0
-3.5923 3.3294 -25.2071 0
-3.74152 3.19793 -25.161 0
3.29008 2.73449 -24.9653 0
3.64991 2.56988 -24.9193 0
3.21859 2.5523 -24.92 0
2.16839 2.51801 -24.9153 0
1.7651 2.49232 -24.9122 0
-8.02508 2.50907 -24.8758 0
7.76779 2.30616 -24.9411 0
4.14883 2.16395 -24.9617 0
3.67647 2.14513 -24.9299 0
-7.9066 1.77162 -24.8835 0
-7.73329 1.72827 -24.8738 0
-4.98845 1.30327 -25.1957 0
4.36873 0.923345 -25.1813 0
4.56384 0.622783 -25.1421 0
-1.27219 0.450062 -25.1269 0
-4.09543 -0.0528429 -25.0614 0
-3.06948 -0.0952143 -25.3619 0
-4.15575 -0.236567 -25.0955 0
-1.3524 -1.03338 -25.0937 0
-1.29691 -1.25582 -25.1429 0
-1.6232 -1.34134 -25.3099 0
4.2424 -1.83316 -25.2305 0
4.49879 -2.02845 -25.2435 0
4.46747 -2.20929 -25.294 0
3.57756 -2.27155 -25.2597 0
7.52007 -3.48513 -25.2679 0
0.593678 -3.94901 -25.272 0
4.03719 7.69155 -25.9711 0
2.1965 7.12218 -25.9788 0
8.30914 6.59981 -26.1875 0
8.30914 6.59981 -26.1875 0
4.65774 4.851 -25.5722 0
4.69232 4.43465 -25.5435 0
-7.72993 3.5444 -25.3751 0
4.49365 2.45135 -25.0957 0
8.00673 1.94063 -24.9945 0
6.14296 1.15434 -24.9444 0
-2.24136 1.01331 -25.0727 0
6.15617 0.778413 -25.0002 0
4.95926 0.685839 -25.0648 0
4.58873 0.369639 -25.1542 0
-3.12505 0.172343 -25.3473 0
-3.12505 0.172343 -25.3473 0
-3.91891 -0.166169 -25.0605 0
6.34572 -0.300245 -25.1147 0
-1.47093 -0.570027 -25.092 0
-1.41275 -0.758981 -25.1139 0
3.4729 -1.83006 -25.1988 0
-1.00528 -2.68106 -25.3651 0
-1.00528 -2.68106 -25.3651 0
-0.94463 -2.97283 -25.3398 0
6.88374 -3.09251 -25.3223 0
6.82266 -3.27474 -25.373 0
7.73007 -4.4207 -25.3413 0
-0.560709 -4.39055 -25.3284 0
7.17725 -5.63409 -25.4552 0
6.74091 -5.67745 -25.3681 0
5.99664 -8.11074 -25.5857 0
0.283235 8.6835 -25.2235 0
4.04475 7.95857 -26.0741 0
-7.05011 7.09047 -25.7606 0
-6.79164 6.92578 -25.7663 0
-2.96667 4.81328 -25.4407 0
7.89278 4.51833 -25.4696 0
-7.44354 3.19321 -25.1303 0
5.63457 3.02423 -25.1876 0
4.54893 1.51447 -25.1912 0
5.95828 1.34702 -24.9395 0
6.51363 0.358663 -25.0755 0
-2.87707 0.107274 -25.3568 0
1.62165 -0.244189 -25.1885 0
-2.76086 -0.372176 -25.1872 0
-2.76086 -0.372176 -25.1872 0
-5.7224 -0.487953 -25.1675 0
0.24549 -1.50752 -25.2098 0
1.15802 -1.59714 -25.1974 0
7.06675 -3.51349 -25.2952 0
-1.71066 -4.84527 -25.4904 0
-1.72173 -5.86897 -25.8461 0
-3.43639 4.45893 -25.3644 0
-7.11073 3.00185 -25.0754 0
4.93653 2.74753 -25.3325 0
-7.54612 1.92151 -24.8561 0
-3.6512 1.05909 -25.4248 0
4.3905 0.732483 -25.2473 0
-7.43813 0.560974 -25.5196 0
-1.85058 0.451611 -25.1288 0
0.990454 0.420813 -25.1555 0
4.19664 -2.0158 -25.2133 0
3.42091 -2.01602 -25.1908 0
3.98012 -2.26915 -25.3088 0
-1.20478 -2.45113 -25.3475 0
7.44018 -3.07771 -25.3758 0
7.53326 -4.24884 -25.3106 0
7.79371 -5.05071 -25.3689 0
-0.617757 -5.01801 -25.3439 0
7.1214 6.98782 -26.2551 0
7.26491 5.76689 -25.9218 0
-8.00332 3.1635 -25.04 0
5.46086 2.7894 -25.1164 0
-1.29158 0.0771895 -25.1441 0
0.841473 -1.23174 -25.1763 0
3.95625 -1.99263 -25.2389 0
-0.363501 -3.93949 -25.3177 0
6.15005 -4.59601 -25.2884 0
-8.5405 -6.46933 -26.0158 0
-1.72366 7.69718 -25.6716 0
-0.91893 5.43692 -25.7705 0
-7.61563 4.79565 -25.2867 0
0.552426 3.89576 -25.3737 0
-7.54984 1.53735 -24.8369 0
-1.16159 0.65768 -25.1319 0
-2.77857 0.440924 -25.2276 0
-1.59951 -0.725746 -25.0952 0
-1.49713 -1.19562 -25.2222 0
-1.12102 -2.88455 -25.3543 0
-0.95775 -3.64667 -25.332 0
7.68809 -4.13913 -25.2924 0
-1.02597 -5.08153 -25.3764 0
-8.19523 1.87681 -24.9238 0
