ply
format ascii 1.0
element vertex 330
property float x
property float y
property float z
property uchar intensity
end_header
5.48489 8.26197 -24.9839 0
-1.69008 6.53638 -24.9371 0
7.63092 6.06441 -24.9298 0
7.12153 5.98069 -25.1093 0
5.87155 5.87278 -25.0889 0
8.46872 5.88661 -25.1099 0
8.46872 5.88661 -25.1099 0
-5.04868 5.42893 -24.9145 0
-6.00011 5.40035 -24.8671 0
-2.15462 5.06888 -24.985 0
5.69017 5.03177 -25.1655 0
4.15203 4.58483 -25.1489 0
3.41459 3.81715 -25.0942 0
3.82673 3.77712 -25.1087 0
7.51034 2.83112 -25.319 0
-4.82499 1.6352 -25.2758 0
1.69797 0.126497 -26.0773 0
1.03744 -0.0829178 -26.0748 0
-0.637868 -0.51941 -26.081 0
-1.02911 -0.711296 -26.0789 0
-1.02911 -0.711296 -26.0789 0
-2.85562 -1.21148 -26.0613 0
-2.87087 -1.27698 -26.0539 0
-3.04272 -1.32603 -26.0775 0
-3.29242 -1.40443 -26.0491 0
-4.16894 -1.67959 -26.0313 0
7.75937 -1.74336 -25.4725 0
7.19011 -1.89973 -25.4985 0
4.08898 -4.85432 -25.9731 0
3.94008 -5.21365 -25.9673 0
-7.40103 -6.42951 -26.0069 0
-4.48939 -7.85925 -25.9406 0
7.28671 7.93451 -25.1514 0
1.05443 6.71185 -24.8881 0
1.02574 6.64269 -24.8852 0
-6.40004 6.64968 -24.931 0
-6.27279 6.41549 -24.9465 0
-0.662889 6.27037 -24.9328 0
-0.51344 6.19057 -24.8965 0
-0.190852 6.12203 -24.9104 0
-6.52184 5.89351 -24.8976 0
6.60821 5.31198 -25.1495 0
6.71833 5.01976 -25.1611 0
5.82925 5.00044 -25.1618 0
4.63905 4.74389 -25.1266 0
-4.82683 4.64854 -24.9404 0
-4.65325 4.09414 -24.92 0
3.85727 3.94679 -25.1013 0
3.20686 3.83153 -25.0689 0
3.31706 3.67305 -25.0587 0
-4.39587 3.46459 -24.9263 0
0.94333 3.36244 -25.0692 0
-5.8435 2.75734 -25.2484 0
-5.66562 2.60795 -25.2176 0
-5.52292 2.38286 -25.3277 0
2.84277 0.161173 -26.0639 0
1.6338 0.0122045 -26.0913 0
5.37908 -0.226632 -25.3695 0
-0.121907 -0.359177 -26.0951 0
-2.48936 -1.16354 -26.0597 0
-3.86718 -1.3568 -26.0517 0
7.65382 -1.97425 -25.5335 0
7.3817 -2.05485 -25.4931 0
7.62447 -2.07136 -25.5006 0
3.54296 -2.0795 -26.0201 0
-7.2157 -2.4948 -25.977 0
3.93339 -3.3432 -25.9892 0
3.93339 -3.3432 -25.9892 0
3.63358 -3.41302 -25.9477 0
-7.97781 -4.41983 -25.996 0
4.2087 -4.75882 -25.9633 0
4.21268 -5.06456 -25.9857 0
3.73303 -5.64058 -25.951 0
-7.55019 -5.72929 -26.0304 0
-5.76684 -6.73918 -25.9999 0
-5.36804 -7.86705 -26.0936 0
-5.73369 -7.98666 -26.0792 0
-4.88617 -7.98227 -26.005 0
-4.88617 -7.98227 -26.005 0
-8.39143 -8.2095 -26.1337 0
-8.30309 -8.235 -26.1256 0
4.73331 8.24491 -24.9124 0
-5.81541 7.51805 -25.3203 0
-3.98998 6.49777 -25.3864 0
0.606446 6.39796 -24.893 0
-0.554291 6.32519 -24.8967 0
6.57505 5.56468 -25.1627 0
-5.02917 5.32788 -24.9058 0
2.42286 3.87126 -25.1469 0
0.756254 3.80958 -25.2069 0
3.57159 3.80207 -25.0936 0
3.74425 3.58093 -25.1163 0
-5.01002 2.77207 -25.2449 0
3.19919 2.38426 -25.2249 0
-5.19679 1.95531 -25.3018 0
-5.2338 1.76785 -25.3038 0
-4.19686 1.57902 -25.2971 0
-5.32872 0.482709 -25.255 0
1.63827 0.209555 -26.0664 0
5.83316 0.0552418 -25.3487 0
-3.02872 -0.54366 -25.7668 0
-2.23017 -1.08627 -26.0785 0
-2.23017 -1.08627 -26.0785 0
7.22108 -1.67132 -25.4918 0
3.32136 -2.23257 -26.0432 0
3.63747 -2.31892 -25.9952 0
3.2144 -2.40755 -26.0077 0
4.03837 -2.43587 -25.9771 0
-6.07744 -2.98981 -26.0021 0
-8.02126 -3.11411 -25.9783 0
3.59471 -3.87376 -25.993 0
4.31796 -4.47308 -26.0077 0
-8.82723 -4.78467 -25.9561 0
-6.21774 -5.27894 -25.9914 0
-6.21774 -5.27894 -25.9914 0
4.7897 -5.28893 -25.994 0
-8.57235 -5.44768 -26.0071 0
-5.69687 -6.81345 -26.004 0
-5.80288 -6.84553 -25.9908 0
-4.63285 -7.62209 -26.0088 0
-7.26084 -7.81883 -26.0148 0
-4.22258 -7.96764 -25.9884 0
-4.22258 -7.96764 -25.9884 0
-4.80919 -8.1973 -26.0006 0
4.39682 8.62813 -24.9214 0
3.82531 8.59983 -24.9192 0
-5.25802 8.68319 -25.4709 0
3.59687 8.57694 -24.9124 0
4.7834 8.54408 -24.914 0
4.7834 8.54408 -24.914 0
-5.66925 7.54319 -25.3424 0
-5.94811 7.47473 -25.3182 0
-8.21324 7.07001 -25.2939 0
-3.77706 6.80388 -25.4505 0
-3.19842 6.68311 -25.3852 0
-3.57005 6.6088 -25.4154 0
-3.44674 6.38146 -25.4088 0
5.89388 6.1287 -25.0888 0
-6.20217 5.75037 -24.863 0
-0.209057 5.65285 -24.9847 0
6.61937 5.18888 -25.1561 0
-4.77402 4.39773 -24.9314 0
3.76771 4.07172 -25.0826 0
3.96355 3.74936 -25.1171 0
4.06322 3.66093 -25.1354 0
-0.518875 3.14851 -25.0013 0
7.5492 2.94413 -25.345 0
7.27145 2.74274 -25.2877 0
-1.42129 2.63793 -25.0337 0
6.32004 2.62277 -25.2406 0
4.2923 2.51896 -25.2118 0
8.023 2.5138 -25.3842 0
3.27384 2.47581 -25.243 0
3.90082 2.46583 -25.2366 0
4.34069 2.39397 -25.2474 0
4.34069 2.39397 -25.2474 0
3.91735 2.34456 -25.2715 0
3.27788 2.27901 -25.2396 0
1.6147 0.871259 -26.1261 0
-2.16144 0.795214 -25.4163 0
3.0546 0.733782 -26.0958 0
2.91823 0.37269 -26.0565 0
1.07192 0.0867524 -26.0798 0
7.91946 -0.00881775 -25.3704 0
4.69553 -0.0231271 -25.4247 0
3.38933 -0.110052 -26.0458 0
3.38933 -0.110052 -26.0458 0
2.60932 -0.14736 -26.0395 0
2.57555 -0.25449 -26.0554 0
7.2102 -0.529439 -25.4016 0
3.25244 -1.17324 -26.0428 0
3.02602 -1.2397 -26.0493 0
7.43533 -1.67405 -25.4971 0
7.62816 -1.88143 -25.5292 0
3.42866 -1.93253 -26.0074 0
3.12087 -2.02401 -26.0377 0
2.8876 -2.91409 -25.996 0
3.72335 -2.95592 -26.0419 0
-8.59724 -3.45329 -25.9992 0
-7.09724 -3.50387 -25.978 0
4.37622 -3.81363 -25.9567 0
3.69975 -4.32366 -25.9884 0
-8.75944 -4.95785 -25.9755 0
-6.90381 -5.54462 -26.0296 0
-5.98014 -5.98719 -25.9955 0
-6.30438 -6.36723 -25.9731 0
-5.85943 -7.90761 -26.0879 0
3.49644 8.41748 -24.9123 0
-8.27919 6.94278 -25.2995 0
-0.626563 6.48203 -24.9059 0
6.22103 5.12781 -25.1598 0
3.69371 4.23098 -25.108 0
0.867889 3.78751 -25.1821 0
4.23154 3.59692 -25.1836 0
-0.652474 3.04834 -25.0162 0
-0.282489 2.95176 -25.022 0
-4.72366 2.97295 -25.2236 0
6.79923 2.69141 -25.2855 0
-6.45952 2.57783 -25.2967 0
5.20017 2.52002 -25.3087 0
4.76485 2.46598 -25.2815 0
8.19209 2.39725 -25.4027 0
7.90384 2.37217 -25.3924 0
7.57657 2.32857 -25.3701 0
-4.8833 1.17247 -25.3143 0
-4.72597 1.13403 -25.2919 0
7.86462 1.074 -25.3819 0
-1.84351 0.893337 -25.3816 0
8.12338 0.484114 -25.3765 0
-5.10227 0.340521 -25.2817 0
1.44074 -0.10565 -26.0773 0
1.44074 -0.10565 -26.0773 0
0.910714 -0.121516 -26.0618 0
0.910714 -0.121516 -26.0618 0
0.311428 -0.142402 -26.0607 0
-5.74386 -0.267703 -25.3439 0
0.628802 -0.370549 -26.0602 0
0.421117 -0.436117 -26.0629 0
0.218862 -0.496156 -26.0678 0
0.0339057 -0.551482 -26.0569 0
-0.915843 -0.663735 -26.0748 0
2.61496 -0.714695 -26.0296 0
3.27915 -1.03525 -26.0336 0
3.34221 -1.27213 -26.0306 0
2.96315 -1.36632 -26.0067 0
3.11947 -2.02549 -26.0377 0
4.33215 -2.10791 -26.0558 0
3.53528 -3.01735 -26.0327 0
3.53528 -3.01735 -26.0327 0
-6.02514 -3.57872 -25.9849 0
3.92478 -3.6253 -26.0163 0
3.76076 -3.68175 -26.013 0
-7.75245 -4.06192 -25.9561 0
5.07908 -4.24702 -26.0502 0
-8.44022 -5.27801 -26.0134 0
-6.80427 -5.89491 -26.0125 0
-5.9218 -6.67269 -25.9859 0
-6.19902 -7.11274 -26.0148 0
-7.13054 -7.41992 -26.0376 0
-4.65109 -7.77707 -26.0069 0
-5.32034 -8.24885 -25.9645 0
-7.734 -8.37756 -26.1846 0
4.94278 8.58099 -24.9176 0
3.71648 8.49934 -24.9125 0
-2.61459 8.20484 -25.411 0
6.01008 7.29364 -24.9478 0
0.576809 6.76687 -24.8955 0
-4.04493 6.62914 -25.428 0
3.41865 5.43843 -25.0713 0
6.40777 5.28752 -25.1538 0
6.04532 5.23441 -25.1322 0
5.69926 2.5736 -25.2729 0
5.77891 2.4152 -25.3136 0
1.68335 0.75922 -26.0857 0
-4.80654 0.400871 -25.2558 0
1.33799 0.151623 -26.0757 0
0.497701 -0.246651 -26.0716 0
1.77221 -0.338203 -26.037 0
1.77221 -0.338203 -26.037 0
3.12459 -0.544807 -26.0519 0
3.19545 -0.739216 -26.0606 0
-1.50238 -0.863251 -26.0584 0
7.42466 -1.82775 -25.5116 0
-5.42442 -2.68297 -25.982 0
3.72085 -2.78988 -26.0329 0
3.72085 -2.78988 -26.0329 0
3.80879 -3.10016 -26.0203 0
3.91354 -4.12488 -25.9945 0
4.01157 -4.3338 -25.9894 0
-7.57656 -6.88695 -25.9776 0
-7.08352 -6.94198 -26.0009 0
-6.66106 -7.00451 -26.0139 0
-7.46784 -7.09035 -26.0819 0
-8.03462 -7.26759 -26.0332 0
-7.96778 -7.58966 -26.1505 0
5.77132 6.01343 -25.0867 0
7.4511 4.80026 -25.3225 0
4.02177 4.11695 -25.1155 0
-4.51917 2.60789 -25.3077 0
-4.16093 2.4931 -25.2873 0
6.13084 2.48153 -25.2747 0
-5.07731 0.871209 -25.278 0
1.61233 0.11154 -26.0748 0
-5.38081 -2.06386 -25.9923 0
7.97737 -2.24943 -25.4737 0
7.62654 -2.30977 -25.4712 0
-5.06329 -2.4383 -25.9847 0
3.48886 -3.18443 -25.9776 0
5.99652 -3.29382 -25.8287 0
4.26419 -4.61013 -25.9874 0
3.06328 -5.14315 -25.9537 0
3.12709 -6.24159 -25.9478 0
7.98652 2.8988 -25.2673 0
2.66583 0.544042 -26.0613 0
-5.06966 0.548296 -25.2835 0
-4.33266 -0.038652 -25.3892 0
-1.34068 -0.715108 -26.0569 0
2.82982 -0.729337 -26.0472 0
3.1075 -1.79633 -26.0173 0
7.3959 -2.01927 -25.5097 0
3.46951 -2.57465 -26.0172 0
-5.58583 -6.53713 -25.9952 0
-6.85835 -7.28126 -25.9805 0
-7.10066 -8.14562 -26.0832 0
5.286 8.42882 -24.9666 0
0.146495 7.10244 -24.8916 0
5.20593 6.13366 -25.0546 0
-5.02633 2.56707 -25.2798 0
0.68414 1.06254 -25.9569 0
7.89558 0.853634 -25.3899 0
0.774918 0.699012 -26.1406 0
3.27087 0.163232 -26.018 0
7.95699 -1.96219 -25.4959 0
4.4536 -4.11552 -25.9357 0
-3.92566 -7.12418 -25.9599 0
-3.67756 -7.83265 -25.9797 0
-2.78571 7.53819 -25.3264 0
-3.4156 3.99862 -25.23 0
-5.3752 3.90688 -24.9007 0
3.02088 3.66217 -25.0697 0
-4.56145 0.926942 -25.2779 0
3.439 0.803727 -26.0882 0
1.68582 0.481165 -26.0584 0
2.96894 -0.718127 -26.0764 0
3.11381 -1.22192 -26.0685 0
3.58628 -3.02199 -26.037 0
3.75077 -3.83878 -26.0006 0
3.7997 -5.39722 -25.9524 0
-6.65749 -6.41526 -25.9882 0
-4.17303 1.92369 -25.3076 0
