ply
format ascii 1.0
element vertex 254
property float x
property float y
property float z
property uchar intensity
end_header
4.70515 1.03638 -25.0768 0
-6.78956 -0.597202 -25.2103 0
-2.6353 -7.17265 -25.7356 0
-5.37917 -7.23882 -22.2254 0
-2.98103 2.44245 -25.1197 0
2.31771 1.90674 -25.1694 0
7.75163 1.5646 -25.0975 0
7.70145 1.43224 -25.1141 0
5.00505 0.894363 -25.0729 0
2.37753 -0.426107 -25.2908 0
-6.91861 -0.673621 -25.1882 0
-4.32175 -3.50613 -25.8005 0
1.32922 -4.4205 -25.6651 0
6.89474 -5.72931 -25.7268 0
-0.986868 -6.80476 -25.6308 0
-2.60456 -7.11464 -25.7294 0
-2.3831 8.28054 -25.6209 0
-5.91531 2.76814 -24.9674 0
-4.0086 1.25515 -25.034 0
3.07054 0.0741603 -25.156 0
2.02538 -0.323432 -25.2531 0
-6.99381 -0.38888 -25.193 0
-6.92121 -0.792759 -25.1867 0
1.0909 -2.00352 -25.2726 0
2.18514 -2.03686 -25.2704 0
0.0349803 -2.06085 -25.2489 0
2.17281 -2.12333 -25.2772 0
2.89711 -2.20944 -25.3084 0
-4.42993 -3.4059 -25.8387 0
1.39898 -4.62749 -25.4099 0
2.06615 -4.83035 -25.3966 0
2.6394 -5.02899 -25.4089 0
3.05107 -5.21764 -25.4211 0
7.75823 -6.61871 -25.6603 0
0.0849054 -7.08808 -25.559 0
-4.58193 -7.45797 -25.7331 0
-4.88802 -7.49586 -25.742 0
4.07519 -7.74706 -25.609 0
-5.06721 8.6814 -26.0013 0
-2.47467 8.32149 -25.6276 0
-7.13855 4.73597 -25.3182 0
3.31971 4.53949 -24.9064 0
3.15477 4.47133 -24.9531 0
-0.256516 3.42266 -24.899 0
-4.12538 1.86659 -25.1332 0
7.03037 1.74116 -25.1345 0
0.614127 1.72722 -25.0932 0
0.782584 1.65294 -25.1057 0
4.20009 1.2262 -25.0765 0
4.52254 1.09492 -25.0589 0
4.82828 0.640356 -25.0927 0
5.05801 0.464248 -25.2348 0
-0.619684 -0.222302 -25.2123 0
-6.57906 -1.80691 -25.2586 0
0.374452 -2.05477 -25.2628 0
0.346386 -2.14625 -25.2627 0
6.32125 -2.42341 -25.3522 0
6.8476 -2.47602 -25.321 0
4.40537 -2.48723 -25.3721 0
6.0178 -2.80817 -25.34 0
-0.0889807 -4.67579 -25.3759 0
6.28642 -5.24096 -25.3999 0
5.96131 -5.57369 -25.7669 0
7.11734 -5.74431 -25.6053 0
6.94368 -5.81253 -25.8845 0
-1.28132 -5.78265 -25.5737 0
4.41061 -6.23921 -25.488 0
-3.04398 -6.32329 -25.7757 0
7.40311 -6.49699 -25.6563 0
7.94096 -6.71856 -25.7131 0
0.531639 -7.33385 -25.3165 0
0.531639 -7.33385 -25.3165 0
-0.201905 -7.37554 -25.5868 0
-5.17065 -7.5313 -25.7584 0
-2.97118 4.43506 -24.9076 0
-2.6319 4.1571 -24.8942 0
-0.397972 3.73214 -24.8936 0
3.91144 3.70863 -24.9 0
6.53753 3.35276 -24.9376 0
-2.88128 3.28382 -24.9966 0
-1.00635 2.79494 -24.9359 0
0.563845 2.34985 -25.1234 0
0.563845 2.34985 -25.1234 0
0.333239 1.73534 -25.1107 0
0.515408 1.66649 -25.1042 0
1.03748 1.64984 -25.108 0
-4.29697 1.53267 -25.1694 0
1.38018 1.51632 -25.1106 0
4.62146 1.11308 -25.0681 0
3.15959 0.76615 -25.1744 0
3.15959 0.76615 -25.1744 0
-2.65472 0.0858574 -25.2111 0
3.47672 0.0782716 -25.2068 0
5.22087 0.0594099 -25.2449 0
2.68729 0.00107679 -25.2767 0
2.68871 -0.333007 -25.2958 0
2.44601 -0.499683 -25.2995 0
2.23154 -0.497017 -25.3276 0
-5.88446 -0.680689 -25.1466 0
1.29028 -2.18204 -25.2813 0
1.29028 -2.18204 -25.2813 0
4.42441 -2.23818 -25.3331 0
0.656862 -2.26947 -25.2683 0
6.34147 -2.32514 -25.3405 0
-6.36454 -2.32852 -25.26 0
1.02468 -2.31582 -25.2754 0
7.00306 -2.52027 -25.3009 0
2.79955 -2.54517 -25.3073 0
-0.708936 -2.56984 -25.2685 0
6.78707 -2.67649 -25.3135 0
7.37564 -2.72034 -25.3432 0
-6.83329 -2.88581 -25.3628 0
5.70804 -3.22657 -25.4126 0
-0.335992 -3.89442 -25.3662 0
6.2352 -4.37532 -25.366 0
0.813423 -4.52206 -25.5771 0
6.12609 -5.09415 -25.3892 0
2.21968 -5.07627 -25.4063 0
6.26254 -5.58064 -25.6622 0
0.300168 -5.92276 -25.7734 0
6.86683 -6.21498 -25.6523 0
7.62992 -6.76233 -25.7005 0
0.560438 -6.7328 -25.3209 0
-1.17325 -7.09088 -25.5596 0
4.32127 -7.7659 -25.6306 0
-5.19151 8.70198 -26.0139 0
4.44732 7.96327 -25.5855 0
-0.985449 4.65901 -24.8608 0
-5.08609 4.31626 -25.1528 0
1.67712 3.72554 -24.8957 0
1.45868 2.86431 -24.9394 0
-4.43852 1.98882 -25.0998 0
-4.31278 1.77536 -25.1612 0
5.00428 0.320108 -25.2682 0
-2.79984 -0.0254326 -25.1768 0
-2.1579 -0.295659 -25.2154 0
1.98556 -0.369872 -25.2666 0
-0.678306 -0.441404 -25.2285 0
-0.990693 -0.557856 -25.2349 0
-7.69137 -0.940995 -25.1694 0
-5.52281 -1.08932 -25.1013 0
1.32786 -2.05882 -25.2789 0
0.223885 -2.20574 -25.2634 0
-6.48789 -2.26927 -25.2564 0
5.9483 -2.58172 -25.3318 0
6.49849 -2.62478 -25.3503 0
-4.4629 -3.50447 -25.8506 0
-7.00885 -3.69512 -25.5097 0
0.0468414 -4.01076 -25.3938 0
7.12689 -4.53394 -25.3212 0
5.43841 -5.08879 -25.4839 0
6.53031 -5.92434 -25.8723 0
-0.846169 -6.47466 -25.6275 0
-1.35639 -6.98607 -25.6209 0
-2.01964 -7.09588 -25.7238 0
-2.23714 -7.13126 -25.7076 0
-2.46405 -7.15797 -25.7337 0
-0.146703 -7.24779 -25.5803 0
-3.34944 -7.27973 -25.7532 0
-5.31246 -7.48111 -25.7685 0
0.274356 -7.88953 -25.5525 0
5.02256 -8.1 -25.7236 0
0.270158 -8.16766 -25.569 0
5.28147 -8.37661 -25.6866 0
-8.22071 -8.08376 -22.2254 0
-7.49267 -8.10389 -22.2254 0
6.35577 4.87969 -24.8808 0
2.87274 4.84195 -25.0441 0
-8.48848 3.53327 -25.0496 0
-4.62033 2.13695 -25.1011 0
-5.97149 -0.538489 -25.1527 0
-5.97149 -0.538489 -25.1527 0
2.44659 -1.91886 -25.278 0
2.01909 -2.1322 -25.2768 0
2.38942 -2.15805 -25.2911 0
4.22126 -2.29294 -25.3794 0
2.42689 -2.41685 -25.3049 0
-0.890361 -2.45585 -25.2899 0
-6.7511 -2.5051 -25.2717 0
-7.11325 -2.72808 -25.2955 0
3.67902 -2.81154 -25.3314 0
4.23403 -2.89056 -25.3506 0
0.318435 -3.24519 -25.3156 0
5.21477 -3.30178 -25.337 0
-4.71719 -3.43601 -25.7971 0
5.18273 -3.57074 -25.3257 0
0.380598 -4.25419 -25.3807 0
7.06892 -4.86805 -25.3983 0
7.08125 -5.24041 -25.4272 0
7.14711 -6.47609 -25.6686 0
0.409355 -6.62054 -25.3471 0
-1.2163 -6.82385 -25.5195 0
-0.938013 -7.34314 -25.597 0
-0.938013 -7.34314 -25.597 0
0.222842 -7.71506 -25.5402 0
2.82829 1.90267 -25.18 0
-6.70457 -0.54296 -25.2251 0
-5.84795 -0.882639 -25.1444 0
1.49535 -1.89439 -25.2709 0
3.86659 -2.26179 -25.3562 0
6.58308 -2.33756 -25.342 0
3.22632 -2.51141 -25.3309 0
-3.0797 -2.46252 -25.2772 0
5.40187 -3.19164 -25.355 0
5.53349 -3.98609 -25.3707 0
6.91908 -4.39795 -25.348 0
-0.827255 -4.34291 -25.3615 0
0.391519 -4.47309 -25.454 0
0.729659 -4.80893 -25.619 0
5.05026 -5.18263 -25.4964 0
0.718484 -5.84361 -25.5829 0
-2.12127 -6.35453 -25.7259 0
1.63654 -6.58025 -26.1522 0
-0.374233 -6.69015 -25.6049 0
-0.979731 -6.93162 -25.6186 0
1.9309 -7.10535 -25.1915 0
-3.73979 -7.23518 -25.746 0
-7.33593 -7.57388 -22.2254 0
-2.91594 3.73673 -24.9804 0
-4.73754 2.6231 -25.1984 0
-4.03475 1.96643 -25.1401 0
-6.17066 -2.12545 -25.2227 0
3.70305 -2.57941 -25.3624 0
3.98878 -2.80808 -25.3424 0
-7.5312 -4.25939 -25.7195 0
5.51093 -5.2366 -25.4942 0
1.76157 -6.7981 -25.7301 0
-0.0197957 -7.80928 -25.6011 0
4.69202 -8.17856 -25.6897 0
5.02453 -8.30015 -25.7049 0
-4.16682 7.73126 -25.5708 0
-7.66097 3.16928 -25.2705 0
8.01598 2.24968 -25.1115 0
-6.34184 -0.911423 -25.1798 0
-5.08138 -3.69104 -25.8119 0
-0.703829 -3.99623 -25.358 0
0.681488 -4.39445 -25.5058 0
5.27992 -4.96475 -25.4545 0
0.765507 -6.7033 -25.4704 0
0.488469 -7.07221 -25.2887 0
0.0763326 -7.82388 -25.6007 0
-0.328535 3.95325 -24.8689 0
-5.69035 3.58044 -24.9118 0
-6.36701 2.20143 -25.1509 0
0.0519198 -0.32578 -25.2341 0
-6.27215 -1.55417 -25.1796 0
-2.58883 -3.46098 -25.8433 0
0.333805 -4.97612 -25.8884 0
4.24306 4.63241 -24.8792 0
1.8079 4.6247 -24.8845 0
-4.11964 4.50549 -24.8909 0
-6.83533 -1.22092 -25.2188 0
-6.57612 -4.29283 -25.7626 0
-0.32946 -4.98218 -25.3542 0
