ply
format ascii 1.0
element vertex 205
property float x
property float y
property float z
property uchar intensity
end_header
4.95316 1.64911 -25.1391 0
3.86081 0.754683 -25.32 0
3.83466 0.719212 -25.3086 0
-2.55768 -4.71668 -25.7832 0
-0.458324 3.00781 -25.1012 0
7.25419 2.86123 -25.0385 0
4.81601 1.96469 -25.1314 0
-0.0792496 1.58283 -25.203 0
-6.27522 1.60316 -25.187 0
-6.00204 0.969016 -25.2325 0
-3.7129 -0.568794 -25.7545 0
1.95162 -2.10147 -25.3755 0
4.86626 -6.36559 -25.6732 0
-5.27925 8.5219 -25.3926 0
0.131629 3.1549 -25.0945 0
-0.544609 3.05808 -25.1313 0
5.86909 2.62256 -25.1004 0
4.86835 2.00271 -25.1182 0
5.05492 1.93403 -25.231 0
-0.115306 1.7449 -25.2233 0
6.5468 1.51032 -25.2203 0
0.842145 1.45581 -25.1965 0
-6.49934 1.47071 -25.2046 0
3.87791 1.34127 -25.2333 0
3.69683 1.33395 -25.2345 0
3.69683 1.33395 -25.2345 0
-3.66552 0.624747 -25.3631 0
-5.87448 0.360704 -25.25 0
-3.47134 0.275976 -25.3847 0
-5.44817 -0.0802342 -25.323 0
2.99629 -0.198213 -25.3154 0
-1.60956 -0.427893 -25.4025 0
0.390243 -0.486183 -25.284 0
-3.48174 -0.518435 -25.7856 0
-3.05368 -0.846314 -25.8716 0
3.68598 -3.81801 -25.4676 0
8.48799 -6.66666 -25.8112 0
-6.67044 3.49489 -25.1679 0
-0.587151 2.99264 -25.1138 0
-1.71078 2.40699 -24.9733 0
2.57266 1.74517 -25.2321 0
-5.59556 1.73203 -25.1814 0
5.85722 1.63937 -25.1639 0
-3.26095 1.5399 -25.3308 0
1.10084 1.5129 -25.1679 0
0.766576 1.38942 -25.2326 0
0.951712 1.38115 -25.2529 0
-6.48075 1.35701 -25.2071 0
-5.30008 1.33715 -25.08 0
0.635728 1.24168 -25.2483 0
5.77876 1.21473 -25.2632 0
0.358997 1.18496 -25.2814 0
0.410449 1.01009 -25.2913 0
-5.90314 0.890297 -25.231 0
4.62039 0.843325 -25.3756 0
-5.24763 0.809181 -25.1384 0
-5.20626 0.505941 -25.2428 0
-6.20374 0.489237 -25.2276 0
-5.59519 0.453761 -25.2187 0
-5.64306 0.346686 -25.243 0
2.88905 -0.287578 -25.3222 0
3.67148 -0.343555 -25.3227 0
-5.53605 -0.471756 -25.3014 0
-1.76572 -0.928519 -25.7266 0
-3.16704 -1.24145 -25.8368 0
-3.08005 -1.51099 -25.8188 0
6.10212 -1.63247 -25.3994 0
3.73838 -1.69162 -25.3638 0
5.23808 -1.74 -25.3579 0
-1.90047 -1.90908 -25.9539 0
-4.49649 -2.13265 -25.7947 0
1.29459 -2.85262 -25.5371 0
-4.06894 -3.36136 -25.807 0
-4.83937 -3.44125 -25.5177 0
7.52095 -3.76516 -25.602 0
4.1362 -3.90586 -25.5336 0
-5.84202 -4.21041 -25.8439 0
4.20335 -6.43091 -25.6139 0
3.82167 -6.90465 -25.6869 0
6.20599 -7.02623 -25.8181 0
3.25893 -7.1556 -25.6878 0
6.39503 -7.52266 -25.823 0
0.0583163 5.36013 -24.8773 0
0.0947264 4.86509 -24.9369 0
7.60457 4.84477 -25.0408 0
-1.79456 4.07075 -24.899 0
-0.490229 2.9111 -25.0744 0
-6.35691 1.5745 -25.184 0
5.8187 1.52472 -25.2419 0
-2.96606 1.21185 -25.3024 0
-5.69718 0.53009 -25.1942 0
3.56455 0.517302 -25.2984 0
4.45535 -1.7613 -25.3696 0
2.85128 -1.84238 -25.3496 0
2.89261 -1.96421 -25.3642 0
2.63095 -2.07286 -25.3662 0
-5.36135 -2.78606 -25.7767 0
-4.63945 -3.9205 -25.7307 0
4.99124 -6.01941 -25.6739 0
5.74248 -6.30272 -25.7518 0
4.57672 -6.54789 -25.6554 0
5.01797 -6.65005 -25.7614 0
4.32809 -6.69034 -25.7033 0
5.60106 -6.77184 -25.7797 0
-8.64823 -7.22401 -25.7451 0
6.79221 -8.23818 -25.7939 0
6.30292 7.08791 -24.9402 0
4.28593 6.522 -24.8875 0
6.74917 4.49031 -24.9772 0
8.1823 2.71889 -25.0846 0
-3.24441 1.93953 -25.1481 0
0.712519 1.92898 -25.1547 0
-1.6063 1.89045 -25.0322 0
-3.40335 1.62412 -25.339 0
-5.30973 0.407025 -25.2562 0
3.19946 -0.198708 -25.3189 0
0.505673 -0.518643 -25.2818 0
-1.80079 -0.527591 -25.587 0
-1.6954 -0.669848 -25.5554 0
-1.81719 -0.796653 -25.7779 0
-2.06716 -1.03685 -25.9199 0
6.22615 -1.60118 -25.3975 0
-4.87477 -2.0178 -25.798 0
-5.87136 -2.15046 -25.8044 0
-6.39014 -2.53192 -25.7895 0
2.62149 -2.58547 -25.421 0
2.79633 -2.82273 -25.4321 0
-0.727657 -4.16479 -25.561 0
6.05085 -5.8772 -25.6993 0
6.42736 -6.41215 -25.7791 0
5.62088 -6.60569 -25.781 0
4.07351 -6.65102 -25.6542 0
3.48363 -6.74997 -25.6144 0
3.67496 -6.8104 -25.6563 0
3.26008 -6.99743 -25.6369 0
2.3433 -7.37295 -25.5399 0
-7.58077 8.32138 -25.418 0
-7.41277 7.62375 -25.3687 0
-7.41277 7.62375 -25.3687 0
5.00362 5.07195 -24.9115 0
-4.49882 3.5543 -25.1056 0
8.15818 3.46808 -25.1169 0
8.15818 3.46808 -25.1169 0
5.67664 2.46636 -25.1903 0
0.549417 2.43559 -25.1347 0
-8.11278 1.65119 -25.2288 0
-5.52671 1.12674 -25.1432 0
5.84593 1.07726 -25.3236 0
5.88122 -1.30922 -25.3675 0
3.95522 -1.65713 -25.3883 0
3.78812 -1.92744 -25.3864 0
3.18207 -1.97254 -25.3733 0
8.18961 -3.18928 -25.4354 0
-4.88118 -4.24676 -25.7108 0
8.31544 -4.40958 -25.6473 0
-2.58875 -4.82199 -25.7835 0
5.68735 -6.45146 -25.776 0
6.39713 -7.40654 -25.8202 0
7.41551 -7.99281 -25.7271 0
-7.67019 7.76906 -25.3735 0
7.81805 7.50411 -25.1656 0
-8.25379 7.48972 -25.4979 0
6.69064 5.0647 -24.9569 0
0.576262 3.99458 -25.1088 0
5.51345 -1.37758 -25.3383 0
6.93893 -1.60137 -25.347 0
5.09172 -1.69734 -25.3646 0
3.40662 -2.10389 -25.377 0
1.3682 -2.31342 -25.4014 0
-4.41558 -2.34481 -25.7922 0
8.25475 -2.48034 -25.2931 0
2.98435 -3.16216 -25.4287 0
8.12092 -3.79345 -25.5991 0
0.177524 -3.89834 -25.5799 0
-2.84829 -4.82865 -25.7814 0
6.08953 -5.64996 -25.7012 0
4.43086 -6.29648 -25.5995 0
4.73145 -6.34729 -25.6522 0
6.22794 -6.927 -25.8048 0
6.28597 -8.17767 -25.8531 0
-5.83414 0.69495 -25.1891 0
3.64004 0.130932 -25.2399 0
2.70527 -0.192793 -25.3305 0
5.65235 -1.64572 -25.3525 0
6.02753 -1.76382 -25.3853 0
-3.91414 -2.51138 -25.8107 0
4.53552 -4.14457 -25.5253 0
-4.41142 -5.59755 -25.7118 0
3.78143 -5.75685 -25.5532 0
5.96884 -7.1019 -25.8363 0
-3.17813 -5.17302 -25.7753 0
6.31752 -6.14122 -25.7691 0
-4.95247 2.54876 -25.0837 0
3.87395 -0.838341 -25.3206 0
2.4763 -2.25787 -25.3681 0
0.723858 -2.62972 -25.4843 0
-4.60504 -3.11911 -25.7374 0
2.27494 -3.92621 -25.4321 0
-4.3413 -4.07944 -25.7933 0
6.25502 -7.55184 -25.8383 0
-2.39486 3.41043 -25.1438 0
1.13655 -0.430614 -25.281 0
7.276 -5.43599 -25.6485 0
6.62393 -5.66331 -25.7146 0
-4.18893 -5.98452 -25.7146 0
