ply
format ascii 1.0
element vertex 109
property float x
property float y
property float z
property uchar intensity
end_header
2.58078 -5.16937 -25.8078 0
-2.68237 7.37795 -25.7821 0
-2.15194 -0.416405 -25.342 0
8.15531 -6.12924 -26.2891 0
-2.08922 5.51898 -25.3531 0
8.11387 -0.175984 -25.2379 0
-8.38755 -0.212647 -25.0318 0
-1.95196 -0.694474 -25.2197 0
7.46034 -3.69969 -25.8727 0
6.02561 -3.70758 -25.6603 0
3.453 -5.98523 -25.7968 0
8.25747 -6.15417 -26.2864 0
1.97452 -6.61183 -26.2261 0
-2.18165 5.5722 -25.3506 0
-6.54713 0.764123 -24.886 0
-7.83548 0.650809 -25.5461 0
-6.96047 0.349691 -25.0082 0
-7.83594 0.169342 -25.1641 0
-1.60178 -0.182758 -25.3895 0
1.43633 -0.220971 -25.4288 0
1.57459 -0.368509 -25.3745 0
7.18826 -0.439136 -25.2482 0
-2.05345 -0.436638 -25.3497 0
-8.02265 -1.46375 -24.9131 0
-7.79935 -1.94827 -24.8927 0
-7.58229 -2.13005 -24.8804 0
2.19621 -2.64352 -25.1992 0
8.11943 -3.5479 -25.8706 0
7.2794 -3.61395 -25.8312 0
6.45583 -3.66827 -25.7597 0
-1.47602 -4.10802 -25.49 0
4.82465 -4.79533 -25.6117 0
-0.729791 6.29207 -25.454 0
-5.83712 5.81595 -25.4466 0
2.88121 2.51202 -25.2057 0
5.70524 1.96723 -25.3227 0
-6.76624 0.605084 -24.9758 0
-7.38907 0.0371578 -24.942 0
4.72098 -0.180526 -25.1542 0
-8.58486 -0.440162 -24.9244 0
3.42904 -0.557447 -25.2295 0
7.01072 -1.29854 -25.2637 0
-8.05468 -1.33985 -25.087 0
-7.92464 -1.40092 -24.9305 0
-7.73215 -2.0696 -24.8827 0
6.41618 -3.84949 -25.6721 0
-2.018 -3.90765 -25.4814 0
-2.018 -3.90765 -25.4814 0
4.84762 -4.68366 -25.6126 0
-0.679431 -5.55594 -25.6352 0
2.64171 -6.30231 -26.189 0
0.690186 6.31142 -25.4536 0
-4.7129 6.12549 -25.2641 0
-4.8915 5.36738 -25.073 0
-4.81725 5.06696 -24.9614 0
5.10527 3.18766 -25.3295 0
5.60768 2.27495 -25.279 0
0.285405 1.82264 -25.1924 0
-7.81455 -0.985275 -25.3509 0
1.97397 -2.60501 -25.2657 0
6.29524 -3.72081 -25.6914 0
-2.34748 -4.03147 -24.9636 0
-2.22028 -4.28229 -25.4541 0
5.04636 -4.60978 -25.6882 0
-1.91503 -5.6382 -25.4352 0
-1.15938 -6.31842 -25.4095 0
5.08333 7.98462 -25.4931 0
4.33704 7.5316 -25.5208 0
-4.81328 6.56642 -25.6858 0
-4.81328 6.56642 -25.6858 0
-2.78702 6.28758 -25.5313 0
2.44368 6.25172 -25.5049 0
-4.86163 5.89546 -25.231 0
-5.08711 5.90362 -25.4384 0
-4.95216 5.54878 -25.2022 0
-4.76348 5.49255 -25.0306 0
-5.20158 5.01496 -25.0692 0
-6.24673 0.658902 -24.8656 0
-3.75106 0.249451 -25.0798 0
-7.34951 -2.13982 -24.8833 0
7.50769 -3.58071 -25.8236 0
-1.68838 -4.21085 -25.4836 0
-3.67977 -5.00896 -24.7981 0
-0.996856 -5.87034 -25.5964 0
2.69236 -5.92807 -25.8041 0
2.25701 -6.81097 -26.236 0
-5.00391 7.28383 -25.6848 0
-5.11169 6.71423 -25.687 0
2.80759 6.34671 -25.4603 0
-5.76624 4.00663 -25.1045 0
-7.94505 -2.88776 -24.8849 0
-0.687398 -3.60821 -25.462 0
0.06173 -4.13335 -25.5071 0
-3.79607 -5.38722 -24.7969 0
-0.84185 -6.30809 -25.6554 0
0.526198 -6.46109 -25.9549 0
-0.157192 -7.17322 -25.9395 0
7.1678 -4.14594 -25.9294 0
4.77331 -5.99257 -25.6893 0
-1.08629 -6.1435 -25.4859 0
1.88653 -2.26369 -25.3343 0
-7.65549 -2.93656 -24.8873 0
4.76917 -4.80231 -25.5784 0
-6.38715 0.595228 -24.8893 0
-7.53865 -2.45114 -24.8842 0
-0.612776 -4.76266 -25.5272 0
1.28534 2.23399 -25.0554 0
7.27796 -2.69134 -25.3274 0
-0.725791 -3.78076 -25.4612 0
