ply
format ascii 1.0
element vertex 277
property float x
property float y
property float z
property uchar intensity
end_header
4.17503 6.82975 -24.9978 0
-6.72731 5.35165 -24.893 0
-7.05294 5.27061 -24.9 0
4.11131 4.16479 -24.9298 0
-7.72204 4.17878 -24.8912 0
0.00910726 2.75516 -25.2153 0
7.13433 8.58833 -25.7413 0
-7.42103 6.11711 -24.9507 0
-3.2569 4.9026 -24.9061 0
-2.39746 4.42427 -24.9263 0
8.05587 4.42111 -25.0188 0
8.00062 4.38826 -25.0177 0
-2.44336 4.155 -24.9655 0
-7.51998 3.29313 -24.8625 0
-7.55886 2.76311 -24.8815 0
5.20709 2.56905 -25.0759 0
5.07776 2.50512 -25.0389 0
5.22773 2.47651 -25.0567 0
5.65185 2.43053 -25.0933 0
7.45191 -2.91702 -26.1201 0
5.57457 -3.17887 -26.1369 0
3.95681 -3.58035 -26.1272 0
-7.49533 -8.35169 -26.1886 0
4.55343 8.26281 -25.5981 0
-7.17358 6.22055 -25.0573 0
-7.17092 5.81578 -24.9115 0
-2.40031 5.12798 -24.9278 0
-2.44321 5.01739 -24.921 0
4.69736 4.33235 -24.8967 0
3.58811 4.25852 -24.9216 0
-0.616948 4.24894 -25.2706 0
-0.616948 4.24894 -25.2706 0
3.22865 4.19253 -24.9399 0
-2.93645 4.16369 -24.9039 0
-2.87154 3.77245 -24.9466 0
-3.28108 3.4845 -24.9902 0
-3.28108 3.4845 -24.9902 0
-3.02917 3.42544 -24.964 0
-0.950368 3.39659 -25.363 0
1.13615 2.78198 -25.0771 0
-0.32901 2.73437 -25.2752 0
6.62272 2.42246 -25.1414 0
3.51162 0.74344 -25.3053 0
2.23046 -3.93885 -26.1468 0
1.69757 -4.03151 -26.1466 0
1.0592 -4.17305 -26.1541 0
0.467898 -4.30192 -26.1627 0
-5.88743 -5.63859 -26.1158 0
-5.02475 -5.80806 -26.1074 0
-5.02475 -5.80806 -26.1074 0
-2.32807 -5.85406 -26.1089 0
-4.20973 -5.90755 -26.1129 0
-6.13889 -5.99188 -26.1291 0
-5.77176 -6.21768 -26.114 0
-8.29222 -6.57681 -26.1676 0
-2.92784 -6.58695 -26.1007 0
-3.8755 -7.001 -26.1127 0
-2.68218 -7.99494 -26.0821 0
-7.98759 -8.35382 -26.1975 0
-7.44083 -8.40157 -26.1959 0
-7.63347 -8.46917 -26.1781 0
-7.97595 -8.52022 -26.1578 0
2.05654 8.15856 -25.5127 0
2.05654 8.15856 -25.5127 0
1.37462 6.09502 -24.9055 0
2.02422 5.85263 -24.9173 0
1.18191 5.65353 -25.0057 0
-2.76685 5.62454 -24.9461 0
-7.42535 5.59048 -24.9158 0
-6.77524 5.51405 -24.8601 0
-0.018495 5.4219 -25.4536 0
-0.611606 5.25462 -25.2968 0
-2.56245 4.63403 -24.9217 0
-2.56245 4.63403 -24.9217 0
-2.95975 4.35449 -24.941 0
5.18154 4.32774 -24.9133 0
4.61423 4.28778 -24.9073 0
3.85947 4.28084 -24.9131 0
4.82641 4.25575 -24.9067 0
-3.00486 4.24516 -24.9302 0
3.50584 4.2074 -24.9306 0
3.69161 4.17488 -24.9324 0
-0.0962019 4.05647 -25.2804 0
-2.13175 4.04577 -24.9634 0
-7.80483 4.1158 -24.9026 0
3.54017 4.04575 -24.9436 0
3.25634 4.02833 -24.9294 0
-7.41664 3.28153 -24.8589 0
-0.590595 3.03052 -25.2551 0
3.50532 2.72612 -25.1582 0
0.584065 2.66788 -25.025 0
5.77367 2.50281 -25.1106 0
5.51468 2.35602 -25.0848 0
-4.06031 2.33304 -25.3733 0
-0.489596 2.29301 -25.2817 0
-2.45178 1.17749 -25.3513 0
-1.07827 1.18078 -25.3476 0
7.94243 0.929479 -25.2639 0
5.34988 0.872512 -25.265 0
-6.7702 -2.40463 -25.4667 0
3.43906 -3.69413 -26.1635 0
3.43906 -3.69413 -26.1635 0
3.09707 -3.75478 -26.1652 0
2.74269 -3.82447 -26.1505 0
-0.873861 -5.21742 -26.1109 0
-0.803163 -5.2818 -26.1204 0
-5.52392 -5.68521 -26.1322 0
-2.17397 -6.53488 -26.1087 0
-7.96141 -6.86597 -26.2037 0
-3.82229 -6.88304 -26.1153 0
-3.82229 -6.88304 -26.1153 0
-3.81714 -7.08075 -26.1237 0
-3.66613 -7.61097 -26.1234 0
-1.25337 -7.66259 -26.0825 0
-3.56664 -7.68225 -26.1282 0
-7.66322 -7.75939 -26.13 0
-7.71076 -7.99169 -26.1503 0
-7.61619 -8.16934 -26.1328 0
-1.22249 -8.09663 -26.1234 0
8.36538 7.37762 -25.0833 0
6.15182 7.22996 -25.0709 0
1.88237 6.43596 -24.8904 0
1.72477 5.81289 -24.9193 0
0.0519191 5.82754 -25.4707 0
-3.52258 5.60936 -24.9195 0
0.199886 5.62125 -25.513 0
-2.51977 5.18022 -24.9197 0
-8.27397 5.08519 -24.9344 0
-3.03471 4.44065 -24.9302 0
-7.58487 4.45759 -24.8786 0
-2.46459 4.3503 -24.9228 0
-2.5538 4.32816 -24.9334 0
-2.69321 4.24688 -25.0066 0
1.35716 3.40132 -25.0632 0
6.47999 3.19568 -25.0932 0
5.51933 2.47415 -25.0702 0
-3.21174 2.30099 -25.3134 0
2.0015 2.12264 -25.2502 0
2.97593 1.81433 -25.4227 0
-2.52855 1.0384 -25.3578 0
-2.28311 0.431199 -25.3916 0
-2.16609 0.369092 -25.3541 0
-2.69789 -0.317294 -25.3346 0
-0.0820194 -0.562417 -25.3408 0
4.06545 -2.5278 -25.905 0
6.32048 -3.26049 -26.09 0
6.09451 -3.30797 -26.0828 0
5.88629 -3.34971 -26.0877 0
5.69666 -3.38738 -26.0911 0
-2.03076 -5.0792 -26.146 0
-2.77286 -5.24052 -26.1593 0
-2.97566 -5.28541 -26.1464 0
-3.43683 -5.48217 -26.1213 0
8.21886 -5.88893 -26.1021 0
-8.58714 -5.89425 -26.176 0
-6.8564 -5.93851 -26.1025 0
-8.46635 -5.96169 -26.1586 0
-6.38239 -5.9439 -26.1608 0
-6.38239 -5.9439 -26.1608 0
-6.51925 -5.96912 -26.1522 0
-0.839939 -5.92884 -26.1016 0
-3.33683 -6.04711 -26.0996 0
-5.27599 -6.31279 -26.1367 0
-5.27599 -6.31279 -26.1367 0
-5.49395 -6.36087 -26.1296 0
-5.49395 -6.36087 -26.1296 0
-4.46288 -6.50377 -26.1162 0
-2.11952 -7.1372 -26.0982 0
-2.76304 -7.98554 -26.0956 0
-3.05397 8.42707 -25.448 0
2.04812 8.3895 -25.5365 0
7.13867 8.46968 -25.7145 0
-0.870533 8.14615 -25.4654 0
4.5878 8.13549 -25.5637 0
4.86234 7.76573 -25.5594 0
6.77233 7.0392 -24.9887 0
-8.22665 6.08242 -25.0231 0
1.1713 3.13101 -25.0057 0
-8.55762 2.93023 -25.0216 0
0.668629 2.78562 -25.0062 0
3.19844 2.69714 -25.2561 0
0.754586 2.62127 -25.0247 0
0.611932 2.53288 -25.0412 0
-4.16499 2.25947 -25.3732 0
-3.76863 2.05174 -25.3654 0
5.47802 1.05696 -25.2446 0
-2.49689 0.825298 -25.363 0
5.67068 0.810086 -25.2257 0
6.11752 0.794512 -25.2744 0
6.82551 0.774827 -25.286 0
-2.93272 0.0594019 -25.3248 0
-6.41367 -1.81496 -25.4988 0
6.88882 -2.81783 -26.0962 0
6.10489 -2.98096 -26.1151 0
8.23373 -3.31462 -26.0549 0
-0.968702 -5.13573 -26.1018 0
-6.03596 -5.6039 -26.1265 0
-2.65476 -6.22793 -26.1122 0
-5.63707 -6.27741 -26.1067 0
-6.41874 -6.54322 -26.1361 0
-3.53484 -7.44656 -26.128 0
-1.99353 -7.86853 -26.1188 0
-3.55867 -8.19013 -26.1011 0
-8.08715 -8.28699 -26.2501 0
4.85129 6.95736 -25.2035 0
-4.86901 6.61656 -25.3242 0
-8.33345 5.41601 -24.9798 0
3.42389 5.27926 -24.9152 0
-8.52444 5.23077 -25.1596 0
-2.77981 4.98753 -24.9174 0
-2.1831 4.49092 -24.9068 0
-7.17659 3.23855 -24.8317 0
-1.9667 2.27523 -25.3444 0
-1.59766 1.1058 -25.414 0
6.49154 0.96568 -25.1918 0
7.73948 0.768253 -25.2766 0
6.31928 0.764879 -25.2944 0
-2.56113 0.162817 -25.3467 0
-2.44494 -0.301411 -25.3517 0
6.98557 -2.95123 -26.1011 0
6.2526 -3.11295 -26.0967 0
8.35669 -3.16169 -26.0197 0
5.75673 -3.21569 -26.1076 0
4.77582 -3.40714 -26.1124 0
0.242338 -4.80379 -26.1113 0
-2.61411 -5.30526 -26.1361 0
-8.13593 -7.95336 -26.1798 0
-3.72819 -8.09327 -26.0893 0
1.07486 7.36412 -25.4002 0
1.34788 7.16047 -25.3874 0
-0.266119 5.65848 -25.438 0
7.87851 4.53644 -25.0162 0
-1.85264 1.90759 -25.3723 0
5.95513 0.615185 -25.2731 0
-6.53879 -1.72012 -25.4576 0
-6.43053 -2.33583 -25.5555 0
7.16041 -2.76308 -26.1267 0
7.16041 -2.76308 -26.1267 0
7.40707 -2.86309 -26.1157 0
7.40707 -2.86309 -26.1157 0
7.41667 -3.37262 -26.0551 0
4.34109 -3.39891 -26.1191 0
-4.16147 -5.5794 -26.1215 0
-3.48521 -5.86224 -26.1144 0
-3.05707 -5.99624 -26.1164 0
-4.24096 -6.64226 -26.0991 0
-3.98703 -6.94919 -26.1127 0
-3.33887 -7.08234 -26.0951 0
-8.2306 -7.46869 -26.2216 0
-3.8214 -7.70104 -26.1236 0
-3.2022 -7.80354 -26.0825 0
0.202969 8.35501 -25.43 0
4.45374 7.83591 -25.5209 0
6.03995 7.4309 -25.419 0
3.32306 7.10484 -25.238 0
-3.13311 4.61767 -24.9195 0
6.02931 2.78434 -25.1451 0
-7.58023 2.59455 -24.9098 0
-2.81058 2.15778 -25.3092 0
-1.38527 1.69129 -25.3737 0
0.579623 1.47142 -25.0506 0
-1.51417 0.619785 -25.335 0
6.48141 -2.14566 -26.2267 0
-2.59419 -5.06092 -26.1482 0
-6.86529 -6.16577 -26.0907 0
5.52836 4.23195 -24.9441 0
-7.34538 3.03943 -24.8512 0
6.47877 2.7276 -25.1442 0
-6.54984 -5.20517 -26.0809 0
6.52913 1.73064 -25.1697 0
-2.12603 1.18026 -25.3533 0
1.26571 7.64338 -25.4356 0
-1.5573 7.11155 -25.4455 0
-2.70006 1.48032 -25.3727 0
-1.74917 -5.73976 -26.143 0
-8.1968 -6.7236 -26.1831 0
-3.76299 -6.74905 -26.1363 0
