ply
format ascii 1.0
element vertex 304
property float x
property float y
property float z
property uchar intensity
end_header
-8.36833 2.7965 -24.8851 0
1.87736 -6.57618 -25.8868 0
1.99249 -6.64956 -25.8931 0
-3.70221 -7.44933 -25.9234 0
1.67437 4.38618 -25.4763 0
-4.03767 3.18964 -24.9298 0
-4.08383 3.10834 -24.9352 0
3.53046 2.11586 -24.918 0
1.78208 2.03811 -24.959 0
2.9414 1.83534 -24.9616 0
4.47955 1.80991 -24.9742 0
5.86268 1.62209 -25.0761 0
5.6979 1.6237 -25.0542 0
-8.67566 1.50062 -24.9733 0
6.3016 1.15917 -25.1098 0
4.75619 0.474082 -25.1055 0
5.81147 0.3974 -25.1059 0
1.06083 0.248799 -25.1858 0
6.97398 0.184839 -25.1357 0
3.96008 -0.107749 -25.1598 0
-5.19627 -0.1539 -25.2625 0
-5.1221 -0.386565 -25.2271 0
-5.97542 -0.485674 -25.2756 0
-3.90012 -1.63488 -25.2938 0
3.69684 -1.77881 -25.2447 0
-0.769028 -2.57741 -25.3206 0
-2.63479 -3.10937 -25.1848 0
-2.52843 -3.20591 -25.1369 0
2.93522 -4.32676 -25.3459 0
1.91871 -6.74213 -25.8999 0
1.35593 -6.74035 -25.9104 0
0.22607 -6.83345 -25.9671 0
-0.649648 -7.00644 -25.934 0
-1.74755 -7.17816 -25.9026 0
-4.9033 -7.40824 -25.9202 0
-4.51406 -7.57666 -25.9441 0
-6.11806 -7.69284 -25.9864 0
6.42318 -7.69316 -25.5188 0
6.62636 -7.89211 -25.5496 0
-2.49145 8.28349 -25.3978 0
3.89986 4.46385 -25.5678 0
-8.37392 2.70047 -24.8868 0
-1.44061 2.3187 -25.413 0
-1.44061 2.3187 -25.413 0
-2.36677 2.1297 -25.3094 0
2.65557 2.09133 -24.9568 0
-2.42225 1.89291 -25.2649 0
4.52961 1.84956 -24.9819 0
-4.1466 1.8193 -24.9441 0
-4.1466 1.8193 -24.9441 0
-3.90526 1.69955 -24.9749 0
-8.42509 1.5925 -24.981 0
5.03267 1.25552 -25.1477 0
6.87286 0.54228 -25.1644 0
5.52771 0.402629 -25.1001 0
5.13098 0.330459 -25.131 0
1.11139 0.102245 -25.1942 0
3.6323 0.0110802 -25.1373 0
-5.19613 -0.0892748 -25.2456 0
-0.89349 -0.48019 -25.0508 0
-5.09969 -0.487453 -25.2136 0
-4.9873 -0.739706 -25.3039 0
-4.45619 -1.56448 -25.2775 0
1.80935 -1.7467 -25.2606 0
2.84331 -1.86629 -25.2181 0
8.14844 -2.2554 -25.2305 0
-0.88955 -2.43983 -25.2756 0
1.89164 -3.76526 -25.4224 0
4.04019 -4.50686 -25.2912 0
3.02641 -6.81887 -25.9403 0
-3.33647 -7.19404 -25.9152 0
-2.08654 -7.22736 -25.9025 0
-2.42336 -7.26764 -25.9143 0
6.50976 -7.48775 -25.5164 0
-3.961 -7.4903 -25.9542 0
6.8759 -7.89125 -25.5713 0
6.81628 -7.97484 -25.5517 0
-1.29208 8.51445 -24.9231 0
-1.18299 8.49901 -25.0094 0
-5.05112 8.48126 -24.9859 0
3.20485 4.76979 -25.4944 0
-0.721804 3.13783 -24.9497 0
1.85487 2.63164 -24.9677 0
-2.39462 2.64702 -25.3986 0
-2.1176 2.41226 -25.457 0
-1.36461 2.34164 -25.4053 0
-2.16818 2.29003 -25.4155 0
1.94395 2.00332 -24.956 0
7.08898 1.98499 -24.9307 0
1.84824 1.94425 -24.9653 0
2.37925 1.93734 -24.9766 0
-4.98009 1.85941 -24.8961 0
6.03435 1.60976 -25.0866 0
-4.03584 1.55551 -25.0364 0
6.41058 1.53948 -25.0975 0
6.29982 1.53399 -25.1061 0
6.21118 1.50614 -25.0894 0
6.58763 1.06755 -25.1276 0
6.9885 0.981783 -25.0595 0
-1.7759 0.766762 -25.2321 0
8.20597 0.768702 -25.0263 0
4.45531 0.372071 -25.1196 0
4.96257 0.29155 -25.1228 0
-1.15944 -0.101221 -25.0041 0
3.81826 -0.165053 -25.1267 0
-4.98813 -0.576055 -25.2215 0
-5.85449 -0.592757 -25.2833 0
-3.84576 -1.23389 -25.3167 0
-4.73698 -1.28849 -25.2924 0
-3.38507 -1.36262 -25.2855 0
-4.71533 -1.5681 -25.31 0
2.18294 -1.73936 -25.2284 0
3.99167 -1.78886 -25.189 0
-5.7317 -1.78683 -25.2546 0
2.12469 -1.82781 -25.214 0
-5.7166 -1.9145 -25.2514 0
5.53034 -2.04069 -25.2405 0
6.0592 -2.10583 -25.2765 0
6.32289 -2.13581 -25.2547 0
5.46496 -2.24795 -25.2355 0
2.8507 -3.62393 -25.291 0
4.35276 -4.79773 -25.2971 0
5.19571 -4.92801 -25.3271 0
6.55281 -5.62754 -25.3466 0
2.03769 -6.80738 -25.9061 0
2.84831 -6.86773 -25.8528 0
3.48348 -7.10104 -25.9101 0
3.48348 -7.10104 -25.9101 0
-1.7762 -7.18967 -25.9041 0
-1.7762 -7.18967 -25.9041 0
6.5484 -7.57392 -25.5083 0
6.86118 -7.7929 -25.5525 0
-6.86917 -8.16635 -26.0308 0
-7.56394 -8.27579 -26.078 0
-5.33675 -8.33573 -25.9994 0
-5.72027 -8.38872 -25.9642 0
1.19863 5.43245 -25.5028 0
5.7656 5.2852 -25.6226 0
-0.590268 4.72011 -25.484 0
6.32965 4.40272 -25.5642 0
3.92887 4.3605 -25.5195 0
1.71946 4.31521 -25.4502 0
-2.27644 2.18177 -25.3372 0
2.73127 1.99289 -24.9751 0
1.82134 1.76217 -24.9757 0
1.79089 1.5679 -24.9832 0
-8.5899 1.32847 -25.0396 0
6.82565 0.9304 -25.1458 0
6.92038 0.829586 -25.1396 0
-1.2254 0.336296 -25.0067 0
4.47644 0.064021 -25.1607 0
-1.24266 -0.011064 -24.9879 0
4.11294 -0.158443 -25.2397 0
-4.40117 -0.170486 -25.2775 0
-4.04769 -0.369944 -25.2935 0
-4.04195 -1.52648 -25.3547 0
3.10405 -1.86049 -25.2086 0
2.01482 -1.87995 -25.2586 0
6.96903 -1.96753 -25.206 0
2.48741 -1.93977 -25.2556 0
-4.60486 -1.97744 -25.2961 0
2.87055 -1.98288 -25.2486 0
-4.49268 -2.03887 -25.2736 0
7.93433 -2.22779 -25.2179 0
4.72694 -2.19067 -25.2427 0
7.39553 -2.36776 -25.2802 0
8.08042 -2.44255 -25.3074 0
-4.97485 -2.612 -25.2245 0
5.94446 -2.65797 -25.3599 0
8.34775 -4.78869 -25.3852 0
2.26528 -6.43437 -25.8969 0
1.43412 -6.58757 -25.9165 0
0.700547 -6.98437 -25.9439 0
2.76441 -6.99651 -25.8519 0
0.324972 -7.03019 -25.9241 0
2.70225 -7.11345 -25.899 0
-0.97928 -7.21706 -25.9194 0
6.72828 -7.52797 -25.4841 0
2.85334 -7.85497 -25.9238 0
3.2606 -8.17576 -25.9411 0
-7.74263 -8.30598 -26.056 0
-5.86527 -8.25796 -25.9152 0
7.55511 5.67762 -25.6361 0
1.12257 5.29688 -25.5126 0
-3.14764 4.77578 -25.3918 0
7.75473 4.08997 -25.5479 0
2.72006 3.01096 -24.9182 0
6.2508 1.71494 -25.0757 0
-0.455755 0.773026 -25.0797 0
7.00039 0.474711 -25.1547 0
6.87506 0.354863 -25.1798 0
6.44551 0.332312 -25.1598 0
4.03365 0.332258 -25.1026 0
-1.37204 0.214403 -24.9965 0
1.21524 0.0752807 -25.1918 0
0.995406 -0.102336 -25.1674 0
-5.85092 -0.331813 -25.2655 0
3.11166 -1.72708 -25.1924 0
4.07773 -1.97617 -25.2487 0
8.16335 -2.92593 -25.3564 0
7.42282 -2.97131 -25.3525 0
7.74089 -3.02004 -25.3382 0
-5.11322 -3.46083 -25.3004 0
2.2503 -3.48996 -25.3197 0
7.49155 -4.39677 -25.3598 0
8.0721 -4.78477 -25.3903 0
7.64554 -4.77554 -25.3745 0
7.63734 -5.01486 -25.3966 0
2.3574 -5.70232 -25.9579 0
3.51259 -6.47367 -25.8226 0
0.702545 -6.6886 -25.9349 0
1.52953 -6.7066 -25.912 0
1.23108 -6.76032 -25.9088 0
1.23108 -6.76032 -25.9088 0
0.832978 -6.81806 -25.9387 0
0.832978 -6.81806 -25.9387 0
0.61651 -6.86 -25.9384 0
0.39304 -6.88252 -25.9455 0
-0.301345 -6.98038 -25.932 0
-0.529122 -7.00194 -25.9379 0
6.97899 -7.52391 -25.4862 0
3.21482 -7.6677 -25.9272 0
3.22338 -7.95087 -25.9537 0
-6.43853 -8.20493 -25.9945 0
2.88061 -8.19505 -25.914 0
-6.65316 3.87298 -25.2338 0
-2.30241 2.93029 -25.4211 0
-2.67546 2.563 -25.4416 0
6.78133 0.738372 -25.1502 0
3.83861 -1.79633 -25.2329 0
4.32208 -2.09494 -25.2315 0
-4.85912 -2.21169 -25.2349 0
-5.24652 -2.44446 -25.2156 0
-4.69874 -2.61992 -25.2187 0
2.39387 -2.97713 -25.3192 0
0.542834 -5.8568 -25.7989 0
-0.557977 -5.98608 -25.7839 0
2.08388 -6.16591 -25.9283 0
1.67658 -6.54525 -25.9009 0
1.67658 -6.54525 -25.9009 0
1.96323 -7.07433 -25.8821 0
1.96323 -7.07433 -25.8821 0
3.16445 -7.48081 -25.9278 0
6.68829 -7.68668 -25.5175 0
7.52221 -7.84379 -25.5516 0
-4.70532 -8.00868 -25.8898 0
7.81836 -8.15979 -25.6526 0
-5.06711 -8.20174 -25.9375 0
-7.40753 -8.34168 -26.0237 0
1.64874 4.08325 -25.4373 0
-3.6695 3.95562 -25.3797 0
4.18723 2.21031 -24.9163 0
-0.196806 0.0497688 -25.39 0
-4.1483 -0.22702 -25.2861 0
-4.01904 -0.576549 -25.2882 0
-3.63988 -0.835176 -25.301 0
4.20895 -1.81497 -25.2349 0
5.75792 -1.92439 -25.2068 0
6.12733 -1.95159 -25.1991 0
7.43059 -2.13408 -25.3317 0
5.1529 -2.18385 -25.2519 0
-2.92125 -3.12945 -25.1686 0
7.24956 -4.89011 -25.3476 0
0.677506 -6.03081 -25.8301 0
3.36336 -6.35032 -25.9133 0
2.54291 -6.39646 -25.947 0
1.91034 -6.64333 -25.8977 0
1.91034 -6.64333 -25.8977 0
-0.92288 -6.97496 -25.9242 0
7.10129 -8.20416 -25.5859 0
-2.17869 8.28813 -25.418 0
-2.17952 4.85768 -25.3402 0
-0.87733 4.28245 -25.4398 0
2.04105 4.12624 -25.4416 0
-2.04201 2.70776 -25.3925 0
-4.29175 -1.82071 -25.279 0
5.66322 -2.23465 -25.2527 0
5.99256 -2.4595 -25.2994 0
6.90255 -2.55819 -25.3021 0
1.72327 -3.10761 -25.2661 0
-0.502152 -3.12717 -25.4181 0
-4.65981 -3.57194 -25.3359 0
3.91143 -4.32934 -25.3154 0
2.86854 -4.49799 -25.3536 0
7.72367 -4.92505 -25.4 0
1.23824 -5.89682 -26.0329 0
2.87681 -7.57679 -25.928 0
7.52812 -8.07908 -25.6254 0
-7.40116 -8.11782 -26.0228 0
-2.1932 2.43969 -25.4486 0
-4.85838 -0.27719 -25.2531 0
-3.29868 -3.40576 -25.2885 0
2.39707 -3.58439 -25.3059 0
-5.60916 -4.00547 -25.3386 0
2.75376 -4.08139 -25.3335 0
7.4845 -4.64863 -25.356 0
3.43055 -6.83059 -25.8565 0
-5.86294 3.51095 -25.2321 0
1.799 0.0167759 -25.1872 0
1.10156 -1.14529 -25.3669 0
3.76816 -6.4624 -25.9149 0
1.78911 4.55636 -25.4878 0
-4.95891 -0.92465 -25.2757 0
-4.63648 -3.98237 -25.3664 0
