ply
format ascii 1.0
element vertex 111
property float x
property float y
property float z
property uchar intensity
end_header
-6.52765 0.635564 -24.8903 0
-6.70792 0.61089 -24.9112 0
-6.41877 -1.59771 -24.8655 0
-1.09423 6.32423 -25.2493 0
-2.44101 5.81844 -24.8589 0
-5.04348 0.905004 -25.3004 0
-6.08667 0.673215 -24.8961 0
-6.71134 -1.79858 -24.8987 0
-6.33491 -1.84991 -24.8928 0
2.54824 -5.27456 -25.158 0
3.62887 -5.38165 -25.2445 0
-1.62349 8.10477 -24.8412 0
-1.02395 6.33673 -25.1983 0
-6.36346 1.57143 -25.6121 0
-7.30863 0.777486 -24.8959 0
1.16531 -2.5609 -25.0156 0
4.97899 -4.84857 -25.2163 0
-3.42553 3.29852 -25.5972 0
-4.54892 1.76741 -25.6476 0
-7.43703 1.28744 -25.6368 0
-4.35751 1.23739 -25.3729 0
-4.30994 1.1507 -25.3561 0
-5.80026 1.16086 -25.2686 0
-5.05453 1.03795 -25.3406 0
3.43027 0.926139 -25.4422 0
-0.456565 0.634246 -25.4235 0
-6.68058 -0.551055 -24.8752 0
-3.79781 -0.854457 -25.419 0
-6.33142 -1.3034 -24.8795 0
3.68272 -1.5721 -25.2555 0
8.0058 -2.56803 -25.1751 0
6.7575 -2.92977 -25.139 0
0.257237 -2.89524 -25.2513 0
6.39942 -3.65898 -25.2002 0
5.68893 8.54833 -24.9333 0
6.43547 7.70762 -24.9888 0
-3.65135 6.91055 -25.3033 0
-3.71148 6.1478 -25.3637 0
-3.76869 5.87732 -25.4414 0
5.20765 3.64043 -25.811 0
-4.64119 1.66663 -25.6291 0
-5.60639 1.41868 -25.5392 0
3.28739 1.07529 -25.4538 0
-6.58609 0.981296 -24.985 0
-5.88535 0.932874 -25.0804 0
4.85683 0.647464 -24.9246 0
0.352544 0.529663 -25.4972 0
-6.77853 -0.523857 -24.8738 0
-3.86157 -0.646652 -25.4314 0
-6.47061 -1.23395 -24.8747 0
-7.45969 -1.7893 -24.8957 0
6.61519 -3.4344 -25.1787 0
1.21519 -4.28071 -25.1078 0
1.08129 -4.30921 -25.111 0
-0.186489 -4.38767 -25.3471 0
4.26293 -5.09581 -25.2378 0
-2.06787 -7.45666 -25.4782 0
-3.99272 6.69689 -25.3554 0
-3.72804 6.30905 -25.3357 0
-3.85677 6.2969 -25.4253 0
7.29628 4.83541 -25.9392 0
7.24103 4.66328 -25.9541 0
7.63778 3.69575 -25.5915 0
2.19165 3.18935 -25.8545 0
0.226298 0.532462 -25.4851 0
0.226298 0.532462 -25.4851 0
-7.55394 0.45521 -24.8535 0
-7.33614 0.373269 -24.8475 0
2.30103 -0.533892 -25.4303 0
2.5568 -0.571726 -25.3869 0
5.49087 -1.12011 -25.1885 0
3.48081 -1.49112 -25.2579 0
0.104277 -2.97053 -25.2914 0
6.46402 -3.54622 -25.1999 0
6.46402 -3.54622 -25.1999 0
0.558365 -5.12259 -25.3175 0
5.47126 8.43432 -24.934 0
2.74267 7.52925 -24.8893 0
-3.78084 7.31665 -25.4872 0
3.85822 7.19633 -24.883 0
3.53164 7.09632 -24.8883 0
-4.16455 5.79131 -25.2917 0
-5.08102 1.4952 -25.6333 0
-1.99607 1.41956 -25.4438 0
-6.77471 -1.01303 -24.899 0
-6.10459 -1.3141 -24.8887 0
-6.62891 -2.01697 -24.8631 0
0.907421 -2.22337 -25.0684 0
4.26519 -4.7835 -25.2313 0
0.866544 -5.05306 -25.2107 0
3.89938 -5.57005 -25.2737 0
1.44759 -5.96562 -25.1711 0
-3.90575 8.03555 -25.6177 0
-4.01986 7.43233 -25.2884 0
-4.65475 7.17041 -25.0661 0
-4.61637 4.78865 -24.9012 0
1.04678 -2.40659 -25.0489 0
1.04678 -2.40659 -25.0489 0
1.49312 -2.80013 -25.0458 0
0.658848 -4.91815 -25.298 0
2.10269 -5.26102 -25.1203 0
3.42021 -1.27339 -25.2929 0
-6.24895 -1.57571 -24.8584 0
-6.39618 -2.05838 -24.8399 0
6.37723 -3.6868 -25.2106 0
-5.22972 1.42268 -25.6153 0
-6.46023 -0.293103 -24.8766 0
1.13133 -3.52016 -25.1498 0
3.24747 3.63845 -25.8759 0
-4.36364 0.986894 -25.3172 0
0.991745 -2.57174 -25.0614 0
