ply
format ascii 1.0
element vertex 20
property float x
property float y
property float z
property uchar red
property uchar green
property uchar blue
element face 16
property list uchar int vertex_index
end_header
-0.830621 4.31464 -5.72612 0 0 255
-7.20904 -2.79195 144.435 0 0 255
-6.58827 9.05462 144.561 0 0 255
14.4781 7.95713 143.96 0 0 255
13.8573 -3.88945 143.834 0 0 255
0.709558 4.38168 -8.54925 0 0 255
-5.2338 -3.92602 141.568 0 0 255
-5.61358 7.93004 141.748 0 0 255
15.4711 8.61412 141.176 0 0 255
15.8509 -3.24193 140.996 0 0 255
0.641705 1.20809 -9.58691 0 0 255
-4.55048 -4.95888 140.662 0 0 255
-4.28555 6.90161 140.697 0 0 255
16.8 6.4328 139.963 0 0 255
16.535 -5.42769 139.928 0 0 255
13.4071 -4.25518 -9.22747 0 0 255
-3.74452 -5.26163 140.253 0 0 255
-3.85375 6.59477 139.857 0 0 255
17.2263 6.82132 140.827 0 0 255
17.3355 -5.03507 141.223 0 0 255
3 0 1 2
3 0 2 3
3 0 3 4
3 0 4 1
3 5 6 7
3 5 7 8
3 5 8 9
3 5 9 6
3 10 11 12
3 10 12 13
3 10 13 14
3 10 14 11
3 15 16 17
3 15 17 18
3 15 18 19
3 15 19 16
