ply
format ascii 1.0
element vertex 148
property float x
property float y
property float z
property uchar intensity
end_header
-7.51567 -2.4845 23.5454 0
-5.56573 -0.711727 14.5954 0
-4.47983 -3.17516 23.8918 0
-6.86732 -3.8165 24.1442 0
-4.46378 -3.56742 23.9526 0
-4.46378 -3.56742 23.9526 0
-1.45471 -3.28147 23.0184 0
2.4373 -1.52905 41.6991 0
-1.48634 -3.64899 23.0139 0
-1.31652 -3.90765 23.0011 0
-5.08899 -5.13391 24.2314 0
-3.25262 -5.03551 23.7317 0
-1.77422 -4.95963 23.1796 0
-6.02853 -6.89704 24.6991 0
-7.57081 -9.10733 25.469 0
-4.98796 -8.41803 24.6056 0
-3.07837 -7.97001 23.8005 0
-6.55386 -10.7849 25.4757 0
-3.95988 -9.79279 24.2649 0
-15.3285 -18.0907 30.2097 0
-8.99459 -14.2308 27.1915 0
-17.7382 -23.7981 34.0216 0
-17.7382 -23.7981 34.0216 0
-9.03915 -14.6206 27.3228 0
-7.15633 -11.3349 25.8008 0
-9.96716 -12.6338 27.0318 0
-6.59205 -10.5107 25.4612 0
-3.13953 -7.74638 23.7753 0
-4.3795 -6.85335 24.2235 0
-5.95947 -7.12999 24.7302 0
-5.95947 -7.12999 24.7302 0
-4.1218 -6.34639 24.1041 0
-5.61928 -6.56159 24.5652 0
-5.61928 -6.56159 24.5652 0
-1.85083 -4.76771 23.1651 0
-2.97601 -4.79537 23.6303 0
-5.42388 -5.40421 24.3184 0
-5.83722 -5.48645 24.5552 0
-1.7637 -3.90708 23.1662 0
2.36265 -1.76933 55.1106 0
-3.61198 -3.77221 23.73 0
1.41163 -0.73837 110.671 0
-2.72851 -2.66237 23.4155 0
-5.34272 -2.87801 23.9132 0
-3.91973 -2.49083 23.7003 0
3.52122 -1.37163 80.1403 0
-5.34272 -2.87801 23.9132 0
-3.70047 -2.38866 23.6376 0
-2.02938 -3.32769 23.2094 0
-4.22556 -0.749553 32.6977 0
-6.82564 -2.41884 23.7335 0
3.63387 -1.24145 88.88 0
-7.07914 -2.93146 23.8698 0
-6.41635 -1.9408 16.7879 0
1.53696 -1.0223 43.1788 0
-8.19037 -2.66614 23.4933 0
-9.95763 -18.3959 28.7336 0
-6.45456 -3.46882 24.0776 0
-3.26446 -3.21046 23.6078 0
5.76008 -1.69314 131.19 0
-5.89669 -0.693639 31.5046 0
-6.09939 -3.49801 24.0806 0
-1.40364 -3.71121 22.9787 0
-8.72676 -3.49008 23.6775 0
-9.63753 -16.3376 27.9292 0
7.30058 -1.06002 154.485 0
-6.90866 -0.189064 42.0644 0
-14.1419 -18.5622 30.6159 0
-5.226 -4.0187 24.2618 0
-5.69484 -1.94408 17.1032 0
-2.17954 -4.2541 23.3626 0
-5.226 -4.0187 24.2618 0
-6.28726 -2.50132 23.8479 0
3.17444 -0.588052 97.0562 0
-9.13829 -17.5093 28.1044 0
-4.39569 -5.45787 24.0957 0
-3.00781 -3.43377 23.5735 0
-3.96506 -2.66731 23.7152 0
1.35701 -1.00798 64.6413 0
-3.60159 -2.95344 23.6756 0
1.58574 -1.15857 31.5337 0
-2.67777 -3.37378 23.4615 0
3.64218 -1.09994 99.3512 0
-4.12417 -3.937 23.8463 0
1.33561 -1.48823 18.375 0
-4.12417 -3.937 23.8463 0
3.50173 -1.24348 94.1016 0
1.66747 -1.61444 48.1 0
-4.78987 -3.96915 24.0486 0
1.66747 -1.61444 48.1 0
6.82254 -1.11415 196.279 0
7.28631 -1.37944 152.775 0
4.09226 -1.51758 91.0308 0
-8.91396 -10.249 26.135 0
-3.78845 -3.97849 23.8289 0
-9.92427 -12.2699 26.8944 0
5.89012 -1.57383 131.215 0
-6.5755 -10.8053 25.4857 0
6.657 -1.48641 216.292 0
-19.9522 -22.0541 32.2729 0
-1.64033 -3.97202 23.1058 0
-2.95631 -2.75897 23.4818 0
-4.13517 -3.6073 23.8783 0
2.38935 -0.920204 72.66 0
-8.36528 -4.06802 23.9942 0
1.5274 -0.823193 65.533 0
-4.43735 -1.13767 24.4701 0
-3.8657 -1.98428 23.8858 0
-7.37662 -2.47635 23.6855 0
-8.95733 -11.4297 26.4372 0
-3.06451 -4.08654 23.608 0
-3.4648 -3.57363 23.7101 0
-5.18183 -3.79761 24.0555 0
3.25921 -1.09994 74.9325 0
-3.89862 -3.43551 23.7927 0
-2.75551 -3.05284 23.5043 0
2.22452 -0.854005 83.1111 0
-4.9921 -3.43689 23.9925 0
-4.9921 -3.43689 23.9925 0
-2.40235 -2.88098 23.3389 0
-5.22234 -3.26382 23.977 0
-3.63647 -2.64725 23.6504 0
-3.63647 -2.64725 23.6504 0
-4.89849 -0.947527 22.2107 0
-4.89849 -0.947527 22.2107 0
-6.03617 -0.869954 31.4778 0
-8.84106 -3.68561 23.706 0
-7.02707 -2.43495 23.7342 0
-7.02707 -2.43495 23.7342 0
18.1459 5.57511 127.993 0
-7.4584 -15.1856 26.6279 0
-7.4584 -15.1856 26.6279 0
-1.48943 -4.272 23.0407 0
-1.48943 -4.272 23.0407 0
-2.9603 -4.29344 23.583 0
-2.9603 -4.29344 23.583 0
4.34906 -1.65586 119.274 0
-4.62406 -4.31539 24.0188 0
-2.79945 -3.75751 23.5634 0
-4.5489 -3.96348 23.9938 0
2.82364 -1.09136 100.976 0
1.45754 -1.18048 69.8999 0
-3.33895 -2.48632 23.5843 0
-7.42917 -2.7323 23.7379 0
-6.71054 -2.44633 23.7911 0
-7.52453 -2.49263 23.6218 0
-5.41789 -2.10118 17.2457 0
-5.57966 -12.376 25.2316 0
